<?xml version="1.0" encoding="utf-8" standalone="no"?>
<!DOCTYPE svg PUBLIC "-//W3C//DTD SVG 1.1//EN"
  "http://www.w3.org/Graphics/SVG/1.1/DTD/svg11.dtd">
<svg xmlns:xlink="http://www.w3.org/1999/xlink" width="587.030687pt" height="325.986375pt" viewBox="0 0 587.030687 325.986375" xmlns="http://www.w3.org/2000/svg" version="1.1">
 <metadata>
  <rdf:RDF xmlns:dc="http://purl.org/dc/elements/1.1/" xmlns:cc="http://creativecommons.org/ns#" xmlns:rdf="http://www.w3.org/1999/02/22-rdf-syntax-ns#">
   <cc:Work>
    <dc:type rdf:resource="http://purl.org/dc/dcmitype/StillImage"/>
    <dc:date>2024-04-08T18:44:16.306792</dc:date>
    <dc:format>image/svg+xml</dc:format>
    <dc:creator>
     <cc:Agent>
      <dc:title>Matplotlib v3.8.4, https://matplotlib.org/</dc:title>
     </cc:Agent>
    </dc:creator>
   </cc:Work>
  </rdf:RDF>
 </metadata>
 <defs>
  <style type="text/css">*{stroke-linejoin: round; stroke-linecap: butt}</style>
 </defs>
 <g id="figure_1">
  <g id="patch_1">
   <path d="M 0 325.986375 
L 587.030687 325.986375 
L 587.030687 0 
L 0 0 
z
" style="fill: #ffffff"/>
  </g>
  <g id="axes_1">
   <g id="patch_2">
    <path d="M 43.78125 288.430125 
L 400.90125 288.430125 
L 400.90125 22.318125 
L 43.78125 22.318125 
z
" style="fill: #ffffff"/>
   </g>
   <g id="matplotlib.axis_1">
    <g id="xtick_1">
     <g id="line2d_1">
      <defs>
       <path id="mf138f3571b" d="M 0 0 
L 0 3.5 
" style="stroke: #000000; stroke-width: 0.8"/>
      </defs>
      <g>
       <use xlink:href="#mf138f3571b" x="53.915682" y="288.430125" style="stroke: #000000; stroke-width: 0.8"/>
      </g>
     </g>
     <g id="text_1">
      <!-- 0 -->
      <g transform="translate(50.734432 303.028562) scale(0.1 -0.1)">
       <defs>
        <path id="DejaVuSans-30" d="M 2034 4250 
Q 1547 4250 1301 3770 
Q 1056 3291 1056 2328 
Q 1056 1369 1301 889 
Q 1547 409 2034 409 
Q 2525 409 2770 889 
Q 3016 1369 3016 2328 
Q 3016 3291 2770 3770 
Q 2525 4250 2034 4250 
z
M 2034 4750 
Q 2819 4750 3233 4129 
Q 3647 3509 3647 2328 
Q 3647 1150 3233 529 
Q 2819 -91 2034 -91 
Q 1250 -91 836 529 
Q 422 1150 422 2328 
Q 422 3509 836 4129 
Q 1250 4750 2034 4750 
z
" transform="scale(0.015625)"/>
       </defs>
       <use xlink:href="#DejaVuSans-30"/>
      </g>
     </g>
    </g>
    <g id="xtick_2">
     <g id="line2d_2">
      <g>
       <use xlink:href="#mf138f3571b" x="93.607728" y="288.430125" style="stroke: #000000; stroke-width: 0.8"/>
      </g>
     </g>
     <g id="text_2">
      <!-- 25 -->
      <g transform="translate(87.245228 303.028562) scale(0.1 -0.1)">
       <defs>
        <path id="DejaVuSans-32" d="M 1228 531 
L 3431 531 
L 3431 0 
L 469 0 
L 469 531 
Q 828 903 1448 1529 
Q 2069 2156 2228 2338 
Q 2531 2678 2651 2914 
Q 2772 3150 2772 3378 
Q 2772 3750 2511 3984 
Q 2250 4219 1831 4219 
Q 1534 4219 1204 4116 
Q 875 4013 500 3803 
L 500 4441 
Q 881 4594 1212 4672 
Q 1544 4750 1819 4750 
Q 2544 4750 2975 4387 
Q 3406 4025 3406 3419 
Q 3406 3131 3298 2873 
Q 3191 2616 2906 2266 
Q 2828 2175 2409 1742 
Q 1991 1309 1228 531 
z
" transform="scale(0.015625)"/>
        <path id="DejaVuSans-35" d="M 691 4666 
L 3169 4666 
L 3169 4134 
L 1269 4134 
L 1269 2991 
Q 1406 3038 1543 3061 
Q 1681 3084 1819 3084 
Q 2600 3084 3056 2656 
Q 3513 2228 3513 1497 
Q 3513 744 3044 326 
Q 2575 -91 1722 -91 
Q 1428 -91 1123 -41 
Q 819 9 494 109 
L 494 744 
Q 775 591 1075 516 
Q 1375 441 1709 441 
Q 2250 441 2565 725 
Q 2881 1009 2881 1497 
Q 2881 1984 2565 2268 
Q 2250 2553 1709 2553 
Q 1456 2553 1204 2497 
Q 953 2441 691 2322 
L 691 4666 
z
" transform="scale(0.015625)"/>
       </defs>
       <use xlink:href="#DejaVuSans-32"/>
       <use xlink:href="#DejaVuSans-35" x="63.623047"/>
      </g>
     </g>
    </g>
    <g id="xtick_3">
     <g id="line2d_3">
      <g>
       <use xlink:href="#mf138f3571b" x="133.299775" y="288.430125" style="stroke: #000000; stroke-width: 0.8"/>
      </g>
     </g>
     <g id="text_3">
      <!-- 50 -->
      <g transform="translate(126.937275 303.028562) scale(0.1 -0.1)">
       <use xlink:href="#DejaVuSans-35"/>
       <use xlink:href="#DejaVuSans-30" x="63.623047"/>
      </g>
     </g>
    </g>
    <g id="xtick_4">
     <g id="line2d_4">
      <g>
       <use xlink:href="#mf138f3571b" x="172.991822" y="288.430125" style="stroke: #000000; stroke-width: 0.8"/>
      </g>
     </g>
     <g id="text_4">
      <!-- 75 -->
      <g transform="translate(166.629322 303.028562) scale(0.1 -0.1)">
       <defs>
        <path id="DejaVuSans-37" d="M 525 4666 
L 3525 4666 
L 3525 4397 
L 1831 0 
L 1172 0 
L 2766 4134 
L 525 4134 
L 525 4666 
z
" transform="scale(0.015625)"/>
       </defs>
       <use xlink:href="#DejaVuSans-37"/>
       <use xlink:href="#DejaVuSans-35" x="63.623047"/>
      </g>
     </g>
    </g>
    <g id="xtick_5">
     <g id="line2d_5">
      <g>
       <use xlink:href="#mf138f3571b" x="212.683869" y="288.430125" style="stroke: #000000; stroke-width: 0.8"/>
      </g>
     </g>
     <g id="text_5">
      <!-- 100 -->
      <g transform="translate(203.140119 303.028562) scale(0.1 -0.1)">
       <defs>
        <path id="DejaVuSans-31" d="M 794 531 
L 1825 531 
L 1825 4091 
L 703 3866 
L 703 4441 
L 1819 4666 
L 2450 4666 
L 2450 531 
L 3481 531 
L 3481 0 
L 794 0 
L 794 531 
z
" transform="scale(0.015625)"/>
       </defs>
       <use xlink:href="#DejaVuSans-31"/>
       <use xlink:href="#DejaVuSans-30" x="63.623047"/>
       <use xlink:href="#DejaVuSans-30" x="127.246094"/>
      </g>
     </g>
    </g>
    <g id="xtick_6">
     <g id="line2d_6">
      <g>
       <use xlink:href="#mf138f3571b" x="252.375915" y="288.430125" style="stroke: #000000; stroke-width: 0.8"/>
      </g>
     </g>
     <g id="text_6">
      <!-- 125 -->
      <g transform="translate(242.832165 303.028562) scale(0.1 -0.1)">
       <use xlink:href="#DejaVuSans-31"/>
       <use xlink:href="#DejaVuSans-32" x="63.623047"/>
       <use xlink:href="#DejaVuSans-35" x="127.246094"/>
      </g>
     </g>
    </g>
    <g id="xtick_7">
     <g id="line2d_7">
      <g>
       <use xlink:href="#mf138f3571b" x="292.067962" y="288.430125" style="stroke: #000000; stroke-width: 0.8"/>
      </g>
     </g>
     <g id="text_7">
      <!-- 150 -->
      <g transform="translate(282.524212 303.028562) scale(0.1 -0.1)">
       <use xlink:href="#DejaVuSans-31"/>
       <use xlink:href="#DejaVuSans-35" x="63.623047"/>
       <use xlink:href="#DejaVuSans-30" x="127.246094"/>
      </g>
     </g>
    </g>
    <g id="xtick_8">
     <g id="line2d_8">
      <g>
       <use xlink:href="#mf138f3571b" x="331.760009" y="288.430125" style="stroke: #000000; stroke-width: 0.8"/>
      </g>
     </g>
     <g id="text_8">
      <!-- 175 -->
      <g transform="translate(322.216259 303.028562) scale(0.1 -0.1)">
       <use xlink:href="#DejaVuSans-31"/>
       <use xlink:href="#DejaVuSans-37" x="63.623047"/>
       <use xlink:href="#DejaVuSans-35" x="127.246094"/>
      </g>
     </g>
    </g>
    <g id="xtick_9">
     <g id="line2d_9">
      <g>
       <use xlink:href="#mf138f3571b" x="371.452056" y="288.430125" style="stroke: #000000; stroke-width: 0.8"/>
      </g>
     </g>
     <g id="text_9">
      <!-- 200 -->
      <g transform="translate(361.908306 303.028562) scale(0.1 -0.1)">
       <use xlink:href="#DejaVuSans-32"/>
       <use xlink:href="#DejaVuSans-30" x="63.623047"/>
       <use xlink:href="#DejaVuSans-30" x="127.246094"/>
      </g>
     </g>
    </g>
    <g id="text_10">
     <!-- Time (s) -->
     <g transform="translate(202.012344 316.706687) scale(0.1 -0.1)">
      <defs>
       <path id="DejaVuSans-54" d="M -19 4666 
L 3928 4666 
L 3928 4134 
L 2272 4134 
L 2272 0 
L 1638 0 
L 1638 4134 
L -19 4134 
L -19 4666 
z
" transform="scale(0.015625)"/>
       <path id="DejaVuSans-69" d="M 603 3500 
L 1178 3500 
L 1178 0 
L 603 0 
L 603 3500 
z
M 603 4863 
L 1178 4863 
L 1178 4134 
L 603 4134 
L 603 4863 
z
" transform="scale(0.015625)"/>
       <path id="DejaVuSans-6d" d="M 3328 2828 
Q 3544 3216 3844 3400 
Q 4144 3584 4550 3584 
Q 5097 3584 5394 3201 
Q 5691 2819 5691 2113 
L 5691 0 
L 5113 0 
L 5113 2094 
Q 5113 2597 4934 2840 
Q 4756 3084 4391 3084 
Q 3944 3084 3684 2787 
Q 3425 2491 3425 1978 
L 3425 0 
L 2847 0 
L 2847 2094 
Q 2847 2600 2669 2842 
Q 2491 3084 2119 3084 
Q 1678 3084 1418 2786 
Q 1159 2488 1159 1978 
L 1159 0 
L 581 0 
L 581 3500 
L 1159 3500 
L 1159 2956 
Q 1356 3278 1631 3431 
Q 1906 3584 2284 3584 
Q 2666 3584 2933 3390 
Q 3200 3197 3328 2828 
z
" transform="scale(0.015625)"/>
       <path id="DejaVuSans-65" d="M 3597 1894 
L 3597 1613 
L 953 1613 
Q 991 1019 1311 708 
Q 1631 397 2203 397 
Q 2534 397 2845 478 
Q 3156 559 3463 722 
L 3463 178 
Q 3153 47 2828 -22 
Q 2503 -91 2169 -91 
Q 1331 -91 842 396 
Q 353 884 353 1716 
Q 353 2575 817 3079 
Q 1281 3584 2069 3584 
Q 2775 3584 3186 3129 
Q 3597 2675 3597 1894 
z
M 3022 2063 
Q 3016 2534 2758 2815 
Q 2500 3097 2075 3097 
Q 1594 3097 1305 2825 
Q 1016 2553 972 2059 
L 3022 2063 
z
" transform="scale(0.015625)"/>
       <path id="DejaVuSans-20" transform="scale(0.015625)"/>
       <path id="DejaVuSans-28" d="M 1984 4856 
Q 1566 4138 1362 3434 
Q 1159 2731 1159 2009 
Q 1159 1288 1364 580 
Q 1569 -128 1984 -844 
L 1484 -844 
Q 1016 -109 783 600 
Q 550 1309 550 2009 
Q 550 2706 781 3412 
Q 1013 4119 1484 4856 
L 1984 4856 
z
" transform="scale(0.015625)"/>
       <path id="DejaVuSans-73" d="M 2834 3397 
L 2834 2853 
Q 2591 2978 2328 3040 
Q 2066 3103 1784 3103 
Q 1356 3103 1142 2972 
Q 928 2841 928 2578 
Q 928 2378 1081 2264 
Q 1234 2150 1697 2047 
L 1894 2003 
Q 2506 1872 2764 1633 
Q 3022 1394 3022 966 
Q 3022 478 2636 193 
Q 2250 -91 1575 -91 
Q 1294 -91 989 -36 
Q 684 19 347 128 
L 347 722 
Q 666 556 975 473 
Q 1284 391 1588 391 
Q 1994 391 2212 530 
Q 2431 669 2431 922 
Q 2431 1156 2273 1281 
Q 2116 1406 1581 1522 
L 1381 1569 
Q 847 1681 609 1914 
Q 372 2147 372 2553 
Q 372 3047 722 3315 
Q 1072 3584 1716 3584 
Q 2034 3584 2315 3537 
Q 2597 3491 2834 3397 
z
" transform="scale(0.015625)"/>
       <path id="DejaVuSans-29" d="M 513 4856 
L 1013 4856 
Q 1481 4119 1714 3412 
Q 1947 2706 1947 2009 
Q 1947 1309 1714 600 
Q 1481 -109 1013 -844 
L 513 -844 
Q 928 -128 1133 580 
Q 1338 1288 1338 2009 
Q 1338 2731 1133 3434 
Q 928 4138 513 4856 
z
" transform="scale(0.015625)"/>
      </defs>
      <use xlink:href="#DejaVuSans-54"/>
      <use xlink:href="#DejaVuSans-69" x="57.958984"/>
      <use xlink:href="#DejaVuSans-6d" x="85.742188"/>
      <use xlink:href="#DejaVuSans-65" x="183.154297"/>
      <use xlink:href="#DejaVuSans-20" x="244.677734"/>
      <use xlink:href="#DejaVuSans-28" x="276.464844"/>
      <use xlink:href="#DejaVuSans-73" x="315.478516"/>
      <use xlink:href="#DejaVuSans-29" x="367.578125"/>
     </g>
    </g>
   </g>
   <g id="matplotlib.axis_2">
    <g id="ytick_1">
     <g id="line2d_10">
      <defs>
       <path id="mb83357c60a" d="M 0 0 
L -3.5 0 
" style="stroke: #000000; stroke-width: 0.8"/>
      </defs>
      <g>
       <use xlink:href="#mb83357c60a" x="43.78125" y="278.239407" style="stroke: #000000; stroke-width: 0.8"/>
      </g>
     </g>
     <g id="text_11">
      <!-- 0.0 -->
      <g transform="translate(20.878125 282.038626) scale(0.1 -0.1)">
       <defs>
        <path id="DejaVuSans-2e" d="M 684 794 
L 1344 794 
L 1344 0 
L 684 0 
L 684 794 
z
" transform="scale(0.015625)"/>
       </defs>
       <use xlink:href="#DejaVuSans-30"/>
       <use xlink:href="#DejaVuSans-2e" x="63.623047"/>
       <use xlink:href="#DejaVuSans-30" x="95.410156"/>
      </g>
     </g>
    </g>
    <g id="ytick_2">
     <g id="line2d_11">
      <g>
       <use xlink:href="#mb83357c60a" x="43.78125" y="227.431888" style="stroke: #000000; stroke-width: 0.8"/>
      </g>
     </g>
     <g id="text_12">
      <!-- 0.2 -->
      <g transform="translate(20.878125 231.231107) scale(0.1 -0.1)">
       <use xlink:href="#DejaVuSans-30"/>
       <use xlink:href="#DejaVuSans-2e" x="63.623047"/>
       <use xlink:href="#DejaVuSans-32" x="95.410156"/>
      </g>
     </g>
    </g>
    <g id="ytick_3">
     <g id="line2d_12">
      <g>
       <use xlink:href="#mb83357c60a" x="43.78125" y="176.62437" style="stroke: #000000; stroke-width: 0.8"/>
      </g>
     </g>
     <g id="text_13">
      <!-- 0.4 -->
      <g transform="translate(20.878125 180.423588) scale(0.1 -0.1)">
       <defs>
        <path id="DejaVuSans-34" d="M 2419 4116 
L 825 1625 
L 2419 1625 
L 2419 4116 
z
M 2253 4666 
L 3047 4666 
L 3047 1625 
L 3713 1625 
L 3713 1100 
L 3047 1100 
L 3047 0 
L 2419 0 
L 2419 1100 
L 313 1100 
L 313 1709 
L 2253 4666 
z
" transform="scale(0.015625)"/>
       </defs>
       <use xlink:href="#DejaVuSans-30"/>
       <use xlink:href="#DejaVuSans-2e" x="63.623047"/>
       <use xlink:href="#DejaVuSans-34" x="95.410156"/>
      </g>
     </g>
    </g>
    <g id="ytick_4">
     <g id="line2d_13">
      <g>
       <use xlink:href="#mb83357c60a" x="43.78125" y="125.816851" style="stroke: #000000; stroke-width: 0.8"/>
      </g>
     </g>
     <g id="text_14">
      <!-- 0.6 -->
      <g transform="translate(20.878125 129.61607) scale(0.1 -0.1)">
       <defs>
        <path id="DejaVuSans-36" d="M 2113 2584 
Q 1688 2584 1439 2293 
Q 1191 2003 1191 1497 
Q 1191 994 1439 701 
Q 1688 409 2113 409 
Q 2538 409 2786 701 
Q 3034 994 3034 1497 
Q 3034 2003 2786 2293 
Q 2538 2584 2113 2584 
z
M 3366 4563 
L 3366 3988 
Q 3128 4100 2886 4159 
Q 2644 4219 2406 4219 
Q 1781 4219 1451 3797 
Q 1122 3375 1075 2522 
Q 1259 2794 1537 2939 
Q 1816 3084 2150 3084 
Q 2853 3084 3261 2657 
Q 3669 2231 3669 1497 
Q 3669 778 3244 343 
Q 2819 -91 2113 -91 
Q 1303 -91 875 529 
Q 447 1150 447 2328 
Q 447 3434 972 4092 
Q 1497 4750 2381 4750 
Q 2619 4750 2861 4703 
Q 3103 4656 3366 4563 
z
" transform="scale(0.015625)"/>
       </defs>
       <use xlink:href="#DejaVuSans-30"/>
       <use xlink:href="#DejaVuSans-2e" x="63.623047"/>
       <use xlink:href="#DejaVuSans-36" x="95.410156"/>
      </g>
     </g>
    </g>
    <g id="ytick_5">
     <g id="line2d_14">
      <g>
       <use xlink:href="#mb83357c60a" x="43.78125" y="75.009332" style="stroke: #000000; stroke-width: 0.8"/>
      </g>
     </g>
     <g id="text_15">
      <!-- 0.8 -->
      <g transform="translate(20.878125 78.808551) scale(0.1 -0.1)">
       <defs>
        <path id="DejaVuSans-38" d="M 2034 2216 
Q 1584 2216 1326 1975 
Q 1069 1734 1069 1313 
Q 1069 891 1326 650 
Q 1584 409 2034 409 
Q 2484 409 2743 651 
Q 3003 894 3003 1313 
Q 3003 1734 2745 1975 
Q 2488 2216 2034 2216 
z
M 1403 2484 
Q 997 2584 770 2862 
Q 544 3141 544 3541 
Q 544 4100 942 4425 
Q 1341 4750 2034 4750 
Q 2731 4750 3128 4425 
Q 3525 4100 3525 3541 
Q 3525 3141 3298 2862 
Q 3072 2584 2669 2484 
Q 3125 2378 3379 2068 
Q 3634 1759 3634 1313 
Q 3634 634 3220 271 
Q 2806 -91 2034 -91 
Q 1263 -91 848 271 
Q 434 634 434 1313 
Q 434 1759 690 2068 
Q 947 2378 1403 2484 
z
M 1172 3481 
Q 1172 3119 1398 2916 
Q 1625 2713 2034 2713 
Q 2441 2713 2670 2916 
Q 2900 3119 2900 3481 
Q 2900 3844 2670 4047 
Q 2441 4250 2034 4250 
Q 1625 4250 1398 4047 
Q 1172 3844 1172 3481 
z
" transform="scale(0.015625)"/>
       </defs>
       <use xlink:href="#DejaVuSans-30"/>
       <use xlink:href="#DejaVuSans-2e" x="63.623047"/>
       <use xlink:href="#DejaVuSans-38" x="95.410156"/>
      </g>
     </g>
    </g>
    <g id="ytick_6">
     <g id="line2d_15">
      <g>
       <use xlink:href="#mb83357c60a" x="43.78125" y="24.201814" style="stroke: #000000; stroke-width: 0.8"/>
      </g>
     </g>
     <g id="text_16">
      <!-- 1.0 -->
      <g transform="translate(20.878125 28.001033) scale(0.1 -0.1)">
       <use xlink:href="#DejaVuSans-31"/>
       <use xlink:href="#DejaVuSans-2e" x="63.623047"/>
       <use xlink:href="#DejaVuSans-30" x="95.410156"/>
      </g>
     </g>
    </g>
    <g id="text_17">
     <!-- Utilization (%) -->
     <g transform="translate(14.798438 190.667875) rotate(-90) scale(0.1 -0.1)">
      <defs>
       <path id="DejaVuSans-55" d="M 556 4666 
L 1191 4666 
L 1191 1831 
Q 1191 1081 1462 751 
Q 1734 422 2344 422 
Q 2950 422 3222 751 
Q 3494 1081 3494 1831 
L 3494 4666 
L 4128 4666 
L 4128 1753 
Q 4128 841 3676 375 
Q 3225 -91 2344 -91 
Q 1459 -91 1007 375 
Q 556 841 556 1753 
L 556 4666 
z
" transform="scale(0.015625)"/>
       <path id="DejaVuSans-74" d="M 1172 4494 
L 1172 3500 
L 2356 3500 
L 2356 3053 
L 1172 3053 
L 1172 1153 
Q 1172 725 1289 603 
Q 1406 481 1766 481 
L 2356 481 
L 2356 0 
L 1766 0 
Q 1100 0 847 248 
Q 594 497 594 1153 
L 594 3053 
L 172 3053 
L 172 3500 
L 594 3500 
L 594 4494 
L 1172 4494 
z
" transform="scale(0.015625)"/>
       <path id="DejaVuSans-6c" d="M 603 4863 
L 1178 4863 
L 1178 0 
L 603 0 
L 603 4863 
z
" transform="scale(0.015625)"/>
       <path id="DejaVuSans-7a" d="M 353 3500 
L 3084 3500 
L 3084 2975 
L 922 459 
L 3084 459 
L 3084 0 
L 275 0 
L 275 525 
L 2438 3041 
L 353 3041 
L 353 3500 
z
" transform="scale(0.015625)"/>
       <path id="DejaVuSans-61" d="M 2194 1759 
Q 1497 1759 1228 1600 
Q 959 1441 959 1056 
Q 959 750 1161 570 
Q 1363 391 1709 391 
Q 2188 391 2477 730 
Q 2766 1069 2766 1631 
L 2766 1759 
L 2194 1759 
z
M 3341 1997 
L 3341 0 
L 2766 0 
L 2766 531 
Q 2569 213 2275 61 
Q 1981 -91 1556 -91 
Q 1019 -91 701 211 
Q 384 513 384 1019 
Q 384 1609 779 1909 
Q 1175 2209 1959 2209 
L 2766 2209 
L 2766 2266 
Q 2766 2663 2505 2880 
Q 2244 3097 1772 3097 
Q 1472 3097 1187 3025 
Q 903 2953 641 2809 
L 641 3341 
Q 956 3463 1253 3523 
Q 1550 3584 1831 3584 
Q 2591 3584 2966 3190 
Q 3341 2797 3341 1997 
z
" transform="scale(0.015625)"/>
       <path id="DejaVuSans-6f" d="M 1959 3097 
Q 1497 3097 1228 2736 
Q 959 2375 959 1747 
Q 959 1119 1226 758 
Q 1494 397 1959 397 
Q 2419 397 2687 759 
Q 2956 1122 2956 1747 
Q 2956 2369 2687 2733 
Q 2419 3097 1959 3097 
z
M 1959 3584 
Q 2709 3584 3137 3096 
Q 3566 2609 3566 1747 
Q 3566 888 3137 398 
Q 2709 -91 1959 -91 
Q 1206 -91 779 398 
Q 353 888 353 1747 
Q 353 2609 779 3096 
Q 1206 3584 1959 3584 
z
" transform="scale(0.015625)"/>
       <path id="DejaVuSans-6e" d="M 3513 2113 
L 3513 0 
L 2938 0 
L 2938 2094 
Q 2938 2591 2744 2837 
Q 2550 3084 2163 3084 
Q 1697 3084 1428 2787 
Q 1159 2491 1159 1978 
L 1159 0 
L 581 0 
L 581 3500 
L 1159 3500 
L 1159 2956 
Q 1366 3272 1645 3428 
Q 1925 3584 2291 3584 
Q 2894 3584 3203 3211 
Q 3513 2838 3513 2113 
z
" transform="scale(0.015625)"/>
       <path id="DejaVuSans-25" d="M 4653 2053 
Q 4381 2053 4226 1822 
Q 4072 1591 4072 1178 
Q 4072 772 4226 539 
Q 4381 306 4653 306 
Q 4919 306 5073 539 
Q 5228 772 5228 1178 
Q 5228 1588 5073 1820 
Q 4919 2053 4653 2053 
z
M 4653 2450 
Q 5147 2450 5437 2106 
Q 5728 1763 5728 1178 
Q 5728 594 5436 251 
Q 5144 -91 4653 -91 
Q 4153 -91 3862 251 
Q 3572 594 3572 1178 
Q 3572 1766 3864 2108 
Q 4156 2450 4653 2450 
z
M 1428 4353 
Q 1159 4353 1004 4120 
Q 850 3888 850 3481 
Q 850 3069 1003 2837 
Q 1156 2606 1428 2606 
Q 1700 2606 1854 2837 
Q 2009 3069 2009 3481 
Q 2009 3884 1853 4118 
Q 1697 4353 1428 4353 
z
M 4250 4750 
L 4750 4750 
L 1831 -91 
L 1331 -91 
L 4250 4750 
z
M 1428 4750 
Q 1922 4750 2215 4408 
Q 2509 4066 2509 3481 
Q 2509 2891 2217 2550 
Q 1925 2209 1428 2209 
Q 931 2209 642 2551 
Q 353 2894 353 3481 
Q 353 4063 643 4406 
Q 934 4750 1428 4750 
z
" transform="scale(0.015625)"/>
      </defs>
      <use xlink:href="#DejaVuSans-55"/>
      <use xlink:href="#DejaVuSans-74" x="73.193359"/>
      <use xlink:href="#DejaVuSans-69" x="112.402344"/>
      <use xlink:href="#DejaVuSans-6c" x="140.185547"/>
      <use xlink:href="#DejaVuSans-69" x="167.96875"/>
      <use xlink:href="#DejaVuSans-7a" x="195.751953"/>
      <use xlink:href="#DejaVuSans-61" x="248.242188"/>
      <use xlink:href="#DejaVuSans-74" x="309.521484"/>
      <use xlink:href="#DejaVuSans-69" x="348.730469"/>
      <use xlink:href="#DejaVuSans-6f" x="376.513672"/>
      <use xlink:href="#DejaVuSans-6e" x="437.695312"/>
      <use xlink:href="#DejaVuSans-20" x="501.074219"/>
      <use xlink:href="#DejaVuSans-28" x="532.861328"/>
      <use xlink:href="#DejaVuSans-25" x="571.875"/>
      <use xlink:href="#DejaVuSans-29" x="666.894531"/>
     </g>
    </g>
   </g>
   <g id="line2d_16">
    <path d="M 60.013977 263.020015 
L 63.189341 262.36917 
L 64.269276 259.341042 
L 67.44464 258.211591 
L 67.952387 256.637574 
L 70.620003 256.512588 
L 71.12775 254.906054 
L 73.795367 254.682501 
L 74.303114 253.121186 
L 76.970731 251.116829 
L 77.478478 252.487616 
L 80.146095 251.615759 
L 80.653842 245.465509 
L 83.321458 242.923609 
L 83.829205 232.269272 
L 86.496822 218.544129 
L 87.004569 215.29194 
L 89.672186 208.122999 
L 90.179933 204.995796 
L 92.84755 203.727132 
L 94.942978 197.654618 
L 97.610595 195.485137 
L 98.118342 197.931011 
L 100.785959 196.789874 
L 101.293706 202.143462 
L 103.961323 215.022152 
L 104.46907 214.877859 
L 107.136686 216.04948 
L 107.644433 216.721663 
L 110.31205 216.842077 
L 112.407479 218.302793 
L 115.075096 212.817106 
L 115.582843 204.44301 
L 118.250459 201.981894 
L 118.758206 197.679005 
L 121.425823 185.512637 
L 121.93357 185.314996 
L 124.601187 174.043348 
L 126.696616 174.472163 
L 127.776551 156.707822 
L 129.87198 161.911528 
L 130.951914 168.078037 
L 133.047343 183.05711 
L 135.71496 187.238568 
L 137.810389 198.60421 
L 138.890324 211.334542 
L 140.985753 216.019503 
L 142.065687 235.250149 
L 144.161116 239.924441 
L 145.241051 262.725331 
L 147.33648 262.274668 
L 150.004097 265.028944 
L 150.511844 264.966451 
L 153.179461 268.113468 
" clip-path="url(#p77e79ad30b)" style="fill: none; stroke: #1f77b4; stroke-width: 1.5; stroke-linecap: square"/>
   </g>
   <g id="line2d_17">
    <path d="M 61.093912 250.956278 
L 63.189341 249.254226 
L 64.269276 247.471898 
L 66.364705 245.553914 
L 67.44464 245.260247 
L 70.620003 243.881839 
L 71.12775 250.412637 
L 73.795367 249.557547 
L 74.303114 247.863624 
L 77.478478 248.28177 
L 78.558413 246.020835 
L 80.653842 237.859623 
L 81.733776 236.558951 
L 83.829205 227.575166 
L 84.90914 218.317019 
L 87.004569 209.554247 
L 88.084504 201.612523 
L 91.259868 192.480888 
L 91.767615 190.346464 
L 94.435231 185.735682 
L 94.942978 186.626846 
L 97.610595 192.724764 
L 98.118342 192.314748 
L 101.293706 197.865977 
L 102.373641 205.223414 
L 104.46907 210.75178 
L 105.549004 215.082105 
L 107.644433 220.555091 
L 108.724368 219.830575 
L 111.899732 219.641571 
L 112.407479 215.811701 
L 115.075096 201.614048 
L 115.582843 198.911596 
L 118.758206 193.130716 
L 119.838141 183.303526 
L 121.93357 164.749636 
L 123.013505 166.134141 
L 126.188869 167.951526 
L 126.696616 152.469967 
L 129.364233 160.066707 
L 129.87198 143.91703 
L 133.047343 161.570102 
L 134.127278 148.670581 
L 136.222707 159.610964 
L 137.302642 170.366916 
L 139.398071 193.598145 
L 140.478006 196.29196 
L 142.573434 200.999785 
L 145.241051 224.30875 
L 145.748798 224.44085 
L 148.416415 248.12325 
L 148.924162 248.564768 
L 151.591779 267.347799 
L 153.687208 266.499314 
" clip-path="url(#p77e79ad30b)" style="fill: none; stroke: #ff7f0e; stroke-width: 1.5; stroke-linecap: square"/>
   </g>
   <g id="line2d_18">
    <path d="M 143.896136 274.439005 
L 143.896136 34.414125 
" clip-path="url(#p77e79ad30b)" style="fill: none; stroke-dasharray: 5.55,2.4; stroke-dashoffset: 0; stroke: #2ca02c; stroke-width: 1.5"/>
   </g>
   <g id="line2d_19">
    <path d="M 120.771493 274.439005 
L 120.771493 34.414125 
" clip-path="url(#p77e79ad30b)" style="fill: none; stroke-dasharray: 5.55,2.4; stroke-dashoffset: 0; stroke: #d62728; stroke-width: 1.5"/>
   </g>
   <g id="line2d_20">
    <path d="M 61.153115 271.449998 
L 63.956785 270.938367 
L 64.328479 270.557818 
L 67.503843 270.619803 
L 70.307513 270.503454 
L 70.679206 270.635554 
L 73.482876 270.378976 
L 73.85457 269.928313 
L 76.65824 268.279101 
L 77.029934 265.568012 
L 79.833604 265.440485 
L 80.205298 264.67634 
L 83.008968 263.358901 
L 83.380661 263.41733 
L 86.184331 263.267447 
L 88.143707 263.707949 
L 90.947377 263.77349 
L 91.319071 262.767501 
L 94.122741 264.547289 
L 94.494434 267.192328 
L 97.298104 267.639434 
L 97.669798 268.082984 
L 100.473468 267.810656 
L 100.845162 266.118257 
L 103.648832 264.641283 
L 104.020526 263.805499 
L 106.824196 263.677972 
L 107.195889 265.133099 
L 109.999559 265.322611 
L 110.371253 265.704684 
L 113.174923 266.021723 
L 113.546617 266.786376 
L 116.721981 268.059104 
L 117.937969 269.756076 
L 121.113332 271.183259 
L 121.485026 271.183767 
L 124.288696 271.308753 
L 124.66039 271.121274 
L 127.46406 267.721234 
L 127.835754 267.026696 
L 130.639424 265.140212 
L 131.011117 260.801758 
L 133.814787 260.61123 
L 134.186481 259.846577 
L 136.990151 258.711537 
L 137.361845 258.427015 
L 140.165515 258.806547 
L 140.537209 258.618051 
L 143.712572 262.345291 
L 146.516242 263.917784 
L 146.887936 267.682621 
L 149.691606 267.357961 
L 150.0633 268.189172 
L 154.454652 265.696047 
L 154.826345 266.543008 
L 157.630015 265.283998 
L 158.001709 263.85021 
L 160.805379 263.912703 
L 161.177073 263.516404 
L 163.980743 263.129759 
L 164.352437 262.179658 
L 167.156107 262.952949 
L 167.5278 262.696371 
L 170.703164 268.303489 
L 173.506834 269.627533 
L 173.878528 271.249309 
L 176.682198 270.619803 
L 177.053892 270.680772 
L 179.857562 269.965403 
L 180.229255 264.903449 
L 183.032925 264.451771 
L 183.404619 259.313606 
L 186.579983 259.377116 
L 187.795971 257.310266 
L 191.343028 256.862652 
L 194.146698 257.55719 
L 194.518392 257.943836 
L 197.322062 257.391558 
L 197.693756 262.570876 
L 200.497426 263.031192 
L 200.86912 266.491692 
L 203.67279 265.290095 
L 204.044483 267.229926 
L 206.848153 264.524425 
L 207.219847 262.911795 
L 210.023517 262.526166 
L 210.395211 258.351312 
L 213.198881 260.132115 
L 213.570575 260.63765 
L 216.374245 260.431372 
L 216.745938 262.168481 
L 219.921302 262.864544 
L 224.312654 262.615587 
L 224.684348 262.959554 
L 227.488018 263.279133 
L 227.859711 267.261934 
L 230.663381 266.165 
L 231.035075 266.683237 
L 234.210439 261.272744 
L 237.014109 260.953673 
L 237.385803 256.101047 
L 240.189473 257.290451 
L 240.561166 258.039862 
L 243.73653 258.050023 
L 246.5402 258.966083 
L 246.911894 258.967099 
L 249.715564 262.149682 
L 252.890928 259.042294 
L 253.262621 264.074779 
L 256.437985 265.116333 
L 257.653973 265.82713 
L 260.829337 265.506535 
L 261.201031 260.905914 
L 264.004701 260.957738 
L 264.376394 260.50301 
L 267.180064 260.89626 
L 267.551758 261.90987 
L 270.355428 265.355128 
L 270.727122 265.102615 
L 273.902486 265.760064 
L 276.706156 262.181183 
L 277.077849 264.586919 
L 279.881519 259.766809 
L 280.253213 260.164632 
L 283.056883 260.466937 
L 283.428577 259.957338 
L 286.232247 259.76935 
L 286.603941 258.100831 
L 289.779304 258.22785 
L 290.995292 256.332221 
L 294.170656 260.354652 
L 294.54235 262.034349 
L 297.34602 266.850902 
L 297.717714 267.09935 
L 300.521384 268.377668 
L 300.893077 268.839 
L 303.696747 266.327076 
L 304.068441 267.50073 
L 306.872111 264.520361 
L 307.243805 266.546565 
L 310.047475 257.508415 
L 310.419169 258.149098 
L 313.222839 256.423167 
L 313.594532 253.791845 
L 316.398202 248.134428 
L 316.769896 244.723211 
L 319.94526 247.356057 
L 321.161248 240.781564 
L 323.120624 243.822902 
L 324.336612 243.633898 
L 327.511975 252.293531 
L 327.883669 252.165496 
L 330.687339 253.068854 
L 331.059033 255.134688 
L 333.862703 260.662546 
L 334.234397 264.250065 
L 337.038067 264.316623 
L 337.40976 271.446442 
L 340.21343 271.510967 
L 340.585124 270.493801 
L 343.760488 270.556802 
L 346.564158 271.638494 
L 346.935852 271.565839 
L 350.111215 271.252357 
L 353.286579 270.931253 
L 354.502567 270.482623 
L 356.461943 269.591967 
L 357.677931 269.511183 
L 360.853295 269.764713 
L 361.224988 268.880154 
L 364.028658 268.621544 
L 364.400352 267.656201 
L 367.204022 267.777123 
L 367.575716 267.393526 
L 370.379386 267.968159 
L 370.75108 268.672859 
L 373.55475 267.349831 
L 373.926443 267.565255 
L 376.730113 267.567796 
L 377.101807 268.387829 
L 383.452535 268.797338 
L 383.452535 268.797338 
" clip-path="url(#p77e79ad30b)" style="fill: none; stroke: #9467bd; stroke-width: 1.5; stroke-linecap: square"/>
   </g>
   <g id="line2d_21">
    <path d="M 60.781421 271.374295 
L 63.956785 270.174221 
L 67.132149 269.985726 
L 71.895194 269.736769 
L 72.266888 268.825282 
L 75.070558 265.952117 
L 77.029934 262.332081 
L 78.245922 261.424151 
L 80.205298 260.261166 
L 81.421286 260.278441 
L 83.380661 259.195225 
L 84.596649 259.576281 
L 86.556025 258.816709 
L 87.772013 258.941695 
L 89.731389 260.10722 
L 90.947377 262.848285 
L 92.906753 266.40532 
L 94.122741 267.566272 
L 96.082116 269.170265 
L 97.298104 269.471045 
L 99.25748 265.450138 
L 100.473468 261.808763 
L 102.432844 261.993195 
L 103.648832 261.226001 
L 105.608208 260.979585 
L 111.587241 261.039538 
L 113.546617 261.163 
L 114.762605 260.908962 
L 117.937969 269.975056 
L 119.897344 270.870284 
L 121.113332 271.699463 
L 123.072708 271.944355 
L 124.288696 271.690826 
L 126.248072 270.874349 
L 127.46406 266.439361 
L 129.423436 262.536835 
L 130.639424 261.587243 
L 132.598799 261.395698 
L 133.814787 261.446506 
L 135.774163 260.923697 
L 136.990151 261.052748 
L 138.949527 260.733168 
L 140.165515 261.003972 
L 142.124891 260.473034 
L 144.92856 264.780495 
L 146.887936 268.999552 
L 148.103924 269.772842 
L 150.0633 270.407936 
L 151.279288 269.917135 
L 153.238664 269.808407 
L 154.454652 267.717678 
L 156.414027 263.242552 
L 157.630015 262.718726 
L 159.589391 262.26908 
L 160.805379 262.648104 
L 162.764755 262.201506 
L 163.980743 263.4595 
L 165.940119 263.204954 
L 167.156107 263.652568 
L 169.115482 263.840048 
L 170.33147 264.404012 
L 172.290846 268.700803 
L 173.506834 267.938691 
L 175.46621 267.502762 
L 176.682198 266.98605 
L 178.641574 266.607534 
L 181.445243 265.028436 
L 183.404619 262.860479 
L 184.620607 262.59374 
L 186.579983 261.68835 
L 187.795971 263.078951 
L 189.755347 262.750735 
L 190.971335 262.672999 
L 192.93071 264.313574 
L 194.146698 264.638234 
L 196.106074 264.957305 
L 197.322062 266.660882 
L 199.281438 268.839508 
L 200.497426 269.409568 
L 202.456802 268.359377 
L 203.67279 265.912995 
L 205.632165 266.48966 
L 206.848153 264.505119 
L 208.807529 264.20637 
L 210.023517 263.887807 
L 211.982893 261.676156 
L 214.786563 261.745254 
L 216.745938 261.60909 
L 217.961926 258.677496 
L 219.921302 259.090053 
L 221.13729 259.761729 
L 223.096666 259.754616 
L 224.312654 263.021539 
L 227.488018 263.846145 
L 229.447393 266.061861 
L 230.663381 265.35208 
L 232.622757 265.545148 
L 233.838745 264.851626 
L 235.798121 262.600345 
L 237.014109 263.939123 
L 238.973485 263.041862 
L 240.189473 262.97632 
L 242.148848 263.17701 
L 244.952518 262.987498 
L 245.324212 261.576065 
L 248.127882 262.027744 
L 248.499576 262.341734 
L 251.303246 264.882618 
L 253.262621 268.993455 
L 254.478609 266.876305 
L 256.437985 267.710565 
L 257.653973 266.524209 
L 259.613349 265.904866 
L 260.829337 263.970623 
L 262.788713 262.806115 
L 264.004701 263.127219 
L 265.964076 262.113101 
L 267.180064 260.583286 
L 269.13944 260.332297 
L 270.355428 263.08454 
L 272.314804 261.242768 
L 275.118474 262.570876 
L 275.490168 262.316331 
L 278.293837 261.885991 
L 278.665531 264.652968 
L 281.469201 261.152838 
L 281.840895 262.232498 
L 284.644565 264.337454 
L 285.016259 264.271404 
L 287.819929 263.889839 
L 289.779304 260.577189 
L 290.995292 260.630029 
L 292.954668 261.313898 
L 294.170656 262.934658 
L 296.130032 262.732952 
L 297.34602 266.23105 
L 299.305396 263.798894 
L 300.521384 264.050391 
L 302.480759 264.305445 
L 303.696747 263.446798 
L 305.656123 268.479283 
L 306.872111 265.068574 
L 308.831487 265.322103 
L 311.635157 259.649444 
L 312.006851 259.714986 
L 314.81052 259.277025 
L 315.182214 259.948192 
L 317.985884 257.419502 
L 318.357578 247.498318 
L 321.161248 248.031289 
L 323.120624 241.641735 
L 324.336612 244.927965 
L 326.295987 244.679517 
L 327.511975 251.161032 
L 329.471351 251.23013 
L 330.687339 251.603057 
L 332.646715 253.17555 
L 333.862703 255.643271 
L 335.822079 265.43134 
L 337.038067 264.991346 
L 338.997442 271.571936 
L 341.801112 271.638494 
L 344.976476 268.225753 
L 345.34817 266.864112 
L 348.523534 266.609566 
L 351.327203 266.554186 
L 351.698897 265.666578 
L 354.502567 265.280949 
L 356.461943 264.324752 
L 357.677931 264.32272 
L 359.637307 259.811012 
L 360.853295 262.885375 
L 362.81267 263.05558 
L 364.028658 262.164416 
L 365.988034 261.598928 
L 369.163398 261.725947 
L 371.967068 262.167465 
L 372.338762 262.737525 
L 375.142432 262.739049 
L 377.101807 267.269556 
L 378.317795 267.329 
L 380.277171 268.708425 
L 383.452535 269.646331 
L 384.668523 269.014794 
L 384.668523 269.014794 
" clip-path="url(#p77e79ad30b)" style="fill: none; stroke: #8c564b; stroke-width: 1.5; stroke-linecap: square"/>
   </g>
   <g id="line2d_22">
    <path d="M 375.602065 276.334125 
L 375.602065 175.227163 
" clip-path="url(#p77e79ad30b)" style="fill: none; stroke-dasharray: 5.55,2.4; stroke-dashoffset: 0; stroke: #e377c2; stroke-width: 1.5"/>
   </g>
   <g id="line2d_23">
    <path d="M 313.534926 276.334125 
L 313.534926 175.227163 
" clip-path="url(#p77e79ad30b)" style="fill: none; stroke-dasharray: 5.55,2.4; stroke-dashoffset: 0; stroke: #7f7f7f; stroke-width: 1.5"/>
   </g>
   <g id="patch_3">
    <path d="M 43.78125 288.430125 
L 43.78125 22.318125 
" style="fill: none; stroke: #000000; stroke-width: 0.8; stroke-linejoin: miter; stroke-linecap: square"/>
   </g>
   <g id="patch_4">
    <path d="M 400.90125 288.430125 
L 400.90125 22.318125 
" style="fill: none; stroke: #000000; stroke-width: 0.8; stroke-linejoin: miter; stroke-linecap: square"/>
   </g>
   <g id="patch_5">
    <path d="M 43.78125 288.430125 
L 400.90125 288.430125 
" style="fill: none; stroke: #000000; stroke-width: 0.8; stroke-linejoin: miter; stroke-linecap: square"/>
   </g>
   <g id="patch_6">
    <path d="M 43.78125 22.318125 
L 400.90125 22.318125 
" style="fill: none; stroke: #000000; stroke-width: 0.8; stroke-linejoin: miter; stroke-linecap: square"/>
   </g>
   <g id="text_18">
    <!-- create-many-tiny-vms (cpu) -->
    <g transform="translate(138.902813 16.318125) scale(0.12 -0.12)">
     <defs>
      <path id="DejaVuSans-63" d="M 3122 3366 
L 3122 2828 
Q 2878 2963 2633 3030 
Q 2388 3097 2138 3097 
Q 1578 3097 1268 2742 
Q 959 2388 959 1747 
Q 959 1106 1268 751 
Q 1578 397 2138 397 
Q 2388 397 2633 464 
Q 2878 531 3122 666 
L 3122 134 
Q 2881 22 2623 -34 
Q 2366 -91 2075 -91 
Q 1284 -91 818 406 
Q 353 903 353 1747 
Q 353 2603 823 3093 
Q 1294 3584 2113 3584 
Q 2378 3584 2631 3529 
Q 2884 3475 3122 3366 
z
" transform="scale(0.015625)"/>
      <path id="DejaVuSans-72" d="M 2631 2963 
Q 2534 3019 2420 3045 
Q 2306 3072 2169 3072 
Q 1681 3072 1420 2755 
Q 1159 2438 1159 1844 
L 1159 0 
L 581 0 
L 581 3500 
L 1159 3500 
L 1159 2956 
Q 1341 3275 1631 3429 
Q 1922 3584 2338 3584 
Q 2397 3584 2469 3576 
Q 2541 3569 2628 3553 
L 2631 2963 
z
" transform="scale(0.015625)"/>
      <path id="DejaVuSans-2d" d="M 313 2009 
L 1997 2009 
L 1997 1497 
L 313 1497 
L 313 2009 
z
" transform="scale(0.015625)"/>
      <path id="DejaVuSans-79" d="M 2059 -325 
Q 1816 -950 1584 -1140 
Q 1353 -1331 966 -1331 
L 506 -1331 
L 506 -850 
L 844 -850 
Q 1081 -850 1212 -737 
Q 1344 -625 1503 -206 
L 1606 56 
L 191 3500 
L 800 3500 
L 1894 763 
L 2988 3500 
L 3597 3500 
L 2059 -325 
z
" transform="scale(0.015625)"/>
      <path id="DejaVuSans-76" d="M 191 3500 
L 800 3500 
L 1894 563 
L 2988 3500 
L 3597 3500 
L 2284 0 
L 1503 0 
L 191 3500 
z
" transform="scale(0.015625)"/>
      <path id="DejaVuSans-70" d="M 1159 525 
L 1159 -1331 
L 581 -1331 
L 581 3500 
L 1159 3500 
L 1159 2969 
Q 1341 3281 1617 3432 
Q 1894 3584 2278 3584 
Q 2916 3584 3314 3078 
Q 3713 2572 3713 1747 
Q 3713 922 3314 415 
Q 2916 -91 2278 -91 
Q 1894 -91 1617 61 
Q 1341 213 1159 525 
z
M 3116 1747 
Q 3116 2381 2855 2742 
Q 2594 3103 2138 3103 
Q 1681 3103 1420 2742 
Q 1159 2381 1159 1747 
Q 1159 1113 1420 752 
Q 1681 391 2138 391 
Q 2594 391 2855 752 
Q 3116 1113 3116 1747 
z
" transform="scale(0.015625)"/>
      <path id="DejaVuSans-75" d="M 544 1381 
L 544 3500 
L 1119 3500 
L 1119 1403 
Q 1119 906 1312 657 
Q 1506 409 1894 409 
Q 2359 409 2629 706 
Q 2900 1003 2900 1516 
L 2900 3500 
L 3475 3500 
L 3475 0 
L 2900 0 
L 2900 538 
Q 2691 219 2414 64 
Q 2138 -91 1772 -91 
Q 1169 -91 856 284 
Q 544 659 544 1381 
z
M 1991 3584 
L 1991 3584 
z
" transform="scale(0.015625)"/>
     </defs>
     <use xlink:href="#DejaVuSans-63"/>
     <use xlink:href="#DejaVuSans-72" x="54.980469"/>
     <use xlink:href="#DejaVuSans-65" x="93.84375"/>
     <use xlink:href="#DejaVuSans-61" x="155.367188"/>
     <use xlink:href="#DejaVuSans-74" x="216.646484"/>
     <use xlink:href="#DejaVuSans-65" x="255.855469"/>
     <use xlink:href="#DejaVuSans-2d" x="317.378906"/>
     <use xlink:href="#DejaVuSans-6d" x="353.462891"/>
     <use xlink:href="#DejaVuSans-61" x="450.875"/>
     <use xlink:href="#DejaVuSans-6e" x="512.154297"/>
     <use xlink:href="#DejaVuSans-79" x="575.533203"/>
     <use xlink:href="#DejaVuSans-2d" x="632.962891"/>
     <use xlink:href="#DejaVuSans-74" x="669.046875"/>
     <use xlink:href="#DejaVuSans-69" x="708.255859"/>
     <use xlink:href="#DejaVuSans-6e" x="736.039062"/>
     <use xlink:href="#DejaVuSans-79" x="799.417969"/>
     <use xlink:href="#DejaVuSans-2d" x="856.847656"/>
     <use xlink:href="#DejaVuSans-76" x="890.306641"/>
     <use xlink:href="#DejaVuSans-6d" x="949.486328"/>
     <use xlink:href="#DejaVuSans-73" x="1046.898438"/>
     <use xlink:href="#DejaVuSans-20" x="1098.998047"/>
     <use xlink:href="#DejaVuSans-28" x="1130.785156"/>
     <use xlink:href="#DejaVuSans-63" x="1169.798828"/>
     <use xlink:href="#DejaVuSans-70" x="1224.779297"/>
     <use xlink:href="#DejaVuSans-75" x="1288.255859"/>
     <use xlink:href="#DejaVuSans-29" x="1351.634766"/>
    </g>
   </g>
   <g id="legend_1">
    <g id="patch_7">
     <path d="M 425.75725 147.743125 
L 577.830688 147.743125 
Q 579.830688 147.743125 579.830688 145.743125 
L 579.830688 29.318125 
Q 579.830688 27.318125 577.830688 27.318125 
L 425.75725 27.318125 
Q 423.75725 27.318125 423.75725 29.318125 
L 423.75725 145.743125 
Q 423.75725 147.743125 425.75725 147.743125 
z
" style="fill: #ffffff; opacity: 0.8; stroke: #cccccc; stroke-linejoin: miter"/>
    </g>
    <g id="line2d_24">
     <path d="M 427.75725 35.416562 
L 437.75725 35.416562 
L 447.75725 35.416562 
" style="fill: none; stroke: #1f77b4; stroke-width: 1.5; stroke-linecap: square"/>
    </g>
    <g id="text_19">
     <!-- kubevirt cpu -->
     <g transform="translate(455.75725 38.916562) scale(0.1 -0.1)">
      <defs>
       <path id="DejaVuSans-6b" d="M 581 4863 
L 1159 4863 
L 1159 1991 
L 2875 3500 
L 3609 3500 
L 1753 1863 
L 3688 0 
L 2938 0 
L 1159 1709 
L 1159 0 
L 581 0 
L 581 4863 
z
" transform="scale(0.015625)"/>
       <path id="DejaVuSans-62" d="M 3116 1747 
Q 3116 2381 2855 2742 
Q 2594 3103 2138 3103 
Q 1681 3103 1420 2742 
Q 1159 2381 1159 1747 
Q 1159 1113 1420 752 
Q 1681 391 2138 391 
Q 2594 391 2855 752 
Q 3116 1113 3116 1747 
z
M 1159 2969 
Q 1341 3281 1617 3432 
Q 1894 3584 2278 3584 
Q 2916 3584 3314 3078 
Q 3713 2572 3713 1747 
Q 3713 922 3314 415 
Q 2916 -91 2278 -91 
Q 1894 -91 1617 61 
Q 1341 213 1159 525 
L 1159 0 
L 581 0 
L 581 4863 
L 1159 4863 
L 1159 2969 
z
" transform="scale(0.015625)"/>
      </defs>
      <use xlink:href="#DejaVuSans-6b"/>
      <use xlink:href="#DejaVuSans-75" x="54.785156"/>
      <use xlink:href="#DejaVuSans-62" x="118.164062"/>
      <use xlink:href="#DejaVuSans-65" x="181.640625"/>
      <use xlink:href="#DejaVuSans-76" x="243.164062"/>
      <use xlink:href="#DejaVuSans-69" x="302.34375"/>
      <use xlink:href="#DejaVuSans-72" x="330.126953"/>
      <use xlink:href="#DejaVuSans-74" x="371.240234"/>
      <use xlink:href="#DejaVuSans-20" x="410.449219"/>
      <use xlink:href="#DejaVuSans-63" x="442.236328"/>
      <use xlink:href="#DejaVuSans-70" x="497.216797"/>
      <use xlink:href="#DejaVuSans-75" x="560.693359"/>
     </g>
    </g>
    <g id="line2d_25">
     <path d="M 427.75725 50.094688 
L 437.75725 50.094688 
L 447.75725 50.094688 
" style="fill: none; stroke: #ff7f0e; stroke-width: 1.5; stroke-linecap: square"/>
    </g>
    <g id="text_20">
     <!-- kubevirt cpu -->
     <g transform="translate(455.75725 53.594688) scale(0.1 -0.1)">
      <use xlink:href="#DejaVuSans-6b"/>
      <use xlink:href="#DejaVuSans-75" x="54.785156"/>
      <use xlink:href="#DejaVuSans-62" x="118.164062"/>
      <use xlink:href="#DejaVuSans-65" x="181.640625"/>
      <use xlink:href="#DejaVuSans-76" x="243.164062"/>
      <use xlink:href="#DejaVuSans-69" x="302.34375"/>
      <use xlink:href="#DejaVuSans-72" x="330.126953"/>
      <use xlink:href="#DejaVuSans-74" x="371.240234"/>
      <use xlink:href="#DejaVuSans-20" x="410.449219"/>
      <use xlink:href="#DejaVuSans-63" x="442.236328"/>
      <use xlink:href="#DejaVuSans-70" x="497.216797"/>
      <use xlink:href="#DejaVuSans-75" x="560.693359"/>
     </g>
    </g>
    <g id="line2d_26">
     <path d="M 427.75725 64.772812 
L 437.75725 64.772812 
L 447.75725 64.772812 
" style="fill: none; stroke-dasharray: 5.55,2.4; stroke-dashoffset: 0; stroke: #2ca02c; stroke-width: 1.5"/>
    </g>
    <g id="text_21">
     <!-- kubevirt finished -->
     <g transform="translate(455.75725 68.272812) scale(0.1 -0.1)">
      <defs>
       <path id="DejaVuSans-66" d="M 2375 4863 
L 2375 4384 
L 1825 4384 
Q 1516 4384 1395 4259 
Q 1275 4134 1275 3809 
L 1275 3500 
L 2222 3500 
L 2222 3053 
L 1275 3053 
L 1275 0 
L 697 0 
L 697 3053 
L 147 3053 
L 147 3500 
L 697 3500 
L 697 3744 
Q 697 4328 969 4595 
Q 1241 4863 1831 4863 
L 2375 4863 
z
" transform="scale(0.015625)"/>
       <path id="DejaVuSans-68" d="M 3513 2113 
L 3513 0 
L 2938 0 
L 2938 2094 
Q 2938 2591 2744 2837 
Q 2550 3084 2163 3084 
Q 1697 3084 1428 2787 
Q 1159 2491 1159 1978 
L 1159 0 
L 581 0 
L 581 4863 
L 1159 4863 
L 1159 2956 
Q 1366 3272 1645 3428 
Q 1925 3584 2291 3584 
Q 2894 3584 3203 3211 
Q 3513 2838 3513 2113 
z
" transform="scale(0.015625)"/>
       <path id="DejaVuSans-64" d="M 2906 2969 
L 2906 4863 
L 3481 4863 
L 3481 0 
L 2906 0 
L 2906 525 
Q 2725 213 2448 61 
Q 2172 -91 1784 -91 
Q 1150 -91 751 415 
Q 353 922 353 1747 
Q 353 2572 751 3078 
Q 1150 3584 1784 3584 
Q 2172 3584 2448 3432 
Q 2725 3281 2906 2969 
z
M 947 1747 
Q 947 1113 1208 752 
Q 1469 391 1925 391 
Q 2381 391 2643 752 
Q 2906 1113 2906 1747 
Q 2906 2381 2643 2742 
Q 2381 3103 1925 3103 
Q 1469 3103 1208 2742 
Q 947 2381 947 1747 
z
" transform="scale(0.015625)"/>
      </defs>
      <use xlink:href="#DejaVuSans-6b"/>
      <use xlink:href="#DejaVuSans-75" x="54.785156"/>
      <use xlink:href="#DejaVuSans-62" x="118.164062"/>
      <use xlink:href="#DejaVuSans-65" x="181.640625"/>
      <use xlink:href="#DejaVuSans-76" x="243.164062"/>
      <use xlink:href="#DejaVuSans-69" x="302.34375"/>
      <use xlink:href="#DejaVuSans-72" x="330.126953"/>
      <use xlink:href="#DejaVuSans-74" x="371.240234"/>
      <use xlink:href="#DejaVuSans-20" x="410.449219"/>
      <use xlink:href="#DejaVuSans-66" x="442.236328"/>
      <use xlink:href="#DejaVuSans-69" x="477.441406"/>
      <use xlink:href="#DejaVuSans-6e" x="505.224609"/>
      <use xlink:href="#DejaVuSans-69" x="568.603516"/>
      <use xlink:href="#DejaVuSans-73" x="596.386719"/>
      <use xlink:href="#DejaVuSans-68" x="648.486328"/>
      <use xlink:href="#DejaVuSans-65" x="711.865234"/>
      <use xlink:href="#DejaVuSans-64" x="773.388672"/>
     </g>
    </g>
    <g id="line2d_27">
     <path d="M 427.75725 79.450938 
L 437.75725 79.450938 
L 447.75725 79.450938 
" style="fill: none; stroke-dasharray: 5.55,2.4; stroke-dashoffset: 0; stroke: #d62728; stroke-width: 1.5"/>
    </g>
    <g id="text_22">
     <!-- kubevirt vm-running -->
     <g transform="translate(455.75725 82.950938) scale(0.1 -0.1)">
      <defs>
       <path id="DejaVuSans-67" d="M 2906 1791 
Q 2906 2416 2648 2759 
Q 2391 3103 1925 3103 
Q 1463 3103 1205 2759 
Q 947 2416 947 1791 
Q 947 1169 1205 825 
Q 1463 481 1925 481 
Q 2391 481 2648 825 
Q 2906 1169 2906 1791 
z
M 3481 434 
Q 3481 -459 3084 -895 
Q 2688 -1331 1869 -1331 
Q 1566 -1331 1297 -1286 
Q 1028 -1241 775 -1147 
L 775 -588 
Q 1028 -725 1275 -790 
Q 1522 -856 1778 -856 
Q 2344 -856 2625 -561 
Q 2906 -266 2906 331 
L 2906 616 
Q 2728 306 2450 153 
Q 2172 0 1784 0 
Q 1141 0 747 490 
Q 353 981 353 1791 
Q 353 2603 747 3093 
Q 1141 3584 1784 3584 
Q 2172 3584 2450 3431 
Q 2728 3278 2906 2969 
L 2906 3500 
L 3481 3500 
L 3481 434 
z
" transform="scale(0.015625)"/>
      </defs>
      <use xlink:href="#DejaVuSans-6b"/>
      <use xlink:href="#DejaVuSans-75" x="54.785156"/>
      <use xlink:href="#DejaVuSans-62" x="118.164062"/>
      <use xlink:href="#DejaVuSans-65" x="181.640625"/>
      <use xlink:href="#DejaVuSans-76" x="243.164062"/>
      <use xlink:href="#DejaVuSans-69" x="302.34375"/>
      <use xlink:href="#DejaVuSans-72" x="330.126953"/>
      <use xlink:href="#DejaVuSans-74" x="371.240234"/>
      <use xlink:href="#DejaVuSans-20" x="410.449219"/>
      <use xlink:href="#DejaVuSans-76" x="442.236328"/>
      <use xlink:href="#DejaVuSans-6d" x="501.416016"/>
      <use xlink:href="#DejaVuSans-2d" x="598.828125"/>
      <use xlink:href="#DejaVuSans-72" x="634.912109"/>
      <use xlink:href="#DejaVuSans-75" x="676.025391"/>
      <use xlink:href="#DejaVuSans-6e" x="739.404297"/>
      <use xlink:href="#DejaVuSans-6e" x="802.783203"/>
      <use xlink:href="#DejaVuSans-69" x="866.162109"/>
      <use xlink:href="#DejaVuSans-6e" x="893.945312"/>
      <use xlink:href="#DejaVuSans-67" x="957.324219"/>
     </g>
    </g>
    <g id="line2d_28">
     <path d="M 427.75725 94.129063 
L 437.75725 94.129063 
L 447.75725 94.129063 
" style="fill: none; stroke: #9467bd; stroke-width: 1.5; stroke-linecap: square"/>
    </g>
    <g id="text_23">
     <!-- opennebula cpu -->
     <g transform="translate(455.75725 97.629063) scale(0.1 -0.1)">
      <use xlink:href="#DejaVuSans-6f"/>
      <use xlink:href="#DejaVuSans-70" x="61.181641"/>
      <use xlink:href="#DejaVuSans-65" x="124.658203"/>
      <use xlink:href="#DejaVuSans-6e" x="186.181641"/>
      <use xlink:href="#DejaVuSans-6e" x="249.560547"/>
      <use xlink:href="#DejaVuSans-65" x="312.939453"/>
      <use xlink:href="#DejaVuSans-62" x="374.462891"/>
      <use xlink:href="#DejaVuSans-75" x="437.939453"/>
      <use xlink:href="#DejaVuSans-6c" x="501.318359"/>
      <use xlink:href="#DejaVuSans-61" x="529.101562"/>
      <use xlink:href="#DejaVuSans-20" x="590.380859"/>
      <use xlink:href="#DejaVuSans-63" x="622.167969"/>
      <use xlink:href="#DejaVuSans-70" x="677.148438"/>
      <use xlink:href="#DejaVuSans-75" x="740.625"/>
     </g>
    </g>
    <g id="line2d_29">
     <path d="M 427.75725 108.807187 
L 437.75725 108.807187 
L 447.75725 108.807187 
" style="fill: none; stroke: #8c564b; stroke-width: 1.5; stroke-linecap: square"/>
    </g>
    <g id="text_24">
     <!-- opennebula cpu -->
     <g transform="translate(455.75725 112.307187) scale(0.1 -0.1)">
      <use xlink:href="#DejaVuSans-6f"/>
      <use xlink:href="#DejaVuSans-70" x="61.181641"/>
      <use xlink:href="#DejaVuSans-65" x="124.658203"/>
      <use xlink:href="#DejaVuSans-6e" x="186.181641"/>
      <use xlink:href="#DejaVuSans-6e" x="249.560547"/>
      <use xlink:href="#DejaVuSans-65" x="312.939453"/>
      <use xlink:href="#DejaVuSans-62" x="374.462891"/>
      <use xlink:href="#DejaVuSans-75" x="437.939453"/>
      <use xlink:href="#DejaVuSans-6c" x="501.318359"/>
      <use xlink:href="#DejaVuSans-61" x="529.101562"/>
      <use xlink:href="#DejaVuSans-20" x="590.380859"/>
      <use xlink:href="#DejaVuSans-63" x="622.167969"/>
      <use xlink:href="#DejaVuSans-70" x="677.148438"/>
      <use xlink:href="#DejaVuSans-75" x="740.625"/>
     </g>
    </g>
    <g id="line2d_30">
     <path d="M 427.75725 123.485312 
L 437.75725 123.485312 
L 447.75725 123.485312 
" style="fill: none; stroke-dasharray: 5.55,2.4; stroke-dashoffset: 0; stroke: #e377c2; stroke-width: 1.5"/>
    </g>
    <g id="text_25">
     <!-- opennebula finished -->
     <g transform="translate(455.75725 126.985312) scale(0.1 -0.1)">
      <use xlink:href="#DejaVuSans-6f"/>
      <use xlink:href="#DejaVuSans-70" x="61.181641"/>
      <use xlink:href="#DejaVuSans-65" x="124.658203"/>
      <use xlink:href="#DejaVuSans-6e" x="186.181641"/>
      <use xlink:href="#DejaVuSans-6e" x="249.560547"/>
      <use xlink:href="#DejaVuSans-65" x="312.939453"/>
      <use xlink:href="#DejaVuSans-62" x="374.462891"/>
      <use xlink:href="#DejaVuSans-75" x="437.939453"/>
      <use xlink:href="#DejaVuSans-6c" x="501.318359"/>
      <use xlink:href="#DejaVuSans-61" x="529.101562"/>
      <use xlink:href="#DejaVuSans-20" x="590.380859"/>
      <use xlink:href="#DejaVuSans-66" x="622.167969"/>
      <use xlink:href="#DejaVuSans-69" x="657.373047"/>
      <use xlink:href="#DejaVuSans-6e" x="685.15625"/>
      <use xlink:href="#DejaVuSans-69" x="748.535156"/>
      <use xlink:href="#DejaVuSans-73" x="776.318359"/>
      <use xlink:href="#DejaVuSans-68" x="828.417969"/>
      <use xlink:href="#DejaVuSans-65" x="891.796875"/>
      <use xlink:href="#DejaVuSans-64" x="953.320312"/>
     </g>
    </g>
    <g id="line2d_31">
     <path d="M 427.75725 138.163437 
L 437.75725 138.163437 
L 447.75725 138.163437 
" style="fill: none; stroke-dasharray: 5.55,2.4; stroke-dashoffset: 0; stroke: #7f7f7f; stroke-width: 1.5"/>
    </g>
    <g id="text_26">
     <!-- opennebula vm-running -->
     <g transform="translate(455.75725 141.663437) scale(0.1 -0.1)">
      <use xlink:href="#DejaVuSans-6f"/>
      <use xlink:href="#DejaVuSans-70" x="61.181641"/>
      <use xlink:href="#DejaVuSans-65" x="124.658203"/>
      <use xlink:href="#DejaVuSans-6e" x="186.181641"/>
      <use xlink:href="#DejaVuSans-6e" x="249.560547"/>
      <use xlink:href="#DejaVuSans-65" x="312.939453"/>
      <use xlink:href="#DejaVuSans-62" x="374.462891"/>
      <use xlink:href="#DejaVuSans-75" x="437.939453"/>
      <use xlink:href="#DejaVuSans-6c" x="501.318359"/>
      <use xlink:href="#DejaVuSans-61" x="529.101562"/>
      <use xlink:href="#DejaVuSans-20" x="590.380859"/>
      <use xlink:href="#DejaVuSans-76" x="622.167969"/>
      <use xlink:href="#DejaVuSans-6d" x="681.347656"/>
      <use xlink:href="#DejaVuSans-2d" x="778.759766"/>
      <use xlink:href="#DejaVuSans-72" x="814.84375"/>
      <use xlink:href="#DejaVuSans-75" x="855.957031"/>
      <use xlink:href="#DejaVuSans-6e" x="919.335938"/>
      <use xlink:href="#DejaVuSans-6e" x="982.714844"/>
      <use xlink:href="#DejaVuSans-69" x="1046.09375"/>
      <use xlink:href="#DejaVuSans-6e" x="1073.876953"/>
      <use xlink:href="#DejaVuSans-67" x="1137.255859"/>
     </g>
    </g>
   </g>
  </g>
 </g>
 <defs>
  <clipPath id="p77e79ad30b">
   <rect x="43.78125" y="22.318125" width="357.12" height="266.112"/>
  </clipPath>
 </defs>
</svg>
