<?xml version="1.0" encoding="utf-8" standalone="no"?>
<!DOCTYPE svg PUBLIC "-//W3C//DTD SVG 1.1//EN"
  "http://www.w3.org/Graphics/SVG/1.1/DTD/svg11.dtd">
<svg xmlns:xlink="http://www.w3.org/1999/xlink" width="575.001pt" height="325.986375pt" viewBox="0 0 575.001 325.986375" xmlns="http://www.w3.org/2000/svg" version="1.1">
 <metadata>
  <rdf:RDF xmlns:dc="http://purl.org/dc/elements/1.1/" xmlns:cc="http://creativecommons.org/ns#" xmlns:rdf="http://www.w3.org/1999/02/22-rdf-syntax-ns#">
   <cc:Work>
    <dc:type rdf:resource="http://purl.org/dc/dcmitype/StillImage"/>
    <dc:date>2024-04-09T22:42:05.511221</dc:date>
    <dc:format>image/svg+xml</dc:format>
    <dc:creator>
     <cc:Agent>
      <dc:title>Matplotlib v3.8.4, https://matplotlib.org/</dc:title>
     </cc:Agent>
    </dc:creator>
   </cc:Work>
  </rdf:RDF>
 </metadata>
 <defs>
  <style type="text/css">*{stroke-linejoin: round; stroke-linecap: butt}</style>
 </defs>
 <g id="figure_1">
  <g id="patch_1">
   <path d="M 0 325.986375 
L 575.001 325.986375 
L 575.001 0 
L 0 0 
z
" style="fill: #ffffff"/>
  </g>
  <g id="axes_1">
   <g id="patch_2">
    <path d="M 50.14375 288.430125 
L 407.26375 288.430125 
L 407.26375 22.318125 
L 50.14375 22.318125 
z
" style="fill: #ffffff"/>
   </g>
   <g id="PolyCollection_1">
    <path d="M 66.376477 274.008894 
L 66.376477 288.430125 
L 76.239099 288.430125 
L 85.454776 288.430125 
L 95.317397 288.430125 
L 104.533074 288.430125 
L 114.395696 288.430125 
L 123.611372 288.430125 
L 133.473994 288.430125 
L 142.689671 288.430125 
L 152.552293 288.430125 
L 171.307119 288.430125 
L 171.630591 288.430125 
L 190.385417 288.430125 
L 190.708889 288.430125 
L 209.463715 288.430125 
L 209.787188 288.430125 
L 228.542014 288.430125 
L 228.865486 288.430125 
L 247.620312 288.430125 
L 257.482934 288.430125 
L 266.698611 288.430125 
L 276.561232 288.430125 
L 285.776909 288.430125 
L 295.639531 288.430125 
L 304.855207 288.430125 
L 314.717829 288.430125 
L 323.933506 288.430125 
L 333.796128 288.430125 
L 352.550953 288.430125 
L 352.874426 288.430125 
L 371.629252 288.430125 
L 371.952724 288.430125 
L 390.70755 288.430125 
L 391.031023 288.430125 
L 391.031023 273.564309 
L 391.031023 273.564309 
L 390.70755 273.053565 
L 371.952724 273.404205 
L 371.629252 272.238493 
L 352.874426 271.244792 
L 352.550953 272.073096 
L 333.796128 271.559706 
L 323.933506 271.709225 
L 314.717829 272.036048 
L 304.855207 271.518688 
L 295.639531 270.849164 
L 285.776909 271.517365 
L 276.561232 272.155133 
L 266.698611 272.496511 
L 257.482934 272.808779 
L 247.620312 271.645712 
L 228.865486 271.656298 
L 228.542014 271.98709 
L 209.787188 271.99106 
L 209.463715 271.871974 
L 190.708889 271.363877 
L 190.385417 271.354615 
L 171.630591 270.043353 
L 171.307119 270.363561 
L 152.552293 270.700969 
L 142.689671 271.698639 
L 133.473994 272.188212 
L 123.611372 272.0162 
L 114.395696 271.850804 
L 104.533074 271.993706 
L 95.317397 272.352285 
L 85.454776 272.030755 
L 76.239099 273.349955 
L 66.376477 274.008894 
z
" clip-path="url(#p58f36c0f27)" style="fill: #ae9d31"/>
   </g>
   <g id="PolyCollection_2">
    <path d="M 66.376477 260.414645 
L 66.376477 274.008894 
L 76.239099 273.349955 
L 85.454776 272.030755 
L 95.317397 272.352285 
L 104.533074 271.993706 
L 114.395696 271.850804 
L 123.611372 272.0162 
L 133.473994 272.188212 
L 142.689671 271.698639 
L 152.552293 270.700969 
L 171.307119 270.363561 
L 171.630591 270.043353 
L 190.385417 271.354615 
L 190.708889 271.363877 
L 209.463715 271.871974 
L 209.787188 271.99106 
L 228.542014 271.98709 
L 228.865486 271.656298 
L 247.620312 271.645712 
L 257.482934 272.808779 
L 266.698611 272.496511 
L 276.561232 272.155133 
L 285.776909 271.517365 
L 295.639531 270.849164 
L 304.855207 271.518688 
L 314.717829 272.036048 
L 323.933506 271.709225 
L 333.796128 271.559706 
L 352.550953 272.073096 
L 352.874426 271.244792 
L 371.629252 272.238493 
L 371.952724 273.404205 
L 390.70755 273.053565 
L 391.031023 273.564309 
L 391.031023 258.998853 
L 391.031023 258.998853 
L 390.70755 258.650859 
L 371.952724 258.837426 
L 371.629252 257.014097 
L 352.874426 256.185793 
L 352.550953 256.851348 
L 333.796128 255.520238 
L 323.933506 254.841452 
L 314.717829 254.18119 
L 304.855207 253.815995 
L 295.639531 252.483563 
L 285.776909 252.656898 
L 276.561232 253.122654 
L 266.698611 253.789532 
L 257.482934 254.265873 
L 247.620312 253.094868 
L 228.865486 253.258941 
L 228.542014 253.409782 
L 209.787188 253.416398 
L 209.463715 252.639697 
L 190.708889 253.294666 
L 190.385417 253.438892 
L 171.630591 251.796838 
L 171.307119 252.282441 
L 152.552293 252.782599 
L 142.689671 254.276459 
L 133.473994 254.767355 
L 123.611372 254.775294 
L 114.395696 254.759416 
L 104.533074 255.401153 
L 95.317397 256.079939 
L 85.454776 256.766665 
L 76.239099 259.254224 
L 66.376477 260.414645 
z
" clip-path="url(#p58f36c0f27)" style="fill: #ae9d31"/>
   </g>
   <g id="PolyCollection_3">
    <path d="M 66.376477 247.008285 
L 66.376477 260.414645 
L 76.239099 259.254224 
L 85.454776 256.766665 
L 95.317397 256.079939 
L 104.533074 255.401153 
L 114.395696 254.759416 
L 123.611372 254.775294 
L 133.473994 254.767355 
L 142.689671 254.276459 
L 152.552293 252.782599 
L 171.307119 252.282441 
L 171.630591 251.796838 
L 190.385417 253.438892 
L 190.708889 253.294666 
L 209.463715 252.639697 
L 209.787188 253.416398 
L 228.542014 253.409782 
L 228.865486 253.258941 
L 247.620312 253.094868 
L 257.482934 254.265873 
L 266.698611 253.789532 
L 276.561232 253.122654 
L 285.776909 252.656898 
L 295.639531 252.483563 
L 304.855207 253.815995 
L 314.717829 254.18119 
L 323.933506 254.841452 
L 333.796128 255.520238 
L 352.550953 256.851348 
L 352.874426 256.185793 
L 371.629252 257.014097 
L 371.952724 258.837426 
L 390.70755 258.650859 
L 391.031023 258.998853 
L 391.031023 245.94578 
L 391.031023 245.94578 
L 390.70755 244.780067 
L 371.952724 243.80489 
L 371.629252 241.974946 
L 352.874426 240.815849 
L 352.550953 240.987861 
L 333.796128 239.654106 
L 323.933506 239.13013 
L 314.717829 239.291557 
L 304.855207 238.929009 
L 295.639531 236.933668 
L 285.776909 237.097741 
L 276.561232 238.72921 
L 266.698611 238.755673 
L 257.482934 238.565137 
L 247.620312 237.888997 
L 228.865486 237.241967 
L 228.542014 236.728577 
L 209.787188 235.902919 
L 209.463715 234.289974 
L 190.708889 235.109017 
L 190.385417 236.074931 
L 171.630591 233.771292 
L 171.307119 234.24631 
L 152.552293 236.229742 
L 142.689671 237.887674 
L 133.473994 239.026923 
L 123.611372 240.199252 
L 114.395696 240.520782 
L 104.533074 241.177075 
L 95.317397 241.527715 
L 85.454776 241.556824 
L 76.239099 244.532634 
L 66.376477 247.008285 
z
" clip-path="url(#p58f36c0f27)" style="fill: #ae9d31"/>
   </g>
   <g id="PolyCollection_4">
    <path d="M 66.376477 230.975433 
L 66.376477 247.008285 
L 76.239099 244.532634 
L 85.454776 241.556824 
L 95.317397 241.527715 
L 104.533074 241.177075 
L 114.395696 240.520782 
L 123.611372 240.199252 
L 133.473994 239.026923 
L 142.689671 237.887674 
L 152.552293 236.229742 
L 171.307119 234.24631 
L 171.630591 233.771292 
L 190.385417 236.074931 
L 190.708889 235.109017 
L 209.463715 234.289974 
L 209.787188 235.902919 
L 228.542014 236.728577 
L 228.865486 237.241967 
L 247.620312 237.888997 
L 257.482934 238.565137 
L 266.698611 238.755673 
L 276.561232 238.72921 
L 285.776909 237.097741 
L 295.639531 236.933668 
L 304.855207 238.929009 
L 314.717829 239.291557 
L 323.933506 239.13013 
L 333.796128 239.654106 
L 352.550953 240.987861 
L 352.874426 240.815849 
L 371.629252 241.974946 
L 371.952724 243.80489 
L 390.70755 244.780067 
L 391.031023 245.94578 
L 391.031023 229.725037 
L 391.031023 229.725037 
L 390.70755 227.745575 
L 371.952724 226.626173 
L 371.629252 224.153168 
L 352.874426 222.820736 
L 352.550953 222.832644 
L 333.796128 221.792633 
L 323.933506 222.570657 
L 314.717829 223.557742 
L 304.855207 223.701967 
L 295.639531 222.365565 
L 285.776909 222.83926 
L 276.561232 225.291094 
L 266.698611 225.64835 
L 257.482934 224.808137 
L 247.620312 224.461467 
L 228.865486 223.825022 
L 228.542014 222.135334 
L 209.787188 220.821426 
L 209.463715 219.197896 
L 190.708889 218.876366 
L 190.385417 220.026201 
L 171.630591 217.218434 
L 171.307119 217.344135 
L 152.552293 219.81317 
L 142.689671 220.841273 
L 133.473994 222.161797 
L 123.611372 223.351327 
L 114.395696 223.488937 
L 104.533074 223.663595 
L 95.317397 224.486607 
L 85.454776 224.187571 
L 76.239099 227.828935 
L 66.376477 230.975433 
z
" clip-path="url(#p58f36c0f27)" style="fill: #ae9d31"/>
   </g>
   <g id="PolyCollection_5">
    <path d="M 66.376477 211.370022 
L 66.376477 230.975433 
L 76.239099 227.828935 
L 85.454776 224.187571 
L 95.317397 224.486607 
L 104.533074 223.663595 
L 114.395696 223.488937 
L 123.611372 223.351327 
L 133.473994 222.161797 
L 142.689671 220.841273 
L 152.552293 219.81317 
L 171.307119 217.344135 
L 171.630591 217.218434 
L 190.385417 220.026201 
L 190.708889 218.876366 
L 209.463715 219.197896 
L 209.787188 220.821426 
L 228.542014 222.135334 
L 228.865486 223.825022 
L 247.620312 224.461467 
L 257.482934 224.808137 
L 266.698611 225.64835 
L 276.561232 225.291094 
L 285.776909 222.83926 
L 295.639531 222.365565 
L 304.855207 223.701967 
L 314.717829 223.557742 
L 323.933506 222.570657 
L 333.796128 221.792633 
L 352.550953 222.832644 
L 352.874426 222.820736 
L 371.629252 224.153168 
L 371.952724 226.626173 
L 390.70755 227.745575 
L 391.031023 229.725037 
L 391.031023 209.207962 
L 391.031023 209.207962 
L 390.70755 205.966195 
L 371.952724 203.690343 
L 371.629252 198.348705 
L 352.874426 195.82542 
L 352.550953 188.589002 
L 333.796128 182.935096 
L 323.933506 178.102879 
L 314.717829 171.469828 
L 304.855207 170.112255 
L 295.639531 165.715361 
L 285.776909 164.691227 
L 276.561232 166.812269 
L 266.698611 169.699426 
L 257.482934 165.18477 
L 247.620312 171.0742 
L 228.865486 176.216039 
L 228.542014 178.64141 
L 209.787188 184.938376 
L 209.463715 183.830883 
L 190.708889 185.738894 
L 190.385417 190.645209 
L 171.630591 188.491088 
L 171.307119 189.765301 
L 152.552293 196.747669 
L 142.689671 198.105242 
L 133.473994 199.751265 
L 123.611372 202.770739 
L 114.395696 201.05988 
L 104.533074 202.033734 
L 95.317397 203.535532 
L 85.454776 203.073745 
L 76.239099 207.547383 
L 66.376477 211.370022 
z
" clip-path="url(#p58f36c0f27)" style="fill: #ae9d31"/>
   </g>
   <g id="PolyCollection_6">
    <path d="M 66.376477 196.103285 
L 66.376477 211.370022 
L 76.239099 207.547383 
L 85.454776 203.073745 
L 95.317397 203.535532 
L 104.533074 202.033734 
L 114.395696 201.05988 
L 123.611372 202.770739 
L 133.473994 199.751265 
L 142.689671 198.105242 
L 152.552293 196.747669 
L 171.307119 189.765301 
L 171.630591 188.491088 
L 190.385417 190.645209 
L 190.708889 185.738894 
L 209.463715 183.830883 
L 209.787188 184.938376 
L 228.542014 178.64141 
L 228.865486 176.216039 
L 247.620312 171.0742 
L 257.482934 165.18477 
L 266.698611 169.699426 
L 276.561232 166.812269 
L 285.776909 164.691227 
L 295.639531 165.715361 
L 304.855207 170.112255 
L 314.717829 171.469828 
L 323.933506 178.102879 
L 333.796128 182.935096 
L 352.550953 188.589002 
L 352.874426 195.82542 
L 371.629252 198.348705 
L 371.952724 203.690343 
L 390.70755 205.966195 
L 391.031023 209.207962 
L 391.031023 193.101012 
L 391.031023 193.101012 
L 390.70755 188.866868 
L 371.952724 186.588369 
L 371.629252 180.577207 
L 352.874426 177.854123 
L 352.550953 166.0488 
L 333.796128 156.581518 
L 323.933506 151.425124 
L 314.717829 142.492403 
L 304.855207 141.420635 
L 295.639531 136.047241 
L 285.776909 131.891164 
L 276.561232 129.149555 
L 266.698611 125.915728 
L 257.482934 117.726628 
L 247.620312 116.429921 
L 228.865486 115.018099 
L 228.542014 115.59897 
L 209.787188 121.495016 
L 209.463715 120.613785 
L 190.708889 122.533705 
L 190.385417 131.397621 
L 171.630591 131.413499 
L 171.307119 138.477904 
L 152.552293 149.498588 
L 142.689671 162.449777 
L 133.473994 174.621619 
L 123.611372 180.288756 
L 114.395696 180.288756 
L 104.533074 181.596048 
L 95.317397 184.06773 
L 85.454776 183.762078 
L 76.239099 191.436464 
L 66.376477 196.103285 
z
" clip-path="url(#p58f36c0f27)" style="fill: #ae9d31"/>
   </g>
   <g id="PolyCollection_7">
    <path d="M 66.376477 182.184859 
L 66.376477 196.103285 
L 76.239099 191.436464 
L 85.454776 183.762078 
L 95.317397 184.06773 
L 104.533074 181.596048 
L 114.395696 180.288756 
L 123.611372 180.288756 
L 133.473994 174.621619 
L 142.689671 162.449777 
L 152.552293 149.498588 
L 171.307119 138.477904 
L 171.630591 131.413499 
L 190.385417 131.397621 
L 190.708889 122.533705 
L 209.463715 120.613785 
L 209.787188 121.495016 
L 228.542014 115.59897 
L 228.865486 115.018099 
L 247.620312 116.429921 
L 257.482934 117.726628 
L 266.698611 125.915728 
L 276.561232 129.149555 
L 285.776909 131.891164 
L 295.639531 136.047241 
L 304.855207 141.420635 
L 314.717829 142.492403 
L 323.933506 151.425124 
L 333.796128 156.581518 
L 352.550953 166.0488 
L 352.874426 177.854123 
L 371.629252 180.577207 
L 371.952724 186.588369 
L 390.70755 188.866868 
L 391.031023 193.101012 
L 391.031023 173.459875 
L 391.031023 173.459875 
L 390.70755 168.898908 
L 371.952724 167.959457 
L 371.629252 162.775277 
L 352.874426 159.738602 
L 352.550953 147.253169 
L 333.796128 136.972137 
L 323.933506 131.962615 
L 314.717829 123.35407 
L 304.855207 122.107644 
L 295.639531 117.370695 
L 285.776909 113.209325 
L 276.561232 110.643698 
L 266.698611 106.924267 
L 257.482934 99.06596 
L 247.620312 98.604174 
L 228.865486 98.012717 
L 228.542014 97.439784 
L 209.787188 103.167787 
L 209.463715 102.44666 
L 190.708889 104.533299 
L 190.385417 114.044245 
L 171.630591 114.545727 
L 171.307119 122.093089 
L 152.552293 133.59276 
L 142.689671 145.709029 
L 133.473994 158.370444 
L 123.611372 165.033928 
L 114.395696 165.526148 
L 104.533074 166.834763 
L 95.317397 170.300145 
L 85.454776 169.50889 
L 76.239099 177.349996 
L 66.376477 182.184859 
z
" clip-path="url(#p58f36c0f27)" style="fill: #ae9d31"/>
   </g>
   <g id="PolyCollection_8">
    <path d="M 66.376477 164.806343 
L 66.376477 182.184859 
L 76.239099 177.349996 
L 85.454776 169.50889 
L 95.317397 170.300145 
L 104.533074 166.834763 
L 114.395696 165.526148 
L 123.611372 165.033928 
L 133.473994 158.370444 
L 142.689671 145.709029 
L 152.552293 133.59276 
L 171.307119 122.093089 
L 171.630591 114.545727 
L 190.385417 114.044245 
L 190.708889 104.533299 
L 209.463715 102.44666 
L 209.787188 103.167787 
L 228.542014 97.439784 
L 228.865486 98.012717 
L 247.620312 98.604174 
L 257.482934 99.06596 
L 266.698611 106.924267 
L 276.561232 110.643698 
L 285.776909 113.209325 
L 295.639531 117.370695 
L 304.855207 122.107644 
L 314.717829 123.35407 
L 323.933506 131.962615 
L 333.796128 136.972137 
L 352.550953 147.253169 
L 352.874426 159.738602 
L 371.629252 162.775277 
L 371.952724 167.959457 
L 390.70755 168.898908 
L 391.031023 173.459875 
L 391.031023 157.550078 
L 391.031023 157.550078 
L 390.70755 152.666257 
L 371.952724 153.055269 
L 371.629252 148.204528 
L 352.874426 144.663725 
L 352.550953 132.334426 
L 333.796128 122.040162 
L 323.933506 116.529159 
L 314.717829 107.613639 
L 304.855207 105.855146 
L 295.639531 100.464551 
L 285.776909 96.297888 
L 276.561232 94.215218 
L 266.698611 90.507696 
L 257.482934 82.486639 
L 247.620312 81.695383 
L 228.865486 80.943822 
L 228.542014 79.543908 
L 209.787188 85.594765 
L 209.463715 84.890839 
L 190.708889 87.297685 
L 190.385417 97.143394 
L 171.630591 97.325991 
L 171.307119 103.882299 
L 152.552293 115.371385 
L 142.689671 127.319611 
L 133.473994 140.150391 
L 123.611372 147.490016 
L 114.395696 147.822132 
L 104.533074 148.954765 
L 95.317397 152.58819 
L 85.454776 151.290161 
L 76.239099 159.471321 
L 66.376477 164.806343 
z
" clip-path="url(#p58f36c0f27)" style="fill: #ae9d31"/>
   </g>
   <g id="PolyCollection_9">
    <path d="M 66.376477 148.262747 
L 66.376477 164.806343 
L 76.239099 159.471321 
L 85.454776 151.290161 
L 95.317397 152.58819 
L 104.533074 148.954765 
L 114.395696 147.822132 
L 123.611372 147.490016 
L 133.473994 140.150391 
L 142.689671 127.319611 
L 152.552293 115.371385 
L 171.307119 103.882299 
L 171.630591 97.325991 
L 190.385417 97.143394 
L 190.708889 87.297685 
L 209.463715 84.890839 
L 209.787188 85.594765 
L 228.542014 79.543908 
L 228.865486 80.943822 
L 247.620312 81.695383 
L 257.482934 82.486639 
L 266.698611 90.507696 
L 276.561232 94.215218 
L 285.776909 96.297888 
L 295.639531 100.464551 
L 304.855207 105.855146 
L 314.717829 107.613639 
L 323.933506 116.529159 
L 333.796128 122.040162 
L 352.550953 132.334426 
L 352.874426 144.663725 
L 371.629252 148.204528 
L 371.952724 153.055269 
L 390.70755 152.666257 
L 391.031023 157.550078 
L 391.031023 140.298587 
L 391.031023 140.298587 
L 390.70755 134.75715 
L 371.952724 136.83585 
L 371.629252 132.473359 
L 352.874426 128.597793 
L 352.550953 116.096482 
L 333.796128 105.962323 
L 323.933506 99.801643 
L 314.717829 91.53183 
L 304.855207 88.779636 
L 295.639531 82.757889 
L 285.776909 78.761915 
L 276.561232 77.335538 
L 266.698611 73.29193 
L 257.482934 65.772354 
L 247.620312 65.486549 
L 228.865486 65.235147 
L 228.542014 63.485916 
L 209.787188 68.893712 
L 209.463715 69.18481 
L 190.708889 72.234717 
L 190.385417 82.728779 
L 171.630591 82.74995 
L 171.307119 89.318166 
L 152.552293 100.141697 
L 142.689671 111.909972 
L 133.473994 123.761607 
L 123.611372 131.934828 
L 114.395696 131.938798 
L 104.533074 132.739316 
L 95.317397 136.866283 
L 85.454776 134.597047 
L 76.239099 142.603549 
L 66.376477 148.262747 
z
" clip-path="url(#p58f36c0f27)" style="fill: #ae9d31"/>
   </g>
   <g id="PolyCollection_10">
    <path d="M 66.376477 131.215024 
L 66.376477 148.262747 
L 76.239099 142.603549 
L 85.454776 134.597047 
L 95.317397 136.866283 
L 104.533074 132.739316 
L 114.395696 131.938798 
L 123.611372 131.934828 
L 133.473994 123.761607 
L 142.689671 111.909972 
L 152.552293 100.141697 
L 171.307119 89.318166 
L 171.630591 82.74995 
L 190.385417 82.728779 
L 190.708889 72.234717 
L 209.463715 69.18481 
L 209.787188 68.893712 
L 228.542014 63.485916 
L 228.865486 65.235147 
L 247.620312 65.486549 
L 257.482934 65.772354 
L 266.698611 73.29193 
L 276.561232 77.335538 
L 285.776909 78.761915 
L 295.639531 82.757889 
L 304.855207 88.779636 
L 314.717829 91.53183 
L 323.933506 99.801643 
L 333.796128 105.962323 
L 352.550953 116.096482 
L 352.874426 128.597793 
L 371.629252 132.473359 
L 371.952724 136.83585 
L 390.70755 134.75715 
L 391.031023 140.298587 
L 391.031023 124.245887 
L 391.031023 124.245887 
L 390.70755 119.031274 
L 371.952724 123.40832 
L 371.629252 119.708737 
L 352.874426 114.511325 
L 352.550953 101.517794 
L 333.796128 90.06708 
L 323.933506 84.554754 
L 314.717829 75.285947 
L 304.855207 71.869522 
L 295.639531 64.208367 
L 285.776909 59.397321 
L 276.561232 58.817772 
L 266.698611 53.604482 
L 257.482934 46.553308 
L 247.620312 46.411729 
L 228.865486 47.148735 
L 228.542014 44.89273 
L 209.787188 51.135446 
L 209.463715 51.098398 
L 190.708889 55.144652 
L 190.385417 65.458763 
L 171.630591 65.317184 
L 171.307119 72.711058 
L 152.552293 83.236876 
L 142.689671 95.019706 
L 133.473994 106.544517 
L 123.611372 114.392239 
L 114.395696 113.566581 
L 104.533074 115.030007 
L 95.317397 119.635962 
L 85.454776 117.372018 
L 76.239099 125.86677 
L 66.376477 131.215024 
z
" clip-path="url(#p58f36c0f27)" style="fill: #ae9d31"/>
   </g>
   <g id="PolyCollection_11">
    <path d="M 139.196978 268.425116 
L 139.196978 288.430125 
L 158.275277 288.430125 
L 186.892724 288.430125 
L 205.971023 288.430125 
L 225.049321 288.430125 
L 244.127619 288.430125 
L 263.205918 288.430125 
L 282.284216 288.430125 
L 301.362515 288.430125 
L 320.440813 288.430125 
L 339.519111 288.430125 
L 368.136559 288.430125 
L 368.136559 262.342503 
L 368.136559 262.342503 
L 339.519111 266.331861 
L 320.440813 265.34213 
L 301.362515 265.502234 
L 282.284216 265.336837 
L 263.205918 268.140635 
L 244.127619 266.301428 
L 225.049321 263.995143 
L 205.971023 263.828423 
L 186.892724 263.657734 
L 158.275277 268.917336 
L 139.196978 268.425116 
z
" clip-path="url(#p58f36c0f27)" style="fill: #f565cc"/>
   </g>
   <g id="PolyCollection_12">
    <path d="M 139.196978 249.262967 
L 139.196978 268.425116 
L 158.275277 268.917336 
L 186.892724 263.657734 
L 205.971023 263.828423 
L 225.049321 263.995143 
L 244.127619 266.301428 
L 263.205918 268.140635 
L 282.284216 265.336837 
L 301.362515 265.502234 
L 320.440813 265.34213 
L 339.519111 266.331861 
L 368.136559 262.342503 
L 368.136559 241.137379 
L 368.136559 241.137379 
L 339.519111 248.283821 
L 320.440813 246.476371 
L 301.362515 246.644413 
L 282.284216 246.489602 
L 263.205918 249.298693 
L 244.127619 245.341091 
L 225.049321 244.024537 
L 205.971023 244.020567 
L 186.892724 244.008659 
L 158.275277 249.928522 
L 139.196978 249.262967 
z
" clip-path="url(#p58f36c0f27)" style="fill: #f565cc"/>
   </g>
   <g id="PolyCollection_13">
    <path d="M 139.196978 234.878785 
L 139.196978 249.262967 
L 158.275277 249.928522 
L 186.892724 244.008659 
L 205.971023 244.020567 
L 225.049321 244.024537 
L 244.127619 245.341091 
L 263.205918 249.298693 
L 282.284216 246.489602 
L 301.362515 246.644413 
L 320.440813 246.476371 
L 339.519111 248.283821 
L 368.136559 241.137379 
L 368.136559 225.432674 
L 368.136559 225.432674 
L 339.519111 232.748481 
L 320.440813 231.106427 
L 301.362515 231.283732 
L 282.284216 230.959555 
L 263.205918 233.936688 
L 244.127619 229.977763 
L 225.049321 228.497136 
L 205.971023 229.469666 
L 186.892724 229.787226 
L 158.275277 235.378943 
L 139.196978 234.878785 
z
" clip-path="url(#p58f36c0f27)" style="fill: #f565cc"/>
   </g>
   <g id="PolyCollection_14">
    <path d="M 139.196978 214.374941 
L 139.196978 234.878785 
L 158.275277 235.378943 
L 186.892724 229.787226 
L 205.971023 229.469666 
L 225.049321 228.497136 
L 244.127619 229.977763 
L 263.205918 233.936688 
L 282.284216 230.959555 
L 301.362515 231.283732 
L 320.440813 231.106427 
L 339.519111 232.748481 
L 368.136559 225.432674 
L 368.136559 205.079671 
L 368.136559 205.079671 
L 339.519111 210.950577 
L 320.440813 209.121956 
L 301.362515 208.969791 
L 282.284216 208.490804 
L 263.205918 211.138467 
L 244.127619 205.692299 
L 225.049321 204.893104 
L 205.971023 207.997261 
L 186.892724 206.842134 
L 158.275277 212.9221 
L 139.196978 214.374941 
z
" clip-path="url(#p58f36c0f27)" style="fill: #f565cc"/>
   </g>
   <g id="PolyCollection_15">
    <path d="M 139.196978 193.397402 
L 139.196978 214.374941 
L 158.275277 212.9221 
L 186.892724 206.842134 
L 205.971023 207.997261 
L 225.049321 204.893104 
L 244.127619 205.692299 
L 263.205918 211.138467 
L 282.284216 208.490804 
L 301.362515 208.969791 
L 320.440813 209.121956 
L 339.519111 210.950577 
L 339.519111 188.492411 
L 339.519111 188.492411 
L 320.440813 184.514962 
L 301.362515 183.87587 
L 282.284216 183.074029 
L 263.205918 185.724339 
L 244.127619 180.12336 
L 225.049321 179.324165 
L 205.971023 185.892382 
L 186.892724 184.742547 
L 158.275277 190.843684 
L 139.196978 193.397402 
z
" clip-path="url(#p58f36c0f27)" style="fill: #f565cc"/>
   </g>
   <g id="PolyCollection_16">
    <path d="M 139.196978 161.487832 
L 139.196978 193.397402 
L 158.275277 190.843684 
L 186.892724 184.742547 
L 205.971023 185.892382 
L 225.049321 179.324165 
L 244.127619 180.12336 
L 263.205918 185.724339 
L 282.284216 183.074029 
L 301.362515 183.87587 
L 320.440813 184.514962 
L 339.519111 188.492411 
L 339.519111 160.396217 
L 339.519111 160.396217 
L 320.440813 154.039708 
L 301.362515 152.233581 
L 282.284216 141.284348 
L 263.205918 143.110323 
L 244.127619 138.620807 
L 225.049321 137.813673 
L 205.971023 142.562531 
L 186.892724 144.417615 
L 158.275277 155.619573 
L 139.196978 161.487832 
z
" clip-path="url(#p58f36c0f27)" style="fill: #f565cc"/>
   </g>
   <g id="PolyCollection_17">
    <path d="M 139.196978 142.285988 
L 139.196978 161.487832 
L 158.275277 155.619573 
L 186.892724 144.417615 
L 205.971023 142.562531 
L 225.049321 137.813673 
L 244.127619 138.620807 
L 263.205918 143.110323 
L 282.284216 141.284348 
L 301.362515 152.233581 
L 320.440813 154.039708 
L 339.519111 160.396217 
L 339.519111 125.415569 
L 339.519111 125.415569 
L 320.440813 117.377311 
L 301.362515 115.571184 
L 282.284216 104.789994 
L 263.205918 106.769456 
L 244.127619 103.424482 
L 225.049321 103.764537 
L 205.971023 107.22992 
L 186.892724 113.397215 
L 158.275277 126.76388 
L 139.196978 142.285988 
z
" clip-path="url(#p58f36c0f27)" style="fill: #f565cc"/>
   </g>
   <g id="PolyCollection_18">
    <path d="M 139.196978 121.743772 
L 139.196978 142.285988 
L 158.275277 126.76388 
L 186.892724 113.397215 
L 205.971023 107.22992 
L 225.049321 103.764537 
L 244.127619 103.424482 
L 263.205918 106.769456 
L 282.284216 104.789994 
L 301.362515 115.571184 
L 320.440813 117.377311 
L 339.519111 125.415569 
L 339.519111 104.644445 
L 339.519111 104.644445 
L 320.440813 97.107668 
L 301.362515 95.596608 
L 282.284216 85.130333 
L 263.205918 87.109795 
L 244.127619 83.039724 
L 225.049321 83.227614 
L 205.971023 87.013204 
L 186.892724 93.193731 
L 158.275277 106.238865 
L 139.196978 121.743772 
z
" clip-path="url(#p58f36c0f27)" style="fill: #f565cc"/>
   </g>
   <g id="PolyCollection_19">
    <path d="M 139.196978 97.721619 
L 139.196978 121.743772 
L 158.275277 106.238865 
L 186.892724 93.193731 
L 205.971023 87.013204 
L 225.049321 83.227614 
L 244.127619 83.039724 
L 263.205918 87.109795 
L 282.284216 85.130333 
L 301.362515 95.596608 
L 320.440813 97.107668 
L 339.519111 104.644445 
L 339.519111 80.685804 
L 339.519111 80.685804 
L 320.440813 71.325699 
L 301.362515 69.977389 
L 282.284216 59.837936 
L 263.205918 61.969563 
L 244.127619 57.237907 
L 225.049321 60.691381 
L 205.971023 63.836556 
L 186.892724 70.017084 
L 158.275277 83.062218 
L 139.196978 97.721619 
z
" clip-path="url(#p58f36c0f27)" style="fill: #f565cc"/>
   </g>
   <g id="PolyCollection_20">
    <path d="M 139.196978 77.50755 
L 139.196978 97.721619 
L 158.275277 83.062218 
L 186.892724 70.017084 
L 205.971023 63.836556 
L 225.049321 60.691381 
L 244.127619 57.237907 
L 263.205918 61.969563 
L 282.284216 59.837936 
L 301.362515 69.977389 
L 320.440813 71.325699 
L 339.519111 80.685804 
L 339.519111 56.649096 
L 339.519111 56.649096 
L 320.440813 49.613801 
L 301.362515 47.94793 
L 282.284216 34.990125 
L 263.205918 40.62683 
L 244.127619 35.720515 
L 225.049321 40.830598 
L 205.971023 43.818316 
L 186.892724 49.310795 
L 158.275277 62.193179 
L 139.196978 77.50755 
z
" clip-path="url(#p58f36c0f27)" style="fill: #f565cc"/>
   </g>
   <g id="matplotlib.axis_1">
    <g id="xtick_1">
     <g id="line2d_1">
      <defs>
       <path id="mf1e9e257d0" d="M 0 0 
L 0 3.5 
" style="stroke: #000000; stroke-width: 0.8"/>
      </defs>
      <g>
       <use xlink:href="#mf1e9e257d0" x="59.03884" y="288.430125" style="stroke: #000000; stroke-width: 0.8"/>
      </g>
     </g>
     <g id="text_1">
      <!-- −15 -->
      <g transform="translate(48.486496 303.028562) scale(0.1 -0.1)">
       <defs>
        <path id="DejaVuSans-2212" d="M 678 2272 
L 4684 2272 
L 4684 1741 
L 678 1741 
L 678 2272 
z
" transform="scale(0.015625)"/>
        <path id="DejaVuSans-31" d="M 794 531 
L 1825 531 
L 1825 4091 
L 703 3866 
L 703 4441 
L 1819 4666 
L 2450 4666 
L 2450 531 
L 3481 531 
L 3481 0 
L 794 0 
L 794 531 
z
" transform="scale(0.015625)"/>
        <path id="DejaVuSans-35" d="M 691 4666 
L 3169 4666 
L 3169 4134 
L 1269 4134 
L 1269 2991 
Q 1406 3038 1543 3061 
Q 1681 3084 1819 3084 
Q 2600 3084 3056 2656 
Q 3513 2228 3513 1497 
Q 3513 744 3044 326 
Q 2575 -91 1722 -91 
Q 1428 -91 1123 -41 
Q 819 9 494 109 
L 494 744 
Q 775 591 1075 516 
Q 1375 441 1709 441 
Q 2250 441 2565 725 
Q 2881 1009 2881 1497 
Q 2881 1984 2565 2268 
Q 2250 2553 1709 2553 
Q 1456 2553 1204 2497 
Q 953 2441 691 2322 
L 691 4666 
z
" transform="scale(0.015625)"/>
       </defs>
       <use xlink:href="#DejaVuSans-2212"/>
       <use xlink:href="#DejaVuSans-31" x="83.789062"/>
       <use xlink:href="#DejaVuSans-35" x="147.412109"/>
      </g>
     </g>
    </g>
    <g id="xtick_2">
     <g id="line2d_2">
      <g>
       <use xlink:href="#mf1e9e257d0" x="106.734586" y="288.430125" style="stroke: #000000; stroke-width: 0.8"/>
      </g>
     </g>
     <g id="text_2">
      <!-- −10 -->
      <g transform="translate(96.182242 303.028562) scale(0.1 -0.1)">
       <defs>
        <path id="DejaVuSans-30" d="M 2034 4250 
Q 1547 4250 1301 3770 
Q 1056 3291 1056 2328 
Q 1056 1369 1301 889 
Q 1547 409 2034 409 
Q 2525 409 2770 889 
Q 3016 1369 3016 2328 
Q 3016 3291 2770 3770 
Q 2525 4250 2034 4250 
z
M 2034 4750 
Q 2819 4750 3233 4129 
Q 3647 3509 3647 2328 
Q 3647 1150 3233 529 
Q 2819 -91 2034 -91 
Q 1250 -91 836 529 
Q 422 1150 422 2328 
Q 422 3509 836 4129 
Q 1250 4750 2034 4750 
z
" transform="scale(0.015625)"/>
       </defs>
       <use xlink:href="#DejaVuSans-2212"/>
       <use xlink:href="#DejaVuSans-31" x="83.789062"/>
       <use xlink:href="#DejaVuSans-30" x="147.412109"/>
      </g>
     </g>
    </g>
    <g id="xtick_3">
     <g id="line2d_3">
      <g>
       <use xlink:href="#mf1e9e257d0" x="154.430332" y="288.430125" style="stroke: #000000; stroke-width: 0.8"/>
      </g>
     </g>
     <g id="text_3">
      <!-- −5 -->
      <g transform="translate(147.059238 303.028562) scale(0.1 -0.1)">
       <use xlink:href="#DejaVuSans-2212"/>
       <use xlink:href="#DejaVuSans-35" x="83.789062"/>
      </g>
     </g>
    </g>
    <g id="xtick_4">
     <g id="line2d_4">
      <g>
       <use xlink:href="#mf1e9e257d0" x="202.126078" y="288.430125" style="stroke: #000000; stroke-width: 0.8"/>
      </g>
     </g>
     <g id="text_4">
      <!-- 0 -->
      <g transform="translate(198.944828 303.028562) scale(0.1 -0.1)">
       <use xlink:href="#DejaVuSans-30"/>
      </g>
     </g>
    </g>
    <g id="xtick_5">
     <g id="line2d_5">
      <g>
       <use xlink:href="#mf1e9e257d0" x="249.821824" y="288.430125" style="stroke: #000000; stroke-width: 0.8"/>
      </g>
     </g>
     <g id="text_5">
      <!-- 5 -->
      <g transform="translate(246.640574 303.028562) scale(0.1 -0.1)">
       <use xlink:href="#DejaVuSans-35"/>
      </g>
     </g>
    </g>
    <g id="xtick_6">
     <g id="line2d_6">
      <g>
       <use xlink:href="#mf1e9e257d0" x="297.51757" y="288.430125" style="stroke: #000000; stroke-width: 0.8"/>
      </g>
     </g>
     <g id="text_6">
      <!-- 10 -->
      <g transform="translate(291.15507 303.028562) scale(0.1 -0.1)">
       <use xlink:href="#DejaVuSans-31"/>
       <use xlink:href="#DejaVuSans-30" x="63.623047"/>
      </g>
     </g>
    </g>
    <g id="xtick_7">
     <g id="line2d_7">
      <g>
       <use xlink:href="#mf1e9e257d0" x="345.213316" y="288.430125" style="stroke: #000000; stroke-width: 0.8"/>
      </g>
     </g>
     <g id="text_7">
      <!-- 15 -->
      <g transform="translate(338.850816 303.028562) scale(0.1 -0.1)">
       <use xlink:href="#DejaVuSans-31"/>
       <use xlink:href="#DejaVuSans-35" x="63.623047"/>
      </g>
     </g>
    </g>
    <g id="xtick_8">
     <g id="line2d_8">
      <g>
       <use xlink:href="#mf1e9e257d0" x="392.909062" y="288.430125" style="stroke: #000000; stroke-width: 0.8"/>
      </g>
     </g>
     <g id="text_8">
      <!-- 20 -->
      <g transform="translate(386.546562 303.028562) scale(0.1 -0.1)">
       <defs>
        <path id="DejaVuSans-32" d="M 1228 531 
L 3431 531 
L 3431 0 
L 469 0 
L 469 531 
Q 828 903 1448 1529 
Q 2069 2156 2228 2338 
Q 2531 2678 2651 2914 
Q 2772 3150 2772 3378 
Q 2772 3750 2511 3984 
Q 2250 4219 1831 4219 
Q 1534 4219 1204 4116 
Q 875 4013 500 3803 
L 500 4441 
Q 881 4594 1212 4672 
Q 1544 4750 1819 4750 
Q 2544 4750 2975 4387 
Q 3406 4025 3406 3419 
Q 3406 3131 3298 2873 
Q 3191 2616 2906 2266 
Q 2828 2175 2409 1742 
Q 1991 1309 1228 531 
z
" transform="scale(0.015625)"/>
       </defs>
       <use xlink:href="#DejaVuSans-32"/>
       <use xlink:href="#DejaVuSans-30" x="63.623047"/>
      </g>
     </g>
    </g>
    <g id="text_9">
     <!-- Time (s) -->
     <g transform="translate(208.374844 316.706687) scale(0.1 -0.1)">
      <defs>
       <path id="DejaVuSans-54" d="M -19 4666 
L 3928 4666 
L 3928 4134 
L 2272 4134 
L 2272 0 
L 1638 0 
L 1638 4134 
L -19 4134 
L -19 4666 
z
" transform="scale(0.015625)"/>
       <path id="DejaVuSans-69" d="M 603 3500 
L 1178 3500 
L 1178 0 
L 603 0 
L 603 3500 
z
M 603 4863 
L 1178 4863 
L 1178 4134 
L 603 4134 
L 603 4863 
z
" transform="scale(0.015625)"/>
       <path id="DejaVuSans-6d" d="M 3328 2828 
Q 3544 3216 3844 3400 
Q 4144 3584 4550 3584 
Q 5097 3584 5394 3201 
Q 5691 2819 5691 2113 
L 5691 0 
L 5113 0 
L 5113 2094 
Q 5113 2597 4934 2840 
Q 4756 3084 4391 3084 
Q 3944 3084 3684 2787 
Q 3425 2491 3425 1978 
L 3425 0 
L 2847 0 
L 2847 2094 
Q 2847 2600 2669 2842 
Q 2491 3084 2119 3084 
Q 1678 3084 1418 2786 
Q 1159 2488 1159 1978 
L 1159 0 
L 581 0 
L 581 3500 
L 1159 3500 
L 1159 2956 
Q 1356 3278 1631 3431 
Q 1906 3584 2284 3584 
Q 2666 3584 2933 3390 
Q 3200 3197 3328 2828 
z
" transform="scale(0.015625)"/>
       <path id="DejaVuSans-65" d="M 3597 1894 
L 3597 1613 
L 953 1613 
Q 991 1019 1311 708 
Q 1631 397 2203 397 
Q 2534 397 2845 478 
Q 3156 559 3463 722 
L 3463 178 
Q 3153 47 2828 -22 
Q 2503 -91 2169 -91 
Q 1331 -91 842 396 
Q 353 884 353 1716 
Q 353 2575 817 3079 
Q 1281 3584 2069 3584 
Q 2775 3584 3186 3129 
Q 3597 2675 3597 1894 
z
M 3022 2063 
Q 3016 2534 2758 2815 
Q 2500 3097 2075 3097 
Q 1594 3097 1305 2825 
Q 1016 2553 972 2059 
L 3022 2063 
z
" transform="scale(0.015625)"/>
       <path id="DejaVuSans-20" transform="scale(0.015625)"/>
       <path id="DejaVuSans-28" d="M 1984 4856 
Q 1566 4138 1362 3434 
Q 1159 2731 1159 2009 
Q 1159 1288 1364 580 
Q 1569 -128 1984 -844 
L 1484 -844 
Q 1016 -109 783 600 
Q 550 1309 550 2009 
Q 550 2706 781 3412 
Q 1013 4119 1484 4856 
L 1984 4856 
z
" transform="scale(0.015625)"/>
       <path id="DejaVuSans-73" d="M 2834 3397 
L 2834 2853 
Q 2591 2978 2328 3040 
Q 2066 3103 1784 3103 
Q 1356 3103 1142 2972 
Q 928 2841 928 2578 
Q 928 2378 1081 2264 
Q 1234 2150 1697 2047 
L 1894 2003 
Q 2506 1872 2764 1633 
Q 3022 1394 3022 966 
Q 3022 478 2636 193 
Q 2250 -91 1575 -91 
Q 1294 -91 989 -36 
Q 684 19 347 128 
L 347 722 
Q 666 556 975 473 
Q 1284 391 1588 391 
Q 1994 391 2212 530 
Q 2431 669 2431 922 
Q 2431 1156 2273 1281 
Q 2116 1406 1581 1522 
L 1381 1569 
Q 847 1681 609 1914 
Q 372 2147 372 2553 
Q 372 3047 722 3315 
Q 1072 3584 1716 3584 
Q 2034 3584 2315 3537 
Q 2597 3491 2834 3397 
z
" transform="scale(0.015625)"/>
       <path id="DejaVuSans-29" d="M 513 4856 
L 1013 4856 
Q 1481 4119 1714 3412 
Q 1947 2706 1947 2009 
Q 1947 1309 1714 600 
Q 1481 -109 1013 -844 
L 513 -844 
Q 928 -128 1133 580 
Q 1338 1288 1338 2009 
Q 1338 2731 1133 3434 
Q 928 4138 513 4856 
z
" transform="scale(0.015625)"/>
      </defs>
      <use xlink:href="#DejaVuSans-54"/>
      <use xlink:href="#DejaVuSans-69" x="57.958984"/>
      <use xlink:href="#DejaVuSans-6d" x="85.742188"/>
      <use xlink:href="#DejaVuSans-65" x="183.154297"/>
      <use xlink:href="#DejaVuSans-20" x="244.677734"/>
      <use xlink:href="#DejaVuSans-28" x="276.464844"/>
      <use xlink:href="#DejaVuSans-73" x="315.478516"/>
      <use xlink:href="#DejaVuSans-29" x="367.578125"/>
     </g>
    </g>
   </g>
   <g id="matplotlib.axis_2">
    <g id="ytick_1">
     <g id="line2d_9">
      <defs>
       <path id="m16a1e3dbf7" d="M 0 0 
L -3.5 0 
" style="stroke: #000000; stroke-width: 0.8"/>
      </defs>
      <g>
       <use xlink:href="#m16a1e3dbf7" x="50.14375" y="288.430125" style="stroke: #000000; stroke-width: 0.8"/>
      </g>
     </g>
     <g id="text_10">
      <!-- 0.00 -->
      <g transform="translate(20.878125 292.229344) scale(0.1 -0.1)">
       <defs>
        <path id="DejaVuSans-2e" d="M 684 794 
L 1344 794 
L 1344 0 
L 684 0 
L 684 794 
z
" transform="scale(0.015625)"/>
       </defs>
       <use xlink:href="#DejaVuSans-30"/>
       <use xlink:href="#DejaVuSans-2e" x="63.623047"/>
       <use xlink:href="#DejaVuSans-30" x="95.410156"/>
       <use xlink:href="#DejaVuSans-30" x="159.033203"/>
      </g>
     </g>
    </g>
    <g id="ytick_2">
     <g id="line2d_10">
      <g>
       <use xlink:href="#m16a1e3dbf7" x="50.14375" y="255.350873" style="stroke: #000000; stroke-width: 0.8"/>
      </g>
     </g>
     <g id="text_11">
      <!-- 0.05 -->
      <g transform="translate(20.878125 259.150091) scale(0.1 -0.1)">
       <use xlink:href="#DejaVuSans-30"/>
       <use xlink:href="#DejaVuSans-2e" x="63.623047"/>
       <use xlink:href="#DejaVuSans-30" x="95.410156"/>
       <use xlink:href="#DejaVuSans-35" x="159.033203"/>
      </g>
     </g>
    </g>
    <g id="ytick_3">
     <g id="line2d_11">
      <g>
       <use xlink:href="#m16a1e3dbf7" x="50.14375" y="222.27162" style="stroke: #000000; stroke-width: 0.8"/>
      </g>
     </g>
     <g id="text_12">
      <!-- 0.10 -->
      <g transform="translate(20.878125 226.070839) scale(0.1 -0.1)">
       <use xlink:href="#DejaVuSans-30"/>
       <use xlink:href="#DejaVuSans-2e" x="63.623047"/>
       <use xlink:href="#DejaVuSans-31" x="95.410156"/>
       <use xlink:href="#DejaVuSans-30" x="159.033203"/>
      </g>
     </g>
    </g>
    <g id="ytick_4">
     <g id="line2d_12">
      <g>
       <use xlink:href="#m16a1e3dbf7" x="50.14375" y="189.192368" style="stroke: #000000; stroke-width: 0.8"/>
      </g>
     </g>
     <g id="text_13">
      <!-- 0.15 -->
      <g transform="translate(20.878125 192.991587) scale(0.1 -0.1)">
       <use xlink:href="#DejaVuSans-30"/>
       <use xlink:href="#DejaVuSans-2e" x="63.623047"/>
       <use xlink:href="#DejaVuSans-31" x="95.410156"/>
       <use xlink:href="#DejaVuSans-35" x="159.033203"/>
      </g>
     </g>
    </g>
    <g id="ytick_5">
     <g id="line2d_13">
      <g>
       <use xlink:href="#m16a1e3dbf7" x="50.14375" y="156.113115" style="stroke: #000000; stroke-width: 0.8"/>
      </g>
     </g>
     <g id="text_14">
      <!-- 0.20 -->
      <g transform="translate(20.878125 159.912334) scale(0.1 -0.1)">
       <use xlink:href="#DejaVuSans-30"/>
       <use xlink:href="#DejaVuSans-2e" x="63.623047"/>
       <use xlink:href="#DejaVuSans-32" x="95.410156"/>
       <use xlink:href="#DejaVuSans-30" x="159.033203"/>
      </g>
     </g>
    </g>
    <g id="ytick_6">
     <g id="line2d_14">
      <g>
       <use xlink:href="#m16a1e3dbf7" x="50.14375" y="123.033863" style="stroke: #000000; stroke-width: 0.8"/>
      </g>
     </g>
     <g id="text_15">
      <!-- 0.25 -->
      <g transform="translate(20.878125 126.833082) scale(0.1 -0.1)">
       <use xlink:href="#DejaVuSans-30"/>
       <use xlink:href="#DejaVuSans-2e" x="63.623047"/>
       <use xlink:href="#DejaVuSans-32" x="95.410156"/>
       <use xlink:href="#DejaVuSans-35" x="159.033203"/>
      </g>
     </g>
    </g>
    <g id="ytick_7">
     <g id="line2d_15">
      <g>
       <use xlink:href="#m16a1e3dbf7" x="50.14375" y="89.954611" style="stroke: #000000; stroke-width: 0.8"/>
      </g>
     </g>
     <g id="text_16">
      <!-- 0.30 -->
      <g transform="translate(20.878125 93.753829) scale(0.1 -0.1)">
       <defs>
        <path id="DejaVuSans-33" d="M 2597 2516 
Q 3050 2419 3304 2112 
Q 3559 1806 3559 1356 
Q 3559 666 3084 287 
Q 2609 -91 1734 -91 
Q 1441 -91 1130 -33 
Q 819 25 488 141 
L 488 750 
Q 750 597 1062 519 
Q 1375 441 1716 441 
Q 2309 441 2620 675 
Q 2931 909 2931 1356 
Q 2931 1769 2642 2001 
Q 2353 2234 1838 2234 
L 1294 2234 
L 1294 2753 
L 1863 2753 
Q 2328 2753 2575 2939 
Q 2822 3125 2822 3475 
Q 2822 3834 2567 4026 
Q 2313 4219 1838 4219 
Q 1578 4219 1281 4162 
Q 984 4106 628 3988 
L 628 4550 
Q 988 4650 1302 4700 
Q 1616 4750 1894 4750 
Q 2613 4750 3031 4423 
Q 3450 4097 3450 3541 
Q 3450 3153 3228 2886 
Q 3006 2619 2597 2516 
z
" transform="scale(0.015625)"/>
       </defs>
       <use xlink:href="#DejaVuSans-30"/>
       <use xlink:href="#DejaVuSans-2e" x="63.623047"/>
       <use xlink:href="#DejaVuSans-33" x="95.410156"/>
       <use xlink:href="#DejaVuSans-30" x="159.033203"/>
      </g>
     </g>
    </g>
    <g id="ytick_8">
     <g id="line2d_16">
      <g>
       <use xlink:href="#m16a1e3dbf7" x="50.14375" y="56.875358" style="stroke: #000000; stroke-width: 0.8"/>
      </g>
     </g>
     <g id="text_17">
      <!-- 0.35 -->
      <g transform="translate(20.878125 60.674577) scale(0.1 -0.1)">
       <use xlink:href="#DejaVuSans-30"/>
       <use xlink:href="#DejaVuSans-2e" x="63.623047"/>
       <use xlink:href="#DejaVuSans-33" x="95.410156"/>
       <use xlink:href="#DejaVuSans-35" x="159.033203"/>
      </g>
     </g>
    </g>
    <g id="ytick_9">
     <g id="line2d_17">
      <g>
       <use xlink:href="#m16a1e3dbf7" x="50.14375" y="23.796106" style="stroke: #000000; stroke-width: 0.8"/>
      </g>
     </g>
     <g id="text_18">
      <!-- 0.40 -->
      <g transform="translate(20.878125 27.595325) scale(0.1 -0.1)">
       <defs>
        <path id="DejaVuSans-34" d="M 2419 4116 
L 825 1625 
L 2419 1625 
L 2419 4116 
z
M 2253 4666 
L 3047 4666 
L 3047 1625 
L 3713 1625 
L 3713 1100 
L 3047 1100 
L 3047 0 
L 2419 0 
L 2419 1100 
L 313 1100 
L 313 1709 
L 2253 4666 
z
" transform="scale(0.015625)"/>
       </defs>
       <use xlink:href="#DejaVuSans-30"/>
       <use xlink:href="#DejaVuSans-2e" x="63.623047"/>
       <use xlink:href="#DejaVuSans-34" x="95.410156"/>
       <use xlink:href="#DejaVuSans-30" x="159.033203"/>
      </g>
     </g>
    </g>
    <g id="text_19">
     <!-- Utilization (%) -->
     <g transform="translate(14.798438 190.667875) rotate(-90) scale(0.1 -0.1)">
      <defs>
       <path id="DejaVuSans-55" d="M 556 4666 
L 1191 4666 
L 1191 1831 
Q 1191 1081 1462 751 
Q 1734 422 2344 422 
Q 2950 422 3222 751 
Q 3494 1081 3494 1831 
L 3494 4666 
L 4128 4666 
L 4128 1753 
Q 4128 841 3676 375 
Q 3225 -91 2344 -91 
Q 1459 -91 1007 375 
Q 556 841 556 1753 
L 556 4666 
z
" transform="scale(0.015625)"/>
       <path id="DejaVuSans-74" d="M 1172 4494 
L 1172 3500 
L 2356 3500 
L 2356 3053 
L 1172 3053 
L 1172 1153 
Q 1172 725 1289 603 
Q 1406 481 1766 481 
L 2356 481 
L 2356 0 
L 1766 0 
Q 1100 0 847 248 
Q 594 497 594 1153 
L 594 3053 
L 172 3053 
L 172 3500 
L 594 3500 
L 594 4494 
L 1172 4494 
z
" transform="scale(0.015625)"/>
       <path id="DejaVuSans-6c" d="M 603 4863 
L 1178 4863 
L 1178 0 
L 603 0 
L 603 4863 
z
" transform="scale(0.015625)"/>
       <path id="DejaVuSans-7a" d="M 353 3500 
L 3084 3500 
L 3084 2975 
L 922 459 
L 3084 459 
L 3084 0 
L 275 0 
L 275 525 
L 2438 3041 
L 353 3041 
L 353 3500 
z
" transform="scale(0.015625)"/>
       <path id="DejaVuSans-61" d="M 2194 1759 
Q 1497 1759 1228 1600 
Q 959 1441 959 1056 
Q 959 750 1161 570 
Q 1363 391 1709 391 
Q 2188 391 2477 730 
Q 2766 1069 2766 1631 
L 2766 1759 
L 2194 1759 
z
M 3341 1997 
L 3341 0 
L 2766 0 
L 2766 531 
Q 2569 213 2275 61 
Q 1981 -91 1556 -91 
Q 1019 -91 701 211 
Q 384 513 384 1019 
Q 384 1609 779 1909 
Q 1175 2209 1959 2209 
L 2766 2209 
L 2766 2266 
Q 2766 2663 2505 2880 
Q 2244 3097 1772 3097 
Q 1472 3097 1187 3025 
Q 903 2953 641 2809 
L 641 3341 
Q 956 3463 1253 3523 
Q 1550 3584 1831 3584 
Q 2591 3584 2966 3190 
Q 3341 2797 3341 1997 
z
" transform="scale(0.015625)"/>
       <path id="DejaVuSans-6f" d="M 1959 3097 
Q 1497 3097 1228 2736 
Q 959 2375 959 1747 
Q 959 1119 1226 758 
Q 1494 397 1959 397 
Q 2419 397 2687 759 
Q 2956 1122 2956 1747 
Q 2956 2369 2687 2733 
Q 2419 3097 1959 3097 
z
M 1959 3584 
Q 2709 3584 3137 3096 
Q 3566 2609 3566 1747 
Q 3566 888 3137 398 
Q 2709 -91 1959 -91 
Q 1206 -91 779 398 
Q 353 888 353 1747 
Q 353 2609 779 3096 
Q 1206 3584 1959 3584 
z
" transform="scale(0.015625)"/>
       <path id="DejaVuSans-6e" d="M 3513 2113 
L 3513 0 
L 2938 0 
L 2938 2094 
Q 2938 2591 2744 2837 
Q 2550 3084 2163 3084 
Q 1697 3084 1428 2787 
Q 1159 2491 1159 1978 
L 1159 0 
L 581 0 
L 581 3500 
L 1159 3500 
L 1159 2956 
Q 1366 3272 1645 3428 
Q 1925 3584 2291 3584 
Q 2894 3584 3203 3211 
Q 3513 2838 3513 2113 
z
" transform="scale(0.015625)"/>
       <path id="DejaVuSans-25" d="M 4653 2053 
Q 4381 2053 4226 1822 
Q 4072 1591 4072 1178 
Q 4072 772 4226 539 
Q 4381 306 4653 306 
Q 4919 306 5073 539 
Q 5228 772 5228 1178 
Q 5228 1588 5073 1820 
Q 4919 2053 4653 2053 
z
M 4653 2450 
Q 5147 2450 5437 2106 
Q 5728 1763 5728 1178 
Q 5728 594 5436 251 
Q 5144 -91 4653 -91 
Q 4153 -91 3862 251 
Q 3572 594 3572 1178 
Q 3572 1766 3864 2108 
Q 4156 2450 4653 2450 
z
M 1428 4353 
Q 1159 4353 1004 4120 
Q 850 3888 850 3481 
Q 850 3069 1003 2837 
Q 1156 2606 1428 2606 
Q 1700 2606 1854 2837 
Q 2009 3069 2009 3481 
Q 2009 3884 1853 4118 
Q 1697 4353 1428 4353 
z
M 4250 4750 
L 4750 4750 
L 1831 -91 
L 1331 -91 
L 4250 4750 
z
M 1428 4750 
Q 1922 4750 2215 4408 
Q 2509 4066 2509 3481 
Q 2509 2891 2217 2550 
Q 1925 2209 1428 2209 
Q 931 2209 642 2551 
Q 353 2894 353 3481 
Q 353 4063 643 4406 
Q 934 4750 1428 4750 
z
" transform="scale(0.015625)"/>
      </defs>
      <use xlink:href="#DejaVuSans-55"/>
      <use xlink:href="#DejaVuSans-74" x="73.193359"/>
      <use xlink:href="#DejaVuSans-69" x="112.402344"/>
      <use xlink:href="#DejaVuSans-6c" x="140.185547"/>
      <use xlink:href="#DejaVuSans-69" x="167.96875"/>
      <use xlink:href="#DejaVuSans-7a" x="195.751953"/>
      <use xlink:href="#DejaVuSans-61" x="248.242188"/>
      <use xlink:href="#DejaVuSans-74" x="309.521484"/>
      <use xlink:href="#DejaVuSans-69" x="348.730469"/>
      <use xlink:href="#DejaVuSans-6f" x="376.513672"/>
      <use xlink:href="#DejaVuSans-6e" x="437.695312"/>
      <use xlink:href="#DejaVuSans-20" x="501.074219"/>
      <use xlink:href="#DejaVuSans-28" x="532.861328"/>
      <use xlink:href="#DejaVuSans-25" x="571.875"/>
      <use xlink:href="#DejaVuSans-29" x="666.894531"/>
     </g>
    </g>
   </g>
   <g id="line2d_18">
    <path d="M 312.619836 281.774579 
L 312.619836 160.823601 
" clip-path="url(#p58f36c0f27)" style="fill: none; stroke-dasharray: 5.55,2.4; stroke-dashoffset: 0; stroke: #1f77b4; stroke-width: 1.5"/>
   </g>
   <g id="line2d_19">
    <path d="M 315.049706 281.840738 
L 315.049706 170.403353 
" clip-path="url(#p58f36c0f27)" style="fill: none; stroke-dasharray: 5.55,2.4; stroke-dashoffset: 0; stroke: #ff7f0e; stroke-width: 1.5"/>
   </g>
   <g id="patch_3">
    <path d="M 50.14375 288.430125 
L 50.14375 22.318125 
" style="fill: none; stroke: #000000; stroke-width: 0.8; stroke-linejoin: miter; stroke-linecap: square"/>
   </g>
   <g id="patch_4">
    <path d="M 407.26375 288.430125 
L 407.26375 22.318125 
" style="fill: none; stroke: #000000; stroke-width: 0.8; stroke-linejoin: miter; stroke-linecap: square"/>
   </g>
   <g id="patch_5">
    <path d="M 50.14375 288.430125 
L 407.26375 288.430125 
" style="fill: none; stroke: #000000; stroke-width: 0.8; stroke-linejoin: miter; stroke-linecap: square"/>
   </g>
   <g id="patch_6">
    <path d="M 50.14375 22.318125 
L 407.26375 22.318125 
" style="fill: none; stroke: #000000; stroke-width: 0.8; stroke-linejoin: miter; stroke-linecap: square"/>
   </g>
   <g id="text_20">
    <!-- live-migrate (cpu) -->
    <g transform="translate(174.955 16.318125) scale(0.12 -0.12)">
     <defs>
      <path id="DejaVuSans-76" d="M 191 3500 
L 800 3500 
L 1894 563 
L 2988 3500 
L 3597 3500 
L 2284 0 
L 1503 0 
L 191 3500 
z
" transform="scale(0.015625)"/>
      <path id="DejaVuSans-2d" d="M 313 2009 
L 1997 2009 
L 1997 1497 
L 313 1497 
L 313 2009 
z
" transform="scale(0.015625)"/>
      <path id="DejaVuSans-67" d="M 2906 1791 
Q 2906 2416 2648 2759 
Q 2391 3103 1925 3103 
Q 1463 3103 1205 2759 
Q 947 2416 947 1791 
Q 947 1169 1205 825 
Q 1463 481 1925 481 
Q 2391 481 2648 825 
Q 2906 1169 2906 1791 
z
M 3481 434 
Q 3481 -459 3084 -895 
Q 2688 -1331 1869 -1331 
Q 1566 -1331 1297 -1286 
Q 1028 -1241 775 -1147 
L 775 -588 
Q 1028 -725 1275 -790 
Q 1522 -856 1778 -856 
Q 2344 -856 2625 -561 
Q 2906 -266 2906 331 
L 2906 616 
Q 2728 306 2450 153 
Q 2172 0 1784 0 
Q 1141 0 747 490 
Q 353 981 353 1791 
Q 353 2603 747 3093 
Q 1141 3584 1784 3584 
Q 2172 3584 2450 3431 
Q 2728 3278 2906 2969 
L 2906 3500 
L 3481 3500 
L 3481 434 
z
" transform="scale(0.015625)"/>
      <path id="DejaVuSans-72" d="M 2631 2963 
Q 2534 3019 2420 3045 
Q 2306 3072 2169 3072 
Q 1681 3072 1420 2755 
Q 1159 2438 1159 1844 
L 1159 0 
L 581 0 
L 581 3500 
L 1159 3500 
L 1159 2956 
Q 1341 3275 1631 3429 
Q 1922 3584 2338 3584 
Q 2397 3584 2469 3576 
Q 2541 3569 2628 3553 
L 2631 2963 
z
" transform="scale(0.015625)"/>
      <path id="DejaVuSans-63" d="M 3122 3366 
L 3122 2828 
Q 2878 2963 2633 3030 
Q 2388 3097 2138 3097 
Q 1578 3097 1268 2742 
Q 959 2388 959 1747 
Q 959 1106 1268 751 
Q 1578 397 2138 397 
Q 2388 397 2633 464 
Q 2878 531 3122 666 
L 3122 134 
Q 2881 22 2623 -34 
Q 2366 -91 2075 -91 
Q 1284 -91 818 406 
Q 353 903 353 1747 
Q 353 2603 823 3093 
Q 1294 3584 2113 3584 
Q 2378 3584 2631 3529 
Q 2884 3475 3122 3366 
z
" transform="scale(0.015625)"/>
      <path id="DejaVuSans-70" d="M 1159 525 
L 1159 -1331 
L 581 -1331 
L 581 3500 
L 1159 3500 
L 1159 2969 
Q 1341 3281 1617 3432 
Q 1894 3584 2278 3584 
Q 2916 3584 3314 3078 
Q 3713 2572 3713 1747 
Q 3713 922 3314 415 
Q 2916 -91 2278 -91 
Q 1894 -91 1617 61 
Q 1341 213 1159 525 
z
M 3116 1747 
Q 3116 2381 2855 2742 
Q 2594 3103 2138 3103 
Q 1681 3103 1420 2742 
Q 1159 2381 1159 1747 
Q 1159 1113 1420 752 
Q 1681 391 2138 391 
Q 2594 391 2855 752 
Q 3116 1113 3116 1747 
z
" transform="scale(0.015625)"/>
      <path id="DejaVuSans-75" d="M 544 1381 
L 544 3500 
L 1119 3500 
L 1119 1403 
Q 1119 906 1312 657 
Q 1506 409 1894 409 
Q 2359 409 2629 706 
Q 2900 1003 2900 1516 
L 2900 3500 
L 3475 3500 
L 3475 0 
L 2900 0 
L 2900 538 
Q 2691 219 2414 64 
Q 2138 -91 1772 -91 
Q 1169 -91 856 284 
Q 544 659 544 1381 
z
M 1991 3584 
L 1991 3584 
z
" transform="scale(0.015625)"/>
     </defs>
     <use xlink:href="#DejaVuSans-6c"/>
     <use xlink:href="#DejaVuSans-69" x="27.783203"/>
     <use xlink:href="#DejaVuSans-76" x="55.566406"/>
     <use xlink:href="#DejaVuSans-65" x="114.746094"/>
     <use xlink:href="#DejaVuSans-2d" x="176.269531"/>
     <use xlink:href="#DejaVuSans-6d" x="212.353516"/>
     <use xlink:href="#DejaVuSans-69" x="309.765625"/>
     <use xlink:href="#DejaVuSans-67" x="337.548828"/>
     <use xlink:href="#DejaVuSans-72" x="401.025391"/>
     <use xlink:href="#DejaVuSans-61" x="442.138672"/>
     <use xlink:href="#DejaVuSans-74" x="503.417969"/>
     <use xlink:href="#DejaVuSans-65" x="542.626953"/>
     <use xlink:href="#DejaVuSans-20" x="604.150391"/>
     <use xlink:href="#DejaVuSans-28" x="635.9375"/>
     <use xlink:href="#DejaVuSans-63" x="674.951172"/>
     <use xlink:href="#DejaVuSans-70" x="729.931641"/>
     <use xlink:href="#DejaVuSans-75" x="793.408203"/>
     <use xlink:href="#DejaVuSans-29" x="856.787109"/>
    </g>
   </g>
   <g id="legend_1">
    <g id="patch_7">
     <path d="M 432.11975 89.030625 
L 565.801 89.030625 
Q 567.801 89.030625 567.801 87.030625 
L 567.801 29.318125 
Q 567.801 27.318125 565.801 27.318125 
L 432.11975 27.318125 
Q 430.11975 27.318125 430.11975 29.318125 
L 430.11975 87.030625 
Q 430.11975 89.030625 432.11975 89.030625 
z
" style="fill: #ffffff; opacity: 0.8; stroke: #cccccc; stroke-linejoin: miter"/>
    </g>
    <g id="patch_8">
     <path d="M 434.11975 38.916562 
L 454.11975 38.916562 
L 454.11975 31.916562 
L 434.11975 31.916562 
z
" style="fill: #ae9d31"/>
    </g>
    <g id="text_21">
     <!-- kubevirt -->
     <g transform="translate(462.11975 38.916562) scale(0.1 -0.1)">
      <defs>
       <path id="DejaVuSans-6b" d="M 581 4863 
L 1159 4863 
L 1159 1991 
L 2875 3500 
L 3609 3500 
L 1753 1863 
L 3688 0 
L 2938 0 
L 1159 1709 
L 1159 0 
L 581 0 
L 581 4863 
z
" transform="scale(0.015625)"/>
       <path id="DejaVuSans-62" d="M 3116 1747 
Q 3116 2381 2855 2742 
Q 2594 3103 2138 3103 
Q 1681 3103 1420 2742 
Q 1159 2381 1159 1747 
Q 1159 1113 1420 752 
Q 1681 391 2138 391 
Q 2594 391 2855 752 
Q 3116 1113 3116 1747 
z
M 1159 2969 
Q 1341 3281 1617 3432 
Q 1894 3584 2278 3584 
Q 2916 3584 3314 3078 
Q 3713 2572 3713 1747 
Q 3713 922 3314 415 
Q 2916 -91 2278 -91 
Q 1894 -91 1617 61 
Q 1341 213 1159 525 
L 1159 0 
L 581 0 
L 581 4863 
L 1159 4863 
L 1159 2969 
z
" transform="scale(0.015625)"/>
      </defs>
      <use xlink:href="#DejaVuSans-6b"/>
      <use xlink:href="#DejaVuSans-75" x="54.785156"/>
      <use xlink:href="#DejaVuSans-62" x="118.164062"/>
      <use xlink:href="#DejaVuSans-65" x="181.640625"/>
      <use xlink:href="#DejaVuSans-76" x="243.164062"/>
      <use xlink:href="#DejaVuSans-69" x="302.34375"/>
      <use xlink:href="#DejaVuSans-72" x="330.126953"/>
      <use xlink:href="#DejaVuSans-74" x="371.240234"/>
     </g>
    </g>
    <g id="line2d_20">
     <path d="M 434.11975 50.094688 
L 444.11975 50.094688 
L 454.11975 50.094688 
" style="fill: none; stroke-dasharray: 5.55,2.4; stroke-dashoffset: 0; stroke: #1f77b4; stroke-width: 1.5"/>
    </g>
    <g id="text_22">
     <!-- kubevirt finished -->
     <g transform="translate(462.11975 53.594688) scale(0.1 -0.1)">
      <defs>
       <path id="DejaVuSans-66" d="M 2375 4863 
L 2375 4384 
L 1825 4384 
Q 1516 4384 1395 4259 
Q 1275 4134 1275 3809 
L 1275 3500 
L 2222 3500 
L 2222 3053 
L 1275 3053 
L 1275 0 
L 697 0 
L 697 3053 
L 147 3053 
L 147 3500 
L 697 3500 
L 697 3744 
Q 697 4328 969 4595 
Q 1241 4863 1831 4863 
L 2375 4863 
z
" transform="scale(0.015625)"/>
       <path id="DejaVuSans-68" d="M 3513 2113 
L 3513 0 
L 2938 0 
L 2938 2094 
Q 2938 2591 2744 2837 
Q 2550 3084 2163 3084 
Q 1697 3084 1428 2787 
Q 1159 2491 1159 1978 
L 1159 0 
L 581 0 
L 581 4863 
L 1159 4863 
L 1159 2956 
Q 1366 3272 1645 3428 
Q 1925 3584 2291 3584 
Q 2894 3584 3203 3211 
Q 3513 2838 3513 2113 
z
" transform="scale(0.015625)"/>
       <path id="DejaVuSans-64" d="M 2906 2969 
L 2906 4863 
L 3481 4863 
L 3481 0 
L 2906 0 
L 2906 525 
Q 2725 213 2448 61 
Q 2172 -91 1784 -91 
Q 1150 -91 751 415 
Q 353 922 353 1747 
Q 353 2572 751 3078 
Q 1150 3584 1784 3584 
Q 2172 3584 2448 3432 
Q 2725 3281 2906 2969 
z
M 947 1747 
Q 947 1113 1208 752 
Q 1469 391 1925 391 
Q 2381 391 2643 752 
Q 2906 1113 2906 1747 
Q 2906 2381 2643 2742 
Q 2381 3103 1925 3103 
Q 1469 3103 1208 2742 
Q 947 2381 947 1747 
z
" transform="scale(0.015625)"/>
      </defs>
      <use xlink:href="#DejaVuSans-6b"/>
      <use xlink:href="#DejaVuSans-75" x="54.785156"/>
      <use xlink:href="#DejaVuSans-62" x="118.164062"/>
      <use xlink:href="#DejaVuSans-65" x="181.640625"/>
      <use xlink:href="#DejaVuSans-76" x="243.164062"/>
      <use xlink:href="#DejaVuSans-69" x="302.34375"/>
      <use xlink:href="#DejaVuSans-72" x="330.126953"/>
      <use xlink:href="#DejaVuSans-74" x="371.240234"/>
      <use xlink:href="#DejaVuSans-20" x="410.449219"/>
      <use xlink:href="#DejaVuSans-66" x="442.236328"/>
      <use xlink:href="#DejaVuSans-69" x="477.441406"/>
      <use xlink:href="#DejaVuSans-6e" x="505.224609"/>
      <use xlink:href="#DejaVuSans-69" x="568.603516"/>
      <use xlink:href="#DejaVuSans-73" x="596.386719"/>
      <use xlink:href="#DejaVuSans-68" x="648.486328"/>
      <use xlink:href="#DejaVuSans-65" x="711.865234"/>
      <use xlink:href="#DejaVuSans-64" x="773.388672"/>
     </g>
    </g>
    <g id="patch_9">
     <path d="M 434.11975 68.272812 
L 454.11975 68.272812 
L 454.11975 61.272812 
L 434.11975 61.272812 
z
" style="fill: #f565cc"/>
    </g>
    <g id="text_23">
     <!-- opennebula -->
     <g transform="translate(462.11975 68.272812) scale(0.1 -0.1)">
      <use xlink:href="#DejaVuSans-6f"/>
      <use xlink:href="#DejaVuSans-70" x="61.181641"/>
      <use xlink:href="#DejaVuSans-65" x="124.658203"/>
      <use xlink:href="#DejaVuSans-6e" x="186.181641"/>
      <use xlink:href="#DejaVuSans-6e" x="249.560547"/>
      <use xlink:href="#DejaVuSans-65" x="312.939453"/>
      <use xlink:href="#DejaVuSans-62" x="374.462891"/>
      <use xlink:href="#DejaVuSans-75" x="437.939453"/>
      <use xlink:href="#DejaVuSans-6c" x="501.318359"/>
      <use xlink:href="#DejaVuSans-61" x="529.101562"/>
     </g>
    </g>
    <g id="line2d_21">
     <path d="M 434.11975 79.450938 
L 444.11975 79.450938 
L 454.11975 79.450938 
" style="fill: none; stroke-dasharray: 5.55,2.4; stroke-dashoffset: 0; stroke: #ff7f0e; stroke-width: 1.5"/>
    </g>
    <g id="text_24">
     <!-- opennebula finished -->
     <g transform="translate(462.11975 82.950938) scale(0.1 -0.1)">
      <use xlink:href="#DejaVuSans-6f"/>
      <use xlink:href="#DejaVuSans-70" x="61.181641"/>
      <use xlink:href="#DejaVuSans-65" x="124.658203"/>
      <use xlink:href="#DejaVuSans-6e" x="186.181641"/>
      <use xlink:href="#DejaVuSans-6e" x="249.560547"/>
      <use xlink:href="#DejaVuSans-65" x="312.939453"/>
      <use xlink:href="#DejaVuSans-62" x="374.462891"/>
      <use xlink:href="#DejaVuSans-75" x="437.939453"/>
      <use xlink:href="#DejaVuSans-6c" x="501.318359"/>
      <use xlink:href="#DejaVuSans-61" x="529.101562"/>
      <use xlink:href="#DejaVuSans-20" x="590.380859"/>
      <use xlink:href="#DejaVuSans-66" x="622.167969"/>
      <use xlink:href="#DejaVuSans-69" x="657.373047"/>
      <use xlink:href="#DejaVuSans-6e" x="685.15625"/>
      <use xlink:href="#DejaVuSans-69" x="748.535156"/>
      <use xlink:href="#DejaVuSans-73" x="776.318359"/>
      <use xlink:href="#DejaVuSans-68" x="828.417969"/>
      <use xlink:href="#DejaVuSans-65" x="891.796875"/>
      <use xlink:href="#DejaVuSans-64" x="953.320312"/>
     </g>
    </g>
   </g>
  </g>
 </g>
 <defs>
  <clipPath id="p58f36c0f27">
   <rect x="50.14375" y="22.318125" width="357.12" height="266.112"/>
  </clipPath>
 </defs>
</svg>
