<?xml version="1.0" encoding="utf-8" standalone="no"?>
<!DOCTYPE svg PUBLIC "-//W3C//DTD SVG 1.1//EN"
  "http://www.w3.org/Graphics/SVG/1.1/DTD/svg11.dtd">
<svg xmlns:xlink="http://www.w3.org/1999/xlink" width="583.947875pt" height="389.793125pt" viewBox="0 0 583.947875 389.793125" xmlns="http://www.w3.org/2000/svg" version="1.1">
 <metadata>
  <rdf:RDF xmlns:dc="http://purl.org/dc/elements/1.1/" xmlns:cc="http://creativecommons.org/ns#" xmlns:rdf="http://www.w3.org/1999/02/22-rdf-syntax-ns#">
   <cc:Work>
    <dc:type rdf:resource="http://purl.org/dc/dcmitype/StillImage"/>
    <dc:date>2024-04-08T18:44:15.736191</dc:date>
    <dc:format>image/svg+xml</dc:format>
    <dc:creator>
     <cc:Agent>
      <dc:title>Matplotlib v3.8.4, https://matplotlib.org/</dc:title>
     </cc:Agent>
    </dc:creator>
   </cc:Work>
  </rdf:RDF>
 </metadata>
 <defs>
  <style type="text/css">*{stroke-linejoin: round; stroke-linecap: butt}</style>
 </defs>
 <g id="figure_1">
  <g id="patch_1">
   <path d="M 0 389.793125 
L 583.947875 389.793125 
L 583.947875 0 
L 0 0 
z
" style="fill: #ffffff"/>
  </g>
  <g id="axes_1">
   <g id="patch_2">
    <path d="M 50.14375 288.430125 
L 407.26375 288.430125 
L 407.26375 22.318125 
L 50.14375 22.318125 
z
" style="fill: #ffffff"/>
   </g>
   <g id="matplotlib.axis_1">
    <g id="xtick_1">
     <g id="line2d_1">
      <defs>
       <path id="mffdeb9a7aa" d="M 0 0 
L 0 3.5 
" style="stroke: #000000; stroke-width: 0.8"/>
      </defs>
      <g>
       <use xlink:href="#mffdeb9a7aa" x="66.160801" y="288.430125" style="stroke: #000000; stroke-width: 0.8"/>
      </g>
     </g>
     <g id="text_1">
      <!-- 0 -->
      <g transform="translate(62.979551 303.028562) scale(0.1 -0.1)">
       <defs>
        <path id="DejaVuSans-30" d="M 2034 4250 
Q 1547 4250 1301 3770 
Q 1056 3291 1056 2328 
Q 1056 1369 1301 889 
Q 1547 409 2034 409 
Q 2525 409 2770 889 
Q 3016 1369 3016 2328 
Q 3016 3291 2770 3770 
Q 2525 4250 2034 4250 
z
M 2034 4750 
Q 2819 4750 3233 4129 
Q 3647 3509 3647 2328 
Q 3647 1150 3233 529 
Q 2819 -91 2034 -91 
Q 1250 -91 836 529 
Q 422 1150 422 2328 
Q 422 3509 836 4129 
Q 1250 4750 2034 4750 
z
" transform="scale(0.015625)"/>
       </defs>
       <use xlink:href="#DejaVuSans-30"/>
      </g>
     </g>
    </g>
    <g id="xtick_2">
     <g id="line2d_2">
      <g>
       <use xlink:href="#mffdeb9a7aa" x="142.94387" y="288.430125" style="stroke: #000000; stroke-width: 0.8"/>
      </g>
     </g>
     <g id="text_2">
      <!-- 10 -->
      <g transform="translate(136.58137 303.028562) scale(0.1 -0.1)">
       <defs>
        <path id="DejaVuSans-31" d="M 794 531 
L 1825 531 
L 1825 4091 
L 703 3866 
L 703 4441 
L 1819 4666 
L 2450 4666 
L 2450 531 
L 3481 531 
L 3481 0 
L 794 0 
L 794 531 
z
" transform="scale(0.015625)"/>
       </defs>
       <use xlink:href="#DejaVuSans-31"/>
       <use xlink:href="#DejaVuSans-30" x="63.623047"/>
      </g>
     </g>
    </g>
    <g id="xtick_3">
     <g id="line2d_3">
      <g>
       <use xlink:href="#mffdeb9a7aa" x="219.726938" y="288.430125" style="stroke: #000000; stroke-width: 0.8"/>
      </g>
     </g>
     <g id="text_3">
      <!-- 20 -->
      <g transform="translate(213.364438 303.028562) scale(0.1 -0.1)">
       <defs>
        <path id="DejaVuSans-32" d="M 1228 531 
L 3431 531 
L 3431 0 
L 469 0 
L 469 531 
Q 828 903 1448 1529 
Q 2069 2156 2228 2338 
Q 2531 2678 2651 2914 
Q 2772 3150 2772 3378 
Q 2772 3750 2511 3984 
Q 2250 4219 1831 4219 
Q 1534 4219 1204 4116 
Q 875 4013 500 3803 
L 500 4441 
Q 881 4594 1212 4672 
Q 1544 4750 1819 4750 
Q 2544 4750 2975 4387 
Q 3406 4025 3406 3419 
Q 3406 3131 3298 2873 
Q 3191 2616 2906 2266 
Q 2828 2175 2409 1742 
Q 1991 1309 1228 531 
z
" transform="scale(0.015625)"/>
       </defs>
       <use xlink:href="#DejaVuSans-32"/>
       <use xlink:href="#DejaVuSans-30" x="63.623047"/>
      </g>
     </g>
    </g>
    <g id="xtick_4">
     <g id="line2d_4">
      <g>
       <use xlink:href="#mffdeb9a7aa" x="296.510006" y="288.430125" style="stroke: #000000; stroke-width: 0.8"/>
      </g>
     </g>
     <g id="text_4">
      <!-- 30 -->
      <g transform="translate(290.147506 303.028562) scale(0.1 -0.1)">
       <defs>
        <path id="DejaVuSans-33" d="M 2597 2516 
Q 3050 2419 3304 2112 
Q 3559 1806 3559 1356 
Q 3559 666 3084 287 
Q 2609 -91 1734 -91 
Q 1441 -91 1130 -33 
Q 819 25 488 141 
L 488 750 
Q 750 597 1062 519 
Q 1375 441 1716 441 
Q 2309 441 2620 675 
Q 2931 909 2931 1356 
Q 2931 1769 2642 2001 
Q 2353 2234 1838 2234 
L 1294 2234 
L 1294 2753 
L 1863 2753 
Q 2328 2753 2575 2939 
Q 2822 3125 2822 3475 
Q 2822 3834 2567 4026 
Q 2313 4219 1838 4219 
Q 1578 4219 1281 4162 
Q 984 4106 628 3988 
L 628 4550 
Q 988 4650 1302 4700 
Q 1616 4750 1894 4750 
Q 2613 4750 3031 4423 
Q 3450 4097 3450 3541 
Q 3450 3153 3228 2886 
Q 3006 2619 2597 2516 
z
" transform="scale(0.015625)"/>
       </defs>
       <use xlink:href="#DejaVuSans-33"/>
       <use xlink:href="#DejaVuSans-30" x="63.623047"/>
      </g>
     </g>
    </g>
    <g id="xtick_5">
     <g id="line2d_5">
      <g>
       <use xlink:href="#mffdeb9a7aa" x="373.293074" y="288.430125" style="stroke: #000000; stroke-width: 0.8"/>
      </g>
     </g>
     <g id="text_5">
      <!-- 40 -->
      <g transform="translate(366.930574 303.028562) scale(0.1 -0.1)">
       <defs>
        <path id="DejaVuSans-34" d="M 2419 4116 
L 825 1625 
L 2419 1625 
L 2419 4116 
z
M 2253 4666 
L 3047 4666 
L 3047 1625 
L 3713 1625 
L 3713 1100 
L 3047 1100 
L 3047 0 
L 2419 0 
L 2419 1100 
L 313 1100 
L 313 1709 
L 2253 4666 
z
" transform="scale(0.015625)"/>
       </defs>
       <use xlink:href="#DejaVuSans-34"/>
       <use xlink:href="#DejaVuSans-30" x="63.623047"/>
      </g>
     </g>
    </g>
    <g id="text_6">
     <!-- Time (s) -->
     <g transform="translate(208.374844 316.706687) scale(0.1 -0.1)">
      <defs>
       <path id="DejaVuSans-54" d="M -19 4666 
L 3928 4666 
L 3928 4134 
L 2272 4134 
L 2272 0 
L 1638 0 
L 1638 4134 
L -19 4134 
L -19 4666 
z
" transform="scale(0.015625)"/>
       <path id="DejaVuSans-69" d="M 603 3500 
L 1178 3500 
L 1178 0 
L 603 0 
L 603 3500 
z
M 603 4863 
L 1178 4863 
L 1178 4134 
L 603 4134 
L 603 4863 
z
" transform="scale(0.015625)"/>
       <path id="DejaVuSans-6d" d="M 3328 2828 
Q 3544 3216 3844 3400 
Q 4144 3584 4550 3584 
Q 5097 3584 5394 3201 
Q 5691 2819 5691 2113 
L 5691 0 
L 5113 0 
L 5113 2094 
Q 5113 2597 4934 2840 
Q 4756 3084 4391 3084 
Q 3944 3084 3684 2787 
Q 3425 2491 3425 1978 
L 3425 0 
L 2847 0 
L 2847 2094 
Q 2847 2600 2669 2842 
Q 2491 3084 2119 3084 
Q 1678 3084 1418 2786 
Q 1159 2488 1159 1978 
L 1159 0 
L 581 0 
L 581 3500 
L 1159 3500 
L 1159 2956 
Q 1356 3278 1631 3431 
Q 1906 3584 2284 3584 
Q 2666 3584 2933 3390 
Q 3200 3197 3328 2828 
z
" transform="scale(0.015625)"/>
       <path id="DejaVuSans-65" d="M 3597 1894 
L 3597 1613 
L 953 1613 
Q 991 1019 1311 708 
Q 1631 397 2203 397 
Q 2534 397 2845 478 
Q 3156 559 3463 722 
L 3463 178 
Q 3153 47 2828 -22 
Q 2503 -91 2169 -91 
Q 1331 -91 842 396 
Q 353 884 353 1716 
Q 353 2575 817 3079 
Q 1281 3584 2069 3584 
Q 2775 3584 3186 3129 
Q 3597 2675 3597 1894 
z
M 3022 2063 
Q 3016 2534 2758 2815 
Q 2500 3097 2075 3097 
Q 1594 3097 1305 2825 
Q 1016 2553 972 2059 
L 3022 2063 
z
" transform="scale(0.015625)"/>
       <path id="DejaVuSans-20" transform="scale(0.015625)"/>
       <path id="DejaVuSans-28" d="M 1984 4856 
Q 1566 4138 1362 3434 
Q 1159 2731 1159 2009 
Q 1159 1288 1364 580 
Q 1569 -128 1984 -844 
L 1484 -844 
Q 1016 -109 783 600 
Q 550 1309 550 2009 
Q 550 2706 781 3412 
Q 1013 4119 1484 4856 
L 1984 4856 
z
" transform="scale(0.015625)"/>
       <path id="DejaVuSans-73" d="M 2834 3397 
L 2834 2853 
Q 2591 2978 2328 3040 
Q 2066 3103 1784 3103 
Q 1356 3103 1142 2972 
Q 928 2841 928 2578 
Q 928 2378 1081 2264 
Q 1234 2150 1697 2047 
L 1894 2003 
Q 2506 1872 2764 1633 
Q 3022 1394 3022 966 
Q 3022 478 2636 193 
Q 2250 -91 1575 -91 
Q 1294 -91 989 -36 
Q 684 19 347 128 
L 347 722 
Q 666 556 975 473 
Q 1284 391 1588 391 
Q 1994 391 2212 530 
Q 2431 669 2431 922 
Q 2431 1156 2273 1281 
Q 2116 1406 1581 1522 
L 1381 1569 
Q 847 1681 609 1914 
Q 372 2147 372 2553 
Q 372 3047 722 3315 
Q 1072 3584 1716 3584 
Q 2034 3584 2315 3537 
Q 2597 3491 2834 3397 
z
" transform="scale(0.015625)"/>
       <path id="DejaVuSans-29" d="M 513 4856 
L 1013 4856 
Q 1481 4119 1714 3412 
Q 1947 2706 1947 2009 
Q 1947 1309 1714 600 
Q 1481 -109 1013 -844 
L 513 -844 
Q 928 -128 1133 580 
Q 1338 1288 1338 2009 
Q 1338 2731 1133 3434 
Q 928 4138 513 4856 
z
" transform="scale(0.015625)"/>
      </defs>
      <use xlink:href="#DejaVuSans-54"/>
      <use xlink:href="#DejaVuSans-69" x="57.958984"/>
      <use xlink:href="#DejaVuSans-6d" x="85.742188"/>
      <use xlink:href="#DejaVuSans-65" x="183.154297"/>
      <use xlink:href="#DejaVuSans-20" x="244.677734"/>
      <use xlink:href="#DejaVuSans-28" x="276.464844"/>
      <use xlink:href="#DejaVuSans-73" x="315.478516"/>
      <use xlink:href="#DejaVuSans-29" x="367.578125"/>
     </g>
    </g>
   </g>
   <g id="matplotlib.axis_2">
    <g id="ytick_1">
     <g id="line2d_6">
      <defs>
       <path id="m8d8b2a4f40" d="M 0 0 
L -3.5 0 
" style="stroke: #000000; stroke-width: 0.8"/>
      </defs>
      <g>
       <use xlink:href="#m8d8b2a4f40" x="50.14375" y="283.792505" style="stroke: #000000; stroke-width: 0.8"/>
      </g>
     </g>
     <g id="text_7">
      <!-- 0.00 -->
      <g transform="translate(20.878125 287.591723) scale(0.1 -0.1)">
       <defs>
        <path id="DejaVuSans-2e" d="M 684 794 
L 1344 794 
L 1344 0 
L 684 0 
L 684 794 
z
" transform="scale(0.015625)"/>
       </defs>
       <use xlink:href="#DejaVuSans-30"/>
       <use xlink:href="#DejaVuSans-2e" x="63.623047"/>
       <use xlink:href="#DejaVuSans-30" x="95.410156"/>
       <use xlink:href="#DejaVuSans-30" x="159.033203"/>
      </g>
     </g>
    </g>
    <g id="ytick_2">
     <g id="line2d_7">
      <g>
       <use xlink:href="#m8d8b2a4f40" x="50.14375" y="246.500607" style="stroke: #000000; stroke-width: 0.8"/>
      </g>
     </g>
     <g id="text_8">
      <!-- 0.05 -->
      <g transform="translate(20.878125 250.299825) scale(0.1 -0.1)">
       <defs>
        <path id="DejaVuSans-35" d="M 691 4666 
L 3169 4666 
L 3169 4134 
L 1269 4134 
L 1269 2991 
Q 1406 3038 1543 3061 
Q 1681 3084 1819 3084 
Q 2600 3084 3056 2656 
Q 3513 2228 3513 1497 
Q 3513 744 3044 326 
Q 2575 -91 1722 -91 
Q 1428 -91 1123 -41 
Q 819 9 494 109 
L 494 744 
Q 775 591 1075 516 
Q 1375 441 1709 441 
Q 2250 441 2565 725 
Q 2881 1009 2881 1497 
Q 2881 1984 2565 2268 
Q 2250 2553 1709 2553 
Q 1456 2553 1204 2497 
Q 953 2441 691 2322 
L 691 4666 
z
" transform="scale(0.015625)"/>
       </defs>
       <use xlink:href="#DejaVuSans-30"/>
       <use xlink:href="#DejaVuSans-2e" x="63.623047"/>
       <use xlink:href="#DejaVuSans-30" x="95.410156"/>
       <use xlink:href="#DejaVuSans-35" x="159.033203"/>
      </g>
     </g>
    </g>
    <g id="ytick_3">
     <g id="line2d_8">
      <g>
       <use xlink:href="#m8d8b2a4f40" x="50.14375" y="209.208709" style="stroke: #000000; stroke-width: 0.8"/>
      </g>
     </g>
     <g id="text_9">
      <!-- 0.10 -->
      <g transform="translate(20.878125 213.007928) scale(0.1 -0.1)">
       <use xlink:href="#DejaVuSans-30"/>
       <use xlink:href="#DejaVuSans-2e" x="63.623047"/>
       <use xlink:href="#DejaVuSans-31" x="95.410156"/>
       <use xlink:href="#DejaVuSans-30" x="159.033203"/>
      </g>
     </g>
    </g>
    <g id="ytick_4">
     <g id="line2d_9">
      <g>
       <use xlink:href="#m8d8b2a4f40" x="50.14375" y="171.916811" style="stroke: #000000; stroke-width: 0.8"/>
      </g>
     </g>
     <g id="text_10">
      <!-- 0.15 -->
      <g transform="translate(20.878125 175.71603) scale(0.1 -0.1)">
       <use xlink:href="#DejaVuSans-30"/>
       <use xlink:href="#DejaVuSans-2e" x="63.623047"/>
       <use xlink:href="#DejaVuSans-31" x="95.410156"/>
       <use xlink:href="#DejaVuSans-35" x="159.033203"/>
      </g>
     </g>
    </g>
    <g id="ytick_5">
     <g id="line2d_10">
      <g>
       <use xlink:href="#m8d8b2a4f40" x="50.14375" y="134.624913" style="stroke: #000000; stroke-width: 0.8"/>
      </g>
     </g>
     <g id="text_11">
      <!-- 0.20 -->
      <g transform="translate(20.878125 138.424132) scale(0.1 -0.1)">
       <use xlink:href="#DejaVuSans-30"/>
       <use xlink:href="#DejaVuSans-2e" x="63.623047"/>
       <use xlink:href="#DejaVuSans-32" x="95.410156"/>
       <use xlink:href="#DejaVuSans-30" x="159.033203"/>
      </g>
     </g>
    </g>
    <g id="ytick_6">
     <g id="line2d_11">
      <g>
       <use xlink:href="#m8d8b2a4f40" x="50.14375" y="97.333015" style="stroke: #000000; stroke-width: 0.8"/>
      </g>
     </g>
     <g id="text_12">
      <!-- 0.25 -->
      <g transform="translate(20.878125 101.132234) scale(0.1 -0.1)">
       <use xlink:href="#DejaVuSans-30"/>
       <use xlink:href="#DejaVuSans-2e" x="63.623047"/>
       <use xlink:href="#DejaVuSans-32" x="95.410156"/>
       <use xlink:href="#DejaVuSans-35" x="159.033203"/>
      </g>
     </g>
    </g>
    <g id="ytick_7">
     <g id="line2d_12">
      <g>
       <use xlink:href="#m8d8b2a4f40" x="50.14375" y="60.041117" style="stroke: #000000; stroke-width: 0.8"/>
      </g>
     </g>
     <g id="text_13">
      <!-- 0.30 -->
      <g transform="translate(20.878125 63.840336) scale(0.1 -0.1)">
       <use xlink:href="#DejaVuSans-30"/>
       <use xlink:href="#DejaVuSans-2e" x="63.623047"/>
       <use xlink:href="#DejaVuSans-33" x="95.410156"/>
       <use xlink:href="#DejaVuSans-30" x="159.033203"/>
      </g>
     </g>
    </g>
    <g id="ytick_8">
     <g id="line2d_13">
      <g>
       <use xlink:href="#m8d8b2a4f40" x="50.14375" y="22.749219" style="stroke: #000000; stroke-width: 0.8"/>
      </g>
     </g>
     <g id="text_14">
      <!-- 0.35 -->
      <g transform="translate(20.878125 26.548438) scale(0.1 -0.1)">
       <use xlink:href="#DejaVuSans-30"/>
       <use xlink:href="#DejaVuSans-2e" x="63.623047"/>
       <use xlink:href="#DejaVuSans-33" x="95.410156"/>
       <use xlink:href="#DejaVuSans-35" x="159.033203"/>
      </g>
     </g>
    </g>
    <g id="text_15">
     <!-- Utilization (%) -->
     <g transform="translate(14.798438 190.667875) rotate(-90) scale(0.1 -0.1)">
      <defs>
       <path id="DejaVuSans-55" d="M 556 4666 
L 1191 4666 
L 1191 1831 
Q 1191 1081 1462 751 
Q 1734 422 2344 422 
Q 2950 422 3222 751 
Q 3494 1081 3494 1831 
L 3494 4666 
L 4128 4666 
L 4128 1753 
Q 4128 841 3676 375 
Q 3225 -91 2344 -91 
Q 1459 -91 1007 375 
Q 556 841 556 1753 
L 556 4666 
z
" transform="scale(0.015625)"/>
       <path id="DejaVuSans-74" d="M 1172 4494 
L 1172 3500 
L 2356 3500 
L 2356 3053 
L 1172 3053 
L 1172 1153 
Q 1172 725 1289 603 
Q 1406 481 1766 481 
L 2356 481 
L 2356 0 
L 1766 0 
Q 1100 0 847 248 
Q 594 497 594 1153 
L 594 3053 
L 172 3053 
L 172 3500 
L 594 3500 
L 594 4494 
L 1172 4494 
z
" transform="scale(0.015625)"/>
       <path id="DejaVuSans-6c" d="M 603 4863 
L 1178 4863 
L 1178 0 
L 603 0 
L 603 4863 
z
" transform="scale(0.015625)"/>
       <path id="DejaVuSans-7a" d="M 353 3500 
L 3084 3500 
L 3084 2975 
L 922 459 
L 3084 459 
L 3084 0 
L 275 0 
L 275 525 
L 2438 3041 
L 353 3041 
L 353 3500 
z
" transform="scale(0.015625)"/>
       <path id="DejaVuSans-61" d="M 2194 1759 
Q 1497 1759 1228 1600 
Q 959 1441 959 1056 
Q 959 750 1161 570 
Q 1363 391 1709 391 
Q 2188 391 2477 730 
Q 2766 1069 2766 1631 
L 2766 1759 
L 2194 1759 
z
M 3341 1997 
L 3341 0 
L 2766 0 
L 2766 531 
Q 2569 213 2275 61 
Q 1981 -91 1556 -91 
Q 1019 -91 701 211 
Q 384 513 384 1019 
Q 384 1609 779 1909 
Q 1175 2209 1959 2209 
L 2766 2209 
L 2766 2266 
Q 2766 2663 2505 2880 
Q 2244 3097 1772 3097 
Q 1472 3097 1187 3025 
Q 903 2953 641 2809 
L 641 3341 
Q 956 3463 1253 3523 
Q 1550 3584 1831 3584 
Q 2591 3584 2966 3190 
Q 3341 2797 3341 1997 
z
" transform="scale(0.015625)"/>
       <path id="DejaVuSans-6f" d="M 1959 3097 
Q 1497 3097 1228 2736 
Q 959 2375 959 1747 
Q 959 1119 1226 758 
Q 1494 397 1959 397 
Q 2419 397 2687 759 
Q 2956 1122 2956 1747 
Q 2956 2369 2687 2733 
Q 2419 3097 1959 3097 
z
M 1959 3584 
Q 2709 3584 3137 3096 
Q 3566 2609 3566 1747 
Q 3566 888 3137 398 
Q 2709 -91 1959 -91 
Q 1206 -91 779 398 
Q 353 888 353 1747 
Q 353 2609 779 3096 
Q 1206 3584 1959 3584 
z
" transform="scale(0.015625)"/>
       <path id="DejaVuSans-6e" d="M 3513 2113 
L 3513 0 
L 2938 0 
L 2938 2094 
Q 2938 2591 2744 2837 
Q 2550 3084 2163 3084 
Q 1697 3084 1428 2787 
Q 1159 2491 1159 1978 
L 1159 0 
L 581 0 
L 581 3500 
L 1159 3500 
L 1159 2956 
Q 1366 3272 1645 3428 
Q 1925 3584 2291 3584 
Q 2894 3584 3203 3211 
Q 3513 2838 3513 2113 
z
" transform="scale(0.015625)"/>
       <path id="DejaVuSans-25" d="M 4653 2053 
Q 4381 2053 4226 1822 
Q 4072 1591 4072 1178 
Q 4072 772 4226 539 
Q 4381 306 4653 306 
Q 4919 306 5073 539 
Q 5228 772 5228 1178 
Q 5228 1588 5073 1820 
Q 4919 2053 4653 2053 
z
M 4653 2450 
Q 5147 2450 5437 2106 
Q 5728 1763 5728 1178 
Q 5728 594 5436 251 
Q 5144 -91 4653 -91 
Q 4153 -91 3862 251 
Q 3572 594 3572 1178 
Q 3572 1766 3864 2108 
Q 4156 2450 4653 2450 
z
M 1428 4353 
Q 1159 4353 1004 4120 
Q 850 3888 850 3481 
Q 850 3069 1003 2837 
Q 1156 2606 1428 2606 
Q 1700 2606 1854 2837 
Q 2009 3069 2009 3481 
Q 2009 3884 1853 4118 
Q 1697 4353 1428 4353 
z
M 4250 4750 
L 4750 4750 
L 1831 -91 
L 1331 -91 
L 4250 4750 
z
M 1428 4750 
Q 1922 4750 2215 4408 
Q 2509 4066 2509 3481 
Q 2509 2891 2217 2550 
Q 1925 2209 1428 2209 
Q 931 2209 642 2551 
Q 353 2894 353 3481 
Q 353 4063 643 4406 
Q 934 4750 1428 4750 
z
" transform="scale(0.015625)"/>
      </defs>
      <use xlink:href="#DejaVuSans-55"/>
      <use xlink:href="#DejaVuSans-74" x="73.193359"/>
      <use xlink:href="#DejaVuSans-69" x="112.402344"/>
      <use xlink:href="#DejaVuSans-6c" x="140.185547"/>
      <use xlink:href="#DejaVuSans-69" x="167.96875"/>
      <use xlink:href="#DejaVuSans-7a" x="195.751953"/>
      <use xlink:href="#DejaVuSans-61" x="248.242188"/>
      <use xlink:href="#DejaVuSans-74" x="309.521484"/>
      <use xlink:href="#DejaVuSans-69" x="348.730469"/>
      <use xlink:href="#DejaVuSans-6f" x="376.513672"/>
      <use xlink:href="#DejaVuSans-6e" x="437.695312"/>
      <use xlink:href="#DejaVuSans-20" x="501.074219"/>
      <use xlink:href="#DejaVuSans-28" x="532.861328"/>
      <use xlink:href="#DejaVuSans-25" x="571.875"/>
      <use xlink:href="#DejaVuSans-29" x="666.894531"/>
     </g>
    </g>
   </g>
   <g id="line2d_14">
    <path d="M 66.376477 264.461876 
L 81.733091 261.051905 
L 97.089705 260.520869 
L 112.446318 259.603488 
L 127.802932 258.650307 
L 143.159546 257.891044 
L 158.516159 257.701601 
L 181.55108 257.710551 
L 196.907693 257.360007 
L 212.264307 257.371941 
L 227.620921 260.235959 
L 242.977534 263.64593 
L 258.334148 263.994982 
L 273.690762 265.100314 
L 289.047375 266.244429 
L 304.403989 266.06692 
L 319.760603 265.877477 
L 342.795523 265.136114 
L 358.152137 265.665659 
L 373.50875 266.59199 
L 388.865364 258.574232 
" clip-path="url(#p076705ea44)" style="fill: none; stroke: #1f77b4; stroke-width: 1.5; stroke-linecap: square"/>
   </g>
   <g id="line2d_15">
    <path d="M 66.376477 247.221086 
L 81.733091 234.488141 
L 97.089705 235.056469 
L 112.446318 234.874485 
L 127.802932 234.504549 
L 150.837852 234.688025 
L 166.194466 236.77488 
L 181.55108 236.197601 
L 196.907693 239.955133 
L 212.264307 242.398498 
L 227.620921 255.174702 
L 242.977534 266.605415 
L 258.334148 266.417464 
L 273.690762 265.476216 
L 296.725682 264.718445 
L 312.082296 264.156083 
L 327.438909 264.166525 
L 342.795523 264.350001 
L 358.152137 263.786147 
L 373.50875 264.163541 
L 388.865364 260.97583 
" clip-path="url(#p076705ea44)" style="fill: none; stroke: #ff7f0e; stroke-width: 1.5; stroke-linecap: square"/>
   </g>
   <g id="line2d_16">
    <path d="M 66.376477 263.410245 
L 81.733091 261.150356 
L 97.089705 260.968371 
L 112.446318 260.40601 
L 127.802932 260.758045 
L 143.159546 259.630338 
L 158.516159 259.816798 
L 173.872773 260.1927 
L 189.229386 259.801881 
L 212.264307 261.119031 
L 227.620921 263.551954 
L 242.977534 265.245006 
L 258.334148 264.681153 
L 273.690762 264.288842 
L 289.047375 264.30525 
L 304.403989 264.512593 
L 319.760603 263.580296 
L 335.117216 263.013459 
L 350.47383 263.78018 
L 373.50875 264.150116 
L 388.865364 255.732589 
" clip-path="url(#p076705ea44)" style="fill: none; stroke: #2ca02c; stroke-width: 1.5; stroke-linecap: square"/>
   </g>
   <g id="line2d_17">
    <path d="M 66.376477 246.949601 
L 81.733091 243.544105 
L 97.089705 243.902107 
L 112.446318 244.461486 
L 127.802932 244.637503 
L 150.837852 244.454027 
L 166.194466 245.369916 
L 181.55108 244.604687 
L 196.907693 246.461823 
L 212.264307 258.31468 
L 227.620921 262.621148 
L 242.977534 265.637317 
L 258.334148 266.201171 
L 273.690762 265.661184 
L 289.047375 266.768007 
L 312.082296 265.635825 
L 327.438909 265.455333 
L 342.795523 265.277823 
L 358.152137 264.901921 
L 373.50875 265.098822 
L 388.865364 260.42391 
" clip-path="url(#p076705ea44)" style="fill: none; stroke: #d62728; stroke-width: 1.5; stroke-linecap: square"/>
   </g>
   <g id="line2d_18">
    <path d="M 74.054784 258.641357 
L 89.411398 256.548536 
L 104.768011 257.4868 
L 120.124625 256.184567 
L 135.481239 256.168158 
L 150.837852 255.634138 
L 166.194466 255.240336 
L 181.55108 255.437237 
L 196.907693 254.484056 
L 212.264307 258.292305 
L 235.299227 263.766755 
L 250.655841 265.479199 
L 266.012455 265.306165 
L 281.369068 266.223546 
L 296.725682 266.043053 
L 312.082296 266.016203 
L 327.438909 266.046036 
L 342.795523 265.104789 
L 358.152137 265.685051 
L 373.50875 266.259346 
" clip-path="url(#p076705ea44)" style="fill: none; stroke: #9467bd; stroke-width: 1.5; stroke-linecap: square"/>
   </g>
   <g id="line2d_19">
    <path d="M 66.376477 247.31357 
L 81.733091 238.212855 
L 97.089705 237.854853 
L 120.124625 236.74803 
L 135.481239 237.669885 
L 150.837852 238.954218 
L 166.194466 239.896957 
L 181.55108 240.641304 
L 196.907693 244.916447 
L 212.264307 246.827284 
L 235.299227 257.932811 
L 250.655841 266.641215 
L 266.012455 266.639723 
L 281.369068 266.629281 
L 296.725682 266.629281 
L 312.082296 266.445805 
L 327.438909 266.444314 
L 342.795523 265.875985 
L 358.152137 264.719936 
L 373.50875 264.719936 
" clip-path="url(#p076705ea44)" style="fill: none; stroke: #8c564b; stroke-width: 1.5; stroke-linecap: square"/>
   </g>
   <g id="line2d_20">
    <path d="M 66.376477 255.92054 
L 89.411398 252.704487 
L 104.768011 253.636784 
L 120.124625 252.892438 
L 135.481239 252.161517 
L 150.837852 252.346485 
L 166.194466 252.881996 
L 181.55108 253.447341 
L 196.907693 253.44585 
L 212.264307 258.489206 
L 227.620921 263.607146 
L 250.655841 266.466689 
L 266.012455 265.152522 
L 281.369068 265.330032 
L 296.725682 265.87151 
L 312.082296 265.497099 
L 327.438909 264.761703 
L 342.795523 263.850289 
L 358.152137 263.845814 
L 373.50875 263.821947 
" clip-path="url(#p076705ea44)" style="fill: none; stroke: #e377c2; stroke-width: 1.5; stroke-linecap: square"/>
   </g>
   <g id="line2d_21">
    <path d="M 66.376477 248.788838 
L 81.733091 245.557868 
L 97.089705 244.628553 
L 112.446318 244.439111 
L 127.802932 244.974622 
L 150.837852 244.221326 
L 166.194466 244.976114 
L 181.55108 244.043816 
L 196.907693 245.362458 
L 212.264307 258.089437 
L 227.620921 262.625623 
L 242.977534 265.485166 
L 258.334148 266.603923 
L 273.690762 266.435364 
L 289.047375 265.519475 
L 312.082296 265.520966 
L 327.438909 265.34644 
L 342.795523 266.105703 
L 358.152137 266.098245 
L 373.50875 266.110178 
L 388.865364 261.529242 
" clip-path="url(#p076705ea44)" style="fill: none; stroke: #7f7f7f; stroke-width: 1.5; stroke-linecap: square"/>
   </g>
   <g id="line2d_22">
    <path d="M 66.376477 253.717335 
L 81.733091 252.024283 
L 97.089705 250.663874 
L 112.446318 250.103004 
L 127.802932 250.267088 
L 150.837852 249.518267 
L 166.194466 252.11975 
L 181.55108 251.94224 
L 196.907693 255.152327 
L 212.264307 255.526738 
L 227.620921 263.213344 
L 242.977534 263.786147 
L 258.334148 265.325557 
L 273.690762 265.515 
L 289.047375 265.321082 
L 312.082296 265.526933 
L 327.438909 266.081836 
L 342.795523 265.32854 
L 358.152137 265.886427 
L 373.50875 265.707426 
L 388.865364 261.381566 
" clip-path="url(#p076705ea44)" style="fill: none; stroke: #bcbd22; stroke-width: 1.5; stroke-linecap: square"/>
   </g>
   <g id="line2d_23">
    <path d="M 66.376477 254.394556 
L 81.733091 252.67167 
L 97.089705 252.285326 
L 112.446318 252.464327 
L 135.481239 251.898982 
L 150.837852 251.514129 
L 166.194466 254.143954 
L 181.55108 254.339364 
L 196.907693 257.516633 
L 212.264307 256.945321 
L 227.620921 263.556429 
L 242.977534 264.333592 
L 258.334148 264.924296 
L 273.690762 264.727395 
L 296.725682 265.107772 
L 312.082296 265.110755 
L 327.438909 264.933246 
L 342.795523 264.190391 
L 358.152137 264.743803 
L 373.50875 265.289757 
L 388.865364 262.671865 
" clip-path="url(#p076705ea44)" style="fill: none; stroke: #17becf; stroke-width: 1.5; stroke-linecap: square"/>
   </g>
   <g id="line2d_24">
    <path d="M 376.468553 274.46953 
L 376.468553 142.978298 
" clip-path="url(#p076705ea44)" style="fill: none; stroke-dasharray: 5.55,2.4; stroke-dashoffset: 0; stroke: #1f77b4; stroke-width: 1.5"/>
   </g>
   <g id="line2d_25">
    <path d="M 203.734629 274.46953 
L 203.734629 142.978298 
" clip-path="url(#p076705ea44)" style="fill: none; stroke-dasharray: 5.55,2.4; stroke-dashoffset: 0; stroke: #ff7f0e; stroke-width: 1.5"/>
   </g>
   <g id="line2d_26">
    <path d="M 68.542136 261.602334 
L 83.89875 261.450183 
L 99.255363 262.37353 
L 114.611977 262.184087 
L 129.968591 262.549548 
L 145.325204 263.098485 
L 160.681818 264.588669 
L 183.716738 265.517983 
L 199.073352 266.08482 
L 214.429966 265.713392 
L 229.786579 261.800727 
L 245.143193 261.993153 
L 260.499807 261.063839 
L 275.85642 260.883346 
L 291.213034 254.370689 
L 306.569648 254.927084 
L 321.926261 256.230809 
L 344.961182 255.29702 
L 360.317795 254.542232 
L 375.674409 254.54074 
L 391.031023 254.367705 
" clip-path="url(#p076705ea44)" style="fill: none; stroke: #2ca02c; stroke-width: 1.5; stroke-linecap: square"/>
   </g>
   <g id="line2d_27">
    <path d="M 68.542136 259.74818 
L 83.89875 259.361836 
L 99.255363 263.832389 
L 114.611977 264.931754 
L 129.968591 264.008407 
L 145.325204 263.817472 
L 160.681818 264.190391 
L 176.038432 265.143572 
L 199.073352 264.220225 
L 214.429966 264.781095 
L 229.786579 264.579719 
L 245.143193 264.212767 
L 260.499807 263.463945 
L 275.85642 263.641455 
L 291.213034 263.638471 
L 306.569648 263.457978 
L 321.926261 263.268536 
L 337.282875 263.255111 
L 352.639489 263.990507 
L 375.674409 263.249144 
L 391.031023 261.357699 
" clip-path="url(#p076705ea44)" style="fill: none; stroke: #d62728; stroke-width: 1.5; stroke-linecap: square"/>
   </g>
   <g id="line2d_28">
    <path d="M 68.542136 262.352647 
L 83.89875 257.267523 
L 99.255363 242.256789 
L 114.611977 240.956047 
L 129.968591 222.31159 
L 145.325204 214.707026 
L 160.681818 214.155106 
L 176.038432 213.577828 
L 199.073352 213.762795 
L 214.429966 213.752354 
L 229.786579 216.750622 
L 245.143193 221.45686 
L 260.499807 235.711315 
L 275.85642 237.188074 
L 291.213034 250.993535 
L 306.569648 257.814969 
L 321.926261 258.371364 
L 344.961182 258.041703 
L 360.317795 258.231146 
L 375.674409 258.815883 
L 391.031023 253.138565 
" clip-path="url(#p076705ea44)" style="fill: none; stroke: #9467bd; stroke-width: 1.5; stroke-linecap: square"/>
   </g>
   <g id="line2d_29">
    <path d="M 68.542136 260.889313 
L 83.89875 254.9062 
L 99.255363 242.768434 
L 114.611977 240.876988 
L 129.968591 234.875976 
L 145.325204 227.472789 
L 160.681818 228.042609 
L 176.038432 228.038134 
L 191.395045 229.186724 
L 214.429966 227.832283 
L 229.786579 230.441224 
L 245.143193 236.218485 
L 260.499807 248.908172 
L 275.85642 251.907932 
L 291.213034 255.300003 
L 306.569648 261.76791 
L 321.926261 261.190631 
L 337.282875 260.449268 
L 360.317795 261.008647 
L 375.674409 262.316846 
L 391.031023 256.50826 
" clip-path="url(#p076705ea44)" style="fill: none; stroke: #8c564b; stroke-width: 1.5; stroke-linecap: square"/>
   </g>
   <g id="line2d_30">
    <path d="M 68.542136 263.590738 
L 83.89875 260.665561 
L 99.255363 249.301974 
L 122.290284 246.863084 
L 137.646897 226.189947 
L 153.003511 225.837912 
L 168.360125 225.2845 
L 183.716738 225.299417 
L 199.073352 225.661894 
L 214.429966 224.346236 
L 229.786579 227.736815 
L 245.143193 230.113055 
L 260.499807 241.297641 
L 283.534727 243.371071 
L 298.891341 261.433774 
L 314.247954 261.429299 
L 329.604568 261.603825 
L 344.961182 262.345188 
L 360.317795 261.991661 
L 375.674409 264.612536 
L 391.031023 255.313428 
" clip-path="url(#p076705ea44)" style="fill: none; stroke: #e377c2; stroke-width: 1.5; stroke-linecap: square"/>
   </g>
   <g id="line2d_31">
    <path d="M 68.542136 261.697801 
L 83.89875 260.937046 
L 99.255363 249.900136 
L 122.290284 247.855048 
L 137.646897 225.933379 
L 153.003511 225.743936 
L 168.360125 226.310773 
L 183.716738 226.480824 
L 199.073352 226.668775 
L 214.429966 226.585242 
L 229.786579 229.191199 
L 245.143193 229.012198 
L 260.499807 239.500172 
L 283.534727 241.3588 
L 298.891341 261.447199 
L 314.247954 261.075772 
L 329.604568 260.128558 
L 344.961182 260.128558 
L 360.317795 260.49551 
L 375.674409 262.166187 
L 391.031023 254.06937 
" clip-path="url(#p076705ea44)" style="fill: none; stroke: #7f7f7f; stroke-width: 1.5; stroke-linecap: square"/>
   </g>
   <g id="line2d_32">
    <path d="M 68.542136 262.094587 
L 83.89875 261.153339 
L 99.255363 249.783785 
L 114.611977 247.790906 
L 137.646897 225.171133 
L 153.003511 223.287146 
L 168.360125 223.102178 
L 183.716738 223.837575 
L 199.073352 225.332234 
L 214.429966 223.84205 
L 229.786579 225.954263 
L 245.143193 226.337623 
L 260.499807 237.699719 
L 275.85642 239.907399 
L 298.891341 259.148527 
L 314.247954 259.915248 
L 329.604568 260.855004 
L 344.961182 260.294134 
L 360.317795 260.118116 
L 375.674409 260.467168 
L 391.031023 252.082458 
" clip-path="url(#p076705ea44)" style="fill: none; stroke: #bcbd22; stroke-width: 1.5; stroke-linecap: square"/>
   </g>
   <g id="line2d_33">
    <path d="M 68.542136 261.389024 
L 83.89875 259.214161 
L 99.255363 248.524811 
L 114.611977 246.472265 
L 137.646897 224.107568 
L 153.003511 222.611417 
L 168.360125 222.794893 
L 183.716738 222.600975 
L 199.073352 221.849171 
L 214.429966 221.343492 
L 229.786579 223.767466 
L 245.143193 225.371017 
L 260.499807 236.22296 
L 283.534727 236.76593 
L 298.891341 256.690245 
L 314.247954 258.56379 
L 329.604568 258.36838 
L 344.961182 259.302169 
L 360.317795 259.11571 
L 375.674409 260.048007 
L 391.031023 252.418085 
" clip-path="url(#p076705ea44)" style="fill: none; stroke: #17becf; stroke-width: 1.5; stroke-linecap: square"/>
   </g>
   <g id="line2d_34">
    <path d="M 68.542136 266.474147 
L 83.89875 262.354138 
L 106.93367 255.435745 
L 122.290284 250.929392 
L 137.646897 229.784886 
L 153.003511 229.037557 
L 168.360125 229.04949 
L 183.716738 229.240425 
L 199.073352 231.474955 
L 214.429966 228.482653 
L 229.786579 227.563781 
L 245.143193 230.772376 
L 268.178114 238.630525 
L 283.534727 242.15983 
L 298.891341 262.564465 
L 314.247954 263.50422 
L 329.604568 261.988678 
L 344.961182 261.797743 
L 360.317795 261.03848 
L 375.674409 263.271519 
L 391.031023 255.191111 
" clip-path="url(#p076705ea44)" style="fill: none; stroke: #1f77b4; stroke-width: 1.5; stroke-linecap: square"/>
   </g>
   <g id="line2d_35">
    <path d="M 68.542136 261.035497 
L 83.89875 259.158969 
L 99.255363 251.281428 
L 122.290284 248.269734 
L 137.646897 225.197983 
L 153.003511 225.189033 
L 168.360125 225.371017 
L 183.716738 224.813131 
L 199.073352 224.995115 
L 214.429966 225.075666 
L 229.786579 227.311688 
L 245.143193 228.609446 
L 260.499807 237.59381 
L 283.534727 240.978422 
L 298.891341 261.420349 
L 314.247954 261.417366 
L 329.604568 260.683461 
L 344.961182 261.609792 
L 360.317795 261.245823 
L 375.674409 263.808522 
L 391.031023 255.280611 
" clip-path="url(#p076705ea44)" style="fill: none; stroke: #ff7f0e; stroke-width: 1.5; stroke-linecap: square"/>
   </g>
   <g id="line2d_36">
    <path d="M 383.825738 276.334125 
L 383.825738 34.414125 
" clip-path="url(#p076705ea44)" style="fill: none; stroke-dasharray: 5.55,2.4; stroke-dashoffset: 0; stroke: #2ca02c; stroke-width: 1.5"/>
   </g>
   <g id="line2d_37">
    <path d="M 279.274549 276.334125 
L 279.274549 34.414125 
" clip-path="url(#p076705ea44)" style="fill: none; stroke-dasharray: 5.55,2.4; stroke-dashoffset: 0; stroke: #d62728; stroke-width: 1.5"/>
   </g>
   <g id="patch_3">
    <path d="M 50.14375 288.430125 
L 50.14375 22.318125 
" style="fill: none; stroke: #000000; stroke-width: 0.8; stroke-linejoin: miter; stroke-linecap: square"/>
   </g>
   <g id="patch_4">
    <path d="M 407.26375 288.430125 
L 407.26375 22.318125 
" style="fill: none; stroke: #000000; stroke-width: 0.8; stroke-linejoin: miter; stroke-linecap: square"/>
   </g>
   <g id="patch_5">
    <path d="M 50.14375 288.430125 
L 407.26375 288.430125 
" style="fill: none; stroke: #000000; stroke-width: 0.8; stroke-linejoin: miter; stroke-linecap: square"/>
   </g>
   <g id="patch_6">
    <path d="M 50.14375 22.318125 
L 407.26375 22.318125 
" style="fill: none; stroke: #000000; stroke-width: 0.8; stroke-linejoin: miter; stroke-linecap: square"/>
   </g>
   <g id="text_16">
    <!-- scale-cluster (cpu) -->
    <g transform="translate(173.174688 16.318125) scale(0.12 -0.12)">
     <defs>
      <path id="DejaVuSans-63" d="M 3122 3366 
L 3122 2828 
Q 2878 2963 2633 3030 
Q 2388 3097 2138 3097 
Q 1578 3097 1268 2742 
Q 959 2388 959 1747 
Q 959 1106 1268 751 
Q 1578 397 2138 397 
Q 2388 397 2633 464 
Q 2878 531 3122 666 
L 3122 134 
Q 2881 22 2623 -34 
Q 2366 -91 2075 -91 
Q 1284 -91 818 406 
Q 353 903 353 1747 
Q 353 2603 823 3093 
Q 1294 3584 2113 3584 
Q 2378 3584 2631 3529 
Q 2884 3475 3122 3366 
z
" transform="scale(0.015625)"/>
      <path id="DejaVuSans-2d" d="M 313 2009 
L 1997 2009 
L 1997 1497 
L 313 1497 
L 313 2009 
z
" transform="scale(0.015625)"/>
      <path id="DejaVuSans-75" d="M 544 1381 
L 544 3500 
L 1119 3500 
L 1119 1403 
Q 1119 906 1312 657 
Q 1506 409 1894 409 
Q 2359 409 2629 706 
Q 2900 1003 2900 1516 
L 2900 3500 
L 3475 3500 
L 3475 0 
L 2900 0 
L 2900 538 
Q 2691 219 2414 64 
Q 2138 -91 1772 -91 
Q 1169 -91 856 284 
Q 544 659 544 1381 
z
M 1991 3584 
L 1991 3584 
z
" transform="scale(0.015625)"/>
      <path id="DejaVuSans-72" d="M 2631 2963 
Q 2534 3019 2420 3045 
Q 2306 3072 2169 3072 
Q 1681 3072 1420 2755 
Q 1159 2438 1159 1844 
L 1159 0 
L 581 0 
L 581 3500 
L 1159 3500 
L 1159 2956 
Q 1341 3275 1631 3429 
Q 1922 3584 2338 3584 
Q 2397 3584 2469 3576 
Q 2541 3569 2628 3553 
L 2631 2963 
z
" transform="scale(0.015625)"/>
      <path id="DejaVuSans-70" d="M 1159 525 
L 1159 -1331 
L 581 -1331 
L 581 3500 
L 1159 3500 
L 1159 2969 
Q 1341 3281 1617 3432 
Q 1894 3584 2278 3584 
Q 2916 3584 3314 3078 
Q 3713 2572 3713 1747 
Q 3713 922 3314 415 
Q 2916 -91 2278 -91 
Q 1894 -91 1617 61 
Q 1341 213 1159 525 
z
M 3116 1747 
Q 3116 2381 2855 2742 
Q 2594 3103 2138 3103 
Q 1681 3103 1420 2742 
Q 1159 2381 1159 1747 
Q 1159 1113 1420 752 
Q 1681 391 2138 391 
Q 2594 391 2855 752 
Q 3116 1113 3116 1747 
z
" transform="scale(0.015625)"/>
     </defs>
     <use xlink:href="#DejaVuSans-73"/>
     <use xlink:href="#DejaVuSans-63" x="52.099609"/>
     <use xlink:href="#DejaVuSans-61" x="107.080078"/>
     <use xlink:href="#DejaVuSans-6c" x="168.359375"/>
     <use xlink:href="#DejaVuSans-65" x="196.142578"/>
     <use xlink:href="#DejaVuSans-2d" x="257.666016"/>
     <use xlink:href="#DejaVuSans-63" x="293.75"/>
     <use xlink:href="#DejaVuSans-6c" x="348.730469"/>
     <use xlink:href="#DejaVuSans-75" x="376.513672"/>
     <use xlink:href="#DejaVuSans-73" x="439.892578"/>
     <use xlink:href="#DejaVuSans-74" x="491.992188"/>
     <use xlink:href="#DejaVuSans-65" x="531.201172"/>
     <use xlink:href="#DejaVuSans-72" x="592.724609"/>
     <use xlink:href="#DejaVuSans-20" x="633.837891"/>
     <use xlink:href="#DejaVuSans-28" x="665.625"/>
     <use xlink:href="#DejaVuSans-63" x="704.638672"/>
     <use xlink:href="#DejaVuSans-70" x="759.619141"/>
     <use xlink:href="#DejaVuSans-75" x="823.095703"/>
     <use xlink:href="#DejaVuSans-29" x="886.474609"/>
    </g>
   </g>
   <g id="legend_1">
    <g id="patch_7">
     <path d="M 432.11975 382.593125 
L 574.747875 382.593125 
Q 576.747875 382.593125 576.747875 380.593125 
L 576.747875 29.318125 
Q 576.747875 27.318125 574.747875 27.318125 
L 432.11975 27.318125 
Q 430.11975 27.318125 430.11975 29.318125 
L 430.11975 380.593125 
Q 430.11975 382.593125 432.11975 382.593125 
z
" style="fill: #ffffff; opacity: 0.8; stroke: #cccccc; stroke-linejoin: miter"/>
    </g>
    <g id="line2d_38">
     <path d="M 434.11975 35.416562 
L 444.11975 35.416562 
L 454.11975 35.416562 
" style="fill: none; stroke: #1f77b4; stroke-width: 1.5; stroke-linecap: square"/>
    </g>
    <g id="text_17">
     <!-- kubevirt cpu -->
     <g transform="translate(462.11975 38.916562) scale(0.1 -0.1)">
      <defs>
       <path id="DejaVuSans-6b" d="M 581 4863 
L 1159 4863 
L 1159 1991 
L 2875 3500 
L 3609 3500 
L 1753 1863 
L 3688 0 
L 2938 0 
L 1159 1709 
L 1159 0 
L 581 0 
L 581 4863 
z
" transform="scale(0.015625)"/>
       <path id="DejaVuSans-62" d="M 3116 1747 
Q 3116 2381 2855 2742 
Q 2594 3103 2138 3103 
Q 1681 3103 1420 2742 
Q 1159 2381 1159 1747 
Q 1159 1113 1420 752 
Q 1681 391 2138 391 
Q 2594 391 2855 752 
Q 3116 1113 3116 1747 
z
M 1159 2969 
Q 1341 3281 1617 3432 
Q 1894 3584 2278 3584 
Q 2916 3584 3314 3078 
Q 3713 2572 3713 1747 
Q 3713 922 3314 415 
Q 2916 -91 2278 -91 
Q 1894 -91 1617 61 
Q 1341 213 1159 525 
L 1159 0 
L 581 0 
L 581 4863 
L 1159 4863 
L 1159 2969 
z
" transform="scale(0.015625)"/>
       <path id="DejaVuSans-76" d="M 191 3500 
L 800 3500 
L 1894 563 
L 2988 3500 
L 3597 3500 
L 2284 0 
L 1503 0 
L 191 3500 
z
" transform="scale(0.015625)"/>
      </defs>
      <use xlink:href="#DejaVuSans-6b"/>
      <use xlink:href="#DejaVuSans-75" x="54.785156"/>
      <use xlink:href="#DejaVuSans-62" x="118.164062"/>
      <use xlink:href="#DejaVuSans-65" x="181.640625"/>
      <use xlink:href="#DejaVuSans-76" x="243.164062"/>
      <use xlink:href="#DejaVuSans-69" x="302.34375"/>
      <use xlink:href="#DejaVuSans-72" x="330.126953"/>
      <use xlink:href="#DejaVuSans-74" x="371.240234"/>
      <use xlink:href="#DejaVuSans-20" x="410.449219"/>
      <use xlink:href="#DejaVuSans-63" x="442.236328"/>
      <use xlink:href="#DejaVuSans-70" x="497.216797"/>
      <use xlink:href="#DejaVuSans-75" x="560.693359"/>
     </g>
    </g>
    <g id="line2d_39">
     <path d="M 434.11975 50.094687 
L 444.11975 50.094687 
L 454.11975 50.094687 
" style="fill: none; stroke: #ff7f0e; stroke-width: 1.5; stroke-linecap: square"/>
    </g>
    <g id="text_18">
     <!-- kubevirt cpu -->
     <g transform="translate(462.11975 53.594687) scale(0.1 -0.1)">
      <use xlink:href="#DejaVuSans-6b"/>
      <use xlink:href="#DejaVuSans-75" x="54.785156"/>
      <use xlink:href="#DejaVuSans-62" x="118.164062"/>
      <use xlink:href="#DejaVuSans-65" x="181.640625"/>
      <use xlink:href="#DejaVuSans-76" x="243.164062"/>
      <use xlink:href="#DejaVuSans-69" x="302.34375"/>
      <use xlink:href="#DejaVuSans-72" x="330.126953"/>
      <use xlink:href="#DejaVuSans-74" x="371.240234"/>
      <use xlink:href="#DejaVuSans-20" x="410.449219"/>
      <use xlink:href="#DejaVuSans-63" x="442.236328"/>
      <use xlink:href="#DejaVuSans-70" x="497.216797"/>
      <use xlink:href="#DejaVuSans-75" x="560.693359"/>
     </g>
    </g>
    <g id="line2d_40">
     <path d="M 434.11975 64.772812 
L 444.11975 64.772812 
L 454.11975 64.772812 
" style="fill: none; stroke: #2ca02c; stroke-width: 1.5; stroke-linecap: square"/>
    </g>
    <g id="text_19">
     <!-- kubevirt cpu -->
     <g transform="translate(462.11975 68.272812) scale(0.1 -0.1)">
      <use xlink:href="#DejaVuSans-6b"/>
      <use xlink:href="#DejaVuSans-75" x="54.785156"/>
      <use xlink:href="#DejaVuSans-62" x="118.164062"/>
      <use xlink:href="#DejaVuSans-65" x="181.640625"/>
      <use xlink:href="#DejaVuSans-76" x="243.164062"/>
      <use xlink:href="#DejaVuSans-69" x="302.34375"/>
      <use xlink:href="#DejaVuSans-72" x="330.126953"/>
      <use xlink:href="#DejaVuSans-74" x="371.240234"/>
      <use xlink:href="#DejaVuSans-20" x="410.449219"/>
      <use xlink:href="#DejaVuSans-63" x="442.236328"/>
      <use xlink:href="#DejaVuSans-70" x="497.216797"/>
      <use xlink:href="#DejaVuSans-75" x="560.693359"/>
     </g>
    </g>
    <g id="line2d_41">
     <path d="M 434.11975 79.450937 
L 444.11975 79.450937 
L 454.11975 79.450937 
" style="fill: none; stroke: #d62728; stroke-width: 1.5; stroke-linecap: square"/>
    </g>
    <g id="text_20">
     <!-- kubevirt cpu -->
     <g transform="translate(462.11975 82.950937) scale(0.1 -0.1)">
      <use xlink:href="#DejaVuSans-6b"/>
      <use xlink:href="#DejaVuSans-75" x="54.785156"/>
      <use xlink:href="#DejaVuSans-62" x="118.164062"/>
      <use xlink:href="#DejaVuSans-65" x="181.640625"/>
      <use xlink:href="#DejaVuSans-76" x="243.164062"/>
      <use xlink:href="#DejaVuSans-69" x="302.34375"/>
      <use xlink:href="#DejaVuSans-72" x="330.126953"/>
      <use xlink:href="#DejaVuSans-74" x="371.240234"/>
      <use xlink:href="#DejaVuSans-20" x="410.449219"/>
      <use xlink:href="#DejaVuSans-63" x="442.236328"/>
      <use xlink:href="#DejaVuSans-70" x="497.216797"/>
      <use xlink:href="#DejaVuSans-75" x="560.693359"/>
     </g>
    </g>
    <g id="line2d_42">
     <path d="M 434.11975 94.129062 
L 444.11975 94.129062 
L 454.11975 94.129062 
" style="fill: none; stroke: #9467bd; stroke-width: 1.5; stroke-linecap: square"/>
    </g>
    <g id="text_21">
     <!-- kubevirt cpu -->
     <g transform="translate(462.11975 97.629062) scale(0.1 -0.1)">
      <use xlink:href="#DejaVuSans-6b"/>
      <use xlink:href="#DejaVuSans-75" x="54.785156"/>
      <use xlink:href="#DejaVuSans-62" x="118.164062"/>
      <use xlink:href="#DejaVuSans-65" x="181.640625"/>
      <use xlink:href="#DejaVuSans-76" x="243.164062"/>
      <use xlink:href="#DejaVuSans-69" x="302.34375"/>
      <use xlink:href="#DejaVuSans-72" x="330.126953"/>
      <use xlink:href="#DejaVuSans-74" x="371.240234"/>
      <use xlink:href="#DejaVuSans-20" x="410.449219"/>
      <use xlink:href="#DejaVuSans-63" x="442.236328"/>
      <use xlink:href="#DejaVuSans-70" x="497.216797"/>
      <use xlink:href="#DejaVuSans-75" x="560.693359"/>
     </g>
    </g>
    <g id="line2d_43">
     <path d="M 434.11975 108.807187 
L 444.11975 108.807187 
L 454.11975 108.807187 
" style="fill: none; stroke: #8c564b; stroke-width: 1.5; stroke-linecap: square"/>
    </g>
    <g id="text_22">
     <!-- kubevirt cpu -->
     <g transform="translate(462.11975 112.307187) scale(0.1 -0.1)">
      <use xlink:href="#DejaVuSans-6b"/>
      <use xlink:href="#DejaVuSans-75" x="54.785156"/>
      <use xlink:href="#DejaVuSans-62" x="118.164062"/>
      <use xlink:href="#DejaVuSans-65" x="181.640625"/>
      <use xlink:href="#DejaVuSans-76" x="243.164062"/>
      <use xlink:href="#DejaVuSans-69" x="302.34375"/>
      <use xlink:href="#DejaVuSans-72" x="330.126953"/>
      <use xlink:href="#DejaVuSans-74" x="371.240234"/>
      <use xlink:href="#DejaVuSans-20" x="410.449219"/>
      <use xlink:href="#DejaVuSans-63" x="442.236328"/>
      <use xlink:href="#DejaVuSans-70" x="497.216797"/>
      <use xlink:href="#DejaVuSans-75" x="560.693359"/>
     </g>
    </g>
    <g id="line2d_44">
     <path d="M 434.11975 123.485312 
L 444.11975 123.485312 
L 454.11975 123.485312 
" style="fill: none; stroke: #e377c2; stroke-width: 1.5; stroke-linecap: square"/>
    </g>
    <g id="text_23">
     <!-- kubevirt cpu -->
     <g transform="translate(462.11975 126.985312) scale(0.1 -0.1)">
      <use xlink:href="#DejaVuSans-6b"/>
      <use xlink:href="#DejaVuSans-75" x="54.785156"/>
      <use xlink:href="#DejaVuSans-62" x="118.164062"/>
      <use xlink:href="#DejaVuSans-65" x="181.640625"/>
      <use xlink:href="#DejaVuSans-76" x="243.164062"/>
      <use xlink:href="#DejaVuSans-69" x="302.34375"/>
      <use xlink:href="#DejaVuSans-72" x="330.126953"/>
      <use xlink:href="#DejaVuSans-74" x="371.240234"/>
      <use xlink:href="#DejaVuSans-20" x="410.449219"/>
      <use xlink:href="#DejaVuSans-63" x="442.236328"/>
      <use xlink:href="#DejaVuSans-70" x="497.216797"/>
      <use xlink:href="#DejaVuSans-75" x="560.693359"/>
     </g>
    </g>
    <g id="line2d_45">
     <path d="M 434.11975 138.163437 
L 444.11975 138.163437 
L 454.11975 138.163437 
" style="fill: none; stroke: #7f7f7f; stroke-width: 1.5; stroke-linecap: square"/>
    </g>
    <g id="text_24">
     <!-- kubevirt cpu -->
     <g transform="translate(462.11975 141.663437) scale(0.1 -0.1)">
      <use xlink:href="#DejaVuSans-6b"/>
      <use xlink:href="#DejaVuSans-75" x="54.785156"/>
      <use xlink:href="#DejaVuSans-62" x="118.164062"/>
      <use xlink:href="#DejaVuSans-65" x="181.640625"/>
      <use xlink:href="#DejaVuSans-76" x="243.164062"/>
      <use xlink:href="#DejaVuSans-69" x="302.34375"/>
      <use xlink:href="#DejaVuSans-72" x="330.126953"/>
      <use xlink:href="#DejaVuSans-74" x="371.240234"/>
      <use xlink:href="#DejaVuSans-20" x="410.449219"/>
      <use xlink:href="#DejaVuSans-63" x="442.236328"/>
      <use xlink:href="#DejaVuSans-70" x="497.216797"/>
      <use xlink:href="#DejaVuSans-75" x="560.693359"/>
     </g>
    </g>
    <g id="line2d_46">
     <path d="M 434.11975 152.841562 
L 444.11975 152.841562 
L 454.11975 152.841562 
" style="fill: none; stroke: #bcbd22; stroke-width: 1.5; stroke-linecap: square"/>
    </g>
    <g id="text_25">
     <!-- kubevirt cpu -->
     <g transform="translate(462.11975 156.341562) scale(0.1 -0.1)">
      <use xlink:href="#DejaVuSans-6b"/>
      <use xlink:href="#DejaVuSans-75" x="54.785156"/>
      <use xlink:href="#DejaVuSans-62" x="118.164062"/>
      <use xlink:href="#DejaVuSans-65" x="181.640625"/>
      <use xlink:href="#DejaVuSans-76" x="243.164062"/>
      <use xlink:href="#DejaVuSans-69" x="302.34375"/>
      <use xlink:href="#DejaVuSans-72" x="330.126953"/>
      <use xlink:href="#DejaVuSans-74" x="371.240234"/>
      <use xlink:href="#DejaVuSans-20" x="410.449219"/>
      <use xlink:href="#DejaVuSans-63" x="442.236328"/>
      <use xlink:href="#DejaVuSans-70" x="497.216797"/>
      <use xlink:href="#DejaVuSans-75" x="560.693359"/>
     </g>
    </g>
    <g id="line2d_47">
     <path d="M 434.11975 167.519687 
L 444.11975 167.519687 
L 454.11975 167.519687 
" style="fill: none; stroke: #17becf; stroke-width: 1.5; stroke-linecap: square"/>
    </g>
    <g id="text_26">
     <!-- kubevirt cpu -->
     <g transform="translate(462.11975 171.019687) scale(0.1 -0.1)">
      <use xlink:href="#DejaVuSans-6b"/>
      <use xlink:href="#DejaVuSans-75" x="54.785156"/>
      <use xlink:href="#DejaVuSans-62" x="118.164062"/>
      <use xlink:href="#DejaVuSans-65" x="181.640625"/>
      <use xlink:href="#DejaVuSans-76" x="243.164062"/>
      <use xlink:href="#DejaVuSans-69" x="302.34375"/>
      <use xlink:href="#DejaVuSans-72" x="330.126953"/>
      <use xlink:href="#DejaVuSans-74" x="371.240234"/>
      <use xlink:href="#DejaVuSans-20" x="410.449219"/>
      <use xlink:href="#DejaVuSans-63" x="442.236328"/>
      <use xlink:href="#DejaVuSans-70" x="497.216797"/>
      <use xlink:href="#DejaVuSans-75" x="560.693359"/>
     </g>
    </g>
    <g id="line2d_48">
     <path d="M 434.11975 182.197812 
L 444.11975 182.197812 
L 454.11975 182.197812 
" style="fill: none; stroke-dasharray: 5.55,2.4; stroke-dashoffset: 0; stroke: #1f77b4; stroke-width: 1.5"/>
    </g>
    <g id="text_27">
     <!-- kubevirt finished -->
     <g transform="translate(462.11975 185.697812) scale(0.1 -0.1)">
      <defs>
       <path id="DejaVuSans-66" d="M 2375 4863 
L 2375 4384 
L 1825 4384 
Q 1516 4384 1395 4259 
Q 1275 4134 1275 3809 
L 1275 3500 
L 2222 3500 
L 2222 3053 
L 1275 3053 
L 1275 0 
L 697 0 
L 697 3053 
L 147 3053 
L 147 3500 
L 697 3500 
L 697 3744 
Q 697 4328 969 4595 
Q 1241 4863 1831 4863 
L 2375 4863 
z
" transform="scale(0.015625)"/>
       <path id="DejaVuSans-68" d="M 3513 2113 
L 3513 0 
L 2938 0 
L 2938 2094 
Q 2938 2591 2744 2837 
Q 2550 3084 2163 3084 
Q 1697 3084 1428 2787 
Q 1159 2491 1159 1978 
L 1159 0 
L 581 0 
L 581 4863 
L 1159 4863 
L 1159 2956 
Q 1366 3272 1645 3428 
Q 1925 3584 2291 3584 
Q 2894 3584 3203 3211 
Q 3513 2838 3513 2113 
z
" transform="scale(0.015625)"/>
       <path id="DejaVuSans-64" d="M 2906 2969 
L 2906 4863 
L 3481 4863 
L 3481 0 
L 2906 0 
L 2906 525 
Q 2725 213 2448 61 
Q 2172 -91 1784 -91 
Q 1150 -91 751 415 
Q 353 922 353 1747 
Q 353 2572 751 3078 
Q 1150 3584 1784 3584 
Q 2172 3584 2448 3432 
Q 2725 3281 2906 2969 
z
M 947 1747 
Q 947 1113 1208 752 
Q 1469 391 1925 391 
Q 2381 391 2643 752 
Q 2906 1113 2906 1747 
Q 2906 2381 2643 2742 
Q 2381 3103 1925 3103 
Q 1469 3103 1208 2742 
Q 947 2381 947 1747 
z
" transform="scale(0.015625)"/>
      </defs>
      <use xlink:href="#DejaVuSans-6b"/>
      <use xlink:href="#DejaVuSans-75" x="54.785156"/>
      <use xlink:href="#DejaVuSans-62" x="118.164062"/>
      <use xlink:href="#DejaVuSans-65" x="181.640625"/>
      <use xlink:href="#DejaVuSans-76" x="243.164062"/>
      <use xlink:href="#DejaVuSans-69" x="302.34375"/>
      <use xlink:href="#DejaVuSans-72" x="330.126953"/>
      <use xlink:href="#DejaVuSans-74" x="371.240234"/>
      <use xlink:href="#DejaVuSans-20" x="410.449219"/>
      <use xlink:href="#DejaVuSans-66" x="442.236328"/>
      <use xlink:href="#DejaVuSans-69" x="477.441406"/>
      <use xlink:href="#DejaVuSans-6e" x="505.224609"/>
      <use xlink:href="#DejaVuSans-69" x="568.603516"/>
      <use xlink:href="#DejaVuSans-73" x="596.386719"/>
      <use xlink:href="#DejaVuSans-68" x="648.486328"/>
      <use xlink:href="#DejaVuSans-65" x="711.865234"/>
      <use xlink:href="#DejaVuSans-64" x="773.388672"/>
     </g>
    </g>
    <g id="line2d_49">
     <path d="M 434.11975 196.875937 
L 444.11975 196.875937 
L 454.11975 196.875937 
" style="fill: none; stroke-dasharray: 5.55,2.4; stroke-dashoffset: 0; stroke: #ff7f0e; stroke-width: 1.5"/>
    </g>
    <g id="text_28">
     <!-- kubevirt scaled-up -->
     <g transform="translate(462.11975 200.375937) scale(0.1 -0.1)">
      <use xlink:href="#DejaVuSans-6b"/>
      <use xlink:href="#DejaVuSans-75" x="54.785156"/>
      <use xlink:href="#DejaVuSans-62" x="118.164062"/>
      <use xlink:href="#DejaVuSans-65" x="181.640625"/>
      <use xlink:href="#DejaVuSans-76" x="243.164062"/>
      <use xlink:href="#DejaVuSans-69" x="302.34375"/>
      <use xlink:href="#DejaVuSans-72" x="330.126953"/>
      <use xlink:href="#DejaVuSans-74" x="371.240234"/>
      <use xlink:href="#DejaVuSans-20" x="410.449219"/>
      <use xlink:href="#DejaVuSans-73" x="442.236328"/>
      <use xlink:href="#DejaVuSans-63" x="494.335938"/>
      <use xlink:href="#DejaVuSans-61" x="549.316406"/>
      <use xlink:href="#DejaVuSans-6c" x="610.595703"/>
      <use xlink:href="#DejaVuSans-65" x="638.378906"/>
      <use xlink:href="#DejaVuSans-64" x="699.902344"/>
      <use xlink:href="#DejaVuSans-2d" x="763.378906"/>
      <use xlink:href="#DejaVuSans-75" x="799.462891"/>
      <use xlink:href="#DejaVuSans-70" x="862.841797"/>
     </g>
    </g>
    <g id="line2d_50">
     <path d="M 434.11975 211.554062 
L 444.11975 211.554062 
L 454.11975 211.554062 
" style="fill: none; stroke: #2ca02c; stroke-width: 1.5; stroke-linecap: square"/>
    </g>
    <g id="text_29">
     <!-- opennebula cpu -->
     <g transform="translate(462.11975 215.054062) scale(0.1 -0.1)">
      <use xlink:href="#DejaVuSans-6f"/>
      <use xlink:href="#DejaVuSans-70" x="61.181641"/>
      <use xlink:href="#DejaVuSans-65" x="124.658203"/>
      <use xlink:href="#DejaVuSans-6e" x="186.181641"/>
      <use xlink:href="#DejaVuSans-6e" x="249.560547"/>
      <use xlink:href="#DejaVuSans-65" x="312.939453"/>
      <use xlink:href="#DejaVuSans-62" x="374.462891"/>
      <use xlink:href="#DejaVuSans-75" x="437.939453"/>
      <use xlink:href="#DejaVuSans-6c" x="501.318359"/>
      <use xlink:href="#DejaVuSans-61" x="529.101562"/>
      <use xlink:href="#DejaVuSans-20" x="590.380859"/>
      <use xlink:href="#DejaVuSans-63" x="622.167969"/>
      <use xlink:href="#DejaVuSans-70" x="677.148438"/>
      <use xlink:href="#DejaVuSans-75" x="740.625"/>
     </g>
    </g>
    <g id="line2d_51">
     <path d="M 434.11975 226.232187 
L 444.11975 226.232187 
L 454.11975 226.232187 
" style="fill: none; stroke: #d62728; stroke-width: 1.5; stroke-linecap: square"/>
    </g>
    <g id="text_30">
     <!-- opennebula cpu -->
     <g transform="translate(462.11975 229.732187) scale(0.1 -0.1)">
      <use xlink:href="#DejaVuSans-6f"/>
      <use xlink:href="#DejaVuSans-70" x="61.181641"/>
      <use xlink:href="#DejaVuSans-65" x="124.658203"/>
      <use xlink:href="#DejaVuSans-6e" x="186.181641"/>
      <use xlink:href="#DejaVuSans-6e" x="249.560547"/>
      <use xlink:href="#DejaVuSans-65" x="312.939453"/>
      <use xlink:href="#DejaVuSans-62" x="374.462891"/>
      <use xlink:href="#DejaVuSans-75" x="437.939453"/>
      <use xlink:href="#DejaVuSans-6c" x="501.318359"/>
      <use xlink:href="#DejaVuSans-61" x="529.101562"/>
      <use xlink:href="#DejaVuSans-20" x="590.380859"/>
      <use xlink:href="#DejaVuSans-63" x="622.167969"/>
      <use xlink:href="#DejaVuSans-70" x="677.148438"/>
      <use xlink:href="#DejaVuSans-75" x="740.625"/>
     </g>
    </g>
    <g id="line2d_52">
     <path d="M 434.11975 240.910312 
L 444.11975 240.910312 
L 454.11975 240.910312 
" style="fill: none; stroke: #9467bd; stroke-width: 1.5; stroke-linecap: square"/>
    </g>
    <g id="text_31">
     <!-- opennebula cpu -->
     <g transform="translate(462.11975 244.410312) scale(0.1 -0.1)">
      <use xlink:href="#DejaVuSans-6f"/>
      <use xlink:href="#DejaVuSans-70" x="61.181641"/>
      <use xlink:href="#DejaVuSans-65" x="124.658203"/>
      <use xlink:href="#DejaVuSans-6e" x="186.181641"/>
      <use xlink:href="#DejaVuSans-6e" x="249.560547"/>
      <use xlink:href="#DejaVuSans-65" x="312.939453"/>
      <use xlink:href="#DejaVuSans-62" x="374.462891"/>
      <use xlink:href="#DejaVuSans-75" x="437.939453"/>
      <use xlink:href="#DejaVuSans-6c" x="501.318359"/>
      <use xlink:href="#DejaVuSans-61" x="529.101562"/>
      <use xlink:href="#DejaVuSans-20" x="590.380859"/>
      <use xlink:href="#DejaVuSans-63" x="622.167969"/>
      <use xlink:href="#DejaVuSans-70" x="677.148438"/>
      <use xlink:href="#DejaVuSans-75" x="740.625"/>
     </g>
    </g>
    <g id="line2d_53">
     <path d="M 434.11975 255.588437 
L 444.11975 255.588437 
L 454.11975 255.588437 
" style="fill: none; stroke: #8c564b; stroke-width: 1.5; stroke-linecap: square"/>
    </g>
    <g id="text_32">
     <!-- opennebula cpu -->
     <g transform="translate(462.11975 259.088437) scale(0.1 -0.1)">
      <use xlink:href="#DejaVuSans-6f"/>
      <use xlink:href="#DejaVuSans-70" x="61.181641"/>
      <use xlink:href="#DejaVuSans-65" x="124.658203"/>
      <use xlink:href="#DejaVuSans-6e" x="186.181641"/>
      <use xlink:href="#DejaVuSans-6e" x="249.560547"/>
      <use xlink:href="#DejaVuSans-65" x="312.939453"/>
      <use xlink:href="#DejaVuSans-62" x="374.462891"/>
      <use xlink:href="#DejaVuSans-75" x="437.939453"/>
      <use xlink:href="#DejaVuSans-6c" x="501.318359"/>
      <use xlink:href="#DejaVuSans-61" x="529.101562"/>
      <use xlink:href="#DejaVuSans-20" x="590.380859"/>
      <use xlink:href="#DejaVuSans-63" x="622.167969"/>
      <use xlink:href="#DejaVuSans-70" x="677.148438"/>
      <use xlink:href="#DejaVuSans-75" x="740.625"/>
     </g>
    </g>
    <g id="line2d_54">
     <path d="M 434.11975 270.266562 
L 444.11975 270.266562 
L 454.11975 270.266562 
" style="fill: none; stroke: #e377c2; stroke-width: 1.5; stroke-linecap: square"/>
    </g>
    <g id="text_33">
     <!-- opennebula cpu -->
     <g transform="translate(462.11975 273.766562) scale(0.1 -0.1)">
      <use xlink:href="#DejaVuSans-6f"/>
      <use xlink:href="#DejaVuSans-70" x="61.181641"/>
      <use xlink:href="#DejaVuSans-65" x="124.658203"/>
      <use xlink:href="#DejaVuSans-6e" x="186.181641"/>
      <use xlink:href="#DejaVuSans-6e" x="249.560547"/>
      <use xlink:href="#DejaVuSans-65" x="312.939453"/>
      <use xlink:href="#DejaVuSans-62" x="374.462891"/>
      <use xlink:href="#DejaVuSans-75" x="437.939453"/>
      <use xlink:href="#DejaVuSans-6c" x="501.318359"/>
      <use xlink:href="#DejaVuSans-61" x="529.101562"/>
      <use xlink:href="#DejaVuSans-20" x="590.380859"/>
      <use xlink:href="#DejaVuSans-63" x="622.167969"/>
      <use xlink:href="#DejaVuSans-70" x="677.148438"/>
      <use xlink:href="#DejaVuSans-75" x="740.625"/>
     </g>
    </g>
    <g id="line2d_55">
     <path d="M 434.11975 284.944687 
L 444.11975 284.944687 
L 454.11975 284.944687 
" style="fill: none; stroke: #7f7f7f; stroke-width: 1.5; stroke-linecap: square"/>
    </g>
    <g id="text_34">
     <!-- opennebula cpu -->
     <g transform="translate(462.11975 288.444687) scale(0.1 -0.1)">
      <use xlink:href="#DejaVuSans-6f"/>
      <use xlink:href="#DejaVuSans-70" x="61.181641"/>
      <use xlink:href="#DejaVuSans-65" x="124.658203"/>
      <use xlink:href="#DejaVuSans-6e" x="186.181641"/>
      <use xlink:href="#DejaVuSans-6e" x="249.560547"/>
      <use xlink:href="#DejaVuSans-65" x="312.939453"/>
      <use xlink:href="#DejaVuSans-62" x="374.462891"/>
      <use xlink:href="#DejaVuSans-75" x="437.939453"/>
      <use xlink:href="#DejaVuSans-6c" x="501.318359"/>
      <use xlink:href="#DejaVuSans-61" x="529.101562"/>
      <use xlink:href="#DejaVuSans-20" x="590.380859"/>
      <use xlink:href="#DejaVuSans-63" x="622.167969"/>
      <use xlink:href="#DejaVuSans-70" x="677.148438"/>
      <use xlink:href="#DejaVuSans-75" x="740.625"/>
     </g>
    </g>
    <g id="line2d_56">
     <path d="M 434.11975 299.622812 
L 444.11975 299.622812 
L 454.11975 299.622812 
" style="fill: none; stroke: #bcbd22; stroke-width: 1.5; stroke-linecap: square"/>
    </g>
    <g id="text_35">
     <!-- opennebula cpu -->
     <g transform="translate(462.11975 303.122812) scale(0.1 -0.1)">
      <use xlink:href="#DejaVuSans-6f"/>
      <use xlink:href="#DejaVuSans-70" x="61.181641"/>
      <use xlink:href="#DejaVuSans-65" x="124.658203"/>
      <use xlink:href="#DejaVuSans-6e" x="186.181641"/>
      <use xlink:href="#DejaVuSans-6e" x="249.560547"/>
      <use xlink:href="#DejaVuSans-65" x="312.939453"/>
      <use xlink:href="#DejaVuSans-62" x="374.462891"/>
      <use xlink:href="#DejaVuSans-75" x="437.939453"/>
      <use xlink:href="#DejaVuSans-6c" x="501.318359"/>
      <use xlink:href="#DejaVuSans-61" x="529.101562"/>
      <use xlink:href="#DejaVuSans-20" x="590.380859"/>
      <use xlink:href="#DejaVuSans-63" x="622.167969"/>
      <use xlink:href="#DejaVuSans-70" x="677.148438"/>
      <use xlink:href="#DejaVuSans-75" x="740.625"/>
     </g>
    </g>
    <g id="line2d_57">
     <path d="M 434.11975 314.300937 
L 444.11975 314.300937 
L 454.11975 314.300937 
" style="fill: none; stroke: #17becf; stroke-width: 1.5; stroke-linecap: square"/>
    </g>
    <g id="text_36">
     <!-- opennebula cpu -->
     <g transform="translate(462.11975 317.800937) scale(0.1 -0.1)">
      <use xlink:href="#DejaVuSans-6f"/>
      <use xlink:href="#DejaVuSans-70" x="61.181641"/>
      <use xlink:href="#DejaVuSans-65" x="124.658203"/>
      <use xlink:href="#DejaVuSans-6e" x="186.181641"/>
      <use xlink:href="#DejaVuSans-6e" x="249.560547"/>
      <use xlink:href="#DejaVuSans-65" x="312.939453"/>
      <use xlink:href="#DejaVuSans-62" x="374.462891"/>
      <use xlink:href="#DejaVuSans-75" x="437.939453"/>
      <use xlink:href="#DejaVuSans-6c" x="501.318359"/>
      <use xlink:href="#DejaVuSans-61" x="529.101562"/>
      <use xlink:href="#DejaVuSans-20" x="590.380859"/>
      <use xlink:href="#DejaVuSans-63" x="622.167969"/>
      <use xlink:href="#DejaVuSans-70" x="677.148438"/>
      <use xlink:href="#DejaVuSans-75" x="740.625"/>
     </g>
    </g>
    <g id="line2d_58">
     <path d="M 434.11975 328.979062 
L 444.11975 328.979062 
L 454.11975 328.979062 
" style="fill: none; stroke: #1f77b4; stroke-width: 1.5; stroke-linecap: square"/>
    </g>
    <g id="text_37">
     <!-- opennebula cpu -->
     <g transform="translate(462.11975 332.479062) scale(0.1 -0.1)">
      <use xlink:href="#DejaVuSans-6f"/>
      <use xlink:href="#DejaVuSans-70" x="61.181641"/>
      <use xlink:href="#DejaVuSans-65" x="124.658203"/>
      <use xlink:href="#DejaVuSans-6e" x="186.181641"/>
      <use xlink:href="#DejaVuSans-6e" x="249.560547"/>
      <use xlink:href="#DejaVuSans-65" x="312.939453"/>
      <use xlink:href="#DejaVuSans-62" x="374.462891"/>
      <use xlink:href="#DejaVuSans-75" x="437.939453"/>
      <use xlink:href="#DejaVuSans-6c" x="501.318359"/>
      <use xlink:href="#DejaVuSans-61" x="529.101562"/>
      <use xlink:href="#DejaVuSans-20" x="590.380859"/>
      <use xlink:href="#DejaVuSans-63" x="622.167969"/>
      <use xlink:href="#DejaVuSans-70" x="677.148438"/>
      <use xlink:href="#DejaVuSans-75" x="740.625"/>
     </g>
    </g>
    <g id="line2d_59">
     <path d="M 434.11975 343.657187 
L 444.11975 343.657187 
L 454.11975 343.657187 
" style="fill: none; stroke: #ff7f0e; stroke-width: 1.5; stroke-linecap: square"/>
    </g>
    <g id="text_38">
     <!-- opennebula cpu -->
     <g transform="translate(462.11975 347.157187) scale(0.1 -0.1)">
      <use xlink:href="#DejaVuSans-6f"/>
      <use xlink:href="#DejaVuSans-70" x="61.181641"/>
      <use xlink:href="#DejaVuSans-65" x="124.658203"/>
      <use xlink:href="#DejaVuSans-6e" x="186.181641"/>
      <use xlink:href="#DejaVuSans-6e" x="249.560547"/>
      <use xlink:href="#DejaVuSans-65" x="312.939453"/>
      <use xlink:href="#DejaVuSans-62" x="374.462891"/>
      <use xlink:href="#DejaVuSans-75" x="437.939453"/>
      <use xlink:href="#DejaVuSans-6c" x="501.318359"/>
      <use xlink:href="#DejaVuSans-61" x="529.101562"/>
      <use xlink:href="#DejaVuSans-20" x="590.380859"/>
      <use xlink:href="#DejaVuSans-63" x="622.167969"/>
      <use xlink:href="#DejaVuSans-70" x="677.148438"/>
      <use xlink:href="#DejaVuSans-75" x="740.625"/>
     </g>
    </g>
    <g id="line2d_60">
     <path d="M 434.11975 358.335312 
L 444.11975 358.335312 
L 454.11975 358.335312 
" style="fill: none; stroke-dasharray: 5.55,2.4; stroke-dashoffset: 0; stroke: #2ca02c; stroke-width: 1.5"/>
    </g>
    <g id="text_39">
     <!-- opennebula finished -->
     <g transform="translate(462.11975 361.835312) scale(0.1 -0.1)">
      <use xlink:href="#DejaVuSans-6f"/>
      <use xlink:href="#DejaVuSans-70" x="61.181641"/>
      <use xlink:href="#DejaVuSans-65" x="124.658203"/>
      <use xlink:href="#DejaVuSans-6e" x="186.181641"/>
      <use xlink:href="#DejaVuSans-6e" x="249.560547"/>
      <use xlink:href="#DejaVuSans-65" x="312.939453"/>
      <use xlink:href="#DejaVuSans-62" x="374.462891"/>
      <use xlink:href="#DejaVuSans-75" x="437.939453"/>
      <use xlink:href="#DejaVuSans-6c" x="501.318359"/>
      <use xlink:href="#DejaVuSans-61" x="529.101562"/>
      <use xlink:href="#DejaVuSans-20" x="590.380859"/>
      <use xlink:href="#DejaVuSans-66" x="622.167969"/>
      <use xlink:href="#DejaVuSans-69" x="657.373047"/>
      <use xlink:href="#DejaVuSans-6e" x="685.15625"/>
      <use xlink:href="#DejaVuSans-69" x="748.535156"/>
      <use xlink:href="#DejaVuSans-73" x="776.318359"/>
      <use xlink:href="#DejaVuSans-68" x="828.417969"/>
      <use xlink:href="#DejaVuSans-65" x="891.796875"/>
      <use xlink:href="#DejaVuSans-64" x="953.320312"/>
     </g>
    </g>
    <g id="line2d_61">
     <path d="M 434.11975 373.013438 
L 444.11975 373.013438 
L 454.11975 373.013438 
" style="fill: none; stroke-dasharray: 5.55,2.4; stroke-dashoffset: 0; stroke: #d62728; stroke-width: 1.5"/>
    </g>
    <g id="text_40">
     <!-- opennebula scaled-up -->
     <g transform="translate(462.11975 376.513438) scale(0.1 -0.1)">
      <use xlink:href="#DejaVuSans-6f"/>
      <use xlink:href="#DejaVuSans-70" x="61.181641"/>
      <use xlink:href="#DejaVuSans-65" x="124.658203"/>
      <use xlink:href="#DejaVuSans-6e" x="186.181641"/>
      <use xlink:href="#DejaVuSans-6e" x="249.560547"/>
      <use xlink:href="#DejaVuSans-65" x="312.939453"/>
      <use xlink:href="#DejaVuSans-62" x="374.462891"/>
      <use xlink:href="#DejaVuSans-75" x="437.939453"/>
      <use xlink:href="#DejaVuSans-6c" x="501.318359"/>
      <use xlink:href="#DejaVuSans-61" x="529.101562"/>
      <use xlink:href="#DejaVuSans-20" x="590.380859"/>
      <use xlink:href="#DejaVuSans-73" x="622.167969"/>
      <use xlink:href="#DejaVuSans-63" x="674.267578"/>
      <use xlink:href="#DejaVuSans-61" x="729.248047"/>
      <use xlink:href="#DejaVuSans-6c" x="790.527344"/>
      <use xlink:href="#DejaVuSans-65" x="818.310547"/>
      <use xlink:href="#DejaVuSans-64" x="879.833984"/>
      <use xlink:href="#DejaVuSans-2d" x="943.310547"/>
      <use xlink:href="#DejaVuSans-75" x="979.394531"/>
      <use xlink:href="#DejaVuSans-70" x="1042.773438"/>
     </g>
    </g>
   </g>
  </g>
 </g>
 <defs>
  <clipPath id="p076705ea44">
   <rect x="50.14375" y="22.318125" width="357.12" height="266.112"/>
  </clipPath>
 </defs>
</svg>
