<?xml version="1.0" encoding="utf-8" standalone="no"?>
<!DOCTYPE svg PUBLIC "-//W3C//DTD SVG 1.1//EN"
  "http://www.w3.org/Graphics/SVG/1.1/DTD/svg11.dtd">
<svg xmlns:xlink="http://www.w3.org/1999/xlink" width="577.585375pt" height="325.986375pt" viewBox="0 0 577.585375 325.986375" xmlns="http://www.w3.org/2000/svg" version="1.1">
 <metadata>
  <rdf:RDF xmlns:dc="http://purl.org/dc/elements/1.1/" xmlns:cc="http://creativecommons.org/ns#" xmlns:rdf="http://www.w3.org/1999/02/22-rdf-syntax-ns#">
   <cc:Work>
    <dc:type rdf:resource="http://purl.org/dc/dcmitype/StillImage"/>
    <dc:date>2024-04-09T22:42:06.454852</dc:date>
    <dc:format>image/svg+xml</dc:format>
    <dc:creator>
     <cc:Agent>
      <dc:title>Matplotlib v3.8.4, https://matplotlib.org/</dc:title>
     </cc:Agent>
    </dc:creator>
   </cc:Work>
  </rdf:RDF>
 </metadata>
 <defs>
  <style type="text/css">*{stroke-linejoin: round; stroke-linecap: butt}</style>
 </defs>
 <g id="figure_1">
  <g id="patch_1">
   <path d="M 0 325.986375 
L 577.585375 325.986375 
L 577.585375 0 
L 0 0 
z
" style="fill: #ffffff"/>
  </g>
  <g id="axes_1">
   <g id="patch_2">
    <path d="M 43.78125 288.430125 
L 400.90125 288.430125 
L 400.90125 22.318125 
L 43.78125 22.318125 
z
" style="fill: #ffffff"/>
   </g>
   <g id="PolyCollection_1">
    <path d="M 60.013977 280.065273 
L 60.013977 288.430125 
L 65.508268 288.430125 
L 66.594601 288.430125 
L 72.088892 288.430125 
L 73.175225 288.430125 
L 78.669516 288.430125 
L 79.755849 288.430125 
L 85.25014 288.430125 
L 89.626784 288.430125 
L 95.121076 288.430125 
L 96.207408 288.430125 
L 101.701699 288.430125 
L 102.788032 288.430125 
L 108.282323 288.430125 
L 109.368656 288.430125 
L 114.862947 288.430125 
L 115.94928 288.430125 
L 121.443571 288.430125 
L 122.529903 288.430125 
L 128.024195 288.430125 
L 129.110527 288.430125 
L 134.604818 288.430125 
L 135.691151 288.430125 
L 141.185442 288.430125 
L 142.271775 288.430125 
L 147.766066 288.430125 
L 152.14271 288.430125 
L 157.637002 288.430125 
L 158.723334 288.430125 
L 164.217625 288.430125 
L 165.303958 288.430125 
L 170.798249 288.430125 
L 171.884582 288.430125 
L 177.378873 288.430125 
L 178.465206 288.430125 
L 183.959497 288.430125 
L 185.045829 288.430125 
L 190.540121 288.430125 
L 191.626453 288.430125 
L 197.120744 288.430125 
L 198.207077 288.430125 
L 203.701368 288.430125 
L 204.787701 288.430125 
L 210.281992 288.430125 
L 214.658637 288.430125 
L 220.152928 288.430125 
L 221.23926 288.430125 
L 226.733552 288.430125 
L 227.819884 288.430125 
L 233.314175 288.430125 
L 234.400508 288.430125 
L 239.894799 288.430125 
L 240.981132 288.430125 
L 246.475423 288.430125 
L 247.561756 288.430125 
L 253.056047 288.430125 
L 254.142379 288.430125 
L 259.636671 288.430125 
L 260.723003 288.430125 
L 266.217294 288.430125 
L 267.303627 288.430125 
L 272.797918 288.430125 
L 277.174563 288.430125 
L 282.668854 288.430125 
L 283.755186 288.430125 
L 289.249478 288.430125 
L 290.33581 288.430125 
L 295.830101 288.430125 
L 296.916434 288.430125 
L 302.410725 288.430125 
L 303.497058 288.430125 
L 308.991349 288.430125 
L 310.077682 288.430125 
L 315.571973 288.430125 
L 316.658305 288.430125 
L 322.152597 288.430125 
L 323.238929 288.430125 
L 328.73322 288.430125 
L 329.819553 288.430125 
L 338.604156 288.430125 
L 339.690489 288.430125 
L 345.18478 288.430125 
L 346.271113 288.430125 
L 351.765404 288.430125 
L 352.851736 288.430125 
L 358.346028 288.430125 
L 359.43236 288.430125 
L 364.926651 288.430125 
L 366.012984 288.430125 
L 371.507275 288.430125 
L 372.593608 288.430125 
L 378.087899 288.430125 
L 379.174232 288.430125 
L 384.668523 288.430125 
L 384.668523 274.652523 
L 384.668523 274.652523 
L 379.174232 274.651847 
L 378.087899 278.246151 
L 372.593608 277.553249 
L 371.507275 277.303128 
L 366.012984 276.546006 
L 364.926651 276.79545 
L 359.43236 276.454069 
L 358.346028 276.789366 
L 352.851736 276.613606 
L 351.765404 278.756533 
L 346.271113 278.763293 
L 345.18478 278.586856 
L 339.690489 279.787436 
L 338.604156 280.291058 
L 329.819553 281.040745 
L 328.73322 281.046829 
L 323.238929 281.046829 
L 322.152597 281.050885 
L 316.658305 281.134709 
L 315.571973 279.925341 
L 310.077682 279.665756 
L 308.991349 279.499459 
L 303.497058 279.079662 
L 302.410725 278.909985 
L 296.916434 279.167542 
L 295.830101 279.255423 
L 290.33581 279.091154 
L 289.249478 279.099942 
L 283.755186 279.523119 
L 282.668854 280.564839 
L 277.174563 280.650691 
L 272.797918 280.565515 
L 267.303627 280.648663 
L 266.217294 280.130169 
L 260.723003 279.716456 
L 259.636671 279.460251 
L 254.142379 279.454843 
L 253.056047 279.608296 
L 247.561756 279.533936 
L 246.475423 279.613704 
L 240.981132 279.534612 
L 239.894799 280.130845 
L 234.400508 280.209262 
L 233.314175 280.479663 
L 227.819884 280.548615 
L 226.733552 280.968412 
L 221.23926 281.39497 
L 220.152928 281.906703 
L 214.658637 281.728239 
L 210.281992 281.98512 
L 204.787701 282.146684 
L 203.701368 281.720127 
L 198.207077 281.728239 
L 197.120744 282.061508 
L 191.626453 281.819499 
L 190.540121 281.480146 
L 185.045829 281.39159 
L 183.959497 280.889996 
L 178.465206 280.810904 
L 177.378873 280.218726 
L 171.884582 280.218726 
L 170.798249 280.130169 
L 165.303958 280.293086 
L 164.217625 280.040261 
L 158.723334 279.955085 
L 157.637002 279.789464 
L 152.14271 279.364259 
L 147.766066 279.18647 
L 142.271775 279.260155 
L 141.185442 279.005978 
L 135.691151 279.17633 
L 134.604818 277.221332 
L 129.110527 275.083813 
L 128.024195 272.662373 
L 122.529903 267.678884 
L 121.443571 264.900515 
L 115.94928 264.154885 
L 114.862947 263.655319 
L 109.368656 263.499162 
L 108.282323 264.002108 
L 102.788032 264.004812 
L 101.701699 265.971303 
L 96.207408 266.585113 
L 95.121076 268.67396 
L 89.626784 273.994097 
L 85.25014 277.198348 
L 79.755849 278.119739 
L 78.669516 278.789657 
L 73.175225 278.702453 
L 72.088892 278.629445 
L 66.594601 278.377972 
L 65.508268 278.793037 
L 60.013977 280.065273 
z
" clip-path="url(#pa5d524f9b5)" style="fill: #33b07a"/>
   </g>
   <g id="PolyCollection_2">
    <path d="M 60.013977 272.131711 
L 60.013977 280.065273 
L 65.508268 278.793037 
L 66.594601 278.377972 
L 72.088892 278.629445 
L 73.175225 278.702453 
L 78.669516 278.789657 
L 79.755849 278.119739 
L 85.25014 277.198348 
L 89.626784 273.994097 
L 95.121076 268.67396 
L 96.207408 266.585113 
L 101.701699 265.971303 
L 102.788032 264.004812 
L 108.282323 264.002108 
L 109.368656 263.499162 
L 114.862947 263.655319 
L 115.94928 264.154885 
L 121.443571 264.900515 
L 122.529903 267.678884 
L 128.024195 272.662373 
L 129.110527 275.083813 
L 134.604818 277.221332 
L 135.691151 279.17633 
L 141.185442 279.005978 
L 142.271775 279.260155 
L 147.766066 279.18647 
L 152.14271 279.364259 
L 157.637002 279.789464 
L 158.723334 279.955085 
L 164.217625 280.040261 
L 165.303958 280.293086 
L 170.798249 280.130169 
L 171.884582 280.218726 
L 177.378873 280.218726 
L 178.465206 280.810904 
L 183.959497 280.889996 
L 185.045829 281.39159 
L 190.540121 281.480146 
L 191.626453 281.819499 
L 197.120744 282.061508 
L 198.207077 281.728239 
L 203.701368 281.720127 
L 204.787701 282.146684 
L 210.281992 281.98512 
L 214.658637 281.728239 
L 220.152928 281.906703 
L 221.23926 281.39497 
L 226.733552 280.968412 
L 227.819884 280.548615 
L 233.314175 280.479663 
L 234.400508 280.209262 
L 239.894799 280.130845 
L 240.981132 279.534612 
L 246.475423 279.613704 
L 247.561756 279.533936 
L 253.056047 279.608296 
L 254.142379 279.454843 
L 259.636671 279.460251 
L 260.723003 279.716456 
L 266.217294 280.130169 
L 267.303627 280.648663 
L 272.797918 280.565515 
L 277.174563 280.650691 
L 282.668854 280.564839 
L 283.755186 279.523119 
L 289.249478 279.099942 
L 290.33581 279.091154 
L 295.830101 279.255423 
L 296.916434 279.167542 
L 302.410725 278.909985 
L 303.497058 279.079662 
L 308.991349 279.499459 
L 310.077682 279.665756 
L 315.571973 279.925341 
L 316.658305 281.134709 
L 322.152597 281.050885 
L 323.238929 281.046829 
L 328.73322 281.046829 
L 329.819553 281.040745 
L 338.604156 280.291058 
L 339.690489 279.787436 
L 345.18478 278.586856 
L 346.271113 278.763293 
L 351.765404 278.756533 
L 352.851736 276.613606 
L 358.346028 276.789366 
L 359.43236 276.454069 
L 364.926651 276.79545 
L 366.012984 276.546006 
L 371.507275 277.303128 
L 372.593608 277.553249 
L 378.087899 278.246151 
L 379.174232 274.651847 
L 384.668523 274.652523 
L 384.668523 264.407709 
L 384.668523 264.407709 
L 379.174232 264.491534 
L 378.087899 271.054163 
L 372.593608 270.276761 
L 371.507275 268.200082 
L 366.012984 267.526108 
L 364.926651 268.199406 
L 359.43236 267.70322 
L 358.346028 267.857349 
L 352.851736 267.682264 
L 351.765404 269.658219 
L 346.271113 269.588591 
L 345.18478 269.829247 
L 339.690489 270.942623 
L 338.604156 273.105154 
L 329.819553 273.60472 
L 328.73322 273.188978 
L 323.238929 273.51008 
L 322.152597 273.430311 
L 316.658305 272.742141 
L 315.571973 271.109596 
L 310.077682 271.011575 
L 308.991349 270.420749 
L 303.497058 269.923888 
L 302.410725 269.590619 
L 296.916434 270.0165 
L 295.830101 269.852907 
L 290.33581 269.182313 
L 289.249478 269.613603 
L 283.755186 270.385597 
L 282.668854 271.852522 
L 277.174563 271.694338 
L 272.797918 272.290572 
L 267.303627 272.373044 
L 266.217294 271.251556 
L 260.723003 270.671546 
L 259.636671 270.584342 
L 254.142379 270.663434 
L 253.056047 270.474829 
L 247.561756 270.824999 
L 246.475423 270.489026 
L 240.981132 270.311237 
L 239.894799 270.732386 
L 234.400508 271.310368 
L 233.314175 271.663917 
L 227.819884 271.802498 
L 226.733552 272.389944 
L 221.23926 273.405975 
L 220.152928 274.257062 
L 214.658637 273.990717 
L 210.281992 274.411191 
L 204.787701 274.750544 
L 203.701368 274.415923 
L 198.207077 274.090089 
L 197.120744 274.694435 
L 191.626453 274.713364 
L 190.540121 274.290186 
L 185.045829 273.959621 
L 183.959497 273.133546 
L 178.465206 272.717805 
L 177.378873 271.946486 
L 171.884582 271.94581 
L 170.798249 271.772078 
L 165.303958 271.765318 
L 164.217625 271.585501 
L 158.723334 271.165028 
L 157.637002 271.000759 
L 152.14271 270.653294 
L 147.766066 270.379513 
L 142.271775 270.119252 
L 141.185442 270.039484 
L 135.691151 269.851555 
L 134.604818 267.138758 
L 129.110527 261.517124 
L 128.024195 253.824894 
L 122.529903 244.140486 
L 121.443571 236.137296 
L 115.94928 231.673653 
L 114.862947 230.134396 
L 109.368656 229.970803 
L 108.282323 230.392629 
L 102.788032 230.83203 
L 101.701699 233.554291 
L 96.207408 237.142511 
L 95.121076 244.930057 
L 89.626784 255.032234 
L 85.25014 263.717511 
L 79.755849 268.106118 
L 78.669516 269.574395 
L 73.175225 270.000276 
L 72.088892 269.843443 
L 66.594601 269.51085 
L 65.508268 270.094916 
L 60.013977 272.131711 
z
" clip-path="url(#pa5d524f9b5)" style="fill: #33b07a"/>
   </g>
   <g id="PolyCollection_3">
    <path d="M 60.013977 264.341461 
L 60.013977 272.131711 
L 65.508268 270.094916 
L 66.594601 269.51085 
L 72.088892 269.843443 
L 73.175225 270.000276 
L 78.669516 269.574395 
L 79.755849 268.106118 
L 85.25014 263.717511 
L 89.626784 255.032234 
L 95.121076 244.930057 
L 96.207408 237.142511 
L 101.701699 233.554291 
L 102.788032 230.83203 
L 108.282323 230.392629 
L 109.368656 229.970803 
L 114.862947 230.134396 
L 115.94928 231.673653 
L 121.443571 236.137296 
L 122.529903 244.140486 
L 128.024195 253.824894 
L 129.110527 261.517124 
L 134.604818 267.138758 
L 135.691151 269.851555 
L 141.185442 270.039484 
L 142.271775 270.119252 
L 147.766066 270.379513 
L 152.14271 270.653294 
L 157.637002 271.000759 
L 158.723334 271.165028 
L 164.217625 271.585501 
L 165.303958 271.765318 
L 170.798249 271.772078 
L 171.884582 271.94581 
L 177.378873 271.946486 
L 178.465206 272.717805 
L 183.959497 273.133546 
L 185.045829 273.959621 
L 190.540121 274.290186 
L 191.626453 274.713364 
L 197.120744 274.694435 
L 198.207077 274.090089 
L 203.701368 274.415923 
L 204.787701 274.750544 
L 210.281992 274.411191 
L 214.658637 273.990717 
L 220.152928 274.257062 
L 221.23926 273.405975 
L 226.733552 272.389944 
L 227.819884 271.802498 
L 233.314175 271.663917 
L 234.400508 271.310368 
L 239.894799 270.732386 
L 240.981132 270.311237 
L 246.475423 270.489026 
L 247.561756 270.824999 
L 253.056047 270.474829 
L 254.142379 270.663434 
L 259.636671 270.584342 
L 260.723003 270.671546 
L 266.217294 271.251556 
L 267.303627 272.373044 
L 272.797918 272.290572 
L 277.174563 271.694338 
L 282.668854 271.852522 
L 283.755186 270.385597 
L 289.249478 269.613603 
L 290.33581 269.182313 
L 295.830101 269.852907 
L 296.916434 270.0165 
L 302.410725 269.590619 
L 303.497058 269.923888 
L 308.991349 270.420749 
L 310.077682 271.011575 
L 315.571973 271.109596 
L 316.658305 272.742141 
L 322.152597 273.430311 
L 323.238929 273.51008 
L 328.73322 273.188978 
L 329.819553 273.60472 
L 338.604156 273.105154 
L 339.690489 270.942623 
L 345.18478 269.829247 
L 346.271113 269.588591 
L 351.765404 269.658219 
L 352.851736 267.682264 
L 358.346028 267.857349 
L 359.43236 267.70322 
L 364.926651 268.199406 
L 366.012984 267.526108 
L 371.507275 268.200082 
L 372.593608 270.276761 
L 378.087899 271.054163 
L 379.174232 264.491534 
L 384.668523 264.407709 
L 384.668523 251.807704 
L 384.668523 251.807704 
L 379.174232 251.897612 
L 378.087899 258.713067 
L 372.593608 258.712391 
L 371.507275 256.971685 
L 366.012984 255.869801 
L 364.926651 256.624896 
L 359.43236 255.873857 
L 358.346028 255.687956 
L 352.851736 255.681196 
L 351.765404 259.284964 
L 346.271113 259.546577 
L 345.18478 259.871734 
L 339.690489 263.488346 
L 338.604156 265.316932 
L 329.819553 266.069999 
L 328.73322 265.567053 
L 323.238929 265.80095 
L 322.152597 266.052423 
L 316.658305 264.936343 
L 315.571973 262.11471 
L 310.077682 261.674632 
L 308.991349 261.004714 
L 303.497058 260.250972 
L 302.410725 259.91297 
L 296.916434 260.25638 
L 295.830101 259.925815 
L 290.33581 259.266036 
L 289.249478 259.108528 
L 283.755186 260.223932 
L 282.668854 262.200562 
L 277.174563 262.04711 
L 272.797918 263.059085 
L 267.303627 263.572171 
L 266.217294 262.28709 
L 260.723003 261.785497 
L 259.636671 261.868645 
L 254.142379 262.022773 
L 253.056047 261.66314 
L 247.561756 262.099162 
L 246.475423 262.442571 
L 240.981132 262.099838 
L 239.894799 262.351987 
L 234.400508 262.587911 
L 233.314175 263.100997 
L 227.819884 263.242958 
L 226.733552 263.493078 
L 221.23926 264.503702 
L 220.152928 265.535957 
L 214.658637 265.262176 
L 210.281992 265.678594 
L 204.787701 266.356624 
L 203.701368 266.109883 
L 198.207077 266.123403 
L 197.120744 266.737889 
L 191.626453 266.585789 
L 190.540121 266.40462 
L 185.045829 266.166667 
L 183.959497 265.759714 
L 178.465206 265.434557 
L 177.378873 264.324561 
L 171.884582 264.490858 
L 170.798249 264.236681 
L 165.303958 263.892596 
L 164.217625 263.624223 
L 158.723334 263.714131 
L 157.637002 263.30177 
L 152.14271 262.430403 
L 147.766066 261.724656 
L 142.271775 261.375839 
L 141.185442 257.644307 
L 135.691151 257.031173 
L 134.604818 250.820064 
L 129.110527 241.073464 
L 128.024195 230.325704 
L 122.529903 216.326374 
L 121.443571 207.809422 
L 115.94928 202.181027 
L 114.862947 201.154856 
L 109.368656 200.48629 
L 108.282323 204.730908 
L 102.788032 205.173013 
L 101.701699 210.969732 
L 96.207408 217.483014 
L 95.121076 228.324062 
L 89.626784 242.826338 
L 85.25014 252.539814 
L 79.755849 258.451454 
L 78.669516 259.749378 
L 73.175225 260.768113 
L 72.088892 260.434844 
L 66.594601 260.183371 
L 65.508268 260.935762 
L 60.013977 264.341461 
z
" clip-path="url(#pa5d524f9b5)" style="fill: #33b07a"/>
   </g>
   <g id="PolyCollection_4">
    <path d="M 60.013977 256.73238 
L 60.013977 264.341461 
L 65.508268 260.935762 
L 66.594601 260.183371 
L 72.088892 260.434844 
L 73.175225 260.768113 
L 78.669516 259.749378 
L 79.755849 258.451454 
L 85.25014 252.539814 
L 89.626784 242.826338 
L 95.121076 228.324062 
L 96.207408 217.483014 
L 101.701699 210.969732 
L 102.788032 205.173013 
L 108.282323 204.730908 
L 109.368656 200.48629 
L 114.862947 201.154856 
L 115.94928 202.181027 
L 121.443571 207.809422 
L 122.529903 216.326374 
L 128.024195 230.325704 
L 129.110527 241.073464 
L 134.604818 250.820064 
L 135.691151 257.031173 
L 141.185442 257.644307 
L 142.271775 261.375839 
L 147.766066 261.724656 
L 152.14271 262.430403 
L 157.637002 263.30177 
L 158.723334 263.714131 
L 164.217625 263.624223 
L 165.303958 263.892596 
L 170.798249 264.236681 
L 171.884582 264.490858 
L 177.378873 264.324561 
L 178.465206 265.434557 
L 183.959497 265.759714 
L 185.045829 266.166667 
L 190.540121 266.40462 
L 191.626453 266.585789 
L 197.120744 266.737889 
L 198.207077 266.123403 
L 203.701368 266.109883 
L 204.787701 266.356624 
L 210.281992 265.678594 
L 214.658637 265.262176 
L 220.152928 265.535957 
L 221.23926 264.503702 
L 226.733552 263.493078 
L 227.819884 263.242958 
L 233.314175 263.100997 
L 234.400508 262.587911 
L 239.894799 262.351987 
L 240.981132 262.099838 
L 246.475423 262.442571 
L 247.561756 262.099162 
L 253.056047 261.66314 
L 254.142379 262.022773 
L 259.636671 261.868645 
L 260.723003 261.785497 
L 266.217294 262.28709 
L 267.303627 263.572171 
L 272.797918 263.059085 
L 277.174563 262.04711 
L 282.668854 262.200562 
L 283.755186 260.223932 
L 289.249478 259.108528 
L 290.33581 259.266036 
L 295.830101 259.925815 
L 296.916434 260.25638 
L 302.410725 259.91297 
L 303.497058 260.250972 
L 308.991349 261.004714 
L 310.077682 261.674632 
L 315.571973 262.11471 
L 316.658305 264.936343 
L 322.152597 266.052423 
L 323.238929 265.80095 
L 328.73322 265.567053 
L 329.819553 266.069999 
L 338.604156 265.316932 
L 339.690489 263.488346 
L 345.18478 259.871734 
L 346.271113 259.546577 
L 351.765404 259.284964 
L 352.851736 255.681196 
L 358.346028 255.687956 
L 359.43236 255.873857 
L 364.926651 256.624896 
L 366.012984 255.869801 
L 371.507275 256.971685 
L 372.593608 258.712391 
L 378.087899 258.713067 
L 379.174232 251.897612 
L 384.668523 251.807704 
L 384.668523 235.111124 
L 384.668523 235.111124 
L 379.174232 235.532274 
L 378.087899 246.365886 
L 372.593608 245.838604 
L 371.507275 244.012722 
L 366.012984 241.982687 
L 364.926651 243.00007 
L 359.43236 241.820447 
L 358.346028 242.052315 
L 352.851736 242.296352 
L 351.765404 249.621512 
L 346.271113 249.63706 
L 345.18478 250.219098 
L 339.690489 254.525909 
L 338.604156 256.610024 
L 329.819553 258.297325 
L 328.73322 257.954592 
L 323.238929 258.108721 
L 322.152597 258.276369 
L 316.658305 256.991965 
L 315.571973 252.526294 
L 310.077682 252.588486 
L 308.991349 251.656279 
L 303.497058 250.64498 
L 302.410725 250.306303 
L 296.916434 250.471923 
L 295.830101 249.877717 
L 290.33581 249.38356 
L 289.249478 249.064487 
L 283.755186 250.432039 
L 282.668854 253.968883 
L 277.174563 253.73093 
L 272.797918 255.00925 
L 267.303627 255.452032 
L 266.217294 253.916831 
L 260.723003 253.590322 
L 259.636671 253.597758 
L 254.142379 253.674146 
L 253.056047 253.479457 
L 247.561756 253.489597 
L 246.475423 254.083127 
L 240.981132 253.74107 
L 239.894799 253.907367 
L 234.400508 254.036483 
L 233.314175 254.634069 
L 227.819884 254.605001 
L 226.733552 255.200559 
L 221.23926 256.547831 
L 220.152928 257.165697 
L 214.658637 256.811472 
L 210.281992 257.058213 
L 204.787701 257.901864 
L 203.701368 257.486122 
L 198.207077 257.421902 
L 197.120744 258.122241 
L 191.626453 258.392641 
L 190.540121 258.199981 
L 185.045829 257.618619 
L 183.959497 257.451646 
L 178.465206 257.293462 
L 177.378873 256.267966 
L 171.884582 255.755557 
L 170.798249 255.585204 
L 165.303958 255.666324 
L 164.217625 255.48448 
L 158.723334 254.80983 
L 157.637002 254.139911 
L 152.14271 253.186072 
L 147.766066 252.226149 
L 142.271775 251.866516 
L 141.185442 247.878103 
L 135.691151 247.180468 
L 134.604818 240.117597 
L 129.110527 225.080603 
L 128.024195 208.298847 
L 122.529903 189.387685 
L 121.443571 180.19135 
L 115.94928 173.876813 
L 114.862947 173.104819 
L 109.368656 170.673915 
L 108.282323 174.925293 
L 102.788032 175.631715 
L 101.701699 182.358613 
L 96.207408 192.615595 
L 95.121076 209.15061 
L 89.626784 229.159601 
L 85.25014 240.149369 
L 79.755849 246.998624 
L 78.669516 248.645365 
L 73.175225 251.432522 
L 72.088892 251.272986 
L 66.594601 250.934309 
L 65.508268 251.523783 
L 60.013977 256.73238 
z
" clip-path="url(#pa5d524f9b5)" style="fill: #33b07a"/>
   </g>
   <g id="PolyCollection_5">
    <path d="M 60.013977 247.68409 
L 60.013977 256.73238 
L 65.508268 251.523783 
L 66.594601 250.934309 
L 72.088892 251.272986 
L 73.175225 251.432522 
L 78.669516 248.645365 
L 79.755849 246.998624 
L 85.25014 240.149369 
L 89.626784 229.159601 
L 95.121076 209.15061 
L 96.207408 192.615595 
L 101.701699 182.358613 
L 102.788032 175.631715 
L 108.282323 174.925293 
L 109.368656 170.673915 
L 114.862947 173.104819 
L 115.94928 173.876813 
L 121.443571 180.19135 
L 122.529903 189.387685 
L 128.024195 208.298847 
L 129.110527 225.080603 
L 134.604818 240.117597 
L 135.691151 247.180468 
L 141.185442 247.878103 
L 142.271775 251.866516 
L 147.766066 252.226149 
L 152.14271 253.186072 
L 157.637002 254.139911 
L 158.723334 254.80983 
L 164.217625 255.48448 
L 165.303958 255.666324 
L 170.798249 255.585204 
L 171.884582 255.755557 
L 177.378873 256.267966 
L 178.465206 257.293462 
L 183.959497 257.451646 
L 185.045829 257.618619 
L 190.540121 258.199981 
L 191.626453 258.392641 
L 197.120744 258.122241 
L 198.207077 257.421902 
L 203.701368 257.486122 
L 204.787701 257.901864 
L 210.281992 257.058213 
L 214.658637 256.811472 
L 220.152928 257.165697 
L 221.23926 256.547831 
L 226.733552 255.200559 
L 227.819884 254.605001 
L 233.314175 254.634069 
L 234.400508 254.036483 
L 239.894799 253.907367 
L 240.981132 253.74107 
L 246.475423 254.083127 
L 247.561756 253.489597 
L 253.056047 253.479457 
L 254.142379 253.674146 
L 259.636671 253.597758 
L 260.723003 253.590322 
L 266.217294 253.916831 
L 267.303627 255.452032 
L 272.797918 255.00925 
L 277.174563 253.73093 
L 282.668854 253.968883 
L 283.755186 250.432039 
L 289.249478 249.064487 
L 290.33581 249.38356 
L 295.830101 249.877717 
L 296.916434 250.471923 
L 302.410725 250.306303 
L 303.497058 250.64498 
L 308.991349 251.656279 
L 310.077682 252.588486 
L 315.571973 252.526294 
L 316.658305 256.991965 
L 322.152597 258.276369 
L 323.238929 258.108721 
L 328.73322 257.954592 
L 329.819553 258.297325 
L 338.604156 256.610024 
L 339.690489 254.525909 
L 345.18478 250.219098 
L 346.271113 249.63706 
L 351.765404 249.621512 
L 352.851736 242.296352 
L 358.346028 242.052315 
L 359.43236 241.820447 
L 364.926651 243.00007 
L 366.012984 241.982687 
L 371.507275 244.012722 
L 372.593608 245.838604 
L 378.087899 246.365886 
L 379.174232 235.532274 
L 384.668523 235.111124 
L 384.668523 223.967903 
L 384.668523 223.967903 
L 379.174232 223.888811 
L 378.087899 237.999682 
L 372.593608 237.395336 
L 371.507275 233.187222 
L 366.012984 230.979399 
L 364.926651 232.081282 
L 359.43236 230.905038 
L 358.346028 231.557381 
L 352.851736 231.541832 
L 351.765404 238.956225 
L 346.271113 239.38819 
L 345.18478 239.80596 
L 339.690489 244.366271 
L 338.604156 247.989643 
L 329.819553 249.598528 
L 328.73322 249.339619 
L 323.238929 249.747249 
L 322.152597 249.570812 
L 316.658305 245.925808 
L 315.571973 241.544638 
L 310.077682 241.354005 
L 308.991349 240.498186 
L 303.497058 239.570035 
L 302.410725 239.052893 
L 296.916434 238.979885 
L 295.830101 238.382975 
L 290.33581 237.716437 
L 289.249478 237.652217 
L 283.755186 241.136332 
L 282.668854 244.420351 
L 277.174563 244.433195 
L 272.797918 245.800748 
L 267.303627 245.988676 
L 266.217294 245.39785 
L 260.723003 245.389062 
L 259.636671 245.735175 
L 254.142379 245.976508 
L 253.056047 245.783848 
L 247.561756 246.373998 
L 246.475423 246.797175 
L 240.981132 246.452414 
L 239.894799 246.782303 
L 234.400508 247.162892 
L 233.314175 247.498189 
L 227.819884 247.224408 
L 226.733552 247.233196 
L 221.23926 248.336432 
L 220.152928 249.041502 
L 214.658637 248.605481 
L 210.281992 248.944834 
L 204.787701 249.706013 
L 203.701368 249.288919 
L 198.207077 248.889402 
L 197.120744 249.503212 
L 191.626453 249.605964 
L 190.540121 249.573516 
L 185.045829 249.244303 
L 183.959497 249.077331 
L 178.465206 248.581145 
L 177.378873 247.80239 
L 171.884582 246.950628 
L 170.798249 246.274625 
L 165.303958 246.522718 
L 164.217625 246.440246 
L 158.723334 246.014364 
L 157.637002 245.182206 
L 152.14271 243.716633 
L 147.766066 241.985391 
L 142.271775 241.623054 
L 141.185442 237.554872 
L 135.691151 236.510449 
L 134.604818 229.605086 
L 129.110527 212.845638 
L 128.024195 194.03182 
L 122.529903 173.186615 
L 121.443571 159.273813 
L 115.94928 152.364394 
L 114.862947 151.517363 
L 109.368656 148.23064 
L 108.282323 152.225138 
L 102.788032 153.535906 
L 101.701699 160.606213 
L 96.207408 171.040984 
L 95.121076 189.271412 
L 89.626784 211.131973 
L 85.25014 227.003829 
L 79.755849 234.961052 
L 78.669516 237.021507 
L 73.175225 240.748307 
L 72.088892 240.760475 
L 66.594601 240.417742 
L 65.508268 241.265449 
L 60.013977 247.68409 
z
" clip-path="url(#pa5d524f9b5)" style="fill: #33b07a"/>
   </g>
   <g id="PolyCollection_6">
    <path d="M 60.013977 238.959605 
L 60.013977 247.68409 
L 65.508268 241.265449 
L 66.594601 240.417742 
L 72.088892 240.760475 
L 73.175225 240.748307 
L 78.669516 237.021507 
L 79.755849 234.961052 
L 85.25014 227.003829 
L 89.626784 211.131973 
L 95.121076 189.271412 
L 96.207408 171.040984 
L 101.701699 160.606213 
L 102.788032 153.535906 
L 108.282323 152.225138 
L 109.368656 148.23064 
L 114.862947 151.517363 
L 115.94928 152.364394 
L 121.443571 159.273813 
L 122.529903 173.186615 
L 128.024195 194.03182 
L 129.110527 212.845638 
L 134.604818 229.605086 
L 135.691151 236.510449 
L 141.185442 237.554872 
L 142.271775 241.623054 
L 147.766066 241.985391 
L 152.14271 243.716633 
L 157.637002 245.182206 
L 158.723334 246.014364 
L 164.217625 246.440246 
L 165.303958 246.522718 
L 170.798249 246.274625 
L 171.884582 246.950628 
L 177.378873 247.80239 
L 178.465206 248.581145 
L 183.959497 249.077331 
L 185.045829 249.244303 
L 190.540121 249.573516 
L 191.626453 249.605964 
L 197.120744 249.503212 
L 198.207077 248.889402 
L 203.701368 249.288919 
L 204.787701 249.706013 
L 210.281992 248.944834 
L 214.658637 248.605481 
L 220.152928 249.041502 
L 221.23926 248.336432 
L 226.733552 247.233196 
L 227.819884 247.224408 
L 233.314175 247.498189 
L 234.400508 247.162892 
L 239.894799 246.782303 
L 240.981132 246.452414 
L 246.475423 246.797175 
L 247.561756 246.373998 
L 253.056047 245.783848 
L 254.142379 245.976508 
L 259.636671 245.735175 
L 260.723003 245.389062 
L 266.217294 245.39785 
L 267.303627 245.988676 
L 272.797918 245.800748 
L 277.174563 244.433195 
L 282.668854 244.420351 
L 283.755186 241.136332 
L 289.249478 237.652217 
L 290.33581 237.716437 
L 295.830101 238.382975 
L 296.916434 238.979885 
L 302.410725 239.052893 
L 303.497058 239.570035 
L 308.991349 240.498186 
L 310.077682 241.354005 
L 315.571973 241.544638 
L 316.658305 245.925808 
L 322.152597 249.570812 
L 323.238929 249.747249 
L 328.73322 249.339619 
L 329.819553 249.598528 
L 338.604156 247.989643 
L 339.690489 244.366271 
L 345.18478 239.80596 
L 346.271113 239.38819 
L 351.765404 238.956225 
L 352.851736 231.541832 
L 358.346028 231.557381 
L 359.43236 230.905038 
L 364.926651 232.081282 
L 366.012984 230.979399 
L 371.507275 233.187222 
L 372.593608 237.395336 
L 378.087899 237.999682 
L 379.174232 223.888811 
L 384.668523 223.967903 
L 384.668523 214.136803 
L 384.668523 214.136803 
L 379.174232 212.07432 
L 378.087899 227.28775 
L 372.593608 226.089874 
L 371.507275 219.905806 
L 366.012984 217.701363 
L 364.926651 218.80933 
L 359.43236 217.293733 
L 358.346028 217.946075 
L 352.851736 217.850083 
L 351.765404 225.520004 
L 346.271113 227.940769 
L 345.18478 229.204893 
L 339.690489 234.44391 
L 338.604156 240.049321 
L 329.819553 241.658206 
L 328.73322 241.395917 
L 323.238929 241.975927 
L 322.152597 242.214556 
L 316.658305 238.566848 
L 315.571973 234.100501 
L 310.077682 232.897217 
L 308.991349 231.960954 
L 303.497058 230.782682 
L 302.410725 229.639562 
L 296.916434 229.487462 
L 295.830101 228.887848 
L 290.33581 228.137485 
L 289.249478 227.566263 
L 283.755186 231.305908 
L 282.668854 234.50475 
L 277.174563 235.360569 
L 272.797918 236.893066 
L 267.303627 237.331116 
L 266.217294 237.530536 
L 260.723003 237.521072 
L 259.636671 238.040242 
L 254.142379 238.290363 
L 253.056047 238.105814 
L 247.561756 238.274139 
L 246.475423 238.439759 
L 240.981132 238.346471 
L 239.894799 238.589832 
L 234.400508 238.800745 
L 233.314175 239.300986 
L 227.819884 239.278002 
L 226.733552 239.031937 
L 221.23926 239.87356 
L 220.152928 240.91528 
L 214.658637 240.484666 
L 210.281992 240.825371 
L 204.787701 241.423633 
L 203.701368 240.675975 
L 198.207077 240.027013 
L 197.120744 240.982204 
L 191.626453 240.91528 
L 190.540121 241.470953 
L 185.045829 241.393213 
L 183.959497 241.049804 
L 178.465206 240.971388 
L 177.378873 240.269021 
L 171.884582 239.757964 
L 170.798249 239.077229 
L 165.303958 239.490943 
L 164.217625 238.983265 
L 158.723334 238.474911 
L 157.637002 237.229039 
L 152.14271 235.927735 
L 147.766066 234.453374 
L 142.271775 233.923388 
L 141.185442 229.693642 
L 135.691151 228.392338 
L 134.604818 221.395039 
L 129.110527 201.626029 
L 128.024195 181.952336 
L 122.529903 157.492547 
L 121.443571 142.297369 
L 115.94928 132.451396 
L 114.862947 128.472447 
L 109.368656 124.154821 
L 108.282323 127.035942 
L 102.788032 128.25883 
L 101.701699 135.508954 
L 96.207408 149.043195 
L 95.121076 167.874589 
L 89.626784 193.088797 
L 85.25014 210.153798 
L 79.755849 221.04825 
L 78.669516 225.902622 
L 73.175225 230.82527 
L 72.088892 231.869018 
L 66.594601 231.526284 
L 65.508268 232.626816 
L 60.013977 238.959605 
z
" clip-path="url(#pa5d524f9b5)" style="fill: #33b07a"/>
   </g>
   <g id="PolyCollection_7">
    <path d="M 60.013977 229.488814 
L 60.013977 238.959605 
L 65.508268 232.626816 
L 66.594601 231.526284 
L 72.088892 231.869018 
L 73.175225 230.82527 
L 78.669516 225.902622 
L 79.755849 221.04825 
L 85.25014 210.153798 
L 89.626784 193.088797 
L 95.121076 167.874589 
L 96.207408 149.043195 
L 101.701699 135.508954 
L 102.788032 128.25883 
L 108.282323 127.035942 
L 109.368656 124.154821 
L 114.862947 128.472447 
L 115.94928 132.451396 
L 121.443571 142.297369 
L 122.529903 157.492547 
L 128.024195 181.952336 
L 129.110527 201.626029 
L 134.604818 221.395039 
L 135.691151 228.392338 
L 141.185442 229.693642 
L 142.271775 233.923388 
L 147.766066 234.453374 
L 152.14271 235.927735 
L 157.637002 237.229039 
L 158.723334 238.474911 
L 164.217625 238.983265 
L 165.303958 239.490943 
L 170.798249 239.077229 
L 171.884582 239.757964 
L 177.378873 240.269021 
L 178.465206 240.971388 
L 183.959497 241.049804 
L 185.045829 241.393213 
L 190.540121 241.470953 
L 191.626453 240.91528 
L 197.120744 240.982204 
L 198.207077 240.027013 
L 203.701368 240.675975 
L 204.787701 241.423633 
L 210.281992 240.825371 
L 214.658637 240.484666 
L 220.152928 240.91528 
L 221.23926 239.87356 
L 226.733552 239.031937 
L 227.819884 239.278002 
L 233.314175 239.300986 
L 234.400508 238.800745 
L 239.894799 238.589832 
L 240.981132 238.346471 
L 246.475423 238.439759 
L 247.561756 238.274139 
L 253.056047 238.105814 
L 254.142379 238.290363 
L 259.636671 238.040242 
L 260.723003 237.521072 
L 266.217294 237.530536 
L 267.303627 237.331116 
L 272.797918 236.893066 
L 277.174563 235.360569 
L 282.668854 234.50475 
L 283.755186 231.305908 
L 289.249478 227.566263 
L 290.33581 228.137485 
L 295.830101 228.887848 
L 296.916434 229.487462 
L 302.410725 229.639562 
L 303.497058 230.782682 
L 308.991349 231.960954 
L 310.077682 232.897217 
L 315.571973 234.100501 
L 316.658305 238.566848 
L 322.152597 242.214556 
L 323.238929 241.975927 
L 328.73322 241.395917 
L 329.819553 241.658206 
L 338.604156 240.049321 
L 339.690489 234.44391 
L 345.18478 229.204893 
L 346.271113 227.940769 
L 351.765404 225.520004 
L 352.851736 217.850083 
L 358.346028 217.946075 
L 359.43236 217.293733 
L 364.926651 218.80933 
L 366.012984 217.701363 
L 371.507275 219.905806 
L 372.593608 226.089874 
L 378.087899 227.28775 
L 379.174232 212.07432 
L 384.668523 214.136803 
L 384.668523 200.855387 
L 384.668523 200.855387 
L 379.174232 198.443411 
L 378.087899 217.564134 
L 372.593608 216.525119 
L 371.507275 208.454328 
L 366.012984 206.0748 
L 364.926651 207.343656 
L 359.43236 205.895659 
L 358.346028 206.556114 
L 352.851736 206.708214 
L 351.765404 214.553896 
L 346.271113 217.57833 
L 345.18478 218.594362 
L 339.690489 223.083692 
L 338.604156 230.395333 
L 329.819553 231.760857 
L 328.73322 231.664865 
L 323.238929 232.597748 
L 322.152597 233.08785 
L 316.658305 228.86216 
L 315.571973 224.298468 
L 310.077682 222.674035 
L 308.991349 221.730336 
L 303.497058 221.477511 
L 302.410725 219.916622 
L 296.916434 220.00315 
L 295.830101 219.321064 
L 290.33581 218.135356 
L 289.249478 217.38905 
L 283.755186 221.964909 
L 282.668854 225.426716 
L 277.174563 226.527924 
L 272.797918 228.146273 
L 267.303627 228.24835 
L 266.217294 228.955448 
L 260.723003 228.864864 
L 259.636671 229.473266 
L 254.142379 230.231064 
L 253.056047 229.959311 
L 247.561756 229.787607 
L 246.475423 230.2047 
L 240.981132 229.352937 
L 239.894799 229.513826 
L 234.400508 229.811943 
L 233.314175 230.480509 
L 227.819884 230.108032 
L 226.733552 229.779495 
L 221.23926 230.719138 
L 220.152928 231.516144 
L 214.658637 231.086207 
L 210.281992 230.418993 
L 204.787701 232.028554 
L 203.701368 231.195719 
L 198.207077 230.181716 
L 197.120744 230.804314 
L 191.626453 231.345116 
L 190.540121 231.568873 
L 185.045829 231.157863 
L 183.959497 230.898954 
L 178.465206 230.736038 
L 177.378873 230.619765 
L 171.884582 229.862643 
L 170.798249 229.104168 
L 165.303958 230.12696 
L 164.217625 229.447578 
L 158.723334 228.774955 
L 157.637002 227.936036 
L 152.14271 227.046418 
L 147.766066 225.821501 
L 142.271775 225.289488 
L 141.185442 220.974565 
L 135.691151 219.239944 
L 134.604818 212.24332 
L 129.110527 190.943166 
L 128.024195 169.914088 
L 122.529903 143.730493 
L 121.443571 127.232659 
L 115.94928 116.105662 
L 114.862947 111.360802 
L 109.368656 107.22164 
L 108.282323 110.110198 
L 102.788032 112.101025 
L 101.701699 119.261916 
L 96.207408 133.030054 
L 95.121076 152.691579 
L 89.626784 179.459916 
L 85.25014 197.675472 
L 79.755849 209.76442 
L 78.669516 215.388759 
L 73.175225 220.476352 
L 72.088892 221.602572 
L 66.594601 221.345015 
L 65.508268 222.703779 
L 60.013977 229.488814 
z
" clip-path="url(#pa5d524f9b5)" style="fill: #33b07a"/>
   </g>
   <g id="PolyCollection_8">
    <path d="M 60.013977 222.193397 
L 60.013977 229.488814 
L 65.508268 222.703779 
L 66.594601 221.345015 
L 72.088892 221.602572 
L 73.175225 220.476352 
L 78.669516 215.388759 
L 79.755849 209.76442 
L 85.25014 197.675472 
L 89.626784 179.459916 
L 95.121076 152.691579 
L 96.207408 133.030054 
L 101.701699 119.261916 
L 102.788032 112.101025 
L 108.282323 110.110198 
L 109.368656 107.22164 
L 114.862947 111.360802 
L 115.94928 116.105662 
L 121.443571 127.232659 
L 122.529903 143.730493 
L 128.024195 169.914088 
L 129.110527 190.943166 
L 134.604818 212.24332 
L 135.691151 219.239944 
L 141.185442 220.974565 
L 142.271775 225.289488 
L 147.766066 225.821501 
L 152.14271 227.046418 
L 157.637002 227.936036 
L 158.723334 228.774955 
L 164.217625 229.447578 
L 165.303958 230.12696 
L 170.798249 229.104168 
L 171.884582 229.862643 
L 177.378873 230.619765 
L 178.465206 230.736038 
L 183.959497 230.898954 
L 185.045829 231.157863 
L 190.540121 231.568873 
L 191.626453 231.345116 
L 197.120744 230.804314 
L 198.207077 230.181716 
L 203.701368 231.195719 
L 204.787701 232.028554 
L 210.281992 230.418993 
L 214.658637 231.086207 
L 220.152928 231.516144 
L 221.23926 230.719138 
L 226.733552 229.779495 
L 227.819884 230.108032 
L 233.314175 230.480509 
L 234.400508 229.811943 
L 239.894799 229.513826 
L 240.981132 229.352937 
L 246.475423 230.2047 
L 247.561756 229.787607 
L 253.056047 229.959311 
L 254.142379 230.231064 
L 259.636671 229.473266 
L 260.723003 228.864864 
L 266.217294 228.955448 
L 267.303627 228.24835 
L 272.797918 228.146273 
L 277.174563 226.527924 
L 282.668854 225.426716 
L 283.755186 221.964909 
L 289.249478 217.38905 
L 290.33581 218.135356 
L 295.830101 219.321064 
L 296.916434 220.00315 
L 302.410725 219.916622 
L 303.497058 221.477511 
L 308.991349 221.730336 
L 310.077682 222.674035 
L 315.571973 224.298468 
L 316.658305 228.86216 
L 322.152597 233.08785 
L 323.238929 232.597748 
L 328.73322 231.664865 
L 329.819553 231.760857 
L 338.604156 230.395333 
L 339.690489 223.083692 
L 345.18478 218.594362 
L 346.271113 217.57833 
L 351.765404 214.553896 
L 352.851736 206.708214 
L 358.346028 206.556114 
L 359.43236 205.895659 
L 364.926651 207.343656 
L 366.012984 206.0748 
L 371.507275 208.454328 
L 372.593608 216.525119 
L 378.087899 217.564134 
L 379.174232 198.443411 
L 384.668523 200.855387 
L 384.668523 189.345097 
L 384.668523 189.345097 
L 379.174232 186.929065 
L 378.087899 209.083686 
L 372.593608 207.95679 
L 371.507275 196.770305 
L 366.012984 193.887156 
L 364.926651 194.811927 
L 359.43236 193.700579 
L 358.346028 194.365765 
L 352.851736 194.955239 
L 351.765404 202.876633 
L 346.271113 205.994356 
L 345.18478 207.094211 
L 339.690489 211.160365 
L 338.604156 221.848636 
L 329.819553 223.46631 
L 328.73322 223.633282 
L 323.238929 224.483017 
L 322.152597 225.307064 
L 316.658305 221.167902 
L 315.571973 216.519711 
L 310.077682 214.643128 
L 308.991349 213.45066 
L 303.497058 213.96645 
L 302.410725 211.459834 
L 296.916434 211.451046 
L 295.830101 210.85346 
L 290.33581 209.410195 
L 289.249478 208.154183 
L 283.755186 212.978811 
L 282.668854 216.617055 
L 277.174563 217.54453 
L 272.797918 219.413676 
L 267.303627 219.685429 
L 266.217294 220.824493 
L 260.723003 220.487168 
L 259.636671 221.007014 
L 254.142379 221.680988 
L 253.056047 221.824976 
L 247.561756 221.735068 
L 246.475423 221.983161 
L 240.981132 221.21049 
L 239.894799 220.860997 
L 234.400508 220.809621 
L 233.314175 221.221982 
L 227.819884 220.850857 
L 226.733552 220.696729 
L 221.23926 221.978429 
L 220.152928 222.446222 
L 214.658637 221.514015 
L 210.281992 220.846125 
L 204.787701 222.972152 
L 203.701368 222.475966 
L 198.207077 221.216574 
L 197.120744 221.683016 
L 191.626453 222.471234 
L 190.540121 222.693639 
L 185.045829 222.277898 
L 183.959497 222.104165 
L 178.465206 221.943277 
L 177.378873 221.745208 
L 171.884582 220.900205 
L 170.798249 220.314787 
L 165.303958 221.595811 
L 164.217625 221.67558 
L 158.723334 221.255782 
L 157.637002 220.081566 
L 152.14271 218.936419 
L 147.766066 217.871715 
L 142.271775 217.510054 
L 141.185442 212.940955 
L 135.691151 210.708119 
L 134.604818 203.19503 
L 129.110527 180.763924 
L 128.024195 158.43219 
L 122.529903 129.000405 
L 121.443571 109.115123 
L 115.94928 96.694258 
L 114.862947 90.596717 
L 109.368656 85.176531 
L 108.282323 86.889521 
L 102.788032 89.46509 
L 101.701699 96.976826 
L 96.207408 110.926809 
L 95.121076 131.627349 
L 89.626784 161.651989 
L 85.25014 183.841762 
L 79.755849 197.222551 
L 78.669516 204.123858 
L 73.175225 210.568187 
L 72.088892 213.201892 
L 66.594601 212.853751 
L 65.508268 214.293635 
L 60.013977 222.193397 
z
" clip-path="url(#pa5d524f9b5)" style="fill: #33b07a"/>
   </g>
   <g id="PolyCollection_9">
    <path d="M 60.013977 212.858483 
L 60.013977 222.193397 
L 65.508268 214.293635 
L 66.594601 212.853751 
L 72.088892 213.201892 
L 73.175225 210.568187 
L 78.669516 204.123858 
L 79.755849 197.222551 
L 85.25014 183.841762 
L 89.626784 161.651989 
L 95.121076 131.627349 
L 96.207408 110.926809 
L 101.701699 96.976826 
L 102.788032 89.46509 
L 108.282323 86.889521 
L 109.368656 85.176531 
L 114.862947 90.596717 
L 115.94928 96.694258 
L 121.443571 109.115123 
L 122.529903 129.000405 
L 128.024195 158.43219 
L 129.110527 180.763924 
L 134.604818 203.19503 
L 135.691151 210.708119 
L 141.185442 212.940955 
L 142.271775 217.510054 
L 147.766066 217.871715 
L 152.14271 218.936419 
L 157.637002 220.081566 
L 158.723334 221.255782 
L 164.217625 221.67558 
L 165.303958 221.595811 
L 170.798249 220.314787 
L 171.884582 220.900205 
L 177.378873 221.745208 
L 178.465206 221.943277 
L 183.959497 222.104165 
L 185.045829 222.277898 
L 190.540121 222.693639 
L 191.626453 222.471234 
L 197.120744 221.683016 
L 198.207077 221.216574 
L 203.701368 222.475966 
L 204.787701 222.972152 
L 210.281992 220.846125 
L 214.658637 221.514015 
L 220.152928 222.446222 
L 221.23926 221.978429 
L 226.733552 220.696729 
L 227.819884 220.850857 
L 233.314175 221.221982 
L 234.400508 220.809621 
L 239.894799 220.860997 
L 240.981132 221.21049 
L 246.475423 221.983161 
L 247.561756 221.735068 
L 253.056047 221.824976 
L 254.142379 221.680988 
L 259.636671 221.007014 
L 260.723003 220.487168 
L 266.217294 220.824493 
L 267.303627 219.685429 
L 272.797918 219.413676 
L 277.174563 217.54453 
L 282.668854 216.617055 
L 283.755186 212.978811 
L 289.249478 208.154183 
L 290.33581 209.410195 
L 295.830101 210.85346 
L 296.916434 211.451046 
L 302.410725 211.459834 
L 303.497058 213.96645 
L 308.991349 213.45066 
L 310.077682 214.643128 
L 315.571973 216.519711 
L 316.658305 221.167902 
L 322.152597 225.307064 
L 323.238929 224.483017 
L 328.73322 223.633282 
L 329.819553 223.46631 
L 338.604156 221.848636 
L 339.690489 211.160365 
L 345.18478 207.094211 
L 346.271113 205.994356 
L 351.765404 202.876633 
L 352.851736 194.955239 
L 358.346028 194.365765 
L 359.43236 193.700579 
L 364.926651 194.811927 
L 366.012984 193.887156 
L 371.507275 196.770305 
L 372.593608 207.95679 
L 378.087899 209.083686 
L 379.174232 186.929065 
L 384.668523 189.345097 
L 384.668523 176.794439 
L 384.668523 176.794439 
L 379.174232 170.789511 
L 378.087899 195.748866 
L 372.593608 194.198117 
L 371.507275 181.028917 
L 366.012984 177.978795 
L 364.926651 179.340263 
L 359.43236 178.553397 
L 358.346028 179.558612 
L 352.851736 180.924137 
L 351.765404 189.778414 
L 346.271113 196.150411 
L 345.18478 197.161711 
L 339.690489 200.788463 
L 338.604156 213.035595 
L 329.819553 214.554572 
L 328.73322 214.891221 
L 323.238929 215.663892 
L 322.152597 216.656263 
L 316.658305 212.517777 
L 315.571973 207.198992 
L 310.077682 203.245731 
L 308.991349 202.054615 
L 303.497058 203.018594 
L 302.410725 200.342301 
L 296.916434 198.054033 
L 295.830101 197.110334 
L 290.33581 195.494013 
L 289.249478 193.545099 
L 283.755186 197.948577 
L 282.668854 201.240032 
L 277.174563 204.255678 
L 272.797918 206.212028 
L 267.303627 207.148292 
L 266.217294 208.196095 
L 260.723003 210.651335 
L 259.636671 211.335449 
L 254.142379 210.044961 
L 253.056047 210.633759 
L 247.561756 210.629703 
L 246.475423 211.469974 
L 240.981132 210.861572 
L 239.894799 209.394647 
L 234.400508 208.740277 
L 233.314175 209.587984 
L 227.819884 208.797061 
L 226.733552 208.052107 
L 221.23926 210.867656 
L 220.152928 211.578134 
L 214.658637 210.807492 
L 210.281992 210.483011 
L 204.787701 212.250081 
L 203.701368 212.518453 
L 198.207077 211.442934 
L 197.120744 211.652495 
L 191.626453 212.696242 
L 190.540121 213.349936 
L 185.045829 213.618309 
L 183.959497 213.525697 
L 178.465206 213.458773 
L 177.378873 212.659738 
L 171.884582 211.742403 
L 170.798249 211.588274 
L 165.303958 212.359593 
L 164.217625 212.776686 
L 158.723334 212.604982 
L 157.637002 210.99204 
L 152.14271 209.418983 
L 147.766066 208.198799 
L 142.271775 207.415988 
L 141.185442 202.849593 
L 135.691151 201.206232 
L 134.604818 191.817913 
L 129.110527 169.540935 
L 128.024195 146.432474 
L 122.529903 115.268095 
L 121.443571 93.853696 
L 115.94928 80.414772 
L 114.862947 73.703421 
L 109.368656 67.415924 
L 108.282323 69.634564 
L 102.788032 71.963392 
L 101.701699 81.022498 
L 96.207408 95.657946 
L 95.121076 116.78572 
L 89.626784 147.865599 
L 85.25014 171.429685 
L 79.755849 186.338239 
L 78.669516 193.845244 
L 73.175225 201.314392 
L 72.088892 204.039357 
L 66.594601 204.109662 
L 65.508268 205.54211 
L 60.013977 212.858483 
z
" clip-path="url(#pa5d524f9b5)" style="fill: #33b07a"/>
   </g>
   <g id="PolyCollection_10">
    <path d="M 60.013977 205.41367 
L 60.013977 212.858483 
L 65.508268 205.54211 
L 66.594601 204.109662 
L 72.088892 204.039357 
L 73.175225 201.314392 
L 78.669516 193.845244 
L 79.755849 186.338239 
L 85.25014 171.429685 
L 89.626784 147.865599 
L 95.121076 116.78572 
L 96.207408 95.657946 
L 101.701699 81.022498 
L 102.788032 71.963392 
L 108.282323 69.634564 
L 109.368656 67.415924 
L 114.862947 73.703421 
L 115.94928 80.414772 
L 121.443571 93.853696 
L 122.529903 115.268095 
L 128.024195 146.432474 
L 129.110527 169.540935 
L 134.604818 191.817913 
L 135.691151 201.206232 
L 141.185442 202.849593 
L 142.271775 207.415988 
L 147.766066 208.198799 
L 152.14271 209.418983 
L 157.637002 210.99204 
L 158.723334 212.604982 
L 164.217625 212.776686 
L 165.303958 212.359593 
L 170.798249 211.588274 
L 171.884582 211.742403 
L 177.378873 212.659738 
L 178.465206 213.458773 
L 183.959497 213.525697 
L 185.045829 213.618309 
L 190.540121 213.349936 
L 191.626453 212.696242 
L 197.120744 211.652495 
L 198.207077 211.442934 
L 203.701368 212.518453 
L 204.787701 212.250081 
L 210.281992 210.483011 
L 214.658637 210.807492 
L 220.152928 211.578134 
L 221.23926 210.867656 
L 226.733552 208.052107 
L 227.819884 208.797061 
L 233.314175 209.587984 
L 234.400508 208.740277 
L 239.894799 209.394647 
L 240.981132 210.861572 
L 246.475423 211.469974 
L 247.561756 210.629703 
L 253.056047 210.633759 
L 254.142379 210.044961 
L 259.636671 211.335449 
L 260.723003 210.651335 
L 266.217294 208.196095 
L 267.303627 207.148292 
L 272.797918 206.212028 
L 277.174563 204.255678 
L 282.668854 201.240032 
L 283.755186 197.948577 
L 289.249478 193.545099 
L 290.33581 195.494013 
L 295.830101 197.110334 
L 296.916434 198.054033 
L 302.410725 200.342301 
L 303.497058 203.018594 
L 308.991349 202.054615 
L 310.077682 203.245731 
L 315.571973 207.198992 
L 316.658305 212.517777 
L 322.152597 216.656263 
L 323.238929 215.663892 
L 328.73322 214.891221 
L 329.819553 214.554572 
L 338.604156 213.035595 
L 339.690489 200.788463 
L 345.18478 197.161711 
L 346.271113 196.150411 
L 351.765404 189.778414 
L 352.851736 180.924137 
L 358.346028 179.558612 
L 359.43236 178.553397 
L 364.926651 179.340263 
L 366.012984 177.978795 
L 371.507275 181.028917 
L 372.593608 194.198117 
L 378.087899 195.748866 
L 379.174232 170.789511 
L 384.668523 176.794439 
L 384.668523 168.325483 
L 384.668523 168.325483 
L 379.174232 160.596073 
L 378.087899 186.065134 
L 372.593608 184.515061 
L 371.507275 168.129442 
L 366.012984 164.744699 
L 364.926651 166.363048 
L 359.43236 165.495738 
L 358.346028 167.083667 
L 352.851736 167.94557 
L 351.765404 177.138524 
L 346.271113 185.315447 
L 345.18478 186.067838 
L 339.690489 189.353209 
L 338.604156 205.232501 
L 329.819553 206.839359 
L 328.73322 207.006331 
L 323.238929 207.783058 
L 322.152597 208.521928 
L 316.658305 204.284746 
L 315.571973 198.713812 
L 310.077682 192.677788 
L 308.991349 191.830757 
L 303.497058 192.719024 
L 302.410725 187.650359 
L 296.916434 185.184979 
L 295.830101 183.651806 
L 290.33581 182.453254 
L 289.249478 180.847748 
L 283.755186 185.858277 
L 282.668854 188.891499 
L 277.174563 193.986528 
L 272.797918 195.610285 
L 267.303627 196.546548 
L 266.217294 199.567602 
L 260.723003 202.202659 
L 259.636671 203.395803 
L 254.142379 202.028251 
L 253.056047 202.364224 
L 247.561756 201.934286 
L 246.475423 203.030762 
L 240.981132 202.084359 
L 239.894799 200.954759 
L 234.400508 200.71951 
L 233.314175 201.820042 
L 227.819884 201.10686 
L 226.733552 200.019848 
L 221.23926 202.325016 
L 220.152928 202.619077 
L 214.658637 201.92685 
L 210.281992 201.611157 
L 204.787701 203.553988 
L 203.701368 203.818305 
L 198.207077 202.57446 
L 197.120744 202.866493 
L 191.626453 203.998797 
L 190.540121 204.481463 
L 185.045829 204.829604 
L 183.959497 204.89788 
L 178.465206 204.919512 
L 177.378873 204.040033 
L 171.884582 203.290347 
L 170.798249 203.216663 
L 165.303958 203.983249 
L 164.217625 204.487547 
L 158.723334 204.483491 
L 157.637002 203.213283 
L 152.14271 201.467845 
L 147.766066 200.491022 
L 142.271775 199.459442 
L 141.185442 194.886287 
L 135.691151 192.809608 
L 134.604818 182.411342 
L 129.110527 155.111667 
L 128.024195 127.344199 
L 122.529903 88.843167 
L 121.443571 64.129878 
L 115.94928 49.674246 
L 114.862947 42.205097 
L 109.368656 34.990125 
L 108.282323 36.46719 
L 102.788032 38.809538 
L 101.701699 48.461498 
L 96.207408 67.777586 
L 95.121076 93.046549 
L 89.626784 131.459701 
L 85.25014 158.574151 
L 79.755849 174.848229 
L 78.669516 183.211728 
L 73.175225 192.197826 
L 72.088892 195.83269 
L 66.594601 195.810382 
L 65.508268 197.664656 
L 60.013977 205.41367 
z
" clip-path="url(#pa5d524f9b5)" style="fill: #33b07a"/>
   </g>
   <g id="PolyCollection_11">
    <path d="M 80.288412 280.223458 
L 80.288412 288.430125 
L 86.869036 288.430125 
L 93.44966 288.430125 
L 100.030283 288.430125 
L 109.901219 288.430125 
L 116.481843 288.430125 
L 123.062467 288.430125 
L 129.64309 288.430125 
L 136.223714 288.430125 
L 142.804338 288.430125 
L 149.384962 288.430125 
L 155.965586 288.430125 
L 162.546209 288.430125 
L 169.126833 288.430125 
L 178.997769 288.430125 
L 178.997769 276.874543 
L 178.997769 276.874543 
L 169.126833 278.664597 
L 162.546209 278.656485 
L 155.965586 278.315103 
L 149.384962 278.878889 
L 142.804338 278.798445 
L 136.223714 278.878889 
L 129.64309 278.711917 
L 123.062467 279.049918 
L 116.481843 278.96001 
L 109.901219 278.866721 
L 100.030283 278.952574 
L 93.44966 279.03437 
L 86.869036 279.377779 
L 80.288412 280.223458 
z
" clip-path="url(#pa5d524f9b5)" style="fill: #ae9d31"/>
   </g>
   <g id="PolyCollection_12">
    <path d="M 80.288412 271.10554 
L 80.288412 280.223458 
L 86.869036 279.377779 
L 93.44966 279.03437 
L 100.030283 278.952574 
L 109.901219 278.866721 
L 116.481843 278.96001 
L 123.062467 279.049918 
L 129.64309 278.711917 
L 136.223714 278.878889 
L 142.804338 278.798445 
L 149.384962 278.878889 
L 155.965586 278.315103 
L 162.546209 278.656485 
L 169.126833 278.664597 
L 178.997769 276.874543 
L 178.997769 265.759714 
L 178.997769 265.759714 
L 169.126833 268.556335 
L 162.546209 268.375843 
L 155.965586 267.881685 
L 149.384962 268.847016 
L 142.804338 268.926108 
L 136.223714 269.181637 
L 129.64309 268.928136 
L 123.062467 269.519638 
L 116.481843 269.591295 
L 109.901219 269.493274 
L 100.030283 269.491922 
L 93.44966 269.577775 
L 86.869036 269.990812 
L 80.288412 271.10554 
z
" clip-path="url(#pa5d524f9b5)" style="fill: #ae9d31"/>
   </g>
   <g id="PolyCollection_13">
    <path d="M 80.288412 261.139239 
L 80.288412 271.10554 
L 86.869036 269.990812 
L 93.44966 269.577775 
L 100.030283 269.491922 
L 109.901219 269.493274 
L 116.481843 269.591295 
L 123.062467 269.519638 
L 129.64309 268.928136 
L 136.223714 269.181637 
L 142.804338 268.926108 
L 149.384962 268.847016 
L 155.965586 267.881685 
L 162.546209 268.375843 
L 169.126833 268.556335 
L 178.997769 265.759714 
L 178.997769 256.685736 
L 178.997769 256.685736 
L 169.126833 258.575162 
L 162.546209 257.561835 
L 155.965586 257.150149 
L 149.384962 257.945128 
L 142.804338 258.801623 
L 136.223714 258.805679 
L 129.64309 257.455026 
L 123.062467 257.966084 
L 116.481843 257.699739 
L 109.901219 257.785591 
L 100.030283 259.371493 
L 93.44966 259.522917 
L 86.869036 259.769658 
L 80.288412 261.139239 
z
" clip-path="url(#pa5d524f9b5)" style="fill: #ae9d31"/>
   </g>
   <g id="PolyCollection_14">
    <path d="M 80.288412 251.737399 
L 80.288412 261.139239 
L 86.869036 259.769658 
L 93.44966 259.522917 
L 100.030283 259.371493 
L 109.901219 257.785591 
L 116.481843 257.699739 
L 123.062467 257.966084 
L 129.64309 257.455026 
L 136.223714 258.805679 
L 142.804338 258.801623 
L 149.384962 257.945128 
L 155.965586 257.150149 
L 162.546209 257.561835 
L 169.126833 258.575162 
L 178.997769 256.685736 
L 178.997769 248.33846 
L 178.997769 248.33846 
L 169.126833 250.405675 
L 162.546209 247.688146 
L 155.965586 247.100024 
L 149.384962 248.147151 
L 142.804338 249.833777 
L 136.223714 249.927741 
L 129.64309 247.978827 
L 123.062467 248.574385 
L 116.481843 248.047779 
L 109.901219 248.137687 
L 100.030283 249.461976 
L 93.44966 249.868929 
L 86.869036 250.205578 
L 80.288412 251.737399 
z
" clip-path="url(#pa5d524f9b5)" style="fill: #ae9d31"/>
   </g>
   <g id="PolyCollection_15">
    <path d="M 80.288412 240.102725 
L 80.288412 251.737399 
L 86.869036 250.205578 
L 93.44966 249.868929 
L 100.030283 249.461976 
L 109.901219 248.137687 
L 116.481843 248.047779 
L 123.062467 248.574385 
L 129.64309 247.978827 
L 136.223714 249.927741 
L 142.804338 249.833777 
L 149.384962 248.147151 
L 155.965586 247.100024 
L 162.546209 247.688146 
L 169.126833 250.405675 
L 178.997769 248.33846 
L 178.997769 235.843911 
L 178.997769 235.843911 
L 169.126833 240.013493 
L 162.546209 237.389928 
L 155.965586 236.966074 
L 149.384962 237.847581 
L 142.804338 239.700503 
L 136.223714 239.546375 
L 129.64309 238.18761 
L 123.062467 238.866993 
L 116.481843 238.257915 
L 109.901219 238.349175 
L 100.030283 239.093453 
L 93.44966 239.244202 
L 86.869036 239.841112 
L 80.288412 240.102725 
z
" clip-path="url(#pa5d524f9b5)" style="fill: #ae9d31"/>
   </g>
   <g id="PolyCollection_16">
    <path d="M 80.288412 229.624014 
L 80.288412 240.102725 
L 86.869036 239.841112 
L 93.44966 239.244202 
L 100.030283 239.093453 
L 109.901219 238.349175 
L 116.481843 238.257915 
L 123.062467 238.866993 
L 129.64309 238.18761 
L 136.223714 239.546375 
L 142.804338 239.700503 
L 149.384962 237.847581 
L 155.965586 236.966074 
L 162.546209 237.389928 
L 169.126833 240.013493 
L 178.997769 235.843911 
L 178.997769 222.591563 
L 178.997769 222.591563 
L 169.126833 228.040817 
L 162.546209 225.498372 
L 155.965586 226.661772 
L 149.384962 227.458103 
L 142.804338 228.206437 
L 136.223714 227.971865 
L 129.64309 226.361627 
L 123.062467 228.722227 
L 116.481843 228.280798 
L 109.901219 228.541735 
L 100.030283 229.453662 
L 93.44966 228.755351 
L 86.869036 229.191373 
L 80.288412 229.624014 
z
" clip-path="url(#pa5d524f9b5)" style="fill: #ae9d31"/>
   </g>
   <g id="PolyCollection_17">
    <path d="M 80.288412 220.318167 
L 80.288412 229.624014 
L 86.869036 229.191373 
L 93.44966 228.755351 
L 100.030283 229.453662 
L 109.901219 228.541735 
L 116.481843 228.280798 
L 123.062467 228.722227 
L 129.64309 226.361627 
L 136.223714 227.971865 
L 142.804338 228.206437 
L 149.384962 227.458103 
L 155.965586 226.661772 
L 162.546209 225.498372 
L 169.126833 228.040817 
L 178.997769 222.591563 
L 178.997769 212.604982 
L 178.997769 212.604982 
L 169.126833 217.968383 
L 162.546209 215.427291 
L 155.965586 216.346654 
L 149.384962 217.056456 
L 142.804338 217.806143 
L 136.223714 217.743275 
L 129.64309 215.967417 
L 123.062467 218.250952 
L 116.481843 217.550614 
L 109.901219 218.317201 
L 100.030283 219.395424 
L 93.44966 218.534873 
L 86.869036 219.717877 
L 80.288412 220.318167 
z
" clip-path="url(#pa5d524f9b5)" style="fill: #ae9d31"/>
   </g>
   <g id="PolyCollection_18">
    <path d="M 80.288412 210.238298 
L 80.288412 220.318167 
L 86.869036 219.717877 
L 93.44966 218.534873 
L 100.030283 219.395424 
L 109.901219 218.317201 
L 116.481843 217.550614 
L 123.062467 218.250952 
L 129.64309 215.967417 
L 136.223714 217.743275 
L 142.804338 217.806143 
L 149.384962 217.056456 
L 155.965586 216.346654 
L 162.546209 215.427291 
L 169.126833 217.968383 
L 178.997769 212.604982 
L 178.997769 201.943074 
L 178.997769 201.943074 
L 169.126833 207.744526 
L 162.546209 205.377842 
L 155.965586 206.126176 
L 149.384962 206.837331 
L 142.804338 207.668813 
L 136.223714 207.357176 
L 129.64309 205.293341 
L 123.062467 207.576877 
L 116.481843 206.791362 
L 109.901219 207.72695 
L 100.030283 208.969442 
L 93.44966 207.941918 
L 86.869036 209.216182 
L 80.288412 210.238298 
z
" clip-path="url(#pa5d524f9b5)" style="fill: #ae9d31"/>
   </g>
   <g id="PolyCollection_19">
    <path d="M 80.288412 195.679238 
L 80.288412 210.238298 
L 86.869036 209.216182 
L 93.44966 207.941918 
L 100.030283 208.969442 
L 109.901219 207.72695 
L 116.481843 206.791362 
L 123.062467 207.576877 
L 129.64309 205.293341 
L 136.223714 207.357176 
L 142.804338 207.668813 
L 149.384962 206.837331 
L 155.965586 206.126176 
L 162.546209 205.377842 
L 169.126833 207.744526 
L 178.997769 201.943074 
L 178.997769 193.41801 
L 178.997769 193.41801 
L 169.126833 199.469582 
L 162.546209 193.619459 
L 155.965586 193.618107 
L 149.384962 192.80758 
L 142.804338 188.553498 
L 136.223714 186.703956 
L 129.64309 184.138527 
L 123.062467 187.42187 
L 116.481843 186.303087 
L 109.901219 187.238674 
L 100.030283 188.559582 
L 93.44966 191.357555 
L 86.869036 193.219941 
L 80.288412 195.679238 
z
" clip-path="url(#pa5d524f9b5)" style="fill: #ae9d31"/>
   </g>
   <g id="PolyCollection_20">
    <path d="M 80.288412 185.335051 
L 80.288412 195.679238 
L 86.869036 193.219941 
L 93.44966 191.357555 
L 100.030283 188.559582 
L 109.901219 187.238674 
L 116.481843 186.303087 
L 123.062467 187.42187 
L 129.64309 184.138527 
L 136.223714 186.703956 
L 142.804338 188.553498 
L 149.384962 192.80758 
L 155.965586 193.618107 
L 162.546209 193.619459 
L 169.126833 199.469582 
L 178.997769 193.41801 
L 178.997769 181.46291 
L 178.997769 181.46291 
L 169.126833 188.367597 
L 162.546209 183.61733 
L 155.965586 183.62747 
L 149.384962 182.659434 
L 142.804338 178.40738 
L 136.223714 176.632198 
L 129.64309 175.175414 
L 123.062467 178.28908 
L 116.481843 175.635771 
L 109.901219 176.567302 
L 100.030283 177.80371 
L 93.44966 180.770008 
L 86.869036 182.625634 
L 80.288412 185.335051 
z
" clip-path="url(#pa5d524f9b5)" style="fill: #ae9d31"/>
   </g>
   <g id="matplotlib.axis_1">
    <g id="xtick_1">
     <g id="line2d_1">
      <defs>
       <path id="mc5b19fc265" d="M 0 0 
L 0 3.5 
" style="stroke: #000000; stroke-width: 0.8"/>
      </defs>
      <g>
       <use xlink:href="#mc5b19fc265" x="78.617947" y="288.430125" style="stroke: #000000; stroke-width: 0.8"/>
      </g>
     </g>
     <g id="text_1">
      <!-- 0 -->
      <g transform="translate(75.436697 303.028562) scale(0.1 -0.1)">
       <defs>
        <path id="DejaVuSans-30" d="M 2034 4250 
Q 1547 4250 1301 3770 
Q 1056 3291 1056 2328 
Q 1056 1369 1301 889 
Q 1547 409 2034 409 
Q 2525 409 2770 889 
Q 3016 1369 3016 2328 
Q 3016 3291 2770 3770 
Q 2525 4250 2034 4250 
z
M 2034 4750 
Q 2819 4750 3233 4129 
Q 3647 3509 3647 2328 
Q 3647 1150 3233 529 
Q 2819 -91 2034 -91 
Q 1250 -91 836 529 
Q 422 1150 422 2328 
Q 422 3509 836 4129 
Q 1250 4750 2034 4750 
z
" transform="scale(0.015625)"/>
       </defs>
       <use xlink:href="#DejaVuSans-30"/>
      </g>
     </g>
    </g>
    <g id="xtick_2">
     <g id="line2d_2">
      <g>
       <use xlink:href="#mc5b19fc265" x="144.424185" y="288.430125" style="stroke: #000000; stroke-width: 0.8"/>
      </g>
     </g>
     <g id="text_2">
      <!-- 20 -->
      <g transform="translate(138.061685 303.028562) scale(0.1 -0.1)">
       <defs>
        <path id="DejaVuSans-32" d="M 1228 531 
L 3431 531 
L 3431 0 
L 469 0 
L 469 531 
Q 828 903 1448 1529 
Q 2069 2156 2228 2338 
Q 2531 2678 2651 2914 
Q 2772 3150 2772 3378 
Q 2772 3750 2511 3984 
Q 2250 4219 1831 4219 
Q 1534 4219 1204 4116 
Q 875 4013 500 3803 
L 500 4441 
Q 881 4594 1212 4672 
Q 1544 4750 1819 4750 
Q 2544 4750 2975 4387 
Q 3406 4025 3406 3419 
Q 3406 3131 3298 2873 
Q 3191 2616 2906 2266 
Q 2828 2175 2409 1742 
Q 1991 1309 1228 531 
z
" transform="scale(0.015625)"/>
       </defs>
       <use xlink:href="#DejaVuSans-32"/>
       <use xlink:href="#DejaVuSans-30" x="63.623047"/>
      </g>
     </g>
    </g>
    <g id="xtick_3">
     <g id="line2d_3">
      <g>
       <use xlink:href="#mc5b19fc265" x="210.230423" y="288.430125" style="stroke: #000000; stroke-width: 0.8"/>
      </g>
     </g>
     <g id="text_3">
      <!-- 40 -->
      <g transform="translate(203.867923 303.028562) scale(0.1 -0.1)">
       <defs>
        <path id="DejaVuSans-34" d="M 2419 4116 
L 825 1625 
L 2419 1625 
L 2419 4116 
z
M 2253 4666 
L 3047 4666 
L 3047 1625 
L 3713 1625 
L 3713 1100 
L 3047 1100 
L 3047 0 
L 2419 0 
L 2419 1100 
L 313 1100 
L 313 1709 
L 2253 4666 
z
" transform="scale(0.015625)"/>
       </defs>
       <use xlink:href="#DejaVuSans-34"/>
       <use xlink:href="#DejaVuSans-30" x="63.623047"/>
      </g>
     </g>
    </g>
    <g id="xtick_4">
     <g id="line2d_4">
      <g>
       <use xlink:href="#mc5b19fc265" x="276.036661" y="288.430125" style="stroke: #000000; stroke-width: 0.8"/>
      </g>
     </g>
     <g id="text_4">
      <!-- 60 -->
      <g transform="translate(269.674161 303.028562) scale(0.1 -0.1)">
       <defs>
        <path id="DejaVuSans-36" d="M 2113 2584 
Q 1688 2584 1439 2293 
Q 1191 2003 1191 1497 
Q 1191 994 1439 701 
Q 1688 409 2113 409 
Q 2538 409 2786 701 
Q 3034 994 3034 1497 
Q 3034 2003 2786 2293 
Q 2538 2584 2113 2584 
z
M 3366 4563 
L 3366 3988 
Q 3128 4100 2886 4159 
Q 2644 4219 2406 4219 
Q 1781 4219 1451 3797 
Q 1122 3375 1075 2522 
Q 1259 2794 1537 2939 
Q 1816 3084 2150 3084 
Q 2853 3084 3261 2657 
Q 3669 2231 3669 1497 
Q 3669 778 3244 343 
Q 2819 -91 2113 -91 
Q 1303 -91 875 529 
Q 447 1150 447 2328 
Q 447 3434 972 4092 
Q 1497 4750 2381 4750 
Q 2619 4750 2861 4703 
Q 3103 4656 3366 4563 
z
" transform="scale(0.015625)"/>
       </defs>
       <use xlink:href="#DejaVuSans-36"/>
       <use xlink:href="#DejaVuSans-30" x="63.623047"/>
      </g>
     </g>
    </g>
    <g id="xtick_5">
     <g id="line2d_5">
      <g>
       <use xlink:href="#mc5b19fc265" x="341.842899" y="288.430125" style="stroke: #000000; stroke-width: 0.8"/>
      </g>
     </g>
     <g id="text_5">
      <!-- 80 -->
      <g transform="translate(335.480399 303.028562) scale(0.1 -0.1)">
       <defs>
        <path id="DejaVuSans-38" d="M 2034 2216 
Q 1584 2216 1326 1975 
Q 1069 1734 1069 1313 
Q 1069 891 1326 650 
Q 1584 409 2034 409 
Q 2484 409 2743 651 
Q 3003 894 3003 1313 
Q 3003 1734 2745 1975 
Q 2488 2216 2034 2216 
z
M 1403 2484 
Q 997 2584 770 2862 
Q 544 3141 544 3541 
Q 544 4100 942 4425 
Q 1341 4750 2034 4750 
Q 2731 4750 3128 4425 
Q 3525 4100 3525 3541 
Q 3525 3141 3298 2862 
Q 3072 2584 2669 2484 
Q 3125 2378 3379 2068 
Q 3634 1759 3634 1313 
Q 3634 634 3220 271 
Q 2806 -91 2034 -91 
Q 1263 -91 848 271 
Q 434 634 434 1313 
Q 434 1759 690 2068 
Q 947 2378 1403 2484 
z
M 1172 3481 
Q 1172 3119 1398 2916 
Q 1625 2713 2034 2713 
Q 2441 2713 2670 2916 
Q 2900 3119 2900 3481 
Q 2900 3844 2670 4047 
Q 2441 4250 2034 4250 
Q 1625 4250 1398 4047 
Q 1172 3844 1172 3481 
z
" transform="scale(0.015625)"/>
       </defs>
       <use xlink:href="#DejaVuSans-38"/>
       <use xlink:href="#DejaVuSans-30" x="63.623047"/>
      </g>
     </g>
    </g>
    <g id="text_6">
     <!-- Time (s) -->
     <g transform="translate(202.012344 316.706687) scale(0.1 -0.1)">
      <defs>
       <path id="DejaVuSans-54" d="M -19 4666 
L 3928 4666 
L 3928 4134 
L 2272 4134 
L 2272 0 
L 1638 0 
L 1638 4134 
L -19 4134 
L -19 4666 
z
" transform="scale(0.015625)"/>
       <path id="DejaVuSans-69" d="M 603 3500 
L 1178 3500 
L 1178 0 
L 603 0 
L 603 3500 
z
M 603 4863 
L 1178 4863 
L 1178 4134 
L 603 4134 
L 603 4863 
z
" transform="scale(0.015625)"/>
       <path id="DejaVuSans-6d" d="M 3328 2828 
Q 3544 3216 3844 3400 
Q 4144 3584 4550 3584 
Q 5097 3584 5394 3201 
Q 5691 2819 5691 2113 
L 5691 0 
L 5113 0 
L 5113 2094 
Q 5113 2597 4934 2840 
Q 4756 3084 4391 3084 
Q 3944 3084 3684 2787 
Q 3425 2491 3425 1978 
L 3425 0 
L 2847 0 
L 2847 2094 
Q 2847 2600 2669 2842 
Q 2491 3084 2119 3084 
Q 1678 3084 1418 2786 
Q 1159 2488 1159 1978 
L 1159 0 
L 581 0 
L 581 3500 
L 1159 3500 
L 1159 2956 
Q 1356 3278 1631 3431 
Q 1906 3584 2284 3584 
Q 2666 3584 2933 3390 
Q 3200 3197 3328 2828 
z
" transform="scale(0.015625)"/>
       <path id="DejaVuSans-65" d="M 3597 1894 
L 3597 1613 
L 953 1613 
Q 991 1019 1311 708 
Q 1631 397 2203 397 
Q 2534 397 2845 478 
Q 3156 559 3463 722 
L 3463 178 
Q 3153 47 2828 -22 
Q 2503 -91 2169 -91 
Q 1331 -91 842 396 
Q 353 884 353 1716 
Q 353 2575 817 3079 
Q 1281 3584 2069 3584 
Q 2775 3584 3186 3129 
Q 3597 2675 3597 1894 
z
M 3022 2063 
Q 3016 2534 2758 2815 
Q 2500 3097 2075 3097 
Q 1594 3097 1305 2825 
Q 1016 2553 972 2059 
L 3022 2063 
z
" transform="scale(0.015625)"/>
       <path id="DejaVuSans-20" transform="scale(0.015625)"/>
       <path id="DejaVuSans-28" d="M 1984 4856 
Q 1566 4138 1362 3434 
Q 1159 2731 1159 2009 
Q 1159 1288 1364 580 
Q 1569 -128 1984 -844 
L 1484 -844 
Q 1016 -109 783 600 
Q 550 1309 550 2009 
Q 550 2706 781 3412 
Q 1013 4119 1484 4856 
L 1984 4856 
z
" transform="scale(0.015625)"/>
       <path id="DejaVuSans-73" d="M 2834 3397 
L 2834 2853 
Q 2591 2978 2328 3040 
Q 2066 3103 1784 3103 
Q 1356 3103 1142 2972 
Q 928 2841 928 2578 
Q 928 2378 1081 2264 
Q 1234 2150 1697 2047 
L 1894 2003 
Q 2506 1872 2764 1633 
Q 3022 1394 3022 966 
Q 3022 478 2636 193 
Q 2250 -91 1575 -91 
Q 1294 -91 989 -36 
Q 684 19 347 128 
L 347 722 
Q 666 556 975 473 
Q 1284 391 1588 391 
Q 1994 391 2212 530 
Q 2431 669 2431 922 
Q 2431 1156 2273 1281 
Q 2116 1406 1581 1522 
L 1381 1569 
Q 847 1681 609 1914 
Q 372 2147 372 2553 
Q 372 3047 722 3315 
Q 1072 3584 1716 3584 
Q 2034 3584 2315 3537 
Q 2597 3491 2834 3397 
z
" transform="scale(0.015625)"/>
       <path id="DejaVuSans-29" d="M 513 4856 
L 1013 4856 
Q 1481 4119 1714 3412 
Q 1947 2706 1947 2009 
Q 1947 1309 1714 600 
Q 1481 -109 1013 -844 
L 513 -844 
Q 928 -128 1133 580 
Q 1338 1288 1338 2009 
Q 1338 2731 1133 3434 
Q 928 4138 513 4856 
z
" transform="scale(0.015625)"/>
      </defs>
      <use xlink:href="#DejaVuSans-54"/>
      <use xlink:href="#DejaVuSans-69" x="57.958984"/>
      <use xlink:href="#DejaVuSans-6d" x="85.742188"/>
      <use xlink:href="#DejaVuSans-65" x="183.154297"/>
      <use xlink:href="#DejaVuSans-20" x="244.677734"/>
      <use xlink:href="#DejaVuSans-28" x="276.464844"/>
      <use xlink:href="#DejaVuSans-73" x="315.478516"/>
      <use xlink:href="#DejaVuSans-29" x="367.578125"/>
     </g>
    </g>
   </g>
   <g id="matplotlib.axis_2">
    <g id="ytick_1">
     <g id="line2d_6">
      <defs>
       <path id="mac21341b7f" d="M 0 0 
L -3.5 0 
" style="stroke: #000000; stroke-width: 0.8"/>
      </defs>
      <g>
       <use xlink:href="#mac21341b7f" x="43.78125" y="288.430125" style="stroke: #000000; stroke-width: 0.8"/>
      </g>
     </g>
     <g id="text_7">
      <!-- 0.0 -->
      <g transform="translate(20.878125 292.229344) scale(0.1 -0.1)">
       <defs>
        <path id="DejaVuSans-2e" d="M 684 794 
L 1344 794 
L 1344 0 
L 684 0 
L 684 794 
z
" transform="scale(0.015625)"/>
       </defs>
       <use xlink:href="#DejaVuSans-30"/>
       <use xlink:href="#DejaVuSans-2e" x="63.623047"/>
       <use xlink:href="#DejaVuSans-30" x="95.410156"/>
      </g>
     </g>
    </g>
    <g id="ytick_2">
     <g id="line2d_7">
      <g>
       <use xlink:href="#mac21341b7f" x="43.78125" y="254.630013" style="stroke: #000000; stroke-width: 0.8"/>
      </g>
     </g>
     <g id="text_8">
      <!-- 0.1 -->
      <g transform="translate(20.878125 258.429232) scale(0.1 -0.1)">
       <defs>
        <path id="DejaVuSans-31" d="M 794 531 
L 1825 531 
L 1825 4091 
L 703 3866 
L 703 4441 
L 1819 4666 
L 2450 4666 
L 2450 531 
L 3481 531 
L 3481 0 
L 794 0 
L 794 531 
z
" transform="scale(0.015625)"/>
       </defs>
       <use xlink:href="#DejaVuSans-30"/>
       <use xlink:href="#DejaVuSans-2e" x="63.623047"/>
       <use xlink:href="#DejaVuSans-31" x="95.410156"/>
      </g>
     </g>
    </g>
    <g id="ytick_3">
     <g id="line2d_8">
      <g>
       <use xlink:href="#mac21341b7f" x="43.78125" y="220.829901" style="stroke: #000000; stroke-width: 0.8"/>
      </g>
     </g>
     <g id="text_9">
      <!-- 0.2 -->
      <g transform="translate(20.878125 224.62912) scale(0.1 -0.1)">
       <use xlink:href="#DejaVuSans-30"/>
       <use xlink:href="#DejaVuSans-2e" x="63.623047"/>
       <use xlink:href="#DejaVuSans-32" x="95.410156"/>
      </g>
     </g>
    </g>
    <g id="ytick_4">
     <g id="line2d_9">
      <g>
       <use xlink:href="#mac21341b7f" x="43.78125" y="187.029789" style="stroke: #000000; stroke-width: 0.8"/>
      </g>
     </g>
     <g id="text_10">
      <!-- 0.3 -->
      <g transform="translate(20.878125 190.829008) scale(0.1 -0.1)">
       <defs>
        <path id="DejaVuSans-33" d="M 2597 2516 
Q 3050 2419 3304 2112 
Q 3559 1806 3559 1356 
Q 3559 666 3084 287 
Q 2609 -91 1734 -91 
Q 1441 -91 1130 -33 
Q 819 25 488 141 
L 488 750 
Q 750 597 1062 519 
Q 1375 441 1716 441 
Q 2309 441 2620 675 
Q 2931 909 2931 1356 
Q 2931 1769 2642 2001 
Q 2353 2234 1838 2234 
L 1294 2234 
L 1294 2753 
L 1863 2753 
Q 2328 2753 2575 2939 
Q 2822 3125 2822 3475 
Q 2822 3834 2567 4026 
Q 2313 4219 1838 4219 
Q 1578 4219 1281 4162 
Q 984 4106 628 3988 
L 628 4550 
Q 988 4650 1302 4700 
Q 1616 4750 1894 4750 
Q 2613 4750 3031 4423 
Q 3450 4097 3450 3541 
Q 3450 3153 3228 2886 
Q 3006 2619 2597 2516 
z
" transform="scale(0.015625)"/>
       </defs>
       <use xlink:href="#DejaVuSans-30"/>
       <use xlink:href="#DejaVuSans-2e" x="63.623047"/>
       <use xlink:href="#DejaVuSans-33" x="95.410156"/>
      </g>
     </g>
    </g>
    <g id="ytick_5">
     <g id="line2d_10">
      <g>
       <use xlink:href="#mac21341b7f" x="43.78125" y="153.229677" style="stroke: #000000; stroke-width: 0.8"/>
      </g>
     </g>
     <g id="text_11">
      <!-- 0.4 -->
      <g transform="translate(20.878125 157.028896) scale(0.1 -0.1)">
       <use xlink:href="#DejaVuSans-30"/>
       <use xlink:href="#DejaVuSans-2e" x="63.623047"/>
       <use xlink:href="#DejaVuSans-34" x="95.410156"/>
      </g>
     </g>
    </g>
    <g id="ytick_6">
     <g id="line2d_11">
      <g>
       <use xlink:href="#mac21341b7f" x="43.78125" y="119.429565" style="stroke: #000000; stroke-width: 0.8"/>
      </g>
     </g>
     <g id="text_12">
      <!-- 0.5 -->
      <g transform="translate(20.878125 123.228784) scale(0.1 -0.1)">
       <defs>
        <path id="DejaVuSans-35" d="M 691 4666 
L 3169 4666 
L 3169 4134 
L 1269 4134 
L 1269 2991 
Q 1406 3038 1543 3061 
Q 1681 3084 1819 3084 
Q 2600 3084 3056 2656 
Q 3513 2228 3513 1497 
Q 3513 744 3044 326 
Q 2575 -91 1722 -91 
Q 1428 -91 1123 -41 
Q 819 9 494 109 
L 494 744 
Q 775 591 1075 516 
Q 1375 441 1709 441 
Q 2250 441 2565 725 
Q 2881 1009 2881 1497 
Q 2881 1984 2565 2268 
Q 2250 2553 1709 2553 
Q 1456 2553 1204 2497 
Q 953 2441 691 2322 
L 691 4666 
z
" transform="scale(0.015625)"/>
       </defs>
       <use xlink:href="#DejaVuSans-30"/>
       <use xlink:href="#DejaVuSans-2e" x="63.623047"/>
       <use xlink:href="#DejaVuSans-35" x="95.410156"/>
      </g>
     </g>
    </g>
    <g id="ytick_7">
     <g id="line2d_12">
      <g>
       <use xlink:href="#mac21341b7f" x="43.78125" y="85.629453" style="stroke: #000000; stroke-width: 0.8"/>
      </g>
     </g>
     <g id="text_13">
      <!-- 0.6 -->
      <g transform="translate(20.878125 89.428672) scale(0.1 -0.1)">
       <use xlink:href="#DejaVuSans-30"/>
       <use xlink:href="#DejaVuSans-2e" x="63.623047"/>
       <use xlink:href="#DejaVuSans-36" x="95.410156"/>
      </g>
     </g>
    </g>
    <g id="ytick_8">
     <g id="line2d_13">
      <g>
       <use xlink:href="#mac21341b7f" x="43.78125" y="51.829341" style="stroke: #000000; stroke-width: 0.8"/>
      </g>
     </g>
     <g id="text_14">
      <!-- 0.7 -->
      <g transform="translate(20.878125 55.62856) scale(0.1 -0.1)">
       <defs>
        <path id="DejaVuSans-37" d="M 525 4666 
L 3525 4666 
L 3525 4397 
L 1831 0 
L 1172 0 
L 2766 4134 
L 525 4134 
L 525 4666 
z
" transform="scale(0.015625)"/>
       </defs>
       <use xlink:href="#DejaVuSans-30"/>
       <use xlink:href="#DejaVuSans-2e" x="63.623047"/>
       <use xlink:href="#DejaVuSans-37" x="95.410156"/>
      </g>
     </g>
    </g>
    <g id="text_15">
     <!-- Utilization (%) -->
     <g transform="translate(14.798438 190.667875) rotate(-90) scale(0.1 -0.1)">
      <defs>
       <path id="DejaVuSans-55" d="M 556 4666 
L 1191 4666 
L 1191 1831 
Q 1191 1081 1462 751 
Q 1734 422 2344 422 
Q 2950 422 3222 751 
Q 3494 1081 3494 1831 
L 3494 4666 
L 4128 4666 
L 4128 1753 
Q 4128 841 3676 375 
Q 3225 -91 2344 -91 
Q 1459 -91 1007 375 
Q 556 841 556 1753 
L 556 4666 
z
" transform="scale(0.015625)"/>
       <path id="DejaVuSans-74" d="M 1172 4494 
L 1172 3500 
L 2356 3500 
L 2356 3053 
L 1172 3053 
L 1172 1153 
Q 1172 725 1289 603 
Q 1406 481 1766 481 
L 2356 481 
L 2356 0 
L 1766 0 
Q 1100 0 847 248 
Q 594 497 594 1153 
L 594 3053 
L 172 3053 
L 172 3500 
L 594 3500 
L 594 4494 
L 1172 4494 
z
" transform="scale(0.015625)"/>
       <path id="DejaVuSans-6c" d="M 603 4863 
L 1178 4863 
L 1178 0 
L 603 0 
L 603 4863 
z
" transform="scale(0.015625)"/>
       <path id="DejaVuSans-7a" d="M 353 3500 
L 3084 3500 
L 3084 2975 
L 922 459 
L 3084 459 
L 3084 0 
L 275 0 
L 275 525 
L 2438 3041 
L 353 3041 
L 353 3500 
z
" transform="scale(0.015625)"/>
       <path id="DejaVuSans-61" d="M 2194 1759 
Q 1497 1759 1228 1600 
Q 959 1441 959 1056 
Q 959 750 1161 570 
Q 1363 391 1709 391 
Q 2188 391 2477 730 
Q 2766 1069 2766 1631 
L 2766 1759 
L 2194 1759 
z
M 3341 1997 
L 3341 0 
L 2766 0 
L 2766 531 
Q 2569 213 2275 61 
Q 1981 -91 1556 -91 
Q 1019 -91 701 211 
Q 384 513 384 1019 
Q 384 1609 779 1909 
Q 1175 2209 1959 2209 
L 2766 2209 
L 2766 2266 
Q 2766 2663 2505 2880 
Q 2244 3097 1772 3097 
Q 1472 3097 1187 3025 
Q 903 2953 641 2809 
L 641 3341 
Q 956 3463 1253 3523 
Q 1550 3584 1831 3584 
Q 2591 3584 2966 3190 
Q 3341 2797 3341 1997 
z
" transform="scale(0.015625)"/>
       <path id="DejaVuSans-6f" d="M 1959 3097 
Q 1497 3097 1228 2736 
Q 959 2375 959 1747 
Q 959 1119 1226 758 
Q 1494 397 1959 397 
Q 2419 397 2687 759 
Q 2956 1122 2956 1747 
Q 2956 2369 2687 2733 
Q 2419 3097 1959 3097 
z
M 1959 3584 
Q 2709 3584 3137 3096 
Q 3566 2609 3566 1747 
Q 3566 888 3137 398 
Q 2709 -91 1959 -91 
Q 1206 -91 779 398 
Q 353 888 353 1747 
Q 353 2609 779 3096 
Q 1206 3584 1959 3584 
z
" transform="scale(0.015625)"/>
       <path id="DejaVuSans-6e" d="M 3513 2113 
L 3513 0 
L 2938 0 
L 2938 2094 
Q 2938 2591 2744 2837 
Q 2550 3084 2163 3084 
Q 1697 3084 1428 2787 
Q 1159 2491 1159 1978 
L 1159 0 
L 581 0 
L 581 3500 
L 1159 3500 
L 1159 2956 
Q 1366 3272 1645 3428 
Q 1925 3584 2291 3584 
Q 2894 3584 3203 3211 
Q 3513 2838 3513 2113 
z
" transform="scale(0.015625)"/>
       <path id="DejaVuSans-25" d="M 4653 2053 
Q 4381 2053 4226 1822 
Q 4072 1591 4072 1178 
Q 4072 772 4226 539 
Q 4381 306 4653 306 
Q 4919 306 5073 539 
Q 5228 772 5228 1178 
Q 5228 1588 5073 1820 
Q 4919 2053 4653 2053 
z
M 4653 2450 
Q 5147 2450 5437 2106 
Q 5728 1763 5728 1178 
Q 5728 594 5436 251 
Q 5144 -91 4653 -91 
Q 4153 -91 3862 251 
Q 3572 594 3572 1178 
Q 3572 1766 3864 2108 
Q 4156 2450 4653 2450 
z
M 1428 4353 
Q 1159 4353 1004 4120 
Q 850 3888 850 3481 
Q 850 3069 1003 2837 
Q 1156 2606 1428 2606 
Q 1700 2606 1854 2837 
Q 2009 3069 2009 3481 
Q 2009 3884 1853 4118 
Q 1697 4353 1428 4353 
z
M 4250 4750 
L 4750 4750 
L 1831 -91 
L 1331 -91 
L 4250 4750 
z
M 1428 4750 
Q 1922 4750 2215 4408 
Q 2509 4066 2509 3481 
Q 2509 2891 2217 2550 
Q 1925 2209 1428 2209 
Q 931 2209 642 2551 
Q 353 2894 353 3481 
Q 353 4063 643 4406 
Q 934 4750 1428 4750 
z
" transform="scale(0.015625)"/>
      </defs>
      <use xlink:href="#DejaVuSans-55"/>
      <use xlink:href="#DejaVuSans-74" x="73.193359"/>
      <use xlink:href="#DejaVuSans-69" x="112.402344"/>
      <use xlink:href="#DejaVuSans-6c" x="140.185547"/>
      <use xlink:href="#DejaVuSans-69" x="167.96875"/>
      <use xlink:href="#DejaVuSans-7a" x="195.751953"/>
      <use xlink:href="#DejaVuSans-61" x="248.242188"/>
      <use xlink:href="#DejaVuSans-74" x="309.521484"/>
      <use xlink:href="#DejaVuSans-69" x="348.730469"/>
      <use xlink:href="#DejaVuSans-6f" x="376.513672"/>
      <use xlink:href="#DejaVuSans-6e" x="437.695312"/>
      <use xlink:href="#DejaVuSans-20" x="501.074219"/>
      <use xlink:href="#DejaVuSans-28" x="532.861328"/>
      <use xlink:href="#DejaVuSans-25" x="571.875"/>
      <use xlink:href="#DejaVuSans-29" x="666.894531"/>
     </g>
    </g>
   </g>
   <g id="line2d_14">
    <path d="M 366.074337 285.029834 
L 366.074337 210.007105 
" clip-path="url(#pa5d524f9b5)" style="fill: none; stroke-dasharray: 5.55,2.4; stroke-dashoffset: 0; stroke: #1f77b4; stroke-width: 1.5"/>
   </g>
   <g id="line2d_15">
    <path d="M 125.121634 285.029834 
L 125.121634 210.007105 
" clip-path="url(#pa5d524f9b5)" style="fill: none; stroke-dasharray: 5.55,2.4; stroke-dashoffset: 0; stroke: #ff7f0e; stroke-width: 1.5"/>
   </g>
   <g id="line2d_16">
    <path d="M 173.053791 285.063634 
L 173.053791 229.962691 
" clip-path="url(#pa5d524f9b5)" style="fill: none; stroke-dasharray: 5.55,2.4; stroke-dashoffset: 0; stroke: #2ca02c; stroke-width: 1.5"/>
   </g>
   <g id="line2d_17">
    <path d="M 132.562726 285.063634 
L 132.562726 229.962691 
" clip-path="url(#pa5d524f9b5)" style="fill: none; stroke-dasharray: 5.55,2.4; stroke-dashoffset: 0; stroke: #d62728; stroke-width: 1.5"/>
   </g>
   <g id="patch_3">
    <path d="M 43.78125 288.430125 
L 43.78125 22.318125 
" style="fill: none; stroke: #000000; stroke-width: 0.8; stroke-linejoin: miter; stroke-linecap: square"/>
   </g>
   <g id="patch_4">
    <path d="M 400.90125 288.430125 
L 400.90125 22.318125 
" style="fill: none; stroke: #000000; stroke-width: 0.8; stroke-linejoin: miter; stroke-linecap: square"/>
   </g>
   <g id="patch_5">
    <path d="M 43.78125 288.430125 
L 400.90125 288.430125 
" style="fill: none; stroke: #000000; stroke-width: 0.8; stroke-linejoin: miter; stroke-linecap: square"/>
   </g>
   <g id="patch_6">
    <path d="M 43.78125 22.318125 
L 400.90125 22.318125 
" style="fill: none; stroke: #000000; stroke-width: 0.8; stroke-linejoin: miter; stroke-linecap: square"/>
   </g>
   <g id="text_16">
    <!-- scale-cluster (cpu) -->
    <g transform="translate(166.812187 16.318125) scale(0.12 -0.12)">
     <defs>
      <path id="DejaVuSans-63" d="M 3122 3366 
L 3122 2828 
Q 2878 2963 2633 3030 
Q 2388 3097 2138 3097 
Q 1578 3097 1268 2742 
Q 959 2388 959 1747 
Q 959 1106 1268 751 
Q 1578 397 2138 397 
Q 2388 397 2633 464 
Q 2878 531 3122 666 
L 3122 134 
Q 2881 22 2623 -34 
Q 2366 -91 2075 -91 
Q 1284 -91 818 406 
Q 353 903 353 1747 
Q 353 2603 823 3093 
Q 1294 3584 2113 3584 
Q 2378 3584 2631 3529 
Q 2884 3475 3122 3366 
z
" transform="scale(0.015625)"/>
      <path id="DejaVuSans-2d" d="M 313 2009 
L 1997 2009 
L 1997 1497 
L 313 1497 
L 313 2009 
z
" transform="scale(0.015625)"/>
      <path id="DejaVuSans-75" d="M 544 1381 
L 544 3500 
L 1119 3500 
L 1119 1403 
Q 1119 906 1312 657 
Q 1506 409 1894 409 
Q 2359 409 2629 706 
Q 2900 1003 2900 1516 
L 2900 3500 
L 3475 3500 
L 3475 0 
L 2900 0 
L 2900 538 
Q 2691 219 2414 64 
Q 2138 -91 1772 -91 
Q 1169 -91 856 284 
Q 544 659 544 1381 
z
M 1991 3584 
L 1991 3584 
z
" transform="scale(0.015625)"/>
      <path id="DejaVuSans-72" d="M 2631 2963 
Q 2534 3019 2420 3045 
Q 2306 3072 2169 3072 
Q 1681 3072 1420 2755 
Q 1159 2438 1159 1844 
L 1159 0 
L 581 0 
L 581 3500 
L 1159 3500 
L 1159 2956 
Q 1341 3275 1631 3429 
Q 1922 3584 2338 3584 
Q 2397 3584 2469 3576 
Q 2541 3569 2628 3553 
L 2631 2963 
z
" transform="scale(0.015625)"/>
      <path id="DejaVuSans-70" d="M 1159 525 
L 1159 -1331 
L 581 -1331 
L 581 3500 
L 1159 3500 
L 1159 2969 
Q 1341 3281 1617 3432 
Q 1894 3584 2278 3584 
Q 2916 3584 3314 3078 
Q 3713 2572 3713 1747 
Q 3713 922 3314 415 
Q 2916 -91 2278 -91 
Q 1894 -91 1617 61 
Q 1341 213 1159 525 
z
M 3116 1747 
Q 3116 2381 2855 2742 
Q 2594 3103 2138 3103 
Q 1681 3103 1420 2742 
Q 1159 2381 1159 1747 
Q 1159 1113 1420 752 
Q 1681 391 2138 391 
Q 2594 391 2855 752 
Q 3116 1113 3116 1747 
z
" transform="scale(0.015625)"/>
     </defs>
     <use xlink:href="#DejaVuSans-73"/>
     <use xlink:href="#DejaVuSans-63" x="52.099609"/>
     <use xlink:href="#DejaVuSans-61" x="107.080078"/>
     <use xlink:href="#DejaVuSans-6c" x="168.359375"/>
     <use xlink:href="#DejaVuSans-65" x="196.142578"/>
     <use xlink:href="#DejaVuSans-2d" x="257.666016"/>
     <use xlink:href="#DejaVuSans-63" x="293.75"/>
     <use xlink:href="#DejaVuSans-6c" x="348.730469"/>
     <use xlink:href="#DejaVuSans-75" x="376.513672"/>
     <use xlink:href="#DejaVuSans-73" x="439.892578"/>
     <use xlink:href="#DejaVuSans-74" x="491.992188"/>
     <use xlink:href="#DejaVuSans-65" x="531.201172"/>
     <use xlink:href="#DejaVuSans-72" x="592.724609"/>
     <use xlink:href="#DejaVuSans-20" x="633.837891"/>
     <use xlink:href="#DejaVuSans-28" x="665.625"/>
     <use xlink:href="#DejaVuSans-63" x="704.638672"/>
     <use xlink:href="#DejaVuSans-70" x="759.619141"/>
     <use xlink:href="#DejaVuSans-75" x="823.095703"/>
     <use xlink:href="#DejaVuSans-29" x="886.474609"/>
    </g>
   </g>
   <g id="legend_1">
    <g id="patch_7">
     <path d="M 425.75725 118.386875 
L 568.385375 118.386875 
Q 570.385375 118.386875 570.385375 116.386875 
L 570.385375 29.318125 
Q 570.385375 27.318125 568.385375 27.318125 
L 425.75725 27.318125 
Q 423.75725 27.318125 423.75725 29.318125 
L 423.75725 116.386875 
Q 423.75725 118.386875 425.75725 118.386875 
z
" style="fill: #ffffff; opacity: 0.8; stroke: #cccccc; stroke-linejoin: miter"/>
    </g>
    <g id="patch_8">
     <path d="M 427.75725 38.916562 
L 447.75725 38.916562 
L 447.75725 31.916562 
L 427.75725 31.916562 
z
" style="fill: #33b07a"/>
    </g>
    <g id="text_17">
     <!-- kubevirt -->
     <g transform="translate(455.75725 38.916562) scale(0.1 -0.1)">
      <defs>
       <path id="DejaVuSans-6b" d="M 581 4863 
L 1159 4863 
L 1159 1991 
L 2875 3500 
L 3609 3500 
L 1753 1863 
L 3688 0 
L 2938 0 
L 1159 1709 
L 1159 0 
L 581 0 
L 581 4863 
z
" transform="scale(0.015625)"/>
       <path id="DejaVuSans-62" d="M 3116 1747 
Q 3116 2381 2855 2742 
Q 2594 3103 2138 3103 
Q 1681 3103 1420 2742 
Q 1159 2381 1159 1747 
Q 1159 1113 1420 752 
Q 1681 391 2138 391 
Q 2594 391 2855 752 
Q 3116 1113 3116 1747 
z
M 1159 2969 
Q 1341 3281 1617 3432 
Q 1894 3584 2278 3584 
Q 2916 3584 3314 3078 
Q 3713 2572 3713 1747 
Q 3713 922 3314 415 
Q 2916 -91 2278 -91 
Q 1894 -91 1617 61 
Q 1341 213 1159 525 
L 1159 0 
L 581 0 
L 581 4863 
L 1159 4863 
L 1159 2969 
z
" transform="scale(0.015625)"/>
       <path id="DejaVuSans-76" d="M 191 3500 
L 800 3500 
L 1894 563 
L 2988 3500 
L 3597 3500 
L 2284 0 
L 1503 0 
L 191 3500 
z
" transform="scale(0.015625)"/>
      </defs>
      <use xlink:href="#DejaVuSans-6b"/>
      <use xlink:href="#DejaVuSans-75" x="54.785156"/>
      <use xlink:href="#DejaVuSans-62" x="118.164062"/>
      <use xlink:href="#DejaVuSans-65" x="181.640625"/>
      <use xlink:href="#DejaVuSans-76" x="243.164062"/>
      <use xlink:href="#DejaVuSans-69" x="302.34375"/>
      <use xlink:href="#DejaVuSans-72" x="330.126953"/>
      <use xlink:href="#DejaVuSans-74" x="371.240234"/>
     </g>
    </g>
    <g id="line2d_18">
     <path d="M 427.75725 50.094688 
L 437.75725 50.094688 
L 447.75725 50.094688 
" style="fill: none; stroke-dasharray: 5.55,2.4; stroke-dashoffset: 0; stroke: #1f77b4; stroke-width: 1.5"/>
    </g>
    <g id="text_18">
     <!-- kubevirt finished -->
     <g transform="translate(455.75725 53.594688) scale(0.1 -0.1)">
      <defs>
       <path id="DejaVuSans-66" d="M 2375 4863 
L 2375 4384 
L 1825 4384 
Q 1516 4384 1395 4259 
Q 1275 4134 1275 3809 
L 1275 3500 
L 2222 3500 
L 2222 3053 
L 1275 3053 
L 1275 0 
L 697 0 
L 697 3053 
L 147 3053 
L 147 3500 
L 697 3500 
L 697 3744 
Q 697 4328 969 4595 
Q 1241 4863 1831 4863 
L 2375 4863 
z
" transform="scale(0.015625)"/>
       <path id="DejaVuSans-68" d="M 3513 2113 
L 3513 0 
L 2938 0 
L 2938 2094 
Q 2938 2591 2744 2837 
Q 2550 3084 2163 3084 
Q 1697 3084 1428 2787 
Q 1159 2491 1159 1978 
L 1159 0 
L 581 0 
L 581 4863 
L 1159 4863 
L 1159 2956 
Q 1366 3272 1645 3428 
Q 1925 3584 2291 3584 
Q 2894 3584 3203 3211 
Q 3513 2838 3513 2113 
z
" transform="scale(0.015625)"/>
       <path id="DejaVuSans-64" d="M 2906 2969 
L 2906 4863 
L 3481 4863 
L 3481 0 
L 2906 0 
L 2906 525 
Q 2725 213 2448 61 
Q 2172 -91 1784 -91 
Q 1150 -91 751 415 
Q 353 922 353 1747 
Q 353 2572 751 3078 
Q 1150 3584 1784 3584 
Q 2172 3584 2448 3432 
Q 2725 3281 2906 2969 
z
M 947 1747 
Q 947 1113 1208 752 
Q 1469 391 1925 391 
Q 2381 391 2643 752 
Q 2906 1113 2906 1747 
Q 2906 2381 2643 2742 
Q 2381 3103 1925 3103 
Q 1469 3103 1208 2742 
Q 947 2381 947 1747 
z
" transform="scale(0.015625)"/>
      </defs>
      <use xlink:href="#DejaVuSans-6b"/>
      <use xlink:href="#DejaVuSans-75" x="54.785156"/>
      <use xlink:href="#DejaVuSans-62" x="118.164062"/>
      <use xlink:href="#DejaVuSans-65" x="181.640625"/>
      <use xlink:href="#DejaVuSans-76" x="243.164062"/>
      <use xlink:href="#DejaVuSans-69" x="302.34375"/>
      <use xlink:href="#DejaVuSans-72" x="330.126953"/>
      <use xlink:href="#DejaVuSans-74" x="371.240234"/>
      <use xlink:href="#DejaVuSans-20" x="410.449219"/>
      <use xlink:href="#DejaVuSans-66" x="442.236328"/>
      <use xlink:href="#DejaVuSans-69" x="477.441406"/>
      <use xlink:href="#DejaVuSans-6e" x="505.224609"/>
      <use xlink:href="#DejaVuSans-69" x="568.603516"/>
      <use xlink:href="#DejaVuSans-73" x="596.386719"/>
      <use xlink:href="#DejaVuSans-68" x="648.486328"/>
      <use xlink:href="#DejaVuSans-65" x="711.865234"/>
      <use xlink:href="#DejaVuSans-64" x="773.388672"/>
     </g>
    </g>
    <g id="line2d_19">
     <path d="M 427.75725 64.772812 
L 437.75725 64.772812 
L 447.75725 64.772812 
" style="fill: none; stroke-dasharray: 5.55,2.4; stroke-dashoffset: 0; stroke: #ff7f0e; stroke-width: 1.5"/>
    </g>
    <g id="text_19">
     <!-- kubevirt scaled-up -->
     <g transform="translate(455.75725 68.272812) scale(0.1 -0.1)">
      <use xlink:href="#DejaVuSans-6b"/>
      <use xlink:href="#DejaVuSans-75" x="54.785156"/>
      <use xlink:href="#DejaVuSans-62" x="118.164062"/>
      <use xlink:href="#DejaVuSans-65" x="181.640625"/>
      <use xlink:href="#DejaVuSans-76" x="243.164062"/>
      <use xlink:href="#DejaVuSans-69" x="302.34375"/>
      <use xlink:href="#DejaVuSans-72" x="330.126953"/>
      <use xlink:href="#DejaVuSans-74" x="371.240234"/>
      <use xlink:href="#DejaVuSans-20" x="410.449219"/>
      <use xlink:href="#DejaVuSans-73" x="442.236328"/>
      <use xlink:href="#DejaVuSans-63" x="494.335938"/>
      <use xlink:href="#DejaVuSans-61" x="549.316406"/>
      <use xlink:href="#DejaVuSans-6c" x="610.595703"/>
      <use xlink:href="#DejaVuSans-65" x="638.378906"/>
      <use xlink:href="#DejaVuSans-64" x="699.902344"/>
      <use xlink:href="#DejaVuSans-2d" x="763.378906"/>
      <use xlink:href="#DejaVuSans-75" x="799.462891"/>
      <use xlink:href="#DejaVuSans-70" x="862.841797"/>
     </g>
    </g>
    <g id="patch_9">
     <path d="M 427.75725 82.950938 
L 447.75725 82.950938 
L 447.75725 75.950938 
L 427.75725 75.950938 
z
" style="fill: #ae9d31"/>
    </g>
    <g id="text_20">
     <!-- opennebula -->
     <g transform="translate(455.75725 82.950938) scale(0.1 -0.1)">
      <use xlink:href="#DejaVuSans-6f"/>
      <use xlink:href="#DejaVuSans-70" x="61.181641"/>
      <use xlink:href="#DejaVuSans-65" x="124.658203"/>
      <use xlink:href="#DejaVuSans-6e" x="186.181641"/>
      <use xlink:href="#DejaVuSans-6e" x="249.560547"/>
      <use xlink:href="#DejaVuSans-65" x="312.939453"/>
      <use xlink:href="#DejaVuSans-62" x="374.462891"/>
      <use xlink:href="#DejaVuSans-75" x="437.939453"/>
      <use xlink:href="#DejaVuSans-6c" x="501.318359"/>
      <use xlink:href="#DejaVuSans-61" x="529.101562"/>
     </g>
    </g>
    <g id="line2d_20">
     <path d="M 427.75725 94.129063 
L 437.75725 94.129063 
L 447.75725 94.129063 
" style="fill: none; stroke-dasharray: 5.55,2.4; stroke-dashoffset: 0; stroke: #2ca02c; stroke-width: 1.5"/>
    </g>
    <g id="text_21">
     <!-- opennebula finished -->
     <g transform="translate(455.75725 97.629063) scale(0.1 -0.1)">
      <use xlink:href="#DejaVuSans-6f"/>
      <use xlink:href="#DejaVuSans-70" x="61.181641"/>
      <use xlink:href="#DejaVuSans-65" x="124.658203"/>
      <use xlink:href="#DejaVuSans-6e" x="186.181641"/>
      <use xlink:href="#DejaVuSans-6e" x="249.560547"/>
      <use xlink:href="#DejaVuSans-65" x="312.939453"/>
      <use xlink:href="#DejaVuSans-62" x="374.462891"/>
      <use xlink:href="#DejaVuSans-75" x="437.939453"/>
      <use xlink:href="#DejaVuSans-6c" x="501.318359"/>
      <use xlink:href="#DejaVuSans-61" x="529.101562"/>
      <use xlink:href="#DejaVuSans-20" x="590.380859"/>
      <use xlink:href="#DejaVuSans-66" x="622.167969"/>
      <use xlink:href="#DejaVuSans-69" x="657.373047"/>
      <use xlink:href="#DejaVuSans-6e" x="685.15625"/>
      <use xlink:href="#DejaVuSans-69" x="748.535156"/>
      <use xlink:href="#DejaVuSans-73" x="776.318359"/>
      <use xlink:href="#DejaVuSans-68" x="828.417969"/>
      <use xlink:href="#DejaVuSans-65" x="891.796875"/>
      <use xlink:href="#DejaVuSans-64" x="953.320312"/>
     </g>
    </g>
    <g id="line2d_21">
     <path d="M 427.75725 108.807187 
L 437.75725 108.807187 
L 447.75725 108.807187 
" style="fill: none; stroke-dasharray: 5.55,2.4; stroke-dashoffset: 0; stroke: #d62728; stroke-width: 1.5"/>
    </g>
    <g id="text_22">
     <!-- opennebula scaled-up -->
     <g transform="translate(455.75725 112.307187) scale(0.1 -0.1)">
      <use xlink:href="#DejaVuSans-6f"/>
      <use xlink:href="#DejaVuSans-70" x="61.181641"/>
      <use xlink:href="#DejaVuSans-65" x="124.658203"/>
      <use xlink:href="#DejaVuSans-6e" x="186.181641"/>
      <use xlink:href="#DejaVuSans-6e" x="249.560547"/>
      <use xlink:href="#DejaVuSans-65" x="312.939453"/>
      <use xlink:href="#DejaVuSans-62" x="374.462891"/>
      <use xlink:href="#DejaVuSans-75" x="437.939453"/>
      <use xlink:href="#DejaVuSans-6c" x="501.318359"/>
      <use xlink:href="#DejaVuSans-61" x="529.101562"/>
      <use xlink:href="#DejaVuSans-20" x="590.380859"/>
      <use xlink:href="#DejaVuSans-73" x="622.167969"/>
      <use xlink:href="#DejaVuSans-63" x="674.267578"/>
      <use xlink:href="#DejaVuSans-61" x="729.248047"/>
      <use xlink:href="#DejaVuSans-6c" x="790.527344"/>
      <use xlink:href="#DejaVuSans-65" x="818.310547"/>
      <use xlink:href="#DejaVuSans-64" x="879.833984"/>
      <use xlink:href="#DejaVuSans-2d" x="943.310547"/>
      <use xlink:href="#DejaVuSans-75" x="979.394531"/>
      <use xlink:href="#DejaVuSans-70" x="1042.773438"/>
     </g>
    </g>
   </g>
  </g>
 </g>
 <defs>
  <clipPath id="pa5d524f9b5">
   <rect x="43.78125" y="22.318125" width="357.12" height="266.112"/>
  </clipPath>
 </defs>
</svg>
