<?xml version="1.0" encoding="utf-8" standalone="no"?>
<!DOCTYPE svg PUBLIC "-//W3C//DTD SVG 1.1//EN"
  "http://www.w3.org/Graphics/SVG/1.1/DTD/svg11.dtd">
<svg xmlns:xlink="http://www.w3.org/1999/xlink" width="555.451562pt" height="287.233281pt" viewBox="0 0 555.451562 287.233281" xmlns="http://www.w3.org/2000/svg" version="1.1">
 <metadata>
  <rdf:RDF xmlns:dc="http://purl.org/dc/elements/1.1/" xmlns:cc="http://creativecommons.org/ns#" xmlns:rdf="http://www.w3.org/1999/02/22-rdf-syntax-ns#">
   <cc:Work>
    <dc:type rdf:resource="http://purl.org/dc/dcmitype/StillImage"/>
    <dc:date>2024-05-21T10:08:01.010232</dc:date>
    <dc:format>image/svg+xml</dc:format>
    <dc:creator>
     <cc:Agent>
      <dc:title>Matplotlib v3.8.4, https://matplotlib.org/</dc:title>
     </cc:Agent>
    </dc:creator>
   </cc:Work>
  </rdf:RDF>
 </metadata>
 <defs>
  <style type="text/css">*{stroke-linejoin: round; stroke-linecap: butt}</style>
 </defs>
 <g id="figure_1">
  <g id="patch_1">
   <path d="M 0 287.233281 
L 555.451562 287.233281 
L 555.451562 0 
L 0 0 
z
" style="fill: #ffffff"/>
  </g>
  <g id="axes_1">
   <g id="patch_2">
    <path d="M 46.051562 244.837969 
L 548.251563 244.837969 
L 548.251563 23.077969 
L 46.051562 23.077969 
z
" style="fill: #ffffff"/>
   </g>
   <g id="PolyCollection_1">
    <defs>
     <path id="m5256ebb495" d="M 68.878835 -83.636165 
L 68.878835 -42.395313 
L 69.022987 -42.395313 
L 70.592052 -42.395313 
L 72.329031 -42.395313 
L 84.050089 -42.395313 
L 84.421943 -42.395313 
L 85.88572 -42.395313 
L 88.214521 -42.395313 
L 88.763344 -42.395313 
L 89.164866 -42.395313 
L 89.321841 -42.395313 
L 89.613421 -42.395313 
L 90.383801 -42.395313 
L 90.720952 -42.395313 
L 91.706182 -42.395313 
L 93.916816 -42.395313 
L 95.143218 -42.395313 
L 97.000544 -42.395313 
L 97.144696 -42.395313 
L 98.655929 -42.395313 
L 98.713761 -42.395313 
L 99.733327 -42.395313 
L 100.45074 -42.395313 
L 110.869327 -42.395313 
L 114.007429 -42.395313 
L 116.33623 -42.395313 
L 116.885053 -42.395313 
L 117.286575 -42.395313 
L 117.44355 -42.395313 
L 117.73513 -42.395313 
L 118.842661 -42.395313 
L 119.827891 -42.395313 
L 122.038525 -42.395313 
L 123.264927 -42.395313 
L 125.122253 -42.395313 
L 125.266405 -42.395313 
L 126.232653 -42.395313 
L 126.604506 -42.395313 
L 126.777637 -42.395313 
L 126.83547 -42.395313 
L 127.855036 -42.395313 
L 128.572449 -42.395313 
L 132.566365 -42.395313 
L 138.991036 -42.395313 
L 142.129138 -42.395313 
L 144.457939 -42.395313 
L 145.006762 -42.395313 
L 145.408284 -42.395313 
L 145.565259 -42.395313 
L 145.856839 -42.395313 
L 146.96437 -42.395313 
L 150.160234 -42.395313 
L 153.243962 -42.395313 
L 153.388114 -42.395313 
L 154.354362 -42.395313 
L 154.726215 -42.395313 
L 154.899346 -42.395313 
L 155.976745 -42.395313 
L 156.694158 -42.395313 
L 160.688074 -42.395313 
L 162.010455 -42.395313 
L 165.44749 -42.395313 
L 167.112745 -42.395313 
L 169.018033 -42.395313 
L 170.250847 -42.395313 
L 172.579647 -42.395313 
L 173.128471 -42.395313 
L 173.529993 -42.395313 
L 173.686968 -42.395313 
L 175.086079 -42.395313 
L 181.509823 -42.395313 
L 182.476071 -42.395313 
L 182.847924 -42.395313 
L 183.021055 -42.395313 
L 184.098454 -42.395313 
L 184.815867 -42.395313 
L 188.039402 -42.395313 
L 188.809782 -42.395313 
L 190.132164 -42.395313 
L 192.342797 -42.395313 
L 193.569199 -42.395313 
L 195.234454 -42.395313 
L 195.426525 -42.395313 
L 197.139742 -42.395313 
L 201.25018 -42.395313 
L 201.651701 -42.395313 
L 201.808677 -42.395313 
L 203.207788 -42.395313 
L 209.631532 -42.395313 
L 210.597779 -42.395313 
L 210.969633 -42.395313 
L 211.142764 -42.395313 
L 212.220163 -42.395313 
L 212.43341 -42.395313 
L 214.762211 -42.395313 
L 216.161111 -42.395313 
L 216.931491 -42.395313 
L 218.253873 -42.395313 
L 220.464506 -42.395313 
L 221.690908 -42.395313 
L 223.356163 -42.395313 
L 223.548234 -42.395313 
L 225.261451 -42.395313 
L 226.99843 -42.395313 
L 229.77341 -42.395313 
L 231.329497 -42.395313 
L 237.75324 -42.395313 
L 238.719488 -42.395313 
L 239.091342 -42.395313 
L 239.264473 -42.395313 
L 240.341872 -42.395313 
L 240.555119 -42.395313 
L 242.88392 -42.395313 
L 243.432743 -42.395313 
L 243.99124 -42.395313 
L 244.28282 -42.395313 
L 245.0532 -42.395313 
L 246.375581 -42.395313 
L 248.586215 -42.395313 
L 249.812617 -42.395313 
L 251.477872 -42.395313 
L 251.669943 -42.395313 
L 253.38316 -42.395313 
L 255.120139 -42.395313 
L 259.451206 -42.395313 
L 265.874949 -42.395313 
L 266.841197 -42.395313 
L 267.213051 -42.395313 
L 267.386182 -42.395313 
L 268.463581 -42.395313 
L 268.676828 -42.395313 
L 271.005629 -42.395313 
L 271.554452 -42.395313 
L 271.955974 -42.395313 
L 272.112949 -42.395313 
L 272.404529 -42.395313 
L 273.174909 -42.395313 
L 274.49729 -42.395313 
L 276.707924 -42.395313 
L 277.934326 -42.395313 
L 279.599581 -42.395313 
L 279.791652 -42.395313 
L 281.504869 -42.395313 
L 283.241848 -42.395313 
L 293.996658 -42.395313 
L 294.962906 -42.395313 
L 295.334759 -42.395313 
L 295.507891 -42.395313 
L 296.58529 -42.395313 
L 296.798537 -42.395313 
L 299.127338 -42.395313 
L 299.676161 -42.395313 
L 300.077683 -42.395313 
L 300.234658 -42.395313 
L 300.526238 -42.395313 
L 301.296618 -42.395313 
L 301.633769 -42.395313 
L 302.618999 -42.395313 
L 304.829633 -42.395313 
L 306.056034 -42.395313 
L 307.72129 -42.395313 
L 307.913361 -42.395313 
L 309.626578 -42.395313 
L 311.363557 -42.395313 
L 323.084615 -42.395313 
L 323.456468 -42.395313 
L 323.6296 -42.395313 
L 324.706999 -42.395313 
L 324.920246 -42.395313 
L 327.249046 -42.395313 
L 327.79787 -42.395313 
L 328.199391 -42.395313 
L 328.356367 -42.395313 
L 328.647947 -42.395313 
L 329.418327 -42.395313 
L 329.755478 -42.395313 
L 330.740708 -42.395313 
L 332.951342 -42.395313 
L 334.177743 -42.395313 
L 336.03507 -42.395313 
L 336.179222 -42.395313 
L 337.748286 -42.395313 
L 339.485266 -42.395313 
L 349.903853 -42.395313 
L 351.206324 -42.395313 
L 351.578177 -42.395313 
L 351.751309 -42.395313 
L 352.828708 -42.395313 
L 353.041954 -42.395313 
L 355.370755 -42.395313 
L 355.919579 -42.395313 
L 356.3211 -42.395313 
L 356.478076 -42.395313 
L 356.769656 -42.395313 
L 357.877187 -42.395313 
L 358.862417 -42.395313 
L 361.07305 -42.395313 
L 362.299452 -42.395313 
L 364.156779 -42.395313 
L 364.300931 -42.395313 
L 365.869995 -42.395313 
L 367.606975 -42.395313 
L 371.60089 -42.395313 
L 378.025562 -42.395313 
L 379.699886 -42.395313 
L 381.163663 -42.395313 
L 383.492464 -42.395313 
L 384.041287 -42.395313 
L 384.442809 -42.395313 
L 384.599785 -42.395313 
L 384.891365 -42.395313 
L 385.998896 -42.395313 
L 386.984126 -42.395313 
L 389.194759 -42.395313 
L 390.421161 -42.395313 
L 392.278488 -42.395313 
L 392.422639 -42.395313 
L 393.388887 -42.395313 
L 393.933872 -42.395313 
L 393.991704 -42.395313 
L 395.011271 -42.395313 
L 395.728684 -42.395313 
L 399.722599 -42.395313 
L 406.147271 -42.395313 
L 409.285372 -42.395313 
L 411.614173 -42.395313 
L 412.162996 -42.395313 
L 412.564518 -42.395313 
L 412.721494 -42.395313 
L 413.013073 -42.395313 
L 414.120605 -42.395313 
L 417.316468 -42.395313 
L 420.544348 -42.395313 
L 421.510596 -42.395313 
L 421.88245 -42.395313 
L 422.055581 -42.395313 
L 422.113413 -42.395313 
L 423.13298 -42.395313 
L 423.850393 -42.395313 
L 427.844308 -42.395313 
L 429.166689 -42.395313 
L 432.603725 -42.395313 
L 434.26898 -42.395313 
L 434.461051 -42.395313 
L 437.407081 -42.395313 
L 439.735882 -42.395313 
L 440.284705 -42.395313 
L 440.686227 -42.395313 
L 440.843202 -42.395313 
L 441.134782 -42.395313 
L 442.242314 -42.395313 
L 445.438177 -42.395313 
L 448.666057 -42.395313 
L 449.632305 -42.395313 
L 450.004158 -42.395313 
L 450.17729 -42.395313 
L 451.254689 -42.395313 
L 455.966017 -42.395313 
L 457.288398 -42.395313 
L 460.725433 -42.395313 
L 462.390689 -42.395313 
L 462.58276 -42.395313 
L 464.295976 -42.395313 
L 465.52879 -42.395313 
L 466.032956 -42.395313 
L 468.406414 -42.395313 
L 468.807936 -42.395313 
L 468.964911 -42.395313 
L 470.364023 -42.395313 
L 476.787766 -42.395313 
L 477.754014 -42.395313 
L 478.125867 -42.395313 
L 478.298999 -42.395313 
L 479.376398 -42.395313 
L 481.918445 -42.395313 
L 483.317346 -42.395313 
L 484.087726 -42.395313 
L 485.410107 -42.395313 
L 487.620741 -42.395313 
L 487.620741 -95.733815 
L 487.620741 -95.733815 
L 485.410107 -94.292542 
L 484.087726 -94.512858 
L 483.317346 -94.232855 
L 481.918445 -94.28552 
L 479.376398 -94.116552 
L 478.298999 -93.732096 
L 478.125867 -93.904136 
L 477.754014 -93.004437 
L 476.787766 -90.555942 
L 470.364023 -89.841011 
L 468.964911 -87.051068 
L 468.807936 -86.986992 
L 468.406414 -87.154204 
L 466.032956 -87.197214 
L 465.52879 -87.374082 
L 464.295976 -87.264801 
L 462.58276 -87.544366 
L 462.390689 -87.327122 
L 460.725433 -86.947054 
L 457.288398 -86.893072 
L 455.966017 -87.045363 
L 451.254689 -87.207747 
L 450.17729 -87.326683 
L 450.004158 -87.152449 
L 449.632305 -87.100661 
L 448.666057 -86.869812 
L 445.438177 -90.395751 
L 442.242314 -90.232489 
L 441.134782 -90.625723 
L 440.843202 -90.799957 
L 440.686227 -91.007107 
L 440.284705 -90.952248 
L 439.735882 -91.225229 
L 437.407081 -91.226107 
L 434.461051 -91.332754 
L 434.26898 -91.664545 
L 432.603725 -91.667618 
L 429.166689 -91.563165 
L 427.844308 -92.392204 
L 423.850393 -92.919295 
L 423.13298 -93.575856 
L 422.113413 -93.691719 
L 422.055581 -93.676358 
L 421.88245 -95.973881 
L 421.510596 -96.373259 
L 420.544348 -97.103112 
L 417.316468 -97.728073 
L 414.120605 -97.83867 
L 413.013073 -97.841303 
L 412.721494 -98.005443 
L 412.564518 -98.565451 
L 412.162996 -99.070598 
L 411.614173 -99.133797 
L 409.285372 -99.423894 
L 406.147271 -99.373423 
L 399.722599 -100.441651 
L 395.728684 -100.71946 
L 395.011271 -100.944604 
L 393.991704 -101.599409 
L 393.933872 -102.26343 
L 393.388887 -102.270452 
L 392.422639 -104.577629 
L 392.278488 -104.860705 
L 390.421161 -107.552778 
L 389.194759 -108.879943 
L 386.984126 -112.457231 
L 385.998896 -114.133303 
L 384.891365 -115.436768 
L 384.599785 -118.993868 
L 384.442809 -124.204218 
L 384.041287 -126.350328 
L 383.492464 -130.205864 
L 381.163663 -130.375709 
L 379.699886 -133.996007 
L 378.025562 -138.577885 
L 371.60089 -139.021151 
L 367.606975 -142.481259 
L 365.869995 -146.486453 
L 364.300931 -148.024278 
L 364.156779 -149.952266 
L 362.299452 -149.897845 
L 361.07305 -150.949834 
L 358.862417 -153.082777 
L 357.877187 -154.706184 
L 356.769656 -156.844832 
L 356.478076 -158.928621 
L 356.3211 -160.227259 
L 355.919579 -162.699454 
L 355.370755 -165.338423 
L 353.041954 -166.901704 
L 352.828708 -169.771961 
L 351.751309 -172.161208 
L 351.578177 -173.934711 
L 351.206324 -174.827826 
L 349.903853 -177.048984 
L 339.485266 -179.573844 
L 337.748286 -182.263284 
L 336.179222 -184.276413 
L 336.03507 -182.356326 
L 334.177743 -183.688318 
L 332.951342 -183.413142 
L 330.740708 -184.958867 
L 329.755478 -185.690037 
L 329.418327 -187.226985 
L 328.647947 -188.328128 
L 328.356367 -190.36759 
L 328.199391 -190.597562 
L 327.79787 -190.599756 
L 327.249046 -192.297772 
L 324.920246 -192.463668 
L 324.706999 -193.102673 
L 323.6296 -193.575782 
L 323.456468 -195.256243 
L 323.084615 -195.092103 
L 311.363557 -195.437061 
L 309.626578 -193.633275 
L 307.913361 -193.404181 
L 307.72129 -193.343616 
L 306.056034 -193.437536 
L 304.829633 -193.99886 
L 302.618999 -193.718418 
L 301.633769 -193.943123 
L 301.296618 -193.725001 
L 300.526238 -193.980427 
L 300.234658 -193.368194 
L 300.077683 -193.522678 
L 299.676161 -193.790393 
L 299.127338 -193.114084 
L 296.798537 -193.16631 
L 296.58529 -193.279979 
L 295.507891 -192.792826 
L 295.334759 -192.565048 
L 294.962906 -192.723483 
L 293.996658 -191.028539 
L 283.241848 -190.691481 
L 281.504869 -188.054707 
L 279.791652 -187.285355 
L 279.599581 -184.20356 
L 277.934326 -182.58893 
L 276.707924 -181.4518 
L 274.49729 -177.517266 
L 273.174909 -171.981707 
L 272.404529 -170.162122 
L 272.112949 -166.428155 
L 271.955974 -166.488281 
L 271.554452 -163.196702 
L 271.005629 -159.119972 
L 268.676828 -158.837335 
L 268.463581 -155.488702 
L 267.386182 -151.372473 
L 267.213051 -149.495834 
L 266.841197 -148.396885 
L 265.874949 -148.559709 
L 259.451206 -147.566968 
L 255.120139 -146.647521 
L 253.38316 -145.796977 
L 251.669943 -143.659206 
L 251.477872 -141.858493 
L 249.812617 -141.459992 
L 248.586215 -139.926555 
L 246.375581 -138.742025 
L 245.0532 -136.962378 
L 244.28282 -134.853573 
L 243.99124 -132.807967 
L 243.432743 -130.60612 
L 242.88392 -130.280034 
L 240.555119 -128.633806 
L 240.341872 -126.378855 
L 239.264473 -124.177447 
L 239.091342 -122.233221 
L 238.719488 -120.457523 
L 237.75324 -119.34497 
L 231.329497 -119.671933 
L 229.77341 -118.333797 
L 226.99843 -117.60921 
L 225.261451 -116.177593 
L 223.548234 -114.917576 
L 223.356163 -113.319624 
L 221.690908 -112.936924 
L 220.464506 -112.659992 
L 218.253873 -110.9137 
L 216.931491 -110.521782 
L 216.161111 -108.88872 
L 214.762211 -107.835854 
L 212.43341 -105.77357 
L 212.220163 -105.824918 
L 211.142764 -105.154753 
L 210.969633 -104.446405 
L 210.597779 -103.947841 
L 209.631532 -103.116168 
L 203.207788 -102.451269 
L 201.808677 -101.725366 
L 201.651701 -101.888629 
L 201.25018 -101.448435 
L 197.139742 -100.99683 
L 195.426525 -100.28936 
L 195.234454 -100.295505 
L 193.569199 -99.797818 
L 192.342797 -99.306275 
L 190.132164 -99.083326 
L 188.809782 -98.648398 
L 188.039402 -98.257798 
L 184.815867 -98.469775 
L 184.098454 -98.147639 
L 183.021055 -97.927762 
L 182.847924 -97.548133 
L 182.476071 -97.655658 
L 181.509823 -97.54155 
L 175.086079 -97.19747 
L 173.686968 -96.705489 
L 173.529993 -96.476395 
L 173.128471 -96.52511 
L 172.579647 -96.628685 
L 170.250847 -96.463229 
L 169.018033 -96.201219 
L 167.112745 -95.808424 
L 165.44749 -95.855823 
L 162.010455 -95.464783 
L 160.688074 -95.338825 
L 156.694158 -95.236567 
L 155.976745 -95.122459 
L 154.899346 -95.2313 
L 154.726215 -95.289232 
L 154.354362 -95.0518 
L 153.388114 -94.724836 
L 153.243962 -94.499253 
L 150.160234 -93.667142 
L 146.96437 -92.95265 
L 145.856839 -93.107574 
L 145.565259 -92.718728 
L 145.408284 -91.53771 
L 145.006762 -90.542775 
L 144.457939 -88.813599 
L 142.129138 -89.14539 
L 138.991036 -88.767956 
L 132.566365 -88.314157 
L 128.572449 -88.585822 
L 127.855036 -87.805937 
L 126.83547 -87.173076 
L 126.777637 -86.902728 
L 126.604506 -86.630185 
L 126.232653 -86.509933 
L 125.266405 -86.347987 
L 125.122253 -86.240023 
L 123.264927 -86.068861 
L 122.038525 -85.519387 
L 119.827891 -84.909786 
L 118.842661 -84.807089 
L 117.73513 -84.902764 
L 117.44355 -84.798311 
L 117.286575 -84.577117 
L 116.885053 -84.357679 
L 116.33623 -84.298869 
L 114.007429 -84.352412 
L 110.869327 -84.512602 
L 100.45074 -84.672793 
L 99.733327 -84.292725 
L 98.713761 -84.682448 
L 98.655929 -84.409466 
L 97.144696 -84.24401 
L 97.000544 -84.74038 
L 95.143218 -84.85756 
L 93.916816 -84.801384 
L 91.706182 -84.804456 
L 90.720952 -84.861071 
L 90.383801 -84.964646 
L 89.613421 -84.694298 
L 89.321841 -84.528402 
L 89.164866 -84.251909 
L 88.763344 -84.358995 
L 88.214521 -84.636366 
L 85.88572 -84.523135 
L 84.421943 -84.679815 
L 84.050089 -84.566145 
L 72.329031 -84.350657 
L 70.592052 -84.133413 
L 69.022987 -84.078992 
L 68.878835 -83.636165 
z
" style="stroke: #009384; stroke-opacity: 0.7; stroke-width: 1.5"/>
    </defs>
    <g clip-path="url(#p5b20ccb63d)">
     <use xlink:href="#m5256ebb495" x="0" y="287.233281" style="fill: #009384; fill-opacity: 0.7; stroke: #009384; stroke-opacity: 0.7; stroke-width: 1.5"/>
    </g>
   </g>
   <g id="PolyCollection_2">
    <defs>
     <path id="m13e07381c6" d="M 68.878835 -131.745006 
L 68.878835 -83.636165 
L 69.022987 -84.078992 
L 70.592052 -84.133413 
L 72.329031 -84.350657 
L 84.050089 -84.566145 
L 84.421943 -84.679815 
L 85.88572 -84.523135 
L 88.214521 -84.636366 
L 88.763344 -84.358995 
L 89.164866 -84.251909 
L 89.321841 -84.528402 
L 89.613421 -84.694298 
L 90.383801 -84.964646 
L 90.720952 -84.861071 
L 91.706182 -84.804456 
L 93.916816 -84.801384 
L 95.143218 -84.85756 
L 97.000544 -84.74038 
L 97.144696 -84.24401 
L 98.655929 -84.409466 
L 98.713761 -84.682448 
L 99.733327 -84.292725 
L 100.45074 -84.672793 
L 110.869327 -84.512602 
L 114.007429 -84.352412 
L 116.33623 -84.298869 
L 116.885053 -84.357679 
L 117.286575 -84.577117 
L 117.44355 -84.798311 
L 117.73513 -84.902764 
L 118.842661 -84.807089 
L 119.827891 -84.909786 
L 122.038525 -85.519387 
L 123.264927 -86.068861 
L 125.122253 -86.240023 
L 125.266405 -86.347987 
L 126.232653 -86.509933 
L 126.604506 -86.630185 
L 126.777637 -86.902728 
L 126.83547 -87.173076 
L 127.855036 -87.805937 
L 128.572449 -88.585822 
L 132.566365 -88.314157 
L 138.991036 -88.767956 
L 142.129138 -89.14539 
L 144.457939 -88.813599 
L 145.006762 -90.542775 
L 145.408284 -91.53771 
L 145.565259 -92.718728 
L 145.856839 -93.107574 
L 146.96437 -92.95265 
L 150.160234 -93.667142 
L 153.243962 -94.499253 
L 153.388114 -94.724836 
L 154.354362 -95.0518 
L 154.726215 -95.289232 
L 154.899346 -95.2313 
L 155.976745 -95.122459 
L 156.694158 -95.236567 
L 160.688074 -95.338825 
L 162.010455 -95.464783 
L 165.44749 -95.855823 
L 167.112745 -95.808424 
L 169.018033 -96.201219 
L 170.250847 -96.463229 
L 172.579647 -96.628685 
L 173.128471 -96.52511 
L 173.529993 -96.476395 
L 173.686968 -96.705489 
L 175.086079 -97.19747 
L 181.509823 -97.54155 
L 182.476071 -97.655658 
L 182.847924 -97.548133 
L 183.021055 -97.927762 
L 184.098454 -98.147639 
L 184.815867 -98.469775 
L 188.039402 -98.257798 
L 188.809782 -98.648398 
L 190.132164 -99.083326 
L 192.342797 -99.306275 
L 193.569199 -99.797818 
L 195.234454 -100.295505 
L 195.426525 -100.28936 
L 197.139742 -100.99683 
L 201.25018 -101.448435 
L 201.651701 -101.888629 
L 201.808677 -101.725366 
L 203.207788 -102.451269 
L 209.631532 -103.116168 
L 210.597779 -103.947841 
L 210.969633 -104.446405 
L 211.142764 -105.154753 
L 212.220163 -105.824918 
L 212.43341 -105.77357 
L 214.762211 -107.835854 
L 216.161111 -108.88872 
L 216.931491 -110.521782 
L 218.253873 -110.9137 
L 220.464506 -112.659992 
L 221.690908 -112.936924 
L 223.356163 -113.319624 
L 223.548234 -114.917576 
L 225.261451 -116.177593 
L 226.99843 -117.60921 
L 229.77341 -118.333797 
L 231.329497 -119.671933 
L 237.75324 -119.34497 
L 238.719488 -120.457523 
L 239.091342 -122.233221 
L 239.264473 -124.177447 
L 240.341872 -126.378855 
L 240.555119 -128.633806 
L 242.88392 -130.280034 
L 243.432743 -130.60612 
L 243.99124 -132.807967 
L 244.28282 -134.853573 
L 245.0532 -136.962378 
L 246.375581 -138.742025 
L 248.586215 -139.926555 
L 249.812617 -141.459992 
L 251.477872 -141.858493 
L 251.669943 -143.659206 
L 253.38316 -145.796977 
L 255.120139 -146.647521 
L 259.451206 -147.566968 
L 265.874949 -148.559709 
L 266.841197 -148.396885 
L 267.213051 -149.495834 
L 267.386182 -151.372473 
L 268.463581 -155.488702 
L 268.676828 -158.837335 
L 271.005629 -159.119972 
L 271.554452 -163.196702 
L 271.955974 -166.488281 
L 272.112949 -166.428155 
L 272.404529 -170.162122 
L 273.174909 -171.981707 
L 274.49729 -177.517266 
L 276.707924 -181.4518 
L 277.934326 -182.58893 
L 279.599581 -184.20356 
L 279.791652 -187.285355 
L 281.504869 -188.054707 
L 283.241848 -190.691481 
L 293.996658 -191.028539 
L 294.962906 -192.723483 
L 295.334759 -192.565048 
L 295.507891 -192.792826 
L 296.58529 -193.279979 
L 296.798537 -193.16631 
L 299.127338 -193.114084 
L 299.676161 -193.790393 
L 300.077683 -193.522678 
L 300.234658 -193.368194 
L 300.526238 -193.980427 
L 301.296618 -193.725001 
L 301.633769 -193.943123 
L 302.618999 -193.718418 
L 304.829633 -193.99886 
L 306.056034 -193.437536 
L 307.72129 -193.343616 
L 307.913361 -193.404181 
L 309.626578 -193.633275 
L 311.363557 -195.437061 
L 323.084615 -195.092103 
L 323.456468 -195.256243 
L 323.6296 -193.575782 
L 324.706999 -193.102673 
L 324.920246 -192.463668 
L 327.249046 -192.297772 
L 327.79787 -190.599756 
L 328.199391 -190.597562 
L 328.356367 -190.36759 
L 328.647947 -188.328128 
L 329.418327 -187.226985 
L 329.755478 -185.690037 
L 330.740708 -184.958867 
L 332.951342 -183.413142 
L 334.177743 -183.688318 
L 336.03507 -182.356326 
L 336.179222 -184.276413 
L 337.748286 -182.263284 
L 339.485266 -179.573844 
L 349.903853 -177.048984 
L 351.206324 -174.827826 
L 351.578177 -173.934711 
L 351.751309 -172.161208 
L 352.828708 -169.771961 
L 353.041954 -166.901704 
L 355.370755 -165.338423 
L 355.919579 -162.699454 
L 356.3211 -160.227259 
L 356.478076 -158.928621 
L 356.769656 -156.844832 
L 357.877187 -154.706184 
L 358.862417 -153.082777 
L 361.07305 -150.949834 
L 362.299452 -149.897845 
L 364.156779 -149.952266 
L 364.300931 -148.024278 
L 365.869995 -146.486453 
L 367.606975 -142.481259 
L 371.60089 -139.021151 
L 378.025562 -138.577885 
L 379.699886 -133.996007 
L 381.163663 -130.375709 
L 383.492464 -130.205864 
L 384.041287 -126.350328 
L 384.442809 -124.204218 
L 384.599785 -118.993868 
L 384.891365 -115.436768 
L 385.998896 -114.133303 
L 386.984126 -112.457231 
L 389.194759 -108.879943 
L 390.421161 -107.552778 
L 392.278488 -104.860705 
L 392.422639 -104.577629 
L 393.388887 -102.270452 
L 393.933872 -102.26343 
L 393.991704 -101.599409 
L 395.011271 -100.944604 
L 395.728684 -100.71946 
L 399.722599 -100.441651 
L 406.147271 -99.373423 
L 409.285372 -99.423894 
L 411.614173 -99.133797 
L 412.162996 -99.070598 
L 412.564518 -98.565451 
L 412.721494 -98.005443 
L 413.013073 -97.841303 
L 414.120605 -97.83867 
L 417.316468 -97.728073 
L 420.544348 -97.103112 
L 421.510596 -96.373259 
L 421.88245 -95.973881 
L 422.055581 -93.676358 
L 422.113413 -93.691719 
L 423.13298 -93.575856 
L 423.850393 -92.919295 
L 427.844308 -92.392204 
L 429.166689 -91.563165 
L 432.603725 -91.667618 
L 434.26898 -91.664545 
L 434.461051 -91.332754 
L 437.407081 -91.226107 
L 439.735882 -91.225229 
L 440.284705 -90.952248 
L 440.686227 -91.007107 
L 440.843202 -90.799957 
L 441.134782 -90.625723 
L 442.242314 -90.232489 
L 445.438177 -90.395751 
L 448.666057 -86.869812 
L 449.632305 -87.100661 
L 450.004158 -87.152449 
L 450.17729 -87.326683 
L 451.254689 -87.207747 
L 455.966017 -87.045363 
L 457.288398 -86.893072 
L 460.725433 -86.947054 
L 462.390689 -87.327122 
L 462.58276 -87.544366 
L 464.295976 -87.264801 
L 465.52879 -87.374082 
L 466.032956 -87.197214 
L 468.406414 -87.154204 
L 468.807936 -86.986992 
L 468.964911 -87.051068 
L 470.364023 -89.841011 
L 476.787766 -90.555942 
L 477.754014 -93.004437 
L 478.125867 -93.904136 
L 478.298999 -93.732096 
L 479.376398 -94.116552 
L 481.918445 -94.28552 
L 483.317346 -94.232855 
L 484.087726 -94.512858 
L 485.410107 -94.292542 
L 485.410107 -156.968596 
L 485.410107 -156.968596 
L 484.087726 -156.698247 
L 483.317346 -155.870086 
L 481.918445 -154.752266 
L 479.376398 -153.237262 
L 478.298999 -152.126464 
L 478.125867 -149.961044 
L 477.754014 -148.133998 
L 476.787766 -145.574905 
L 470.364023 -142.458438 
L 468.964911 -139.22874 
L 468.807936 -138.770991 
L 468.406414 -139.32266 
L 466.032956 -138.320703 
L 465.52879 -138.231172 
L 464.295976 -137.68477 
L 462.58276 -137.793173 
L 462.390689 -137.577245 
L 460.725433 -135.714651 
L 457.288398 -134.039456 
L 455.966017 -134.025412 
L 451.254689 -132.816744 
L 450.17729 -133.103331 
L 450.004158 -132.879943 
L 449.632305 -132.60345 
L 448.666057 -130.115016 
L 445.438177 -133.64315 
L 442.242314 -133.362269 
L 441.134782 -133.586974 
L 440.843202 -133.870489 
L 440.686227 -134.078077 
L 440.284705 -133.586974 
L 439.735882 -133.970553 
L 437.407081 -133.750675 
L 434.461051 -134.406358 
L 434.26898 -134.632818 
L 432.603725 -134.470434 
L 429.166689 -134.749998 
L 427.844308 -136.23867 
L 423.850393 -137.104575 
L 423.13298 -137.771229 
L 422.113413 -138.505032 
L 422.055581 -139.211624 
L 421.88245 -141.451214 
L 421.510596 -142.239877 
L 420.544348 -143.410362 
L 417.316468 -144.093255 
L 414.120605 -144.307866 
L 413.013073 -144.751571 
L 412.721494 -144.812575 
L 412.564518 -146.027387 
L 412.162996 -146.306074 
L 411.614173 -146.872226 
L 409.285372 -147.398001 
L 406.147271 -147.736375 
L 399.722599 -148.525037 
L 395.728684 -149.342227 
L 395.011271 -150.391582 
L 393.991704 -152.201951 
L 393.933872 -152.650044 
L 393.388887 -152.656627 
L 392.422639 -155.404876 
L 392.278488 -155.684441 
L 390.421161 -158.209741 
L 389.194759 -160.323812 
L 386.984126 -163.67464 
L 385.998896 -165.454287 
L 384.891365 -167.090421 
L 384.599785 -171.038999 
L 384.442809 -176.865094 
L 384.041287 -178.633769 
L 383.492464 -183.320978 
L 381.163663 -183.434647 
L 379.699886 -187.440279 
L 378.025562 -192.40793 
L 371.60089 -192.852513 
L 367.606975 -196.478955 
L 365.869995 -200.871238 
L 364.300931 -202.79747 
L 364.156779 -204.335735 
L 362.299452 -204.158867 
L 361.07305 -205.043205 
L 358.862417 -207.684368 
L 357.877187 -209.311725 
L 356.769656 -211.55702 
L 356.478076 -213.96909 
L 356.3211 -215.096126 
L 355.919579 -217.567444 
L 355.370755 -220.496071 
L 353.041954 -222.222614 
L 352.828708 -225.260522 
L 351.751309 -227.372399 
L 351.578177 -229.58829 
L 351.206324 -230.481844 
L 349.903853 -232.746012 
L 339.485266 -235.387614 
L 337.748286 -238.411917 
L 336.179222 -240.271878 
L 336.03507 -238.574301 
L 334.177743 -239.963348 
L 332.951342 -239.980903 
L 330.740708 -242.085319 
L 329.755478 -243.099125 
L 329.418327 -244.861217 
L 328.647947 -245.909695 
L 328.356367 -248.109786 
L 328.199391 -248.286215 
L 327.79787 -248.564024 
L 327.249046 -250.427497 
L 324.920246 -250.981799 
L 324.706999 -251.236348 
L 323.6296 -251.648892 
L 323.456468 -253.595312 
L 323.084615 -253.195934 
L 311.363557 -252.929975 
L 309.626578 -251.124434 
L 307.913361 -250.672829 
L 307.72129 -250.163732 
L 306.056034 -250.363421 
L 304.829633 -250.811076 
L 302.618999 -249.817458 
L 301.633769 -250.105361 
L 301.296618 -249.0661 
L 300.526238 -249.381214 
L 300.234658 -248.418317 
L 300.077683 -248.015867 
L 299.676161 -248.060193 
L 299.127338 -247.335168 
L 296.798537 -247.34219 
L 296.58529 -246.744 
L 295.507891 -245.157898 
L 295.334759 -245.259279 
L 294.962906 -245.474768 
L 293.996658 -243.667032 
L 283.241848 -243.612173 
L 281.504869 -240.75991 
L 279.791652 -239.422212 
L 279.599581 -235.965176 
L 277.934326 -234.189918 
L 276.707924 -232.889525 
L 274.49729 -228.839566 
L 273.174909 -222.912968 
L 272.404529 -221.035451 
L 272.112949 -216.527744 
L 271.955974 -216.532571 
L 271.554452 -213.020676 
L 271.005629 -208.835982 
L 268.676828 -209.212977 
L 268.463581 -205.640078 
L 267.386182 -201.466356 
L 267.213051 -199.320246 
L 266.841197 -198.652275 
L 265.874949 -199.211844 
L 259.451206 -198.38851 
L 255.120139 -197.342227 
L 253.38316 -196.603596 
L 251.669943 -193.92074 
L 251.477872 -191.848801 
L 249.812617 -191.287477 
L 248.586215 -190.03536 
L 246.375581 -188.455402 
L 245.0532 -187.071622 
L 244.28282 -184.7899 
L 243.99124 -183.074768 
L 243.432743 -181.251233 
L 242.88392 -181.145024 
L 240.555119 -180.061876 
L 240.341872 -177.684039 
L 239.264473 -175.485264 
L 239.091342 -173.806559 
L 238.719488 -172.302965 
L 237.75324 -171.246149 
L 231.329497 -171.458127 
L 229.77341 -169.675846 
L 226.99843 -169.27954 
L 225.261451 -167.679833 
L 223.548234 -166.807345 
L 223.356163 -165.330084 
L 221.690908 -164.790265 
L 220.464506 -164.233769 
L 218.253873 -162.979019 
L 216.931491 -162.199134 
L 216.161111 -160.289141 
L 214.762211 -159.180098 
L 212.43341 -156.845271 
L 212.220163 -156.569218 
L 211.142764 -156.174667 
L 210.969633 -155.412337 
L 210.597779 -155.192021 
L 209.631532 -153.921471 
L 203.207788 -153.358831 
L 201.808677 -152.587285 
L 201.651701 -152.973497 
L 201.25018 -152.313425 
L 197.139742 -152.84315 
L 195.426525 -151.970223 
L 195.234454 -152.040444 
L 193.569199 -151.325952 
L 192.342797 -151.218866 
L 190.132164 -150.991966 
L 188.809782 -150.281424 
L 188.039402 -150.218226 
L 184.815867 -150.375782 
L 184.098454 -149.998787 
L 183.021055 -149.997909 
L 182.847924 -149.506806 
L 182.476071 -149.769693 
L 181.509823 -150.096218 
L 175.086079 -149.479156 
L 173.686968 -149.31765 
L 173.529993 -149.307116 
L 173.128471 -149.183353 
L 172.579647 -149.060906 
L 170.250847 -148.837518 
L 169.018033 -148.901594 
L 167.112745 -148.893694 
L 165.44749 -148.666795 
L 162.010455 -148.216068 
L 160.688074 -147.869355 
L 156.694158 -147.051727 
L 155.976745 -147.216744 
L 154.899346 -147.329536 
L 154.726215 -147.501137 
L 154.354362 -146.941568 
L 153.388114 -146.499619 
L 153.243962 -146.321435 
L 150.160234 -145.3344 
L 146.96437 -144.614641 
L 145.856839 -144.715583 
L 145.565259 -144.326738 
L 145.408284 -143.41914 
L 145.006762 -142.306586 
L 144.457939 -140.685374 
L 142.129138 -140.515089 
L 138.991036 -140.087184 
L 132.566365 -139.636018 
L 128.572449 -139.086983 
L 127.855036 -138.465533 
L 126.83547 -137.057176 
L 126.777637 -136.7899 
L 126.604506 -136.457231 
L 126.232653 -136.170205 
L 125.266405 -135.627753 
L 125.122253 -135.295084 
L 123.264927 -134.954954 
L 122.038525 -134.51476 
L 119.827891 -133.45575 
L 118.842661 -133.073926 
L 117.73513 -132.833861 
L 117.44355 -132.774612 
L 117.286575 -132.652604 
L 116.885053 -132.317302 
L 116.33623 -131.715163 
L 114.007429 -132.818939 
L 110.869327 -133.310481 
L 100.45074 -133.189351 
L 99.733327 -132.975618 
L 98.713761 -133.307848 
L 98.655929 -132.652604 
L 97.144696 -132.534107 
L 97.000544 -132.696053 
L 95.143218 -132.983079 
L 93.916816 -132.606961 
L 91.706182 -132.220749 
L 90.720952 -132.495925 
L 90.383801 -132.817622 
L 89.613421 -131.837609 
L 89.321841 -131.779677 
L 89.164866 -131.832343 
L 88.763344 -132.104886 
L 88.214521 -131.946451 
L 85.88572 -132.163695 
L 84.421943 -132.432288 
L 84.050089 -131.879303 
L 72.329031 -132.399372 
L 70.592052 -132.232599 
L 69.022987 -132.128585 
L 68.878835 -131.745006 
z
" style="stroke: #009384; stroke-opacity: 0.7; stroke-width: 1.5"/>
    </defs>
    <g clip-path="url(#p5b20ccb63d)">
     <use xlink:href="#m13e07381c6" x="0" y="287.233281" style="fill: #009384; fill-opacity: 0.7; stroke: #009384; stroke-opacity: 0.7; stroke-width: 1.5"/>
    </g>
   </g>
   <g id="PolyCollection_3">
    <defs>
     <path id="mb9cb585248" d="M 69.719337 -87.107179 
L 69.719337 -42.395313 
L 72.790509 -42.395313 
L 73.858009 -42.395313 
L 74.298353 -42.395313 
L 75.464405 -42.395313 
L 76.73784 -42.395313 
L 77.694794 -42.395313 
L 81.722709 -42.395313 
L 86.410091 -42.395313 
L 87.363867 -42.395313 
L 89.537802 -42.395313 
L 91.343525 -42.395313 
L 92.946983 -42.395313 
L 93.870837 -42.395313 
L 96.072921 -42.395313 
L 96.215695 -42.395313 
L 96.43295 -42.395313 
L 97.771051 -42.395313 
L 97.841046 -42.395313 
L 100.912218 -42.395313 
L 101.979718 -42.395313 
L 102.420061 -42.395313 
L 103.586114 -42.395313 
L 104.859549 -42.395313 
L 105.816503 -42.395313 
L 105.962947 -42.395313 
L 105.974463 -42.395313 
L 109.844418 -42.395313 
L 114.5318 -42.395313 
L 115.485576 -42.395313 
L 117.659511 -42.395313 
L 119.465234 -42.395313 
L 121.068691 -42.395313 
L 121.992546 -42.395313 
L 124.19463 -42.395313 
L 124.337404 -42.395313 
L 124.554659 -42.395313 
L 125.89276 -42.395313 
L 125.962755 -42.395313 
L 130.101427 -42.395313 
L 130.54177 -42.395313 
L 131.707823 -42.395313 
L 132.981258 -42.395313 
L 133.938212 -42.395313 
L 134.084656 -42.395313 
L 134.096172 -42.395313 
L 137.966126 -42.395313 
L 143.094781 -42.395313 
L 145.78122 -42.395313 
L 147.586943 -42.395313 
L 149.1904 -42.395313 
L 150.114255 -42.395313 
L 152.316339 -42.395313 
L 152.459113 -42.395313 
L 154.014469 -42.395313 
L 154.084464 -42.395313 
L 156.714364 -42.395313 
L 157.668139 -42.395313 
L 158.223135 -42.395313 
L 158.663479 -42.395313 
L 159.829532 -42.395313 
L 161.102967 -42.395313 
L 162.059921 -42.395313 
L 162.206365 -42.395313 
L 162.21788 -42.395313 
L 166.737222 -42.395313 
L 171.21649 -42.395313 
L 173.902929 -42.395313 
L 175.708652 -42.395313 
L 177.312109 -42.395313 
L 178.235964 -42.395313 
L 180.14869 -42.395313 
L 180.438048 -42.395313 
L 180.580822 -42.395313 
L 182.136178 -42.395313 
L 182.206172 -42.395313 
L 184.836072 -42.395313 
L 185.789848 -42.395313 
L 186.344844 -42.395313 
L 186.785188 -42.395313 
L 187.951241 -42.395313 
L 189.224676 -42.395313 
L 190.18163 -42.395313 
L 190.328074 -42.395313 
L 190.339589 -42.395313 
L 194.858931 -42.395313 
L 199.338199 -42.395313 
L 202.024637 -42.395313 
L 203.830361 -42.395313 
L 205.433818 -42.395313 
L 206.357673 -42.395313 
L 208.270399 -42.395313 
L 208.559757 -42.395313 
L 208.702531 -42.395313 
L 210.257886 -42.395313 
L 210.327881 -42.395313 
L 212.957781 -42.395313 
L 213.911557 -42.395313 
L 214.466553 -42.395313 
L 214.906897 -42.395313 
L 216.07295 -42.395313 
L 217.346385 -42.395313 
L 218.303339 -42.395313 
L 218.449782 -42.395313 
L 218.461298 -42.395313 
L 222.98064 -42.395313 
L 227.459908 -42.395313 
L 230.146346 -42.395313 
L 231.952069 -42.395313 
L 233.555527 -42.395313 
L 236.392108 -42.395313 
L 236.681466 -42.395313 
L 236.82424 -42.395313 
L 238.379595 -42.395313 
L 238.44959 -42.395313 
L 241.07949 -42.395313 
L 242.033266 -42.395313 
L 242.588262 -42.395313 
L 243.028606 -42.395313 
L 244.194659 -42.395313 
L 245.468094 -42.395313 
L 246.425047 -42.395313 
L 246.571491 -42.395313 
L 246.583007 -42.395313 
L 248.540236 -42.395313 
L 251.102349 -42.395313 
L 255.581617 -42.395313 
L 264.513816 -42.395313 
L 264.803175 -42.395313 
L 264.945949 -42.395313 
L 266.501304 -42.395313 
L 269.201199 -42.395313 
L 270.154975 -42.395313 
L 270.709971 -42.395313 
L 271.150315 -42.395313 
L 272.316367 -42.395313 
L 272.32891 -42.395313 
L 273.589803 -42.395313 
L 274.134633 -42.395313 
L 274.546756 -42.395313 
L 274.6932 -42.395313 
L 274.704716 -42.395313 
L 275.73809 -42.395313 
L 276.661945 -42.395313 
L 279.224057 -42.395313 
L 280.632154 -42.395313 
L 283.703325 -42.395313 
L 292.635525 -42.395313 
L 293.067658 -42.395313 
L 294.623013 -42.395313 
L 297.322908 -42.395313 
L 298.276684 -42.395313 
L 299.272024 -42.395313 
L 300.450619 -42.395313 
L 301.711512 -42.395313 
L 302.256342 -42.395313 
L 302.668465 -42.395313 
L 302.814909 -42.395313 
L 302.826425 -42.395313 
L 303.859799 -42.395313 
L 304.783654 -42.395313 
L 306.985738 -42.395313 
L 307.345766 -42.395313 
L 308.753862 -42.395313 
L 311.825034 -42.395313 
L 312.892534 -42.395313 
L 314.498931 -42.395313 
L 320.757234 -42.395313 
L 321.189367 -42.395313 
L 325.444617 -42.395313 
L 326.398393 -42.395313 
L 328.572327 -42.395313 
L 329.833221 -42.395313 
L 330.378051 -42.395313 
L 330.936618 -42.395313 
L 330.948134 -42.395313 
L 331.981508 -42.395313 
L 332.905363 -42.395313 
L 335.107447 -42.395313 
L 335.467475 -42.395313 
L 336.805576 -42.395313 
L 336.875571 -42.395313 
L 339.946743 -42.395313 
L 341.014243 -42.395313 
L 341.454587 -42.395313 
L 342.62064 -42.395313 
L 344.851029 -42.395313 
L 348.878943 -42.395313 
L 353.566326 -42.395313 
L 354.520102 -42.395313 
L 356.694036 -42.395313 
L 358.499759 -42.395313 
L 359.058327 -42.395313 
L 359.069843 -42.395313 
L 360.103217 -42.395313 
L 361.027071 -42.395313 
L 363.229156 -42.395313 
L 363.37193 -42.395313 
L 363.589184 -42.395313 
L 364.927285 -42.395313 
L 364.99728 -42.395313 
L 369.135952 -42.395313 
L 369.576296 -42.395313 
L 370.742349 -42.395313 
L 372.015784 -42.395313 
L 372.972738 -42.395313 
L 377.000652 -42.395313 
L 381.688035 -42.395313 
L 382.129307 -42.395313 
L 382.641811 -42.395313 
L 384.815745 -42.395313 
L 386.621468 -42.395313 
L 388.224926 -42.395313 
L 389.14878 -42.395313 
L 391.350865 -42.395313 
L 391.493639 -42.395313 
L 391.710893 -42.395313 
L 393.048994 -42.395313 
L 393.118989 -42.395313 
L 397.257661 -42.395313 
L 397.698005 -42.395313 
L 398.864057 -42.395313 
L 400.137493 -42.395313 
L 401.094446 -42.395313 
L 401.24089 -42.395313 
L 401.252406 -42.395313 
L 405.122361 -42.395313 
L 409.809744 -42.395313 
L 410.251015 -42.395313 
L 410.76352 -42.395313 
L 412.937454 -42.395313 
L 414.743177 -42.395313 
L 416.346635 -42.395313 
L 417.270489 -42.395313 
L 419.472574 -42.395313 
L 419.615348 -42.395313 
L 421.170703 -42.395313 
L 421.240698 -42.395313 
L 425.37937 -42.395313 
L 425.819714 -42.395313 
L 426.985766 -42.395313 
L 428.259202 -42.395313 
L 429.216155 -42.395313 
L 429.362599 -42.395313 
L 429.374115 -42.395313 
L 433.24407 -42.395313 
L 433.893456 -42.395313 
L 438.372724 -42.395313 
L 441.059163 -42.395313 
L 442.864886 -42.395313 
L 444.468344 -42.395313 
L 445.392198 -42.395313 
L 447.594283 -42.395313 
L 447.737057 -42.395313 
L 449.292412 -42.395313 
L 449.362407 -42.395313 
L 451.992307 -42.395313 
L 452.946083 -42.395313 
L 453.501079 -42.395313 
L 453.941423 -42.395313 
L 455.107475 -42.395313 
L 456.380911 -42.395313 
L 457.337864 -42.395313 
L 457.484308 -42.395313 
L 457.495824 -42.395313 
L 462.015165 -42.395313 
L 466.494433 -42.395313 
L 469.180872 -42.395313 
L 470.986595 -42.395313 
L 472.590053 -42.395313 
L 473.513907 -42.395313 
L 475.426633 -42.395313 
L 475.715992 -42.395313 
L 475.858765 -42.395313 
L 477.414121 -42.395313 
L 477.484116 -42.395313 
L 480.114016 -42.395313 
L 481.067792 -42.395313 
L 481.622788 -42.395313 
L 482.063132 -42.395313 
L 483.229184 -42.395313 
L 484.502619 -42.395313 
L 485.459573 -42.395313 
L 485.606017 -42.395313 
L 485.617533 -42.395313 
L 490.136874 -42.395313 
L 494.616142 -42.395313 
L 497.302581 -42.395313 
L 499.108304 -42.395313 
L 500.711762 -42.395313 
L 503.548342 -42.395313 
L 503.8377 -42.395313 
L 505.53583 -42.395313 
L 505.605825 -42.395313 
L 509.189501 -42.395313 
L 509.744497 -42.395313 
L 510.18484 -42.395313 
L 511.350893 -42.395313 
L 512.624328 -42.395313 
L 513.581282 -42.395313 
L 513.727726 -42.395313 
L 513.739242 -42.395313 
L 515.69647 -42.395313 
L 518.258583 -42.395313 
L 522.737851 -42.395313 
L 525.42429 -42.395313 
L 525.42429 -108.065911 
L 525.42429 -108.065911 
L 522.737851 -107.178304 
L 518.258583 -107.193868 
L 515.69647 -107.073131 
L 513.739242 -106.113837 
L 513.727726 -106.109121 
L 513.581282 -105.626173 
L 512.624328 -105.38517 
L 511.350893 -105.208309 
L 510.18484 -104.432007 
L 509.744497 -104.435309 
L 509.189501 -102.569072 
L 505.605825 -100.728775 
L 505.53583 -96.56476 
L 503.8377 -96.387427 
L 503.548342 -95.741767 
L 500.711762 -96.679366 
L 499.108304 -96.677951 
L 497.302581 -96.790199 
L 494.616142 -97.027428 
L 490.136874 -97.029786 
L 485.617533 -95.953529 
L 485.606017 -95.64414 
L 485.459573 -95.463977 
L 484.502619 -96.352527 
L 483.229184 -97.232115 
L 482.063132 -97.000545 
L 481.622788 -97.11185 
L 481.067792 -96.880752 
L 480.114016 -96.175194 
L 477.484116 -96.233205 
L 477.414121 -96.175666 
L 475.858765 -96.118127 
L 475.715992 -94.31556 
L 475.426633 -94.787661 
L 473.513907 -94.849916 
L 472.590053 -94.793792 
L 470.986595 -94.913114 
L 469.180872 -94.497137 
L 466.494433 -93.503886 
L 462.015165 -93.393525 
L 457.495824 -93.570386 
L 457.484308 -93.98259 
L 457.337864 -94.155678 
L 456.380911 -93.974101 
L 455.107475 -93.215249 
L 453.941423 -92.213037 
L 453.501079 -92.325285 
L 452.946083 -92.210207 
L 451.992307 -92.44555 
L 449.362407 -92.3267 
L 449.292412 -91.792815 
L 447.737057 -91.90695 
L 447.594283 -91.968733 
L 445.392198 -91.266949 
L 444.468344 -90.489704 
L 442.864886 -90.66798 
L 441.059163 -90.549601 
L 438.372724 -90.959447 
L 433.893456 -90.194936 
L 433.24407 -90.254361 
L 429.374115 -90.431222 
L 429.362599 -90.493477 
L 429.216155 -90.373211 
L 428.259202 -90.313315 
L 426.985766 -89.669541 
L 425.819714 -89.118678 
L 425.37937 -88.420195 
L 421.240698 -88.538102 
L 421.170703 -87.765102 
L 419.615348 -88.598942 
L 419.472574 -88.598471 
L 417.270489 -89.422407 
L 416.346635 -89.366283 
L 414.743177 -89.190365 
L 412.937454 -89.310631 
L 410.76352 -89.308744 
L 410.251015 -88.42161 
L 409.809744 -88.244277 
L 405.122361 -88.301344 
L 401.252406 -88.953136 
L 401.24089 -89.074816 
L 401.094446 -89.135185 
L 400.137493 -89.19461 
L 398.864057 -90.30341 
L 397.698005 -90.24823 
L 397.257661 -89.95299 
L 393.118989 -90.253418 
L 393.048994 -90.075613 
L 391.710893 -89.077646 
L 391.493639 -89.141787 
L 391.350865 -88.141934 
L 389.14878 -88.026384 
L 388.224926 -88.024026 
L 386.621468 -88.739488 
L 384.815745 -88.682421 
L 382.641811 -88.739016 
L 382.129307 -89.503055 
L 381.688035 -89.098869 
L 377.000652 -89.038972 
L 372.972738 -88.866356 
L 372.015784 -88.278706 
L 370.742349 -88.275405 
L 369.576296 -88.862111 
L 369.135952 -89.501641 
L 364.99728 -89.618133 
L 364.927285 -89.794522 
L 363.589184 -89.905355 
L 363.37193 -90.019018 
L 363.229156 -89.552105 
L 361.027071 -89.491265 
L 360.103217 -89.726608 
L 359.069843 -89.549275 
L 359.058327 -90.443484 
L 358.499759 -90.090234 
L 356.694036 -89.852061 
L 354.520102 -90.732121 
L 353.566326 -91.385799 
L 348.878943 -92.027215 
L 344.851029 -91.909779 
L 342.62064 -91.912138 
L 341.454587 -91.854599 
L 341.014243 -92.330473 
L 339.946743 -92.273877 
L 336.875571 -92.330473 
L 336.805576 -92.214924 
L 335.467475 -92.854924 
L 335.107447 -92.853038 
L 332.905363 -93.617077 
L 331.981508 -94.433468 
L 330.948134 -94.672112 
L 330.936618 -94.610328 
L 330.378051 -94.903682 
L 329.833221 -92.365845 
L 328.572327 -92.311136 
L 326.398393 -92.366317 
L 325.444617 -92.366317 
L 321.189367 -92.068719 
L 320.757234 -92.012595 
L 314.498931 -92.117296 
L 312.892534 -91.939492 
L 311.825034 -92.001747 
L 308.753862 -92.058343 
L 307.345766 -92.057871 
L 306.985738 -91.940907 
L 304.783654 -92.23709 
L 303.859799 -92.000332 
L 302.826425 -91.407966 
L 302.814909 -91.33958 
L 302.668465 -92.565816 
L 302.256342 -91.738578 
L 301.711512 -90.574597 
L 300.450619 -90.39585 
L 299.272024 -90.867007 
L 298.276684 -90.448672 
L 297.322908 -91.637649 
L 294.623013 -92.986981 
L 293.067658 -93.628396 
L 292.635525 -93.390224 
L 283.703325 -92.571475 
L 280.632154 -92.102676 
L 279.224057 -91.390044 
L 276.661945 -92.337547 
L 275.73809 -92.162101 
L 274.704716 -91.397119 
L 274.6932 -91.334392 
L 274.546756 -91.395704 
L 274.134633 -91.56832 
L 273.589803 -91.332505 
L 272.32891 -92.035704 
L 272.316367 -91.560774 
L 271.150315 -91.73905 
L 270.709971 -91.624444 
L 270.154975 -92.444135 
L 269.201199 -92.502617 
L 266.501304 -93.2011 
L 264.945949 -92.91152 
L 264.803175 -93.564726 
L 264.513816 -93.507659 
L 255.581617 -93.983062 
L 251.102349 -93.269487 
L 248.540236 -93.508131 
L 246.583007 -93.510489 
L 246.571491 -92.689383 
L 246.425047 -93.040746 
L 245.468094 -93.11715 
L 244.194659 -93.29071 
L 243.028606 -93.228455 
L 242.588262 -93.170444 
L 242.033266 -92.6974 
L 241.07949 -92.807762 
L 238.44959 -92.74645 
L 238.379595 -92.805403 
L 236.82424 -92.22247 
L 236.681466 -92.163516 
L 236.392108 -91.276853 
L 233.555527 -90.163336 
L 231.952069 -90.16145 
L 230.146346 -91.155644 
L 227.459908 -91.567377 
L 222.98064 -92.882751 
L 218.461298 -92.757297 
L 218.449782 -92.521483 
L 218.303339 -92.523841 
L 217.346385 -92.169647 
L 216.07295 -92.228601 
L 214.906897 -91.354672 
L 214.466553 -91.592373 
L 213.911557 -91.647554 
L 212.957781 -91.893744 
L 210.327881 -93.816576 
L 210.257886 -94.050976 
L 208.702531 -93.992023 
L 208.559757 -94.22878 
L 208.270399 -94.412716 
L 206.357673 -94.298582 
L 205.433818 -93.075175 
L 203.830361 -93.145448 
L 202.024637 -93.14026 
L 199.338199 -93.318536 
L 194.858931 -93.200629 
L 190.339589 -93.14026 
L 190.328074 -92.723812 
L 190.18163 -92.480451 
L 189.224676 -91.955056 
L 187.951241 -92.481394 
L 186.785188 -92.59317 
L 186.344844 -93.6034 
L 185.789848 -93.60623 
L 184.836072 -92.948307 
L 182.206172 -92.772861 
L 182.136178 -93.305802 
L 180.580822 -93.30816 
L 180.438048 -93.784506 
L 180.14869 -93.900526 
L 178.235964 -94.429694 
L 177.312109 -94.559864 
L 175.708652 -94.621176 
L 173.902929 -93.808087 
L 171.21649 -94.520719 
L 166.737222 -93.762339 
L 162.21788 -93.64679 
L 162.206365 -92.835588 
L 162.059921 -93.127998 
L 161.102967 -92.482337 
L 159.829532 -92.781822 
L 158.663479 -92.479036 
L 158.223135 -92.534688 
L 157.668139 -92.650709 
L 156.714364 -92.826155 
L 154.084464 -92.826627 
L 154.014469 -91.769234 
L 152.459113 -90.938695 
L 152.316339 -90.824089 
L 150.114255 -90.766079 
L 149.1904 -90.761362 
L 147.586943 -90.523661 
L 145.78122 -90.587331 
L 143.094781 -90.591104 
L 137.966126 -90.651001 
L 134.096172 -90.415186 
L 134.084656 -90.414243 
L 133.938212 -90.475555 
L 132.981258 -90.826919 
L 131.707823 -91.537192 
L 130.54177 -90.951901 
L 130.101427 -90.544884 
L 125.962755 -90.053447 
L 125.89276 -90.230779 
L 124.554659 -91.229218 
L 124.337404 -91.511724 
L 124.19463 -92.052212 
L 121.992546 -92.820496 
L 121.068691 -92.943119 
L 119.465234 -92.762014 
L 117.659511 -92.706833 
L 115.485576 -92.405933 
L 114.5318 -90.600065 
L 109.844418 -90.482158 
L 105.974463 -90.654302 
L 105.962947 -90.595349 
L 105.816503 -90.528377 
L 104.859549 -91.361275 
L 103.586114 -92.17625 
L 102.420061 -91.936662 
L 101.979718 -91.93902 
L 100.912218 -91.76216 
L 97.841046 -91.292888 
L 97.771051 -91.175453 
L 96.43295 -90.348687 
L 96.215695 -89.416747 
L 96.072921 -89.24083 
L 93.870837 -89.656335 
L 92.946983 -89.361567 
L 91.343525 -89.117263 
L 89.537802 -88.704116 
L 87.363867 -88.354638 
L 86.410091 -88.414535 
L 81.722709 -88.182022 
L 77.694794 -88.471131 
L 76.73784 -87.640592 
L 75.464405 -87.40855 
L 74.298353 -86.936921 
L 73.858009 -85.87151 
L 72.790509 -86.525188 
L 69.719337 -87.107179 
z
" style="stroke: #b85741; stroke-opacity: 0.7; stroke-width: 1.5"/>
    </defs>
    <g clip-path="url(#p5b20ccb63d)">
     <use xlink:href="#mb9cb585248" x="0" y="287.233281" style="fill: #b85741; fill-opacity: 0.7; stroke: #b85741; stroke-opacity: 0.7; stroke-width: 1.5"/>
    </g>
   </g>
   <g id="PolyCollection_4">
    <defs>
     <path id="m8159093f39" d="M 69.719337 -133.460787 
L 69.719337 -87.107179 
L 72.790509 -86.525188 
L 73.858009 -85.87151 
L 74.298353 -86.936921 
L 75.464405 -87.40855 
L 76.73784 -87.640592 
L 77.694794 -88.471131 
L 81.722709 -88.182022 
L 86.410091 -88.414535 
L 87.363867 -88.354638 
L 89.537802 -88.704116 
L 91.343525 -89.117263 
L 92.946983 -89.361567 
L 93.870837 -89.656335 
L 96.072921 -89.24083 
L 96.215695 -89.416747 
L 96.43295 -90.348687 
L 97.771051 -91.175453 
L 97.841046 -91.292888 
L 100.912218 -91.76216 
L 101.979718 -91.93902 
L 102.420061 -91.936662 
L 103.586114 -92.17625 
L 104.859549 -91.361275 
L 105.816503 -90.528377 
L 105.962947 -90.595349 
L 105.974463 -90.654302 
L 109.844418 -90.482158 
L 114.5318 -90.600065 
L 115.485576 -92.405933 
L 117.659511 -92.706833 
L 119.465234 -92.762014 
L 121.068691 -92.943119 
L 121.992546 -92.820496 
L 124.19463 -92.052212 
L 124.337404 -91.511724 
L 124.554659 -91.229218 
L 125.89276 -90.230779 
L 125.962755 -90.053447 
L 130.101427 -90.544884 
L 130.54177 -90.951901 
L 131.707823 -91.537192 
L 132.981258 -90.826919 
L 133.938212 -90.475555 
L 134.084656 -90.414243 
L 134.096172 -90.415186 
L 137.966126 -90.651001 
L 143.094781 -90.591104 
L 145.78122 -90.587331 
L 147.586943 -90.523661 
L 149.1904 -90.761362 
L 150.114255 -90.766079 
L 152.316339 -90.824089 
L 152.459113 -90.938695 
L 154.014469 -91.769234 
L 154.084464 -92.826627 
L 156.714364 -92.826155 
L 157.668139 -92.650709 
L 158.223135 -92.534688 
L 158.663479 -92.479036 
L 159.829532 -92.781822 
L 161.102967 -92.482337 
L 162.059921 -93.127998 
L 162.206365 -92.835588 
L 162.21788 -93.64679 
L 166.737222 -93.762339 
L 171.21649 -94.520719 
L 173.902929 -93.808087 
L 175.708652 -94.621176 
L 177.312109 -94.559864 
L 178.235964 -94.429694 
L 180.14869 -93.900526 
L 180.438048 -93.784506 
L 180.580822 -93.30816 
L 182.136178 -93.305802 
L 182.206172 -92.772861 
L 184.836072 -92.948307 
L 185.789848 -93.60623 
L 186.344844 -93.6034 
L 186.785188 -92.59317 
L 187.951241 -92.481394 
L 189.224676 -91.955056 
L 190.18163 -92.480451 
L 190.328074 -92.723812 
L 190.339589 -93.14026 
L 194.858931 -93.200629 
L 199.338199 -93.318536 
L 202.024637 -93.14026 
L 203.830361 -93.145448 
L 205.433818 -93.075175 
L 206.357673 -94.298582 
L 208.270399 -94.412716 
L 208.559757 -94.22878 
L 208.702531 -93.992023 
L 210.257886 -94.050976 
L 210.327881 -93.816576 
L 212.957781 -91.893744 
L 213.911557 -91.647554 
L 214.466553 -91.592373 
L 214.906897 -91.354672 
L 216.07295 -92.228601 
L 217.346385 -92.169647 
L 218.303339 -92.523841 
L 218.449782 -92.521483 
L 218.461298 -92.757297 
L 222.98064 -92.882751 
L 227.459908 -91.567377 
L 230.146346 -91.155644 
L 231.952069 -90.16145 
L 233.555527 -90.163336 
L 236.392108 -91.276853 
L 236.681466 -92.163516 
L 236.82424 -92.22247 
L 238.379595 -92.805403 
L 238.44959 -92.74645 
L 241.07949 -92.807762 
L 242.033266 -92.6974 
L 242.588262 -93.170444 
L 243.028606 -93.228455 
L 244.194659 -93.29071 
L 245.468094 -93.11715 
L 246.425047 -93.040746 
L 246.571491 -92.689383 
L 246.583007 -93.510489 
L 248.540236 -93.508131 
L 251.102349 -93.269487 
L 255.581617 -93.983062 
L 264.513816 -93.507659 
L 264.803175 -93.564726 
L 264.945949 -92.91152 
L 266.501304 -93.2011 
L 269.201199 -92.502617 
L 270.154975 -92.444135 
L 270.709971 -91.624444 
L 271.150315 -91.73905 
L 272.316367 -91.560774 
L 272.32891 -92.035704 
L 273.589803 -91.332505 
L 274.134633 -91.56832 
L 274.546756 -91.395704 
L 274.6932 -91.334392 
L 274.704716 -91.397119 
L 275.73809 -92.162101 
L 276.661945 -92.337547 
L 279.224057 -91.390044 
L 280.632154 -92.102676 
L 283.703325 -92.571475 
L 292.635525 -93.390224 
L 293.067658 -93.628396 
L 294.623013 -92.986981 
L 297.322908 -91.637649 
L 298.276684 -90.448672 
L 299.272024 -90.867007 
L 300.450619 -90.39585 
L 301.711512 -90.574597 
L 302.256342 -91.738578 
L 302.668465 -92.565816 
L 302.814909 -91.33958 
L 302.826425 -91.407966 
L 303.859799 -92.000332 
L 304.783654 -92.23709 
L 306.985738 -91.940907 
L 307.345766 -92.057871 
L 308.753862 -92.058343 
L 311.825034 -92.001747 
L 312.892534 -91.939492 
L 314.498931 -92.117296 
L 320.757234 -92.012595 
L 321.189367 -92.068719 
L 325.444617 -92.366317 
L 326.398393 -92.366317 
L 328.572327 -92.311136 
L 329.833221 -92.365845 
L 330.378051 -94.903682 
L 330.936618 -94.610328 
L 330.948134 -94.672112 
L 331.981508 -94.433468 
L 332.905363 -93.617077 
L 335.107447 -92.853038 
L 335.467475 -92.854924 
L 336.805576 -92.214924 
L 336.875571 -92.330473 
L 339.946743 -92.273877 
L 341.014243 -92.330473 
L 341.454587 -91.854599 
L 342.62064 -91.912138 
L 344.851029 -91.909779 
L 348.878943 -92.027215 
L 353.566326 -91.385799 
L 354.520102 -90.732121 
L 356.694036 -89.852061 
L 358.499759 -90.090234 
L 359.058327 -90.443484 
L 359.069843 -89.549275 
L 360.103217 -89.726608 
L 361.027071 -89.491265 
L 363.229156 -89.552105 
L 363.37193 -90.019018 
L 363.589184 -89.905355 
L 364.927285 -89.794522 
L 364.99728 -89.618133 
L 369.135952 -89.501641 
L 369.576296 -88.862111 
L 370.742349 -88.275405 
L 372.015784 -88.278706 
L 372.972738 -88.866356 
L 377.000652 -89.038972 
L 381.688035 -89.098869 
L 382.129307 -89.503055 
L 382.641811 -88.739016 
L 384.815745 -88.682421 
L 386.621468 -88.739488 
L 388.224926 -88.024026 
L 389.14878 -88.026384 
L 391.350865 -88.141934 
L 391.493639 -89.141787 
L 391.710893 -89.077646 
L 393.048994 -90.075613 
L 393.118989 -90.253418 
L 397.257661 -89.95299 
L 397.698005 -90.24823 
L 398.864057 -90.30341 
L 400.137493 -89.19461 
L 401.094446 -89.135185 
L 401.24089 -89.074816 
L 401.252406 -88.953136 
L 405.122361 -88.301344 
L 409.809744 -88.244277 
L 410.251015 -88.42161 
L 410.76352 -89.308744 
L 412.937454 -89.310631 
L 414.743177 -89.190365 
L 416.346635 -89.366283 
L 417.270489 -89.422407 
L 419.472574 -88.598471 
L 419.615348 -88.598942 
L 421.170703 -87.765102 
L 421.240698 -88.538102 
L 425.37937 -88.420195 
L 425.819714 -89.118678 
L 426.985766 -89.669541 
L 428.259202 -90.313315 
L 429.216155 -90.373211 
L 429.362599 -90.493477 
L 429.374115 -90.431222 
L 433.24407 -90.254361 
L 433.893456 -90.194936 
L 438.372724 -90.959447 
L 441.059163 -90.549601 
L 442.864886 -90.66798 
L 444.468344 -90.489704 
L 445.392198 -91.266949 
L 447.594283 -91.968733 
L 447.737057 -91.90695 
L 449.292412 -91.792815 
L 449.362407 -92.3267 
L 451.992307 -92.44555 
L 452.946083 -92.210207 
L 453.501079 -92.325285 
L 453.941423 -92.213037 
L 455.107475 -93.215249 
L 456.380911 -93.974101 
L 457.337864 -94.155678 
L 457.484308 -93.98259 
L 457.495824 -93.570386 
L 462.015165 -93.393525 
L 466.494433 -93.503886 
L 469.180872 -94.497137 
L 470.986595 -94.913114 
L 472.590053 -94.793792 
L 473.513907 -94.849916 
L 475.426633 -94.787661 
L 475.715992 -94.31556 
L 475.858765 -96.118127 
L 477.414121 -96.175666 
L 477.484116 -96.233205 
L 480.114016 -96.175194 
L 481.067792 -96.880752 
L 481.622788 -97.11185 
L 482.063132 -97.000545 
L 483.229184 -97.232115 
L 484.502619 -96.352527 
L 485.459573 -95.463977 
L 485.606017 -95.64414 
L 485.617533 -95.953529 
L 490.136874 -97.029786 
L 494.616142 -97.027428 
L 497.302581 -96.790199 
L 499.108304 -96.677951 
L 500.711762 -96.679366 
L 503.548342 -95.741767 
L 503.8377 -96.387427 
L 505.53583 -96.56476 
L 505.605825 -100.728775 
L 509.189501 -102.569072 
L 509.744497 -104.435309 
L 510.18484 -104.432007 
L 511.350893 -105.208309 
L 512.624328 -105.38517 
L 513.581282 -105.626173 
L 513.727726 -106.109121 
L 513.739242 -106.113837 
L 515.69647 -107.073131 
L 518.258583 -107.193868 
L 522.737851 -107.178304 
L 522.737851 -180.117652 
L 522.737851 -180.117652 
L 518.258583 -180.893482 
L 515.69647 -180.534572 
L 513.739242 -179.044696 
L 513.727726 -178.922072 
L 513.581282 -178.194348 
L 512.624328 -176.428568 
L 511.350893 -176.840301 
L 510.18484 -175.95128 
L 509.744497 -174.824086 
L 509.189501 -171.949977 
L 505.605825 -170.878436 
L 505.53583 -165.954626 
L 503.8377 -161.151083 
L 503.548342 -160.202164 
L 500.711762 -160.320072 
L 499.108304 -164.340711 
L 497.302581 -164.274211 
L 494.616142 -164.274211 
L 490.136874 -163.016376 
L 485.617533 -160.28187 
L 485.606017 -157.247407 
L 485.459573 -157.18751 
L 484.502619 -158.19774 
L 483.229184 -158.13407 
L 482.063132 -158.613246 
L 481.622788 -159.718273 
L 481.067792 -159.314087 
L 480.114016 -158.608058 
L 477.484116 -158.423651 
L 477.414121 -158.074645 
L 475.858765 -157.429456 
L 475.715992 -152.829656 
L 475.426633 -153.41825 
L 473.513907 -153.302229 
L 472.590053 -154.670425 
L 470.986595 -155.608024 
L 469.180872 -155.252416 
L 466.494433 -154.264352 
L 462.015165 -154.447816 
L 457.495824 -154.096452 
L 457.484308 -154.806726 
L 457.337864 -153.922421 
L 456.380911 -153.510217 
L 455.107475 -152.220783 
L 453.941423 -151.513339 
L 453.501079 -151.567105 
L 452.946083 -153.298456 
L 451.992307 -148.03979 
L 449.362407 -148.858066 
L 449.292412 -150.077228 
L 447.737057 -150.190891 
L 447.594283 -150.247958 
L 445.392198 -149.910743 
L 444.468344 -149.085392 
L 442.864886 -149.615031 
L 441.059163 -151.776037 
L 438.372724 -153.49654 
L 433.893456 -156.187656 
L 433.24407 -156.658342 
L 429.374115 -156.604577 
L 429.362599 -157.722338 
L 429.216155 -160.498819 
L 428.259202 -158.791521 
L 426.985766 -157.967585 
L 425.819714 -157.805816 
L 425.37937 -158.993379 
L 421.240698 -159.119304 
L 421.170703 -158.363282 
L 419.615348 -160.445997 
L 419.472574 -160.928474 
L 417.270489 -161.870789 
L 416.346635 -163.063067 
L 414.743177 -162.707459 
L 412.937454 -162.241018 
L 410.76352 -164.166208 
L 410.251015 -164.937794 
L 409.809744 -166.154597 
L 405.122361 -166.67952 
L 401.252406 -168.507084 
L 401.24089 -171.827825 
L 401.094446 -173.71387 
L 400.137493 -174.78494 
L 398.864057 -173.50824 
L 397.698005 -175.191957 
L 397.257661 -176.457809 
L 393.118989 -180.699171 
L 393.048994 -182.011715 
L 391.710893 -181.911258 
L 391.493639 -185.406974 
L 391.350865 -185.06127 
L 389.14878 -186.826107 
L 388.224926 -186.110173 
L 386.621468 -186.97184 
L 384.815745 -189.045594 
L 382.641811 -191.556076 
L 382.129307 -192.447927 
L 381.688035 -193.819896 
L 377.000652 -194.176448 
L 372.972738 -194.306618 
L 372.015784 -194.548564 
L 370.742349 -196.548272 
L 369.576296 -196.460077 
L 369.135952 -196.511013 
L 364.99728 -198.074935 
L 364.927285 -198.310278 
L 363.589184 -200.529766 
L 363.37193 -201.229192 
L 363.229156 -200.467982 
L 361.027071 -200.764637 
L 360.103217 -201.824388 
L 359.069843 -202.66153 
L 359.058327 -203.263329 
L 358.499759 -202.862915 
L 356.694036 -201.735722 
L 354.520102 -204.038687 
L 353.566326 -204.114148 
L 348.878943 -203.791082 
L 344.851029 -204.460324 
L 342.62064 -204.411274 
L 341.454587 -204.114148 
L 341.014243 -205.295579 
L 339.946743 -205.419618 
L 336.875571 -203.31285 
L 336.805576 -202.712466 
L 335.467475 -199.955321 
L 335.107447 -202.163961 
L 332.905363 -203.880691 
L 331.981508 -204.646617 
L 330.948134 -202.584183 
L 330.936618 -202.56909 
L 330.378051 -203.036947 
L 329.833221 -199.995881 
L 328.572327 -198.408849 
L 326.398393 -198.121155 
L 325.444617 -198.30509 
L 321.189367 -196.998677 
L 320.757234 -196.340755 
L 314.498931 -196.327077 
L 312.892534 -194.903229 
L 311.825034 -196.02665 
L 308.753862 -195.904498 
L 307.345766 -195.090937 
L 306.985738 -193.501547 
L 304.783654 -192.519143 
L 303.859799 -193.103963 
L 302.826425 -194.458954 
L 302.814909 -191.134911 
L 302.668465 -191.248574 
L 302.256342 -190.22561 
L 301.711512 -187.724089 
L 300.450619 -186.042259 
L 299.272024 -185.250865 
L 298.276684 -182.004641 
L 297.322908 -182.41543 
L 294.623013 -183.104952 
L 293.067658 -180.963755 
L 292.635525 -180.365258 
L 283.703325 -179.212596 
L 280.632154 -178.742853 
L 279.224057 -176.592224 
L 276.661945 -175.290055 
L 275.73809 -172.893707 
L 274.704716 -171.934885 
L 274.6932 -170.329459 
L 274.546756 -169.973851 
L 274.134633 -169.369694 
L 273.589803 -168.012345 
L 272.32891 -166.89081 
L 272.316367 -165.429703 
L 271.150315 -166.319196 
L 270.709971 -164.698678 
L 270.154975 -165.457057 
L 269.201199 -163.409243 
L 266.501304 -163.405942 
L 264.945949 -162.881019 
L 264.803175 -163.060238 
L 264.513816 -163.300297 
L 255.581617 -162.883848 
L 251.102349 -162.69614 
L 248.540236 -163.3418 
L 246.583007 -162.616906 
L 246.571491 -160.726616 
L 246.425047 -160.776137 
L 245.468094 -160.124346 
L 244.194659 -159.279658 
L 243.028606 -159.158449 
L 242.588262 -158.510902 
L 242.033266 -157.383237 
L 241.07949 -157.076678 
L 238.44959 -157.140819 
L 238.379595 -156.259344 
L 236.82424 -155.563691 
L 236.681466 -153.05651 
L 236.392108 -151.277053 
L 233.555527 -150.097036 
L 231.952069 -149.615975 
L 230.146346 -150.264465 
L 227.459908 -150.620545 
L 222.98064 -151.108681 
L 218.461298 -151.51947 
L 218.449782 -150.922859 
L 218.303339 -149.841885 
L 217.346385 -149.428738 
L 216.07295 -149.544287 
L 214.906897 -149.974413 
L 214.466553 -150.326248 
L 213.911557 -149.379217 
L 212.957781 -149.80274 
L 210.327881 -150.782785 
L 210.257886 -152.015624 
L 208.702531 -152.544321 
L 208.559757 -151.719913 
L 208.270399 -148.718936 
L 206.357673 -148.078463 
L 205.433818 -146.081585 
L 203.830361 -145.331695 
L 202.024637 -144.741687 
L 199.338199 -144.922792 
L 194.858931 -145.273684 
L 190.339589 -144.102157 
L 190.328074 -143.871531 
L 190.18163 -143.563557 
L 189.224676 -142.095375 
L 187.951241 -142.034535 
L 186.785188 -140.893192 
L 186.344844 -141.963319 
L 185.789848 -142.207151 
L 184.836072 -142.600018 
L 182.206172 -142.429288 
L 182.136178 -142.204793 
L 180.580822 -142.152442 
L 180.438048 -142.746223 
L 180.14869 -143.514036 
L 178.235964 -145.434038 
L 177.312109 -146.212226 
L 175.708652 -147.164446 
L 173.902929 -145.524119 
L 171.21649 -146.236751 
L 166.737222 -145.596279 
L 162.21788 -146.188645 
L 162.206365 -145.13927 
L 162.059921 -145.607598 
L 161.102967 -146.302779 
L 159.829532 -145.778328 
L 158.663479 -146.00188 
L 158.223135 -145.411872 
L 157.668139 -144.581804 
L 156.714364 -144.703013 
L 154.084464 -144.58652 
L 154.014469 -144.110175 
L 152.459113 -143.280108 
L 152.316339 -143.922467 
L 150.114255 -143.801729 
L 149.1904 -143.561199 
L 147.586943 -143.268317 
L 145.78122 -143.452724 
L 143.094781 -143.992268 
L 137.966126 -144.872799 
L 134.096172 -145.462336 
L 134.084656 -145.169926 
L 133.938212 -145.348673 
L 132.981258 -145.702395 
L 131.707823 -146.123089 
L 130.54177 -145.598637 
L 130.101427 -145.430737 
L 125.962755 -145.643442 
L 125.89276 -145.457148 
L 124.554659 -146.509353 
L 124.337404 -146.849398 
L 124.19463 -147.500718 
L 121.992546 -148.210048 
L 121.068691 -147.370076 
L 119.465234 -146.955986 
L 117.659511 -146.784784 
L 115.485576 -146.363148 
L 114.5318 -144.504457 
L 109.844418 -143.557897 
L 105.974463 -142.908464 
L 105.962947 -141.671852 
L 105.816503 -141.548757 
L 104.859549 -142.494373 
L 103.586114 -143.25181 
L 102.420061 -143.956895 
L 101.979718 -144.817619 
L 100.912218 -145.000611 
L 97.841046 -143.822481 
L 97.771051 -143.762584 
L 96.43295 -142.392501 
L 96.215695 -141.229464 
L 96.072921 -141.350201 
L 93.870837 -141.470938 
L 92.946983 -141.527533 
L 91.343525 -141.051188 
L 89.537802 -140.576257 
L 87.363867 -139.351908 
L 86.410091 -139.173632 
L 81.722709 -138.703889 
L 77.694794 -138.811892 
L 76.73784 -137.630461 
L 75.464405 -137.400777 
L 74.298353 -135.474172 
L 73.858009 -133.465975 
L 72.790509 -133.109895 
L 69.719337 -133.460787 
z
" style="stroke: #b85741; stroke-opacity: 0.7; stroke-width: 1.5"/>
    </defs>
    <g clip-path="url(#p5b20ccb63d)">
     <use xlink:href="#m8159093f39" x="0" y="287.233281" style="fill: #b85741; fill-opacity: 0.7; stroke: #b85741; stroke-opacity: 0.7; stroke-width: 1.5"/>
    </g>
   </g>
   <g id="matplotlib.axis_1">
    <g id="xtick_1">
     <g id="line2d_1">
      <defs>
       <path id="m323882d6ad" d="M 0 0 
L 0 3.5 
" style="stroke: #000000; stroke-width: 0.8"/>
      </defs>
      <g>
       <use xlink:href="#m323882d6ad" x="107.130616" y="244.837969" style="stroke: #000000; stroke-width: 0.8"/>
      </g>
     </g>
     <g id="text_1">
      <!-- −5 -->
      <g transform="translate(98.285304 260.956094) scale(0.12 -0.12)">
       <defs>
        <path id="DejaVuSans-2212" d="M 678 2272 
L 4684 2272 
L 4684 1741 
L 678 1741 
L 678 2272 
z
" transform="scale(0.015625)"/>
        <path id="DejaVuSans-35" d="M 691 4666 
L 3169 4666 
L 3169 4134 
L 1269 4134 
L 1269 2991 
Q 1406 3038 1543 3061 
Q 1681 3084 1819 3084 
Q 2600 3084 3056 2656 
Q 3513 2228 3513 1497 
Q 3513 744 3044 326 
Q 2575 -91 1722 -91 
Q 1428 -91 1123 -41 
Q 819 9 494 109 
L 494 744 
Q 775 591 1075 516 
Q 1375 441 1709 441 
Q 2250 441 2565 725 
Q 2881 1009 2881 1497 
Q 2881 1984 2565 2268 
Q 2250 2553 1709 2553 
Q 1456 2553 1204 2497 
Q 953 2441 691 2322 
L 691 4666 
z
" transform="scale(0.015625)"/>
       </defs>
       <use xlink:href="#DejaVuSans-2212"/>
       <use xlink:href="#DejaVuSans-35" x="83.789062"/>
      </g>
     </g>
    </g>
    <g id="xtick_2">
     <g id="line2d_2">
      <g>
       <use xlink:href="#m323882d6ad" x="177.434889" y="244.837969" style="stroke: #000000; stroke-width: 0.8"/>
      </g>
     </g>
     <g id="text_2">
      <!-- 0 -->
      <g transform="translate(173.617389 260.956094) scale(0.12 -0.12)">
       <defs>
        <path id="DejaVuSans-30" d="M 2034 4250 
Q 1547 4250 1301 3770 
Q 1056 3291 1056 2328 
Q 1056 1369 1301 889 
Q 1547 409 2034 409 
Q 2525 409 2770 889 
Q 3016 1369 3016 2328 
Q 3016 3291 2770 3770 
Q 2525 4250 2034 4250 
z
M 2034 4750 
Q 2819 4750 3233 4129 
Q 3647 3509 3647 2328 
Q 3647 1150 3233 529 
Q 2819 -91 2034 -91 
Q 1250 -91 836 529 
Q 422 1150 422 2328 
Q 422 3509 836 4129 
Q 1250 4750 2034 4750 
z
" transform="scale(0.015625)"/>
       </defs>
       <use xlink:href="#DejaVuSans-30"/>
      </g>
     </g>
    </g>
    <g id="xtick_3">
     <g id="line2d_3">
      <g>
       <use xlink:href="#m323882d6ad" x="247.739161" y="244.837969" style="stroke: #000000; stroke-width: 0.8"/>
      </g>
     </g>
     <g id="text_3">
      <!-- 5 -->
      <g transform="translate(243.921661 260.956094) scale(0.12 -0.12)">
       <use xlink:href="#DejaVuSans-35"/>
      </g>
     </g>
    </g>
    <g id="xtick_4">
     <g id="line2d_4">
      <g>
       <use xlink:href="#m323882d6ad" x="318.043433" y="244.837969" style="stroke: #000000; stroke-width: 0.8"/>
      </g>
     </g>
     <g id="text_4">
      <!-- 10 -->
      <g transform="translate(310.408433 260.956094) scale(0.12 -0.12)">
       <defs>
        <path id="DejaVuSans-31" d="M 794 531 
L 1825 531 
L 1825 4091 
L 703 3866 
L 703 4441 
L 1819 4666 
L 2450 4666 
L 2450 531 
L 3481 531 
L 3481 0 
L 794 0 
L 794 531 
z
" transform="scale(0.015625)"/>
       </defs>
       <use xlink:href="#DejaVuSans-31"/>
       <use xlink:href="#DejaVuSans-30" x="63.623047"/>
      </g>
     </g>
    </g>
    <g id="xtick_5">
     <g id="line2d_5">
      <g>
       <use xlink:href="#m323882d6ad" x="388.347705" y="244.837969" style="stroke: #000000; stroke-width: 0.8"/>
      </g>
     </g>
     <g id="text_5">
      <!-- 15 -->
      <g transform="translate(380.712705 260.956094) scale(0.12 -0.12)">
       <use xlink:href="#DejaVuSans-31"/>
       <use xlink:href="#DejaVuSans-35" x="63.623047"/>
      </g>
     </g>
    </g>
    <g id="xtick_6">
     <g id="line2d_6">
      <g>
       <use xlink:href="#m323882d6ad" x="458.651978" y="244.837969" style="stroke: #000000; stroke-width: 0.8"/>
      </g>
     </g>
     <g id="text_6">
      <!-- 20 -->
      <g transform="translate(451.016978 260.956094) scale(0.12 -0.12)">
       <defs>
        <path id="DejaVuSans-32" d="M 1228 531 
L 3431 531 
L 3431 0 
L 469 0 
L 469 531 
Q 828 903 1448 1529 
Q 2069 2156 2228 2338 
Q 2531 2678 2651 2914 
Q 2772 3150 2772 3378 
Q 2772 3750 2511 3984 
Q 2250 4219 1831 4219 
Q 1534 4219 1204 4116 
Q 875 4013 500 3803 
L 500 4441 
Q 881 4594 1212 4672 
Q 1544 4750 1819 4750 
Q 2544 4750 2975 4387 
Q 3406 4025 3406 3419 
Q 3406 3131 3298 2873 
Q 3191 2616 2906 2266 
Q 2828 2175 2409 1742 
Q 1991 1309 1228 531 
z
" transform="scale(0.015625)"/>
       </defs>
       <use xlink:href="#DejaVuSans-32"/>
       <use xlink:href="#DejaVuSans-30" x="63.623047"/>
      </g>
     </g>
    </g>
    <g id="xtick_7">
     <g id="line2d_7">
      <g>
       <use xlink:href="#m323882d6ad" x="528.95625" y="244.837969" style="stroke: #000000; stroke-width: 0.8"/>
      </g>
     </g>
     <g id="text_7">
      <!-- 25 -->
      <g transform="translate(521.32125 260.956094) scale(0.12 -0.12)">
       <use xlink:href="#DejaVuSans-32"/>
       <use xlink:href="#DejaVuSans-35" x="63.623047"/>
      </g>
     </g>
    </g>
    <g id="text_8">
     <!-- Time (s) -->
     <g transform="translate(270.723984 277.329687) scale(0.13 -0.13)">
      <defs>
       <path id="DejaVuSans-54" d="M -19 4666 
L 3928 4666 
L 3928 4134 
L 2272 4134 
L 2272 0 
L 1638 0 
L 1638 4134 
L -19 4134 
L -19 4666 
z
" transform="scale(0.015625)"/>
       <path id="DejaVuSans-69" d="M 603 3500 
L 1178 3500 
L 1178 0 
L 603 0 
L 603 3500 
z
M 603 4863 
L 1178 4863 
L 1178 4134 
L 603 4134 
L 603 4863 
z
" transform="scale(0.015625)"/>
       <path id="DejaVuSans-6d" d="M 3328 2828 
Q 3544 3216 3844 3400 
Q 4144 3584 4550 3584 
Q 5097 3584 5394 3201 
Q 5691 2819 5691 2113 
L 5691 0 
L 5113 0 
L 5113 2094 
Q 5113 2597 4934 2840 
Q 4756 3084 4391 3084 
Q 3944 3084 3684 2787 
Q 3425 2491 3425 1978 
L 3425 0 
L 2847 0 
L 2847 2094 
Q 2847 2600 2669 2842 
Q 2491 3084 2119 3084 
Q 1678 3084 1418 2786 
Q 1159 2488 1159 1978 
L 1159 0 
L 581 0 
L 581 3500 
L 1159 3500 
L 1159 2956 
Q 1356 3278 1631 3431 
Q 1906 3584 2284 3584 
Q 2666 3584 2933 3390 
Q 3200 3197 3328 2828 
z
" transform="scale(0.015625)"/>
       <path id="DejaVuSans-65" d="M 3597 1894 
L 3597 1613 
L 953 1613 
Q 991 1019 1311 708 
Q 1631 397 2203 397 
Q 2534 397 2845 478 
Q 3156 559 3463 722 
L 3463 178 
Q 3153 47 2828 -22 
Q 2503 -91 2169 -91 
Q 1331 -91 842 396 
Q 353 884 353 1716 
Q 353 2575 817 3079 
Q 1281 3584 2069 3584 
Q 2775 3584 3186 3129 
Q 3597 2675 3597 1894 
z
M 3022 2063 
Q 3016 2534 2758 2815 
Q 2500 3097 2075 3097 
Q 1594 3097 1305 2825 
Q 1016 2553 972 2059 
L 3022 2063 
z
" transform="scale(0.015625)"/>
       <path id="DejaVuSans-20" transform="scale(0.015625)"/>
       <path id="DejaVuSans-28" d="M 1984 4856 
Q 1566 4138 1362 3434 
Q 1159 2731 1159 2009 
Q 1159 1288 1364 580 
Q 1569 -128 1984 -844 
L 1484 -844 
Q 1016 -109 783 600 
Q 550 1309 550 2009 
Q 550 2706 781 3412 
Q 1013 4119 1484 4856 
L 1984 4856 
z
" transform="scale(0.015625)"/>
       <path id="DejaVuSans-73" d="M 2834 3397 
L 2834 2853 
Q 2591 2978 2328 3040 
Q 2066 3103 1784 3103 
Q 1356 3103 1142 2972 
Q 928 2841 928 2578 
Q 928 2378 1081 2264 
Q 1234 2150 1697 2047 
L 1894 2003 
Q 2506 1872 2764 1633 
Q 3022 1394 3022 966 
Q 3022 478 2636 193 
Q 2250 -91 1575 -91 
Q 1294 -91 989 -36 
Q 684 19 347 128 
L 347 722 
Q 666 556 975 473 
Q 1284 391 1588 391 
Q 1994 391 2212 530 
Q 2431 669 2431 922 
Q 2431 1156 2273 1281 
Q 2116 1406 1581 1522 
L 1381 1569 
Q 847 1681 609 1914 
Q 372 2147 372 2553 
Q 372 3047 722 3315 
Q 1072 3584 1716 3584 
Q 2034 3584 2315 3537 
Q 2597 3491 2834 3397 
z
" transform="scale(0.015625)"/>
       <path id="DejaVuSans-29" d="M 513 4856 
L 1013 4856 
Q 1481 4119 1714 3412 
Q 1947 2706 1947 2009 
Q 1947 1309 1714 600 
Q 1481 -109 1013 -844 
L 513 -844 
Q 928 -128 1133 580 
Q 1338 1288 1338 2009 
Q 1338 2731 1133 3434 
Q 928 4138 513 4856 
z
" transform="scale(0.015625)"/>
      </defs>
      <use xlink:href="#DejaVuSans-54"/>
      <use xlink:href="#DejaVuSans-69" x="57.958984"/>
      <use xlink:href="#DejaVuSans-6d" x="85.742188"/>
      <use xlink:href="#DejaVuSans-65" x="183.154297"/>
      <use xlink:href="#DejaVuSans-20" x="244.677734"/>
      <use xlink:href="#DejaVuSans-28" x="276.464844"/>
      <use xlink:href="#DejaVuSans-73" x="315.478516"/>
      <use xlink:href="#DejaVuSans-29" x="367.578125"/>
     </g>
    </g>
   </g>
   <g id="matplotlib.axis_2">
    <g id="ytick_1">
     <g id="line2d_8">
      <defs>
       <path id="m4be883fd19" d="M 0 0 
L -3.5 0 
" style="stroke: #000000; stroke-width: 0.8"/>
      </defs>
      <g>
       <use xlink:href="#m4be883fd19" x="46.051562" y="244.837969" style="stroke: #000000; stroke-width: 0.8"/>
      </g>
     </g>
     <g id="text_9">
      <!-- 0 -->
      <g transform="translate(31.416562 249.397031) scale(0.12 -0.12)">
       <use xlink:href="#DejaVuSans-30"/>
      </g>
     </g>
    </g>
    <g id="ytick_2">
     <g id="line2d_9">
      <g>
       <use xlink:href="#m4be883fd19" x="46.051562" y="213.23881" style="stroke: #000000; stroke-width: 0.8"/>
      </g>
     </g>
     <g id="text_10">
      <!-- 2 -->
      <g transform="translate(31.416562 217.797872) scale(0.12 -0.12)">
       <use xlink:href="#DejaVuSans-32"/>
      </g>
     </g>
    </g>
    <g id="ytick_3">
     <g id="line2d_10">
      <g>
       <use xlink:href="#m4be883fd19" x="46.051562" y="181.639651" style="stroke: #000000; stroke-width: 0.8"/>
      </g>
     </g>
     <g id="text_11">
      <!-- 4 -->
      <g transform="translate(31.416562 186.198714) scale(0.12 -0.12)">
       <defs>
        <path id="DejaVuSans-34" d="M 2419 4116 
L 825 1625 
L 2419 1625 
L 2419 4116 
z
M 2253 4666 
L 3047 4666 
L 3047 1625 
L 3713 1625 
L 3713 1100 
L 3047 1100 
L 3047 0 
L 2419 0 
L 2419 1100 
L 313 1100 
L 313 1709 
L 2253 4666 
z
" transform="scale(0.015625)"/>
       </defs>
       <use xlink:href="#DejaVuSans-34"/>
      </g>
     </g>
    </g>
    <g id="ytick_4">
     <g id="line2d_11">
      <g>
       <use xlink:href="#m4be883fd19" x="46.051562" y="150.040492" style="stroke: #000000; stroke-width: 0.8"/>
      </g>
     </g>
     <g id="text_12">
      <!-- 6 -->
      <g transform="translate(31.416562 154.599555) scale(0.12 -0.12)">
       <defs>
        <path id="DejaVuSans-36" d="M 2113 2584 
Q 1688 2584 1439 2293 
Q 1191 2003 1191 1497 
Q 1191 994 1439 701 
Q 1688 409 2113 409 
Q 2538 409 2786 701 
Q 3034 994 3034 1497 
Q 3034 2003 2786 2293 
Q 2538 2584 2113 2584 
z
M 3366 4563 
L 3366 3988 
Q 3128 4100 2886 4159 
Q 2644 4219 2406 4219 
Q 1781 4219 1451 3797 
Q 1122 3375 1075 2522 
Q 1259 2794 1537 2939 
Q 1816 3084 2150 3084 
Q 2853 3084 3261 2657 
Q 3669 2231 3669 1497 
Q 3669 778 3244 343 
Q 2819 -91 2113 -91 
Q 1303 -91 875 529 
Q 447 1150 447 2328 
Q 447 3434 972 4092 
Q 1497 4750 2381 4750 
Q 2619 4750 2861 4703 
Q 3103 4656 3366 4563 
z
" transform="scale(0.015625)"/>
       </defs>
       <use xlink:href="#DejaVuSans-36"/>
      </g>
     </g>
    </g>
    <g id="ytick_5">
     <g id="line2d_12">
      <g>
       <use xlink:href="#m4be883fd19" x="46.051562" y="118.441333" style="stroke: #000000; stroke-width: 0.8"/>
      </g>
     </g>
     <g id="text_13">
      <!-- 8 -->
      <g transform="translate(31.416562 123.000396) scale(0.12 -0.12)">
       <defs>
        <path id="DejaVuSans-38" d="M 2034 2216 
Q 1584 2216 1326 1975 
Q 1069 1734 1069 1313 
Q 1069 891 1326 650 
Q 1584 409 2034 409 
Q 2484 409 2743 651 
Q 3003 894 3003 1313 
Q 3003 1734 2745 1975 
Q 2488 2216 2034 2216 
z
M 1403 2484 
Q 997 2584 770 2862 
Q 544 3141 544 3541 
Q 544 4100 942 4425 
Q 1341 4750 2034 4750 
Q 2731 4750 3128 4425 
Q 3525 4100 3525 3541 
Q 3525 3141 3298 2862 
Q 3072 2584 2669 2484 
Q 3125 2378 3379 2068 
Q 3634 1759 3634 1313 
Q 3634 634 3220 271 
Q 2806 -91 2034 -91 
Q 1263 -91 848 271 
Q 434 634 434 1313 
Q 434 1759 690 2068 
Q 947 2378 1403 2484 
z
M 1172 3481 
Q 1172 3119 1398 2916 
Q 1625 2713 2034 2713 
Q 2441 2713 2670 2916 
Q 2900 3119 2900 3481 
Q 2900 3844 2670 4047 
Q 2441 4250 2034 4250 
Q 1625 4250 1398 4047 
Q 1172 3844 1172 3481 
z
" transform="scale(0.015625)"/>
       </defs>
       <use xlink:href="#DejaVuSans-38"/>
      </g>
     </g>
    </g>
    <g id="ytick_6">
     <g id="line2d_13">
      <g>
       <use xlink:href="#m4be883fd19" x="46.051562" y="86.842175" style="stroke: #000000; stroke-width: 0.8"/>
      </g>
     </g>
     <g id="text_14">
      <!-- 10 -->
      <g transform="translate(23.781562 91.401237) scale(0.12 -0.12)">
       <use xlink:href="#DejaVuSans-31"/>
       <use xlink:href="#DejaVuSans-30" x="63.623047"/>
      </g>
     </g>
    </g>
    <g id="ytick_7">
     <g id="line2d_14">
      <g>
       <use xlink:href="#m4be883fd19" x="46.051562" y="55.243016" style="stroke: #000000; stroke-width: 0.8"/>
      </g>
     </g>
     <g id="text_15">
      <!-- 12 -->
      <g transform="translate(23.781562 59.802078) scale(0.12 -0.12)">
       <use xlink:href="#DejaVuSans-31"/>
       <use xlink:href="#DejaVuSans-32" x="63.623047"/>
      </g>
     </g>
    </g>
    <g id="ytick_8">
     <g id="line2d_15">
      <g>
       <use xlink:href="#m4be883fd19" x="46.051562" y="23.643857" style="stroke: #000000; stroke-width: 0.8"/>
      </g>
     </g>
     <g id="text_16">
      <!-- 14 -->
      <g transform="translate(23.781562 28.20292) scale(0.12 -0.12)">
       <use xlink:href="#DejaVuSans-31"/>
       <use xlink:href="#DejaVuSans-34" x="63.623047"/>
      </g>
     </g>
    </g>
    <g id="text_17">
     <!-- Utilization (%) -->
     <g transform="translate(17.077969 179.839844) rotate(-90) scale(0.13 -0.13)">
      <defs>
       <path id="DejaVuSans-55" d="M 556 4666 
L 1191 4666 
L 1191 1831 
Q 1191 1081 1462 751 
Q 1734 422 2344 422 
Q 2950 422 3222 751 
Q 3494 1081 3494 1831 
L 3494 4666 
L 4128 4666 
L 4128 1753 
Q 4128 841 3676 375 
Q 3225 -91 2344 -91 
Q 1459 -91 1007 375 
Q 556 841 556 1753 
L 556 4666 
z
" transform="scale(0.015625)"/>
       <path id="DejaVuSans-74" d="M 1172 4494 
L 1172 3500 
L 2356 3500 
L 2356 3053 
L 1172 3053 
L 1172 1153 
Q 1172 725 1289 603 
Q 1406 481 1766 481 
L 2356 481 
L 2356 0 
L 1766 0 
Q 1100 0 847 248 
Q 594 497 594 1153 
L 594 3053 
L 172 3053 
L 172 3500 
L 594 3500 
L 594 4494 
L 1172 4494 
z
" transform="scale(0.015625)"/>
       <path id="DejaVuSans-6c" d="M 603 4863 
L 1178 4863 
L 1178 0 
L 603 0 
L 603 4863 
z
" transform="scale(0.015625)"/>
       <path id="DejaVuSans-7a" d="M 353 3500 
L 3084 3500 
L 3084 2975 
L 922 459 
L 3084 459 
L 3084 0 
L 275 0 
L 275 525 
L 2438 3041 
L 353 3041 
L 353 3500 
z
" transform="scale(0.015625)"/>
       <path id="DejaVuSans-61" d="M 2194 1759 
Q 1497 1759 1228 1600 
Q 959 1441 959 1056 
Q 959 750 1161 570 
Q 1363 391 1709 391 
Q 2188 391 2477 730 
Q 2766 1069 2766 1631 
L 2766 1759 
L 2194 1759 
z
M 3341 1997 
L 3341 0 
L 2766 0 
L 2766 531 
Q 2569 213 2275 61 
Q 1981 -91 1556 -91 
Q 1019 -91 701 211 
Q 384 513 384 1019 
Q 384 1609 779 1909 
Q 1175 2209 1959 2209 
L 2766 2209 
L 2766 2266 
Q 2766 2663 2505 2880 
Q 2244 3097 1772 3097 
Q 1472 3097 1187 3025 
Q 903 2953 641 2809 
L 641 3341 
Q 956 3463 1253 3523 
Q 1550 3584 1831 3584 
Q 2591 3584 2966 3190 
Q 3341 2797 3341 1997 
z
" transform="scale(0.015625)"/>
       <path id="DejaVuSans-6f" d="M 1959 3097 
Q 1497 3097 1228 2736 
Q 959 2375 959 1747 
Q 959 1119 1226 758 
Q 1494 397 1959 397 
Q 2419 397 2687 759 
Q 2956 1122 2956 1747 
Q 2956 2369 2687 2733 
Q 2419 3097 1959 3097 
z
M 1959 3584 
Q 2709 3584 3137 3096 
Q 3566 2609 3566 1747 
Q 3566 888 3137 398 
Q 2709 -91 1959 -91 
Q 1206 -91 779 398 
Q 353 888 353 1747 
Q 353 2609 779 3096 
Q 1206 3584 1959 3584 
z
" transform="scale(0.015625)"/>
       <path id="DejaVuSans-6e" d="M 3513 2113 
L 3513 0 
L 2938 0 
L 2938 2094 
Q 2938 2591 2744 2837 
Q 2550 3084 2163 3084 
Q 1697 3084 1428 2787 
Q 1159 2491 1159 1978 
L 1159 0 
L 581 0 
L 581 3500 
L 1159 3500 
L 1159 2956 
Q 1366 3272 1645 3428 
Q 1925 3584 2291 3584 
Q 2894 3584 3203 3211 
Q 3513 2838 3513 2113 
z
" transform="scale(0.015625)"/>
       <path id="DejaVuSans-25" d="M 4653 2053 
Q 4381 2053 4226 1822 
Q 4072 1591 4072 1178 
Q 4072 772 4226 539 
Q 4381 306 4653 306 
Q 4919 306 5073 539 
Q 5228 772 5228 1178 
Q 5228 1588 5073 1820 
Q 4919 2053 4653 2053 
z
M 4653 2450 
Q 5147 2450 5437 2106 
Q 5728 1763 5728 1178 
Q 5728 594 5436 251 
Q 5144 -91 4653 -91 
Q 4153 -91 3862 251 
Q 3572 594 3572 1178 
Q 3572 1766 3864 2108 
Q 4156 2450 4653 2450 
z
M 1428 4353 
Q 1159 4353 1004 4120 
Q 850 3888 850 3481 
Q 850 3069 1003 2837 
Q 1156 2606 1428 2606 
Q 1700 2606 1854 2837 
Q 2009 3069 2009 3481 
Q 2009 3884 1853 4118 
Q 1697 4353 1428 4353 
z
M 4250 4750 
L 4750 4750 
L 1831 -91 
L 1331 -91 
L 4250 4750 
z
M 1428 4750 
Q 1922 4750 2215 4408 
Q 2509 4066 2509 3481 
Q 2509 2891 2217 2550 
Q 1925 2209 1428 2209 
Q 931 2209 642 2551 
Q 353 2894 353 3481 
Q 353 4063 643 4406 
Q 934 4750 1428 4750 
z
" transform="scale(0.015625)"/>
      </defs>
      <use xlink:href="#DejaVuSans-55"/>
      <use xlink:href="#DejaVuSans-74" x="73.193359"/>
      <use xlink:href="#DejaVuSans-69" x="112.402344"/>
      <use xlink:href="#DejaVuSans-6c" x="140.185547"/>
      <use xlink:href="#DejaVuSans-69" x="167.96875"/>
      <use xlink:href="#DejaVuSans-7a" x="195.751953"/>
      <use xlink:href="#DejaVuSans-61" x="248.242188"/>
      <use xlink:href="#DejaVuSans-74" x="309.521484"/>
      <use xlink:href="#DejaVuSans-69" x="348.730469"/>
      <use xlink:href="#DejaVuSans-6f" x="376.513672"/>
      <use xlink:href="#DejaVuSans-6e" x="437.695312"/>
      <use xlink:href="#DejaVuSans-20" x="501.074219"/>
      <use xlink:href="#DejaVuSans-28" x="532.861328"/>
      <use xlink:href="#DejaVuSans-25" x="571.875"/>
      <use xlink:href="#DejaVuSans-29" x="666.894531"/>
     </g>
    </g>
   </g>
   <g id="patch_3">
    <path d="M 46.051562 244.837969 
L 46.051562 23.077969 
" style="fill: none; stroke: #000000; stroke-width: 0.8; stroke-linejoin: miter; stroke-linecap: square"/>
   </g>
   <g id="patch_4">
    <path d="M 548.251563 244.837969 
L 548.251563 23.077969 
" style="fill: none; stroke: #000000; stroke-width: 0.8; stroke-linejoin: miter; stroke-linecap: square"/>
   </g>
   <g id="patch_5">
    <path d="M 46.051562 244.837969 
L 548.251563 244.837969 
" style="fill: none; stroke: #000000; stroke-width: 0.8; stroke-linejoin: miter; stroke-linecap: square"/>
   </g>
   <g id="patch_6">
    <path d="M 46.051562 23.077969 
L 548.251563 23.077969 
" style="fill: none; stroke: #000000; stroke-width: 0.8; stroke-linejoin: miter; stroke-linecap: square"/>
   </g>
   <g id="text_18">
    <!-- Create VM Type 1 -->
    <g transform="translate(240.241016 17.077969) scale(0.13 -0.13)">
     <defs>
      <path id="DejaVuSans-43" d="M 4122 4306 
L 4122 3641 
Q 3803 3938 3442 4084 
Q 3081 4231 2675 4231 
Q 1875 4231 1450 3742 
Q 1025 3253 1025 2328 
Q 1025 1406 1450 917 
Q 1875 428 2675 428 
Q 3081 428 3442 575 
Q 3803 722 4122 1019 
L 4122 359 
Q 3791 134 3420 21 
Q 3050 -91 2638 -91 
Q 1578 -91 968 557 
Q 359 1206 359 2328 
Q 359 3453 968 4101 
Q 1578 4750 2638 4750 
Q 3056 4750 3426 4639 
Q 3797 4528 4122 4306 
z
" transform="scale(0.015625)"/>
      <path id="DejaVuSans-72" d="M 2631 2963 
Q 2534 3019 2420 3045 
Q 2306 3072 2169 3072 
Q 1681 3072 1420 2755 
Q 1159 2438 1159 1844 
L 1159 0 
L 581 0 
L 581 3500 
L 1159 3500 
L 1159 2956 
Q 1341 3275 1631 3429 
Q 1922 3584 2338 3584 
Q 2397 3584 2469 3576 
Q 2541 3569 2628 3553 
L 2631 2963 
z
" transform="scale(0.015625)"/>
      <path id="DejaVuSans-56" d="M 1831 0 
L 50 4666 
L 709 4666 
L 2188 738 
L 3669 4666 
L 4325 4666 
L 2547 0 
L 1831 0 
z
" transform="scale(0.015625)"/>
      <path id="DejaVuSans-4d" d="M 628 4666 
L 1569 4666 
L 2759 1491 
L 3956 4666 
L 4897 4666 
L 4897 0 
L 4281 0 
L 4281 4097 
L 3078 897 
L 2444 897 
L 1241 4097 
L 1241 0 
L 628 0 
L 628 4666 
z
" transform="scale(0.015625)"/>
      <path id="DejaVuSans-79" d="M 2059 -325 
Q 1816 -950 1584 -1140 
Q 1353 -1331 966 -1331 
L 506 -1331 
L 506 -850 
L 844 -850 
Q 1081 -850 1212 -737 
Q 1344 -625 1503 -206 
L 1606 56 
L 191 3500 
L 800 3500 
L 1894 763 
L 2988 3500 
L 3597 3500 
L 2059 -325 
z
" transform="scale(0.015625)"/>
      <path id="DejaVuSans-70" d="M 1159 525 
L 1159 -1331 
L 581 -1331 
L 581 3500 
L 1159 3500 
L 1159 2969 
Q 1341 3281 1617 3432 
Q 1894 3584 2278 3584 
Q 2916 3584 3314 3078 
Q 3713 2572 3713 1747 
Q 3713 922 3314 415 
Q 2916 -91 2278 -91 
Q 1894 -91 1617 61 
Q 1341 213 1159 525 
z
M 3116 1747 
Q 3116 2381 2855 2742 
Q 2594 3103 2138 3103 
Q 1681 3103 1420 2742 
Q 1159 2381 1159 1747 
Q 1159 1113 1420 752 
Q 1681 391 2138 391 
Q 2594 391 2855 752 
Q 3116 1113 3116 1747 
z
" transform="scale(0.015625)"/>
     </defs>
     <use xlink:href="#DejaVuSans-43"/>
     <use xlink:href="#DejaVuSans-72" x="69.824219"/>
     <use xlink:href="#DejaVuSans-65" x="108.6875"/>
     <use xlink:href="#DejaVuSans-61" x="170.210938"/>
     <use xlink:href="#DejaVuSans-74" x="231.490234"/>
     <use xlink:href="#DejaVuSans-65" x="270.699219"/>
     <use xlink:href="#DejaVuSans-20" x="332.222656"/>
     <use xlink:href="#DejaVuSans-56" x="364.009766"/>
     <use xlink:href="#DejaVuSans-4d" x="432.417969"/>
     <use xlink:href="#DejaVuSans-20" x="518.697266"/>
     <use xlink:href="#DejaVuSans-54" x="550.484375"/>
     <use xlink:href="#DejaVuSans-79" x="595.943359"/>
     <use xlink:href="#DejaVuSans-70" x="655.123047"/>
     <use xlink:href="#DejaVuSans-65" x="718.599609"/>
     <use xlink:href="#DejaVuSans-20" x="780.123047"/>
     <use xlink:href="#DejaVuSans-31" x="811.910156"/>
    </g>
   </g>
   <g id="legend_1">
    <g id="patch_7">
     <path d="M 427.126563 67.905469 
L 539.851563 67.905469 
Q 542.251563 67.905469 542.251563 65.505469 
L 542.251563 31.477969 
Q 542.251563 29.077969 539.851563 29.077969 
L 427.126563 29.077969 
Q 424.726563 29.077969 424.726563 31.477969 
L 424.726563 65.505469 
Q 424.726563 67.905469 427.126563 67.905469 
z
" style="fill: #ffffff; opacity: 0.8; stroke: #cccccc; stroke-linejoin: miter"/>
    </g>
    <g id="patch_8">
     <path d="M 429.526563 42.996094 
L 453.526563 42.996094 
L 453.526563 34.596094 
L 429.526563 34.596094 
z
" style="fill: #009384; fill-opacity: 0.7; stroke: #009384; stroke-opacity: 0.7; stroke-width: 1.5; stroke-linejoin: miter"/>
    </g>
    <g id="text_19">
     <!-- KubeVirt -->
     <g transform="translate(463.126563 42.996094) scale(0.12 -0.12)">
      <defs>
       <path id="DejaVuSans-4b" d="M 628 4666 
L 1259 4666 
L 1259 2694 
L 3353 4666 
L 4166 4666 
L 1850 2491 
L 4331 0 
L 3500 0 
L 1259 2247 
L 1259 0 
L 628 0 
L 628 4666 
z
" transform="scale(0.015625)"/>
       <path id="DejaVuSans-75" d="M 544 1381 
L 544 3500 
L 1119 3500 
L 1119 1403 
Q 1119 906 1312 657 
Q 1506 409 1894 409 
Q 2359 409 2629 706 
Q 2900 1003 2900 1516 
L 2900 3500 
L 3475 3500 
L 3475 0 
L 2900 0 
L 2900 538 
Q 2691 219 2414 64 
Q 2138 -91 1772 -91 
Q 1169 -91 856 284 
Q 544 659 544 1381 
z
M 1991 3584 
L 1991 3584 
z
" transform="scale(0.015625)"/>
       <path id="DejaVuSans-62" d="M 3116 1747 
Q 3116 2381 2855 2742 
Q 2594 3103 2138 3103 
Q 1681 3103 1420 2742 
Q 1159 2381 1159 1747 
Q 1159 1113 1420 752 
Q 1681 391 2138 391 
Q 2594 391 2855 752 
Q 3116 1113 3116 1747 
z
M 1159 2969 
Q 1341 3281 1617 3432 
Q 1894 3584 2278 3584 
Q 2916 3584 3314 3078 
Q 3713 2572 3713 1747 
Q 3713 922 3314 415 
Q 2916 -91 2278 -91 
Q 1894 -91 1617 61 
Q 1341 213 1159 525 
L 1159 0 
L 581 0 
L 581 4863 
L 1159 4863 
L 1159 2969 
z
" transform="scale(0.015625)"/>
      </defs>
      <use xlink:href="#DejaVuSans-4b"/>
      <use xlink:href="#DejaVuSans-75" x="60.576172"/>
      <use xlink:href="#DejaVuSans-62" x="123.955078"/>
      <use xlink:href="#DejaVuSans-65" x="187.431641"/>
      <use xlink:href="#DejaVuSans-56" x="248.955078"/>
      <use xlink:href="#DejaVuSans-69" x="315.113281"/>
      <use xlink:href="#DejaVuSans-72" x="342.896484"/>
      <use xlink:href="#DejaVuSans-74" x="384.009766"/>
     </g>
    </g>
    <g id="patch_9">
     <path d="M 429.526563 60.609844 
L 453.526563 60.609844 
L 453.526563 52.209844 
L 429.526563 52.209844 
z
" style="fill: #b85741; fill-opacity: 0.7; stroke: #b85741; stroke-opacity: 0.7; stroke-width: 1.5; stroke-linejoin: miter"/>
    </g>
    <g id="text_20">
     <!-- OpenNebula -->
     <g transform="translate(463.126563 60.609844) scale(0.12 -0.12)">
      <defs>
       <path id="DejaVuSans-4f" d="M 2522 4238 
Q 1834 4238 1429 3725 
Q 1025 3213 1025 2328 
Q 1025 1447 1429 934 
Q 1834 422 2522 422 
Q 3209 422 3611 934 
Q 4013 1447 4013 2328 
Q 4013 3213 3611 3725 
Q 3209 4238 2522 4238 
z
M 2522 4750 
Q 3503 4750 4090 4092 
Q 4678 3434 4678 2328 
Q 4678 1225 4090 567 
Q 3503 -91 2522 -91 
Q 1538 -91 948 565 
Q 359 1222 359 2328 
Q 359 3434 948 4092 
Q 1538 4750 2522 4750 
z
" transform="scale(0.015625)"/>
       <path id="DejaVuSans-4e" d="M 628 4666 
L 1478 4666 
L 3547 763 
L 3547 4666 
L 4159 4666 
L 4159 0 
L 3309 0 
L 1241 3903 
L 1241 0 
L 628 0 
L 628 4666 
z
" transform="scale(0.015625)"/>
      </defs>
      <use xlink:href="#DejaVuSans-4f"/>
      <use xlink:href="#DejaVuSans-70" x="78.710938"/>
      <use xlink:href="#DejaVuSans-65" x="142.1875"/>
      <use xlink:href="#DejaVuSans-6e" x="203.710938"/>
      <use xlink:href="#DejaVuSans-4e" x="267.089844"/>
      <use xlink:href="#DejaVuSans-65" x="341.894531"/>
      <use xlink:href="#DejaVuSans-62" x="403.417969"/>
      <use xlink:href="#DejaVuSans-75" x="466.894531"/>
      <use xlink:href="#DejaVuSans-6c" x="530.273438"/>
      <use xlink:href="#DejaVuSans-61" x="558.056641"/>
     </g>
    </g>
   </g>
  </g>
 </g>
 <defs>
  <clipPath id="p5b20ccb63d">
   <rect x="46.051562" y="23.077969" width="502.2" height="221.76"/>
  </clipPath>
 </defs>
</svg>
