<?xml version="1.0" encoding="utf-8" standalone="no"?>
<!DOCTYPE svg PUBLIC "-//W3C//DTD SVG 1.1//EN"
  "http://www.w3.org/Graphics/SVG/1.1/DTD/svg11.dtd">
<svg xmlns:xlink="http://www.w3.org/1999/xlink" width="564.412812pt" height="298.015156pt" viewBox="0 0 564.412812 298.015156" xmlns="http://www.w3.org/2000/svg" version="1.1">
 <metadata>
  <rdf:RDF xmlns:dc="http://purl.org/dc/elements/1.1/" xmlns:cc="http://creativecommons.org/ns#" xmlns:rdf="http://www.w3.org/1999/02/22-rdf-syntax-ns#">
   <cc:Work>
    <dc:type rdf:resource="http://purl.org/dc/dcmitype/StillImage"/>
    <dc:date>2024-06-25T10:48:33.673765</dc:date>
    <dc:format>image/svg+xml</dc:format>
    <dc:creator>
     <cc:Agent>
      <dc:title>Matplotlib v3.8.4, https://matplotlib.org/</dc:title>
     </cc:Agent>
    </dc:creator>
   </cc:Work>
  </rdf:RDF>
 </metadata>
 <defs>
  <style type="text/css">*{stroke-linejoin: round; stroke-linecap: butt}</style>
 </defs>
 <g id="figure_1">
  <g id="patch_1">
   <path d="M 0 298.015156 
L 564.412812 298.015156 
L 564.412812 0 
L 0 0 
z
" style="fill: #f3f7f8"/>
  </g>
  <g id="axes_1">
   <g id="patch_2">
    <path d="M 55.012813 247.877344 
L 557.212813 247.877344 
L 557.212813 26.117344 
L 55.012813 26.117344 
z
" style="fill: #ffffff"/>
   </g>
   <g id="PolyCollection_1">
    <defs>
     <path id="m10b58fecb4" d="M 81.492449 -137.485327 
L 81.492449 -123.950874 
L 85.144813 -123.925282 
L 88.797176 -123.804853 
L 92.44954 -123.760523 
L 96.101903 -123.6761 
L 99.754267 -123.797101 
L 103.406631 -123.749064 
L 107.058994 -123.965996 
L 110.711358 -124.08628 
L 114.363722 -124.351873 
L 118.016085 -124.727896 
L 121.668449 -125.214893 
L 125.320813 -125.941652 
L 128.973176 -126.637782 
L 132.62554 -127.681078 
L 136.277903 -128.677143 
L 139.930267 -129.906416 
L 143.582631 -131.152481 
L 147.234994 -132.822816 
L 150.887358 -134.400124 
L 154.539722 -136.571678 
L 158.192085 -138.566173 
L 161.844449 -141.358581 
L 165.496813 -143.834577 
L 169.149176 -147.045327 
L 172.80154 -150.29071 
L 176.453903 -154.089256 
L 180.106267 -157.824229 
L 183.758631 -162.07095 
L 187.410994 -166.49632 
L 191.063358 -170.966967 
L 194.715722 -175.581706 
L 198.368085 -179.933313 
L 202.020449 -184.634114 
L 205.672813 -188.829188 
L 209.325176 -193.550461 
L 212.97754 -197.655452 
L 216.629903 -202.086676 
L 220.282267 -206.127812 
L 223.934631 -210.409323 
L 227.586994 -214.350078 
L 231.239358 -218.372123 
L 234.891722 -222.238593 
L 238.544085 -226.396847 
L 242.196449 -230.008335 
L 245.848813 -234.346946 
L 249.501176 -237.672394 
L 253.15354 -240.803321 
L 256.805903 -242.951355 
L 260.458267 -243.6698 
L 264.110631 -242.996079 
L 267.762994 -240.815107 
L 271.415358 -237.407768 
L 275.067722 -231.730242 
L 278.720085 -224.853769 
L 282.372449 -215.989958 
L 286.024813 -206.344458 
L 289.677176 -195.835393 
L 293.32954 -185.263831 
L 296.981903 -174.388208 
L 300.634267 -165.202222 
L 304.286631 -156.303224 
L 307.938994 -148.734487 
L 311.591358 -142.163626 
L 315.243722 -137.032483 
L 318.896085 -133.293869 
L 322.548449 -130.751955 
L 326.200813 -128.941671 
L 329.853176 -127.661483 
L 333.50554 -126.935208 
L 337.157903 -126.549118 
L 340.810267 -126.091121 
L 344.462631 -125.998744 
L 348.114994 -125.646406 
L 351.767358 -125.465274 
L 355.419722 -125.403469 
L 359.072085 -125.34995 
L 362.724449 -125.181255 
L 366.376813 -125.206997 
L 370.029176 -125.238731 
L 373.68154 -125.154694 
L 377.333903 -125.53036 
L 380.986267 -125.261779 
L 384.638631 -125.566423 
L 388.290994 -125.260321 
L 395.595722 -120.670317 
L 399.248085 -116.904537 
L 402.900449 -112.170145 
L 406.552813 -108.483887 
L 410.205176 -103.760079 
L 413.85754 -100.029854 
L 413.85754 -105.243391 
L 413.85754 -105.243391 
L 410.205176 -110.25781 
L 406.552813 -116.071714 
L 402.900449 -121.088596 
L 399.248085 -126.918094 
L 395.595722 -131.921192 
L 388.290994 -137.753211 
L 384.638631 -138.430683 
L 380.986267 -138.224142 
L 377.333903 -138.604458 
L 373.68154 -138.466873 
L 370.029176 -138.586572 
L 366.376813 -138.52783 
L 362.724449 -138.584723 
L 359.072085 -138.782338 
L 355.419722 -139.012909 
L 351.767358 -139.5653 
L 348.114994 -140.745817 
L 344.462631 -141.123688 
L 340.810267 -142.657305 
L 337.157903 -144.863696 
L 333.50554 -147.016284 
L 329.853176 -149.686763 
L 326.200813 -152.919028 
L 322.548449 -157.615268 
L 318.896085 -162.641023 
L 315.243722 -169.525033 
L 311.591358 -177.109192 
L 307.938994 -185.10664 
L 304.286631 -195.078421 
L 300.634267 -204.238525 
L 296.981903 -213.203267 
L 293.32954 -222.867623 
L 289.677176 -232.014956 
L 286.024813 -240.504575 
L 282.372449 -247.415836 
L 278.720085 -253.736919 
L 275.067722 -257.585719 
L 271.415358 -260.521934 
L 267.762994 -261.734335 
L 264.110631 -261.817813 
L 260.458267 -260.93383 
L 256.805903 -259.245743 
L 253.15354 -256.802933 
L 249.501176 -253.78414 
L 245.848813 -250.612753 
L 242.196449 -246.991603 
L 238.544085 -243.596984 
L 234.891722 -239.804235 
L 231.239358 -236.314308 
L 227.586994 -232.442261 
L 223.934631 -228.775307 
L 220.282267 -224.705636 
L 216.629903 -220.797433 
L 212.97754 -216.563992 
L 209.325176 -212.397568 
L 205.672813 -208.086866 
L 202.020449 -203.411626 
L 198.368085 -198.882852 
L 194.715722 -194.14678 
L 191.063358 -189.226686 
L 187.410994 -184.508262 
L 183.758631 -179.585493 
L 180.106267 -175.079996 
L 176.453903 -170.610105 
L 172.80154 -166.321653 
L 169.149176 -162.47943 
L 165.496813 -158.697601 
L 161.844449 -155.789655 
L 158.192085 -152.494388 
L 154.539722 -150.250874 
L 150.887358 -147.791443 
L 147.234994 -145.980794 
L 143.582631 -144.206268 
L 139.930267 -142.844342 
L 136.277903 -141.653812 
L 132.62554 -140.642056 
L 128.973176 -139.689665 
L 125.320813 -139.021731 
L 121.668449 -138.407242 
L 118.016085 -137.958392 
L 114.363722 -137.705035 
L 110.711358 -137.396711 
L 107.058994 -137.375296 
L 103.406631 -137.199032 
L 99.754267 -137.283526 
L 96.101903 -137.17741 
L 92.44954 -137.287185 
L 88.797176 -137.315322 
L 85.144813 -137.466358 
L 81.492449 -137.485327 
z
" style="stroke: #009384; stroke-opacity: 0.15"/>
    </defs>
    <g clip-path="url(#pac25b0118d)">
     <use xlink:href="#m10b58fecb4" x="0" y="298.015156" style="fill: #009384; fill-opacity: 0.15; stroke: #009384; stroke-opacity: 0.15"/>
    </g>
   </g>
   <g id="PolyCollection_2">
    <defs>
     <path id="m3557ef8eb1" d="M 77.840085 -85.170656 
L 77.840085 -60.217812 
L 81.492449 -62.989899 
L 85.144813 -62.745655 
L 88.797176 -62.179299 
L 92.44954 -62.675246 
L 96.101903 -61.920366 
L 99.754267 -62.481256 
L 103.406631 -62.043681 
L 107.058994 -62.482533 
L 110.711358 -61.911449 
L 114.363722 -62.650846 
L 118.016085 -62.150543 
L 121.668449 -62.411252 
L 125.320813 -62.698334 
L 128.973176 -62.912151 
L 132.62554 -62.372791 
L 136.277903 -63.008397 
L 139.930267 -62.41598 
L 143.582631 -62.749842 
L 147.234994 -62.390713 
L 150.887358 -62.922111 
L 154.539722 -62.281622 
L 158.192085 -62.873616 
L 161.844449 -62.134402 
L 165.496813 -62.785145 
L 169.149176 -62.14324 
L 172.80154 -62.8594 
L 176.453903 -62.382532 
L 180.106267 -62.815948 
L 183.758631 -62.810648 
L 187.410994 -63.243435 
L 191.063358 -62.997854 
L 194.715722 -63.368254 
L 198.368085 -63.460592 
L 202.020449 -63.615035 
L 205.672813 -63.849734 
L 209.325176 -64.135151 
L 212.97754 -64.445218 
L 216.629903 -64.451537 
L 220.282267 -65.010939 
L 223.934631 -64.784793 
L 227.586994 -65.490247 
L 231.239358 -65.382613 
L 234.891722 -66.402876 
L 238.544085 -66.560848 
L 242.196449 -67.055437 
L 245.848813 -67.726941 
L 249.501176 -68.1176 
L 253.15354 -69.419332 
L 256.805903 -70.062635 
L 260.458267 -71.351511 
L 264.110631 -72.247451 
L 267.762994 -73.059731 
L 271.415358 -74.726969 
L 275.067722 -75.717865 
L 278.720085 -76.960462 
L 282.372449 -78.878874 
L 286.024813 -79.607852 
L 289.677176 -81.460835 
L 293.32954 -82.137677 
L 296.981903 -83.549 
L 300.634267 -84.241708 
L 304.286631 -85.205788 
L 307.938994 -85.804038 
L 311.591358 -86.183259 
L 315.243722 -86.726183 
L 318.896085 -87.244793 
L 322.548449 -87.496035 
L 326.200813 -87.534658 
L 329.853176 -88.072818 
L 333.50554 -87.988647 
L 337.157903 -88.035416 
L 340.810267 -87.899528 
L 344.462631 -87.23539 
L 348.114994 -87.295135 
L 351.767358 -86.036774 
L 355.419722 -84.750217 
L 359.072085 -83.778964 
L 362.724449 -81.472078 
L 366.376813 -80.652331 
L 370.029176 -78.267514 
L 373.68154 -75.938553 
L 377.333903 -74.18326 
L 380.986267 -71.774818 
L 384.638631 -70.955047 
L 388.290994 -68.536111 
L 391.943358 -68.173406 
L 395.595722 -66.764195 
L 399.248085 -65.641763 
L 402.900449 -65.204977 
L 406.552813 -63.998803 
L 410.205176 -63.616469 
L 413.85754 -63.556982 
L 417.509903 -63.3685 
L 421.162267 -63.254351 
L 424.814631 -63.048962 
L 428.466994 -63.048553 
L 432.119358 -62.642594 
L 435.771722 -62.816875 
L 439.424085 -62.544073 
L 443.076449 -62.748403 
L 446.728813 -62.828487 
L 450.381176 -62.66618 
L 454.03354 -63.027211 
L 457.685903 -62.455502 
L 461.338267 -62.903562 
L 464.990631 -62.324392 
L 468.642994 -62.721426 
L 472.295358 -62.282661 
L 475.947722 -62.515999 
L 479.600085 -62.269723 
L 483.252449 -62.557192 
L 486.904813 -62.296598 
L 490.557176 -62.239253 
L 494.20954 -62.187084 
L 497.861903 -62.164317 
L 501.514267 -62.584132 
L 505.166631 -62.438118 
L 508.818994 -62.570206 
L 512.471358 -62.138916 
L 516.123722 -63.213838 
L 519.776085 -62.645375 
L 523.428449 -63.185166 
L 527.080813 -62.617417 
L 530.733176 -65.749307 
L 534.38554 -63.88694 
L 534.38554 -83.997175 
L 534.38554 -83.997175 
L 530.733176 -88.024735 
L 527.080813 -87.044616 
L 523.428449 -86.968289 
L 519.776085 -86.425937 
L 516.123722 -86.862466 
L 512.471358 -86.237876 
L 508.818994 -86.587578 
L 505.166631 -86.601271 
L 501.514267 -86.984168 
L 497.861903 -86.5799 
L 494.20954 -86.790223 
L 490.557176 -86.684935 
L 486.904813 -87.091543 
L 483.252449 -87.527431 
L 479.600085 -87.593267 
L 475.947722 -87.659962 
L 472.295358 -87.543538 
L 468.642994 -87.908548 
L 464.990631 -87.679663 
L 461.338267 -88.206253 
L 457.685903 -87.883904 
L 454.03354 -88.425562 
L 450.381176 -88.131373 
L 446.728813 -88.37002 
L 443.076449 -88.130465 
L 439.424085 -88.136427 
L 435.771722 -87.991462 
L 432.119358 -88.109568 
L 428.466994 -88.186792 
L 424.814631 -88.887231 
L 421.162267 -89.105696 
L 417.509903 -90.136588 
L 413.85754 -90.958061 
L 410.205176 -92.454989 
L 406.552813 -93.719576 
L 402.900449 -95.9516 
L 399.248085 -98.506446 
L 395.595722 -101.546673 
L 391.943358 -105.780433 
L 388.290994 -109.124595 
L 384.638631 -114.170479 
L 380.986267 -118.148272 
L 377.333903 -123.120432 
L 373.68154 -127.555096 
L 370.029176 -132.331003 
L 366.376813 -137.226901 
L 362.724449 -140.848075 
L 359.072085 -144.424097 
L 355.419722 -147.307065 
L 351.767358 -149.309403 
L 348.114994 -151.235713 
L 344.462631 -151.346715 
L 340.810267 -151.940978 
L 337.157903 -151.652383 
L 333.50554 -151.435127 
L 329.853176 -150.716596 
L 326.200813 -149.610299 
L 322.548449 -148.78309 
L 318.896085 -147.809998 
L 315.243722 -146.405166 
L 311.591358 -144.605651 
L 307.938994 -143.16411 
L 304.286631 -141.358208 
L 300.634267 -139.332034 
L 296.981903 -136.785939 
L 293.32954 -134.287968 
L 289.677176 -131.598839 
L 286.024813 -128.835417 
L 282.372449 -126.030719 
L 278.720085 -123.112897 
L 275.067722 -120.02393 
L 271.415358 -117.423025 
L 267.762994 -114.658528 
L 264.110631 -112.163411 
L 260.458267 -110.213016 
L 256.805903 -108.251949 
L 253.15354 -106.258524 
L 249.501176 -104.224961 
L 245.848813 -102.316056 
L 242.196449 -100.928127 
L 238.544085 -99.190328 
L 234.891722 -98.26318 
L 231.239358 -96.820596 
L 227.586994 -95.637612 
L 223.934631 -94.467352 
L 220.282267 -93.694988 
L 216.629903 -92.868946 
L 212.97754 -92.059942 
L 209.325176 -91.490739 
L 205.672813 -90.679891 
L 202.020449 -89.899948 
L 198.368085 -89.275497 
L 194.715722 -88.947075 
L 191.063358 -88.352501 
L 187.410994 -88.218076 
L 183.758631 -88.050767 
L 180.106267 -87.771487 
L 176.453903 -87.360852 
L 172.80154 -87.48148 
L 169.149176 -87.099347 
L 165.496813 -87.352981 
L 161.844449 -87.224462 
L 158.192085 -87.773094 
L 154.539722 -87.617248 
L 150.887358 -88.038565 
L 147.234994 -88.00653 
L 143.582631 -88.135669 
L 139.930267 -87.991791 
L 136.277903 -88.448363 
L 132.62554 -88.095531 
L 128.973176 -88.334337 
L 125.320813 -88.27833 
L 121.668449 -87.946555 
L 118.016085 -87.27904 
L 114.363722 -87.540823 
L 110.711358 -87.006743 
L 107.058994 -87.099798 
L 103.406631 -86.813073 
L 99.754267 -87.014818 
L 96.101903 -86.529392 
L 92.44954 -87.094132 
L 88.797176 -86.840204 
L 85.144813 -87.275644 
L 81.492449 -87.59036 
L 77.840085 -85.170656 
z
" style="stroke: #b85741; stroke-opacity: 0.15"/>
    </defs>
    <g clip-path="url(#pac25b0118d)">
     <use xlink:href="#m3557ef8eb1" x="0" y="298.015156" style="fill: #b85741; fill-opacity: 0.15; stroke: #b85741; stroke-opacity: 0.15"/>
    </g>
   </g>
   <g id="matplotlib.axis_1">
    <g id="xtick_1">
     <g id="line2d_1">
      <defs>
       <path id="me7856cc6e9" d="M 0 0 
L 0 3.5 
" style="stroke: #000000; stroke-width: 0.8"/>
      </defs>
      <g>
       <use xlink:href="#me7856cc6e9" x="81.492449" y="247.877344" style="stroke: #000000; stroke-width: 0.8"/>
      </g>
     </g>
     <g id="text_1">
      <!-- 0 -->
      <g transform="translate(76.402449 267.034844) scale(0.16 -0.16)">
       <defs>
        <path id="DejaVuSans-30" d="M 2034 4250 
Q 1547 4250 1301 3770 
Q 1056 3291 1056 2328 
Q 1056 1369 1301 889 
Q 1547 409 2034 409 
Q 2525 409 2770 889 
Q 3016 1369 3016 2328 
Q 3016 3291 2770 3770 
Q 2525 4250 2034 4250 
z
M 2034 4750 
Q 2819 4750 3233 4129 
Q 3647 3509 3647 2328 
Q 3647 1150 3233 529 
Q 2819 -91 2034 -91 
Q 1250 -91 836 529 
Q 422 1150 422 2328 
Q 422 3509 836 4129 
Q 1250 4750 2034 4750 
z
" transform="scale(0.015625)"/>
       </defs>
       <use xlink:href="#DejaVuSans-30"/>
      </g>
     </g>
    </g>
    <g id="xtick_2">
     <g id="line2d_2">
      <g>
       <use xlink:href="#me7856cc6e9" x="154.539722" y="247.877344" style="stroke: #000000; stroke-width: 0.8"/>
      </g>
     </g>
     <g id="text_2">
      <!-- 20 -->
      <g transform="translate(144.359722 267.034844) scale(0.16 -0.16)">
       <defs>
        <path id="DejaVuSans-32" d="M 1228 531 
L 3431 531 
L 3431 0 
L 469 0 
L 469 531 
Q 828 903 1448 1529 
Q 2069 2156 2228 2338 
Q 2531 2678 2651 2914 
Q 2772 3150 2772 3378 
Q 2772 3750 2511 3984 
Q 2250 4219 1831 4219 
Q 1534 4219 1204 4116 
Q 875 4013 500 3803 
L 500 4441 
Q 881 4594 1212 4672 
Q 1544 4750 1819 4750 
Q 2544 4750 2975 4387 
Q 3406 4025 3406 3419 
Q 3406 3131 3298 2873 
Q 3191 2616 2906 2266 
Q 2828 2175 2409 1742 
Q 1991 1309 1228 531 
z
" transform="scale(0.015625)"/>
       </defs>
       <use xlink:href="#DejaVuSans-32"/>
       <use xlink:href="#DejaVuSans-30" x="63.623047"/>
      </g>
     </g>
    </g>
    <g id="xtick_3">
     <g id="line2d_3">
      <g>
       <use xlink:href="#me7856cc6e9" x="227.586994" y="247.877344" style="stroke: #000000; stroke-width: 0.8"/>
      </g>
     </g>
     <g id="text_3">
      <!-- 40 -->
      <g transform="translate(217.406994 267.034844) scale(0.16 -0.16)">
       <defs>
        <path id="DejaVuSans-34" d="M 2419 4116 
L 825 1625 
L 2419 1625 
L 2419 4116 
z
M 2253 4666 
L 3047 4666 
L 3047 1625 
L 3713 1625 
L 3713 1100 
L 3047 1100 
L 3047 0 
L 2419 0 
L 2419 1100 
L 313 1100 
L 313 1709 
L 2253 4666 
z
" transform="scale(0.015625)"/>
       </defs>
       <use xlink:href="#DejaVuSans-34"/>
       <use xlink:href="#DejaVuSans-30" x="63.623047"/>
      </g>
     </g>
    </g>
    <g id="xtick_4">
     <g id="line2d_4">
      <g>
       <use xlink:href="#me7856cc6e9" x="300.634267" y="247.877344" style="stroke: #000000; stroke-width: 0.8"/>
      </g>
     </g>
     <g id="text_4">
      <!-- 60 -->
      <g transform="translate(290.454267 267.034844) scale(0.16 -0.16)">
       <defs>
        <path id="DejaVuSans-36" d="M 2113 2584 
Q 1688 2584 1439 2293 
Q 1191 2003 1191 1497 
Q 1191 994 1439 701 
Q 1688 409 2113 409 
Q 2538 409 2786 701 
Q 3034 994 3034 1497 
Q 3034 2003 2786 2293 
Q 2538 2584 2113 2584 
z
M 3366 4563 
L 3366 3988 
Q 3128 4100 2886 4159 
Q 2644 4219 2406 4219 
Q 1781 4219 1451 3797 
Q 1122 3375 1075 2522 
Q 1259 2794 1537 2939 
Q 1816 3084 2150 3084 
Q 2853 3084 3261 2657 
Q 3669 2231 3669 1497 
Q 3669 778 3244 343 
Q 2819 -91 2113 -91 
Q 1303 -91 875 529 
Q 447 1150 447 2328 
Q 447 3434 972 4092 
Q 1497 4750 2381 4750 
Q 2619 4750 2861 4703 
Q 3103 4656 3366 4563 
z
" transform="scale(0.015625)"/>
       </defs>
       <use xlink:href="#DejaVuSans-36"/>
       <use xlink:href="#DejaVuSans-30" x="63.623047"/>
      </g>
     </g>
    </g>
    <g id="xtick_5">
     <g id="line2d_5">
      <g>
       <use xlink:href="#me7856cc6e9" x="373.68154" y="247.877344" style="stroke: #000000; stroke-width: 0.8"/>
      </g>
     </g>
     <g id="text_5">
      <!-- 80 -->
      <g transform="translate(363.50154 267.034844) scale(0.16 -0.16)">
       <defs>
        <path id="DejaVuSans-38" d="M 2034 2216 
Q 1584 2216 1326 1975 
Q 1069 1734 1069 1313 
Q 1069 891 1326 650 
Q 1584 409 2034 409 
Q 2484 409 2743 651 
Q 3003 894 3003 1313 
Q 3003 1734 2745 1975 
Q 2488 2216 2034 2216 
z
M 1403 2484 
Q 997 2584 770 2862 
Q 544 3141 544 3541 
Q 544 4100 942 4425 
Q 1341 4750 2034 4750 
Q 2731 4750 3128 4425 
Q 3525 4100 3525 3541 
Q 3525 3141 3298 2862 
Q 3072 2584 2669 2484 
Q 3125 2378 3379 2068 
Q 3634 1759 3634 1313 
Q 3634 634 3220 271 
Q 2806 -91 2034 -91 
Q 1263 -91 848 271 
Q 434 634 434 1313 
Q 434 1759 690 2068 
Q 947 2378 1403 2484 
z
M 1172 3481 
Q 1172 3119 1398 2916 
Q 1625 2713 2034 2713 
Q 2441 2713 2670 2916 
Q 2900 3119 2900 3481 
Q 2900 3844 2670 4047 
Q 2441 4250 2034 4250 
Q 1625 4250 1398 4047 
Q 1172 3844 1172 3481 
z
" transform="scale(0.015625)"/>
       </defs>
       <use xlink:href="#DejaVuSans-38"/>
       <use xlink:href="#DejaVuSans-30" x="63.623047"/>
      </g>
     </g>
    </g>
    <g id="xtick_6">
     <g id="line2d_6">
      <g>
       <use xlink:href="#me7856cc6e9" x="446.728813" y="247.877344" style="stroke: #000000; stroke-width: 0.8"/>
      </g>
     </g>
     <g id="text_6">
      <!-- 100 -->
      <g transform="translate(431.458813 267.034844) scale(0.16 -0.16)">
       <defs>
        <path id="DejaVuSans-31" d="M 794 531 
L 1825 531 
L 1825 4091 
L 703 3866 
L 703 4441 
L 1819 4666 
L 2450 4666 
L 2450 531 
L 3481 531 
L 3481 0 
L 794 0 
L 794 531 
z
" transform="scale(0.015625)"/>
       </defs>
       <use xlink:href="#DejaVuSans-31"/>
       <use xlink:href="#DejaVuSans-30" x="63.623047"/>
       <use xlink:href="#DejaVuSans-30" x="127.246094"/>
      </g>
     </g>
    </g>
    <g id="xtick_7">
     <g id="line2d_7">
      <g>
       <use xlink:href="#me7856cc6e9" x="519.776085" y="247.877344" style="stroke: #000000; stroke-width: 0.8"/>
      </g>
     </g>
     <g id="text_7">
      <!-- 120 -->
      <g transform="translate(504.506085 267.034844) scale(0.16 -0.16)">
       <use xlink:href="#DejaVuSans-31"/>
       <use xlink:href="#DejaVuSans-32" x="63.623047"/>
       <use xlink:href="#DejaVuSans-30" x="127.246094"/>
      </g>
     </g>
    </g>
    <g id="text_8">
     <!-- Time (s) -->
     <g transform="translate(271.553672 287.279687) scale(0.17 -0.17)">
      <defs>
       <path id="DejaVuSans-54" d="M -19 4666 
L 3928 4666 
L 3928 4134 
L 2272 4134 
L 2272 0 
L 1638 0 
L 1638 4134 
L -19 4134 
L -19 4666 
z
" transform="scale(0.015625)"/>
       <path id="DejaVuSans-69" d="M 603 3500 
L 1178 3500 
L 1178 0 
L 603 0 
L 603 3500 
z
M 603 4863 
L 1178 4863 
L 1178 4134 
L 603 4134 
L 603 4863 
z
" transform="scale(0.015625)"/>
       <path id="DejaVuSans-6d" d="M 3328 2828 
Q 3544 3216 3844 3400 
Q 4144 3584 4550 3584 
Q 5097 3584 5394 3201 
Q 5691 2819 5691 2113 
L 5691 0 
L 5113 0 
L 5113 2094 
Q 5113 2597 4934 2840 
Q 4756 3084 4391 3084 
Q 3944 3084 3684 2787 
Q 3425 2491 3425 1978 
L 3425 0 
L 2847 0 
L 2847 2094 
Q 2847 2600 2669 2842 
Q 2491 3084 2119 3084 
Q 1678 3084 1418 2786 
Q 1159 2488 1159 1978 
L 1159 0 
L 581 0 
L 581 3500 
L 1159 3500 
L 1159 2956 
Q 1356 3278 1631 3431 
Q 1906 3584 2284 3584 
Q 2666 3584 2933 3390 
Q 3200 3197 3328 2828 
z
" transform="scale(0.015625)"/>
       <path id="DejaVuSans-65" d="M 3597 1894 
L 3597 1613 
L 953 1613 
Q 991 1019 1311 708 
Q 1631 397 2203 397 
Q 2534 397 2845 478 
Q 3156 559 3463 722 
L 3463 178 
Q 3153 47 2828 -22 
Q 2503 -91 2169 -91 
Q 1331 -91 842 396 
Q 353 884 353 1716 
Q 353 2575 817 3079 
Q 1281 3584 2069 3584 
Q 2775 3584 3186 3129 
Q 3597 2675 3597 1894 
z
M 3022 2063 
Q 3016 2534 2758 2815 
Q 2500 3097 2075 3097 
Q 1594 3097 1305 2825 
Q 1016 2553 972 2059 
L 3022 2063 
z
" transform="scale(0.015625)"/>
       <path id="DejaVuSans-20" transform="scale(0.015625)"/>
       <path id="DejaVuSans-28" d="M 1984 4856 
Q 1566 4138 1362 3434 
Q 1159 2731 1159 2009 
Q 1159 1288 1364 580 
Q 1569 -128 1984 -844 
L 1484 -844 
Q 1016 -109 783 600 
Q 550 1309 550 2009 
Q 550 2706 781 3412 
Q 1013 4119 1484 4856 
L 1984 4856 
z
" transform="scale(0.015625)"/>
       <path id="DejaVuSans-73" d="M 2834 3397 
L 2834 2853 
Q 2591 2978 2328 3040 
Q 2066 3103 1784 3103 
Q 1356 3103 1142 2972 
Q 928 2841 928 2578 
Q 928 2378 1081 2264 
Q 1234 2150 1697 2047 
L 1894 2003 
Q 2506 1872 2764 1633 
Q 3022 1394 3022 966 
Q 3022 478 2636 193 
Q 2250 -91 1575 -91 
Q 1294 -91 989 -36 
Q 684 19 347 128 
L 347 722 
Q 666 556 975 473 
Q 1284 391 1588 391 
Q 1994 391 2212 530 
Q 2431 669 2431 922 
Q 2431 1156 2273 1281 
Q 2116 1406 1581 1522 
L 1381 1569 
Q 847 1681 609 1914 
Q 372 2147 372 2553 
Q 372 3047 722 3315 
Q 1072 3584 1716 3584 
Q 2034 3584 2315 3537 
Q 2597 3491 2834 3397 
z
" transform="scale(0.015625)"/>
       <path id="DejaVuSans-29" d="M 513 4856 
L 1013 4856 
Q 1481 4119 1714 3412 
Q 1947 2706 1947 2009 
Q 1947 1309 1714 600 
Q 1481 -109 1013 -844 
L 513 -844 
Q 928 -128 1133 580 
Q 1338 1288 1338 2009 
Q 1338 2731 1133 3434 
Q 928 4138 513 4856 
z
" transform="scale(0.015625)"/>
      </defs>
      <use xlink:href="#DejaVuSans-54"/>
      <use xlink:href="#DejaVuSans-69" x="57.958984"/>
      <use xlink:href="#DejaVuSans-6d" x="85.742188"/>
      <use xlink:href="#DejaVuSans-65" x="183.154297"/>
      <use xlink:href="#DejaVuSans-20" x="244.677734"/>
      <use xlink:href="#DejaVuSans-28" x="276.464844"/>
      <use xlink:href="#DejaVuSans-73" x="315.478516"/>
      <use xlink:href="#DejaVuSans-29" x="367.578125"/>
     </g>
    </g>
   </g>
   <g id="matplotlib.axis_2">
    <g id="ytick_1">
     <g id="line2d_8">
      <defs>
       <path id="mc76b08eb22" d="M 0 0 
L -3.5 0 
" style="stroke: #000000; stroke-width: 0.8"/>
      </defs>
      <g>
       <use xlink:href="#mc76b08eb22" x="55.012813" y="197.155549" style="stroke: #000000; stroke-width: 0.8"/>
      </g>
     </g>
     <g id="text_9">
      <!-- 10 -->
      <g transform="translate(27.652813 203.234299) scale(0.16 -0.16)">
       <use xlink:href="#DejaVuSans-31"/>
       <use xlink:href="#DejaVuSans-30" x="63.623047"/>
      </g>
     </g>
    </g>
    <g id="ytick_2">
     <g id="line2d_9">
      <g>
       <use xlink:href="#mc76b08eb22" x="55.012813" y="126.807888" style="stroke: #000000; stroke-width: 0.8"/>
      </g>
     </g>
     <g id="text_10">
      <!-- 20 -->
      <g transform="translate(27.652813 132.886638) scale(0.16 -0.16)">
       <use xlink:href="#DejaVuSans-32"/>
       <use xlink:href="#DejaVuSans-30" x="63.623047"/>
      </g>
     </g>
    </g>
    <g id="ytick_3">
     <g id="line2d_10">
      <g>
       <use xlink:href="#mc76b08eb22" x="55.012813" y="56.460227" style="stroke: #000000; stroke-width: 0.8"/>
      </g>
     </g>
     <g id="text_11">
      <!-- 30 -->
      <g transform="translate(27.652813 62.538977) scale(0.16 -0.16)">
       <defs>
        <path id="DejaVuSans-33" d="M 2597 2516 
Q 3050 2419 3304 2112 
Q 3559 1806 3559 1356 
Q 3559 666 3084 287 
Q 2609 -91 1734 -91 
Q 1441 -91 1130 -33 
Q 819 25 488 141 
L 488 750 
Q 750 597 1062 519 
Q 1375 441 1716 441 
Q 2309 441 2620 675 
Q 2931 909 2931 1356 
Q 2931 1769 2642 2001 
Q 2353 2234 1838 2234 
L 1294 2234 
L 1294 2753 
L 1863 2753 
Q 2328 2753 2575 2939 
Q 2822 3125 2822 3475 
Q 2822 3834 2567 4026 
Q 2313 4219 1838 4219 
Q 1578 4219 1281 4162 
Q 984 4106 628 3988 
L 628 4550 
Q 988 4650 1302 4700 
Q 1616 4750 1894 4750 
Q 2613 4750 3031 4423 
Q 3450 4097 3450 3541 
Q 3450 3153 3228 2886 
Q 3006 2619 2597 2516 
z
" transform="scale(0.015625)"/>
       </defs>
       <use xlink:href="#DejaVuSans-33"/>
       <use xlink:href="#DejaVuSans-30" x="63.623047"/>
      </g>
     </g>
    </g>
    <g id="text_12">
     <!-- Utilization (%) -->
     <g transform="translate(20.117344 196.996719) rotate(-90) scale(0.17 -0.17)">
      <defs>
       <path id="DejaVuSans-55" d="M 556 4666 
L 1191 4666 
L 1191 1831 
Q 1191 1081 1462 751 
Q 1734 422 2344 422 
Q 2950 422 3222 751 
Q 3494 1081 3494 1831 
L 3494 4666 
L 4128 4666 
L 4128 1753 
Q 4128 841 3676 375 
Q 3225 -91 2344 -91 
Q 1459 -91 1007 375 
Q 556 841 556 1753 
L 556 4666 
z
" transform="scale(0.015625)"/>
       <path id="DejaVuSans-74" d="M 1172 4494 
L 1172 3500 
L 2356 3500 
L 2356 3053 
L 1172 3053 
L 1172 1153 
Q 1172 725 1289 603 
Q 1406 481 1766 481 
L 2356 481 
L 2356 0 
L 1766 0 
Q 1100 0 847 248 
Q 594 497 594 1153 
L 594 3053 
L 172 3053 
L 172 3500 
L 594 3500 
L 594 4494 
L 1172 4494 
z
" transform="scale(0.015625)"/>
       <path id="DejaVuSans-6c" d="M 603 4863 
L 1178 4863 
L 1178 0 
L 603 0 
L 603 4863 
z
" transform="scale(0.015625)"/>
       <path id="DejaVuSans-7a" d="M 353 3500 
L 3084 3500 
L 3084 2975 
L 922 459 
L 3084 459 
L 3084 0 
L 275 0 
L 275 525 
L 2438 3041 
L 353 3041 
L 353 3500 
z
" transform="scale(0.015625)"/>
       <path id="DejaVuSans-61" d="M 2194 1759 
Q 1497 1759 1228 1600 
Q 959 1441 959 1056 
Q 959 750 1161 570 
Q 1363 391 1709 391 
Q 2188 391 2477 730 
Q 2766 1069 2766 1631 
L 2766 1759 
L 2194 1759 
z
M 3341 1997 
L 3341 0 
L 2766 0 
L 2766 531 
Q 2569 213 2275 61 
Q 1981 -91 1556 -91 
Q 1019 -91 701 211 
Q 384 513 384 1019 
Q 384 1609 779 1909 
Q 1175 2209 1959 2209 
L 2766 2209 
L 2766 2266 
Q 2766 2663 2505 2880 
Q 2244 3097 1772 3097 
Q 1472 3097 1187 3025 
Q 903 2953 641 2809 
L 641 3341 
Q 956 3463 1253 3523 
Q 1550 3584 1831 3584 
Q 2591 3584 2966 3190 
Q 3341 2797 3341 1997 
z
" transform="scale(0.015625)"/>
       <path id="DejaVuSans-6f" d="M 1959 3097 
Q 1497 3097 1228 2736 
Q 959 2375 959 1747 
Q 959 1119 1226 758 
Q 1494 397 1959 397 
Q 2419 397 2687 759 
Q 2956 1122 2956 1747 
Q 2956 2369 2687 2733 
Q 2419 3097 1959 3097 
z
M 1959 3584 
Q 2709 3584 3137 3096 
Q 3566 2609 3566 1747 
Q 3566 888 3137 398 
Q 2709 -91 1959 -91 
Q 1206 -91 779 398 
Q 353 888 353 1747 
Q 353 2609 779 3096 
Q 1206 3584 1959 3584 
z
" transform="scale(0.015625)"/>
       <path id="DejaVuSans-6e" d="M 3513 2113 
L 3513 0 
L 2938 0 
L 2938 2094 
Q 2938 2591 2744 2837 
Q 2550 3084 2163 3084 
Q 1697 3084 1428 2787 
Q 1159 2491 1159 1978 
L 1159 0 
L 581 0 
L 581 3500 
L 1159 3500 
L 1159 2956 
Q 1366 3272 1645 3428 
Q 1925 3584 2291 3584 
Q 2894 3584 3203 3211 
Q 3513 2838 3513 2113 
z
" transform="scale(0.015625)"/>
       <path id="DejaVuSans-25" d="M 4653 2053 
Q 4381 2053 4226 1822 
Q 4072 1591 4072 1178 
Q 4072 772 4226 539 
Q 4381 306 4653 306 
Q 4919 306 5073 539 
Q 5228 772 5228 1178 
Q 5228 1588 5073 1820 
Q 4919 2053 4653 2053 
z
M 4653 2450 
Q 5147 2450 5437 2106 
Q 5728 1763 5728 1178 
Q 5728 594 5436 251 
Q 5144 -91 4653 -91 
Q 4153 -91 3862 251 
Q 3572 594 3572 1178 
Q 3572 1766 3864 2108 
Q 4156 2450 4653 2450 
z
M 1428 4353 
Q 1159 4353 1004 4120 
Q 850 3888 850 3481 
Q 850 3069 1003 2837 
Q 1156 2606 1428 2606 
Q 1700 2606 1854 2837 
Q 2009 3069 2009 3481 
Q 2009 3884 1853 4118 
Q 1697 4353 1428 4353 
z
M 4250 4750 
L 4750 4750 
L 1831 -91 
L 1331 -91 
L 4250 4750 
z
M 1428 4750 
Q 1922 4750 2215 4408 
Q 2509 4066 2509 3481 
Q 2509 2891 2217 2550 
Q 1925 2209 1428 2209 
Q 931 2209 642 2551 
Q 353 2894 353 3481 
Q 353 4063 643 4406 
Q 934 4750 1428 4750 
z
" transform="scale(0.015625)"/>
      </defs>
      <use xlink:href="#DejaVuSans-55"/>
      <use xlink:href="#DejaVuSans-74" x="73.193359"/>
      <use xlink:href="#DejaVuSans-69" x="112.402344"/>
      <use xlink:href="#DejaVuSans-6c" x="140.185547"/>
      <use xlink:href="#DejaVuSans-69" x="167.96875"/>
      <use xlink:href="#DejaVuSans-7a" x="195.751953"/>
      <use xlink:href="#DejaVuSans-61" x="248.242188"/>
      <use xlink:href="#DejaVuSans-74" x="309.521484"/>
      <use xlink:href="#DejaVuSans-69" x="348.730469"/>
      <use xlink:href="#DejaVuSans-6f" x="376.513672"/>
      <use xlink:href="#DejaVuSans-6e" x="437.695312"/>
      <use xlink:href="#DejaVuSans-20" x="501.074219"/>
      <use xlink:href="#DejaVuSans-28" x="532.861328"/>
      <use xlink:href="#DejaVuSans-25" x="571.875"/>
      <use xlink:href="#DejaVuSans-29" x="666.894531"/>
     </g>
    </g>
   </g>
   <g id="line2d_11">
    <path d="M 81.492449 167.297056 
L 85.144813 167.319337 
L 88.797176 167.455069 
L 92.44954 167.491302 
L 96.101903 167.588401 
L 99.754267 167.474842 
L 103.406631 167.541108 
L 107.058994 167.344511 
L 110.711358 167.273661 
L 114.363722 166.986702 
L 118.016085 166.672012 
L 121.668449 166.204089 
L 125.320813 165.533465 
L 128.973176 164.851433 
L 132.62554 163.853589 
L 136.277903 162.849678 
L 139.930267 161.639777 
L 143.582631 160.335782 
L 147.234994 158.613351 
L 150.887358 156.919373 
L 154.539722 154.60388 
L 158.192085 152.484876 
L 161.844449 149.441039 
L 165.496813 146.749067 
L 169.149176 143.252778 
L 172.80154 139.708975 
L 176.453903 135.665476 
L 180.106267 131.563044 
L 183.758631 127.186935 
L 187.410994 122.512865 
L 191.063358 117.91833 
L 194.715722 113.150913 
L 198.368085 108.607074 
L 202.020449 103.992287 
L 205.672813 99.557129 
L 209.325176 95.041141 
L 212.97754 90.905434 
L 216.629903 86.573101 
L 220.282267 82.598432 
L 223.934631 78.422841 
L 227.586994 74.618987 
L 231.239358 70.671941 
L 234.891722 66.993742 
L 238.544085 63.018241 
L 242.196449 59.515187 
L 245.848813 55.535306 
L 249.501176 52.286889 
L 253.15354 49.212029 
L 256.805903 46.916607 
L 260.458267 45.713341 
L 264.110631 45.60821 
L 267.762994 46.740435 
L 271.415358 49.050305 
L 275.067722 53.357176 
L 278.720085 58.719812 
L 282.372449 66.312259 
L 286.024813 74.59064 
L 289.677176 84.089982 
L 293.32954 93.949429 
L 296.981903 104.219419 
L 300.634267 113.294782 
L 304.286631 122.324334 
L 307.938994 131.094593 
L 311.591358 138.378747 
L 315.243722 144.736398 
L 318.896085 150.04771 
L 322.548449 153.831545 
L 326.200813 157.084807 
L 329.853176 159.341033 
L 333.50554 161.03941 
L 337.157903 162.308749 
L 340.810267 163.640943 
L 344.462631 164.45394 
L 348.114994 164.819045 
L 351.767358 165.499869 
L 355.419722 165.806967 
L 359.072085 165.949012 
L 362.724449 166.132167 
L 366.376813 166.147743 
L 370.029176 166.102504 
L 373.68154 166.204373 
L 377.333903 165.947747 
L 380.986267 166.272196 
L 384.638631 166.016604 
L 388.290994 166.50839 
L 395.595722 171.719401 
L 399.248085 176.103841 
L 402.900449 181.385785 
L 406.552813 185.737356 
L 410.205176 191.006211 
L 413.85754 195.378534 
" clip-path="url(#pac25b0118d)" style="fill: none; stroke: #009384; stroke-width: 2.5; stroke-linecap: square"/>
   </g>
   <g id="line2d_12">
    <path d="M 77.840085 225.320922 
L 81.492449 222.725027 
L 85.144813 223.004507 
L 88.797176 223.505405 
L 92.44954 223.130467 
L 96.101903 223.790277 
L 99.754267 223.267119 
L 103.406631 223.586779 
L 107.058994 223.223991 
L 110.711358 223.556061 
L 114.363722 222.919322 
L 118.016085 223.300364 
L 121.668449 222.836253 
L 125.320813 222.526824 
L 128.973176 222.391912 
L 132.62554 222.780995 
L 136.277903 222.286776 
L 139.930267 222.811271 
L 143.582631 222.5724 
L 147.234994 222.816535 
L 150.887358 222.534818 
L 154.539722 223.065722 
L 158.192085 222.691801 
L 161.844449 223.335724 
L 165.496813 222.946093 
L 169.149176 223.393863 
L 172.80154 222.844716 
L 176.453903 223.143464 
L 180.106267 222.721439 
L 183.758631 222.584449 
L 187.410994 222.284401 
L 191.063358 222.339979 
L 194.715722 221.857491 
L 198.368085 221.647112 
L 202.020449 221.257665 
L 212.97754 219.762576 
L 216.629903 219.354915 
L 220.282267 218.662193 
L 223.934631 218.389084 
L 227.586994 217.451227 
L 231.239358 216.913552 
L 234.891722 215.682128 
L 238.544085 215.139568 
L 249.501176 211.843876 
L 253.15354 210.176228 
L 256.805903 208.857865 
L 260.458267 207.232893 
L 264.110631 205.809725 
L 267.762994 204.156027 
L 271.415358 201.940159 
L 275.067722 200.144259 
L 278.720085 197.978476 
L 282.372449 195.56036 
L 286.024813 193.793521 
L 289.677176 191.485319 
L 293.32954 189.802333 
L 296.981903 187.847686 
L 300.634267 186.228285 
L 304.286631 184.733158 
L 307.938994 183.531082 
L 311.591358 182.620701 
L 315.243722 181.449482 
L 318.896085 180.487761 
L 322.548449 179.875594 
L 326.200813 179.442678 
L 329.853176 178.620449 
L 333.50554 178.303269 
L 340.810267 178.094903 
L 344.462631 178.724104 
L 348.114994 178.749732 
L 355.419722 181.986515 
L 359.072085 183.913626 
L 362.724449 186.85508 
L 366.376813 189.07554 
L 373.68154 196.268332 
L 377.333903 199.363311 
L 380.986267 203.053611 
L 384.638631 205.452393 
L 388.290994 209.184803 
L 391.943358 211.038237 
L 395.595722 213.859723 
L 399.248085 215.941052 
L 402.900449 217.436868 
L 406.552813 219.155967 
L 413.85754 220.757635 
L 421.162267 221.835132 
L 424.814631 222.04706 
L 432.119358 222.639075 
L 446.728813 222.415903 
L 450.381176 222.61638 
L 454.03354 222.28877 
L 457.685903 222.845453 
L 461.338267 222.460249 
L 464.990631 223.013129 
L 468.642994 222.700169 
L 472.295358 223.102057 
L 475.947722 222.927175 
L 479.600085 223.083661 
L 483.252449 222.972845 
L 486.904813 223.321085 
L 490.557176 223.553063 
L 494.20954 223.526503 
L 497.861903 223.643048 
L 501.514267 223.231006 
L 505.166631 223.495462 
L 508.818994 223.436265 
L 512.471358 223.82676 
L 516.123722 222.977004 
L 519.776085 223.4795 
L 523.428449 222.938429 
L 527.080813 223.18414 
L 530.733176 221.128136 
L 534.38554 224.073099 
L 534.38554 224.073099 
" clip-path="url(#pac25b0118d)" style="fill: none; stroke: #b85741; stroke-width: 2.5; stroke-linecap: square"/>
   </g>
   <g id="patch_3">
    <path d="M 55.012813 247.877344 
L 55.012813 26.117344 
" style="fill: none; stroke: #000000; stroke-width: 0.8; stroke-linejoin: miter; stroke-linecap: square"/>
   </g>
   <g id="patch_4">
    <path d="M 557.212813 247.877344 
L 557.212813 26.117344 
" style="fill: none; stroke: #000000; stroke-width: 0.8; stroke-linejoin: miter; stroke-linecap: square"/>
   </g>
   <g id="patch_5">
    <path d="M 55.012813 247.877344 
L 557.212813 247.877344 
" style="fill: none; stroke: #000000; stroke-width: 0.8; stroke-linejoin: miter; stroke-linecap: square"/>
   </g>
   <g id="patch_6">
    <path d="M 55.012813 26.117344 
L 557.212813 26.117344 
" style="fill: none; stroke: #000000; stroke-width: 0.8; stroke-linejoin: miter; stroke-linecap: square"/>
   </g>
   <g id="text_13">
    <!-- Create Many Type-1 VMs (RAM) -->
    <g transform="translate(173.187422 20.117344) scale(0.17 -0.17)">
     <defs>
      <path id="DejaVuSans-43" d="M 4122 4306 
L 4122 3641 
Q 3803 3938 3442 4084 
Q 3081 4231 2675 4231 
Q 1875 4231 1450 3742 
Q 1025 3253 1025 2328 
Q 1025 1406 1450 917 
Q 1875 428 2675 428 
Q 3081 428 3442 575 
Q 3803 722 4122 1019 
L 4122 359 
Q 3791 134 3420 21 
Q 3050 -91 2638 -91 
Q 1578 -91 968 557 
Q 359 1206 359 2328 
Q 359 3453 968 4101 
Q 1578 4750 2638 4750 
Q 3056 4750 3426 4639 
Q 3797 4528 4122 4306 
z
" transform="scale(0.015625)"/>
      <path id="DejaVuSans-72" d="M 2631 2963 
Q 2534 3019 2420 3045 
Q 2306 3072 2169 3072 
Q 1681 3072 1420 2755 
Q 1159 2438 1159 1844 
L 1159 0 
L 581 0 
L 581 3500 
L 1159 3500 
L 1159 2956 
Q 1341 3275 1631 3429 
Q 1922 3584 2338 3584 
Q 2397 3584 2469 3576 
Q 2541 3569 2628 3553 
L 2631 2963 
z
" transform="scale(0.015625)"/>
      <path id="DejaVuSans-4d" d="M 628 4666 
L 1569 4666 
L 2759 1491 
L 3956 4666 
L 4897 4666 
L 4897 0 
L 4281 0 
L 4281 4097 
L 3078 897 
L 2444 897 
L 1241 4097 
L 1241 0 
L 628 0 
L 628 4666 
z
" transform="scale(0.015625)"/>
      <path id="DejaVuSans-79" d="M 2059 -325 
Q 1816 -950 1584 -1140 
Q 1353 -1331 966 -1331 
L 506 -1331 
L 506 -850 
L 844 -850 
Q 1081 -850 1212 -737 
Q 1344 -625 1503 -206 
L 1606 56 
L 191 3500 
L 800 3500 
L 1894 763 
L 2988 3500 
L 3597 3500 
L 2059 -325 
z
" transform="scale(0.015625)"/>
      <path id="DejaVuSans-70" d="M 1159 525 
L 1159 -1331 
L 581 -1331 
L 581 3500 
L 1159 3500 
L 1159 2969 
Q 1341 3281 1617 3432 
Q 1894 3584 2278 3584 
Q 2916 3584 3314 3078 
Q 3713 2572 3713 1747 
Q 3713 922 3314 415 
Q 2916 -91 2278 -91 
Q 1894 -91 1617 61 
Q 1341 213 1159 525 
z
M 3116 1747 
Q 3116 2381 2855 2742 
Q 2594 3103 2138 3103 
Q 1681 3103 1420 2742 
Q 1159 2381 1159 1747 
Q 1159 1113 1420 752 
Q 1681 391 2138 391 
Q 2594 391 2855 752 
Q 3116 1113 3116 1747 
z
" transform="scale(0.015625)"/>
      <path id="DejaVuSans-2d" d="M 313 2009 
L 1997 2009 
L 1997 1497 
L 313 1497 
L 313 2009 
z
" transform="scale(0.015625)"/>
      <path id="DejaVuSans-56" d="M 1831 0 
L 50 4666 
L 709 4666 
L 2188 738 
L 3669 4666 
L 4325 4666 
L 2547 0 
L 1831 0 
z
" transform="scale(0.015625)"/>
      <path id="DejaVuSans-52" d="M 2841 2188 
Q 3044 2119 3236 1894 
Q 3428 1669 3622 1275 
L 4263 0 
L 3584 0 
L 2988 1197 
Q 2756 1666 2539 1819 
Q 2322 1972 1947 1972 
L 1259 1972 
L 1259 0 
L 628 0 
L 628 4666 
L 2053 4666 
Q 2853 4666 3247 4331 
Q 3641 3997 3641 3322 
Q 3641 2881 3436 2590 
Q 3231 2300 2841 2188 
z
M 1259 4147 
L 1259 2491 
L 2053 2491 
Q 2509 2491 2742 2702 
Q 2975 2913 2975 3322 
Q 2975 3731 2742 3939 
Q 2509 4147 2053 4147 
L 1259 4147 
z
" transform="scale(0.015625)"/>
      <path id="DejaVuSans-41" d="M 2188 4044 
L 1331 1722 
L 3047 1722 
L 2188 4044 
z
M 1831 4666 
L 2547 4666 
L 4325 0 
L 3669 0 
L 3244 1197 
L 1141 1197 
L 716 0 
L 50 0 
L 1831 4666 
z
" transform="scale(0.015625)"/>
     </defs>
     <use xlink:href="#DejaVuSans-43"/>
     <use xlink:href="#DejaVuSans-72" x="69.824219"/>
     <use xlink:href="#DejaVuSans-65" x="108.6875"/>
     <use xlink:href="#DejaVuSans-61" x="170.210938"/>
     <use xlink:href="#DejaVuSans-74" x="231.490234"/>
     <use xlink:href="#DejaVuSans-65" x="270.699219"/>
     <use xlink:href="#DejaVuSans-20" x="332.222656"/>
     <use xlink:href="#DejaVuSans-4d" x="364.009766"/>
     <use xlink:href="#DejaVuSans-61" x="450.289062"/>
     <use xlink:href="#DejaVuSans-6e" x="511.568359"/>
     <use xlink:href="#DejaVuSans-79" x="574.947266"/>
     <use xlink:href="#DejaVuSans-20" x="634.126953"/>
     <use xlink:href="#DejaVuSans-54" x="665.914062"/>
     <use xlink:href="#DejaVuSans-79" x="711.373047"/>
     <use xlink:href="#DejaVuSans-70" x="770.552734"/>
     <use xlink:href="#DejaVuSans-65" x="834.029297"/>
     <use xlink:href="#DejaVuSans-2d" x="895.552734"/>
     <use xlink:href="#DejaVuSans-31" x="931.636719"/>
     <use xlink:href="#DejaVuSans-20" x="995.259766"/>
     <use xlink:href="#DejaVuSans-56" x="1027.046875"/>
     <use xlink:href="#DejaVuSans-4d" x="1095.455078"/>
     <use xlink:href="#DejaVuSans-73" x="1181.734375"/>
     <use xlink:href="#DejaVuSans-20" x="1233.833984"/>
     <use xlink:href="#DejaVuSans-28" x="1265.621094"/>
     <use xlink:href="#DejaVuSans-52" x="1304.634766"/>
     <use xlink:href="#DejaVuSans-41" x="1370.117188"/>
     <use xlink:href="#DejaVuSans-4d" x="1438.525391"/>
     <use xlink:href="#DejaVuSans-29" x="1524.804688"/>
    </g>
   </g>
   <g id="legend_1">
    <g id="patch_7">
     <path d="M 390.627813 85.887344 
L 546.012812 85.887344 
Q 549.212813 85.887344 549.212813 82.687344 
L 549.212813 37.317344 
Q 549.212813 34.117344 546.012812 34.117344 
L 390.627813 34.117344 
Q 387.427813 34.117344 387.427813 37.317344 
L 387.427813 82.687344 
Q 387.427813 85.887344 390.627813 85.887344 
z
" style="fill: #ffffff; opacity: 0.8; stroke: #cccccc; stroke-linejoin: miter"/>
    </g>
    <g id="line2d_13">
     <path d="M 393.827813 47.074844 
L 409.827813 47.074844 
L 425.827813 47.074844 
" style="fill: none; stroke: #009384; stroke-width: 2.5; stroke-linecap: square"/>
    </g>
    <g id="text_14">
     <!-- KubeVirt  -->
     <g transform="translate(438.627813 52.674844) scale(0.16 -0.16)">
      <defs>
       <path id="DejaVuSans-4b" d="M 628 4666 
L 1259 4666 
L 1259 2694 
L 3353 4666 
L 4166 4666 
L 1850 2491 
L 4331 0 
L 3500 0 
L 1259 2247 
L 1259 0 
L 628 0 
L 628 4666 
z
" transform="scale(0.015625)"/>
       <path id="DejaVuSans-75" d="M 544 1381 
L 544 3500 
L 1119 3500 
L 1119 1403 
Q 1119 906 1312 657 
Q 1506 409 1894 409 
Q 2359 409 2629 706 
Q 2900 1003 2900 1516 
L 2900 3500 
L 3475 3500 
L 3475 0 
L 2900 0 
L 2900 538 
Q 2691 219 2414 64 
Q 2138 -91 1772 -91 
Q 1169 -91 856 284 
Q 544 659 544 1381 
z
M 1991 3584 
L 1991 3584 
z
" transform="scale(0.015625)"/>
       <path id="DejaVuSans-62" d="M 3116 1747 
Q 3116 2381 2855 2742 
Q 2594 3103 2138 3103 
Q 1681 3103 1420 2742 
Q 1159 2381 1159 1747 
Q 1159 1113 1420 752 
Q 1681 391 2138 391 
Q 2594 391 2855 752 
Q 3116 1113 3116 1747 
z
M 1159 2969 
Q 1341 3281 1617 3432 
Q 1894 3584 2278 3584 
Q 2916 3584 3314 3078 
Q 3713 2572 3713 1747 
Q 3713 922 3314 415 
Q 2916 -91 2278 -91 
Q 1894 -91 1617 61 
Q 1341 213 1159 525 
L 1159 0 
L 581 0 
L 581 4863 
L 1159 4863 
L 1159 2969 
z
" transform="scale(0.015625)"/>
      </defs>
      <use xlink:href="#DejaVuSans-4b"/>
      <use xlink:href="#DejaVuSans-75" x="60.576172"/>
      <use xlink:href="#DejaVuSans-62" x="123.955078"/>
      <use xlink:href="#DejaVuSans-65" x="187.431641"/>
      <use xlink:href="#DejaVuSans-56" x="248.955078"/>
      <use xlink:href="#DejaVuSans-69" x="315.113281"/>
      <use xlink:href="#DejaVuSans-72" x="342.896484"/>
      <use xlink:href="#DejaVuSans-74" x="384.009766"/>
      <use xlink:href="#DejaVuSans-20" x="423.21875"/>
     </g>
    </g>
    <g id="line2d_14">
     <path d="M 393.827813 70.559844 
L 409.827813 70.559844 
L 425.827813 70.559844 
" style="fill: none; stroke: #b85741; stroke-width: 2.5; stroke-linecap: square"/>
    </g>
    <g id="text_15">
     <!-- OpenNebula  -->
     <g transform="translate(438.627813 76.159844) scale(0.16 -0.16)">
      <defs>
       <path id="DejaVuSans-4f" d="M 2522 4238 
Q 1834 4238 1429 3725 
Q 1025 3213 1025 2328 
Q 1025 1447 1429 934 
Q 1834 422 2522 422 
Q 3209 422 3611 934 
Q 4013 1447 4013 2328 
Q 4013 3213 3611 3725 
Q 3209 4238 2522 4238 
z
M 2522 4750 
Q 3503 4750 4090 4092 
Q 4678 3434 4678 2328 
Q 4678 1225 4090 567 
Q 3503 -91 2522 -91 
Q 1538 -91 948 565 
Q 359 1222 359 2328 
Q 359 3434 948 4092 
Q 1538 4750 2522 4750 
z
" transform="scale(0.015625)"/>
       <path id="DejaVuSans-4e" d="M 628 4666 
L 1478 4666 
L 3547 763 
L 3547 4666 
L 4159 4666 
L 4159 0 
L 3309 0 
L 1241 3903 
L 1241 0 
L 628 0 
L 628 4666 
z
" transform="scale(0.015625)"/>
      </defs>
      <use xlink:href="#DejaVuSans-4f"/>
      <use xlink:href="#DejaVuSans-70" x="78.710938"/>
      <use xlink:href="#DejaVuSans-65" x="142.1875"/>
      <use xlink:href="#DejaVuSans-6e" x="203.710938"/>
      <use xlink:href="#DejaVuSans-4e" x="267.089844"/>
      <use xlink:href="#DejaVuSans-65" x="341.894531"/>
      <use xlink:href="#DejaVuSans-62" x="403.417969"/>
      <use xlink:href="#DejaVuSans-75" x="466.894531"/>
      <use xlink:href="#DejaVuSans-6c" x="530.273438"/>
      <use xlink:href="#DejaVuSans-61" x="558.056641"/>
      <use xlink:href="#DejaVuSans-20" x="619.335938"/>
     </g>
    </g>
   </g>
  </g>
 </g>
 <defs>
  <clipPath id="pac25b0118d">
   <rect x="55.012813" y="26.117344" width="502.2" height="221.76"/>
  </clipPath>
 </defs>
</svg>
