<?xml version="1.0" encoding="utf-8" standalone="no"?>
<!DOCTYPE svg PUBLIC "-//W3C//DTD SVG 1.1//EN"
  "http://www.w3.org/Graphics/SVG/1.1/DTD/svg11.dtd">
<svg xmlns:xlink="http://www.w3.org/1999/xlink" width="557.0372pt" height="287.233281pt" viewBox="0 0 557.0372 287.233281" xmlns="http://www.w3.org/2000/svg" version="1.1">
 <metadata>
  <rdf:RDF xmlns:dc="http://purl.org/dc/elements/1.1/" xmlns:cc="http://creativecommons.org/ns#" xmlns:rdf="http://www.w3.org/1999/02/22-rdf-syntax-ns#">
   <cc:Work>
    <dc:type rdf:resource="http://purl.org/dc/dcmitype/StillImage"/>
    <dc:date>2024-05-21T10:08:03.954917</dc:date>
    <dc:format>image/svg+xml</dc:format>
    <dc:creator>
     <cc:Agent>
      <dc:title>Matplotlib v3.8.4, https://matplotlib.org/</dc:title>
     </cc:Agent>
    </dc:creator>
   </cc:Work>
  </rdf:RDF>
 </metadata>
 <defs>
  <style type="text/css">*{stroke-linejoin: round; stroke-linecap: butt}</style>
 </defs>
 <g id="figure_1">
  <g id="patch_1">
   <path d="M 0 287.233281 
L 557.0372 287.233281 
L 557.0372 0 
L 0 0 
z
" style="fill: #ffffff"/>
  </g>
  <g id="axes_1">
   <g id="patch_2">
    <path d="M 46.051562 244.837969 
L 548.251563 244.837969 
L 548.251563 23.077969 
L 46.051562 23.077969 
z
" style="fill: #ffffff"/>
   </g>
   <g id="PolyCollection_1">
    <defs>
     <path id="m8c46680d9c" d="M 68.878835 -79.831162 
L 68.878835 -42.395313 
L 70.635279 -42.395313 
L 71.285537 -42.395313 
L 71.793672 -42.395313 
L 72.672637 -42.395313 
L 77.369603 -42.395313 
L 81.633328 -42.395313 
L 83.032794 -42.395313 
L 84.464152 -42.395313 
L 86.562449 -42.395313 
L 88.305516 -42.395313 
L 91.544703 -42.395313 
L 92.647944 -42.395313 
L 93.281838 -42.395313 
L 95.547354 -42.395313 
L 95.656678 -42.395313 
L 96.243141 -42.395313 
L 96.550333 -42.395313 
L 97.538132 -42.395313 
L 97.739463 -42.395313 
L 98.017334 -42.395313 
L 99.495907 -42.395313 
L 100.146166 -42.395313 
L 100.6543 -42.395313 
L 101.533265 -42.395313 
L 106.230231 -42.395313 
L 109.006393 -42.395313 
L 110.493956 -42.395313 
L 111.893423 -42.395313 
L 113.32478 -42.395313 
L 115.423077 -42.395313 
L 117.166144 -42.395313 
L 121.508572 -42.395313 
L 122.142467 -42.395313 
L 124.407983 -42.395313 
L 124.517307 -42.395313 
L 125.103769 -42.395313 
L 125.410962 -42.395313 
L 126.39876 -42.395313 
L 126.600092 -42.395313 
L 126.877962 -42.395313 
L 128.356535 -42.395313 
L 129.006794 -42.395313 
L 129.514928 -42.395313 
L 130.393893 -42.395313 
L 134.835645 -42.395313 
L 135.09086 -42.395313 
L 137.867021 -42.395313 
L 139.354584 -42.395313 
L 140.754051 -42.395313 
L 144.283706 -42.395313 
L 146.026772 -42.395313 
L 150.3692 -42.395313 
L 151.003095 -42.395313 
L 153.268611 -42.395313 
L 153.377935 -42.395313 
L 153.964397 -42.395313 
L 154.27159 -42.395313 
L 155.259388 -42.395313 
L 155.46072 -42.395313 
L 155.73859 -42.395313 
L 156.615722 -42.395313 
L 157.217163 -42.395313 
L 157.867422 -42.395313 
L 158.375557 -42.395313 
L 159.254521 -42.395313 
L 163.696273 -42.395313 
L 163.951488 -42.395313 
L 166.727649 -42.395313 
L 169.614679 -42.395313 
L 179.229828 -42.395313 
L 179.863723 -42.395313 
L 182.238563 -42.395313 
L 182.645527 -42.395313 
L 182.825025 -42.395313 
L 183.132218 -42.395313 
L 184.120016 -42.395313 
L 184.321348 -42.395313 
L 184.599218 -42.395313 
L 185.47635 -42.395313 
L 186.077791 -42.395313 
L 186.72805 -42.395313 
L 187.236185 -42.395313 
L 187.574648 -42.395313 
L 188.11515 -42.395313 
L 189.317714 -42.395313 
L 192.556901 -42.395313 
L 192.812116 -42.395313 
L 195.588277 -42.395313 
L 196.559553 -42.395313 
L 198.475307 -42.395313 
L 211.099191 -42.395313 
L 211.506155 -42.395313 
L 211.685654 -42.395313 
L 211.992846 -42.395313 
L 212.980644 -42.395313 
L 213.181976 -42.395313 
L 213.459846 -42.395313 
L 214.336978 -42.395313 
L 216.435276 -42.395313 
L 216.975778 -42.395313 
L 218.178342 -42.395313 
L 221.41753 -42.395313 
L 221.672744 -42.395313 
L 222.52077 -42.395313 
L 223.154665 -42.395313 
L 224.448906 -42.395313 
L 225.420181 -42.395313 
L 227.335935 -42.395313 
L 229.368734 -42.395313 
L 230.018992 -42.395313 
L 230.527127 -42.395313 
L 239.959819 -42.395313 
L 240.366783 -42.395313 
L 240.546282 -42.395313 
L 240.853474 -42.395313 
L 241.841273 -42.395313 
L 242.042604 -42.395313 
L 242.320474 -42.395313 
L 243.197607 -42.395313 
L 245.295904 -42.395313 
L 245.836406 -42.395313 
L 247.038971 -42.395313 
L 250.278158 -42.395313 
L 251.381398 -42.395313 
L 252.015293 -42.395313 
L 253.309534 -42.395313 
L 254.280809 -42.395313 
L 256.196563 -42.395313 
L 258.229362 -42.395313 
L 258.879621 -42.395313 
L 259.387755 -42.395313 
L 264.963686 -42.395313 
L 268.820447 -42.395313 
L 269.227411 -42.395313 
L 269.714102 -42.395313 
L 270.701901 -42.395313 
L 270.903232 -42.395313 
L 271.181103 -42.395313 
L 272.058235 -42.395313 
L 274.156532 -42.395313 
L 275.899599 -42.395313 
L 279.138786 -42.395313 
L 280.242027 -42.395313 
L 280.875921 -42.395313 
L 282.170162 -42.395313 
L 283.141438 -42.395313 
L 283.837224 -42.395313 
L 285.057192 -42.395313 
L 287.08999 -42.395313 
L 287.740249 -42.395313 
L 288.248383 -42.395313 
L 289.127348 -42.395313 
L 293.824314 -42.395313 
L 297.681076 -42.395313 
L 298.088039 -42.395313 
L 298.574731 -42.395313 
L 299.763861 -42.395313 
L 300.041731 -42.395313 
L 300.918863 -42.395313 
L 304.760227 -42.395313 
L 307.999414 -42.395313 
L 309.102655 -42.395313 
L 309.73655 -42.395313 
L 311.03079 -42.395313 
L 312.002066 -42.395313 
L 312.697852 -42.395313 
L 313.992843 -42.395313 
L 315.950618 -42.395313 
L 316.600877 -42.395313 
L 317.109012 -42.395313 
L 317.447475 -42.395313 
L 317.987976 -42.395313 
L 322.684943 -42.395313 
L 326.948668 -42.395313 
L 328.348134 -42.395313 
L 328.902359 -42.395313 
L 329.779491 -42.395313 
L 333.620855 -42.395313 
L 336.860042 -42.395313 
L 337.963283 -42.395313 
L 338.597178 -42.395313 
L 340.862694 -42.395313 
L 340.972018 -42.395313 
L 341.55848 -42.395313 
L 341.865673 -42.395313 
L 342.853471 -42.395313 
L 343.054803 -42.395313 
L 344.811246 -42.395313 
L 345.461505 -42.395313 
L 345.96964 -42.395313 
L 346.308103 -42.395313 
L 346.848605 -42.395313 
L 351.545571 -42.395313 
L 354.321732 -42.395313 
L 357.208762 -42.395313 
L 357.762987 -42.395313 
L 358.640119 -42.395313 
L 362.481483 -42.395313 
L 365.72067 -42.395313 
L 366.823911 -42.395313 
L 367.457806 -42.395313 
L 369.723322 -42.395313 
L 369.832646 -42.395313 
L 370.23961 -42.395313 
L 370.419108 -42.395313 
L 370.726301 -42.395313 
L 371.714099 -42.395313 
L 371.915431 -42.395313 
L 373.671874 -42.395313 
L 374.830268 -42.395313 
L 375.168731 -42.395313 
L 375.709233 -42.395313 
L 380.406199 -42.395313 
L 383.182361 -42.395313 
L 386.06939 -42.395313 
L 387.500747 -42.395313 
L 388.752447 -42.395313 
L 391.342112 -42.395313 
L 394.581299 -42.395313 
L 395.684539 -42.395313 
L 396.318434 -42.395313 
L 398.58395 -42.395313 
L 398.693274 -42.395313 
L 399.100238 -42.395313 
L 399.279737 -42.395313 
L 399.586929 -42.395313 
L 400.574727 -42.395313 
L 400.776059 -42.395313 
L 401.053929 -42.395313 
L 403.690896 -42.395313 
L 404.029359 -42.395313 
L 404.569861 -42.395313 
L 409.266827 -42.395313 
L 412.042989 -42.395313 
L 414.930018 -42.395313 
L 416.361376 -42.395313 
L 416.962817 -42.395313 
L 417.613076 -42.395313 
L 420.20274 -42.395313 
L 424.545168 -42.395313 
L 427.444578 -42.395313 
L 427.553902 -42.395313 
L 427.960866 -42.395313 
L 428.140365 -42.395313 
L 428.447557 -42.395313 
L 429.435356 -42.395313 
L 429.636687 -42.395313 
L 429.914558 -42.395313 
L 432.551524 -42.395313 
L 432.889987 -42.395313 
L 433.430489 -42.395313 
L 437.872241 -42.395313 
L 438.127455 -42.395313 
L 439.609376 -42.395313 
L 440.903617 -42.395313 
L 443.790647 -42.395313 
L 445.823445 -42.395313 
L 446.473704 -42.395313 
L 453.405796 -42.395313 
L 456.305207 -42.395313 
L 456.414531 -42.395313 
L 456.821494 -42.395313 
L 457.000993 -42.395313 
L 457.308186 -42.395313 
L 458.295984 -42.395313 
L 458.497316 -42.395313 
L 458.775186 -42.395313 
L 459.652318 -42.395313 
L 461.412152 -42.395313 
L 461.750615 -42.395313 
L 462.291117 -42.395313 
L 463.493682 -42.395313 
L 466.732869 -42.395313 
L 466.988084 -42.395313 
L 468.470005 -42.395313 
L 469.764245 -42.395313 
L 472.651275 -42.395313 
L 474.684073 -42.395313 
L 475.334332 -42.395313 
L 485.275159 -42.395313 
L 485.682123 -42.395313 
L 485.861621 -42.395313 
L 486.168814 -42.395313 
L 487.156612 -42.395313 
L 487.357944 -42.395313 
L 487.635814 -42.395313 
L 488.512946 -42.395313 
L 490.272781 -42.395313 
L 490.611244 -42.395313 
L 491.151745 -42.395313 
L 492.35431 -42.395313 
L 495.593497 -42.395313 
L 495.848712 -42.395313 
L 496.696738 -42.395313 
L 497.330633 -42.395313 
L 497.330633 -105.034208 
L 497.330633 -105.034208 
L 496.696738 -104.076688 
L 495.848712 -103.476585 
L 495.593497 -101.971422 
L 492.35431 -100.948645 
L 491.151745 -99.752704 
L 490.611244 -97.301111 
L 490.272781 -94.800895 
L 488.512946 -94.423005 
L 487.635814 -93.387006 
L 487.357944 -93.598557 
L 487.156612 -91.795689 
L 486.168814 -89.918607 
L 485.861621 -89.75568 
L 485.682123 -89.700233 
L 485.275159 -89.861455 
L 475.334332 -89.593605 
L 474.684073 -87.787325 
L 472.651275 -87.792869 
L 469.764245 -87.897365 
L 468.470005 -88.377191 
L 466.988084 -86.129471 
L 466.732869 -85.959719 
L 463.493682 -83.714557 
L 462.291117 -83.927814 
L 461.750615 -83.923122 
L 461.412152 -83.755929 
L 459.652318 -83.544806 
L 458.775186 -83.440736 
L 458.497316 -84.133819 
L 458.295984 -83.86341 
L 457.308186 -83.863837 
L 457.000993 -84.393139 
L 456.821494 -84.073254 
L 456.414531 -83.915871 
L 456.305207 -84.341531 
L 453.405796 -85.100723 
L 446.473704 -85.262798 
L 445.823445 -85.000066 
L 443.790647 -85.213322 
L 440.903617 -85.105415 
L 439.609376 -85.714048 
L 438.127455 -85.666705 
L 437.872241 -85.888491 
L 433.430489 -85.362602 
L 432.889987 -85.359616 
L 432.551524 -85.318671 
L 429.914558 -85.956733 
L 429.636687 -86.499257 
L 429.435356 -86.392629 
L 428.447557 -87.041781 
L 428.140365 -87.629089 
L 427.960866 -88.048777 
L 427.553902 -88.380603 
L 427.444578 -88.643335 
L 424.545168 -88.975588 
L 420.20274 -89.185432 
L 417.613076 -89.576971 
L 416.962817 -89.9024 
L 416.361376 -90.606572 
L 414.930018 -90.720024 
L 412.042989 -90.451748 
L 409.266827 -90.66671 
L 404.569861 -90.612117 
L 404.029359 -90.716612 
L 403.690896 -91.091516 
L 401.053929 -93.654003 
L 400.776059 -94.189703 
L 400.574727 -94.132124 
L 399.586929 -99.112509 
L 399.279737 -100.229545 
L 399.100238 -99.755264 
L 398.693274 -100.229972 
L 398.58395 -104.430266 
L 396.318434 -105.565216 
L 395.684539 -110.423619 
L 394.581299 -113.372099 
L 391.342112 -113.583223 
L 388.752447 -114.06305 
L 387.500747 -115.939704 
L 386.06939 -115.782748 
L 383.182361 -117.157397 
L 380.406199 -122.570693 
L 375.709233 -122.623581 
L 375.168731 -126.696348 
L 374.830268 -132.059315 
L 373.671874 -133.038588 
L 371.915431 -133.947486 
L 371.714099 -135.207403 
L 370.726301 -136.403344 
L 370.419108 -137.611654 
L 370.23961 -138.705658 
L 369.832646 -139.672136 
L 369.723322 -141.814081 
L 367.457806 -145.176705 
L 366.823911 -148.679652 
L 365.72067 -151.022484 
L 362.481483 -152.353203 
L 358.640119 -153.900164 
L 357.762987 -157.246154 
L 357.208762 -159.748929 
L 354.321732 -164.850871 
L 351.545571 -168.467696 
L 346.848605 -170.21597 
L 346.308103 -173.625084 
L 345.96964 -175.407053 
L 345.461505 -177.423604 
L 344.811246 -178.276629 
L 343.054803 -179.885434 
L 342.853471 -181.896013 
L 341.865673 -183.905314 
L 341.55848 -185.926129 
L 340.972018 -188.603774 
L 340.862694 -189.143313 
L 338.597178 -189.126252 
L 337.963283 -190.343092 
L 336.860042 -192.118237 
L 333.620855 -194.234592 
L 329.779491 -194.094269 
L 328.902359 -193.933047 
L 328.348134 -195.773448 
L 326.948668 -199.122851 
L 322.684943 -199.026032 
L 317.987976 -198.881871 
L 317.447475 -199.311796 
L 317.109012 -199.423115 
L 316.600877 -199.574101 
L 315.950618 -201.169684 
L 313.992843 -201.417914 
L 312.697852 -201.458433 
L 312.002066 -201.995412 
L 311.03079 -202.904736 
L 309.73655 -203.23699 
L 309.102655 -203.181969 
L 307.999414 -203.767998 
L 304.760227 -204.206452 
L 300.918863 -204.765184 
L 300.041731 -202.524287 
L 299.763861 -202.262409 
L 298.574731 -202.824126 
L 298.088039 -198.229734 
L 297.681076 -197.657354 
L 293.824314 -197.997284 
L 289.127348 -198.173007 
L 288.248383 -194.249093 
L 287.740249 -193.43616 
L 287.08999 -189.119002 
L 285.057192 -186.771477 
L 283.837224 -187.689758 
L 283.141438 -187.160883 
L 282.170162 -185.509427 
L 280.875921 -185.982429 
L 280.242027 -184.834684 
L 279.138786 -179.861123 
L 275.899599 -179.918275 
L 274.156532 -175.90522 
L 272.058235 -170.87152 
L 271.181103 -170.392973 
L 270.903232 -169.699464 
L 270.701901 -168.178094 
L 269.714102 -167.080251 
L 269.227411 -166.094154 
L 268.820447 -164.841487 
L 264.963686 -164.035379 
L 259.387755 -162.606989 
L 258.879621 -159.411984 
L 258.229362 -155.916715 
L 256.196563 -154.28829 
L 254.280809 -153.887795 
L 253.309534 -152.44661 
L 252.015293 -150.072641 
L 251.381398 -147.78952 
L 250.278158 -142.847521 
L 247.038971 -139.498545 
L 245.836406 -138.604575 
L 245.295904 -135.72519 
L 243.197607 -134.318978 
L 242.320474 -131.710855 
L 242.042604 -131.199893 
L 241.841273 -130.471409 
L 240.853474 -129.651653 
L 240.546282 -127.910202 
L 240.366783 -126.201593 
L 239.959819 -122.712295 
L 230.527127 -122.751961 
L 230.018992 -122.58946 
L 229.368734 -121.268551 
L 227.335935 -119.704956 
L 225.420181 -117.522492 
L 224.448906 -117.880336 
L 223.154665 -117.670492 
L 222.52077 -115.992592 
L 221.672744 -112.149288 
L 221.41753 -111.548332 
L 218.178342 -111.108598 
L 216.975778 -110.451769 
L 216.435276 -109.91479 
L 214.336978 -109.532635 
L 213.459846 -107.779668 
L 213.181976 -107.247381 
L 212.980644 -106.61401 
L 211.992846 -105.104156 
L 211.685654 -104.086497 
L 211.506155 -103.70093 
L 211.099191 -103.799028 
L 198.475307 -103.267167 
L 196.559553 -103.149449 
L 195.588277 -102.478972 
L 192.812116 -102.371064 
L 192.556901 -102.269128 
L 189.317714 -101.869486 
L 188.11515 -101.166593 
L 187.574648 -100.578006 
L 187.236185 -100.184335 
L 186.72805 -99.796635 
L 186.077791 -99.47078 
L 185.47635 -99.202503 
L 184.599218 -98.880913 
L 184.321348 -98.228776 
L 184.120016 -97.470436 
L 183.132218 -97.467024 
L 182.825025 -97.24737 
L 182.645527 -96.719348 
L 182.238563 -96.229285 
L 179.863723 -95.845851 
L 179.229828 -95.792537 
L 169.614679 -95.468814 
L 166.727649 -95.297782 
L 163.951488 -94.47504 
L 163.696273 -94.370118 
L 159.254521 -94.369691 
L 158.375557 -93.737173 
L 157.867422 -93.573392 
L 157.217163 -93.360989 
L 156.615722 -93.303836 
L 155.73859 -92.644448 
L 155.46072 -92.803111 
L 155.259388 -92.742973 
L 154.27159 -92.030697 
L 153.964397 -91.21094 
L 153.377935 -91.051424 
L 153.268611 -90.235933 
L 151.003095 -89.430251 
L 150.3692 -89.37779 
L 146.026772 -89.163254 
L 144.283706 -87.881157 
L 140.754051 -87.717377 
L 139.354584 -87.132202 
L 137.867021 -87.295982 
L 135.09086 -85.978059 
L 134.835645 -85.103282 
L 130.393893 -84.233197 
L 129.514928 -83.962788 
L 129.006794 -83.908621 
L 128.356535 -83.686834 
L 126.877962 -83.316195 
L 126.600092 -83.334535 
L 126.39876 -83.494904 
L 125.410962 -83.498742 
L 125.103769 -83.394673 
L 124.517307 -82.22347 
L 124.407983 -81.790986 
L 122.142467 -82.001257 
L 121.508572 -81.950076 
L 117.166144 -81.951355 
L 115.423077 -82.16717 
L 113.32478 -82.276358 
L 111.893423 -82.442697 
L 110.493956 -82.713959 
L 109.006393 -82.60136 
L 106.230231 -82.44355 
L 101.533265 -82.496011 
L 100.6543 -82.65766 
L 100.146166 -82.606052 
L 99.495907 -82.606478 
L 98.017334 -82.346732 
L 97.739463 -82.453787 
L 97.538132 -82.03026 
L 96.550333 -82.037511 
L 96.243141 -81.663459 
L 95.656678 -81.389638 
L 95.547354 -81.069754 
L 93.281838 -80.963126 
L 92.647944 -81.014307 
L 91.544703 -80.746884 
L 88.305516 -80.641109 
L 86.562449 -80.690158 
L 84.464152 -80.579265 
L 83.032794 -80.097732 
L 81.633328 -80.096879 
L 77.369603 -80.045271 
L 72.672637 -80.097732 
L 71.793672 -79.99281 
L 71.285537 -79.885329 
L 70.635279 -79.723681 
L 68.878835 -79.831162 
z
" style="stroke: #009384; stroke-opacity: 0.7; stroke-width: 1.5"/>
    </defs>
    <g clip-path="url(#p5e12113ac2)">
     <use xlink:href="#m8c46680d9c" x="0" y="287.233281" style="fill: #009384; fill-opacity: 0.7; stroke: #009384; stroke-opacity: 0.7; stroke-width: 1.5"/>
    </g>
   </g>
   <g id="PolyCollection_2">
    <defs>
     <path id="m87eb2a9602" d="M 68.878835 -123.958565 
L 68.878835 -79.831162 
L 70.635279 -79.723681 
L 71.285537 -79.885329 
L 71.793672 -79.99281 
L 72.672637 -80.097732 
L 77.369603 -80.045271 
L 81.633328 -80.096879 
L 83.032794 -80.097732 
L 84.464152 -80.579265 
L 86.562449 -80.690158 
L 88.305516 -80.641109 
L 91.544703 -80.746884 
L 92.647944 -81.014307 
L 93.281838 -80.963126 
L 95.547354 -81.069754 
L 95.656678 -81.389638 
L 96.243141 -81.663459 
L 96.550333 -82.037511 
L 97.538132 -82.03026 
L 97.739463 -82.453787 
L 98.017334 -82.346732 
L 99.495907 -82.606478 
L 100.146166 -82.606052 
L 100.6543 -82.65766 
L 101.533265 -82.496011 
L 106.230231 -82.44355 
L 109.006393 -82.60136 
L 110.493956 -82.713959 
L 111.893423 -82.442697 
L 113.32478 -82.276358 
L 115.423077 -82.16717 
L 117.166144 -81.951355 
L 121.508572 -81.950076 
L 122.142467 -82.001257 
L 124.407983 -81.790986 
L 124.517307 -82.22347 
L 125.103769 -83.394673 
L 125.410962 -83.498742 
L 126.39876 -83.494904 
L 126.600092 -83.334535 
L 126.877962 -83.316195 
L 128.356535 -83.686834 
L 129.006794 -83.908621 
L 129.514928 -83.962788 
L 130.393893 -84.233197 
L 134.835645 -85.103282 
L 135.09086 -85.978059 
L 137.867021 -87.295982 
L 139.354584 -87.132202 
L 140.754051 -87.717377 
L 144.283706 -87.881157 
L 146.026772 -89.163254 
L 150.3692 -89.37779 
L 151.003095 -89.430251 
L 153.268611 -90.235933 
L 153.377935 -91.051424 
L 153.964397 -91.21094 
L 154.27159 -92.030697 
L 155.259388 -92.742973 
L 155.46072 -92.803111 
L 155.73859 -92.644448 
L 156.615722 -93.303836 
L 157.217163 -93.360989 
L 157.867422 -93.573392 
L 158.375557 -93.737173 
L 159.254521 -94.369691 
L 163.696273 -94.370118 
L 163.951488 -94.47504 
L 166.727649 -95.297782 
L 169.614679 -95.468814 
L 179.229828 -95.792537 
L 179.863723 -95.845851 
L 182.238563 -96.229285 
L 182.645527 -96.719348 
L 182.825025 -97.24737 
L 183.132218 -97.467024 
L 184.120016 -97.470436 
L 184.321348 -98.228776 
L 184.599218 -98.880913 
L 185.47635 -99.202503 
L 186.077791 -99.47078 
L 186.72805 -99.796635 
L 187.236185 -100.184335 
L 187.574648 -100.578006 
L 188.11515 -101.166593 
L 189.317714 -101.869486 
L 192.556901 -102.269128 
L 192.812116 -102.371064 
L 195.588277 -102.478972 
L 196.559553 -103.149449 
L 198.475307 -103.267167 
L 211.099191 -103.799028 
L 211.506155 -103.70093 
L 211.685654 -104.086497 
L 211.992846 -105.104156 
L 212.980644 -106.61401 
L 213.181976 -107.247381 
L 213.459846 -107.779668 
L 214.336978 -109.532635 
L 216.435276 -109.91479 
L 216.975778 -110.451769 
L 218.178342 -111.108598 
L 221.41753 -111.548332 
L 221.672744 -112.149288 
L 222.52077 -115.992592 
L 223.154665 -117.670492 
L 224.448906 -117.880336 
L 225.420181 -117.522492 
L 227.335935 -119.704956 
L 229.368734 -121.268551 
L 230.018992 -122.58946 
L 230.527127 -122.751961 
L 239.959819 -122.712295 
L 240.366783 -126.201593 
L 240.546282 -127.910202 
L 240.853474 -129.651653 
L 241.841273 -130.471409 
L 242.042604 -131.199893 
L 242.320474 -131.710855 
L 243.197607 -134.318978 
L 245.295904 -135.72519 
L 245.836406 -138.604575 
L 247.038971 -139.498545 
L 250.278158 -142.847521 
L 251.381398 -147.78952 
L 252.015293 -150.072641 
L 253.309534 -152.44661 
L 254.280809 -153.887795 
L 256.196563 -154.28829 
L 258.229362 -155.916715 
L 258.879621 -159.411984 
L 259.387755 -162.606989 
L 264.963686 -164.035379 
L 268.820447 -164.841487 
L 269.227411 -166.094154 
L 269.714102 -167.080251 
L 270.701901 -168.178094 
L 270.903232 -169.699464 
L 271.181103 -170.392973 
L 272.058235 -170.87152 
L 274.156532 -175.90522 
L 275.899599 -179.918275 
L 279.138786 -179.861123 
L 280.242027 -184.834684 
L 280.875921 -185.982429 
L 282.170162 -185.509427 
L 283.141438 -187.160883 
L 283.837224 -187.689758 
L 285.057192 -186.771477 
L 287.08999 -189.119002 
L 287.740249 -193.43616 
L 288.248383 -194.249093 
L 289.127348 -198.173007 
L 293.824314 -197.997284 
L 297.681076 -197.657354 
L 298.088039 -198.229734 
L 298.574731 -202.824126 
L 299.763861 -202.262409 
L 300.041731 -202.524287 
L 300.918863 -204.765184 
L 304.760227 -204.206452 
L 307.999414 -203.767998 
L 309.102655 -203.181969 
L 309.73655 -203.23699 
L 311.03079 -202.904736 
L 312.002066 -201.995412 
L 312.697852 -201.458433 
L 313.992843 -201.417914 
L 315.950618 -201.169684 
L 316.600877 -199.574101 
L 317.109012 -199.423115 
L 317.447475 -199.311796 
L 317.987976 -198.881871 
L 322.684943 -199.026032 
L 326.948668 -199.122851 
L 328.348134 -195.773448 
L 328.902359 -193.933047 
L 329.779491 -194.094269 
L 333.620855 -194.234592 
L 336.860042 -192.118237 
L 337.963283 -190.343092 
L 338.597178 -189.126252 
L 340.862694 -189.143313 
L 340.972018 -188.603774 
L 341.55848 -185.926129 
L 341.865673 -183.905314 
L 342.853471 -181.896013 
L 343.054803 -179.885434 
L 344.811246 -178.276629 
L 345.461505 -177.423604 
L 345.96964 -175.407053 
L 346.308103 -173.625084 
L 346.848605 -170.21597 
L 351.545571 -168.467696 
L 354.321732 -164.850871 
L 357.208762 -159.748929 
L 357.762987 -157.246154 
L 358.640119 -153.900164 
L 362.481483 -152.353203 
L 365.72067 -151.022484 
L 366.823911 -148.679652 
L 367.457806 -145.176705 
L 369.723322 -141.814081 
L 369.832646 -139.672136 
L 370.23961 -138.705658 
L 370.419108 -137.611654 
L 370.726301 -136.403344 
L 371.714099 -135.207403 
L 371.915431 -133.947486 
L 373.671874 -133.038588 
L 374.830268 -132.059315 
L 375.168731 -126.696348 
L 375.709233 -122.623581 
L 380.406199 -122.570693 
L 383.182361 -117.157397 
L 386.06939 -115.782748 
L 387.500747 -115.939704 
L 388.752447 -114.06305 
L 391.342112 -113.583223 
L 394.581299 -113.372099 
L 395.684539 -110.423619 
L 396.318434 -105.565216 
L 398.58395 -104.430266 
L 398.693274 -100.229972 
L 399.100238 -99.755264 
L 399.279737 -100.229545 
L 399.586929 -99.112509 
L 400.574727 -94.132124 
L 400.776059 -94.189703 
L 401.053929 -93.654003 
L 403.690896 -91.091516 
L 404.029359 -90.716612 
L 404.569861 -90.612117 
L 409.266827 -90.66671 
L 412.042989 -90.451748 
L 414.930018 -90.720024 
L 416.361376 -90.606572 
L 416.962817 -89.9024 
L 417.613076 -89.576971 
L 420.20274 -89.185432 
L 424.545168 -88.975588 
L 427.444578 -88.643335 
L 427.553902 -88.380603 
L 427.960866 -88.048777 
L 428.140365 -87.629089 
L 428.447557 -87.041781 
L 429.435356 -86.392629 
L 429.636687 -86.499257 
L 429.914558 -85.956733 
L 432.551524 -85.318671 
L 432.889987 -85.359616 
L 433.430489 -85.362602 
L 437.872241 -85.888491 
L 438.127455 -85.666705 
L 439.609376 -85.714048 
L 440.903617 -85.105415 
L 443.790647 -85.213322 
L 445.823445 -85.000066 
L 446.473704 -85.262798 
L 453.405796 -85.100723 
L 456.305207 -84.341531 
L 456.414531 -83.915871 
L 456.821494 -84.073254 
L 457.000993 -84.393139 
L 457.308186 -83.863837 
L 458.295984 -83.86341 
L 458.497316 -84.133819 
L 458.775186 -83.440736 
L 459.652318 -83.544806 
L 461.412152 -83.755929 
L 461.750615 -83.923122 
L 462.291117 -83.927814 
L 463.493682 -83.714557 
L 466.732869 -85.959719 
L 466.988084 -86.129471 
L 468.470005 -88.377191 
L 469.764245 -87.897365 
L 472.651275 -87.792869 
L 474.684073 -87.787325 
L 475.334332 -89.593605 
L 485.275159 -89.861455 
L 485.682123 -89.700233 
L 485.861621 -89.75568 
L 486.168814 -89.918607 
L 487.156612 -91.795689 
L 487.357944 -93.598557 
L 487.635814 -93.387006 
L 488.512946 -94.423005 
L 490.272781 -94.800895 
L 490.611244 -97.301111 
L 491.151745 -99.752704 
L 492.35431 -100.948645 
L 495.593497 -101.971422 
L 495.848712 -103.476585 
L 496.696738 -104.076688 
L 497.330633 -105.034208 
L 497.330633 -162.868867 
L 497.330633 -162.868867 
L 496.696738 -161.648189 
L 495.848712 -159.859396 
L 495.593497 -156.921151 
L 492.35431 -153.901443 
L 491.151745 -152.754551 
L 490.611244 -149.271651 
L 490.272781 -145.957223 
L 488.512946 -143.369998 
L 487.635814 -142.499487 
L 487.357944 -142.39755 
L 487.156612 -140.281195 
L 486.168814 -139.147099 
L 485.861621 -139.202972 
L 485.682123 -138.778166 
L 485.275159 -136.515517 
L 475.334332 -136.406756 
L 474.684073 -134.65379 
L 472.651275 -134.657202 
L 469.764245 -134.429445 
L 468.470005 -134.747623 
L 466.988084 -132.500329 
L 466.732869 -132.649608 
L 463.493682 -128.657452 
L 462.291117 -127.690975 
L 461.750615 -127.367678 
L 461.412152 -127.15229 
L 459.652318 -126.678008 
L 458.775186 -126.569247 
L 458.497316 -126.989362 
L 458.295984 -126.557305 
L 457.308186 -126.559864 
L 457.000993 -127.139494 
L 456.821494 -127.089166 
L 456.414531 -127.684577 
L 456.305207 -128.055643 
L 453.405796 -128.706501 
L 446.473704 -128.701809 
L 445.823445 -128.549118 
L 443.790647 -128.973924 
L 440.903617 -129.348402 
L 439.609376 -130.598084 
L 438.127455 -130.449231 
L 437.872241 -130.674003 
L 433.430489 -130.257727 
L 432.889987 -130.531121 
L 432.551524 -130.491456 
L 429.914558 -131.025449 
L 429.636687 -131.465183 
L 429.435356 -131.466889 
L 428.447557 -132.22139 
L 428.140365 -132.708041 
L 427.960866 -133.018968 
L 427.553902 -133.663855 
L 427.444578 -134.143681 
L 424.545168 -134.478067 
L 420.20274 -134.410252 
L 417.613076 -134.856384 
L 416.962817 -135.400614 
L 416.361376 -135.89025 
L 414.930018 -135.733293 
L 412.042989 -135.727322 
L 409.266827 -136.262169 
L 404.569861 -136.267713 
L 404.029359 -135.836936 
L 403.690896 -136.365385 
L 401.053929 -139.460585 
L 400.776059 -140.255178 
L 400.574727 -140.631789 
L 399.586929 -146.477568 
L 399.279737 -147.601428 
L 399.100238 -147.292633 
L 398.693274 -147.28197 
L 398.58395 -151.43151 
L 396.318434 -152.35363 
L 395.684539 -157.267053 
L 394.581299 -160.48381 
L 391.342112 -160.647164 
L 388.752447 -161.080074 
L 387.500747 -163.00919 
L 386.06939 -162.580545 
L 383.182361 -164.491321 
L 380.406199 -169.955371 
L 375.709233 -169.639326 
L 375.168731 -173.657926 
L 374.830268 -179.179129 
L 373.671874 -180.001445 
L 371.915431 -180.587473 
L 371.714099 -181.956152 
L 370.726301 -183.152946 
L 370.419108 -184.411584 
L 370.23961 -185.769173 
L 369.832646 -186.688734 
L 369.723322 -188.830253 
L 367.457806 -192.038906 
L 366.823911 -195.867708 
L 365.72067 -198.153388 
L 362.481483 -199.430366 
L 358.640119 -201.508761 
L 357.762987 -204.649172 
L 357.208762 -206.986887 
L 354.321732 -212.137024 
L 351.545571 -215.649354 
L 346.848605 -217.29228 
L 346.308103 -220.701394 
L 345.96964 -221.839756 
L 345.461505 -224.013263 
L 344.811246 -225.398149 
L 343.054803 -227.174573 
L 342.853471 -228.753096 
L 341.865673 -231.080574 
L 341.55848 -232.780653 
L 340.972018 -235.244189 
L 340.862694 -235.72956 
L 338.597178 -235.652361 
L 337.963283 -237.037247 
L 336.860042 -238.811965 
L 333.620855 -241.410705 
L 329.779491 -241.650405 
L 328.902359 -241.218775 
L 328.348134 -243.43536 
L 326.948668 -246.885845 
L 322.684943 -247.108911 
L 317.987976 -246.911863 
L 317.447475 -247.456093 
L 317.109012 -247.395954 
L 316.600877 -248.146616 
L 315.950618 -249.639836 
L 313.992843 -250.521864 
L 312.697852 -250.301357 
L 312.002066 -251.050313 
L 311.03079 -252.120006 
L 309.73655 -251.918266 
L 309.102655 -251.537817 
L 307.999414 -252.437758 
L 304.760227 -253.14193 
L 300.918863 -253.595312 
L 300.041731 -251.088272 
L 299.763861 -250.825541 
L 298.574731 -251.112584 
L 298.088039 -245.758573 
L 297.681076 -245.184914 
L 293.824314 -245.464279 
L 289.127348 -245.537213 
L 288.248383 -241.947258 
L 287.740249 -241.289576 
L 287.08999 -236.655092 
L 285.057192 -234.094311 
L 283.837224 -235.331197 
L 283.141438 -234.850944 
L 282.170162 -233.264744 
L 280.875921 -233.953135 
L 280.242027 -232.865955 
L 279.138786 -227.78406 
L 275.899599 -227.68127 
L 274.156532 -223.345771 
L 272.058235 -218.207576 
L 271.181103 -217.777651 
L 270.903232 -217.242378 
L 270.701901 -215.822518 
L 269.714102 -214.778416 
L 269.227411 -213.802129 
L 268.820447 -212.44454 
L 264.963686 -211.529671 
L 259.387755 -210.42671 
L 258.879621 -207.872327 
L 258.229362 -204.158683 
L 256.196563 -202.639446 
L 254.280809 -202.447515 
L 253.309534 -200.738053 
L 252.015293 -198.523174 
L 251.381398 -196.725424 
L 250.278158 -191.78769 
L 247.038971 -188.497146 
L 245.836406 -187.606588 
L 245.295904 -184.675168 
L 243.197607 -183.217349 
L 242.320474 -180.452695 
L 242.042604 -179.93363 
L 241.841273 -179.309642 
L 240.853474 -179.08359 
L 240.546282 -177.126325 
L 240.366783 -175.854465 
L 239.959819 -171.723692 
L 230.527127 -172.184752 
L 230.018992 -172.028648 
L 229.368734 -170.758921 
L 227.335935 -169.135188 
L 225.420181 -166.905381 
L 224.448906 -167.048263 
L 223.154665 -166.950165 
L 222.52077 -164.783482 
L 221.672744 -160.410876 
L 221.41753 -159.707131 
L 218.178342 -159.32199 
L 216.975778 -158.944953 
L 216.435276 -158.628907 
L 214.336978 -157.753277 
L 213.459846 -156.217406 
L 213.181976 -155.203159 
L 212.980644 -154.402596 
L 211.992846 -153.692879 
L 211.685654 -153.155047 
L 211.506155 -153.247173 
L 211.099191 -153.347404 
L 198.475307 -152.499071 
L 196.559553 -152.599301 
L 195.588277 -151.878495 
L 192.812116 -151.98555 
L 192.556901 -151.56842 
L 189.317714 -151.006704 
L 188.11515 -150.363096 
L 187.574648 -149.926348 
L 187.236185 -149.214072 
L 186.72805 -148.823813 
L 186.077791 -148.863052 
L 185.47635 -148.493692 
L 184.599218 -148.275318 
L 184.321348 -147.728955 
L 184.120016 -146.641349 
L 183.132218 -146.266871 
L 182.825025 -145.768278 
L 182.645527 -145.296129 
L 182.238563 -144.423484 
L 179.863723 -144.092084 
L 179.229828 -144.193167 
L 169.614679 -144.139427 
L 166.727649 -144.125778 
L 163.951488 -143.564915 
L 163.696273 -143.405825 
L 159.254521 -143.033054 
L 158.375557 -142.1297 
L 157.867422 -141.590162 
L 157.217163 -141.585897 
L 156.615722 -141.690819 
L 155.73859 -140.387397 
L 155.46072 -140.328538 
L 155.259388 -140.271386 
L 154.27159 -139.764262 
L 153.964397 -138.469371 
L 153.377935 -138.311134 
L 153.268611 -137.446167 
L 151.003095 -136.157673 
L 150.3692 -136.044221 
L 146.026772 -135.929063 
L 144.283706 -134.699427 
L 140.754051 -135.126793 
L 139.354584 -134.698148 
L 137.867021 -135.071346 
L 135.09086 -133.867728 
L 134.835645 -132.882911 
L 130.393893 -131.737725 
L 129.514928 -131.308227 
L 129.006794 -130.711962 
L 128.356535 -131.396088 
L 126.877962 -130.494015 
L 126.600092 -130.503398 
L 126.39876 -130.820723 
L 125.410962 -130.50553 
L 125.103769 -129.69601 
L 124.517307 -128.463815 
L 124.407983 -127.870537 
L 122.142467 -128.08294 
L 121.508572 -128.138386 
L 117.166144 -127.865418 
L 115.423077 -128.176773 
L 113.32478 -127.631263 
L 111.893423 -127.580508 
L 110.493956 -127.683724 
L 109.006393 -127.947735 
L 106.230231 -127.891862 
L 101.533265 -127.943897 
L 100.6543 -127.254226 
L 100.146166 -126.82942 
L 99.495907 -126.518492 
L 98.017334 -126.583322 
L 97.739463 -126.532141 
L 97.538132 -125.62239 
L 96.550333 -125.626228 
L 96.243141 -125.139578 
L 95.656678 -125.027831 
L 95.547354 -124.922909 
L 93.281838 -124.649515 
L 92.647944 -124.813722 
L 91.544703 -124.862344 
L 88.305516 -125.244926 
L 86.562449 -124.589803 
L 84.464152 -124.420051 
L 83.032794 -124.323233 
L 81.633328 -124.324086 
L 77.369603 -124.062207 
L 72.672637 -124.277169 
L 71.793672 -124.226414 
L 71.285537 -124.118933 
L 70.635279 -123.692847 
L 68.878835 -123.958565 
z
" style="stroke: #009384; stroke-opacity: 0.7; stroke-width: 1.5"/>
    </defs>
    <g clip-path="url(#p5e12113ac2)">
     <use xlink:href="#m87eb2a9602" x="0" y="287.233281" style="fill: #009384; fill-opacity: 0.7; stroke: #009384; stroke-opacity: 0.7; stroke-width: 1.5"/>
    </g>
   </g>
   <g id="PolyCollection_3">
    <defs>
     <path id="m1cbea1084d" d="M 73.784478 -86.731176 
L 73.784478 -42.395313 
L 74.327462 -42.395313 
L 78.084553 -42.395313 
L 86.626289 -42.395313 
L 86.97999 -42.395313 
L 90.031237 -42.395313 
L 90.720126 -42.395313 
L 91.376864 -42.395313 
L 91.711705 -42.395313 
L 94.79679 -42.395313 
L 94.81275 -42.395313 
L 94.836604 -42.395313 
L 94.934427 -42.395313 
L 95.354277 -42.395313 
L 96.450764 -42.395313 
L 98.515324 -42.395313 
L 98.576104 -42.395313 
L 99.707195 -42.395313 
L 100.136728 -42.395313 
L 101.664971 -42.395313 
L 102.645106 -42.395313 
L 103.18809 -42.395313 
L 106.945181 -42.395313 
L 115.486917 -42.395313 
L 115.840619 -42.395313 
L 118.891865 -42.395313 
L 120.237492 -42.395313 
L 120.572333 -42.395313 
L 123.657419 -42.395313 
L 123.673379 -42.395313 
L 123.697232 -42.395313 
L 124.214905 -42.395313 
L 125.311392 -42.395313 
L 127.375952 -42.395313 
L 127.436732 -42.395313 
L 128.567824 -42.395313 
L 128.997356 -42.395313 
L 130.525599 -42.395313 
L 131.505735 -42.395313 
L 132.048718 -42.395313 
L 134.011068 -42.395313 
L 135.805809 -42.395313 
L 138.225369 -42.395313 
L 144.347545 -42.395313 
L 144.701247 -42.395313 
L 147.752493 -42.395313 
L 149.09812 -42.395313 
L 149.432961 -42.395313 
L 152.518047 -42.395313 
L 152.534007 -42.395313 
L 152.55786 -42.395313 
L 153.075533 -42.395313 
L 154.172021 -42.395313 
L 156.23658 -42.395313 
L 156.29736 -42.395313 
L 157.428452 -42.395313 
L 157.857985 -42.395313 
L 159.386227 -42.395313 
L 160.366363 -42.395313 
L 160.909347 -42.395313 
L 162.871696 -42.395313 
L 164.666438 -42.395313 
L 167.085997 -42.395313 
L 173.561875 -42.395313 
L 176.613121 -42.395313 
L 177.958748 -42.395313 
L 178.293589 -42.395313 
L 181.394635 -42.395313 
L 181.418488 -42.395313 
L 183.032649 -42.395313 
L 185.097208 -42.395313 
L 185.157989 -42.395313 
L 186.718613 -42.395313 
L 187.638488 -42.395313 
L 188.246855 -42.395313 
L 189.226991 -42.395313 
L 189.769975 -42.395313 
L 191.732324 -42.395313 
L 193.527066 -42.395313 
L 195.808989 -42.395313 
L 195.946625 -42.395313 
L 196.366475 -42.395313 
L 200.719394 -42.395313 
L 202.422503 -42.395313 
L 205.47375 -42.395313 
L 211.893277 -42.395313 
L 213.957836 -42.395313 
L 214.018617 -42.395313 
L 215.579241 -42.395313 
L 216.499116 -42.395313 
L 217.107483 -42.395313 
L 218.087619 -42.395313 
L 218.630603 -42.395313 
L 220.592952 -42.395313 
L 221.249691 -42.395313 
L 221.584532 -42.395313 
L 222.387694 -42.395313 
L 224.669617 -42.395313 
L 224.685577 -42.395313 
L 224.70943 -42.395313 
L 224.807254 -42.395313 
L 225.227104 -42.395313 
L 229.580022 -42.395313 
L 231.283131 -42.395313 
L 240.753905 -42.395313 
L 242.818465 -42.395313 
L 244.439869 -42.395313 
L 245.359744 -42.395313 
L 245.968111 -42.395313 
L 246.948247 -42.395313 
L 247.491231 -42.395313 
L 248.764692 -42.395313 
L 249.453581 -42.395313 
L 250.110319 -42.395313 
L 250.44516 -42.395313 
L 251.248322 -42.395313 
L 253.530245 -42.395313 
L 253.546205 -42.395313 
L 253.570059 -42.395313 
L 253.667882 -42.395313 
L 254.087732 -42.395313 
L 257.309559 -42.395313 
L 258.44065 -42.395313 
L 260.143759 -42.395313 
L 269.614533 -42.395313 
L 271.679093 -42.395313 
L 273.300497 -42.395313 
L 274.220372 -42.395313 
L 274.82874 -42.395313 
L 276.351859 -42.395313 
L 277.62532 -42.395313 
L 278.314209 -42.395313 
L 278.970947 -42.395313 
L 279.305788 -42.395313 
L 280.10895 -42.395313 
L 282.390874 -42.395313 
L 282.406834 -42.395313 
L 282.430687 -42.395313 
L 282.52851 -42.395313 
L 282.94836 -42.395313 
L 286.170187 -42.395313 
L 287.301279 -42.395313 
L 290.23919 -42.395313 
L 298.475161 -42.395313 
L 300.539721 -42.395313 
L 302.161125 -42.395313 
L 303.081 -42.395313 
L 303.434702 -42.395313 
L 305.212487 -42.395313 
L 306.485948 -42.395313 
L 307.174837 -42.395313 
L 307.831575 -42.395313 
L 308.166416 -42.395313 
L 308.969578 -42.395313 
L 311.251502 -42.395313 
L 311.267462 -42.395313 
L 311.291315 -42.395313 
L 311.389138 -42.395313 
L 311.808988 -42.395313 
L 315.030815 -42.395313 
L 316.161907 -42.395313 
L 318.119682 -42.395313 
L 319.099818 -42.395313 
L 331.941628 -42.395313 
L 332.29533 -42.395313 
L 335.346576 -42.395313 
L 336.035465 -42.395313 
L 336.692203 -42.395313 
L 337.027044 -42.395313 
L 337.830207 -42.395313 
L 340.11213 -42.395313 
L 340.12809 -42.395313 
L 340.151943 -42.395313 
L 340.249766 -42.395313 
L 340.669616 -42.395313 
L 341.766104 -42.395313 
L 343.830663 -42.395313 
L 343.891444 -42.395313 
L 345.022535 -42.395313 
L 345.452068 -42.395313 
L 346.98031 -42.395313 
L 347.960446 -42.395313 
L 348.50343 -42.395313 
L 360.802257 -42.395313 
L 361.155958 -42.395313 
L 364.207205 -42.395313 
L 365.552831 -42.395313 
L 365.887672 -42.395313 
L 368.972758 -42.395313 
L 368.988718 -42.395313 
L 369.012571 -42.395313 
L 369.110394 -42.395313 
L 369.530244 -42.395313 
L 370.626732 -42.395313 
L 372.691291 -42.395313 
L 372.752072 -42.395313 
L 373.883163 -42.395313 
L 374.312696 -42.395313 
L 375.840938 -42.395313 
L 376.821074 -42.395313 
L 377.364058 -42.395313 
L 379.326407 -42.395313 
L 381.121149 -42.395313 
L 389.662885 -42.395313 
L 390.016586 -42.395313 
L 393.067833 -42.395313 
L 394.41346 -42.395313 
L 394.748301 -42.395313 
L 397.833386 -42.395313 
L 397.849346 -42.395313 
L 397.8732 -42.395313 
L 397.971023 -42.395313 
L 398.390873 -42.395313 
L 399.48736 -42.395313 
L 401.551919 -42.395313 
L 401.6127 -42.395313 
L 402.743791 -42.395313 
L 403.173324 -42.395313 
L 404.701566 -42.395313 
L 405.681702 -42.395313 
L 406.224686 -42.395313 
L 408.187036 -42.395313 
L 409.981777 -42.395313 
L 418.523513 -42.395313 
L 418.877214 -42.395313 
L 421.928461 -42.395313 
L 423.274088 -42.395313 
L 423.608929 -42.395313 
L 426.694014 -42.395313 
L 426.709974 -42.395313 
L 426.733828 -42.395313 
L 427.251501 -42.395313 
L 428.347988 -42.395313 
L 430.412548 -42.395313 
L 430.473328 -42.395313 
L 431.604419 -42.395313 
L 432.033952 -42.395313 
L 433.562195 -42.395313 
L 434.54233 -42.395313 
L 435.085314 -42.395313 
L 437.047664 -42.395313 
L 438.842405 -42.395313 
L 441.261965 -42.395313 
L 447.384141 -42.395313 
L 447.737842 -42.395313 
L 450.789089 -42.395313 
L 452.134716 -42.395313 
L 452.469557 -42.395313 
L 455.554643 -42.395313 
L 455.570603 -42.395313 
L 455.594456 -42.395313 
L 456.112129 -42.395313 
L 457.208616 -42.395313 
L 459.273176 -42.395313 
L 459.333956 -42.395313 
L 460.465048 -42.395313 
L 460.89458 -42.395313 
L 462.422823 -42.395313 
L 463.402959 -42.395313 
L 463.945942 -42.395313 
L 465.908292 -42.395313 
L 467.703033 -42.395313 
L 470.122593 -42.395313 
L 476.598471 -42.395313 
L 479.649717 -42.395313 
L 480.995344 -42.395313 
L 481.330185 -42.395313 
L 484.431231 -42.395313 
L 484.455084 -42.395313 
L 486.069245 -42.395313 
L 488.133804 -42.395313 
L 488.194584 -42.395313 
L 489.755209 -42.395313 
L 490.675083 -42.395313 
L 491.283451 -42.395313 
L 492.263587 -42.395313 
L 492.806571 -42.395313 
L 494.76892 -42.395313 
L 496.563662 -42.395313 
L 498.845585 -42.395313 
L 498.983221 -42.395313 
L 499.403071 -42.395313 
L 503.75599 -42.395313 
L 505.459099 -42.395313 
L 508.510345 -42.395313 
L 514.929873 -42.395313 
L 516.994432 -42.395313 
L 517.055213 -42.395313 
L 518.615837 -42.395313 
L 519.535712 -42.395313 
L 520.144079 -42.395313 
L 521.124215 -42.395313 
L 521.667199 -42.395313 
L 523.629548 -42.395313 
L 524.286286 -42.395313 
L 524.621127 -42.395313 
L 525.42429 -42.395313 
L 525.42429 -120.836914 
L 525.42429 -120.836914 
L 524.621127 -119.452518 
L 524.286286 -118.786306 
L 523.629548 -119.759025 
L 521.667199 -119.033476 
L 521.124215 -117.539408 
L 520.144079 -116.857236 
L 519.535712 -115.077123 
L 518.615837 -113.675949 
L 517.055213 -111.638845 
L 516.994432 -111.689589 
L 514.929873 -110.913296 
L 508.510345 -110.96363 
L 505.459099 -108.845091 
L 503.75599 -108.124043 
L 499.403071 -106.14382 
L 498.983221 -104.143955 
L 498.845585 -104.038786 
L 496.563662 -103.731051 
L 494.76892 -103.162643 
L 492.806571 -101.162368 
L 492.263587 -100.957348 
L 491.283451 -101.824489 
L 490.675083 -100.590277 
L 489.755209 -98.677576 
L 488.194584 -98.679622 
L 488.133804 -98.31828 
L 486.069245 -97.541578 
L 484.455084 -97.591503 
L 484.431231 -95.386618 
L 481.330185 -95.436134 
L 480.995344 -95.284312 
L 479.649717 -91.234658 
L 476.598471 -91.281718 
L 470.122593 -91.493695 
L 467.703033 -91.235476 
L 465.908292 -90.772647 
L 463.945942 -91.544029 
L 463.402959 -91.537891 
L 462.422823 -91.93238 
L 460.89458 -90.052826 
L 460.465048 -89.996763 
L 459.333956 -90.668295 
L 459.273176 -90.971119 
L 457.208616 -91.026773 
L 456.112129 -91.830075 
L 455.594456 -92.293313 
L 455.570603 -93.011088 
L 455.554643 -93.622055 
L 452.469557 -93.617554 
L 452.134716 -92.497106 
L 450.789089 -92.496287 
L 447.737842 -91.931562 
L 447.384141 -91.976167 
L 441.261965 -94.781379 
L 438.842405 -95.036733 
L 437.047664 -93.756689 
L 435.085314 -93.295087 
L 434.54233 -92.993082 
L 433.562195 -92.784788 
L 432.033952 -92.837987 
L 431.604419 -92.630512 
L 430.473328 -92.734045 
L 430.412548 -92.884638 
L 428.347988 -92.837987 
L 427.251501 -91.967573 
L 426.733828 -92.120213 
L 426.709974 -91.454819 
L 426.694014 -90.635557 
L 423.608929 -89.9718 
L 423.274088 -90.341736 
L 421.928461 -90.955159 
L 418.877214 -91.055009 
L 418.523513 -90.53448 
L 409.981777 -92.320322 
L 408.187036 -92.064149 
L 406.224686 -92.58427 
L 405.681702 -92.472143 
L 404.701566 -93.138765 
L 403.173324 -93.142857 
L 402.743791 -92.785607 
L 401.6127 -93.411306 
L 401.551919 -93.25662 
L 399.48736 -93.209969 
L 398.390873 -93.106027 
L 397.971023 -93.258667 
L 397.8732 -93.771012 
L 397.849346 -93.874135 
L 397.833386 -93.972758 
L 394.748301 -93.920378 
L 394.41346 -94.0767 
L 393.067833 -94.940157 
L 390.016586 -96.103983 
L 389.662885 -96.665435 
L 381.121149 -97.174915 
L 379.326407 -97.275993 
L 377.364058 -96.613873 
L 376.821074 -96.71495 
L 375.840938 -96.868408 
L 374.312696 -96.86759 
L 373.883163 -96.869227 
L 372.752072 -96.820529 
L 372.691291 -97.022685 
L 370.626732 -97.129082 
L 369.530244 -97.074656 
L 369.110394 -97.174506 
L 369.012571 -97.174915 
L 368.988718 -97.077111 
L 368.972758 -96.14777 
L 365.887672 -95.535984 
L 365.552831 -95.291269 
L 364.207205 -94.566947 
L 361.155958 -94.57104 
L 360.802257 -94.17655 
L 348.50343 -93.466551 
L 347.960446 -93.518113 
L 346.98031 -92.894869 
L 345.452068 -92.742229 
L 345.022535 -92.580587 
L 343.891444 -91.87959 
L 343.830663 -91.309545 
L 341.766104 -90.542255 
L 340.669616 -90.498468 
L 340.249766 -90.547575 
L 340.151943 -90.754232 
L 340.12809 -90.599137 
L 340.11213 -90.241477 
L 337.830207 -90.243523 
L 337.027044 -87.339279 
L 336.692203 -87.237792 
L 336.035465 -87.194006 
L 335.346576 -87.962523 
L 332.29533 -87.862264 
L 331.941628 -88.168771 
L 319.099818 -88.112708 
L 318.119682 -88.267802 
L 316.161907 -88.825162 
L 315.030815 -88.874678 
L 311.808988 -89.54089 
L 311.389138 -90.34501 
L 311.291315 -90.652745 
L 311.267462 -90.704307 
L 311.251502 -90.861448 
L 308.969578 -90.658065 
L 308.166416 -90.485782 
L 307.831575 -89.869904 
L 307.174837 -89.768827 
L 306.485948 -90.784923 
L 305.212487 -89.047369 
L 303.434702 -89.405847 
L 303.081 -89.042868 
L 302.161125 -88.333278 
L 300.539721 -87.720264 
L 298.475161 -88.472413 
L 290.23919 -89.395617 
L 287.301279 -89.392343 
L 286.170187 -89.595726 
L 282.94836 -89.646879 
L 282.52851 -89.801564 
L 282.430687 -89.899777 
L 282.406834 -89.183231 
L 282.390874 -89.684936 
L 280.10895 -90.50297 
L 279.305788 -90.504607 
L 278.970947 -90.50297 
L 278.314209 -89.794607 
L 277.62532 -88.835393 
L 276.351859 -88.173682 
L 274.82874 -87.563942 
L 274.220372 -87.661336 
L 273.300497 -88.126212 
L 271.679093 -88.176546 
L 269.614533 -88.176546 
L 260.143759 -88.175318 
L 258.44065 -88.175728 
L 257.309559 -88.12744 
L 254.087732 -88.031682 
L 253.667882 -88.750274 
L 253.570059 -88.856263 
L 253.546205 -89.06251 
L 253.530245 -88.965116 
L 251.248322 -89.112026 
L 250.44516 -89.878498 
L 250.110319 -90.59218 
L 249.453581 -91.359879 
L 248.764692 -91.35947 
L 247.491231 -91.361925 
L 246.948247 -91.357424 
L 245.968111 -90.886001 
L 245.359744 -90.737044 
L 244.439869 -90.583586 
L 242.818465 -90.688756 
L 240.753905 -90.228382 
L 231.283131 -90.67648 
L 229.580022 -91.445407 
L 225.227104 -91.445407 
L 224.807254 -90.779603 
L 224.70943 -90.784514 
L 224.685577 -90.782059 
L 224.669617 -90.888047 
L 222.387694 -90.88641 
L 221.584532 -90.840987 
L 221.249691 -90.989534 
L 220.592952 -90.835257 
L 218.630603 -90.840168 
L 218.087619 -90.175593 
L 217.107483 -90.222244 
L 216.499116 -90.221835 
L 215.579241 -90.22429 
L 214.018617 -90.323731 
L 213.957836 -89.668976 
L 211.893277 -89.466003 
L 205.47375 -88.746591 
L 202.422503 -88.048051 
L 200.719394 -87.844258 
L 196.366475 -87.845895 
L 195.946625 -88.296857 
L 195.808989 -88.501059 
L 193.527066 -89.066603 
L 191.732324 -89.277352 
L 189.769975 -89.331778 
L 189.226991 -88.3165 
L 188.246855 -89.083381 
L 187.638488 -88.980666 
L 186.718613 -88.97862 
L 185.157989 -89.446769 
L 185.097208 -89.500377 
L 183.032649 -88.746591 
L 181.418488 -87.98012 
L 181.394635 -87.718627 
L 178.293589 -87.671567 
L 177.958748 -87.720264 
L 176.613121 -87.669521 
L 173.561875 -87.570489 
L 167.085997 -88.339825 
L 164.666438 -88.399981 
L 162.871696 -87.726812 
L 160.909347 -88.398753 
L 160.366363 -88.243658 
L 159.386227 -88.194143 
L 157.857985 -88.196598 
L 157.428452 -88.761323 
L 156.29736 -88.764597 
L 156.23658 -89.290037 
L 154.172021 -89.335461 
L 153.075533 -90.005766 
L 152.55786 -90.679753 
L 152.534007 -90.626145 
L 152.518047 -91.034139 
L 149.432961 -91.595182 
L 149.09812 -91.488375 
L 147.752493 -90.768554 
L 144.701247 -90.817252 
L 144.347545 -90.61305 
L 138.225369 -90.710854 
L 135.805809 -90.662566 
L 134.011068 -90.054872 
L 132.048718 -89.391524 
L 131.505735 -88.668839 
L 130.525599 -88.666793 
L 128.997356 -88.665156 
L 128.567824 -88.465047 
L 127.436732 -88.981075 
L 127.375952 -89.033865 
L 125.311392 -89.139035 
L 124.214905 -88.880407 
L 123.697232 -88.62628 
L 123.673379 -88.12171 
L 123.657419 -88.069739 
L 120.572333 -88.068512 
L 120.237492 -87.962523 
L 118.891865 -87.960068 
L 115.840619 -87.908506 
L 115.486917 -87.800472 
L 106.945181 -88.000581 
L 103.18809 -88.046004 
L 102.645106 -87.847941 
L 101.664971 -88.571036 
L 100.136728 -89.124712 
L 99.707195 -89.021179 
L 98.576104 -89.691074 
L 98.515324 -89.432447 
L 96.450764 -89.226608 
L 95.354277 -89.022816 
L 94.934427 -88.915191 
L 94.836604 -89.727904 
L 94.81275 -89.474187 
L 94.79679 -89.578948 
L 91.711705 -89.424262 
L 91.376864 -89.320729 
L 90.720126 -89.37802 
L 90.031237 -89.844532 
L 86.97999 -88.473232 
L 86.626289 -88.009993 
L 78.084553 -87.802518 
L 74.327462 -87.702668 
L 73.784478 -86.731176 
z
" style="stroke: #b85741; stroke-opacity: 0.7; stroke-width: 1.5"/>
    </defs>
    <g clip-path="url(#p5e12113ac2)">
     <use xlink:href="#m1cbea1084d" x="0" y="287.233281" style="fill: #b85741; fill-opacity: 0.7; stroke: #b85741; stroke-opacity: 0.7; stroke-width: 1.5"/>
    </g>
   </g>
   <g id="PolyCollection_4">
    <defs>
     <path id="m1ed4115572" d="M 73.784478 -136.258013 
L 73.784478 -86.731176 
L 74.327462 -87.702668 
L 78.084553 -87.802518 
L 86.626289 -88.009993 
L 86.97999 -88.473232 
L 90.031237 -89.844532 
L 90.720126 -89.37802 
L 91.376864 -89.320729 
L 91.711705 -89.424262 
L 94.79679 -89.578948 
L 94.81275 -89.474187 
L 94.836604 -89.727904 
L 94.934427 -88.915191 
L 95.354277 -89.022816 
L 96.450764 -89.226608 
L 98.515324 -89.432447 
L 98.576104 -89.691074 
L 99.707195 -89.021179 
L 100.136728 -89.124712 
L 101.664971 -88.571036 
L 102.645106 -87.847941 
L 103.18809 -88.046004 
L 106.945181 -88.000581 
L 115.486917 -87.800472 
L 115.840619 -87.908506 
L 118.891865 -87.960068 
L 120.237492 -87.962523 
L 120.572333 -88.068512 
L 123.657419 -88.069739 
L 123.673379 -88.12171 
L 123.697232 -88.62628 
L 124.214905 -88.880407 
L 125.311392 -89.139035 
L 127.375952 -89.033865 
L 127.436732 -88.981075 
L 128.567824 -88.465047 
L 128.997356 -88.665156 
L 130.525599 -88.666793 
L 131.505735 -88.668839 
L 132.048718 -89.391524 
L 134.011068 -90.054872 
L 135.805809 -90.662566 
L 138.225369 -90.710854 
L 144.347545 -90.61305 
L 144.701247 -90.817252 
L 147.752493 -90.768554 
L 149.09812 -91.488375 
L 149.432961 -91.595182 
L 152.518047 -91.034139 
L 152.534007 -90.626145 
L 152.55786 -90.679753 
L 153.075533 -90.005766 
L 154.172021 -89.335461 
L 156.23658 -89.290037 
L 156.29736 -88.764597 
L 157.428452 -88.761323 
L 157.857985 -88.196598 
L 159.386227 -88.194143 
L 160.366363 -88.243658 
L 160.909347 -88.398753 
L 162.871696 -87.726812 
L 164.666438 -88.399981 
L 167.085997 -88.339825 
L 173.561875 -87.570489 
L 176.613121 -87.669521 
L 177.958748 -87.720264 
L 178.293589 -87.671567 
L 181.394635 -87.718627 
L 181.418488 -87.98012 
L 183.032649 -88.746591 
L 185.097208 -89.500377 
L 185.157989 -89.446769 
L 186.718613 -88.97862 
L 187.638488 -88.980666 
L 188.246855 -89.083381 
L 189.226991 -88.3165 
L 189.769975 -89.331778 
L 191.732324 -89.277352 
L 193.527066 -89.066603 
L 195.808989 -88.501059 
L 195.946625 -88.296857 
L 196.366475 -87.845895 
L 200.719394 -87.844258 
L 202.422503 -88.048051 
L 205.47375 -88.746591 
L 211.893277 -89.466003 
L 213.957836 -89.668976 
L 214.018617 -90.323731 
L 215.579241 -90.22429 
L 216.499116 -90.221835 
L 217.107483 -90.222244 
L 218.087619 -90.175593 
L 218.630603 -90.840168 
L 220.592952 -90.835257 
L 221.249691 -90.989534 
L 221.584532 -90.840987 
L 222.387694 -90.88641 
L 224.669617 -90.888047 
L 224.685577 -90.782059 
L 224.70943 -90.784514 
L 224.807254 -90.779603 
L 225.227104 -91.445407 
L 229.580022 -91.445407 
L 231.283131 -90.67648 
L 240.753905 -90.228382 
L 242.818465 -90.688756 
L 244.439869 -90.583586 
L 245.359744 -90.737044 
L 245.968111 -90.886001 
L 246.948247 -91.357424 
L 247.491231 -91.361925 
L 248.764692 -91.35947 
L 249.453581 -91.359879 
L 250.110319 -90.59218 
L 250.44516 -89.878498 
L 251.248322 -89.112026 
L 253.530245 -88.965116 
L 253.546205 -89.06251 
L 253.570059 -88.856263 
L 253.667882 -88.750274 
L 254.087732 -88.031682 
L 257.309559 -88.12744 
L 258.44065 -88.175728 
L 260.143759 -88.175318 
L 269.614533 -88.176546 
L 271.679093 -88.176546 
L 273.300497 -88.126212 
L 274.220372 -87.661336 
L 274.82874 -87.563942 
L 276.351859 -88.173682 
L 277.62532 -88.835393 
L 278.314209 -89.794607 
L 278.970947 -90.50297 
L 279.305788 -90.504607 
L 280.10895 -90.50297 
L 282.390874 -89.684936 
L 282.406834 -89.183231 
L 282.430687 -89.899777 
L 282.52851 -89.801564 
L 282.94836 -89.646879 
L 286.170187 -89.595726 
L 287.301279 -89.392343 
L 290.23919 -89.395617 
L 298.475161 -88.472413 
L 300.539721 -87.720264 
L 302.161125 -88.333278 
L 303.081 -89.042868 
L 303.434702 -89.405847 
L 305.212487 -89.047369 
L 306.485948 -90.784923 
L 307.174837 -89.768827 
L 307.831575 -89.869904 
L 308.166416 -90.485782 
L 308.969578 -90.658065 
L 311.251502 -90.861448 
L 311.267462 -90.704307 
L 311.291315 -90.652745 
L 311.389138 -90.34501 
L 311.808988 -89.54089 
L 315.030815 -88.874678 
L 316.161907 -88.825162 
L 318.119682 -88.267802 
L 319.099818 -88.112708 
L 331.941628 -88.168771 
L 332.29533 -87.862264 
L 335.346576 -87.962523 
L 336.035465 -87.194006 
L 336.692203 -87.237792 
L 337.027044 -87.339279 
L 337.830207 -90.243523 
L 340.11213 -90.241477 
L 340.12809 -90.599137 
L 340.151943 -90.754232 
L 340.249766 -90.547575 
L 340.669616 -90.498468 
L 341.766104 -90.542255 
L 343.830663 -91.309545 
L 343.891444 -91.87959 
L 345.022535 -92.580587 
L 345.452068 -92.742229 
L 346.98031 -92.894869 
L 347.960446 -93.518113 
L 348.50343 -93.466551 
L 360.802257 -94.17655 
L 361.155958 -94.57104 
L 364.207205 -94.566947 
L 365.552831 -95.291269 
L 365.887672 -95.535984 
L 368.972758 -96.14777 
L 368.988718 -97.077111 
L 369.012571 -97.174915 
L 369.110394 -97.174506 
L 369.530244 -97.074656 
L 370.626732 -97.129082 
L 372.691291 -97.022685 
L 372.752072 -96.820529 
L 373.883163 -96.869227 
L 374.312696 -96.86759 
L 375.840938 -96.868408 
L 376.821074 -96.71495 
L 377.364058 -96.613873 
L 379.326407 -97.275993 
L 381.121149 -97.174915 
L 389.662885 -96.665435 
L 390.016586 -96.103983 
L 393.067833 -94.940157 
L 394.41346 -94.0767 
L 394.748301 -93.920378 
L 397.833386 -93.972758 
L 397.849346 -93.874135 
L 397.8732 -93.771012 
L 397.971023 -93.258667 
L 398.390873 -93.106027 
L 399.48736 -93.209969 
L 401.551919 -93.25662 
L 401.6127 -93.411306 
L 402.743791 -92.785607 
L 403.173324 -93.142857 
L 404.701566 -93.138765 
L 405.681702 -92.472143 
L 406.224686 -92.58427 
L 408.187036 -92.064149 
L 409.981777 -92.320322 
L 418.523513 -90.53448 
L 418.877214 -91.055009 
L 421.928461 -90.955159 
L 423.274088 -90.341736 
L 423.608929 -89.9718 
L 426.694014 -90.635557 
L 426.709974 -91.454819 
L 426.733828 -92.120213 
L 427.251501 -91.967573 
L 428.347988 -92.837987 
L 430.412548 -92.884638 
L 430.473328 -92.734045 
L 431.604419 -92.630512 
L 432.033952 -92.837987 
L 433.562195 -92.784788 
L 434.54233 -92.993082 
L 435.085314 -93.295087 
L 437.047664 -93.756689 
L 438.842405 -95.036733 
L 441.261965 -94.781379 
L 447.384141 -91.976167 
L 447.737842 -91.931562 
L 450.789089 -92.496287 
L 452.134716 -92.497106 
L 452.469557 -93.617554 
L 455.554643 -93.622055 
L 455.570603 -93.011088 
L 455.594456 -92.293313 
L 456.112129 -91.830075 
L 457.208616 -91.026773 
L 459.273176 -90.971119 
L 459.333956 -90.668295 
L 460.465048 -89.996763 
L 460.89458 -90.052826 
L 462.422823 -91.93238 
L 463.402959 -91.537891 
L 463.945942 -91.544029 
L 465.908292 -90.772647 
L 467.703033 -91.235476 
L 470.122593 -91.493695 
L 476.598471 -91.281718 
L 479.649717 -91.234658 
L 480.995344 -95.284312 
L 481.330185 -95.436134 
L 484.431231 -95.386618 
L 484.455084 -97.591503 
L 486.069245 -97.541578 
L 488.133804 -98.31828 
L 488.194584 -98.679622 
L 489.755209 -98.677576 
L 490.675083 -100.590277 
L 491.283451 -101.824489 
L 492.263587 -100.957348 
L 492.806571 -101.162368 
L 494.76892 -103.162643 
L 496.563662 -103.731051 
L 498.845585 -104.038786 
L 498.983221 -104.143955 
L 499.403071 -106.14382 
L 503.75599 -108.124043 
L 505.459099 -108.845091 
L 508.510345 -110.96363 
L 514.929873 -110.913296 
L 516.994432 -111.689589 
L 517.055213 -111.638845 
L 518.615837 -113.675949 
L 519.535712 -115.077123 
L 520.144079 -116.857236 
L 521.124215 -117.539408 
L 521.667199 -119.033476 
L 523.629548 -119.759025 
L 524.286286 -118.786306 
L 524.621127 -119.452518 
L 524.621127 -189.234177 
L 524.621127 -189.234177 
L 524.286286 -187.511764 
L 523.629548 -187.614888 
L 521.667199 -186.279599 
L 521.124215 -183.327885 
L 520.144079 -182.535632 
L 519.535712 -179.991912 
L 518.615837 -179.003642 
L 517.055213 -176.762746 
L 516.994432 -175.012097 
L 514.929873 -173.839269 
L 508.510345 -172.407403 
L 505.459099 -170.284362 
L 503.75599 -169.40249 
L 499.403071 -165.762466 
L 498.983221 -163.859996 
L 498.845585 -161.406714 
L 496.563662 -159.881136 
L 494.76892 -159.002947 
L 492.806571 -157.257618 
L 492.263587 -156.483371 
L 491.283451 -155.198416 
L 490.675083 -153.238655 
L 489.755209 -150.250929 
L 488.194584 -150.158036 
L 488.133804 -147.826293 
L 486.069245 -147.405204 
L 484.455084 -147.347913 
L 484.431231 -145.093512 
L 481.330185 -144.418706 
L 480.995344 -144.320493 
L 479.649717 -140.527011 
L 476.598471 -140.416521 
L 470.122593 -140.785639 
L 467.703033 -140.372325 
L 465.908292 -140.061726 
L 463.945942 -140.531921 
L 463.402959 -141.498093 
L 462.422823 -141.891355 
L 460.89458 -140.065409 
L 460.465048 -139.087779 
L 459.333956 -139.658234 
L 459.273176 -139.948372 
L 457.208616 -140.468083 
L 456.112129 -141.943326 
L 455.594456 -141.741989 
L 455.570603 -144.274251 
L 455.554643 -144.878671 
L 452.469557 -144.924094 
L 452.134716 -144.361006 
L 450.789089 -145.976203 
L 447.737842 -144.704752 
L 447.384141 -144.336043 
L 441.261965 -151.420893 
L 438.842405 -150.950698 
L 437.047664 -149.559345 
L 435.085314 -149.170994 
L 434.54233 -150.385154 
L 433.562195 -150.023402 
L 432.033952 -151.562893 
L 431.604419 -151.54366 
L 430.473328 -151.866126 
L 430.412548 -152.641191 
L 428.347988 -155.41694 
L 427.251501 -154.757275 
L 426.733828 -154.654561 
L 426.709974 -154.92301 
L 426.694014 -153.696164 
L 423.608929 -152.669428 
L 423.274088 -154.108659 
L 421.928461 -156.42608 
L 418.877214 -157.66643 
L 418.523513 -159.250117 
L 409.981777 -161.714039 
L 408.187036 -163.212198 
L 406.224686 -165.595504 
L 405.681702 -165.590593 
L 404.701566 -167.555674 
L 403.173324 -169.604646 
L 402.743791 -170.031054 
L 401.6127 -172.522803 
L 401.551919 -173.874462 
L 399.48736 -175.010051 
L 398.390873 -176.714049 
L 397.971023 -178.428686 
L 397.8732 -180.445329 
L 397.849346 -180.756338 
L 397.833386 -181.242902 
L 394.748301 -182.475067 
L 394.41346 -183.874195 
L 393.067833 -186.843915 
L 390.016586 -189.287376 
L 389.662885 -192.074583 
L 381.121149 -194.6093 
L 379.326407 -197.35313 
L 377.364058 -201.173211 
L 376.821074 -204.975287 
L 375.840938 -205.196267 
L 374.312696 -208.622268 
L 373.883163 -209.820059 
L 372.752072 -209.673967 
L 372.691291 -209.981702 
L 370.626732 -213.836976 
L 369.530244 -213.784596 
L 369.110394 -216.923324 
L 369.012571 -220.126709 
L 368.988718 -220.916097 
L 368.972758 -219.986346 
L 365.887672 -220.876403 
L 365.552831 -220.900956 
L 364.207205 -220.431988 
L 361.155958 -219.715851 
L 360.802257 -219.901228 
L 348.50343 -220.024404 
L 347.960446 -220.377152 
L 346.98031 -220.367331 
L 345.452068 -219.560756 
L 345.022535 -218.935056 
L 343.891444 -217.560072 
L 343.830663 -217.035451 
L 341.766104 -214.111155 
L 340.669616 -213.205138 
L 340.249766 -213.103652 
L 340.151943 -212.700978 
L 340.12809 -210.985112 
L 340.11213 -210.574254 
L 337.830207 -210.834519 
L 337.027044 -203.753352 
L 336.692203 -203.605623 
L 336.035465 -203.77013 
L 335.346576 -204.482585 
L 332.29533 -202.055083 
L 331.941628 -202.566201 
L 319.099818 -200.417379 
L 318.119682 -200.482855 
L 316.161907 -200.057264 
L 315.030815 -199.179894 
L 311.808988 -196.751165 
L 311.389138 -196.573972 
L 311.291315 -197.085499 
L 311.267462 -196.092318 
L 311.251502 -196.501131 
L 308.969578 -196.659499 
L 308.166416 -195.368815 
L 307.831575 -193.956183 
L 307.174837 -193.732339 
L 306.485948 -192.849239 
L 305.212487 -190.382043 
L 303.434702 -188.778714 
L 303.081 -186.803811 
L 302.161125 -186.034884 
L 300.539721 -184.075942 
L 298.475161 -182.884289 
L 290.23919 -182.975136 
L 287.301279 -181.103767 
L 286.170187 -179.902293 
L 282.94836 -178.975815 
L 282.52851 -177.321333 
L 282.430687 -175.804759 
L 282.406834 -174.194473 
L 282.390874 -174.691267 
L 280.10895 -174.457602 
L 279.305788 -172.963944 
L 278.970947 -171.469058 
L 278.314209 -168.711315 
L 277.62532 -166.371387 
L 276.351859 -163.181507 
L 274.82874 -161.111665 
L 274.220372 -158.565489 
L 273.300497 -154.599316 
L 271.679093 -150.953153 
L 269.614533 -150.850439 
L 260.143759 -148.131162 
L 258.44065 -146.632185 
L 257.309559 -146.531107 
L 254.087732 -146.381332 
L 253.667882 -143.398108 
L 253.570059 -143.858073 
L 253.546205 -141.022987 
L 253.530245 -137.722207 
L 251.248322 -137.844564 
L 250.44516 -139.27643 
L 250.110319 -138.589347 
L 249.453581 -139.449531 
L 248.764692 -139.448712 
L 247.491231 -139.254332 
L 246.948247 -138.879895 
L 245.968111 -137.571205 
L 245.359744 -137.425931 
L 244.439869 -136.862433 
L 242.818465 -137.639954 
L 240.753905 -137.684559 
L 231.283131 -138.08355 
L 229.580022 -139.317761 
L 225.227104 -139.10292 
L 224.807254 -138.696563 
L 224.70943 -138.860661 
L 224.685577 -138.910177 
L 224.669617 -139.121335 
L 222.387694 -139.177808 
L 221.584532 -139.132384 
L 221.249691 -139.435617 
L 220.592952 -139.382418 
L 218.630603 -139.488816 
L 218.087619 -138.96624 
L 217.107483 -138.915906 
L 216.499116 -139.071001 
L 215.579241 -139.278476 
L 214.018617 -139.122154 
L 213.957836 -138.362229 
L 211.893277 -138.509958 
L 205.47375 -137.59985 
L 202.422503 -137.813464 
L 200.719394 -137.560974 
L 196.366475 -137.668599 
L 195.946625 -138.071273 
L 195.808989 -137.614991 
L 193.527066 -138.279976 
L 191.732324 -137.479948 
L 189.769975 -136.458122 
L 189.226991 -135.491951 
L 188.246855 -136.929955 
L 187.638488 -136.826831 
L 186.718613 -136.830923 
L 185.157989 -137.303165 
L 185.097208 -137.508184 
L 183.032649 -139.467536 
L 181.418488 -139.46058 
L 181.394635 -139.407381 
L 178.293589 -139.309168 
L 177.958748 -139.152845 
L 176.613121 -138.895445 
L 173.561875 -139.661917 
L 167.085997 -139.668055 
L 164.666438 -139.527692 
L 162.871696 -139.673375 
L 160.909347 -140.298256 
L 160.366363 -140.139887 
L 159.386227 -141.075367 
L 157.857985 -140.309714 
L 157.428452 -140.823287 
L 156.29736 -139.957784 
L 156.23658 -140.90063 
L 154.172021 -140.893264 
L 153.075533 -142.339043 
L 152.55786 -142.383648 
L 152.534007 -141.66792 
L 152.518047 -143.036356 
L 149.432961 -143.699295 
L 149.09812 -143.589214 
L 147.752493 -142.819878 
L 144.701247 -142.30917 
L 144.347545 -141.902813 
L 138.225369 -141.849205 
L 135.805809 -141.14248 
L 134.011068 -139.817012 
L 132.048718 -139.826424 
L 131.505735 -138.438345 
L 130.525599 -138.533284 
L 128.997356 -139.29198 
L 128.567824 -138.833653 
L 127.436732 -139.253104 
L 127.375952 -139.208499 
L 125.311392 -139.781409 
L 124.214905 -139.662326 
L 123.697232 -138.905675 
L 123.673379 -138.555791 
L 123.657419 -137.988201 
L 120.572333 -137.737348 
L 120.237492 -137.525372 
L 118.891865 -137.507366 
L 115.840619 -137.403833 
L 115.486917 -137.143568 
L 106.945181 -137.287205 
L 103.18809 -136.972514 
L 102.645106 -137.177534 
L 101.664971 -137.592075 
L 100.136728 -137.740622 
L 99.707195 -136.977834 
L 98.576104 -137.492225 
L 98.515324 -136.873482 
L 96.450764 -137.799959 
L 95.354277 -137.596167 
L 94.934427 -138.201815 
L 94.836604 -138.815238 
L 94.81275 -137.788092 
L 94.79679 -137.646501 
L 91.711705 -137.99925 
L 91.376864 -137.895308 
L 90.720126 -137.849884 
L 90.031237 -138.71416 
L 86.97999 -137.802824 
L 86.626289 -137.389101 
L 78.084553 -137.233597 
L 74.327462 -137.078093 
L 73.784478 -136.258013 
z
" style="stroke: #b85741; stroke-opacity: 0.7; stroke-width: 1.5"/>
    </defs>
    <g clip-path="url(#p5e12113ac2)">
     <use xlink:href="#m1ed4115572" x="0" y="287.233281" style="fill: #b85741; fill-opacity: 0.7; stroke: #b85741; stroke-opacity: 0.7; stroke-width: 1.5"/>
    </g>
   </g>
   <g id="matplotlib.axis_1">
    <g id="xtick_1">
     <g id="line2d_1">
      <defs>
       <path id="m91795b34b3" d="M 0 0 
L 0 3.5 
" style="stroke: #000000; stroke-width: 0.8"/>
      </defs>
      <g>
       <use xlink:href="#m91795b34b3" x="109.292777" y="244.837969" style="stroke: #000000; stroke-width: 0.8"/>
      </g>
     </g>
     <g id="text_1">
      <!-- −5 -->
      <g transform="translate(100.447464 260.956094) scale(0.12 -0.12)">
       <defs>
        <path id="DejaVuSans-2212" d="M 678 2272 
L 4684 2272 
L 4684 1741 
L 678 1741 
L 678 2272 
z
" transform="scale(0.015625)"/>
        <path id="DejaVuSans-35" d="M 691 4666 
L 3169 4666 
L 3169 4134 
L 1269 4134 
L 1269 2991 
Q 1406 3038 1543 3061 
Q 1681 3084 1819 3084 
Q 2600 3084 3056 2656 
Q 3513 2228 3513 1497 
Q 3513 744 3044 326 
Q 2575 -91 1722 -91 
Q 1428 -91 1123 -41 
Q 819 9 494 109 
L 494 744 
Q 775 591 1075 516 
Q 1375 441 1709 441 
Q 2250 441 2565 725 
Q 2881 1009 2881 1497 
Q 2881 1984 2565 2268 
Q 2250 2553 1709 2553 
Q 1456 2553 1204 2497 
Q 953 2441 691 2322 
L 691 4666 
z
" transform="scale(0.015625)"/>
       </defs>
       <use xlink:href="#DejaVuSans-2212"/>
       <use xlink:href="#DejaVuSans-35" x="83.789062"/>
      </g>
     </g>
    </g>
    <g id="xtick_2">
     <g id="line2d_2">
      <g>
       <use xlink:href="#m91795b34b3" x="181.444347" y="244.837969" style="stroke: #000000; stroke-width: 0.8"/>
      </g>
     </g>
     <g id="text_2">
      <!-- 0 -->
      <g transform="translate(177.626847 260.956094) scale(0.12 -0.12)">
       <defs>
        <path id="DejaVuSans-30" d="M 2034 4250 
Q 1547 4250 1301 3770 
Q 1056 3291 1056 2328 
Q 1056 1369 1301 889 
Q 1547 409 2034 409 
Q 2525 409 2770 889 
Q 3016 1369 3016 2328 
Q 3016 3291 2770 3770 
Q 2525 4250 2034 4250 
z
M 2034 4750 
Q 2819 4750 3233 4129 
Q 3647 3509 3647 2328 
Q 3647 1150 3233 529 
Q 2819 -91 2034 -91 
Q 1250 -91 836 529 
Q 422 1150 422 2328 
Q 422 3509 836 4129 
Q 1250 4750 2034 4750 
z
" transform="scale(0.015625)"/>
       </defs>
       <use xlink:href="#DejaVuSans-30"/>
      </g>
     </g>
    </g>
    <g id="xtick_3">
     <g id="line2d_3">
      <g>
       <use xlink:href="#m91795b34b3" x="253.595918" y="244.837969" style="stroke: #000000; stroke-width: 0.8"/>
      </g>
     </g>
     <g id="text_3">
      <!-- 5 -->
      <g transform="translate(249.778418 260.956094) scale(0.12 -0.12)">
       <use xlink:href="#DejaVuSans-35"/>
      </g>
     </g>
    </g>
    <g id="xtick_4">
     <g id="line2d_4">
      <g>
       <use xlink:href="#m91795b34b3" x="325.747488" y="244.837969" style="stroke: #000000; stroke-width: 0.8"/>
      </g>
     </g>
     <g id="text_4">
      <!-- 10 -->
      <g transform="translate(318.112488 260.956094) scale(0.12 -0.12)">
       <defs>
        <path id="DejaVuSans-31" d="M 794 531 
L 1825 531 
L 1825 4091 
L 703 3866 
L 703 4441 
L 1819 4666 
L 2450 4666 
L 2450 531 
L 3481 531 
L 3481 0 
L 794 0 
L 794 531 
z
" transform="scale(0.015625)"/>
       </defs>
       <use xlink:href="#DejaVuSans-31"/>
       <use xlink:href="#DejaVuSans-30" x="63.623047"/>
      </g>
     </g>
    </g>
    <g id="xtick_5">
     <g id="line2d_5">
      <g>
       <use xlink:href="#m91795b34b3" x="397.899059" y="244.837969" style="stroke: #000000; stroke-width: 0.8"/>
      </g>
     </g>
     <g id="text_5">
      <!-- 15 -->
      <g transform="translate(390.264059 260.956094) scale(0.12 -0.12)">
       <use xlink:href="#DejaVuSans-31"/>
       <use xlink:href="#DejaVuSans-35" x="63.623047"/>
      </g>
     </g>
    </g>
    <g id="xtick_6">
     <g id="line2d_6">
      <g>
       <use xlink:href="#m91795b34b3" x="470.050629" y="244.837969" style="stroke: #000000; stroke-width: 0.8"/>
      </g>
     </g>
     <g id="text_6">
      <!-- 20 -->
      <g transform="translate(462.415629 260.956094) scale(0.12 -0.12)">
       <defs>
        <path id="DejaVuSans-32" d="M 1228 531 
L 3431 531 
L 3431 0 
L 469 0 
L 469 531 
Q 828 903 1448 1529 
Q 2069 2156 2228 2338 
Q 2531 2678 2651 2914 
Q 2772 3150 2772 3378 
Q 2772 3750 2511 3984 
Q 2250 4219 1831 4219 
Q 1534 4219 1204 4116 
Q 875 4013 500 3803 
L 500 4441 
Q 881 4594 1212 4672 
Q 1544 4750 1819 4750 
Q 2544 4750 2975 4387 
Q 3406 4025 3406 3419 
Q 3406 3131 3298 2873 
Q 3191 2616 2906 2266 
Q 2828 2175 2409 1742 
Q 1991 1309 1228 531 
z
" transform="scale(0.015625)"/>
       </defs>
       <use xlink:href="#DejaVuSans-32"/>
       <use xlink:href="#DejaVuSans-30" x="63.623047"/>
      </g>
     </g>
    </g>
    <g id="xtick_7">
     <g id="line2d_7">
      <g>
       <use xlink:href="#m91795b34b3" x="542.2022" y="244.837969" style="stroke: #000000; stroke-width: 0.8"/>
      </g>
     </g>
     <g id="text_7">
      <!-- 25 -->
      <g transform="translate(534.5672 260.956094) scale(0.12 -0.12)">
       <use xlink:href="#DejaVuSans-32"/>
       <use xlink:href="#DejaVuSans-35" x="63.623047"/>
      </g>
     </g>
    </g>
    <g id="text_8">
     <!-- Time (s) -->
     <g transform="translate(270.723984 277.329687) scale(0.13 -0.13)">
      <defs>
       <path id="DejaVuSans-54" d="M -19 4666 
L 3928 4666 
L 3928 4134 
L 2272 4134 
L 2272 0 
L 1638 0 
L 1638 4134 
L -19 4134 
L -19 4666 
z
" transform="scale(0.015625)"/>
       <path id="DejaVuSans-69" d="M 603 3500 
L 1178 3500 
L 1178 0 
L 603 0 
L 603 3500 
z
M 603 4863 
L 1178 4863 
L 1178 4134 
L 603 4134 
L 603 4863 
z
" transform="scale(0.015625)"/>
       <path id="DejaVuSans-6d" d="M 3328 2828 
Q 3544 3216 3844 3400 
Q 4144 3584 4550 3584 
Q 5097 3584 5394 3201 
Q 5691 2819 5691 2113 
L 5691 0 
L 5113 0 
L 5113 2094 
Q 5113 2597 4934 2840 
Q 4756 3084 4391 3084 
Q 3944 3084 3684 2787 
Q 3425 2491 3425 1978 
L 3425 0 
L 2847 0 
L 2847 2094 
Q 2847 2600 2669 2842 
Q 2491 3084 2119 3084 
Q 1678 3084 1418 2786 
Q 1159 2488 1159 1978 
L 1159 0 
L 581 0 
L 581 3500 
L 1159 3500 
L 1159 2956 
Q 1356 3278 1631 3431 
Q 1906 3584 2284 3584 
Q 2666 3584 2933 3390 
Q 3200 3197 3328 2828 
z
" transform="scale(0.015625)"/>
       <path id="DejaVuSans-65" d="M 3597 1894 
L 3597 1613 
L 953 1613 
Q 991 1019 1311 708 
Q 1631 397 2203 397 
Q 2534 397 2845 478 
Q 3156 559 3463 722 
L 3463 178 
Q 3153 47 2828 -22 
Q 2503 -91 2169 -91 
Q 1331 -91 842 396 
Q 353 884 353 1716 
Q 353 2575 817 3079 
Q 1281 3584 2069 3584 
Q 2775 3584 3186 3129 
Q 3597 2675 3597 1894 
z
M 3022 2063 
Q 3016 2534 2758 2815 
Q 2500 3097 2075 3097 
Q 1594 3097 1305 2825 
Q 1016 2553 972 2059 
L 3022 2063 
z
" transform="scale(0.015625)"/>
       <path id="DejaVuSans-20" transform="scale(0.015625)"/>
       <path id="DejaVuSans-28" d="M 1984 4856 
Q 1566 4138 1362 3434 
Q 1159 2731 1159 2009 
Q 1159 1288 1364 580 
Q 1569 -128 1984 -844 
L 1484 -844 
Q 1016 -109 783 600 
Q 550 1309 550 2009 
Q 550 2706 781 3412 
Q 1013 4119 1484 4856 
L 1984 4856 
z
" transform="scale(0.015625)"/>
       <path id="DejaVuSans-73" d="M 2834 3397 
L 2834 2853 
Q 2591 2978 2328 3040 
Q 2066 3103 1784 3103 
Q 1356 3103 1142 2972 
Q 928 2841 928 2578 
Q 928 2378 1081 2264 
Q 1234 2150 1697 2047 
L 1894 2003 
Q 2506 1872 2764 1633 
Q 3022 1394 3022 966 
Q 3022 478 2636 193 
Q 2250 -91 1575 -91 
Q 1294 -91 989 -36 
Q 684 19 347 128 
L 347 722 
Q 666 556 975 473 
Q 1284 391 1588 391 
Q 1994 391 2212 530 
Q 2431 669 2431 922 
Q 2431 1156 2273 1281 
Q 2116 1406 1581 1522 
L 1381 1569 
Q 847 1681 609 1914 
Q 372 2147 372 2553 
Q 372 3047 722 3315 
Q 1072 3584 1716 3584 
Q 2034 3584 2315 3537 
Q 2597 3491 2834 3397 
z
" transform="scale(0.015625)"/>
       <path id="DejaVuSans-29" d="M 513 4856 
L 1013 4856 
Q 1481 4119 1714 3412 
Q 1947 2706 1947 2009 
Q 1947 1309 1714 600 
Q 1481 -109 1013 -844 
L 513 -844 
Q 928 -128 1133 580 
Q 1338 1288 1338 2009 
Q 1338 2731 1133 3434 
Q 928 4138 513 4856 
z
" transform="scale(0.015625)"/>
      </defs>
      <use xlink:href="#DejaVuSans-54"/>
      <use xlink:href="#DejaVuSans-69" x="57.958984"/>
      <use xlink:href="#DejaVuSans-6d" x="85.742188"/>
      <use xlink:href="#DejaVuSans-65" x="183.154297"/>
      <use xlink:href="#DejaVuSans-20" x="244.677734"/>
      <use xlink:href="#DejaVuSans-28" x="276.464844"/>
      <use xlink:href="#DejaVuSans-73" x="315.478516"/>
      <use xlink:href="#DejaVuSans-29" x="367.578125"/>
     </g>
    </g>
   </g>
   <g id="matplotlib.axis_2">
    <g id="ytick_1">
     <g id="line2d_8">
      <defs>
       <path id="m6aeff2a5ef" d="M 0 0 
L -3.5 0 
" style="stroke: #000000; stroke-width: 0.8"/>
      </defs>
      <g>
       <use xlink:href="#m6aeff2a5ef" x="46.051562" y="244.837969" style="stroke: #000000; stroke-width: 0.8"/>
      </g>
     </g>
     <g id="text_9">
      <!-- 0 -->
      <g transform="translate(31.416562 249.397031) scale(0.12 -0.12)">
       <use xlink:href="#DejaVuSans-30"/>
      </g>
     </g>
    </g>
    <g id="ytick_2">
     <g id="line2d_9">
      <g>
       <use xlink:href="#m6aeff2a5ef" x="46.051562" y="214.555586" style="stroke: #000000; stroke-width: 0.8"/>
      </g>
     </g>
     <g id="text_10">
      <!-- 2 -->
      <g transform="translate(31.416562 219.114649) scale(0.12 -0.12)">
       <use xlink:href="#DejaVuSans-32"/>
      </g>
     </g>
    </g>
    <g id="ytick_3">
     <g id="line2d_10">
      <g>
       <use xlink:href="#m6aeff2a5ef" x="46.051562" y="184.273203" style="stroke: #000000; stroke-width: 0.8"/>
      </g>
     </g>
     <g id="text_11">
      <!-- 4 -->
      <g transform="translate(31.416562 188.832266) scale(0.12 -0.12)">
       <defs>
        <path id="DejaVuSans-34" d="M 2419 4116 
L 825 1625 
L 2419 1625 
L 2419 4116 
z
M 2253 4666 
L 3047 4666 
L 3047 1625 
L 3713 1625 
L 3713 1100 
L 3047 1100 
L 3047 0 
L 2419 0 
L 2419 1100 
L 313 1100 
L 313 1709 
L 2253 4666 
z
" transform="scale(0.015625)"/>
       </defs>
       <use xlink:href="#DejaVuSans-34"/>
      </g>
     </g>
    </g>
    <g id="ytick_4">
     <g id="line2d_11">
      <g>
       <use xlink:href="#m6aeff2a5ef" x="46.051562" y="153.990821" style="stroke: #000000; stroke-width: 0.8"/>
      </g>
     </g>
     <g id="text_12">
      <!-- 6 -->
      <g transform="translate(31.416562 158.549883) scale(0.12 -0.12)">
       <defs>
        <path id="DejaVuSans-36" d="M 2113 2584 
Q 1688 2584 1439 2293 
Q 1191 2003 1191 1497 
Q 1191 994 1439 701 
Q 1688 409 2113 409 
Q 2538 409 2786 701 
Q 3034 994 3034 1497 
Q 3034 2003 2786 2293 
Q 2538 2584 2113 2584 
z
M 3366 4563 
L 3366 3988 
Q 3128 4100 2886 4159 
Q 2644 4219 2406 4219 
Q 1781 4219 1451 3797 
Q 1122 3375 1075 2522 
Q 1259 2794 1537 2939 
Q 1816 3084 2150 3084 
Q 2853 3084 3261 2657 
Q 3669 2231 3669 1497 
Q 3669 778 3244 343 
Q 2819 -91 2113 -91 
Q 1303 -91 875 529 
Q 447 1150 447 2328 
Q 447 3434 972 4092 
Q 1497 4750 2381 4750 
Q 2619 4750 2861 4703 
Q 3103 4656 3366 4563 
z
" transform="scale(0.015625)"/>
       </defs>
       <use xlink:href="#DejaVuSans-36"/>
      </g>
     </g>
    </g>
    <g id="ytick_5">
     <g id="line2d_12">
      <g>
       <use xlink:href="#m6aeff2a5ef" x="46.051562" y="123.708438" style="stroke: #000000; stroke-width: 0.8"/>
      </g>
     </g>
     <g id="text_13">
      <!-- 8 -->
      <g transform="translate(31.416562 128.2675) scale(0.12 -0.12)">
       <defs>
        <path id="DejaVuSans-38" d="M 2034 2216 
Q 1584 2216 1326 1975 
Q 1069 1734 1069 1313 
Q 1069 891 1326 650 
Q 1584 409 2034 409 
Q 2484 409 2743 651 
Q 3003 894 3003 1313 
Q 3003 1734 2745 1975 
Q 2488 2216 2034 2216 
z
M 1403 2484 
Q 997 2584 770 2862 
Q 544 3141 544 3541 
Q 544 4100 942 4425 
Q 1341 4750 2034 4750 
Q 2731 4750 3128 4425 
Q 3525 4100 3525 3541 
Q 3525 3141 3298 2862 
Q 3072 2584 2669 2484 
Q 3125 2378 3379 2068 
Q 3634 1759 3634 1313 
Q 3634 634 3220 271 
Q 2806 -91 2034 -91 
Q 1263 -91 848 271 
Q 434 634 434 1313 
Q 434 1759 690 2068 
Q 947 2378 1403 2484 
z
M 1172 3481 
Q 1172 3119 1398 2916 
Q 1625 2713 2034 2713 
Q 2441 2713 2670 2916 
Q 2900 3119 2900 3481 
Q 2900 3844 2670 4047 
Q 2441 4250 2034 4250 
Q 1625 4250 1398 4047 
Q 1172 3844 1172 3481 
z
" transform="scale(0.015625)"/>
       </defs>
       <use xlink:href="#DejaVuSans-38"/>
      </g>
     </g>
    </g>
    <g id="ytick_6">
     <g id="line2d_13">
      <g>
       <use xlink:href="#m6aeff2a5ef" x="46.051562" y="93.426055" style="stroke: #000000; stroke-width: 0.8"/>
      </g>
     </g>
     <g id="text_14">
      <!-- 10 -->
      <g transform="translate(23.781562 97.985118) scale(0.12 -0.12)">
       <use xlink:href="#DejaVuSans-31"/>
       <use xlink:href="#DejaVuSans-30" x="63.623047"/>
      </g>
     </g>
    </g>
    <g id="ytick_7">
     <g id="line2d_14">
      <g>
       <use xlink:href="#m6aeff2a5ef" x="46.051562" y="63.143672" style="stroke: #000000; stroke-width: 0.8"/>
      </g>
     </g>
     <g id="text_15">
      <!-- 12 -->
      <g transform="translate(23.781562 67.702735) scale(0.12 -0.12)">
       <use xlink:href="#DejaVuSans-31"/>
       <use xlink:href="#DejaVuSans-32" x="63.623047"/>
      </g>
     </g>
    </g>
    <g id="ytick_8">
     <g id="line2d_15">
      <g>
       <use xlink:href="#m6aeff2a5ef" x="46.051562" y="32.86129" style="stroke: #000000; stroke-width: 0.8"/>
      </g>
     </g>
     <g id="text_16">
      <!-- 14 -->
      <g transform="translate(23.781562 37.420352) scale(0.12 -0.12)">
       <use xlink:href="#DejaVuSans-31"/>
       <use xlink:href="#DejaVuSans-34" x="63.623047"/>
      </g>
     </g>
    </g>
    <g id="text_17">
     <!-- Utilization (%) -->
     <g transform="translate(17.077969 179.839844) rotate(-90) scale(0.13 -0.13)">
      <defs>
       <path id="DejaVuSans-55" d="M 556 4666 
L 1191 4666 
L 1191 1831 
Q 1191 1081 1462 751 
Q 1734 422 2344 422 
Q 2950 422 3222 751 
Q 3494 1081 3494 1831 
L 3494 4666 
L 4128 4666 
L 4128 1753 
Q 4128 841 3676 375 
Q 3225 -91 2344 -91 
Q 1459 -91 1007 375 
Q 556 841 556 1753 
L 556 4666 
z
" transform="scale(0.015625)"/>
       <path id="DejaVuSans-74" d="M 1172 4494 
L 1172 3500 
L 2356 3500 
L 2356 3053 
L 1172 3053 
L 1172 1153 
Q 1172 725 1289 603 
Q 1406 481 1766 481 
L 2356 481 
L 2356 0 
L 1766 0 
Q 1100 0 847 248 
Q 594 497 594 1153 
L 594 3053 
L 172 3053 
L 172 3500 
L 594 3500 
L 594 4494 
L 1172 4494 
z
" transform="scale(0.015625)"/>
       <path id="DejaVuSans-6c" d="M 603 4863 
L 1178 4863 
L 1178 0 
L 603 0 
L 603 4863 
z
" transform="scale(0.015625)"/>
       <path id="DejaVuSans-7a" d="M 353 3500 
L 3084 3500 
L 3084 2975 
L 922 459 
L 3084 459 
L 3084 0 
L 275 0 
L 275 525 
L 2438 3041 
L 353 3041 
L 353 3500 
z
" transform="scale(0.015625)"/>
       <path id="DejaVuSans-61" d="M 2194 1759 
Q 1497 1759 1228 1600 
Q 959 1441 959 1056 
Q 959 750 1161 570 
Q 1363 391 1709 391 
Q 2188 391 2477 730 
Q 2766 1069 2766 1631 
L 2766 1759 
L 2194 1759 
z
M 3341 1997 
L 3341 0 
L 2766 0 
L 2766 531 
Q 2569 213 2275 61 
Q 1981 -91 1556 -91 
Q 1019 -91 701 211 
Q 384 513 384 1019 
Q 384 1609 779 1909 
Q 1175 2209 1959 2209 
L 2766 2209 
L 2766 2266 
Q 2766 2663 2505 2880 
Q 2244 3097 1772 3097 
Q 1472 3097 1187 3025 
Q 903 2953 641 2809 
L 641 3341 
Q 956 3463 1253 3523 
Q 1550 3584 1831 3584 
Q 2591 3584 2966 3190 
Q 3341 2797 3341 1997 
z
" transform="scale(0.015625)"/>
       <path id="DejaVuSans-6f" d="M 1959 3097 
Q 1497 3097 1228 2736 
Q 959 2375 959 1747 
Q 959 1119 1226 758 
Q 1494 397 1959 397 
Q 2419 397 2687 759 
Q 2956 1122 2956 1747 
Q 2956 2369 2687 2733 
Q 2419 3097 1959 3097 
z
M 1959 3584 
Q 2709 3584 3137 3096 
Q 3566 2609 3566 1747 
Q 3566 888 3137 398 
Q 2709 -91 1959 -91 
Q 1206 -91 779 398 
Q 353 888 353 1747 
Q 353 2609 779 3096 
Q 1206 3584 1959 3584 
z
" transform="scale(0.015625)"/>
       <path id="DejaVuSans-6e" d="M 3513 2113 
L 3513 0 
L 2938 0 
L 2938 2094 
Q 2938 2591 2744 2837 
Q 2550 3084 2163 3084 
Q 1697 3084 1428 2787 
Q 1159 2491 1159 1978 
L 1159 0 
L 581 0 
L 581 3500 
L 1159 3500 
L 1159 2956 
Q 1366 3272 1645 3428 
Q 1925 3584 2291 3584 
Q 2894 3584 3203 3211 
Q 3513 2838 3513 2113 
z
" transform="scale(0.015625)"/>
       <path id="DejaVuSans-25" d="M 4653 2053 
Q 4381 2053 4226 1822 
Q 4072 1591 4072 1178 
Q 4072 772 4226 539 
Q 4381 306 4653 306 
Q 4919 306 5073 539 
Q 5228 772 5228 1178 
Q 5228 1588 5073 1820 
Q 4919 2053 4653 2053 
z
M 4653 2450 
Q 5147 2450 5437 2106 
Q 5728 1763 5728 1178 
Q 5728 594 5436 251 
Q 5144 -91 4653 -91 
Q 4153 -91 3862 251 
Q 3572 594 3572 1178 
Q 3572 1766 3864 2108 
Q 4156 2450 4653 2450 
z
M 1428 4353 
Q 1159 4353 1004 4120 
Q 850 3888 850 3481 
Q 850 3069 1003 2837 
Q 1156 2606 1428 2606 
Q 1700 2606 1854 2837 
Q 2009 3069 2009 3481 
Q 2009 3884 1853 4118 
Q 1697 4353 1428 4353 
z
M 4250 4750 
L 4750 4750 
L 1831 -91 
L 1331 -91 
L 4250 4750 
z
M 1428 4750 
Q 1922 4750 2215 4408 
Q 2509 4066 2509 3481 
Q 2509 2891 2217 2550 
Q 1925 2209 1428 2209 
Q 931 2209 642 2551 
Q 353 2894 353 3481 
Q 353 4063 643 4406 
Q 934 4750 1428 4750 
z
" transform="scale(0.015625)"/>
      </defs>
      <use xlink:href="#DejaVuSans-55"/>
      <use xlink:href="#DejaVuSans-74" x="73.193359"/>
      <use xlink:href="#DejaVuSans-69" x="112.402344"/>
      <use xlink:href="#DejaVuSans-6c" x="140.185547"/>
      <use xlink:href="#DejaVuSans-69" x="167.96875"/>
      <use xlink:href="#DejaVuSans-7a" x="195.751953"/>
      <use xlink:href="#DejaVuSans-61" x="248.242188"/>
      <use xlink:href="#DejaVuSans-74" x="309.521484"/>
      <use xlink:href="#DejaVuSans-69" x="348.730469"/>
      <use xlink:href="#DejaVuSans-6f" x="376.513672"/>
      <use xlink:href="#DejaVuSans-6e" x="437.695312"/>
      <use xlink:href="#DejaVuSans-20" x="501.074219"/>
      <use xlink:href="#DejaVuSans-28" x="532.861328"/>
      <use xlink:href="#DejaVuSans-25" x="571.875"/>
      <use xlink:href="#DejaVuSans-29" x="666.894531"/>
     </g>
    </g>
   </g>
   <g id="patch_3">
    <path d="M 46.051562 244.837969 
L 46.051562 23.077969 
" style="fill: none; stroke: #000000; stroke-width: 0.8; stroke-linejoin: miter; stroke-linecap: square"/>
   </g>
   <g id="patch_4">
    <path d="M 548.251563 244.837969 
L 548.251563 23.077969 
" style="fill: none; stroke: #000000; stroke-width: 0.8; stroke-linejoin: miter; stroke-linecap: square"/>
   </g>
   <g id="patch_5">
    <path d="M 46.051562 244.837969 
L 548.251563 244.837969 
" style="fill: none; stroke: #000000; stroke-width: 0.8; stroke-linejoin: miter; stroke-linecap: square"/>
   </g>
   <g id="patch_6">
    <path d="M 46.051562 23.077969 
L 548.251563 23.077969 
" style="fill: none; stroke: #000000; stroke-width: 0.8; stroke-linejoin: miter; stroke-linecap: square"/>
   </g>
   <g id="text_18">
    <!-- Create VM Type 4 -->
    <g transform="translate(240.241016 17.077969) scale(0.13 -0.13)">
     <defs>
      <path id="DejaVuSans-43" d="M 4122 4306 
L 4122 3641 
Q 3803 3938 3442 4084 
Q 3081 4231 2675 4231 
Q 1875 4231 1450 3742 
Q 1025 3253 1025 2328 
Q 1025 1406 1450 917 
Q 1875 428 2675 428 
Q 3081 428 3442 575 
Q 3803 722 4122 1019 
L 4122 359 
Q 3791 134 3420 21 
Q 3050 -91 2638 -91 
Q 1578 -91 968 557 
Q 359 1206 359 2328 
Q 359 3453 968 4101 
Q 1578 4750 2638 4750 
Q 3056 4750 3426 4639 
Q 3797 4528 4122 4306 
z
" transform="scale(0.015625)"/>
      <path id="DejaVuSans-72" d="M 2631 2963 
Q 2534 3019 2420 3045 
Q 2306 3072 2169 3072 
Q 1681 3072 1420 2755 
Q 1159 2438 1159 1844 
L 1159 0 
L 581 0 
L 581 3500 
L 1159 3500 
L 1159 2956 
Q 1341 3275 1631 3429 
Q 1922 3584 2338 3584 
Q 2397 3584 2469 3576 
Q 2541 3569 2628 3553 
L 2631 2963 
z
" transform="scale(0.015625)"/>
      <path id="DejaVuSans-56" d="M 1831 0 
L 50 4666 
L 709 4666 
L 2188 738 
L 3669 4666 
L 4325 4666 
L 2547 0 
L 1831 0 
z
" transform="scale(0.015625)"/>
      <path id="DejaVuSans-4d" d="M 628 4666 
L 1569 4666 
L 2759 1491 
L 3956 4666 
L 4897 4666 
L 4897 0 
L 4281 0 
L 4281 4097 
L 3078 897 
L 2444 897 
L 1241 4097 
L 1241 0 
L 628 0 
L 628 4666 
z
" transform="scale(0.015625)"/>
      <path id="DejaVuSans-79" d="M 2059 -325 
Q 1816 -950 1584 -1140 
Q 1353 -1331 966 -1331 
L 506 -1331 
L 506 -850 
L 844 -850 
Q 1081 -850 1212 -737 
Q 1344 -625 1503 -206 
L 1606 56 
L 191 3500 
L 800 3500 
L 1894 763 
L 2988 3500 
L 3597 3500 
L 2059 -325 
z
" transform="scale(0.015625)"/>
      <path id="DejaVuSans-70" d="M 1159 525 
L 1159 -1331 
L 581 -1331 
L 581 3500 
L 1159 3500 
L 1159 2969 
Q 1341 3281 1617 3432 
Q 1894 3584 2278 3584 
Q 2916 3584 3314 3078 
Q 3713 2572 3713 1747 
Q 3713 922 3314 415 
Q 2916 -91 2278 -91 
Q 1894 -91 1617 61 
Q 1341 213 1159 525 
z
M 3116 1747 
Q 3116 2381 2855 2742 
Q 2594 3103 2138 3103 
Q 1681 3103 1420 2742 
Q 1159 2381 1159 1747 
Q 1159 1113 1420 752 
Q 1681 391 2138 391 
Q 2594 391 2855 752 
Q 3116 1113 3116 1747 
z
" transform="scale(0.015625)"/>
     </defs>
     <use xlink:href="#DejaVuSans-43"/>
     <use xlink:href="#DejaVuSans-72" x="69.824219"/>
     <use xlink:href="#DejaVuSans-65" x="108.6875"/>
     <use xlink:href="#DejaVuSans-61" x="170.210938"/>
     <use xlink:href="#DejaVuSans-74" x="231.490234"/>
     <use xlink:href="#DejaVuSans-65" x="270.699219"/>
     <use xlink:href="#DejaVuSans-20" x="332.222656"/>
     <use xlink:href="#DejaVuSans-56" x="364.009766"/>
     <use xlink:href="#DejaVuSans-4d" x="432.417969"/>
     <use xlink:href="#DejaVuSans-20" x="518.697266"/>
     <use xlink:href="#DejaVuSans-54" x="550.484375"/>
     <use xlink:href="#DejaVuSans-79" x="595.943359"/>
     <use xlink:href="#DejaVuSans-70" x="655.123047"/>
     <use xlink:href="#DejaVuSans-65" x="718.599609"/>
     <use xlink:href="#DejaVuSans-20" x="780.123047"/>
     <use xlink:href="#DejaVuSans-34" x="811.910156"/>
    </g>
   </g>
   <g id="legend_1">
    <g id="patch_7">
     <path d="M 427.126563 67.905469 
L 539.851563 67.905469 
Q 542.251563 67.905469 542.251563 65.505469 
L 542.251563 31.477969 
Q 542.251563 29.077969 539.851563 29.077969 
L 427.126563 29.077969 
Q 424.726563 29.077969 424.726563 31.477969 
L 424.726563 65.505469 
Q 424.726563 67.905469 427.126563 67.905469 
z
" style="fill: #ffffff; opacity: 0.8; stroke: #cccccc; stroke-linejoin: miter"/>
    </g>
    <g id="patch_8">
     <path d="M 429.526563 42.996094 
L 453.526563 42.996094 
L 453.526563 34.596094 
L 429.526563 34.596094 
z
" style="fill: #009384; fill-opacity: 0.7; stroke: #009384; stroke-opacity: 0.7; stroke-width: 1.5; stroke-linejoin: miter"/>
    </g>
    <g id="text_19">
     <!-- KubeVirt -->
     <g transform="translate(463.126563 42.996094) scale(0.12 -0.12)">
      <defs>
       <path id="DejaVuSans-4b" d="M 628 4666 
L 1259 4666 
L 1259 2694 
L 3353 4666 
L 4166 4666 
L 1850 2491 
L 4331 0 
L 3500 0 
L 1259 2247 
L 1259 0 
L 628 0 
L 628 4666 
z
" transform="scale(0.015625)"/>
       <path id="DejaVuSans-75" d="M 544 1381 
L 544 3500 
L 1119 3500 
L 1119 1403 
Q 1119 906 1312 657 
Q 1506 409 1894 409 
Q 2359 409 2629 706 
Q 2900 1003 2900 1516 
L 2900 3500 
L 3475 3500 
L 3475 0 
L 2900 0 
L 2900 538 
Q 2691 219 2414 64 
Q 2138 -91 1772 -91 
Q 1169 -91 856 284 
Q 544 659 544 1381 
z
M 1991 3584 
L 1991 3584 
z
" transform="scale(0.015625)"/>
       <path id="DejaVuSans-62" d="M 3116 1747 
Q 3116 2381 2855 2742 
Q 2594 3103 2138 3103 
Q 1681 3103 1420 2742 
Q 1159 2381 1159 1747 
Q 1159 1113 1420 752 
Q 1681 391 2138 391 
Q 2594 391 2855 752 
Q 3116 1113 3116 1747 
z
M 1159 2969 
Q 1341 3281 1617 3432 
Q 1894 3584 2278 3584 
Q 2916 3584 3314 3078 
Q 3713 2572 3713 1747 
Q 3713 922 3314 415 
Q 2916 -91 2278 -91 
Q 1894 -91 1617 61 
Q 1341 213 1159 525 
L 1159 0 
L 581 0 
L 581 4863 
L 1159 4863 
L 1159 2969 
z
" transform="scale(0.015625)"/>
      </defs>
      <use xlink:href="#DejaVuSans-4b"/>
      <use xlink:href="#DejaVuSans-75" x="60.576172"/>
      <use xlink:href="#DejaVuSans-62" x="123.955078"/>
      <use xlink:href="#DejaVuSans-65" x="187.431641"/>
      <use xlink:href="#DejaVuSans-56" x="248.955078"/>
      <use xlink:href="#DejaVuSans-69" x="315.113281"/>
      <use xlink:href="#DejaVuSans-72" x="342.896484"/>
      <use xlink:href="#DejaVuSans-74" x="384.009766"/>
     </g>
    </g>
    <g id="patch_9">
     <path d="M 429.526563 60.609844 
L 453.526563 60.609844 
L 453.526563 52.209844 
L 429.526563 52.209844 
z
" style="fill: #b85741; fill-opacity: 0.7; stroke: #b85741; stroke-opacity: 0.7; stroke-width: 1.5; stroke-linejoin: miter"/>
    </g>
    <g id="text_20">
     <!-- OpenNebula -->
     <g transform="translate(463.126563 60.609844) scale(0.12 -0.12)">
      <defs>
       <path id="DejaVuSans-4f" d="M 2522 4238 
Q 1834 4238 1429 3725 
Q 1025 3213 1025 2328 
Q 1025 1447 1429 934 
Q 1834 422 2522 422 
Q 3209 422 3611 934 
Q 4013 1447 4013 2328 
Q 4013 3213 3611 3725 
Q 3209 4238 2522 4238 
z
M 2522 4750 
Q 3503 4750 4090 4092 
Q 4678 3434 4678 2328 
Q 4678 1225 4090 567 
Q 3503 -91 2522 -91 
Q 1538 -91 948 565 
Q 359 1222 359 2328 
Q 359 3434 948 4092 
Q 1538 4750 2522 4750 
z
" transform="scale(0.015625)"/>
       <path id="DejaVuSans-4e" d="M 628 4666 
L 1478 4666 
L 3547 763 
L 3547 4666 
L 4159 4666 
L 4159 0 
L 3309 0 
L 1241 3903 
L 1241 0 
L 628 0 
L 628 4666 
z
" transform="scale(0.015625)"/>
      </defs>
      <use xlink:href="#DejaVuSans-4f"/>
      <use xlink:href="#DejaVuSans-70" x="78.710938"/>
      <use xlink:href="#DejaVuSans-65" x="142.1875"/>
      <use xlink:href="#DejaVuSans-6e" x="203.710938"/>
      <use xlink:href="#DejaVuSans-4e" x="267.089844"/>
      <use xlink:href="#DejaVuSans-65" x="341.894531"/>
      <use xlink:href="#DejaVuSans-62" x="403.417969"/>
      <use xlink:href="#DejaVuSans-75" x="466.894531"/>
      <use xlink:href="#DejaVuSans-6c" x="530.273438"/>
      <use xlink:href="#DejaVuSans-61" x="558.056641"/>
     </g>
    </g>
   </g>
  </g>
 </g>
 <defs>
  <clipPath id="p5e12113ac2">
   <rect x="46.051562" y="23.077969" width="502.2" height="221.76"/>
  </clipPath>
 </defs>
</svg>
