<?xml version="1.0" encoding="utf-8" standalone="no"?>
<!DOCTYPE svg PUBLIC "-//W3C//DTD SVG 1.1//EN"
  "http://www.w3.org/Graphics/SVG/1.1/DTD/svg11.dtd">
<svg xmlns:xlink="http://www.w3.org/1999/xlink" width="555.451562pt" height="287.233281pt" viewBox="0 0 555.451562 287.233281" xmlns="http://www.w3.org/2000/svg" version="1.1">
 <metadata>
  <rdf:RDF xmlns:dc="http://purl.org/dc/elements/1.1/" xmlns:cc="http://creativecommons.org/ns#" xmlns:rdf="http://www.w3.org/1999/02/22-rdf-syntax-ns#">
   <cc:Work>
    <dc:type rdf:resource="http://purl.org/dc/dcmitype/StillImage"/>
    <dc:date>2024-05-21T10:08:01.572927</dc:date>
    <dc:format>image/svg+xml</dc:format>
    <dc:creator>
     <cc:Agent>
      <dc:title>Matplotlib v3.8.4, https://matplotlib.org/</dc:title>
     </cc:Agent>
    </dc:creator>
   </cc:Work>
  </rdf:RDF>
 </metadata>
 <defs>
  <style type="text/css">*{stroke-linejoin: round; stroke-linecap: butt}</style>
 </defs>
 <g id="figure_1">
  <g id="patch_1">
   <path d="M 0 287.233281 
L 555.451562 287.233281 
L 555.451562 0 
L 0 0 
z
" style="fill: #f3f7f8"/>
  </g>
  <g id="axes_1">
   <g id="patch_2">
    <path d="M 46.051562 244.837969 
L 548.251563 244.837969 
L 548.251563 23.077969 
L 46.051562 23.077969 
z
" style="fill: #ffffff"/>
   </g>
   <g id="matplotlib.axis_1">
    <g id="xtick_1">
     <g id="line2d_1">
      <defs>
       <path id="m855cf8774a" d="M 0 0 
L 0 3.5 
" style="stroke: #000000; stroke-width: 0.8"/>
      </defs>
      <g>
       <use xlink:href="#m855cf8774a" x="51.344865" y="244.837969" style="stroke: #000000; stroke-width: 0.8"/>
      </g>
     </g>
     <g id="text_1">
      <!-- −5 -->
      <g transform="translate(42.499552 260.956094) scale(0.12 -0.12)">
       <defs>
        <path id="DejaVuSans-2212" d="M 678 2272 
L 4684 2272 
L 4684 1741 
L 678 1741 
L 678 2272 
z
" transform="scale(0.015625)"/>
        <path id="DejaVuSans-35" d="M 691 4666 
L 3169 4666 
L 3169 4134 
L 1269 4134 
L 1269 2991 
Q 1406 3038 1543 3061 
Q 1681 3084 1819 3084 
Q 2600 3084 3056 2656 
Q 3513 2228 3513 1497 
Q 3513 744 3044 326 
Q 2575 -91 1722 -91 
Q 1428 -91 1123 -41 
Q 819 9 494 109 
L 494 744 
Q 775 591 1075 516 
Q 1375 441 1709 441 
Q 2250 441 2565 725 
Q 2881 1009 2881 1497 
Q 2881 1984 2565 2268 
Q 2250 2553 1709 2553 
Q 1456 2553 1204 2497 
Q 953 2441 691 2322 
L 691 4666 
z
" transform="scale(0.015625)"/>
       </defs>
       <use xlink:href="#DejaVuSans-2212"/>
       <use xlink:href="#DejaVuSans-35" x="83.789062"/>
      </g>
     </g>
    </g>
    <g id="xtick_2">
     <g id="line2d_2">
      <g>
       <use xlink:href="#m855cf8774a" x="122.680092" y="244.837969" style="stroke: #000000; stroke-width: 0.8"/>
      </g>
     </g>
     <g id="text_2">
      <!-- 0 -->
      <g transform="translate(118.862592 260.956094) scale(0.12 -0.12)">
       <defs>
        <path id="DejaVuSans-30" d="M 2034 4250 
Q 1547 4250 1301 3770 
Q 1056 3291 1056 2328 
Q 1056 1369 1301 889 
Q 1547 409 2034 409 
Q 2525 409 2770 889 
Q 3016 1369 3016 2328 
Q 3016 3291 2770 3770 
Q 2525 4250 2034 4250 
z
M 2034 4750 
Q 2819 4750 3233 4129 
Q 3647 3509 3647 2328 
Q 3647 1150 3233 529 
Q 2819 -91 2034 -91 
Q 1250 -91 836 529 
Q 422 1150 422 2328 
Q 422 3509 836 4129 
Q 1250 4750 2034 4750 
z
" transform="scale(0.015625)"/>
       </defs>
       <use xlink:href="#DejaVuSans-30"/>
      </g>
     </g>
    </g>
    <g id="xtick_3">
     <g id="line2d_3">
      <g>
       <use xlink:href="#m855cf8774a" x="194.015319" y="244.837969" style="stroke: #000000; stroke-width: 0.8"/>
      </g>
     </g>
     <g id="text_3">
      <!-- 5 -->
      <g transform="translate(190.197819 260.956094) scale(0.12 -0.12)">
       <use xlink:href="#DejaVuSans-35"/>
      </g>
     </g>
    </g>
    <g id="xtick_4">
     <g id="line2d_4">
      <g>
       <use xlink:href="#m855cf8774a" x="265.350546" y="244.837969" style="stroke: #000000; stroke-width: 0.8"/>
      </g>
     </g>
     <g id="text_4">
      <!-- 10 -->
      <g transform="translate(257.715546 260.956094) scale(0.12 -0.12)">
       <defs>
        <path id="DejaVuSans-31" d="M 794 531 
L 1825 531 
L 1825 4091 
L 703 3866 
L 703 4441 
L 1819 4666 
L 2450 4666 
L 2450 531 
L 3481 531 
L 3481 0 
L 794 0 
L 794 531 
z
" transform="scale(0.015625)"/>
       </defs>
       <use xlink:href="#DejaVuSans-31"/>
       <use xlink:href="#DejaVuSans-30" x="63.623047"/>
      </g>
     </g>
    </g>
    <g id="xtick_5">
     <g id="line2d_5">
      <g>
       <use xlink:href="#m855cf8774a" x="336.685774" y="244.837969" style="stroke: #000000; stroke-width: 0.8"/>
      </g>
     </g>
     <g id="text_5">
      <!-- 15 -->
      <g transform="translate(329.050774 260.956094) scale(0.12 -0.12)">
       <use xlink:href="#DejaVuSans-31"/>
       <use xlink:href="#DejaVuSans-35" x="63.623047"/>
      </g>
     </g>
    </g>
    <g id="xtick_6">
     <g id="line2d_6">
      <g>
       <use xlink:href="#m855cf8774a" x="408.021001" y="244.837969" style="stroke: #000000; stroke-width: 0.8"/>
      </g>
     </g>
     <g id="text_6">
      <!-- 20 -->
      <g transform="translate(400.386001 260.956094) scale(0.12 -0.12)">
       <defs>
        <path id="DejaVuSans-32" d="M 1228 531 
L 3431 531 
L 3431 0 
L 469 0 
L 469 531 
Q 828 903 1448 1529 
Q 2069 2156 2228 2338 
Q 2531 2678 2651 2914 
Q 2772 3150 2772 3378 
Q 2772 3750 2511 3984 
Q 2250 4219 1831 4219 
Q 1534 4219 1204 4116 
Q 875 4013 500 3803 
L 500 4441 
Q 881 4594 1212 4672 
Q 1544 4750 1819 4750 
Q 2544 4750 2975 4387 
Q 3406 4025 3406 3419 
Q 3406 3131 3298 2873 
Q 3191 2616 2906 2266 
Q 2828 2175 2409 1742 
Q 1991 1309 1228 531 
z
" transform="scale(0.015625)"/>
       </defs>
       <use xlink:href="#DejaVuSans-32"/>
       <use xlink:href="#DejaVuSans-30" x="63.623047"/>
      </g>
     </g>
    </g>
    <g id="xtick_7">
     <g id="line2d_7">
      <g>
       <use xlink:href="#m855cf8774a" x="479.356228" y="244.837969" style="stroke: #000000; stroke-width: 0.8"/>
      </g>
     </g>
     <g id="text_7">
      <!-- 25 -->
      <g transform="translate(471.721228 260.956094) scale(0.12 -0.12)">
       <use xlink:href="#DejaVuSans-32"/>
       <use xlink:href="#DejaVuSans-35" x="63.623047"/>
      </g>
     </g>
    </g>
    <g id="text_8">
     <!-- Time (s) -->
     <g transform="translate(270.723984 277.329687) scale(0.13 -0.13)">
      <defs>
       <path id="DejaVuSans-54" d="M -19 4666 
L 3928 4666 
L 3928 4134 
L 2272 4134 
L 2272 0 
L 1638 0 
L 1638 4134 
L -19 4134 
L -19 4666 
z
" transform="scale(0.015625)"/>
       <path id="DejaVuSans-69" d="M 603 3500 
L 1178 3500 
L 1178 0 
L 603 0 
L 603 3500 
z
M 603 4863 
L 1178 4863 
L 1178 4134 
L 603 4134 
L 603 4863 
z
" transform="scale(0.015625)"/>
       <path id="DejaVuSans-6d" d="M 3328 2828 
Q 3544 3216 3844 3400 
Q 4144 3584 4550 3584 
Q 5097 3584 5394 3201 
Q 5691 2819 5691 2113 
L 5691 0 
L 5113 0 
L 5113 2094 
Q 5113 2597 4934 2840 
Q 4756 3084 4391 3084 
Q 3944 3084 3684 2787 
Q 3425 2491 3425 1978 
L 3425 0 
L 2847 0 
L 2847 2094 
Q 2847 2600 2669 2842 
Q 2491 3084 2119 3084 
Q 1678 3084 1418 2786 
Q 1159 2488 1159 1978 
L 1159 0 
L 581 0 
L 581 3500 
L 1159 3500 
L 1159 2956 
Q 1356 3278 1631 3431 
Q 1906 3584 2284 3584 
Q 2666 3584 2933 3390 
Q 3200 3197 3328 2828 
z
" transform="scale(0.015625)"/>
       <path id="DejaVuSans-65" d="M 3597 1894 
L 3597 1613 
L 953 1613 
Q 991 1019 1311 708 
Q 1631 397 2203 397 
Q 2534 397 2845 478 
Q 3156 559 3463 722 
L 3463 178 
Q 3153 47 2828 -22 
Q 2503 -91 2169 -91 
Q 1331 -91 842 396 
Q 353 884 353 1716 
Q 353 2575 817 3079 
Q 1281 3584 2069 3584 
Q 2775 3584 3186 3129 
Q 3597 2675 3597 1894 
z
M 3022 2063 
Q 3016 2534 2758 2815 
Q 2500 3097 2075 3097 
Q 1594 3097 1305 2825 
Q 1016 2553 972 2059 
L 3022 2063 
z
" transform="scale(0.015625)"/>
       <path id="DejaVuSans-20" transform="scale(0.015625)"/>
       <path id="DejaVuSans-28" d="M 1984 4856 
Q 1566 4138 1362 3434 
Q 1159 2731 1159 2009 
Q 1159 1288 1364 580 
Q 1569 -128 1984 -844 
L 1484 -844 
Q 1016 -109 783 600 
Q 550 1309 550 2009 
Q 550 2706 781 3412 
Q 1013 4119 1484 4856 
L 1984 4856 
z
" transform="scale(0.015625)"/>
       <path id="DejaVuSans-73" d="M 2834 3397 
L 2834 2853 
Q 2591 2978 2328 3040 
Q 2066 3103 1784 3103 
Q 1356 3103 1142 2972 
Q 928 2841 928 2578 
Q 928 2378 1081 2264 
Q 1234 2150 1697 2047 
L 1894 2003 
Q 2506 1872 2764 1633 
Q 3022 1394 3022 966 
Q 3022 478 2636 193 
Q 2250 -91 1575 -91 
Q 1294 -91 989 -36 
Q 684 19 347 128 
L 347 722 
Q 666 556 975 473 
Q 1284 391 1588 391 
Q 1994 391 2212 530 
Q 2431 669 2431 922 
Q 2431 1156 2273 1281 
Q 2116 1406 1581 1522 
L 1381 1569 
Q 847 1681 609 1914 
Q 372 2147 372 2553 
Q 372 3047 722 3315 
Q 1072 3584 1716 3584 
Q 2034 3584 2315 3537 
Q 2597 3491 2834 3397 
z
" transform="scale(0.015625)"/>
       <path id="DejaVuSans-29" d="M 513 4856 
L 1013 4856 
Q 1481 4119 1714 3412 
Q 1947 2706 1947 2009 
Q 1947 1309 1714 600 
Q 1481 -109 1013 -844 
L 513 -844 
Q 928 -128 1133 580 
Q 1338 1288 1338 2009 
Q 1338 2731 1133 3434 
Q 928 4138 513 4856 
z
" transform="scale(0.015625)"/>
      </defs>
      <use xlink:href="#DejaVuSans-54"/>
      <use xlink:href="#DejaVuSans-69" x="57.958984"/>
      <use xlink:href="#DejaVuSans-6d" x="85.742188"/>
      <use xlink:href="#DejaVuSans-65" x="183.154297"/>
      <use xlink:href="#DejaVuSans-20" x="244.677734"/>
      <use xlink:href="#DejaVuSans-28" x="276.464844"/>
      <use xlink:href="#DejaVuSans-73" x="315.478516"/>
      <use xlink:href="#DejaVuSans-29" x="367.578125"/>
     </g>
    </g>
   </g>
   <g id="matplotlib.axis_2">
    <g id="ytick_1">
     <g id="line2d_8">
      <defs>
       <path id="mb5f84d6026" d="M 0 0 
L -3.5 0 
" style="stroke: #000000; stroke-width: 0.8"/>
      </defs>
      <g>
       <use xlink:href="#mb5f84d6026" x="46.051562" y="236.607777" style="stroke: #000000; stroke-width: 0.8"/>
      </g>
     </g>
     <g id="text_9">
      <!-- 2 -->
      <g transform="translate(31.416562 241.166839) scale(0.12 -0.12)">
       <use xlink:href="#DejaVuSans-32"/>
      </g>
     </g>
    </g>
    <g id="ytick_2">
     <g id="line2d_9">
      <g>
       <use xlink:href="#mb5f84d6026" x="46.051562" y="203.352797" style="stroke: #000000; stroke-width: 0.8"/>
      </g>
     </g>
     <g id="text_10">
      <!-- 4 -->
      <g transform="translate(31.416562 207.91186) scale(0.12 -0.12)">
       <defs>
        <path id="DejaVuSans-34" d="M 2419 4116 
L 825 1625 
L 2419 1625 
L 2419 4116 
z
M 2253 4666 
L 3047 4666 
L 3047 1625 
L 3713 1625 
L 3713 1100 
L 3047 1100 
L 3047 0 
L 2419 0 
L 2419 1100 
L 313 1100 
L 313 1709 
L 2253 4666 
z
" transform="scale(0.015625)"/>
       </defs>
       <use xlink:href="#DejaVuSans-34"/>
      </g>
     </g>
    </g>
    <g id="ytick_3">
     <g id="line2d_10">
      <g>
       <use xlink:href="#mb5f84d6026" x="46.051562" y="170.097818" style="stroke: #000000; stroke-width: 0.8"/>
      </g>
     </g>
     <g id="text_11">
      <!-- 6 -->
      <g transform="translate(31.416562 174.65688) scale(0.12 -0.12)">
       <defs>
        <path id="DejaVuSans-36" d="M 2113 2584 
Q 1688 2584 1439 2293 
Q 1191 2003 1191 1497 
Q 1191 994 1439 701 
Q 1688 409 2113 409 
Q 2538 409 2786 701 
Q 3034 994 3034 1497 
Q 3034 2003 2786 2293 
Q 2538 2584 2113 2584 
z
M 3366 4563 
L 3366 3988 
Q 3128 4100 2886 4159 
Q 2644 4219 2406 4219 
Q 1781 4219 1451 3797 
Q 1122 3375 1075 2522 
Q 1259 2794 1537 2939 
Q 1816 3084 2150 3084 
Q 2853 3084 3261 2657 
Q 3669 2231 3669 1497 
Q 3669 778 3244 343 
Q 2819 -91 2113 -91 
Q 1303 -91 875 529 
Q 447 1150 447 2328 
Q 447 3434 972 4092 
Q 1497 4750 2381 4750 
Q 2619 4750 2861 4703 
Q 3103 4656 3366 4563 
z
" transform="scale(0.015625)"/>
       </defs>
       <use xlink:href="#DejaVuSans-36"/>
      </g>
     </g>
    </g>
    <g id="ytick_4">
     <g id="line2d_11">
      <g>
       <use xlink:href="#mb5f84d6026" x="46.051562" y="136.842838" style="stroke: #000000; stroke-width: 0.8"/>
      </g>
     </g>
     <g id="text_12">
      <!-- 8 -->
      <g transform="translate(31.416562 141.401901) scale(0.12 -0.12)">
       <defs>
        <path id="DejaVuSans-38" d="M 2034 2216 
Q 1584 2216 1326 1975 
Q 1069 1734 1069 1313 
Q 1069 891 1326 650 
Q 1584 409 2034 409 
Q 2484 409 2743 651 
Q 3003 894 3003 1313 
Q 3003 1734 2745 1975 
Q 2488 2216 2034 2216 
z
M 1403 2484 
Q 997 2584 770 2862 
Q 544 3141 544 3541 
Q 544 4100 942 4425 
Q 1341 4750 2034 4750 
Q 2731 4750 3128 4425 
Q 3525 4100 3525 3541 
Q 3525 3141 3298 2862 
Q 3072 2584 2669 2484 
Q 3125 2378 3379 2068 
Q 3634 1759 3634 1313 
Q 3634 634 3220 271 
Q 2806 -91 2034 -91 
Q 1263 -91 848 271 
Q 434 634 434 1313 
Q 434 1759 690 2068 
Q 947 2378 1403 2484 
z
M 1172 3481 
Q 1172 3119 1398 2916 
Q 1625 2713 2034 2713 
Q 2441 2713 2670 2916 
Q 2900 3119 2900 3481 
Q 2900 3844 2670 4047 
Q 2441 4250 2034 4250 
Q 1625 4250 1398 4047 
Q 1172 3844 1172 3481 
z
" transform="scale(0.015625)"/>
       </defs>
       <use xlink:href="#DejaVuSans-38"/>
      </g>
     </g>
    </g>
    <g id="ytick_5">
     <g id="line2d_12">
      <g>
       <use xlink:href="#mb5f84d6026" x="46.051562" y="103.587859" style="stroke: #000000; stroke-width: 0.8"/>
      </g>
     </g>
     <g id="text_13">
      <!-- 10 -->
      <g transform="translate(23.781562 108.146921) scale(0.12 -0.12)">
       <use xlink:href="#DejaVuSans-31"/>
       <use xlink:href="#DejaVuSans-30" x="63.623047"/>
      </g>
     </g>
    </g>
    <g id="ytick_6">
     <g id="line2d_13">
      <g>
       <use xlink:href="#mb5f84d6026" x="46.051562" y="70.332879" style="stroke: #000000; stroke-width: 0.8"/>
      </g>
     </g>
     <g id="text_14">
      <!-- 12 -->
      <g transform="translate(23.781562 74.891942) scale(0.12 -0.12)">
       <use xlink:href="#DejaVuSans-31"/>
       <use xlink:href="#DejaVuSans-32" x="63.623047"/>
      </g>
     </g>
    </g>
    <g id="ytick_7">
     <g id="line2d_14">
      <g>
       <use xlink:href="#mb5f84d6026" x="46.051562" y="37.077899" style="stroke: #000000; stroke-width: 0.8"/>
      </g>
     </g>
     <g id="text_15">
      <!-- 14 -->
      <g transform="translate(23.781562 41.636962) scale(0.12 -0.12)">
       <use xlink:href="#DejaVuSans-31"/>
       <use xlink:href="#DejaVuSans-34" x="63.623047"/>
      </g>
     </g>
    </g>
    <g id="text_16">
     <!-- Utilization (%) -->
     <g transform="translate(17.077969 179.839844) rotate(-90) scale(0.13 -0.13)">
      <defs>
       <path id="DejaVuSans-55" d="M 556 4666 
L 1191 4666 
L 1191 1831 
Q 1191 1081 1462 751 
Q 1734 422 2344 422 
Q 2950 422 3222 751 
Q 3494 1081 3494 1831 
L 3494 4666 
L 4128 4666 
L 4128 1753 
Q 4128 841 3676 375 
Q 3225 -91 2344 -91 
Q 1459 -91 1007 375 
Q 556 841 556 1753 
L 556 4666 
z
" transform="scale(0.015625)"/>
       <path id="DejaVuSans-74" d="M 1172 4494 
L 1172 3500 
L 2356 3500 
L 2356 3053 
L 1172 3053 
L 1172 1153 
Q 1172 725 1289 603 
Q 1406 481 1766 481 
L 2356 481 
L 2356 0 
L 1766 0 
Q 1100 0 847 248 
Q 594 497 594 1153 
L 594 3053 
L 172 3053 
L 172 3500 
L 594 3500 
L 594 4494 
L 1172 4494 
z
" transform="scale(0.015625)"/>
       <path id="DejaVuSans-6c" d="M 603 4863 
L 1178 4863 
L 1178 0 
L 603 0 
L 603 4863 
z
" transform="scale(0.015625)"/>
       <path id="DejaVuSans-7a" d="M 353 3500 
L 3084 3500 
L 3084 2975 
L 922 459 
L 3084 459 
L 3084 0 
L 275 0 
L 275 525 
L 2438 3041 
L 353 3041 
L 353 3500 
z
" transform="scale(0.015625)"/>
       <path id="DejaVuSans-61" d="M 2194 1759 
Q 1497 1759 1228 1600 
Q 959 1441 959 1056 
Q 959 750 1161 570 
Q 1363 391 1709 391 
Q 2188 391 2477 730 
Q 2766 1069 2766 1631 
L 2766 1759 
L 2194 1759 
z
M 3341 1997 
L 3341 0 
L 2766 0 
L 2766 531 
Q 2569 213 2275 61 
Q 1981 -91 1556 -91 
Q 1019 -91 701 211 
Q 384 513 384 1019 
Q 384 1609 779 1909 
Q 1175 2209 1959 2209 
L 2766 2209 
L 2766 2266 
Q 2766 2663 2505 2880 
Q 2244 3097 1772 3097 
Q 1472 3097 1187 3025 
Q 903 2953 641 2809 
L 641 3341 
Q 956 3463 1253 3523 
Q 1550 3584 1831 3584 
Q 2591 3584 2966 3190 
Q 3341 2797 3341 1997 
z
" transform="scale(0.015625)"/>
       <path id="DejaVuSans-6f" d="M 1959 3097 
Q 1497 3097 1228 2736 
Q 959 2375 959 1747 
Q 959 1119 1226 758 
Q 1494 397 1959 397 
Q 2419 397 2687 759 
Q 2956 1122 2956 1747 
Q 2956 2369 2687 2733 
Q 2419 3097 1959 3097 
z
M 1959 3584 
Q 2709 3584 3137 3096 
Q 3566 2609 3566 1747 
Q 3566 888 3137 398 
Q 2709 -91 1959 -91 
Q 1206 -91 779 398 
Q 353 888 353 1747 
Q 353 2609 779 3096 
Q 1206 3584 1959 3584 
z
" transform="scale(0.015625)"/>
       <path id="DejaVuSans-6e" d="M 3513 2113 
L 3513 0 
L 2938 0 
L 2938 2094 
Q 2938 2591 2744 2837 
Q 2550 3084 2163 3084 
Q 1697 3084 1428 2787 
Q 1159 2491 1159 1978 
L 1159 0 
L 581 0 
L 581 3500 
L 1159 3500 
L 1159 2956 
Q 1366 3272 1645 3428 
Q 1925 3584 2291 3584 
Q 2894 3584 3203 3211 
Q 3513 2838 3513 2113 
z
" transform="scale(0.015625)"/>
       <path id="DejaVuSans-25" d="M 4653 2053 
Q 4381 2053 4226 1822 
Q 4072 1591 4072 1178 
Q 4072 772 4226 539 
Q 4381 306 4653 306 
Q 4919 306 5073 539 
Q 5228 772 5228 1178 
Q 5228 1588 5073 1820 
Q 4919 2053 4653 2053 
z
M 4653 2450 
Q 5147 2450 5437 2106 
Q 5728 1763 5728 1178 
Q 5728 594 5436 251 
Q 5144 -91 4653 -91 
Q 4153 -91 3862 251 
Q 3572 594 3572 1178 
Q 3572 1766 3864 2108 
Q 4156 2450 4653 2450 
z
M 1428 4353 
Q 1159 4353 1004 4120 
Q 850 3888 850 3481 
Q 850 3069 1003 2837 
Q 1156 2606 1428 2606 
Q 1700 2606 1854 2837 
Q 2009 3069 2009 3481 
Q 2009 3884 1853 4118 
Q 1697 4353 1428 4353 
z
M 4250 4750 
L 4750 4750 
L 1831 -91 
L 1331 -91 
L 4250 4750 
z
M 1428 4750 
Q 1922 4750 2215 4408 
Q 2509 4066 2509 3481 
Q 2509 2891 2217 2550 
Q 1925 2209 1428 2209 
Q 931 2209 642 2551 
Q 353 2894 353 3481 
Q 353 4063 643 4406 
Q 934 4750 1428 4750 
z
" transform="scale(0.015625)"/>
      </defs>
      <use xlink:href="#DejaVuSans-55"/>
      <use xlink:href="#DejaVuSans-74" x="73.193359"/>
      <use xlink:href="#DejaVuSans-69" x="112.402344"/>
      <use xlink:href="#DejaVuSans-6c" x="140.185547"/>
      <use xlink:href="#DejaVuSans-69" x="167.96875"/>
      <use xlink:href="#DejaVuSans-7a" x="195.751953"/>
      <use xlink:href="#DejaVuSans-61" x="248.242188"/>
      <use xlink:href="#DejaVuSans-74" x="309.521484"/>
      <use xlink:href="#DejaVuSans-69" x="348.730469"/>
      <use xlink:href="#DejaVuSans-6f" x="376.513672"/>
      <use xlink:href="#DejaVuSans-6e" x="437.695312"/>
      <use xlink:href="#DejaVuSans-20" x="501.074219"/>
      <use xlink:href="#DejaVuSans-28" x="532.861328"/>
      <use xlink:href="#DejaVuSans-25" x="571.875"/>
      <use xlink:href="#DejaVuSans-29" x="666.894531"/>
     </g>
    </g>
   </g>
   <g id="line2d_15">
    <path d="M 68.878835 234.757969 
L 71.310411 234.525184 
L 71.974698 234.297018 
L 74.620993 234.065157 
L 78.399805 234.006499 
L 80.207668 234.123815 
L 81.445249 233.609748 
L 88.701154 233.608824 
L 91.160237 233.317843 
L 92.653911 233.260109 
L 96.000275 232.973747 
L 96.010233 232.628264 
L 96.021133 232.686461 
L 101.692655 231.819984 
L 102.363291 231.877256 
L 103.155084 231.702668 
L 106.804195 231.645395 
L 106.933896 231.416767 
L 108.741759 231.417229 
L 109.39325 231.121167 
L 109.97934 231.291137 
L 110.367418 230.294873 
L 116.794023 227.57905 
L 119.694327 225.158365 
L 121.188001 223.175075 
L 124.534366 220.580724 
L 124.555224 218.768328 
L 127.465145 216.001698 
L 128.378592 214.09277 
L 129.04288 211.516433 
L 130.226745 208.841255 
L 130.897382 206.362373 
L 131.502291 203.195298 
L 135.338285 202.20781 
L 135.467987 201.042962 
L 137.27585 199.087846 
L 137.92734 197.104094 
L 138.811369 193.650195 
L 138.901509 190.58889 
L 140.214063 190.46834 
L 145.95622 187.124829 
L 148.228418 185.461618 
L 153.068456 183.133308 
L 153.089315 179.705736 
L 155.999236 178.088712 
L 156.912683 175.822293 
L 157.576971 173.421006 
L 158.760836 170.538446 
L 159.431473 167.888671 
L 159.595159 166.141399 
L 160.036382 164.751156 
L 163.872376 161.945729 
L 163.989138 159.024833 
L 164.002078 155.763536 
L 165.809941 153.170109 
L 166.461431 149.62014 
L 167.047522 147.699203 
L 167.435599 142.976996 
L 168.748153 140.966918 
L 181.602547 136.692729 
L 181.623406 134.993492 
L 184.533327 131.988997 
L 185.446774 128.518932 
L 187.294927 127.088044 
L 187.965564 124.361136 
L 188.12925 121.510445 
L 188.570472 118.461148 
L 191.029555 115.572584 
L 192.406467 113.66966 
L 192.536169 110.244397 
L 194.995522 108.276349 
L 195.581613 105.129135 
L 195.879551 102.767569 
L 195.96969 99.732129 
L 197.282244 96.632487 
L 200.378108 94.8321 
L 203.024402 91.853008 
L 208.611077 88.813872 
L 210.136638 85.389995 
L 213.067418 82.906494 
L 215.829018 78.584733 
L 216.499655 76.040727 
L 216.663341 72.889356 
L 217.104563 69.830359 
L 219.563646 67.011538 
L 220.940558 64.436586 
L 221.07026 56.647069 
L 223.529613 54.388502 
L 224.115703 55.188931 
L 224.413642 55.862806 
L 224.424542 54.245783 
L 224.503781 54.557548 
L 225.816335 53.585764 
L 231.558493 52.657396 
L 237.145168 53.839333 
L 241.601508 52.859697 
L 242.514956 51.913777 
L 244.363109 52.627836 
L 245.033746 50.550323 
L 245.197432 48.930067 
L 245.638654 48.263581 
L 249.474649 46.826689 
L 249.591411 46.61007 
L 249.604351 47.612338 
L 252.063704 44.554727 
L 252.649794 44.881273 
L 252.937775 43.626821 
L 253.037872 42.651342 
L 254.350426 41.459705 
L 257.446289 41.208907 
L 260.092584 41.631984 
L 265.679259 40.74149 
L 270.135599 39.464868 
L 271.049047 39.458864 
L 273.567837 39.100449 
L 274.172745 38.166538 
L 276.631827 38.602548 
L 278.00874 38.3148 
L 278.125501 38.457057 
L 281.183885 37.261726 
L 281.471866 35.591125 
L 281.481824 35.641931 
L 281.492724 34.185178 
L 282.884517 34.077099 
L 285.98038 34.224899 
L 288.626675 33.157969 
L 292.405487 33.455878 
L 294.21335 34.696012 
L 295.839009 34.563454 
L 299.583138 34.83365 
L 301.431291 34.417963 
L 302.101928 34.414268 
L 302.265613 34.296952 
L 302.706836 34.131601 
L 305.165918 35.698742 
L 306.542831 34.595323 
L 306.659592 35.607752 
L 309.131886 36.385087 
L 309.717976 35.926446 
L 310.005956 36.357375 
L 310.026815 36.912086 
L 311.418608 37.35641 
L 312.936736 37.178588 
L 317.160766 38.031209 
L 320.939578 37.724986 
L 322.747441 38.47738 
L 324.373099 39.623753 
L 328.117229 39.076431 
L 329.965382 41.863383 
L 330.636019 41.985318 
L 330.799704 42.347428 
L 333.700009 41.288349 
L 335.076922 43.028693 
L 335.193683 46.515847 
L 338.540047 45.939428 
L 338.560906 48.702824 
L 339.952699 47.537514 
L 341.470827 45.753292 
L 343.048562 46.490444 
L 345.507972 47.004973 
L 349.473669 48.939304 
L 351.281532 49.419654 
L 351.933022 50.544319 
L 352.519113 53.285545 
L 352.90719 52.80381 
L 359.961902 55.822161 
L 362.2341 57.04382 
L 363.727774 59.155973 
L 367.074138 62.274551 
L 367.094997 66.806466 
L 368.48679 70.036355 
L 370.004918 72.560963 
L 370.918365 75.095731 
L 371.582653 78.554249 
L 372.766518 81.147676 
L 373.437155 83.60993 
L 373.600841 87.087846 
L 374.042063 90.056315 
L 377.878058 91.455795 
L 378.00776 94.576683 
L 379.815623 97.718355 
L 381.053203 104.276976 
L 381.441281 107.100878 
L 388.495993 109.369606 
L 390.768191 112.383339 
L 392.261865 115.303773 
L 395.608229 117.147115 
L 395.629088 123.214763 
L 397.020881 126.255284 
L 398.539008 129.140615 
L 400.116744 134.50529 
L 401.971246 138.249709 
L 402.134932 141.605228 
L 402.576154 144.170942 
L 406.412149 146.484473 
L 406.541851 148.184634 
L 408.349714 149.739304 
L 409.587294 152.979817 
L 409.975372 156.447572 
L 417.030084 158.296457 
L 419.302282 160.72407 
L 424.14232 162.984023 
L 424.163179 165.528491 
L 427.073099 168.345465 
L 427.986547 171.723617 
L 428.650835 173.647325 
L 429.8347 175.283747 
L 430.505337 177.843457 
L 430.669023 179.672019 
L 431.110245 183.245082 
L 434.94624 185.614037 
L 435.063001 187.569153 
L 435.075942 190.636463 
L 436.883805 192.16573 
L 438.121385 198.240306 
L 438.509463 201.165821 
L 439.822017 201.400453 
L 445.564175 204.318577 
L 447.836373 206.878287 
L 452.676411 207.680563 
L 452.697269 211.218524 
L 455.60719 214.285834 
L 456.520638 217.143453 
L 457.184926 220.056497 
L 458.368791 220.631069 
L 459.039428 223.39077 
L 459.203113 224.818425 
L 459.644336 224.58564 
L 463.480331 227.925456 
L 463.597092 227.756872 
L 463.610033 227.869569 
L 466.069386 227.821996 
L 466.655476 229.44641 
L 467.043554 229.11155 
L 468.356108 229.279211 
L 474.098266 229.053816 
L 481.210502 228.136533 
L 485.054729 227.196156 
L 486.902882 227.198465 
L 487.573519 226.563388 
L 487.737204 225.801756 
L 488.178427 224.871079 
L 492.014422 222.607431 
L 492.144124 221.792684 
L 495.487506 221.737259 
L 495.498406 220.879095 
L 495.577645 220.943296 
L 496.890199 221.117423 
L 499.986062 218.60621 
L 508.219032 218.257033 
L 524.111736 218.358183 
L 525.42429 218.069511 
L 525.42429 218.069511 
" clip-path="url(#p6ad479e0e1)" style="fill: none; stroke: #009384; stroke-width: 2.5; stroke-linecap: square"/>
   </g>
   <g id="line2d_16">
    <path d="M 68.878835 149.486058 
L 71.310411 149.102358 
L 71.974698 149.151797 
L 74.620993 149.522837 
L 78.399805 149.54531 
L 80.207668 149.184094 
L 80.859159 149.183486 
L 81.445249 149.471308 
L 88.701154 149.467532 
L 91.160237 149.150377 
L 92.653911 149.163164 
L 96.000275 149.542467 
L 96.010233 149.140132 
L 96.021133 149.54131 
L 97.412926 149.540017 
L 98.931054 149.898064 
L 99.844501 149.528765 
L 101.692655 149.484084 
L 102.363291 149.097488 
L 103.155084 149.466805 
L 106.933896 149.496499 
L 108.741759 149.135271 
L 109.39325 149.13465 
L 109.97934 149.45902 
L 116.794023 149.456186 
L 119.694327 149.086904 
L 124.534366 149.141961 
L 124.555224 149.519295 
L 130.226745 149.481774 
L 130.897382 149.133675 
L 131.502291 149.454173 
L 135.338285 149.376525 
L 135.467987 148.988326 
L 137.27585 149.034606 
L 138.513431 149.738662 
L 138.811369 149.294085 
L 138.901509 148.901172 
L 140.214063 148.854895 
L 145.95622 149.244934 
L 148.228418 148.854184 
L 153.089315 148.962971 
L 155.999236 149.318007 
L 156.912683 148.905913 
L 157.576971 148.956239 
L 158.760836 148.912964 
L 159.431473 148.584952 
L 159.595159 148.899789 
L 160.036382 149.209416 
L 163.872376 148.833771 
L 163.989138 149.257663 
L 164.002078 148.890956 
L 165.809941 148.923134 
L 166.461431 149.27424 
L 167.047522 149.203608 
L 167.435599 148.783648 
L 168.748153 148.744648 
L 181.602547 148.700442 
L 181.623406 149.081675 
L 188.12925 149.066907 
L 188.570472 149.408743 
L 191.029555 149.378474 
L 192.523229 149.093513 
L 192.536169 149.159543 
L 195.879551 149.082853 
L 195.96969 148.70206 
L 197.282244 148.346706 
L 210.136638 148.396022 
L 213.067418 148.781325 
L 213.980865 148.71036 
L 216.663341 148.794525 
L 217.104563 149.178676 
L 221.05732 149.103868 
L 221.07026 148.799239 
L 223.529613 149.194675 
L 224.424542 149.023093 
L 224.503781 148.642853 
L 225.816335 148.292405 
L 228.912198 147.963754 
L 231.558493 148.362421 
L 237.145168 148.343419 
L 241.601508 148.721565 
L 242.514956 148.671614 
L 244.363109 148.223267 
L 245.033746 148.20509 
L 245.197432 148.572521 
L 245.638654 148.876157 
L 249.474649 148.115466 
L 249.604351 148.576682 
L 252.063704 148.957948 
L 252.649794 148.904274 
L 252.937775 149.259342 
L 253.037872 148.376171 
L 257.446289 148.238461 
L 260.092584 148.556561 
L 270.135599 148.561274 
L 271.049047 148.149878 
L 272.8972 148.123177 
L 273.567837 147.702231 
L 273.731523 148.059868 
L 274.172745 148.425067 
L 276.631827 148.086816 
L 278.00874 147.72887 
L 278.125501 148.133146 
L 280.597795 148.515706 
L 281.183885 148.892519 
L 281.471866 148.932938 
L 281.492724 148.49624 
L 282.884517 148.103942 
L 285.98038 148.109789 
L 288.626675 148.453415 
L 292.405487 148.433139 
L 295.839009 147.620595 
L 301.431291 147.518761 
L 302.101928 147.100558 
L 302.265613 147.392075 
L 302.706836 147.43814 
L 305.165918 147.077264 
L 306.542831 147.043697 
L 306.659592 147.38699 
L 309.131886 147.750423 
L 310.005956 147.96004 
L 310.026815 147.861913 
L 311.418608 147.443438 
L 312.936736 147.787687 
L 314.514471 147.822713 
L 317.160766 148.036605 
L 320.939578 147.69173 
L 322.747441 147.359005 
L 324.373099 147.273059 
L 328.117229 147.211177 
L 329.965382 146.767166 
L 335.193683 146.463864 
L 338.550006 146.792906 
L 338.560906 147.069169 
L 339.952699 146.641799 
L 341.470827 146.992632 
L 343.048562 146.632601 
L 345.507972 147.057334 
L 352.90719 147.107172 
L 359.961902 147.469042 
L 362.2341 147.112528 
L 363.727774 147.466412 
L 367.074138 147.50538 
L 367.084097 147.068227 
L 367.094997 147.089781 
L 368.48679 147.072917 
L 372.766518 147.274826 
L 373.437155 146.947311 
L 373.600841 147.334376 
L 381.441281 147.416314 
L 388.495993 147.81994 
L 390.768191 147.415448 
L 395.608229 147.507576 
L 395.618188 147.128488 
L 395.629088 147.560211 
L 397.020881 147.192797 
L 398.539008 147.585552 
L 399.452456 147.554415 
L 400.116744 147.288922 
L 401.971246 147.2769 
L 402.134932 147.676428 
L 402.576154 148.101797 
L 406.541851 148.201273 
L 408.349714 147.904641 
L 409.001204 147.916144 
L 409.587294 148.255201 
L 409.975372 148.267824 
L 417.030084 148.279159 
L 419.302282 147.923203 
L 424.163179 148.083703 
L 427.073099 148.478608 
L 427.986547 148.10399 
L 428.650835 148.189243 
L 429.8347 147.85786 
L 430.505337 147.833101 
L 431.110245 148.31573 
L 434.94624 148.288787 
L 435.075942 148.822889 
L 436.883805 148.975975 
L 437.535295 149.369633 
L 438.509463 149.349336 
L 439.822017 148.990028 
L 452.676411 149.058799 
L 452.697269 149.474952 
L 456.520638 149.476987 
L 457.184926 149.130595 
L 463.480331 149.379333 
L 463.610033 149.423456 
L 465.417896 149.086444 
L 466.069386 149.095871 
L 466.655476 149.523664 
L 467.043554 149.145784 
L 468.356108 148.765379 
L 474.098266 149.162718 
L 481.210502 149.506175 
L 484.141281 149.903891 
L 485.054729 149.911008 
L 486.902882 149.493963 
L 487.573519 149.129163 
L 487.737204 149.53222 
L 488.178427 149.890344 
L 490.637509 149.889714 
L 492.014422 149.504141 
L 492.144124 149.206589 
L 494.603477 149.603785 
L 495.487506 149.241756 
L 495.498406 149.617605 
L 495.577645 149.229738 
L 496.890199 148.843073 
L 499.986062 148.873834 
L 508.219032 148.545252 
L 524.021597 148.546402 
L 524.111736 148.160293 
L 525.42429 148.192943 
L 525.42429 148.192943 
" clip-path="url(#p6ad479e0e1)" style="fill: none; stroke: #b85741; stroke-width: 2.5; stroke-linecap: square"/>
   </g>
   <g id="line2d_17">
    <path d="M 68.878835 213.7011 
L 71.310411 212.962101 
L 71.974698 213.054476 
L 78.399805 213.054476 
L 80.207668 215.918099 
L 80.859159 216.102849 
L 81.833327 216.102849 
L 88.259932 215.825724 
L 88.701154 215.640974 
L 96.000275 215.548599 
L 96.021133 215.271474 
L 100.508789 214.62485 
L 101.692655 213.88585 
L 102.363291 214.25535 
L 103.155084 213.423976 
L 106.804195 214.4401 
L 106.933896 209.451853 
L 108.741759 210.283228 
L 109.39325 207.050105 
L 109.97934 207.234854 
L 110.367418 203.632232 
L 116.794023 200.676233 
L 119.694327 197.904985 
L 121.188001 195.316177 
L 124.534366 192.729679 
L 124.555224 189.311806 
L 127.465145 186.910057 
L 129.04288 173.977565 
L 130.226745 171.852942 
L 131.502291 167.696069 
L 135.338285 164.370571 
L 135.467987 162.615447 
L 137.27585 162.707822 
L 137.92734 162.615447 
L 138.513431 162.800197 
L 138.811369 160.767949 
L 138.901509 160.952698 
L 140.214063 141.184461 
L 145.95622 141.276836 
L 148.228418 142.10821 
L 153.068456 142.10821 
L 153.089315 143.493834 
L 155.999236 143.770959 
L 156.912683 153.377953 
L 157.576971 165.756195 
L 158.760836 166.58757 
L 159.431473 166.776939 
L 159.595159 167.146438 
L 160.036382 167.423563 
L 164.002078 168.070188 
L 165.809941 167.515938 
L 166.461431 144.606952 
L 167.047522 140.45008 
L 167.34546 140.45008 
L 167.435599 140.81958 
L 168.748153 141.004329 
L 181.602547 141.004329 
L 181.623406 140.357705 
L 184.533327 140.542455 
L 187.294927 141.743329 
L 187.965564 141.650954 
L 188.12925 137.216957 
L 188.570472 132.59821 
L 191.029555 132.505835 
L 192.406467 132.22871 
L 192.536169 131.85921 
L 194.995522 130.935461 
L 195.581613 130.011711 
L 195.879551 129.919336 
L 195.96969 129.180337 
L 197.282244 128.348962 
L 200.378108 128.441337 
L 203.024402 126.593838 
L 208.611077 126.778588 
L 210.136638 119.388593 
L 213.067418 113.938471 
L 213.980865 110.612973 
L 215.829018 111.259598 
L 216.499655 111.351973 
L 216.663341 107.01035 
L 217.104563 101.098354 
L 219.563646 106.178976 
L 220.940558 101.283104 
L 221.05732 103.869602 
L 221.07026 99.250855 
L 223.529613 102.668728 
L 224.115703 105.624726 
L 224.413642 108.488349 
L 224.424542 105.901851 
L 224.503781 108.488349 
L 225.816335 109.412099 
L 228.912198 111.259598 
L 231.558493 119.203843 
L 237.145168 124.284465 
L 241.601508 122.991215 
L 242.514956 125.208214 
L 244.363109 127.979462 
L 245.033746 131.30496 
L 245.197432 130.935461 
L 245.638654 128.441337 
L 248.097737 107.37985 
L 249.474649 105.255226 
L 249.591411 105.717101 
L 249.604351 103.869602 
L 252.063704 123.730215 
L 252.649794 123.730215 
L 252.937775 121.143717 
L 253.037872 116.524969 
L 257.446289 116.617344 
L 260.092584 107.5646 
L 265.679259 107.929481 
L 270.135599 104.881108 
L 271.049047 104.696358 
L 272.8972 103.033609 
L 273.567837 101.48171 
L 273.731523 100.650335 
L 274.172745 101.389335 
L 276.631827 122.081322 
L 278.00874 125.868695 
L 278.125501 124.298321 
L 281.183885 121.157573 
L 281.492724 118.201575 
L 282.884517 116.631201 
L 285.98038 115.060827 
L 288.626675 112.381953 
L 292.405487 111.827704 
L 294.21335 116.446451 
L 295.839009 118.386325 
L 299.583138 116.538826 
L 301.431291 115.984576 
L 302.101928 114.137077 
L 302.265613 110.626829 
L 302.706836 108.96408 
L 305.165918 107.393706 
L 306.542831 94.461214 
L 306.659592 90.858591 
L 309.131886 90.211967 
L 309.717976 86.886469 
L 310.005956 87.348344 
L 310.015915 85.316095 
L 310.026815 91.597591 
L 311.418608 97.232463 
L 312.936736 97.694337 
L 314.514471 95.939213 
L 317.160766 91.874716 
L 320.939578 96.123963 
L 322.747441 100.280836 
L 324.373099 92.70609 
L 328.117229 93.44509 
L 329.965382 90.950966 
L 330.799704 96.308713 
L 333.700009 93.62984 
L 335.076922 93.07559 
L 335.193683 96.216338 
L 338.540047 96.308713 
L 338.550006 87.994968 
L 338.560906 88.641593 
L 339.952699 94.645964 
L 341.470827 85.77797 
L 343.048562 89.011093 
L 345.507972 88.918718 
L 349.473669 88.918718 
L 351.281532 85.685595 
L 351.933022 83.653346 
L 352.519113 86.147469 
L 352.90719 107.393706 
L 359.961902 109.14883 
L 362.2341 110.719204 
L 363.727774 112.381953 
L 367.074138 101.574085 
L 367.084097 98.340962 
L 367.094997 100.92746 
L 368.48679 105.546207 
L 370.004918 105.453832 
L 370.918365 105.269083 
L 371.582653 103.236834 
L 372.766518 92.244216 
L 373.437155 95.662089 
L 373.600841 95.477339 
L 374.042063 98.248587 
L 377.878058 98.248587 
L 378.00776 99.911336 
L 379.815623 101.463235 
L 380.467113 102.386984 
L 381.053203 102.386984 
L 381.441281 104.603983 
L 388.495993 104.881108 
L 390.768191 106.451482 
L 392.261865 99.985236 
L 395.608229 99.708111 
L 395.618188 102.10986 
L 395.629088 101.37086 
L 397.020881 103.125984 
L 398.539008 104.603983 
L 399.452456 106.174357 
L 400.116744 108.114231 
L 401.300609 108.760855 
L 401.971246 107.559981 
L 402.134932 110.33123 
L 402.576154 112.178728 
L 406.412149 112.825353 
L 406.541851 115.227101 
L 408.349714 118.644974 
L 409.001204 115.504226 
L 409.587294 117.536475 
L 409.975372 130.561342 
L 419.302282 136.288589 
L 424.14232 139.521712 
L 424.163179 140.907336 
L 427.073099 142.84721 
L 427.986547 143.955709 
L 428.650835 143.863334 
L 430.505337 148.482081 
L 430.669023 152.638954 
L 431.110245 153.655078 
L 434.94624 155.317827 
L 435.075942 166.95707 
L 436.883805 170.374943 
L 438.121385 170.374943 
L 438.419324 164.924821 
L 438.509463 165.386696 
L 439.822017 166.95707 
L 445.564175 166.77232 
L 447.836373 177.580188 
L 452.697269 177.487813 
L 455.60719 187.187182 
L 456.520638 187.371932 
L 457.184926 187.279557 
L 458.368791 187.279557 
L 459.039428 190.420305 
L 459.203113 194.577178 
L 463.480331 194.577178 
L 463.597092 194.115303 
L 463.610033 194.207678 
L 465.417896 194.302362 
L 466.069386 205.110231 
L 466.655476 208.158604 
L 467.043554 207.789104 
L 474.098266 207.789104 
L 481.210502 209.728978 
L 484.141281 220.352096 
L 485.054729 225.340343 
L 486.902882 224.693719 
L 487.737204 224.786094 
L 488.178427 224.508969 
L 490.637509 224.416594 
L 492.014422 223.585219 
L 492.144124 222.10722 
L 494.603477 221.460596 
L 495.487506 221.460596 
L 495.498406 218.412223 
L 495.577645 226.264093 
L 496.890199 227.003092 
L 499.986062 226.910717 
L 508.219032 227.095467 
L 524.021597 227.003092 
L 524.111736 226.818342 
L 525.42429 226.725967 
L 525.42429 226.725967 
" clip-path="url(#p6ad479e0e1)" style="fill: none; stroke: #002f4a; stroke-width: 2.5; stroke-linecap: square"/>
   </g>
   <g id="patch_3">
    <path d="M 46.051562 244.837969 
L 46.051562 23.077969 
" style="fill: none; stroke: #000000; stroke-width: 0.8; stroke-linejoin: miter; stroke-linecap: square"/>
   </g>
   <g id="patch_4">
    <path d="M 548.251563 244.837969 
L 548.251563 23.077969 
" style="fill: none; stroke: #000000; stroke-width: 0.8; stroke-linejoin: miter; stroke-linecap: square"/>
   </g>
   <g id="patch_5">
    <path d="M 46.051563 244.837969 
L 548.251563 244.837969 
" style="fill: none; stroke: #000000; stroke-width: 0.8; stroke-linejoin: miter; stroke-linecap: square"/>
   </g>
   <g id="patch_6">
    <path d="M 46.051563 23.077969 
L 548.251563 23.077969 
" style="fill: none; stroke: #000000; stroke-width: 0.8; stroke-linejoin: miter; stroke-linecap: square"/>
   </g>
   <g id="text_17">
    <!-- Create VM Type 2 (OpenNebula) -->
    <g transform="translate(192.843828 17.077969) scale(0.13 -0.13)">
     <defs>
      <path id="DejaVuSans-43" d="M 4122 4306 
L 4122 3641 
Q 3803 3938 3442 4084 
Q 3081 4231 2675 4231 
Q 1875 4231 1450 3742 
Q 1025 3253 1025 2328 
Q 1025 1406 1450 917 
Q 1875 428 2675 428 
Q 3081 428 3442 575 
Q 3803 722 4122 1019 
L 4122 359 
Q 3791 134 3420 21 
Q 3050 -91 2638 -91 
Q 1578 -91 968 557 
Q 359 1206 359 2328 
Q 359 3453 968 4101 
Q 1578 4750 2638 4750 
Q 3056 4750 3426 4639 
Q 3797 4528 4122 4306 
z
" transform="scale(0.015625)"/>
      <path id="DejaVuSans-72" d="M 2631 2963 
Q 2534 3019 2420 3045 
Q 2306 3072 2169 3072 
Q 1681 3072 1420 2755 
Q 1159 2438 1159 1844 
L 1159 0 
L 581 0 
L 581 3500 
L 1159 3500 
L 1159 2956 
Q 1341 3275 1631 3429 
Q 1922 3584 2338 3584 
Q 2397 3584 2469 3576 
Q 2541 3569 2628 3553 
L 2631 2963 
z
" transform="scale(0.015625)"/>
      <path id="DejaVuSans-56" d="M 1831 0 
L 50 4666 
L 709 4666 
L 2188 738 
L 3669 4666 
L 4325 4666 
L 2547 0 
L 1831 0 
z
" transform="scale(0.015625)"/>
      <path id="DejaVuSans-4d" d="M 628 4666 
L 1569 4666 
L 2759 1491 
L 3956 4666 
L 4897 4666 
L 4897 0 
L 4281 0 
L 4281 4097 
L 3078 897 
L 2444 897 
L 1241 4097 
L 1241 0 
L 628 0 
L 628 4666 
z
" transform="scale(0.015625)"/>
      <path id="DejaVuSans-79" d="M 2059 -325 
Q 1816 -950 1584 -1140 
Q 1353 -1331 966 -1331 
L 506 -1331 
L 506 -850 
L 844 -850 
Q 1081 -850 1212 -737 
Q 1344 -625 1503 -206 
L 1606 56 
L 191 3500 
L 800 3500 
L 1894 763 
L 2988 3500 
L 3597 3500 
L 2059 -325 
z
" transform="scale(0.015625)"/>
      <path id="DejaVuSans-70" d="M 1159 525 
L 1159 -1331 
L 581 -1331 
L 581 3500 
L 1159 3500 
L 1159 2969 
Q 1341 3281 1617 3432 
Q 1894 3584 2278 3584 
Q 2916 3584 3314 3078 
Q 3713 2572 3713 1747 
Q 3713 922 3314 415 
Q 2916 -91 2278 -91 
Q 1894 -91 1617 61 
Q 1341 213 1159 525 
z
M 3116 1747 
Q 3116 2381 2855 2742 
Q 2594 3103 2138 3103 
Q 1681 3103 1420 2742 
Q 1159 2381 1159 1747 
Q 1159 1113 1420 752 
Q 1681 391 2138 391 
Q 2594 391 2855 752 
Q 3116 1113 3116 1747 
z
" transform="scale(0.015625)"/>
      <path id="DejaVuSans-4f" d="M 2522 4238 
Q 1834 4238 1429 3725 
Q 1025 3213 1025 2328 
Q 1025 1447 1429 934 
Q 1834 422 2522 422 
Q 3209 422 3611 934 
Q 4013 1447 4013 2328 
Q 4013 3213 3611 3725 
Q 3209 4238 2522 4238 
z
M 2522 4750 
Q 3503 4750 4090 4092 
Q 4678 3434 4678 2328 
Q 4678 1225 4090 567 
Q 3503 -91 2522 -91 
Q 1538 -91 948 565 
Q 359 1222 359 2328 
Q 359 3434 948 4092 
Q 1538 4750 2522 4750 
z
" transform="scale(0.015625)"/>
      <path id="DejaVuSans-4e" d="M 628 4666 
L 1478 4666 
L 3547 763 
L 3547 4666 
L 4159 4666 
L 4159 0 
L 3309 0 
L 1241 3903 
L 1241 0 
L 628 0 
L 628 4666 
z
" transform="scale(0.015625)"/>
      <path id="DejaVuSans-62" d="M 3116 1747 
Q 3116 2381 2855 2742 
Q 2594 3103 2138 3103 
Q 1681 3103 1420 2742 
Q 1159 2381 1159 1747 
Q 1159 1113 1420 752 
Q 1681 391 2138 391 
Q 2594 391 2855 752 
Q 3116 1113 3116 1747 
z
M 1159 2969 
Q 1341 3281 1617 3432 
Q 1894 3584 2278 3584 
Q 2916 3584 3314 3078 
Q 3713 2572 3713 1747 
Q 3713 922 3314 415 
Q 2916 -91 2278 -91 
Q 1894 -91 1617 61 
Q 1341 213 1159 525 
L 1159 0 
L 581 0 
L 581 4863 
L 1159 4863 
L 1159 2969 
z
" transform="scale(0.015625)"/>
      <path id="DejaVuSans-75" d="M 544 1381 
L 544 3500 
L 1119 3500 
L 1119 1403 
Q 1119 906 1312 657 
Q 1506 409 1894 409 
Q 2359 409 2629 706 
Q 2900 1003 2900 1516 
L 2900 3500 
L 3475 3500 
L 3475 0 
L 2900 0 
L 2900 538 
Q 2691 219 2414 64 
Q 2138 -91 1772 -91 
Q 1169 -91 856 284 
Q 544 659 544 1381 
z
M 1991 3584 
L 1991 3584 
z
" transform="scale(0.015625)"/>
     </defs>
     <use xlink:href="#DejaVuSans-43"/>
     <use xlink:href="#DejaVuSans-72" x="69.824219"/>
     <use xlink:href="#DejaVuSans-65" x="108.6875"/>
     <use xlink:href="#DejaVuSans-61" x="170.210938"/>
     <use xlink:href="#DejaVuSans-74" x="231.490234"/>
     <use xlink:href="#DejaVuSans-65" x="270.699219"/>
     <use xlink:href="#DejaVuSans-20" x="332.222656"/>
     <use xlink:href="#DejaVuSans-56" x="364.009766"/>
     <use xlink:href="#DejaVuSans-4d" x="432.417969"/>
     <use xlink:href="#DejaVuSans-20" x="518.697266"/>
     <use xlink:href="#DejaVuSans-54" x="550.484375"/>
     <use xlink:href="#DejaVuSans-79" x="595.943359"/>
     <use xlink:href="#DejaVuSans-70" x="655.123047"/>
     <use xlink:href="#DejaVuSans-65" x="718.599609"/>
     <use xlink:href="#DejaVuSans-20" x="780.123047"/>
     <use xlink:href="#DejaVuSans-32" x="811.910156"/>
     <use xlink:href="#DejaVuSans-20" x="875.533203"/>
     <use xlink:href="#DejaVuSans-28" x="907.320312"/>
     <use xlink:href="#DejaVuSans-4f" x="946.333984"/>
     <use xlink:href="#DejaVuSans-70" x="1025.044922"/>
     <use xlink:href="#DejaVuSans-65" x="1088.521484"/>
     <use xlink:href="#DejaVuSans-6e" x="1150.044922"/>
     <use xlink:href="#DejaVuSans-4e" x="1213.423828"/>
     <use xlink:href="#DejaVuSans-65" x="1288.228516"/>
     <use xlink:href="#DejaVuSans-62" x="1349.751953"/>
     <use xlink:href="#DejaVuSans-75" x="1413.228516"/>
     <use xlink:href="#DejaVuSans-6c" x="1476.607422"/>
     <use xlink:href="#DejaVuSans-61" x="1504.390625"/>
     <use xlink:href="#DejaVuSans-29" x="1565.669922"/>
    </g>
   </g>
   <g id="legend_1">
    <g id="patch_7">
     <path d="M 471.217188 85.519219 
L 539.851563 85.519219 
Q 542.251563 85.519219 542.251563 83.119219 
L 542.251563 31.477969 
Q 542.251563 29.077969 539.851563 29.077969 
L 471.217188 29.077969 
Q 468.817188 29.077969 468.817188 31.477969 
L 468.817188 83.119219 
Q 468.817188 85.519219 471.217188 85.519219 
z
" style="fill: #ffffff; opacity: 0.8; stroke: #cccccc; stroke-linejoin: miter"/>
    </g>
    <g id="line2d_18">
     <path d="M 473.617188 38.796094 
L 485.617188 38.796094 
L 497.617188 38.796094 
" style="fill: none; stroke: #009384; stroke-width: 2.5; stroke-linecap: square"/>
    </g>
    <g id="text_18">
     <!--  CPU -->
     <g transform="translate(507.217188 42.996094) scale(0.12 -0.12)">
      <defs>
       <path id="DejaVuSans-50" d="M 1259 4147 
L 1259 2394 
L 2053 2394 
Q 2494 2394 2734 2622 
Q 2975 2850 2975 3272 
Q 2975 3691 2734 3919 
Q 2494 4147 2053 4147 
L 1259 4147 
z
M 628 4666 
L 2053 4666 
Q 2838 4666 3239 4311 
Q 3641 3956 3641 3272 
Q 3641 2581 3239 2228 
Q 2838 1875 2053 1875 
L 1259 1875 
L 1259 0 
L 628 0 
L 628 4666 
z
" transform="scale(0.015625)"/>
      </defs>
      <use xlink:href="#DejaVuSans-20"/>
      <use xlink:href="#DejaVuSans-43" x="31.787109"/>
      <use xlink:href="#DejaVuSans-50" x="101.611328"/>
      <use xlink:href="#DejaVuSans-55" x="161.914062"/>
     </g>
    </g>
    <g id="line2d_19">
     <path d="M 473.617188 56.409844 
L 485.617188 56.409844 
L 497.617188 56.409844 
" style="fill: none; stroke: #b85741; stroke-width: 2.5; stroke-linecap: square"/>
    </g>
    <g id="text_19">
     <!--  RAM -->
     <g transform="translate(507.217188 60.609844) scale(0.12 -0.12)">
      <defs>
       <path id="DejaVuSans-52" d="M 2841 2188 
Q 3044 2119 3236 1894 
Q 3428 1669 3622 1275 
L 4263 0 
L 3584 0 
L 2988 1197 
Q 2756 1666 2539 1819 
Q 2322 1972 1947 1972 
L 1259 1972 
L 1259 0 
L 628 0 
L 628 4666 
L 2053 4666 
Q 2853 4666 3247 4331 
Q 3641 3997 3641 3322 
Q 3641 2881 3436 2590 
Q 3231 2300 2841 2188 
z
M 1259 4147 
L 1259 2491 
L 2053 2491 
Q 2509 2491 2742 2702 
Q 2975 2913 2975 3322 
Q 2975 3731 2742 3939 
Q 2509 4147 2053 4147 
L 1259 4147 
z
" transform="scale(0.015625)"/>
       <path id="DejaVuSans-41" d="M 2188 4044 
L 1331 1722 
L 3047 1722 
L 2188 4044 
z
M 1831 4666 
L 2547 4666 
L 4325 0 
L 3669 0 
L 3244 1197 
L 1141 1197 
L 716 0 
L 50 0 
L 1831 4666 
z
" transform="scale(0.015625)"/>
      </defs>
      <use xlink:href="#DejaVuSans-20"/>
      <use xlink:href="#DejaVuSans-52" x="31.787109"/>
      <use xlink:href="#DejaVuSans-41" x="97.269531"/>
      <use xlink:href="#DejaVuSans-4d" x="165.677734"/>
     </g>
    </g>
    <g id="line2d_20">
     <path d="M 473.617188 74.023594 
L 485.617188 74.023594 
L 497.617188 74.023594 
" style="fill: none; stroke: #002f4a; stroke-width: 2.5; stroke-linecap: square"/>
    </g>
    <g id="text_20">
     <!--  Disk -->
     <g transform="translate(507.217188 78.223594) scale(0.12 -0.12)">
      <defs>
       <path id="DejaVuSans-44" d="M 1259 4147 
L 1259 519 
L 2022 519 
Q 2988 519 3436 956 
Q 3884 1394 3884 2338 
Q 3884 3275 3436 3711 
Q 2988 4147 2022 4147 
L 1259 4147 
z
M 628 4666 
L 1925 4666 
Q 3281 4666 3915 4102 
Q 4550 3538 4550 2338 
Q 4550 1131 3912 565 
Q 3275 0 1925 0 
L 628 0 
L 628 4666 
z
" transform="scale(0.015625)"/>
       <path id="DejaVuSans-6b" d="M 581 4863 
L 1159 4863 
L 1159 1991 
L 2875 3500 
L 3609 3500 
L 1753 1863 
L 3688 0 
L 2938 0 
L 1159 1709 
L 1159 0 
L 581 0 
L 581 4863 
z
" transform="scale(0.015625)"/>
      </defs>
      <use xlink:href="#DejaVuSans-20"/>
      <use xlink:href="#DejaVuSans-44" x="31.787109"/>
      <use xlink:href="#DejaVuSans-69" x="108.789062"/>
      <use xlink:href="#DejaVuSans-73" x="136.572266"/>
      <use xlink:href="#DejaVuSans-6b" x="188.671875"/>
     </g>
    </g>
   </g>
  </g>
 </g>
 <defs>
  <clipPath id="p6ad479e0e1">
   <rect x="46.051562" y="23.077969" width="502.2" height="221.76"/>
  </clipPath>
 </defs>
</svg>
