<?xml version="1.0" encoding="utf-8" standalone="no"?>
<!DOCTYPE svg PUBLIC "-//W3C//DTD SVG 1.1//EN"
  "http://www.w3.org/Graphics/SVG/1.1/DTD/svg11.dtd">
<svg xmlns:xlink="http://www.w3.org/1999/xlink" width="555.451562pt" height="287.233281pt" viewBox="0 0 555.451562 287.233281" xmlns="http://www.w3.org/2000/svg" version="1.1">
 <metadata>
  <rdf:RDF xmlns:dc="http://purl.org/dc/elements/1.1/" xmlns:cc="http://creativecommons.org/ns#" xmlns:rdf="http://www.w3.org/1999/02/22-rdf-syntax-ns#">
   <cc:Work>
    <dc:type rdf:resource="http://purl.org/dc/dcmitype/StillImage"/>
    <dc:date>2024-05-21T10:08:02.263544</dc:date>
    <dc:format>image/svg+xml</dc:format>
    <dc:creator>
     <cc:Agent>
      <dc:title>Matplotlib v3.8.4, https://matplotlib.org/</dc:title>
     </cc:Agent>
    </dc:creator>
   </cc:Work>
  </rdf:RDF>
 </metadata>
 <defs>
  <style type="text/css">*{stroke-linejoin: round; stroke-linecap: butt}</style>
 </defs>
 <g id="figure_1">
  <g id="patch_1">
   <path d="M 0 287.233281 
L 555.451562 287.233281 
L 555.451562 0 
L 0 0 
z
" style="fill: #f3f7f8"/>
  </g>
  <g id="axes_1">
   <g id="patch_2">
    <path d="M 46.051562 244.837969 
L 548.251563 244.837969 
L 548.251563 23.077969 
L 46.051562 23.077969 
z
" style="fill: #ffffff"/>
   </g>
   <g id="matplotlib.axis_1">
    <g id="xtick_1">
     <g id="line2d_1">
      <defs>
       <path id="m63bd8fff12" d="M 0 0 
L 0 3.5 
" style="stroke: #000000; stroke-width: 0.8"/>
      </defs>
      <g>
       <use xlink:href="#m63bd8fff12" x="49.532387" y="244.837969" style="stroke: #000000; stroke-width: 0.8"/>
      </g>
     </g>
     <g id="text_1">
      <!-- −5 -->
      <g transform="translate(40.687075 260.956094) scale(0.12 -0.12)">
       <defs>
        <path id="DejaVuSans-2212" d="M 678 2272 
L 4684 2272 
L 4684 1741 
L 678 1741 
L 678 2272 
z
" transform="scale(0.015625)"/>
        <path id="DejaVuSans-35" d="M 691 4666 
L 3169 4666 
L 3169 4134 
L 1269 4134 
L 1269 2991 
Q 1406 3038 1543 3061 
Q 1681 3084 1819 3084 
Q 2600 3084 3056 2656 
Q 3513 2228 3513 1497 
Q 3513 744 3044 326 
Q 2575 -91 1722 -91 
Q 1428 -91 1123 -41 
Q 819 9 494 109 
L 494 744 
Q 775 591 1075 516 
Q 1375 441 1709 441 
Q 2250 441 2565 725 
Q 2881 1009 2881 1497 
Q 2881 1984 2565 2268 
Q 2250 2553 1709 2553 
Q 1456 2553 1204 2497 
Q 953 2441 691 2322 
L 691 4666 
z
" transform="scale(0.015625)"/>
       </defs>
       <use xlink:href="#DejaVuSans-2212"/>
       <use xlink:href="#DejaVuSans-35" x="83.789062"/>
      </g>
     </g>
    </g>
    <g id="xtick_2">
     <g id="line2d_2">
      <g>
       <use xlink:href="#m63bd8fff12" x="126.861327" y="244.837969" style="stroke: #000000; stroke-width: 0.8"/>
      </g>
     </g>
     <g id="text_2">
      <!-- 0 -->
      <g transform="translate(123.043827 260.956094) scale(0.12 -0.12)">
       <defs>
        <path id="DejaVuSans-30" d="M 2034 4250 
Q 1547 4250 1301 3770 
Q 1056 3291 1056 2328 
Q 1056 1369 1301 889 
Q 1547 409 2034 409 
Q 2525 409 2770 889 
Q 3016 1369 3016 2328 
Q 3016 3291 2770 3770 
Q 2525 4250 2034 4250 
z
M 2034 4750 
Q 2819 4750 3233 4129 
Q 3647 3509 3647 2328 
Q 3647 1150 3233 529 
Q 2819 -91 2034 -91 
Q 1250 -91 836 529 
Q 422 1150 422 2328 
Q 422 3509 836 4129 
Q 1250 4750 2034 4750 
z
" transform="scale(0.015625)"/>
       </defs>
       <use xlink:href="#DejaVuSans-30"/>
      </g>
     </g>
    </g>
    <g id="xtick_3">
     <g id="line2d_3">
      <g>
       <use xlink:href="#m63bd8fff12" x="204.190268" y="244.837969" style="stroke: #000000; stroke-width: 0.8"/>
      </g>
     </g>
     <g id="text_3">
      <!-- 5 -->
      <g transform="translate(200.372768 260.956094) scale(0.12 -0.12)">
       <use xlink:href="#DejaVuSans-35"/>
      </g>
     </g>
    </g>
    <g id="xtick_4">
     <g id="line2d_4">
      <g>
       <use xlink:href="#m63bd8fff12" x="281.519208" y="244.837969" style="stroke: #000000; stroke-width: 0.8"/>
      </g>
     </g>
     <g id="text_4">
      <!-- 10 -->
      <g transform="translate(273.884208 260.956094) scale(0.12 -0.12)">
       <defs>
        <path id="DejaVuSans-31" d="M 794 531 
L 1825 531 
L 1825 4091 
L 703 3866 
L 703 4441 
L 1819 4666 
L 2450 4666 
L 2450 531 
L 3481 531 
L 3481 0 
L 794 0 
L 794 531 
z
" transform="scale(0.015625)"/>
       </defs>
       <use xlink:href="#DejaVuSans-31"/>
       <use xlink:href="#DejaVuSans-30" x="63.623047"/>
      </g>
     </g>
    </g>
    <g id="xtick_5">
     <g id="line2d_5">
      <g>
       <use xlink:href="#m63bd8fff12" x="358.848148" y="244.837969" style="stroke: #000000; stroke-width: 0.8"/>
      </g>
     </g>
     <g id="text_5">
      <!-- 15 -->
      <g transform="translate(351.213148 260.956094) scale(0.12 -0.12)">
       <use xlink:href="#DejaVuSans-31"/>
       <use xlink:href="#DejaVuSans-35" x="63.623047"/>
      </g>
     </g>
    </g>
    <g id="xtick_6">
     <g id="line2d_6">
      <g>
       <use xlink:href="#m63bd8fff12" x="436.177088" y="244.837969" style="stroke: #000000; stroke-width: 0.8"/>
      </g>
     </g>
     <g id="text_6">
      <!-- 20 -->
      <g transform="translate(428.542088 260.956094) scale(0.12 -0.12)">
       <defs>
        <path id="DejaVuSans-32" d="M 1228 531 
L 3431 531 
L 3431 0 
L 469 0 
L 469 531 
Q 828 903 1448 1529 
Q 2069 2156 2228 2338 
Q 2531 2678 2651 2914 
Q 2772 3150 2772 3378 
Q 2772 3750 2511 3984 
Q 2250 4219 1831 4219 
Q 1534 4219 1204 4116 
Q 875 4013 500 3803 
L 500 4441 
Q 881 4594 1212 4672 
Q 1544 4750 1819 4750 
Q 2544 4750 2975 4387 
Q 3406 4025 3406 3419 
Q 3406 3131 3298 2873 
Q 3191 2616 2906 2266 
Q 2828 2175 2409 1742 
Q 1991 1309 1228 531 
z
" transform="scale(0.015625)"/>
       </defs>
       <use xlink:href="#DejaVuSans-32"/>
       <use xlink:href="#DejaVuSans-30" x="63.623047"/>
      </g>
     </g>
    </g>
    <g id="xtick_7">
     <g id="line2d_7">
      <g>
       <use xlink:href="#m63bd8fff12" x="513.506029" y="244.837969" style="stroke: #000000; stroke-width: 0.8"/>
      </g>
     </g>
     <g id="text_7">
      <!-- 25 -->
      <g transform="translate(505.871029 260.956094) scale(0.12 -0.12)">
       <use xlink:href="#DejaVuSans-32"/>
       <use xlink:href="#DejaVuSans-35" x="63.623047"/>
      </g>
     </g>
    </g>
    <g id="text_8">
     <!-- Time (s) -->
     <g transform="translate(270.723984 277.329687) scale(0.13 -0.13)">
      <defs>
       <path id="DejaVuSans-54" d="M -19 4666 
L 3928 4666 
L 3928 4134 
L 2272 4134 
L 2272 0 
L 1638 0 
L 1638 4134 
L -19 4134 
L -19 4666 
z
" transform="scale(0.015625)"/>
       <path id="DejaVuSans-69" d="M 603 3500 
L 1178 3500 
L 1178 0 
L 603 0 
L 603 3500 
z
M 603 4863 
L 1178 4863 
L 1178 4134 
L 603 4134 
L 603 4863 
z
" transform="scale(0.015625)"/>
       <path id="DejaVuSans-6d" d="M 3328 2828 
Q 3544 3216 3844 3400 
Q 4144 3584 4550 3584 
Q 5097 3584 5394 3201 
Q 5691 2819 5691 2113 
L 5691 0 
L 5113 0 
L 5113 2094 
Q 5113 2597 4934 2840 
Q 4756 3084 4391 3084 
Q 3944 3084 3684 2787 
Q 3425 2491 3425 1978 
L 3425 0 
L 2847 0 
L 2847 2094 
Q 2847 2600 2669 2842 
Q 2491 3084 2119 3084 
Q 1678 3084 1418 2786 
Q 1159 2488 1159 1978 
L 1159 0 
L 581 0 
L 581 3500 
L 1159 3500 
L 1159 2956 
Q 1356 3278 1631 3431 
Q 1906 3584 2284 3584 
Q 2666 3584 2933 3390 
Q 3200 3197 3328 2828 
z
" transform="scale(0.015625)"/>
       <path id="DejaVuSans-65" d="M 3597 1894 
L 3597 1613 
L 953 1613 
Q 991 1019 1311 708 
Q 1631 397 2203 397 
Q 2534 397 2845 478 
Q 3156 559 3463 722 
L 3463 178 
Q 3153 47 2828 -22 
Q 2503 -91 2169 -91 
Q 1331 -91 842 396 
Q 353 884 353 1716 
Q 353 2575 817 3079 
Q 1281 3584 2069 3584 
Q 2775 3584 3186 3129 
Q 3597 2675 3597 1894 
z
M 3022 2063 
Q 3016 2534 2758 2815 
Q 2500 3097 2075 3097 
Q 1594 3097 1305 2825 
Q 1016 2553 972 2059 
L 3022 2063 
z
" transform="scale(0.015625)"/>
       <path id="DejaVuSans-20" transform="scale(0.015625)"/>
       <path id="DejaVuSans-28" d="M 1984 4856 
Q 1566 4138 1362 3434 
Q 1159 2731 1159 2009 
Q 1159 1288 1364 580 
Q 1569 -128 1984 -844 
L 1484 -844 
Q 1016 -109 783 600 
Q 550 1309 550 2009 
Q 550 2706 781 3412 
Q 1013 4119 1484 4856 
L 1984 4856 
z
" transform="scale(0.015625)"/>
       <path id="DejaVuSans-73" d="M 2834 3397 
L 2834 2853 
Q 2591 2978 2328 3040 
Q 2066 3103 1784 3103 
Q 1356 3103 1142 2972 
Q 928 2841 928 2578 
Q 928 2378 1081 2264 
Q 1234 2150 1697 2047 
L 1894 2003 
Q 2506 1872 2764 1633 
Q 3022 1394 3022 966 
Q 3022 478 2636 193 
Q 2250 -91 1575 -91 
Q 1294 -91 989 -36 
Q 684 19 347 128 
L 347 722 
Q 666 556 975 473 
Q 1284 391 1588 391 
Q 1994 391 2212 530 
Q 2431 669 2431 922 
Q 2431 1156 2273 1281 
Q 2116 1406 1581 1522 
L 1381 1569 
Q 847 1681 609 1914 
Q 372 2147 372 2553 
Q 372 3047 722 3315 
Q 1072 3584 1716 3584 
Q 2034 3584 2315 3537 
Q 2597 3491 2834 3397 
z
" transform="scale(0.015625)"/>
       <path id="DejaVuSans-29" d="M 513 4856 
L 1013 4856 
Q 1481 4119 1714 3412 
Q 1947 2706 1947 2009 
Q 1947 1309 1714 600 
Q 1481 -109 1013 -844 
L 513 -844 
Q 928 -128 1133 580 
Q 1338 1288 1338 2009 
Q 1338 2731 1133 3434 
Q 928 4138 513 4856 
z
" transform="scale(0.015625)"/>
      </defs>
      <use xlink:href="#DejaVuSans-54"/>
      <use xlink:href="#DejaVuSans-69" x="57.958984"/>
      <use xlink:href="#DejaVuSans-6d" x="85.742188"/>
      <use xlink:href="#DejaVuSans-65" x="183.154297"/>
      <use xlink:href="#DejaVuSans-20" x="244.677734"/>
      <use xlink:href="#DejaVuSans-28" x="276.464844"/>
      <use xlink:href="#DejaVuSans-73" x="315.478516"/>
      <use xlink:href="#DejaVuSans-29" x="367.578125"/>
     </g>
    </g>
   </g>
   <g id="matplotlib.axis_2">
    <g id="ytick_1">
     <g id="line2d_8">
      <defs>
       <path id="me29c6bf042" d="M 0 0 
L -3.5 0 
" style="stroke: #000000; stroke-width: 0.8"/>
      </defs>
      <g>
       <use xlink:href="#me29c6bf042" x="46.051562" y="232.561785" style="stroke: #000000; stroke-width: 0.8"/>
      </g>
     </g>
     <g id="text_9">
      <!-- 2 -->
      <g transform="translate(31.416562 237.120847) scale(0.12 -0.12)">
       <use xlink:href="#DejaVuSans-32"/>
      </g>
     </g>
    </g>
    <g id="ytick_2">
     <g id="line2d_9">
      <g>
       <use xlink:href="#me29c6bf042" x="46.051562" y="202.170621" style="stroke: #000000; stroke-width: 0.8"/>
      </g>
     </g>
     <g id="text_10">
      <!-- 4 -->
      <g transform="translate(31.416562 206.729684) scale(0.12 -0.12)">
       <defs>
        <path id="DejaVuSans-34" d="M 2419 4116 
L 825 1625 
L 2419 1625 
L 2419 4116 
z
M 2253 4666 
L 3047 4666 
L 3047 1625 
L 3713 1625 
L 3713 1100 
L 3047 1100 
L 3047 0 
L 2419 0 
L 2419 1100 
L 313 1100 
L 313 1709 
L 2253 4666 
z
" transform="scale(0.015625)"/>
       </defs>
       <use xlink:href="#DejaVuSans-34"/>
      </g>
     </g>
    </g>
    <g id="ytick_3">
     <g id="line2d_10">
      <g>
       <use xlink:href="#me29c6bf042" x="46.051562" y="171.779458" style="stroke: #000000; stroke-width: 0.8"/>
      </g>
     </g>
     <g id="text_11">
      <!-- 6 -->
      <g transform="translate(31.416562 176.33852) scale(0.12 -0.12)">
       <defs>
        <path id="DejaVuSans-36" d="M 2113 2584 
Q 1688 2584 1439 2293 
Q 1191 2003 1191 1497 
Q 1191 994 1439 701 
Q 1688 409 2113 409 
Q 2538 409 2786 701 
Q 3034 994 3034 1497 
Q 3034 2003 2786 2293 
Q 2538 2584 2113 2584 
z
M 3366 4563 
L 3366 3988 
Q 3128 4100 2886 4159 
Q 2644 4219 2406 4219 
Q 1781 4219 1451 3797 
Q 1122 3375 1075 2522 
Q 1259 2794 1537 2939 
Q 1816 3084 2150 3084 
Q 2853 3084 3261 2657 
Q 3669 2231 3669 1497 
Q 3669 778 3244 343 
Q 2819 -91 2113 -91 
Q 1303 -91 875 529 
Q 447 1150 447 2328 
Q 447 3434 972 4092 
Q 1497 4750 2381 4750 
Q 2619 4750 2861 4703 
Q 3103 4656 3366 4563 
z
" transform="scale(0.015625)"/>
       </defs>
       <use xlink:href="#DejaVuSans-36"/>
      </g>
     </g>
    </g>
    <g id="ytick_4">
     <g id="line2d_11">
      <g>
       <use xlink:href="#me29c6bf042" x="46.051562" y="141.388294" style="stroke: #000000; stroke-width: 0.8"/>
      </g>
     </g>
     <g id="text_12">
      <!-- 8 -->
      <g transform="translate(31.416562 145.947357) scale(0.12 -0.12)">
       <defs>
        <path id="DejaVuSans-38" d="M 2034 2216 
Q 1584 2216 1326 1975 
Q 1069 1734 1069 1313 
Q 1069 891 1326 650 
Q 1584 409 2034 409 
Q 2484 409 2743 651 
Q 3003 894 3003 1313 
Q 3003 1734 2745 1975 
Q 2488 2216 2034 2216 
z
M 1403 2484 
Q 997 2584 770 2862 
Q 544 3141 544 3541 
Q 544 4100 942 4425 
Q 1341 4750 2034 4750 
Q 2731 4750 3128 4425 
Q 3525 4100 3525 3541 
Q 3525 3141 3298 2862 
Q 3072 2584 2669 2484 
Q 3125 2378 3379 2068 
Q 3634 1759 3634 1313 
Q 3634 634 3220 271 
Q 2806 -91 2034 -91 
Q 1263 -91 848 271 
Q 434 634 434 1313 
Q 434 1759 690 2068 
Q 947 2378 1403 2484 
z
M 1172 3481 
Q 1172 3119 1398 2916 
Q 1625 2713 2034 2713 
Q 2441 2713 2670 2916 
Q 2900 3119 2900 3481 
Q 2900 3844 2670 4047 
Q 2441 4250 2034 4250 
Q 1625 4250 1398 4047 
Q 1172 3844 1172 3481 
z
" transform="scale(0.015625)"/>
       </defs>
       <use xlink:href="#DejaVuSans-38"/>
      </g>
     </g>
    </g>
    <g id="ytick_5">
     <g id="line2d_12">
      <g>
       <use xlink:href="#me29c6bf042" x="46.051562" y="110.997131" style="stroke: #000000; stroke-width: 0.8"/>
      </g>
     </g>
     <g id="text_13">
      <!-- 10 -->
      <g transform="translate(23.781562 115.556193) scale(0.12 -0.12)">
       <use xlink:href="#DejaVuSans-31"/>
       <use xlink:href="#DejaVuSans-30" x="63.623047"/>
      </g>
     </g>
    </g>
    <g id="ytick_6">
     <g id="line2d_13">
      <g>
       <use xlink:href="#me29c6bf042" x="46.051562" y="80.605967" style="stroke: #000000; stroke-width: 0.8"/>
      </g>
     </g>
     <g id="text_14">
      <!-- 12 -->
      <g transform="translate(23.781562 85.16503) scale(0.12 -0.12)">
       <use xlink:href="#DejaVuSans-31"/>
       <use xlink:href="#DejaVuSans-32" x="63.623047"/>
      </g>
     </g>
    </g>
    <g id="ytick_7">
     <g id="line2d_14">
      <g>
       <use xlink:href="#me29c6bf042" x="46.051562" y="50.214804" style="stroke: #000000; stroke-width: 0.8"/>
      </g>
     </g>
     <g id="text_15">
      <!-- 14 -->
      <g transform="translate(23.781562 54.773866) scale(0.12 -0.12)">
       <use xlink:href="#DejaVuSans-31"/>
       <use xlink:href="#DejaVuSans-34" x="63.623047"/>
      </g>
     </g>
    </g>
    <g id="text_16">
     <!-- Utilization (%) -->
     <g transform="translate(17.077969 179.839844) rotate(-90) scale(0.13 -0.13)">
      <defs>
       <path id="DejaVuSans-55" d="M 556 4666 
L 1191 4666 
L 1191 1831 
Q 1191 1081 1462 751 
Q 1734 422 2344 422 
Q 2950 422 3222 751 
Q 3494 1081 3494 1831 
L 3494 4666 
L 4128 4666 
L 4128 1753 
Q 4128 841 3676 375 
Q 3225 -91 2344 -91 
Q 1459 -91 1007 375 
Q 556 841 556 1753 
L 556 4666 
z
" transform="scale(0.015625)"/>
       <path id="DejaVuSans-74" d="M 1172 4494 
L 1172 3500 
L 2356 3500 
L 2356 3053 
L 1172 3053 
L 1172 1153 
Q 1172 725 1289 603 
Q 1406 481 1766 481 
L 2356 481 
L 2356 0 
L 1766 0 
Q 1100 0 847 248 
Q 594 497 594 1153 
L 594 3053 
L 172 3053 
L 172 3500 
L 594 3500 
L 594 4494 
L 1172 4494 
z
" transform="scale(0.015625)"/>
       <path id="DejaVuSans-6c" d="M 603 4863 
L 1178 4863 
L 1178 0 
L 603 0 
L 603 4863 
z
" transform="scale(0.015625)"/>
       <path id="DejaVuSans-7a" d="M 353 3500 
L 3084 3500 
L 3084 2975 
L 922 459 
L 3084 459 
L 3084 0 
L 275 0 
L 275 525 
L 2438 3041 
L 353 3041 
L 353 3500 
z
" transform="scale(0.015625)"/>
       <path id="DejaVuSans-61" d="M 2194 1759 
Q 1497 1759 1228 1600 
Q 959 1441 959 1056 
Q 959 750 1161 570 
Q 1363 391 1709 391 
Q 2188 391 2477 730 
Q 2766 1069 2766 1631 
L 2766 1759 
L 2194 1759 
z
M 3341 1997 
L 3341 0 
L 2766 0 
L 2766 531 
Q 2569 213 2275 61 
Q 1981 -91 1556 -91 
Q 1019 -91 701 211 
Q 384 513 384 1019 
Q 384 1609 779 1909 
Q 1175 2209 1959 2209 
L 2766 2209 
L 2766 2266 
Q 2766 2663 2505 2880 
Q 2244 3097 1772 3097 
Q 1472 3097 1187 3025 
Q 903 2953 641 2809 
L 641 3341 
Q 956 3463 1253 3523 
Q 1550 3584 1831 3584 
Q 2591 3584 2966 3190 
Q 3341 2797 3341 1997 
z
" transform="scale(0.015625)"/>
       <path id="DejaVuSans-6f" d="M 1959 3097 
Q 1497 3097 1228 2736 
Q 959 2375 959 1747 
Q 959 1119 1226 758 
Q 1494 397 1959 397 
Q 2419 397 2687 759 
Q 2956 1122 2956 1747 
Q 2956 2369 2687 2733 
Q 2419 3097 1959 3097 
z
M 1959 3584 
Q 2709 3584 3137 3096 
Q 3566 2609 3566 1747 
Q 3566 888 3137 398 
Q 2709 -91 1959 -91 
Q 1206 -91 779 398 
Q 353 888 353 1747 
Q 353 2609 779 3096 
Q 1206 3584 1959 3584 
z
" transform="scale(0.015625)"/>
       <path id="DejaVuSans-6e" d="M 3513 2113 
L 3513 0 
L 2938 0 
L 2938 2094 
Q 2938 2591 2744 2837 
Q 2550 3084 2163 3084 
Q 1697 3084 1428 2787 
Q 1159 2491 1159 1978 
L 1159 0 
L 581 0 
L 581 3500 
L 1159 3500 
L 1159 2956 
Q 1366 3272 1645 3428 
Q 1925 3584 2291 3584 
Q 2894 3584 3203 3211 
Q 3513 2838 3513 2113 
z
" transform="scale(0.015625)"/>
       <path id="DejaVuSans-25" d="M 4653 2053 
Q 4381 2053 4226 1822 
Q 4072 1591 4072 1178 
Q 4072 772 4226 539 
Q 4381 306 4653 306 
Q 4919 306 5073 539 
Q 5228 772 5228 1178 
Q 5228 1588 5073 1820 
Q 4919 2053 4653 2053 
z
M 4653 2450 
Q 5147 2450 5437 2106 
Q 5728 1763 5728 1178 
Q 5728 594 5436 251 
Q 5144 -91 4653 -91 
Q 4153 -91 3862 251 
Q 3572 594 3572 1178 
Q 3572 1766 3864 2108 
Q 4156 2450 4653 2450 
z
M 1428 4353 
Q 1159 4353 1004 4120 
Q 850 3888 850 3481 
Q 850 3069 1003 2837 
Q 1156 2606 1428 2606 
Q 1700 2606 1854 2837 
Q 2009 3069 2009 3481 
Q 2009 3884 1853 4118 
Q 1697 4353 1428 4353 
z
M 4250 4750 
L 4750 4750 
L 1831 -91 
L 1331 -91 
L 4250 4750 
z
M 1428 4750 
Q 1922 4750 2215 4408 
Q 2509 4066 2509 3481 
Q 2509 2891 2217 2550 
Q 1925 2209 1428 2209 
Q 931 2209 642 2551 
Q 353 2894 353 3481 
Q 353 4063 643 4406 
Q 934 4750 1428 4750 
z
" transform="scale(0.015625)"/>
      </defs>
      <use xlink:href="#DejaVuSans-55"/>
      <use xlink:href="#DejaVuSans-74" x="73.193359"/>
      <use xlink:href="#DejaVuSans-69" x="112.402344"/>
      <use xlink:href="#DejaVuSans-6c" x="140.185547"/>
      <use xlink:href="#DejaVuSans-69" x="167.96875"/>
      <use xlink:href="#DejaVuSans-7a" x="195.751953"/>
      <use xlink:href="#DejaVuSans-61" x="248.242188"/>
      <use xlink:href="#DejaVuSans-74" x="309.521484"/>
      <use xlink:href="#DejaVuSans-69" x="348.730469"/>
      <use xlink:href="#DejaVuSans-6f" x="376.513672"/>
      <use xlink:href="#DejaVuSans-6e" x="437.695312"/>
      <use xlink:href="#DejaVuSans-20" x="501.074219"/>
      <use xlink:href="#DejaVuSans-28" x="532.861328"/>
      <use xlink:href="#DejaVuSans-25" x="571.875"/>
      <use xlink:href="#DejaVuSans-29" x="666.894531"/>
     </g>
    </g>
   </g>
   <g id="line2d_15">
    <path d="M 68.878835 196.740049 
L 70.476327 196.525668 
L 72.145813 196.03982 
L 72.161325 196.763869 
L 74.86244 197.072709 
L 76.799917 197.18606 
L 76.916436 196.967572 
L 79.752568 197.165525 
L 80.067451 197.37005 
L 85.467965 201.024382 
L 88.662285 201.180034 
L 91.231601 201.08311 
L 93.512046 200.525392 
L 97.899134 199.855554 
L 99.810411 199.352868 
L 101.407904 199.170931 
L 102.62537 198.913838 
L 103.077389 198.594321 
L 103.092901 198.699047 
L 103.406795 198.135168 
L 103.508219 198.646068 
L 105.794016 198.49904 
L 107.731493 198.155291 
L 107.848012 197.83988 
L 108.870177 198.163095 
L 110.684144 197.846862 
L 110.999027 197.628785 
L 116.399541 197.523648 
L 119.593861 192.30376 
L 122.163177 187.118371 
L 124.343714 183.450486 
L 128.83071 170.847188 
L 130.741987 166.029368 
L 132.33948 161.686717 
L 133.556946 156.830702 
L 134.008965 157.190878 
L 134.024477 154.071266 
L 134.338371 152.722966 
L 134.439796 148.592232 
L 136.725593 144.907098 
L 138.663069 140.177165 
L 138.779588 135.762233 
L 139.801753 131.750189 
L 139.909411 126.443234 
L 141.61572 124.600051 
L 141.930604 122.523596 
L 147.331118 115.686816 
L 153.094753 114.453099 
L 155.27529 112.675627 
L 156.856002 110.320311 
L 161.673564 109.421308 
L 164.488523 106.249128 
L 164.940541 104.606362 
L 164.956053 103.621524 
L 165.371372 102.340167 
L 165.991225 101.279351 
L 167.657169 99.872733 
L 169.594645 98.49897 
L 169.711165 97.502222 
L 170.733329 96.569131 
L 170.840987 94.766607 
L 172.547296 93.392433 
L 172.86218 92.343528 
L 173.767825 90.596446 
L 175.228074 88.699463 
L 180.735735 86.346201 
L 187.787578 83.647137 
L 192.60514 82.385493 
L 194.202632 81.081959 
L 195.420099 79.516814 
L 195.872117 77.500319 
L 195.887629 75.27314 
L 196.302948 73.985622 
L 196.922801 72.635679 
L 198.588745 71.200724 
L 200.526221 70.221225 
L 200.642741 68.964098 
L 201.664906 67.796913 
L 201.772563 65.948802 
L 203.478872 62.50844 
L 204.699401 61.611901 
L 206.15965 60.164214 
L 214.957905 56.504953 
L 219.259544 53.658451 
L 223.536716 51.848124 
L 225.134208 50.163057 
L 226.351675 48.444313 
L 226.803693 46.288594 
L 226.819206 45.054056 
L 227.854377 38.06532 
L 229.520321 36.182711 
L 231.457798 34.659457 
L 231.574317 33.157969 
L 232.596482 37.320737 
L 232.704139 40.719619 
L 234.184942 39.457564 
L 234.410448 42.138968 
L 235.630977 43.707399 
L 237.091226 46.776085 
L 240.125846 48.43035 
L 242.598887 51.31135 
L 250.19112 52.020614 
L 256.065784 53.994397 
L 257.283251 56.036765 
L 258.1661 58.008905 
L 258.785953 60.618028 
L 261.355269 64.102744 
L 262.389374 66.391938 
L 262.505893 69.850781 
L 263.528058 70.15921 
L 263.635715 75.945031 
L 265.116518 75.956941 
L 265.342025 76.651009 
L 266.562554 76.87155 
L 268.022802 76.034561 
L 271.057422 76.221015 
L 273.201058 76.785716 
L 273.21657 77.595599 
L 273.530463 75.683831 
L 275.917685 74.326907 
L 281.122696 74.184807 
L 285.399868 75.232892 
L 286.99736 76.543819 
L 288.214827 77.698272 
L 289.097676 78.379199 
L 289.717529 79.512707 
L 292.286845 78.87285 
L 293.32095 80.118887 
L 293.437469 77.653507 
L 294.459634 79.448639 
L 294.567291 81.071281 
L 296.273601 82.582625 
L 298.954378 85.46034 
L 301.988998 86.149069 
L 304.132634 87.511743 
L 304.148146 88.345447 
L 304.462039 90.520879 
L 306.849261 92.123808 
L 311.513882 93.472107 
L 312.054272 94.809319 
L 319.146403 95.869313 
L 320.029252 96.820474 
L 320.649105 97.772457 
L 323.218421 98.987693 
L 324.369045 99.973352 
L 325.39121 102.951276 
L 325.498867 104.787477 
L 327.205177 105.548488 
L 328.425706 107.342388 
L 329.885955 108.180609 
L 331.797232 110.822587 
L 332.920574 112.056715 
L 333.394724 113.361481 
L 335.06421 113.920432 
L 335.079722 116.00428 
L 335.393616 116.235089 
L 337.780837 117.183786 
L 339.718314 121.246756 
L 342.445458 123.554431 
L 342.985848 123.829184 
L 350.077979 125.492073 
L 351.580682 126.230907 
L 354.149997 129.527527 
L 356.322786 130.495526 
L 356.430443 137.91056 
L 359.357282 140.137739 
L 360.817531 142.136163 
L 362.728808 142.254853 
L 364.3263 144.029451 
L 365.995786 145.540795 
L 366.011298 147.182329 
L 366.325192 147.969213 
L 366.426616 149.597605 
L 368.712413 151.517587 
L 370.64989 152.131981 
L 370.766409 153.103677 
L 373.602541 154.268398 
L 379.317938 156.361281 
L 385.081574 159.163839 
L 387.254362 160.813997 
L 387.36202 163.030499 
L 388.842822 164.806329 
L 389.383212 166.845822 
L 390.288858 168.310348 
L 391.749107 169.364182 
L 393.660384 170.30754 
L 396.942874 177.305721 
L 397.256768 177.371843 
L 397.358192 176.915154 
L 399.643989 177.227279 
L 401.581466 177.642488 
L 401.697985 179.345625 
L 404.534117 179.194491 
L 410.249514 183.884176 
L 413.443834 183.887051 
L 416.01315 184.1002 
L 418.193687 184.619724 
L 419.774398 184.512534 
L 420.314789 184.77168 
L 421.220434 184.972508 
L 424.59196 184.514998 
L 426.189453 184.669007 
L 428.289769 182.2295 
L 430.575566 182.435668 
L 432.629561 183.199143 
L 433.651726 182.988458 
L 433.759384 182.838145 
L 435.465693 183.609834 
L 438.146471 183.715382 
L 441.181091 184.221764 
L 446.944726 185.043558 
L 449.125263 184.199998 
L 450.705975 184.866139 
L 451.246365 185.588545 
L 455.523537 186.119569 
L 457.121029 186.962308 
L 458.338496 188.274878 
L 458.790514 188.545113 
L 458.806026 189.740225 
L 459.221345 191.261015 
L 459.841198 191.527143 
L 463.444618 191.631048 
L 463.561138 193.198657 
L 464.69096 192.742379 
L 466.397269 193.668077 
L 467.617798 193.971167 
L 472.112667 193.625365 
L 476.97293 193.313651 
L 477.876302 195.670609 
L 481.637551 195.667734 
L 482.177941 195.823386 
L 486.455113 195.506743 
L 488.052605 194.921507 
L 489.270072 195.424194 
L 489.72209 194.046324 
L 489.737602 195.028698 
L 490.152921 195.292362 
L 490.772774 195.227883 
L 494.492714 195.388464 
L 495.514879 194.309988 
L 495.522627 194.569545 
L 495.622536 194.397465 
L 497.328845 193.536245 
L 498.549374 193.809766 
L 500.009623 193.223298 
L 503.044243 193.230691 
L 505.517284 190.407188 
L 507.904506 187.923737 
L 508.807878 186.810763 
L 512.569127 185.726127 
L 513.109517 185.035755 
L 520.201648 185.238226 
L 525.307771 184.261601 
L 525.42429 184.125252 
L 525.42429 184.125252 
" clip-path="url(#pf5fafc2fd7)" style="fill: none; stroke: #009384; stroke-width: 2.5; stroke-linecap: square"/>
   </g>
   <g id="line2d_16">
    <path d="M 68.878835 84.165409 
L 70.476327 84.161384 
L 72.475219 84.733005 
L 74.86244 84.473654 
L 80.067451 84.452708 
L 85.467965 84.472565 
L 88.662285 84.751877 
L 91.231601 84.628115 
L 96.438885 84.734237 
L 97.899134 84.307858 
L 102.62537 84.112923 
L 103.406795 84.610475 
L 103.508219 84.376073 
L 116.399541 84.340425 
L 119.593861 84.533389 
L 125.924425 84.652448 
L 127.370461 84.725715 
L 128.83071 84.329645 
L 133.556946 84.164321 
L 134.008965 84.560679 
L 134.024477 84.527002 
L 134.439796 84.619757 
L 136.725593 84.344922 
L 139.801753 84.321431 
L 139.909411 84.249683 
L 147.331118 84.30987 
L 155.27529 84.368968 
L 156.856002 84.514045 
L 163.271056 84.506755 
L 164.488523 84.132841 
L 164.956053 84.491459 
L 165.371372 84.548114 
L 165.991225 84.805433 
L 172.86218 84.656454 
L 173.767825 84.689885 
L 175.228074 84.592715 
L 180.735735 84.767218 
L 187.787578 84.983467 
L 194.202632 84.493882 
L 195.420099 84.41043 
L 195.887629 84.913691 
L 196.302948 84.91866 
L 196.922801 85.215672 
L 200.526221 85.078501 
L 200.642741 84.903711 
L 201.772563 85.049116 
L 204.699401 84.98355 
L 214.957905 85.275038 
L 219.259544 84.959812 
L 226.351675 84.815413 
L 226.819206 85.366893 
L 227.234524 85.3733 
L 227.854377 85.604971 
L 231.574317 85.626573 
L 232.704139 85.457163 
L 242.598887 85.70366 
L 250.19112 85.36985 
L 258.1661 85.376729 
L 258.785953 85.640578 
L 262.389374 85.654213 
L 262.505893 85.728199 
L 265.342025 85.85079 
L 268.022802 85.753128 
L 271.057422 85.812596 
L 273.201058 86.203517 
L 273.21657 85.897057 
L 275.917685 85.800565 
L 281.122696 85.614973 
L 288.214827 85.518009 
L 289.097676 85.458705 
L 289.717529 85.663394 
L 294.467382 85.612817 
L 294.567291 85.486591 
L 301.988998 85.361166 
L 304.132634 85.740214 
L 304.148146 85.42201 
L 304.462039 85.322561 
L 312.054272 85.101342 
L 327.205177 84.992324 
L 329.885955 84.869219 
L 333.394724 84.754431 
L 335.06421 85.111835 
L 335.079722 84.770485 
L 335.393616 84.649844 
L 337.780837 84.543106 
L 339.718314 84.251494 
L 342.985848 84.404662 
L 350.077979 84.338273 
L 351.580682 84.564482 
L 354.149997 84.47491 
L 356.430443 84.547397 
L 362.728808 84.460947 
L 364.3263 84.385934 
L 366.426616 84.863108 
L 368.712413 84.779717 
L 370.766409 84.458598 
L 379.317938 84.490221 
L 382.512258 84.68532 
L 385.081574 84.591046 
L 390.288858 84.799472 
L 391.749107 84.387708 
L 395.257877 84.185628 
L 396.475343 84.237683 
L 397.358192 84.817281 
L 399.643989 84.777814 
L 401.697985 84.574049 
L 410.249514 84.637275 
L 413.443834 84.871842 
L 416.01315 84.801716 
L 421.220434 85.166615 
L 424.59196 85.107825 
L 426.189453 84.738469 
L 427.406919 84.660212 
L 427.87445 85.217541 
L 428.289769 85.157169 
L 432.513042 85.15411 
L 432.629561 84.977533 
L 433.759384 85.029691 
L 441.181091 85.020163 
L 449.125263 85.150947 
L 451.246365 85.390688 
L 457.121029 85.353849 
L 458.338496 85.004515 
L 459.221345 85.512767 
L 459.841198 85.784254 
L 464.583302 85.715792 
L 464.69096 85.486215 
L 467.617798 85.453073 
L 469.078047 85.334075 
L 474.585708 85.370174 
L 477.876302 85.359846 
L 481.637551 85.454654 
L 482.177941 85.098223 
L 489.270072 84.949594 
L 489.737602 85.510434 
L 490.152921 85.520331 
L 490.772774 85.740585 
L 494.376194 85.657174 
L 494.492714 85.437023 
L 495.622536 85.416591 
L 498.549374 85.312214 
L 500.009623 85.248351 
L 512.569127 85.376158 
L 513.109517 85.005191 
L 525.42429 84.943238 
L 525.42429 84.943238 
" clip-path="url(#pf5fafc2fd7)" style="fill: none; stroke: #b85741; stroke-width: 2.5; stroke-linecap: square"/>
   </g>
   <g id="line2d_17">
    <path d="M 68.878835 221.063761 
L 70.476327 223.288766 
L 72.475219 223.427828 
L 74.86244 223.149703 
L 76.916436 219.082116 
L 79.752568 218.4911 
L 80.067451 218.699694 
L 85.467965 225.061816 
L 88.662285 224.609862 
L 93.412137 224.644628 
L 93.512046 229.929014 
L 97.899134 229.929014 
L 101.407904 229.824716 
L 102.62537 229.894248 
L 103.406795 229.404052 
L 103.508219 232.915387 
L 107.731493 232.880621 
L 107.848012 232.532964 
L 108.870177 234.58414 
L 110.684144 234.618906 
L 110.999027 234.757969 
L 116.399541 234.757969 
L 122.163177 234.306015 
L 124.343714 234.375546 
L 125.924425 230.238428 
L 128.83071 229.925537 
L 130.741987 229.890771 
L 132.33948 229.682177 
L 133.556946 228.684402 
L 134.008965 228.649636 
L 134.024477 225.138301 
L 134.439796 221.070714 
L 136.725593 215.403906 
L 138.663069 214.291404 
L 138.779588 214.708592 
L 139.909411 208.694126 
L 141.61572 209.910926 
L 141.930604 209.841394 
L 147.331118 205.495682 
L 153.094753 204.835134 
L 155.27529 204.278883 
L 156.856002 204.13982 
L 161.673564 203.548803 
L 163.271056 201.740987 
L 164.488523 201.39333 
L 164.956053 199.37692 
L 165.371372 192.354249 
L 165.991225 185.122985 
L 167.657169 185.505407 
L 169.594645 186.235487 
L 169.711165 185.992127 
L 170.733329 185.922596 
L 170.840987 186.793476 
L 172.547296 182.447764 
L 172.86218 183.351672 
L 175.228074 183.143078 
L 178.262694 183.351672 
L 180.735735 185.611443 
L 184.026329 182.760656 
L 187.787578 182.864953 
L 192.60514 182.760656 
L 194.202632 182.308701 
L 195.420099 182.23917 
L 195.872117 177.093847 
L 195.887629 180.987605 
L 196.302948 180.361823 
L 196.922801 180.848542 
L 198.588745 180.744245 
L 200.526221 178.658303 
L 200.642741 173.061026 
L 201.672654 172.956729 
L 201.772563 172.400478 
L 203.478872 167.394218 
L 206.15965 167.324687 
L 209.19427 167.359452 
L 211.667311 166.837967 
L 214.957905 164.752025 
L 219.259544 165.030151 
L 223.536716 164.995385 
L 225.134208 160.441079 
L 226.351675 161.171158 
L 226.803693 161.136393 
L 226.819206 157.937949 
L 227.234524 158.25084 
L 227.854377 158.181308 
L 229.520321 158.111777 
L 231.457798 158.424668 
L 231.574317 158.320371 
L 232.596482 158.4942 
L 232.60423 158.668028 
L 232.704139 156.477789 
L 234.410448 157.138338 
L 235.630977 157.242635 
L 237.091226 157.242635 
L 240.125846 156.999275 
L 242.598887 157.892753 
L 250.19112 157.266971 
L 254.468292 155.285326 
L 256.065784 159.631038 
L 257.283251 159.735335 
L 258.1661 162.829482 
L 258.785953 163.907219 
L 261.355269 164.081047 
L 262.505893 169.678324 
L 263.535806 169.782621 
L 263.635715 174.058802 
L 265.116518 166.340817 
L 265.342025 166.897068 
L 266.562554 167.036131 
L 268.022802 167.522851 
L 271.057422 169.504496 
L 273.201058 169.782621 
L 273.21657 171.7295 
L 273.530463 171.694734 
L 275.917685 178.578342 
L 281.122696 185.774841 
L 286.99736 185.879138 
L 288.214827 182.819757 
L 289.717529 183.027482 
L 292.286845 187.268897 
L 293.32095 187.338429 
L 293.437469 186.990772 
L 294.459634 186.364989 
L 294.467382 186.469286 
L 294.567291 186.504052 
L 296.273601 189.737262 
L 297.49413 189.806793 
L 298.954378 187.89468 
L 301.988998 182.64506 
L 304.132634 182.714591 
L 304.148146 188.103274 
L 304.462039 185.773972 
L 306.849261 186.43452 
L 311.513882 179.133724 
L 312.054272 178.890364 
L 319.146403 181.150135 
L 320.029252 185.14819 
L 320.649105 183.653265 
L 323.218421 183.722796 
L 324.369045 181.741151 
L 325.39121 185.739207 
L 325.398958 185.287252 
L 325.498867 185.322018 
L 327.205177 185.322018 
L 328.425706 185.843504 
L 329.885955 187.825148 
L 332.920574 187.825148 
L 333.394724 192.41422 
L 335.06421 192.518517 
L 335.079722 191.301718 
L 335.393616 194.500162 
L 337.780837 189.528667 
L 339.718314 180.94154 
L 342.445458 181.011072 
L 342.985848 172.423945 
L 350.077979 172.528242 
L 351.580682 166.270417 
L 354.149997 165.92276 
L 356.322786 168.321593 
L 356.330534 171.068083 
L 356.430443 169.712221 
L 359.357282 173.501682 
L 360.817531 173.814573 
L 362.728808 173.014962 
L 364.3263 173.049727 
L 365.995786 170.338003 
L 366.011298 175.622389 
L 366.325192 175.274732 
L 366.426616 174.196995 
L 368.712413 174.857544 
L 373.602541 175.170435 
L 379.317938 175.239966 
L 382.512258 173.293087 
L 387.254362 173.362619 
L 387.262111 181.775917 
L 387.36202 181.532557 
L 388.842822 181.254432 
L 389.383212 173.710276 
L 390.288858 171.763397 
L 391.749107 166.791902 
L 395.257877 166.896199 
L 396.475343 167.104793 
L 396.927362 164.914555 
L 396.942874 162.793847 
L 397.256768 162.759081 
L 397.358192 166.061823 
L 399.643989 165.751539 
L 401.697985 164.082785 
L 404.534117 162.414032 
L 410.249514 162.865986 
L 413.443834 164.221848 
L 416.01315 159.632776 
L 419.774398 159.598011 
L 420.314789 153.235888 
L 421.220434 155.287064 
L 424.59196 160.780044 
L 427.406919 160.849576 
L 427.87445 163.387471 
L 428.188344 170.792565 
L 428.289769 170.618736 
L 430.575566 170.583971 
L 432.513042 172.669912 
L 432.629561 174.234369 
L 433.651726 174.199603 
L 433.759384 176.80703 
L 435.465693 177.850001 
L 438.146471 178.406252 
L 446.944726 178.510549 
L 449.125263 174.130071 
L 455.523537 174.338666 
L 457.121029 174.686323 
L 458.338496 174.338666 
L 458.806026 175.416402 
L 459.841198 188.940258 
L 463.444618 188.940258 
L 463.561138 197.596916 
L 464.583302 197.179728 
L 464.69096 200.134812 
L 466.397269 200.586766 
L 467.617798 196.310586 
L 472.112667 198.04887 
L 476.97293 198.014105 
L 477.876302 199.300435 
L 481.637551 199.335201 
L 482.177941 202.742239 
L 486.455113 203.507085 
L 488.052605 203.646147 
L 489.270072 204.75865 
L 489.737602 206.705529 
L 490.152921 206.635997 
L 490.772774 206.983654 
L 494.376194 206.983654 
L 494.492714 209.03483 
L 495.622536 209.104362 
L 497.328845 209.347722 
L 498.549374 209.660613 
L 500.009623 217.378597 
L 503.044243 219.429773 
L 505.517284 224.436034 
L 512.569127 224.436034 
L 513.109517 226.661038 
L 520.201648 228.712214 
L 525.42429 228.712214 
L 525.42429 228.712214 
" clip-path="url(#pf5fafc2fd7)" style="fill: none; stroke: #002f4a; stroke-width: 2.5; stroke-linecap: square"/>
   </g>
   <g id="patch_3">
    <path d="M 46.051562 244.837969 
L 46.051562 23.077969 
" style="fill: none; stroke: #000000; stroke-width: 0.8; stroke-linejoin: miter; stroke-linecap: square"/>
   </g>
   <g id="patch_4">
    <path d="M 548.251563 244.837969 
L 548.251563 23.077969 
" style="fill: none; stroke: #000000; stroke-width: 0.8; stroke-linejoin: miter; stroke-linecap: square"/>
   </g>
   <g id="patch_5">
    <path d="M 46.051562 244.837969 
L 548.251563 244.837969 
" style="fill: none; stroke: #000000; stroke-width: 0.8; stroke-linejoin: miter; stroke-linecap: square"/>
   </g>
   <g id="patch_6">
    <path d="M 46.051562 23.077969 
L 548.251563 23.077969 
" style="fill: none; stroke: #000000; stroke-width: 0.8; stroke-linejoin: miter; stroke-linecap: square"/>
   </g>
   <g id="text_17">
    <!-- Create VM Type 3 (KubeVirt) -->
    <g transform="translate(205.593984 17.077969) scale(0.13 -0.13)">
     <defs>
      <path id="DejaVuSans-43" d="M 4122 4306 
L 4122 3641 
Q 3803 3938 3442 4084 
Q 3081 4231 2675 4231 
Q 1875 4231 1450 3742 
Q 1025 3253 1025 2328 
Q 1025 1406 1450 917 
Q 1875 428 2675 428 
Q 3081 428 3442 575 
Q 3803 722 4122 1019 
L 4122 359 
Q 3791 134 3420 21 
Q 3050 -91 2638 -91 
Q 1578 -91 968 557 
Q 359 1206 359 2328 
Q 359 3453 968 4101 
Q 1578 4750 2638 4750 
Q 3056 4750 3426 4639 
Q 3797 4528 4122 4306 
z
" transform="scale(0.015625)"/>
      <path id="DejaVuSans-72" d="M 2631 2963 
Q 2534 3019 2420 3045 
Q 2306 3072 2169 3072 
Q 1681 3072 1420 2755 
Q 1159 2438 1159 1844 
L 1159 0 
L 581 0 
L 581 3500 
L 1159 3500 
L 1159 2956 
Q 1341 3275 1631 3429 
Q 1922 3584 2338 3584 
Q 2397 3584 2469 3576 
Q 2541 3569 2628 3553 
L 2631 2963 
z
" transform="scale(0.015625)"/>
      <path id="DejaVuSans-56" d="M 1831 0 
L 50 4666 
L 709 4666 
L 2188 738 
L 3669 4666 
L 4325 4666 
L 2547 0 
L 1831 0 
z
" transform="scale(0.015625)"/>
      <path id="DejaVuSans-4d" d="M 628 4666 
L 1569 4666 
L 2759 1491 
L 3956 4666 
L 4897 4666 
L 4897 0 
L 4281 0 
L 4281 4097 
L 3078 897 
L 2444 897 
L 1241 4097 
L 1241 0 
L 628 0 
L 628 4666 
z
" transform="scale(0.015625)"/>
      <path id="DejaVuSans-79" d="M 2059 -325 
Q 1816 -950 1584 -1140 
Q 1353 -1331 966 -1331 
L 506 -1331 
L 506 -850 
L 844 -850 
Q 1081 -850 1212 -737 
Q 1344 -625 1503 -206 
L 1606 56 
L 191 3500 
L 800 3500 
L 1894 763 
L 2988 3500 
L 3597 3500 
L 2059 -325 
z
" transform="scale(0.015625)"/>
      <path id="DejaVuSans-70" d="M 1159 525 
L 1159 -1331 
L 581 -1331 
L 581 3500 
L 1159 3500 
L 1159 2969 
Q 1341 3281 1617 3432 
Q 1894 3584 2278 3584 
Q 2916 3584 3314 3078 
Q 3713 2572 3713 1747 
Q 3713 922 3314 415 
Q 2916 -91 2278 -91 
Q 1894 -91 1617 61 
Q 1341 213 1159 525 
z
M 3116 1747 
Q 3116 2381 2855 2742 
Q 2594 3103 2138 3103 
Q 1681 3103 1420 2742 
Q 1159 2381 1159 1747 
Q 1159 1113 1420 752 
Q 1681 391 2138 391 
Q 2594 391 2855 752 
Q 3116 1113 3116 1747 
z
" transform="scale(0.015625)"/>
      <path id="DejaVuSans-33" d="M 2597 2516 
Q 3050 2419 3304 2112 
Q 3559 1806 3559 1356 
Q 3559 666 3084 287 
Q 2609 -91 1734 -91 
Q 1441 -91 1130 -33 
Q 819 25 488 141 
L 488 750 
Q 750 597 1062 519 
Q 1375 441 1716 441 
Q 2309 441 2620 675 
Q 2931 909 2931 1356 
Q 2931 1769 2642 2001 
Q 2353 2234 1838 2234 
L 1294 2234 
L 1294 2753 
L 1863 2753 
Q 2328 2753 2575 2939 
Q 2822 3125 2822 3475 
Q 2822 3834 2567 4026 
Q 2313 4219 1838 4219 
Q 1578 4219 1281 4162 
Q 984 4106 628 3988 
L 628 4550 
Q 988 4650 1302 4700 
Q 1616 4750 1894 4750 
Q 2613 4750 3031 4423 
Q 3450 4097 3450 3541 
Q 3450 3153 3228 2886 
Q 3006 2619 2597 2516 
z
" transform="scale(0.015625)"/>
      <path id="DejaVuSans-4b" d="M 628 4666 
L 1259 4666 
L 1259 2694 
L 3353 4666 
L 4166 4666 
L 1850 2491 
L 4331 0 
L 3500 0 
L 1259 2247 
L 1259 0 
L 628 0 
L 628 4666 
z
" transform="scale(0.015625)"/>
      <path id="DejaVuSans-75" d="M 544 1381 
L 544 3500 
L 1119 3500 
L 1119 1403 
Q 1119 906 1312 657 
Q 1506 409 1894 409 
Q 2359 409 2629 706 
Q 2900 1003 2900 1516 
L 2900 3500 
L 3475 3500 
L 3475 0 
L 2900 0 
L 2900 538 
Q 2691 219 2414 64 
Q 2138 -91 1772 -91 
Q 1169 -91 856 284 
Q 544 659 544 1381 
z
M 1991 3584 
L 1991 3584 
z
" transform="scale(0.015625)"/>
      <path id="DejaVuSans-62" d="M 3116 1747 
Q 3116 2381 2855 2742 
Q 2594 3103 2138 3103 
Q 1681 3103 1420 2742 
Q 1159 2381 1159 1747 
Q 1159 1113 1420 752 
Q 1681 391 2138 391 
Q 2594 391 2855 752 
Q 3116 1113 3116 1747 
z
M 1159 2969 
Q 1341 3281 1617 3432 
Q 1894 3584 2278 3584 
Q 2916 3584 3314 3078 
Q 3713 2572 3713 1747 
Q 3713 922 3314 415 
Q 2916 -91 2278 -91 
Q 1894 -91 1617 61 
Q 1341 213 1159 525 
L 1159 0 
L 581 0 
L 581 4863 
L 1159 4863 
L 1159 2969 
z
" transform="scale(0.015625)"/>
     </defs>
     <use xlink:href="#DejaVuSans-43"/>
     <use xlink:href="#DejaVuSans-72" x="69.824219"/>
     <use xlink:href="#DejaVuSans-65" x="108.6875"/>
     <use xlink:href="#DejaVuSans-61" x="170.210938"/>
     <use xlink:href="#DejaVuSans-74" x="231.490234"/>
     <use xlink:href="#DejaVuSans-65" x="270.699219"/>
     <use xlink:href="#DejaVuSans-20" x="332.222656"/>
     <use xlink:href="#DejaVuSans-56" x="364.009766"/>
     <use xlink:href="#DejaVuSans-4d" x="432.417969"/>
     <use xlink:href="#DejaVuSans-20" x="518.697266"/>
     <use xlink:href="#DejaVuSans-54" x="550.484375"/>
     <use xlink:href="#DejaVuSans-79" x="595.943359"/>
     <use xlink:href="#DejaVuSans-70" x="655.123047"/>
     <use xlink:href="#DejaVuSans-65" x="718.599609"/>
     <use xlink:href="#DejaVuSans-20" x="780.123047"/>
     <use xlink:href="#DejaVuSans-33" x="811.910156"/>
     <use xlink:href="#DejaVuSans-20" x="875.533203"/>
     <use xlink:href="#DejaVuSans-28" x="907.320312"/>
     <use xlink:href="#DejaVuSans-4b" x="946.333984"/>
     <use xlink:href="#DejaVuSans-75" x="1006.910156"/>
     <use xlink:href="#DejaVuSans-62" x="1070.289062"/>
     <use xlink:href="#DejaVuSans-65" x="1133.765625"/>
     <use xlink:href="#DejaVuSans-56" x="1195.289062"/>
     <use xlink:href="#DejaVuSans-69" x="1261.447266"/>
     <use xlink:href="#DejaVuSans-72" x="1289.230469"/>
     <use xlink:href="#DejaVuSans-74" x="1330.34375"/>
     <use xlink:href="#DejaVuSans-29" x="1369.552734"/>
    </g>
   </g>
   <g id="legend_1">
    <g id="patch_7">
     <path d="M 471.217188 162.178594 
L 539.851563 162.178594 
Q 542.251563 162.178594 542.251563 159.778594 
L 542.251563 108.137344 
Q 542.251563 105.737344 539.851563 105.737344 
L 471.217188 105.737344 
Q 468.817188 105.737344 468.817188 108.137344 
L 468.817188 159.778594 
Q 468.817188 162.178594 471.217188 162.178594 
z
" style="fill: #ffffff; opacity: 0.8; stroke: #cccccc; stroke-linejoin: miter"/>
    </g>
    <g id="line2d_18">
     <path d="M 473.617188 115.455469 
L 485.617188 115.455469 
L 497.617188 115.455469 
" style="fill: none; stroke: #009384; stroke-width: 2.5; stroke-linecap: square"/>
    </g>
    <g id="text_18">
     <!--  CPU -->
     <g transform="translate(507.217188 119.655469) scale(0.12 -0.12)">
      <defs>
       <path id="DejaVuSans-50" d="M 1259 4147 
L 1259 2394 
L 2053 2394 
Q 2494 2394 2734 2622 
Q 2975 2850 2975 3272 
Q 2975 3691 2734 3919 
Q 2494 4147 2053 4147 
L 1259 4147 
z
M 628 4666 
L 2053 4666 
Q 2838 4666 3239 4311 
Q 3641 3956 3641 3272 
Q 3641 2581 3239 2228 
Q 2838 1875 2053 1875 
L 1259 1875 
L 1259 0 
L 628 0 
L 628 4666 
z
" transform="scale(0.015625)"/>
      </defs>
      <use xlink:href="#DejaVuSans-20"/>
      <use xlink:href="#DejaVuSans-43" x="31.787109"/>
      <use xlink:href="#DejaVuSans-50" x="101.611328"/>
      <use xlink:href="#DejaVuSans-55" x="161.914062"/>
     </g>
    </g>
    <g id="line2d_19">
     <path d="M 473.617188 133.069219 
L 485.617188 133.069219 
L 497.617188 133.069219 
" style="fill: none; stroke: #b85741; stroke-width: 2.5; stroke-linecap: square"/>
    </g>
    <g id="text_19">
     <!--  RAM -->
     <g transform="translate(507.217188 137.269219) scale(0.12 -0.12)">
      <defs>
       <path id="DejaVuSans-52" d="M 2841 2188 
Q 3044 2119 3236 1894 
Q 3428 1669 3622 1275 
L 4263 0 
L 3584 0 
L 2988 1197 
Q 2756 1666 2539 1819 
Q 2322 1972 1947 1972 
L 1259 1972 
L 1259 0 
L 628 0 
L 628 4666 
L 2053 4666 
Q 2853 4666 3247 4331 
Q 3641 3997 3641 3322 
Q 3641 2881 3436 2590 
Q 3231 2300 2841 2188 
z
M 1259 4147 
L 1259 2491 
L 2053 2491 
Q 2509 2491 2742 2702 
Q 2975 2913 2975 3322 
Q 2975 3731 2742 3939 
Q 2509 4147 2053 4147 
L 1259 4147 
z
" transform="scale(0.015625)"/>
       <path id="DejaVuSans-41" d="M 2188 4044 
L 1331 1722 
L 3047 1722 
L 2188 4044 
z
M 1831 4666 
L 2547 4666 
L 4325 0 
L 3669 0 
L 3244 1197 
L 1141 1197 
L 716 0 
L 50 0 
L 1831 4666 
z
" transform="scale(0.015625)"/>
      </defs>
      <use xlink:href="#DejaVuSans-20"/>
      <use xlink:href="#DejaVuSans-52" x="31.787109"/>
      <use xlink:href="#DejaVuSans-41" x="97.269531"/>
      <use xlink:href="#DejaVuSans-4d" x="165.677734"/>
     </g>
    </g>
    <g id="line2d_20">
     <path d="M 473.617188 150.682969 
L 485.617188 150.682969 
L 497.617188 150.682969 
" style="fill: none; stroke: #002f4a; stroke-width: 2.5; stroke-linecap: square"/>
    </g>
    <g id="text_20">
     <!--  Disk -->
     <g transform="translate(507.217188 154.882969) scale(0.12 -0.12)">
      <defs>
       <path id="DejaVuSans-44" d="M 1259 4147 
L 1259 519 
L 2022 519 
Q 2988 519 3436 956 
Q 3884 1394 3884 2338 
Q 3884 3275 3436 3711 
Q 2988 4147 2022 4147 
L 1259 4147 
z
M 628 4666 
L 1925 4666 
Q 3281 4666 3915 4102 
Q 4550 3538 4550 2338 
Q 4550 1131 3912 565 
Q 3275 0 1925 0 
L 628 0 
L 628 4666 
z
" transform="scale(0.015625)"/>
       <path id="DejaVuSans-6b" d="M 581 4863 
L 1159 4863 
L 1159 1991 
L 2875 3500 
L 3609 3500 
L 1753 1863 
L 3688 0 
L 2938 0 
L 1159 1709 
L 1159 0 
L 581 0 
L 581 4863 
z
" transform="scale(0.015625)"/>
      </defs>
      <use xlink:href="#DejaVuSans-20"/>
      <use xlink:href="#DejaVuSans-44" x="31.787109"/>
      <use xlink:href="#DejaVuSans-69" x="108.789062"/>
      <use xlink:href="#DejaVuSans-73" x="136.572266"/>
      <use xlink:href="#DejaVuSans-6b" x="188.671875"/>
     </g>
    </g>
   </g>
  </g>
 </g>
 <defs>
  <clipPath id="pf5fafc2fd7">
   <rect x="46.051562" y="23.077969" width="502.2" height="221.76"/>
  </clipPath>
 </defs>
</svg>
