<?xml version="1.0" encoding="utf-8" standalone="no"?>
<!DOCTYPE svg PUBLIC "-//W3C//DTD SVG 1.1//EN"
  "http://www.w3.org/Graphics/SVG/1.1/DTD/svg11.dtd">
<svg xmlns:xlink="http://www.w3.org/1999/xlink" width="555.451562pt" height="287.233281pt" viewBox="0 0 555.451562 287.233281" xmlns="http://www.w3.org/2000/svg" version="1.1">
 <metadata>
  <rdf:RDF xmlns:dc="http://purl.org/dc/elements/1.1/" xmlns:cc="http://creativecommons.org/ns#" xmlns:rdf="http://www.w3.org/1999/02/22-rdf-syntax-ns#">
   <cc:Work>
    <dc:type rdf:resource="http://purl.org/dc/dcmitype/StillImage"/>
    <dc:date>2024-05-21T10:08:03.076450</dc:date>
    <dc:format>image/svg+xml</dc:format>
    <dc:creator>
     <cc:Agent>
      <dc:title>Matplotlib v3.8.4, https://matplotlib.org/</dc:title>
     </cc:Agent>
    </dc:creator>
   </cc:Work>
  </rdf:RDF>
 </metadata>
 <defs>
  <style type="text/css">*{stroke-linejoin: round; stroke-linecap: butt}</style>
 </defs>
 <g id="figure_1">
  <g id="patch_1">
   <path d="M 0 287.233281 
L 555.451562 287.233281 
L 555.451562 0 
L 0 0 
z
" style="fill: #ffffff"/>
  </g>
  <g id="axes_1">
   <g id="patch_2">
    <path d="M 46.051562 244.837969 
L 548.251563 244.837969 
L 548.251563 23.077969 
L 46.051562 23.077969 
z
" style="fill: #ffffff"/>
   </g>
   <g id="PolyCollection_1">
    <defs>
     <path id="m7236ecc9ac" d="M 74.67706 -83.125164 
L 74.67706 -42.395313 
L 75.09378 -42.395313 
L 76.163785 -42.395313 
L 77.484477 -42.395313 
L 80.753851 -42.395313 
L 90.153596 -42.395313 
L 90.16723 -42.395313 
L 90.532244 -42.395313 
L 94.243986 -42.395313 
L 95.244751 -42.395313 
L 95.251561 -42.395313 
L 95.339369 -42.395313 
L 96.640814 -42.395313 
L 96.839007 -42.395313 
L 97.911703 -42.395313 
L 99.195083 -42.395313 
L 100.874863 -42.395313 
L 101.862144 -42.395313 
L 102.278864 -42.395313 
L 103.348869 -42.395313 
L 104.035646 -42.395313 
L 104.669561 -42.395313 
L 106.133723 -42.395313 
L 106.927677 -42.395313 
L 107.938935 -42.395313 
L 110.708293 -42.395313 
L 117.33868 -42.395313 
L 117.352313 -42.395313 
L 117.717328 -42.395313 
L 121.42907 -42.395313 
L 122.429835 -42.395313 
L 122.436645 -42.395313 
L 122.524452 -42.395313 
L 123.825897 -42.395313 
L 124.02409 -42.395313 
L 125.096787 -42.395313 
L 126.380167 -42.395313 
L 128.059947 -42.395313 
L 129.047228 -42.395313 
L 129.463948 -42.395313 
L 130.533953 -42.395313 
L 131.22073 -42.395313 
L 131.854645 -42.395313 
L 133.318806 -42.395313 
L 134.11276 -42.395313 
L 135.124018 -42.395313 
L 137.893376 -42.395313 
L 144.523764 -42.395313 
L 144.537397 -42.395313 
L 149.614918 -42.395313 
L 149.621728 -42.395313 
L 149.709536 -42.395313 
L 151.209174 -42.395313 
L 152.28187 -42.395313 
L 153.565251 -42.395313 
L 155.245031 -42.395313 
L 156.232312 -42.395313 
L 156.649032 -42.395313 
L 157.719037 -42.395313 
L 158.405813 -42.395313 
L 158.494953 -42.395313 
L 159.039729 -42.395313 
L 160.50389 -42.395313 
L 161.297844 -42.395313 
L 162.206696 -42.395313 
L 162.309102 -42.395313 
L 164.603523 -42.395313 
L 165.07846 -42.395313 
L 171.708848 -42.395313 
L 171.722481 -42.395313 
L 176.800002 -42.395313 
L 176.806812 -42.395313 
L 176.89462 -42.395313 
L 178.394258 -42.395313 
L 180.750335 -42.395313 
L 182.430115 -42.395313 
L 183.417395 -42.395313 
L 183.834116 -42.395313 
L 184.90412 -42.395313 
L 185.590897 -42.395313 
L 185.680037 -42.395313 
L 186.224813 -42.395313 
L 187.688974 -42.395313 
L 188.482928 -42.395313 
L 189.39178 -42.395313 
L 189.494186 -42.395313 
L 191.788607 -42.395313 
L 192.263544 -42.395313 
L 193.059496 -42.395313 
L 203.985086 -42.395313 
L 204.079704 -42.395313 
L 205.579342 -42.395313 
L 207.935419 -42.395313 
L 210.602479 -42.395313 
L 211.019199 -42.395313 
L 212.089204 -42.395313 
L 212.486473 -42.395313 
L 212.500107 -42.395313 
L 212.775981 -42.395313 
L 212.865121 -42.395313 
L 214.874058 -42.395313 
L 215.668012 -42.395313 
L 216.576863 -42.395313 
L 216.67927 -42.395313 
L 217.584438 -42.395313 
L 218.973691 -42.395313 
L 219.448628 -42.395313 
L 220.24458 -42.395313 
L 223.20774 -42.395313 
L 227.002438 -42.395313 
L 231.17017 -42.395313 
L 231.264788 -42.395313 
L 232.764426 -42.395313 
L 237.787563 -42.395313 
L 239.274288 -42.395313 
L 239.671557 -42.395313 
L 239.685191 -42.395313 
L 239.961065 -42.395313 
L 240.050205 -42.395313 
L 242.059142 -42.395313 
L 242.853096 -42.395313 
L 243.761947 -42.395313 
L 243.864353 -42.395313 
L 244.769522 -42.395313 
L 246.158775 -42.395313 
L 246.633712 -42.395313 
L 247.429664 -42.395313 
L 248.713044 -42.395313 
L 250.392824 -42.395313 
L 251.796825 -42.395313 
L 254.187522 -42.395313 
L 258.355254 -42.395313 
L 258.449871 -42.395313 
L 259.949509 -42.395313 
L 264.972647 -42.395313 
L 266.856641 -42.395313 
L 266.870274 -42.395313 
L 267.146149 -42.395313 
L 267.235288 -42.395313 
L 269.244225 -42.395313 
L 270.947031 -42.395313 
L 271.954605 -42.395313 
L 273.343858 -42.395313 
L 273.818795 -42.395313 
L 274.614747 -42.395313 
L 275.898128 -42.395313 
L 277.577908 -42.395313 
L 278.981909 -42.395313 
L 280.051914 -42.395313 
L 281.372606 -42.395313 
L 283.630721 -42.395313 
L 284.641979 -42.395313 
L 294.041725 -42.395313 
L 294.055358 -42.395313 
L 294.331232 -42.395313 
L 294.420372 -42.395313 
L 296.429309 -42.395313 
L 298.132115 -42.395313 
L 299.132879 -42.395313 
L 299.139689 -42.395313 
L 299.227497 -42.395313 
L 300.528942 -42.395313 
L 300.727135 -42.395313 
L 301.003879 -42.395313 
L 301.799831 -42.395313 
L 303.083212 -42.395313 
L 304.762992 -42.395313 
L 305.750272 -42.395313 
L 306.166993 -42.395313 
L 307.236998 -42.395313 
L 308.55769 -42.395313 
L 310.815805 -42.395313 
L 311.827063 -42.395313 
L 321.226809 -42.395313 
L 321.240442 -42.395313 
L 321.516316 -42.395313 
L 321.605456 -42.395313 
L 325.317199 -42.395313 
L 326.317963 -42.395313 
L 326.324773 -42.395313 
L 326.412581 -42.395313 
L 327.714026 -42.395313 
L 327.912219 -42.395313 
L 328.188963 -42.395313 
L 328.984915 -42.395313 
L 330.268296 -42.395313 
L 331.948076 -42.395313 
L 332.935356 -42.395313 
L 333.352076 -42.395313 
L 334.422081 -42.395313 
L 335.742773 -42.395313 
L 337.206935 -42.395313 
L 338.000889 -42.395313 
L 339.012147 -42.395313 
L 348.411892 -42.395313 
L 348.425526 -42.395313 
L 348.79054 -42.395313 
L 352.502282 -42.395313 
L 353.503047 -42.395313 
L 353.509857 -42.395313 
L 353.597665 -42.395313 
L 354.89911 -42.395313 
L 355.097303 -42.395313 
L 356.169999 -42.395313 
L 357.453379 -42.395313 
L 359.133159 -42.395313 
L 360.12044 -42.395313 
L 360.53716 -42.395313 
L 361.607165 -42.395313 
L 362.293942 -42.395313 
L 362.927857 -42.395313 
L 364.392019 -42.395313 
L 365.185973 -42.395313 
L 366.197231 -42.395313 
L 368.966589 -42.395313 
L 375.596976 -42.395313 
L 375.61061 -42.395313 
L 375.975624 -42.395313 
L 379.687366 -42.395313 
L 380.688131 -42.395313 
L 380.694941 -42.395313 
L 380.782748 -42.395313 
L 382.084194 -42.395313 
L 382.282386 -42.395313 
L 384.638463 -42.395313 
L 386.318243 -42.395313 
L 387.305524 -42.395313 
L 387.722244 -42.395313 
L 388.792249 -42.395313 
L 389.479026 -42.395313 
L 391.577102 -42.395313 
L 392.371056 -42.395313 
L 393.382314 -42.395313 
L 396.151672 -42.395313 
L 396.947625 -42.395313 
L 402.78206 -42.395313 
L 402.795693 -42.395313 
L 403.705483 -42.395313 
L 407.873215 -42.395313 
L 407.967832 -42.395313 
L 409.269277 -42.395313 
L 409.46747 -42.395313 
L 411.823547 -42.395313 
L 413.503327 -42.395313 
L 414.490608 -42.395313 
L 414.907328 -42.395313 
L 415.977333 -42.395313 
L 416.664109 -42.395313 
L 416.753249 -42.395313 
L 418.762186 -42.395313 
L 419.55614 -42.395313 
L 420.464992 -42.395313 
L 420.567398 -42.395313 
L 421.472566 -42.395313 
L 423.336756 -42.395313 
L 424.132708 -42.395313 
L 429.980777 -42.395313 
L 430.890567 -42.395313 
L 435.058298 -42.395313 
L 435.152916 -42.395313 
L 436.652554 -42.395313 
L 439.008631 -42.395313 
L 440.688411 -42.395313 
L 441.675691 -42.395313 
L 442.092412 -42.395313 
L 443.162416 -42.395313 
L 443.559686 -42.395313 
L 443.849193 -42.395313 
L 443.938333 -42.395313 
L 445.94727 -42.395313 
L 446.741224 -42.395313 
L 447.650076 -42.395313 
L 447.752482 -42.395313 
L 448.65765 -42.395313 
L 450.046903 -42.395313 
L 450.52184 -42.395313 
L 451.317792 -42.395313 
L 457.165861 -42.395313 
L 458.075651 -42.395313 
L 462.243382 -42.395313 
L 462.338 -42.395313 
L 463.837638 -42.395313 
L 466.193715 -42.395313 
L 468.860775 -42.395313 
L 469.277495 -42.395313 
L 470.3475 -42.395313 
L 470.74477 -42.395313 
L 471.034277 -42.395313 
L 471.123417 -42.395313 
L 473.132354 -42.395313 
L 473.926308 -42.395313 
L 473.926308 -94.374854 
L 473.926308 -94.374854 
L 473.132354 -93.481805 
L 471.123417 -93.110667 
L 471.034277 -92.300047 
L 470.74477 -92.142645 
L 470.3475 -91.78352 
L 469.277495 -91.378002 
L 468.860775 -91.175451 
L 466.193715 -90.489095 
L 463.837638 -89.767116 
L 462.338 -88.874895 
L 462.243382 -88.92543 
L 458.075651 -88.241145 
L 457.165861 -87.29839 
L 451.317792 -87.396144 
L 450.52184 -87.246198 
L 450.046903 -87.358451 
L 448.65765 -87.407328 
L 447.752482 -86.195333 
L 447.650076 -86.08308 
L 446.741224 -85.092276 
L 445.94727 -84.989964 
L 443.938333 -85.243879 
L 443.849193 -84.82055 
L 443.559686 -85.134526 
L 443.162416 -85.176776 
L 442.092412 -85.181332 
L 441.675691 -85.391754 
L 440.688411 -84.555037 
L 439.008631 -84.395979 
L 436.652554 -84.501604 
L 435.152916 -84.503675 
L 435.058298 -84.50616 
L 430.890567 -84.144964 
L 429.980777 -83.990461 
L 424.132708 -84.103542 
L 423.336756 -84.415861 
L 421.472566 -84.00703 
L 420.567398 -83.94614 
L 420.464992 -84.435743 
L 419.55614 -85.325893 
L 418.762186 -85.957158 
L 416.753249 -86.324154 
L 416.664109 -86.126987 
L 415.977333 -86.506409 
L 414.907328 -87.080512 
L 414.490608 -86.929737 
L 413.503327 -87.448336 
L 411.823547 -88.329373 
L 409.46747 -88.809863 
L 409.269277 -88.915488 
L 407.967832 -89.574092 
L 407.873215 -90.213227 
L 403.705483 -90.637798 
L 402.795693 -90.646083 
L 402.78206 -91.229713 
L 396.947625 -91.700676 
L 396.151672 -92.47816 
L 393.382314 -92.679054 
L 392.371056 -92.88989 
L 391.577102 -95.610875 
L 389.479026 -96.461674 
L 388.792249 -96.36102 
L 387.722244 -96.882518 
L 387.305524 -97.561003 
L 386.318243 -97.60781 
L 384.638463 -102.511298 
L 382.282386 -102.352653 
L 382.084194 -104.54924 
L 380.782748 -106.9053 
L 380.694941 -109.857003 
L 380.688131 -114.053424 
L 379.687366 -114.526045 
L 375.975624 -115.354062 
L 375.61061 -116.619492 
L 375.596976 -116.877963 
L 368.966589 -121.974061 
L 366.197231 -125.350749 
L 365.185973 -125.193762 
L 364.392019 -130.874319 
L 362.927857 -134.126328 
L 362.293942 -136.595883 
L 361.607165 -137.637222 
L 360.53716 -140.418682 
L 360.12044 -141.45505 
L 359.133159 -143.164105 
L 357.453379 -146.204864 
L 356.169999 -147.764801 
L 355.097303 -149.733984 
L 354.89911 -151.835715 
L 353.597665 -154.095263 
L 353.509857 -157.204782 
L 353.503047 -158.6272 
L 352.502282 -160.538806 
L 348.79054 -161.57476 
L 348.425526 -162.585861 
L 348.411892 -165.676326 
L 339.012147 -167.070991 
L 338.000889 -169.28539 
L 337.206935 -171.916903 
L 335.742773 -175.203707 
L 334.422081 -177.937118 
L 333.352076 -179.033961 
L 332.935356 -180.96545 
L 331.948076 -183.089135 
L 330.268296 -185.038849 
L 328.984915 -186.807966 
L 328.188963 -188.987984 
L 327.912219 -190.432355 
L 327.714026 -191.975724 
L 326.412581 -192.832736 
L 326.324773 -194.963877 
L 326.317963 -196.419846 
L 325.317199 -196.044152 
L 321.605456 -197.034128 
L 321.516316 -197.27603 
L 321.240442 -196.919805 
L 321.226809 -197.285143 
L 311.827063 -197.877058 
L 310.815805 -197.517104 
L 308.55769 -197.143067 
L 307.236998 -197.608646 
L 306.166993 -198.71046 
L 305.750272 -198.856264 
L 304.762992 -198.947806 
L 303.083212 -199.189708 
L 301.799831 -198.917982 
L 301.003879 -199.226987 
L 300.727135 -199.23113 
L 300.528942 -199.44238 
L 299.227497 -199.699194 
L 299.139689 -199.232372 
L 299.132879 -199.353738 
L 298.132115 -199.306517 
L 296.429309 -197.050283 
L 294.420372 -196.316706 
L 294.331232 -196.474523 
L 294.055358 -195.90249 
L 294.041725 -196.013086 
L 284.641979 -196.845246 
L 283.630721 -191.732579 
L 281.372606 -191.792226 
L 280.051914 -190.173884 
L 278.981909 -188.185234 
L 277.577908 -185.712779 
L 275.898128 -181.526298 
L 274.614747 -180.898761 
L 273.818795 -180.11755 
L 273.343858 -179.43368 
L 271.954605 -179.282905 
L 270.947031 -174.400128 
L 269.244225 -171.035866 
L 267.235288 -171.349842 
L 267.146149 -165.831657 
L 266.870274 -162.734565 
L 266.856641 -160.679225 
L 264.972647 -160.320929 
L 259.949509 -157.441714 
L 258.449871 -156.511385 
L 258.355254 -155.363178 
L 254.187522 -153.41015 
L 251.796825 -151.855184 
L 250.392824 -149.835881 
L 248.713044 -148.364172 
L 247.429664 -146.469548 
L 246.633712 -143.73448 
L 246.158775 -143.055166 
L 244.769522 -141.527124 
L 243.864353 -140.647329 
L 243.761947 -140.096836 
L 242.853096 -138.010431 
L 242.059142 -137.250759 
L 240.050205 -135.79189 
L 239.961065 -133.57045 
L 239.685191 -130.641529 
L 239.671557 -128.528614 
L 239.274288 -128.219609 
L 237.787563 -126.083083 
L 232.764426 -124.646168 
L 231.264788 -122.752373 
L 231.17017 -120.990713 
L 227.002438 -119.07165 
L 223.20774 -118.78667 
L 220.24458 -117.247029 
L 219.448628 -116.181666 
L 218.973691 -114.507819 
L 217.584438 -112.956581 
L 216.67927 -112.953681 
L 216.576863 -111.126989 
L 215.668012 -110.201216 
L 214.874058 -110.090206 
L 212.865121 -109.867772 
L 212.775981 -108.745247 
L 212.500107 -108.223335 
L 212.486473 -108.279669 
L 212.089204 -107.347683 
L 211.019199 -105.683777 
L 210.602479 -105.164351 
L 207.935419 -104.711613 
L 205.579342 -104.013659 
L 204.079704 -103.499617 
L 203.985086 -102.874151 
L 193.059496 -102.867109 
L 192.263544 -101.970746 
L 191.788607 -101.554459 
L 189.494186 -101.447177 
L 189.39178 -101.177937 
L 188.482928 -100.859405 
L 187.688974 -100.549157 
L 186.224813 -100.339149 
L 185.680037 -100.189203 
L 185.590897 -99.983338 
L 184.90412 -99.1926 
L 183.834116 -98.261028 
L 183.417395 -98.162859 
L 182.430115 -97.897347 
L 180.750335 -97.264425 
L 178.394258 -96.740027 
L 176.89462 -96.513865 
L 176.806812 -96.242554 
L 176.800002 -96.449662 
L 171.722481 -96.348593 
L 171.708848 -96.275277 
L 165.07846 -96.425223 
L 164.603523 -96.417767 
L 162.309102 -96.61949 
L 162.206696 -96.357706 
L 161.297844 -96.193262 
L 160.50389 -96.087223 
L 159.039729 -95.926921 
L 158.494953 -95.340392 
L 158.405813 -95.746323 
L 157.719037 -95.639041 
L 156.649032 -94.867771 
L 156.232312 -93.934543 
L 155.245031 -93.984249 
L 153.565251 -93.930815 
L 152.28187 -93.502101 
L 151.209174 -93.233689 
L 149.709536 -93.016226 
L 149.621728 -92.426797 
L 149.614918 -92.09998 
L 144.537397 -91.580139 
L 144.523764 -91.428951 
L 137.893376 -90.171391 
L 135.124018 -89.743506 
L 134.11276 -88.730748 
L 133.318806 -88.327716 
L 131.854645 -88.022025 
L 131.22073 -87.449993 
L 130.533953 -87.075127 
L 129.463948 -86.969502 
L 129.047228 -86.22847 
L 128.059947 -86.17545 
L 126.380167 -86.27072 
L 125.096787 -86.315869 
L 124.02409 -85.105945 
L 123.825897 -85.151094 
L 122.524452 -85.252577 
L 122.436645 -85.259205 
L 122.429835 -85.309739 
L 121.42907 -85.253405 
L 117.717328 -85.100146 
L 117.352313 -84.947714 
L 117.33868 -85.197486 
L 110.708293 -85.259619 
L 107.938935 -85.410808 
L 106.927677 -85.51229 
L 106.133723 -85.2008 
L 104.669561 -85.355303 
L 104.035646 -84.989136 
L 103.348869 -84.520658 
L 102.278864 -84.364498 
L 101.862144 -84.161532 
L 100.874863 -84.267986 
L 99.195083 -84.112241 
L 97.911703 -83.698025 
L 96.839007 -83.695954 
L 96.640814 -83.589086 
L 95.339369 -83.386949 
L 95.251561 -83.23576 
L 95.244751 -83.081671 
L 94.243986 -82.873321 
L 90.532244 -82.66787 
L 90.16723 -82.663728 
L 90.153596 -82.665799 
L 80.753851 -82.926755 
L 77.484477 -82.820301 
L 76.163785 -82.661656 
L 75.09378 -82.969419 
L 74.67706 -83.125164 
z
" style="stroke: #009384; stroke-opacity: 0.7; stroke-width: 1.5"/>
    </defs>
    <g clip-path="url(#p41fa700636)">
     <use xlink:href="#m7236ecc9ac" x="0" y="287.233281" style="fill: #009384; fill-opacity: 0.7; stroke: #009384; stroke-opacity: 0.7; stroke-width: 1.5"/>
    </g>
   </g>
   <g id="PolyCollection_2">
    <defs>
     <path id="meec485cc7b" d="M 74.67706 -125.333352 
L 74.67706 -83.125164 
L 75.09378 -82.969419 
L 76.163785 -82.661656 
L 77.484477 -82.820301 
L 80.753851 -82.926755 
L 90.153596 -82.665799 
L 90.16723 -82.663728 
L 90.532244 -82.66787 
L 94.243986 -82.873321 
L 95.244751 -83.081671 
L 95.251561 -83.23576 
L 95.339369 -83.386949 
L 96.640814 -83.589086 
L 96.839007 -83.695954 
L 97.911703 -83.698025 
L 99.195083 -84.112241 
L 100.874863 -84.267986 
L 101.862144 -84.161532 
L 102.278864 -84.364498 
L 103.348869 -84.520658 
L 104.035646 -84.989136 
L 104.669561 -85.355303 
L 106.133723 -85.2008 
L 106.927677 -85.51229 
L 107.938935 -85.410808 
L 110.708293 -85.259619 
L 117.33868 -85.197486 
L 117.352313 -84.947714 
L 117.717328 -85.100146 
L 121.42907 -85.253405 
L 122.429835 -85.309739 
L 122.436645 -85.259205 
L 122.524452 -85.252577 
L 123.825897 -85.151094 
L 124.02409 -85.105945 
L 125.096787 -86.315869 
L 126.380167 -86.27072 
L 128.059947 -86.17545 
L 129.047228 -86.22847 
L 129.463948 -86.969502 
L 130.533953 -87.075127 
L 131.22073 -87.449993 
L 131.854645 -88.022025 
L 133.318806 -88.327716 
L 134.11276 -88.730748 
L 135.124018 -89.743506 
L 137.893376 -90.171391 
L 144.523764 -91.428951 
L 144.537397 -91.580139 
L 149.614918 -92.09998 
L 149.621728 -92.426797 
L 149.709536 -93.016226 
L 151.209174 -93.233689 
L 152.28187 -93.502101 
L 153.565251 -93.930815 
L 155.245031 -93.984249 
L 156.232312 -93.934543 
L 156.649032 -94.867771 
L 157.719037 -95.639041 
L 158.405813 -95.746323 
L 158.494953 -95.340392 
L 159.039729 -95.926921 
L 160.50389 -96.087223 
L 161.297844 -96.193262 
L 162.206696 -96.357706 
L 162.309102 -96.61949 
L 164.603523 -96.417767 
L 165.07846 -96.425223 
L 171.708848 -96.275277 
L 171.722481 -96.348593 
L 176.800002 -96.449662 
L 176.806812 -96.242554 
L 176.89462 -96.513865 
L 178.394258 -96.740027 
L 180.750335 -97.264425 
L 182.430115 -97.897347 
L 183.417395 -98.162859 
L 183.834116 -98.261028 
L 184.90412 -99.1926 
L 185.590897 -99.983338 
L 185.680037 -100.189203 
L 186.224813 -100.339149 
L 187.688974 -100.549157 
L 188.482928 -100.859405 
L 189.39178 -101.177937 
L 189.494186 -101.447177 
L 191.788607 -101.554459 
L 192.263544 -101.970746 
L 193.059496 -102.867109 
L 203.985086 -102.874151 
L 204.079704 -103.499617 
L 205.579342 -104.013659 
L 207.935419 -104.711613 
L 210.602479 -105.164351 
L 211.019199 -105.683777 
L 212.089204 -107.347683 
L 212.486473 -108.279669 
L 212.500107 -108.223335 
L 212.775981 -108.745247 
L 212.865121 -109.867772 
L 214.874058 -110.090206 
L 215.668012 -110.201216 
L 216.576863 -111.126989 
L 216.67927 -112.953681 
L 217.584438 -112.956581 
L 218.973691 -114.507819 
L 219.448628 -116.181666 
L 220.24458 -117.247029 
L 223.20774 -118.78667 
L 227.002438 -119.07165 
L 231.17017 -120.990713 
L 231.264788 -122.752373 
L 232.764426 -124.646168 
L 237.787563 -126.083083 
L 239.274288 -128.219609 
L 239.671557 -128.528614 
L 239.685191 -130.641529 
L 239.961065 -133.57045 
L 240.050205 -135.79189 
L 242.059142 -137.250759 
L 242.853096 -138.010431 
L 243.761947 -140.096836 
L 243.864353 -140.647329 
L 244.769522 -141.527124 
L 246.158775 -143.055166 
L 246.633712 -143.73448 
L 247.429664 -146.469548 
L 248.713044 -148.364172 
L 250.392824 -149.835881 
L 251.796825 -151.855184 
L 254.187522 -153.41015 
L 258.355254 -155.363178 
L 258.449871 -156.511385 
L 259.949509 -157.441714 
L 264.972647 -160.320929 
L 266.856641 -160.679225 
L 266.870274 -162.734565 
L 267.146149 -165.831657 
L 267.235288 -171.349842 
L 269.244225 -171.035866 
L 270.947031 -174.400128 
L 271.954605 -179.282905 
L 273.343858 -179.43368 
L 273.818795 -180.11755 
L 274.614747 -180.898761 
L 275.898128 -181.526298 
L 277.577908 -185.712779 
L 278.981909 -188.185234 
L 280.051914 -190.173884 
L 281.372606 -191.792226 
L 283.630721 -191.732579 
L 284.641979 -196.845246 
L 294.041725 -196.013086 
L 294.055358 -195.90249 
L 294.331232 -196.474523 
L 294.420372 -196.316706 
L 296.429309 -197.050283 
L 298.132115 -199.306517 
L 299.132879 -199.353738 
L 299.139689 -199.232372 
L 299.227497 -199.699194 
L 300.528942 -199.44238 
L 300.727135 -199.23113 
L 301.003879 -199.226987 
L 301.799831 -198.917982 
L 303.083212 -199.189708 
L 304.762992 -198.947806 
L 305.750272 -198.856264 
L 306.166993 -198.71046 
L 307.236998 -197.608646 
L 308.55769 -197.143067 
L 310.815805 -197.517104 
L 311.827063 -197.877058 
L 321.226809 -197.285143 
L 321.240442 -196.919805 
L 321.516316 -197.27603 
L 321.605456 -197.034128 
L 325.317199 -196.044152 
L 326.317963 -196.419846 
L 326.324773 -194.963877 
L 326.412581 -192.832736 
L 327.714026 -191.975724 
L 327.912219 -190.432355 
L 328.188963 -188.987984 
L 328.984915 -186.807966 
L 330.268296 -185.038849 
L 331.948076 -183.089135 
L 332.935356 -180.96545 
L 333.352076 -179.033961 
L 334.422081 -177.937118 
L 335.742773 -175.203707 
L 337.206935 -171.916903 
L 338.000889 -169.28539 
L 339.012147 -167.070991 
L 348.411892 -165.676326 
L 348.425526 -162.585861 
L 348.79054 -161.57476 
L 352.502282 -160.538806 
L 353.503047 -158.6272 
L 353.509857 -157.204782 
L 353.597665 -154.095263 
L 354.89911 -151.835715 
L 355.097303 -149.733984 
L 356.169999 -147.764801 
L 357.453379 -146.204864 
L 359.133159 -143.164105 
L 360.12044 -141.45505 
L 360.53716 -140.418682 
L 361.607165 -137.637222 
L 362.293942 -136.595883 
L 362.927857 -134.126328 
L 364.392019 -130.874319 
L 365.185973 -125.193762 
L 366.197231 -125.350749 
L 368.966589 -121.974061 
L 375.596976 -116.877963 
L 375.61061 -116.619492 
L 375.975624 -115.354062 
L 379.687366 -114.526045 
L 380.688131 -114.053424 
L 380.694941 -109.857003 
L 380.782748 -106.9053 
L 382.084194 -104.54924 
L 382.282386 -102.352653 
L 384.638463 -102.511298 
L 386.318243 -97.60781 
L 387.305524 -97.561003 
L 387.722244 -96.882518 
L 388.792249 -96.36102 
L 389.479026 -96.461674 
L 391.577102 -95.610875 
L 392.371056 -92.88989 
L 393.382314 -92.679054 
L 396.151672 -92.47816 
L 396.947625 -91.700676 
L 402.78206 -91.229713 
L 402.795693 -90.646083 
L 403.705483 -90.637798 
L 407.873215 -90.213227 
L 407.967832 -89.574092 
L 409.269277 -88.915488 
L 409.46747 -88.809863 
L 411.823547 -88.329373 
L 413.503327 -87.448336 
L 414.490608 -86.929737 
L 414.907328 -87.080512 
L 415.977333 -86.506409 
L 416.664109 -86.126987 
L 416.753249 -86.324154 
L 418.762186 -85.957158 
L 419.55614 -85.325893 
L 420.464992 -84.435743 
L 420.567398 -83.94614 
L 421.472566 -84.00703 
L 423.336756 -84.415861 
L 424.132708 -84.103542 
L 429.980777 -83.990461 
L 430.890567 -84.144964 
L 435.058298 -84.50616 
L 435.152916 -84.503675 
L 436.652554 -84.501604 
L 439.008631 -84.395979 
L 440.688411 -84.555037 
L 441.675691 -85.391754 
L 442.092412 -85.181332 
L 443.162416 -85.176776 
L 443.559686 -85.134526 
L 443.849193 -84.82055 
L 443.938333 -85.243879 
L 445.94727 -84.989964 
L 446.741224 -85.092276 
L 447.650076 -86.08308 
L 447.752482 -86.195333 
L 448.65765 -87.407328 
L 450.046903 -87.358451 
L 450.52184 -87.246198 
L 451.317792 -87.396144 
L 457.165861 -87.29839 
L 458.075651 -88.241145 
L 462.243382 -88.92543 
L 462.338 -88.874895 
L 463.837638 -89.767116 
L 466.193715 -90.489095 
L 468.860775 -91.175451 
L 469.277495 -91.378002 
L 470.3475 -91.78352 
L 470.74477 -92.142645 
L 471.034277 -92.300047 
L 471.123417 -93.110667 
L 471.123417 -142.941257 
L 471.123417 -142.941257 
L 471.034277 -141.918558 
L 470.74477 -141.448009 
L 470.3475 -140.823371 
L 469.277495 -140.100978 
L 468.860775 -139.789902 
L 466.193715 -138.486779 
L 463.837638 -138.176117 
L 462.338 -137.230462 
L 462.243382 -136.126162 
L 458.075651 -135.278262 
L 457.165861 -134.137098 
L 451.317792 -134.293671 
L 450.52184 -133.824779 
L 450.046903 -133.989222 
L 448.65765 -133.307423 
L 447.752482 -131.843998 
L 447.650076 -131.420255 
L 446.741224 -129.601019 
L 445.94727 -129.651553 
L 443.938333 -129.428705 
L 443.849193 -128.954842 
L 443.559686 -129.263019 
L 443.162416 -129.253078 
L 442.092412 -128.253989 
L 441.675691 -128.460683 
L 440.688411 -127.416858 
L 439.008631 -127.571361 
L 436.652554 -127.88368 
L 435.152916 -127.992204 
L 435.058298 -127.785511 
L 430.890567 -127.46905 
L 429.980777 -127.317447 
L 424.132708 -127.580059 
L 423.336756 -128.149192 
L 421.472566 -128.055579 
L 420.567398 -128.208425 
L 420.464992 -129.38397 
L 419.55614 -130.590995 
L 418.762186 -131.166341 
L 416.753249 -131.532508 
L 416.664109 -131.130304 
L 415.977333 -131.825358 
L 414.907328 -132.666217 
L 414.490608 -133.034041 
L 413.503327 -133.604416 
L 411.823547 -135.223172 
L 409.46747 -136.10628 
L 409.269277 -136.053675 
L 407.967832 -136.922285 
L 407.873215 -137.984335 
L 403.705483 -138.874071 
L 402.795693 -138.936617 
L 402.78206 -139.991211 
L 396.947625 -140.627447 
L 396.151672 -141.519668 
L 393.382314 -141.872994 
L 392.371056 -142.448754 
L 391.577102 -145.371048 
L 389.479026 -146.536651 
L 388.792249 -146.538722 
L 387.722244 -147.11324 
L 387.305524 -147.95037 
L 386.318243 -147.944571 
L 384.638463 -152.952856 
L 382.282386 -153.322336 
L 382.084194 -155.774909 
L 380.782748 -158.242393 
L 380.694941 -161.400375 
L 380.688131 -165.026007 
L 379.687366 -165.401701 
L 375.975624 -166.021782 
L 375.61061 -167.395737 
L 375.596976 -167.648408 
L 368.966589 -172.63474 
L 366.197231 -176.0048 
L 365.185973 -176.002315 
L 364.392019 -181.838203 
L 362.927857 -185.2501 
L 362.293942 -187.83605 
L 361.607165 -188.924195 
L 360.53716 -191.393336 
L 360.12044 -192.488109 
L 359.133159 -194.089882 
L 357.453379 -197.336092 
L 356.169999 -198.788747 
L 355.097303 -200.68917 
L 354.89911 -203.108605 
L 353.597665 -205.167258 
L 353.509857 -208.373289 
L 353.503047 -210.001572 
L 352.502282 -212.376686 
L 348.79054 -213.570042 
L 348.425526 -214.905889 
L 348.411892 -217.992626 
L 339.012147 -219.387291 
L 338.000889 -221.18623 
L 337.206935 -224.125092 
L 335.742773 -227.364261 
L 334.422081 -229.992047 
L 333.352076 -231.562339 
L 332.935356 -234.012841 
L 331.948076 -236.397482 
L 330.268296 -238.340983 
L 328.984915 -240.158976 
L 328.188963 -242.664154 
L 327.912219 -244.209594 
L 327.714026 -245.453899 
L 326.412581 -247.20976 
L 326.324773 -249.504102 
L 326.317963 -251.004392 
L 325.317199 -250.150693 
L 321.605456 -251.240909 
L 321.516316 -251.847736 
L 321.240442 -251.699446 
L 321.226809 -252.430123 
L 311.827063 -253.021209 
L 310.815805 -252.492256 
L 308.55769 -252.12816 
L 307.236998 -252.499711 
L 306.166993 -253.496315 
L 305.750272 -253.447437 
L 304.762992 -253.595312 
L 303.083212 -253.469805 
L 301.799831 -253.03405 
L 301.003879 -252.773922 
L 300.727135 -252.83067 
L 300.528942 -252.682381 
L 299.227497 -252.616934 
L 299.139689 -251.939691 
L 299.132879 -252.012179 
L 298.132115 -251.703588 
L 296.429309 -249.192197 
L 294.420372 -248.095768 
L 294.331232 -248.410572 
L 294.055358 -248.452408 
L 294.041725 -248.458207 
L 284.641979 -249.484634 
L 283.630721 -244.371138 
L 281.372606 -244.266342 
L 280.051914 -242.709718 
L 278.981909 -240.250104 
L 277.577908 -238.312816 
L 275.898128 -234.701682 
L 274.614747 -233.759755 
L 273.818795 -232.774335 
L 273.343858 -231.934719 
L 271.954605 -231.529616 
L 270.947031 -226.702344 
L 269.244225 -223.131803 
L 267.235288 -223.188964 
L 267.146149 -217.819898 
L 266.870274 -214.924528 
L 266.856641 -212.964044 
L 264.972647 -212.504679 
L 259.949509 -209.683868 
L 258.449871 -208.435836 
L 258.355254 -207.241651 
L 254.187522 -205.661003 
L 251.796825 -204.316458 
L 250.392824 -202.093362 
L 248.713044 -200.261285 
L 247.429664 -198.77922 
L 246.633712 -195.690412 
L 246.158775 -195.166015 
L 244.769522 -193.224585 
L 243.864353 -192.34189 
L 243.761947 -191.88004 
L 242.853096 -190.518098 
L 242.059142 -189.916242 
L 240.050205 -188.927509 
L 239.961065 -186.661333 
L 239.685191 -184.205447 
L 239.671557 -182.466569 
L 239.274288 -182.108272 
L 237.787563 -179.664398 
L 232.764426 -178.179848 
L 231.264788 -176.548252 
L 231.17017 -175.427797 
L 227.002438 -173.342635 
L 223.20774 -173.318196 
L 220.24458 -171.882938 
L 219.448628 -170.177196 
L 218.973691 -168.391097 
L 217.584438 -166.588015 
L 216.67927 -166.691569 
L 216.576863 -164.450661 
L 215.668012 -163.053925 
L 214.874058 -162.834391 
L 212.865121 -162.55231 
L 212.775981 -161.27114 
L 212.500107 -160.498213 
L 212.486473 -160.027249 
L 212.089204 -159.820556 
L 211.019199 -158.249021 
L 210.602479 -157.879126 
L 207.935419 -157.421831 
L 205.579342 -158.030729 
L 204.079704 -157.621898 
L 203.985086 -157.349344 
L 193.059496 -157.285969 
L 192.263544 -156.274039 
L 191.788607 -156.076044 
L 189.494186 -156.177527 
L 189.39178 -155.903316 
L 188.482928 -155.632833 
L 187.688974 -155.011923 
L 186.224813 -155.009024 
L 185.680037 -154.911269 
L 185.590897 -154.8073 
L 184.90412 -153.756849 
L 183.834116 -152.780956 
L 183.417395 -153.246535 
L 182.430115 -153.030728 
L 180.750335 -152.451654 
L 178.394258 -151.980277 
L 176.89462 -151.121193 
L 176.806812 -150.332526 
L 176.800002 -150.854852 
L 171.722481 -150.697864 
L 171.708848 -150.721475 
L 165.07846 -150.76621 
L 164.603523 -150.818815 
L 162.309102 -151.015154 
L 162.206696 -150.858994 
L 161.297844 -151.317946 
L 160.50389 -150.641531 
L 159.039729 -150.175124 
L 158.494953 -150.006952 
L 158.405813 -150.19832 
L 157.719037 -150.508568 
L 156.649032 -150.270808 
L 156.232312 -148.974312 
L 155.245031 -149.073309 
L 153.565251 -149.330538 
L 152.28187 -148.694716 
L 151.209174 -148.220025 
L 149.709536 -148.047297 
L 149.621728 -147.246203 
L 149.614918 -146.764056 
L 144.537397 -146.297234 
L 144.523764 -145.477087 
L 137.893376 -143.489679 
L 135.124018 -142.903977 
L 134.11276 -141.371379 
L 133.318806 -141.11415 
L 131.854645 -140.224829 
L 131.22073 -139.236924 
L 130.533953 -138.336833 
L 129.463948 -138.176117 
L 129.047228 -137.06519 
L 128.059947 -136.651802 
L 126.380167 -135.897929 
L 125.096787 -135.626618 
L 124.02409 -133.843004 
L 123.825897 -133.521158 
L 122.524452 -133.315707 
L 122.436645 -132.906048 
L 122.429835 -132.902734 
L 121.42907 -132.590829 
L 117.717328 -132.488518 
L 117.352313 -132.702254 
L 117.33868 -132.851786 
L 110.708293 -132.85717 
L 107.938935 -132.961553 
L 106.927677 -133.059308 
L 106.133723 -132.909362 
L 104.669561 -132.332773 
L 104.035646 -131.399959 
L 103.348869 -130.253823 
L 102.278864 -130.103877 
L 101.862144 -128.491334 
L 100.874863 -128.806139 
L 99.195083 -128.289611 
L 97.911703 -127.824447 
L 96.839007 -127.980606 
L 96.640814 -127.604912 
L 95.339369 -127.141405 
L 95.251561 -127.045721 
L 95.244751 -126.788079 
L 94.243986 -126.735473 
L 90.532244 -126.416113 
L 90.16723 -126.148943 
L 90.153596 -125.48537 
L 80.753851 -125.851951 
L 77.484477 -125.745911 
L 76.163785 -124.920793 
L 75.09378 -125.07571 
L 74.67706 -125.333352 
z
" style="stroke: #009384; stroke-opacity: 0.7; stroke-width: 1.5"/>
    </defs>
    <g clip-path="url(#p41fa700636)">
     <use xlink:href="#meec485cc7b" x="0" y="287.233281" style="fill: #009384; fill-opacity: 0.7; stroke: #009384; stroke-opacity: 0.7; stroke-width: 1.5"/>
    </g>
   </g>
   <g id="PolyCollection_3">
    <defs>
     <path id="m978765e7da" d="M 68.878835 -82.448403 
L 68.878835 -42.395313 
L 72.37761 -42.395313 
L 72.89066 -42.395313 
L 74.152293 -42.395313 
L 78.341922 -42.395313 
L 79.753236 -42.395313 
L 80.047134 -42.395313 
L 80.406398 -42.395313 
L 83.730726 -42.395313 
L 84.755046 -42.395313 
L 86.632516 -42.395313 
L 90.09697 -42.395313 
L 90.462949 -42.395313 
L 93.810303 -42.395313 
L 94.282562 -42.395313 
L 94.307926 -42.395313 
L 94.377995 -42.395313 
L 94.378661 -42.395313 
L 95.08531 -42.395313 
L 96.063919 -42.395313 
L 99.562694 -42.395313 
L 100.075744 -42.395313 
L 101.337377 -42.395313 
L 103.219658 -42.395313 
L 105.527006 -42.395313 
L 106.93832 -42.395313 
L 107.232217 -42.395313 
L 107.591482 -42.395313 
L 110.91581 -42.395313 
L 111.94013 -42.395313 
L 113.8176 -42.395313 
L 117.282054 -42.395313 
L 117.648033 -42.395313 
L 120.995387 -42.395313 
L 121.467646 -42.395313 
L 121.563079 -42.395313 
L 121.563745 -42.395313 
L 122.270394 -42.395313 
L 123.249003 -42.395313 
L 126.747777 -42.395313 
L 127.260828 -42.395313 
L 128.522461 -42.395313 
L 130.404742 -42.395313 
L 132.71209 -42.395313 
L 134.123403 -42.395313 
L 134.417301 -42.395313 
L 134.776566 -42.395313 
L 135.085551 -42.395313 
L 138.100894 -42.395313 
L 139.125214 -42.395313 
L 141.002684 -42.395313 
L 144.467137 -42.395313 
L 144.833117 -42.395313 
L 148.18047 -42.395313 
L 148.65273 -42.395313 
L 148.748829 -42.395313 
L 149.455478 -42.395313 
L 150.434087 -42.395313 
L 153.932861 -42.395313 
L 154.445912 -42.395313 
L 155.707544 -42.395313 
L 157.589826 -42.395313 
L 159.897174 -42.395313 
L 161.308487 -42.395313 
L 161.96165 -42.395313 
L 162.270635 -42.395313 
L 162.340705 -42.395313 
L 165.285978 -42.395313 
L 166.310298 -42.395313 
L 168.187768 -42.395313 
L 171.652221 -42.395313 
L 172.0182 -42.395313 
L 175.194927 -42.395313 
L 175.933913 -42.395313 
L 176.640562 -42.395313 
L 177.61917 -42.395313 
L 181.117945 -42.395313 
L 181.630996 -42.395313 
L 182.892628 -42.395313 
L 184.77491 -42.395313 
L 187.082257 -42.395313 
L 188.493571 -42.395313 
L 188.958096 -42.395313 
L 189.146733 -42.395313 
L 189.430355 -42.395313 
L 189.455719 -42.395313 
L 189.525789 -42.395313 
L 192.471061 -42.395313 
L 193.495382 -42.395313 
L 195.372852 -42.395313 
L 202.380011 -42.395313 
L 203.825646 -42.395313 
L 204.804254 -42.395313 
L 208.303029 -42.395313 
L 208.816079 -42.395313 
L 210.077712 -42.395313 
L 211.959994 -42.395313 
L 212.429847 -42.395313 
L 212.795826 -42.395313 
L 214.267341 -42.395313 
L 215.678655 -42.395313 
L 216.14318 -42.395313 
L 216.331817 -42.395313 
L 216.615439 -42.395313 
L 216.640803 -42.395313 
L 216.710872 -42.395313 
L 216.711538 -42.395313 
L 219.656145 -42.395313 
L 220.680465 -42.395313 
L 222.557935 -42.395313 
L 229.565095 -42.395313 
L 231.989338 -42.395313 
L 237.262796 -42.395313 
L 239.145077 -42.395313 
L 239.614931 -42.395313 
L 239.98091 -42.395313 
L 241.452425 -42.395313 
L 242.863739 -42.395313 
L 243.328264 -42.395313 
L 243.516901 -42.395313 
L 243.800523 -42.395313 
L 243.825887 -42.395313 
L 243.895956 -42.395313 
L 243.896622 -42.395313 
L 244.603271 -42.395313 
L 246.841229 -42.395313 
L 247.865549 -42.395313 
L 249.080655 -42.395313 
L 249.593705 -42.395313 
L 249.743019 -42.395313 
L 256.750178 -42.395313 
L 259.174422 -42.395313 
L 264.44788 -42.395313 
L 266.330161 -42.395313 
L 266.800015 -42.395313 
L 267.165994 -42.395313 
L 268.637509 -42.395313 
L 270.048822 -42.395313 
L 270.513347 -42.395313 
L 270.985607 -42.395313 
L 271.01097 -42.395313 
L 271.08104 -42.395313 
L 271.081706 -42.395313 
L 271.788355 -42.395313 
L 274.026313 -42.395313 
L 275.050633 -42.395313 
L 276.265738 -42.395313 
L 276.778789 -42.395313 
L 276.928103 -42.395313 
L 283.935262 -42.395313 
L 284.294527 -42.395313 
L 293.515245 -42.395313 
L 293.985098 -42.395313 
L 294.351078 -42.395313 
L 295.822592 -42.395313 
L 297.233906 -42.395313 
L 297.698431 -42.395313 
L 298.170691 -42.395313 
L 298.196054 -42.395313 
L 298.266124 -42.395313 
L 298.26679 -42.395313 
L 298.973439 -42.395313 
L 299.952047 -42.395313 
L 301.211397 -42.395313 
L 302.235717 -42.395313 
L 303.450822 -42.395313 
L 303.963873 -42.395313 
L 304.113187 -42.395313 
L 305.225505 -42.395313 
L 311.120346 -42.395313 
L 311.47961 -42.395313 
L 320.700329 -42.395313 
L 321.170182 -42.395313 
L 321.536161 -42.395313 
L 323.007676 -42.395313 
L 324.41899 -42.395313 
L 324.883515 -42.395313 
L 325.355774 -42.395313 
L 325.381138 -42.395313 
L 325.451208 -42.395313 
L 325.451874 -42.395313 
L 326.158523 -42.395313 
L 327.137131 -42.395313 
L 328.39648 -42.395313 
L 329.420801 -42.395313 
L 330.635906 -42.395313 
L 331.148956 -42.395313 
L 331.298271 -42.395313 
L 332.410589 -42.395313 
L 338.30543 -42.395313 
L 338.664694 -42.395313 
L 347.885413 -42.395313 
L 348.355266 -42.395313 
L 348.721245 -42.395313 
L 352.068599 -42.395313 
L 352.540858 -42.395313 
L 352.566222 -42.395313 
L 352.636291 -42.395313 
L 352.636957 -42.395313 
L 353.343606 -42.395313 
L 354.322215 -42.395313 
L 357.82099 -42.395313 
L 358.33404 -42.395313 
L 359.595673 -42.395313 
L 363.785302 -42.395313 
L 365.196616 -42.395313 
L 365.490514 -42.395313 
L 365.849778 -42.395313 
L 369.174106 -42.395313 
L 370.198426 -42.395313 
L 372.075896 -42.395313 
L 375.54035 -42.395313 
L 375.906329 -42.395313 
L 379.253683 -42.395313 
L 379.725942 -42.395313 
L 379.751306 -42.395313 
L 379.821375 -42.395313 
L 379.822041 -42.395313 
L 380.52869 -42.395313 
L 381.507299 -42.395313 
L 385.006074 -42.395313 
L 385.519124 -42.395313 
L 386.780757 -42.395313 
L 388.663038 -42.395313 
L 390.970386 -42.395313 
L 392.381699 -42.395313 
L 392.675597 -42.395313 
L 393.034862 -42.395313 
L 396.35919 -42.395313 
L 397.38351 -42.395313 
L 399.26098 -42.395313 
L 402.725433 -42.395313 
L 403.091413 -42.395313 
L 406.438766 -42.395313 
L 406.911026 -42.395313 
L 407.006459 -42.395313 
L 407.007125 -42.395313 
L 407.713774 -42.395313 
L 408.692383 -42.395313 
L 412.191157 -42.395313 
L 412.704208 -42.395313 
L 413.96584 -42.395313 
L 415.848122 -42.395313 
L 418.15547 -42.395313 
L 419.566783 -42.395313 
L 419.860681 -42.395313 
L 420.219946 -42.395313 
L 420.528931 -42.395313 
L 423.544274 -42.395313 
L 424.568594 -42.395313 
L 426.446064 -42.395313 
L 429.910517 -42.395313 
L 430.276496 -42.395313 
L 433.62385 -42.395313 
L 434.096109 -42.395313 
L 434.192209 -42.395313 
L 434.898858 -42.395313 
L 435.877466 -42.395313 
L 439.376241 -42.395313 
L 439.889292 -42.395313 
L 441.150924 -42.395313 
L 443.033206 -42.395313 
L 445.340553 -42.395313 
L 446.751867 -42.395313 
L 447.405029 -42.395313 
L 447.714015 -42.395313 
L 447.784085 -42.395313 
L 450.729357 -42.395313 
L 451.753678 -42.395313 
L 453.631148 -42.395313 
L 457.095601 -42.395313 
L 457.46158 -42.395313 
L 460.638307 -42.395313 
L 461.377293 -42.395313 
L 462.083942 -42.395313 
L 463.06255 -42.395313 
L 466.561325 -42.395313 
L 467.074375 -42.395313 
L 468.336008 -42.395313 
L 470.21829 -42.395313 
L 472.525637 -42.395313 
L 473.936951 -42.395313 
L 474.401476 -42.395313 
L 474.590113 -42.395313 
L 474.873735 -42.395313 
L 474.899099 -42.395313 
L 474.969168 -42.395313 
L 477.914441 -42.395313 
L 478.938762 -42.395313 
L 480.816231 -42.395313 
L 487.823391 -42.395313 
L 489.269025 -42.395313 
L 490.247634 -42.395313 
L 494.259459 -42.395313 
L 495.521092 -42.395313 
L 497.403373 -42.395313 
L 497.873227 -42.395313 
L 498.239206 -42.395313 
L 499.710721 -42.395313 
L 501.122035 -42.395313 
L 501.58656 -42.395313 
L 501.775197 -42.395313 
L 502.058819 -42.395313 
L 502.084183 -42.395313 
L 502.154252 -42.395313 
L 502.154918 -42.395313 
L 505.099525 -42.395313 
L 506.123845 -42.395313 
L 507.338951 -42.395313 
L 508.001315 -42.395313 
L 515.008474 -42.395313 
L 517.432718 -42.395313 
L 522.706176 -42.395313 
L 524.588457 -42.395313 
L 525.058311 -42.395313 
L 525.42429 -42.395313 
L 525.42429 -108.277971 
L 525.42429 -108.277971 
L 525.058311 -107.339819 
L 524.588457 -106.939836 
L 522.706176 -106.560455 
L 517.432718 -105.469546 
L 515.008474 -105.53085 
L 508.001315 -105.015797 
L 507.338951 -104.888666 
L 506.123845 -104.882636 
L 505.099525 -98.237689 
L 502.154918 -97.976394 
L 502.154252 -97.277428 
L 502.084183 -96.582483 
L 502.058819 -96.506104 
L 501.775197 -95.805128 
L 501.58656 -95.679505 
L 501.122035 -95.676993 
L 499.710721 -94.979032 
L 498.239206 -94.428302 
L 497.873227 -94.305191 
L 497.403373 -94.363983 
L 495.521092 -93.414777 
L 494.259459 -92.396729 
L 490.247634 -92.579636 
L 489.269025 -92.202767 
L 487.823391 -89.738047 
L 480.816231 -88.278309 
L 478.938762 -88.275294 
L 477.914441 -88.275796 
L 474.969168 -89.220983 
L 474.899099 -89.098375 
L 474.873735 -88.468753 
L 474.590113 -87.587886 
L 474.401476 -87.737126 
L 473.936951 -87.421561 
L 472.525637 -87.229609 
L 470.21829 -87.359755 
L 468.336008 -87.304481 
L 467.074375 -87.18338 
L 466.561325 -87.187903 
L 463.06255 -87.057757 
L 462.083942 -85.988455 
L 461.377293 -85.983933 
L 460.638307 -85.980416 
L 457.46158 -91.715853 
L 457.095601 -90.650571 
L 453.631148 -90.776696 
L 451.753678 -91.402298 
L 450.729357 -90.517913 
L 447.784085 -90.517411 
L 447.714015 -91.532946 
L 447.405029 -92.352007 
L 446.751867 -93.050973 
L 445.340553 -92.990171 
L 443.033206 -92.991176 
L 441.150924 -93.754963 
L 439.889292 -93.816267 
L 439.376241 -94.825772 
L 435.877466 -94.010229 
L 434.898858 -93.699689 
L 434.192209 -93.702202 
L 434.096109 -93.759988 
L 433.62385 -93.705217 
L 430.276496 -94.018269 
L 429.910517 -95.016217 
L 426.446064 -95.014709 
L 424.568594 -94.952903 
L 423.544274 -94.514228 
L 420.528931 -94.765976 
L 420.219946 -94.580054 
L 419.860681 -93.446936 
L 419.566783 -92.885151 
L 418.15547 -92.947459 
L 415.848122 -93.630848 
L 413.96584 -93.566529 
L 412.704208 -93.506732 
L 412.191157 -94.134847 
L 408.692383 -94.325793 
L 407.713774 -95.826735 
L 407.007125 -95.709655 
L 407.006459 -96.71715 
L 406.911026 -96.905585 
L 406.438766 -97.279941 
L 403.091413 -97.277931 
L 402.725433 -97.226174 
L 399.26098 -97.411593 
L 397.38351 -97.345265 
L 396.35919 -98.224625 
L 393.034862 -98.164828 
L 392.675597 -98.105032 
L 392.381699 -97.100049 
L 390.970386 -97.344762 
L 388.663038 -97.345265 
L 386.780757 -97.406066 
L 385.519124 -96.324202 
L 385.006074 -96.515149 
L 381.507299 -96.70509 
L 380.52869 -96.957341 
L 379.822041 -96.640772 
L 379.821375 -96.516154 
L 379.751306 -96.772424 
L 379.725942 -97.708063 
L 379.253683 -97.76987 
L 375.906329 -97.836199 
L 375.54035 -97.646759 
L 372.075896 -91.658066 
L 370.198426 -92.406779 
L 369.174106 -92.591193 
L 365.849778 -91.514856 
L 365.490514 -93.387642 
L 365.196616 -93.262019 
L 363.785302 -92.752493 
L 359.595673 -91.562593 
L 358.33404 -90.866642 
L 357.82099 -91.8666 
L 354.322215 -91.8666 
L 353.343606 -92.036442 
L 352.636957 -92.101264 
L 352.636291 -91.211352 
L 352.566222 -91.334964 
L 352.540858 -91.652037 
L 352.068599 -91.593747 
L 348.721245 -91.716858 
L 348.355266 -91.650529 
L 347.885413 -91.665101 
L 338.664694 -90.725945 
L 338.30543 -90.913877 
L 332.410589 -91.61033 
L 331.298271 -91.61033 
L 331.148956 -91.486214 
L 330.635906 -91.549026 
L 329.420801 -91.550533 
L 328.39648 -91.175675 
L 327.137131 -91.231451 
L 326.158523 -90.609869 
L 325.451874 -89.729504 
L 325.451208 -89.788798 
L 325.381138 -89.031041 
L 325.355774 -88.654173 
L 324.883515 -87.590901 
L 324.41899 -87.6512 
L 323.007676 -86.703501 
L 321.536161 -85.761329 
L 321.170182 -85.57993 
L 320.700329 -86.45929 
L 311.47961 -86.388439 
L 311.120346 -87.268301 
L 305.225505 -88.708442 
L 304.113187 -88.015003 
L 303.963873 -88.135099 
L 303.450822 -88.067263 
L 302.235717 -88.315996 
L 301.211397 -88.1959 
L 299.952047 -88.637088 
L 298.973439 -89.591822 
L 298.26679 -89.644081 
L 298.266124 -89.645588 
L 298.196054 -90.513893 
L 298.170691 -90.195314 
L 297.698431 -90.567157 
L 297.233906 -91.631937 
L 295.822592 -91.061107 
L 294.351078 -90.316917 
L 293.985098 -90.384251 
L 293.515245 -90.322947 
L 284.294527 -90.323952 
L 283.935262 -90.514396 
L 276.928103 -89.769201 
L 276.778789 -89.52097 
L 276.265738 -89.461174 
L 275.050633 -87.65321 
L 274.026313 -88.224542 
L 271.788355 -87.594418 
L 271.081706 -87.968774 
L 271.08104 -88.095402 
L 271.01097 -86.848721 
L 270.985607 -86.90902 
L 270.513347 -85.913082 
L 270.048822 -87.168808 
L 268.637509 -87.870286 
L 267.165994 -87.618035 
L 266.800015 -87.677832 
L 266.330161 -87.681852 
L 264.44788 -88.310971 
L 259.174422 -88.563222 
L 256.750178 -87.929077 
L 249.743019 -88.118517 
L 249.593705 -88.186353 
L 249.080655 -87.552209 
L 247.865549 -87.925057 
L 246.841229 -88.052188 
L 244.603271 -88.243135 
L 243.896622 -88.560207 
L 243.895956 -88.993354 
L 243.825887 -88.933558 
L 243.800523 -88.996872 
L 243.516901 -90.241041 
L 243.328264 -90.937494 
L 242.863739 -90.941011 
L 241.452425 -92.068099 
L 239.98091 -92.641945 
L 239.614931 -92.577626 
L 239.145077 -92.704756 
L 237.262796 -92.702746 
L 231.989338 -92.700234 
L 229.565095 -91.697261 
L 222.557935 -92.517829 
L 220.680465 -91.763087 
L 219.656145 -90.197324 
L 216.711538 -90.074213 
L 216.710872 -90.013914 
L 216.640803 -90.141547 
L 216.615439 -89.887287 
L 216.331817 -90.377718 
L 216.14318 -90.619417 
L 215.678655 -89.983765 
L 214.267341 -89.989795 
L 212.795826 -90.106875 
L 212.429847 -89.991805 
L 211.959994 -89.997835 
L 210.077712 -90.938499 
L 208.816079 -90.125467 
L 208.303029 -92.32437 
L 204.804254 -92.706264 
L 203.825646 -92.701741 
L 202.380011 -92.764553 
L 195.372852 -93.965507 
L 193.495382 -93.77657 
L 192.471061 -94.030329 
L 189.525789 -95.163949 
L 189.455719 -95.788044 
L 189.430355 -95.788044 
L 189.146733 -95.407658 
L 188.958096 -95.661416 
L 188.493571 -95.658903 
L 187.082257 -95.657898 
L 184.77491 -96.091548 
L 182.892628 -96.032757 
L 181.630996 -95.910149 
L 181.117945 -94.654423 
L 177.61917 -93.954955 
L 176.640562 -93.895661 
L 175.933913 -93.833352 
L 175.194927 -93.891138 
L 172.0182 -93.705217 
L 171.652221 -93.521807 
L 168.187768 -94.275042 
L 166.310298 -94.968983 
L 165.285978 -95.285552 
L 162.340705 -95.033804 
L 162.270635 -95.474489 
L 161.96165 -96.238276 
L 161.308487 -96.668409 
L 159.897174 -96.659866 
L 157.589826 -96.541781 
L 155.707544 -96.604592 
L 154.445912 -96.667404 
L 153.932861 -96.114161 
L 150.434087 -95.292085 
L 149.455478 -95.913164 
L 148.748829 -94.787583 
L 148.65273 -93.713759 
L 148.18047 -93.714764 
L 144.833117 -93.650445 
L 144.467137 -94.029826 
L 141.002684 -94.094647 
L 139.125214 -94.280569 
L 138.100894 -93.211267 
L 135.085551 -93.211267 
L 134.776566 -93.338398 
L 134.417301 -93.215287 
L 134.123403 -93.215287 
L 132.71209 -93.024843 
L 130.404742 -93.025848 
L 128.522461 -92.593203 
L 127.260828 -91.786704 
L 126.747777 -91.407826 
L 123.249003 -91.410338 
L 122.270394 -92.230907 
L 121.563745 -91.225421 
L 121.563079 -91.222909 
L 121.467646 -90.345056 
L 120.995387 -90.219433 
L 117.648033 -88.270772 
L 117.282054 -87.703459 
L 113.8176 -87.701449 
L 111.94013 -87.513014 
L 110.91581 -86.502002 
L 107.591482 -86.814551 
L 107.232217 -87.49191 
L 106.93832 -86.548231 
L 105.527006 -85.919112 
L 103.219658 -85.853788 
L 101.337377 -85.790976 
L 100.075744 -85.727662 
L 99.562694 -85.41461 
L 96.063919 -85.355819 
L 95.08531 -84.922169 
L 94.378661 -85.744747 
L 94.377995 -86.242214 
L 94.307926 -85.986948 
L 94.282562 -86.555266 
L 93.810303 -86.985398 
L 90.462949 -86.796462 
L 90.09697 -86.478887 
L 86.632516 -85.600532 
L 84.755046 -85.469884 
L 83.730726 -84.457866 
L 80.406398 -83.263444 
L 80.047134 -82.630305 
L 79.753236 -82.568499 
L 78.341922 -81.568541 
L 74.152293 -81.369554 
L 72.89066 -81.817274 
L 72.37761 -82.700654 
L 68.878835 -82.448403 
z
" style="stroke: #b85741; stroke-opacity: 0.7; stroke-width: 1.5"/>
    </defs>
    <g clip-path="url(#p41fa700636)">
     <use xlink:href="#m978765e7da" x="0" y="287.233281" style="fill: #b85741; fill-opacity: 0.7; stroke: #b85741; stroke-opacity: 0.7; stroke-width: 1.5"/>
    </g>
   </g>
   <g id="PolyCollection_4">
    <defs>
     <path id="md59d7e6b9d" d="M 68.878835 -125.605886 
L 68.878835 -82.448403 
L 72.37761 -82.700654 
L 72.89066 -81.817274 
L 74.152293 -81.369554 
L 78.341922 -81.568541 
L 79.753236 -82.568499 
L 80.047134 -82.630305 
L 80.406398 -83.263444 
L 83.730726 -84.457866 
L 84.755046 -85.469884 
L 86.632516 -85.600532 
L 90.09697 -86.478887 
L 90.462949 -86.796462 
L 93.810303 -86.985398 
L 94.282562 -86.555266 
L 94.307926 -85.986948 
L 94.377995 -86.242214 
L 94.378661 -85.744747 
L 95.08531 -84.922169 
L 96.063919 -85.355819 
L 99.562694 -85.41461 
L 100.075744 -85.727662 
L 101.337377 -85.790976 
L 103.219658 -85.853788 
L 105.527006 -85.919112 
L 106.93832 -86.548231 
L 107.232217 -87.49191 
L 107.591482 -86.814551 
L 110.91581 -86.502002 
L 111.94013 -87.513014 
L 113.8176 -87.701449 
L 117.282054 -87.703459 
L 117.648033 -88.270772 
L 120.995387 -90.219433 
L 121.467646 -90.345056 
L 121.563079 -91.222909 
L 121.563745 -91.225421 
L 122.270394 -92.230907 
L 123.249003 -91.410338 
L 126.747777 -91.407826 
L 127.260828 -91.786704 
L 128.522461 -92.593203 
L 130.404742 -93.025848 
L 132.71209 -93.024843 
L 134.123403 -93.215287 
L 134.417301 -93.215287 
L 134.776566 -93.338398 
L 135.085551 -93.211267 
L 138.100894 -93.211267 
L 139.125214 -94.280569 
L 141.002684 -94.094647 
L 144.467137 -94.029826 
L 144.833117 -93.650445 
L 148.18047 -93.714764 
L 148.65273 -93.713759 
L 148.748829 -94.787583 
L 149.455478 -95.913164 
L 150.434087 -95.292085 
L 153.932861 -96.114161 
L 154.445912 -96.667404 
L 155.707544 -96.604592 
L 157.589826 -96.541781 
L 159.897174 -96.659866 
L 161.308487 -96.668409 
L 161.96165 -96.238276 
L 162.270635 -95.474489 
L 162.340705 -95.033804 
L 165.285978 -95.285552 
L 166.310298 -94.968983 
L 168.187768 -94.275042 
L 171.652221 -93.521807 
L 172.0182 -93.705217 
L 175.194927 -93.891138 
L 175.933913 -93.833352 
L 176.640562 -93.895661 
L 177.61917 -93.954955 
L 181.117945 -94.654423 
L 181.630996 -95.910149 
L 182.892628 -96.032757 
L 184.77491 -96.091548 
L 187.082257 -95.657898 
L 188.493571 -95.658903 
L 188.958096 -95.661416 
L 189.146733 -95.407658 
L 189.430355 -95.788044 
L 189.455719 -95.788044 
L 189.525789 -95.163949 
L 192.471061 -94.030329 
L 193.495382 -93.77657 
L 195.372852 -93.965507 
L 202.380011 -92.764553 
L 203.825646 -92.701741 
L 204.804254 -92.706264 
L 208.303029 -92.32437 
L 208.816079 -90.125467 
L 210.077712 -90.938499 
L 211.959994 -89.997835 
L 212.429847 -89.991805 
L 212.795826 -90.106875 
L 214.267341 -89.989795 
L 215.678655 -89.983765 
L 216.14318 -90.619417 
L 216.331817 -90.377718 
L 216.615439 -89.887287 
L 216.640803 -90.141547 
L 216.710872 -90.013914 
L 216.711538 -90.074213 
L 219.656145 -90.197324 
L 220.680465 -91.763087 
L 222.557935 -92.517829 
L 229.565095 -91.697261 
L 231.989338 -92.700234 
L 237.262796 -92.702746 
L 239.145077 -92.704756 
L 239.614931 -92.577626 
L 239.98091 -92.641945 
L 241.452425 -92.068099 
L 242.863739 -90.941011 
L 243.328264 -90.937494 
L 243.516901 -90.241041 
L 243.800523 -88.996872 
L 243.825887 -88.933558 
L 243.895956 -88.993354 
L 243.896622 -88.560207 
L 244.603271 -88.243135 
L 246.841229 -88.052188 
L 247.865549 -87.925057 
L 249.080655 -87.552209 
L 249.593705 -88.186353 
L 249.743019 -88.118517 
L 256.750178 -87.929077 
L 259.174422 -88.563222 
L 264.44788 -88.310971 
L 266.330161 -87.681852 
L 266.800015 -87.677832 
L 267.165994 -87.618035 
L 268.637509 -87.870286 
L 270.048822 -87.168808 
L 270.513347 -85.913082 
L 270.985607 -86.90902 
L 271.01097 -86.848721 
L 271.08104 -88.095402 
L 271.081706 -87.968774 
L 271.788355 -87.594418 
L 274.026313 -88.224542 
L 275.050633 -87.65321 
L 276.265738 -89.461174 
L 276.778789 -89.52097 
L 276.928103 -89.769201 
L 283.935262 -90.514396 
L 284.294527 -90.323952 
L 293.515245 -90.322947 
L 293.985098 -90.384251 
L 294.351078 -90.316917 
L 295.822592 -91.061107 
L 297.233906 -91.631937 
L 297.698431 -90.567157 
L 298.170691 -90.195314 
L 298.196054 -90.513893 
L 298.266124 -89.645588 
L 298.26679 -89.644081 
L 298.973439 -89.591822 
L 299.952047 -88.637088 
L 301.211397 -88.1959 
L 302.235717 -88.315996 
L 303.450822 -88.067263 
L 303.963873 -88.135099 
L 304.113187 -88.015003 
L 305.225505 -88.708442 
L 311.120346 -87.268301 
L 311.47961 -86.388439 
L 320.700329 -86.45929 
L 321.170182 -85.57993 
L 321.536161 -85.761329 
L 323.007676 -86.703501 
L 324.41899 -87.6512 
L 324.883515 -87.590901 
L 325.355774 -88.654173 
L 325.381138 -89.031041 
L 325.451208 -89.788798 
L 325.451874 -89.729504 
L 326.158523 -90.609869 
L 327.137131 -91.231451 
L 328.39648 -91.175675 
L 329.420801 -91.550533 
L 330.635906 -91.549026 
L 331.148956 -91.486214 
L 331.298271 -91.61033 
L 332.410589 -91.61033 
L 338.30543 -90.913877 
L 338.664694 -90.725945 
L 347.885413 -91.665101 
L 348.355266 -91.650529 
L 348.721245 -91.716858 
L 352.068599 -91.593747 
L 352.540858 -91.652037 
L 352.566222 -91.334964 
L 352.636291 -91.211352 
L 352.636957 -92.101264 
L 353.343606 -92.036442 
L 354.322215 -91.8666 
L 357.82099 -91.8666 
L 358.33404 -90.866642 
L 359.595673 -91.562593 
L 363.785302 -92.752493 
L 365.196616 -93.262019 
L 365.490514 -93.387642 
L 365.849778 -91.514856 
L 369.174106 -92.591193 
L 370.198426 -92.406779 
L 372.075896 -91.658066 
L 375.54035 -97.646759 
L 375.906329 -97.836199 
L 379.253683 -97.76987 
L 379.725942 -97.708063 
L 379.751306 -96.772424 
L 379.821375 -96.516154 
L 379.822041 -96.640772 
L 380.52869 -96.957341 
L 381.507299 -96.70509 
L 385.006074 -96.515149 
L 385.519124 -96.324202 
L 386.780757 -97.406066 
L 388.663038 -97.345265 
L 390.970386 -97.344762 
L 392.381699 -97.100049 
L 392.675597 -98.105032 
L 393.034862 -98.164828 
L 396.35919 -98.224625 
L 397.38351 -97.345265 
L 399.26098 -97.411593 
L 402.725433 -97.226174 
L 403.091413 -97.277931 
L 406.438766 -97.279941 
L 406.911026 -96.905585 
L 407.006459 -96.71715 
L 407.007125 -95.709655 
L 407.713774 -95.826735 
L 408.692383 -94.325793 
L 412.191157 -94.134847 
L 412.704208 -93.506732 
L 413.96584 -93.566529 
L 415.848122 -93.630848 
L 418.15547 -92.947459 
L 419.566783 -92.885151 
L 419.860681 -93.446936 
L 420.219946 -94.580054 
L 420.528931 -94.765976 
L 423.544274 -94.514228 
L 424.568594 -94.952903 
L 426.446064 -95.014709 
L 429.910517 -95.016217 
L 430.276496 -94.018269 
L 433.62385 -93.705217 
L 434.096109 -93.759988 
L 434.192209 -93.702202 
L 434.898858 -93.699689 
L 435.877466 -94.010229 
L 439.376241 -94.825772 
L 439.889292 -93.816267 
L 441.150924 -93.754963 
L 443.033206 -92.991176 
L 445.340553 -92.990171 
L 446.751867 -93.050973 
L 447.405029 -92.352007 
L 447.714015 -91.532946 
L 447.784085 -90.517411 
L 450.729357 -90.517913 
L 451.753678 -91.402298 
L 453.631148 -90.776696 
L 457.095601 -90.650571 
L 457.46158 -91.715853 
L 460.638307 -85.980416 
L 461.377293 -85.983933 
L 462.083942 -85.988455 
L 463.06255 -87.057757 
L 466.561325 -87.187903 
L 467.074375 -87.18338 
L 468.336008 -87.304481 
L 470.21829 -87.359755 
L 472.525637 -87.229609 
L 473.936951 -87.421561 
L 474.401476 -87.737126 
L 474.590113 -87.587886 
L 474.873735 -88.468753 
L 474.899099 -89.098375 
L 474.969168 -89.220983 
L 477.914441 -88.275796 
L 478.938762 -88.275294 
L 480.816231 -88.278309 
L 487.823391 -89.738047 
L 489.269025 -92.202767 
L 490.247634 -92.579636 
L 494.259459 -92.396729 
L 495.521092 -93.414777 
L 497.403373 -94.363983 
L 497.873227 -94.305191 
L 498.239206 -94.428302 
L 499.710721 -94.979032 
L 501.122035 -95.676993 
L 501.58656 -95.679505 
L 501.775197 -95.805128 
L 502.058819 -96.506104 
L 502.084183 -96.582483 
L 502.154252 -97.277428 
L 502.154918 -97.976394 
L 505.099525 -98.237689 
L 506.123845 -104.882636 
L 507.338951 -104.888666 
L 508.001315 -105.015797 
L 515.008474 -105.53085 
L 517.432718 -105.469546 
L 522.706176 -106.560455 
L 522.706176 -170.574851 
L 522.706176 -170.574851 
L 517.432718 -167.837277 
L 515.008474 -168.017169 
L 508.001315 -166.692099 
L 507.338951 -164.743437 
L 506.123845 -164.551988 
L 505.099525 -156.318163 
L 502.154918 -155.684521 
L 502.154252 -155.242832 
L 502.084183 -154.363471 
L 502.058819 -153.843393 
L 501.775197 -152.024876 
L 501.58656 -151.158079 
L 501.122035 -147.546673 
L 499.710721 -147.160257 
L 498.239206 -146.671835 
L 497.873227 -146.236175 
L 497.403373 -146.419082 
L 495.521092 -144.712621 
L 494.259459 -145.066877 
L 490.247634 -143.668444 
L 489.269025 -143.229266 
L 487.823391 -141.017299 
L 480.816231 -137.902857 
L 478.938762 -139.901265 
L 477.914441 -139.137981 
L 474.969168 -140.145476 
L 474.899099 -140.06357 
L 474.873735 -139.491735 
L 474.590113 -137.850095 
L 474.401476 -137.43353 
L 473.936951 -138.062146 
L 472.525637 -136.992342 
L 470.21829 -135.880831 
L 468.336008 -136.692355 
L 467.074375 -136.454174 
L 466.561325 -136.205943 
L 463.06255 -135.761741 
L 462.083942 -135.566271 
L 461.377293 -135.684859 
L 460.638307 -135.126591 
L 457.46158 -140.612793 
L 457.095601 -139.120393 
L 453.631148 -140.330895 
L 451.753678 -140.512797 
L 450.729357 -140.447976 
L 447.784085 -141.06805 
L 447.714015 -142.027306 
L 447.405029 -142.482564 
L 446.751867 -143.251376 
L 445.340553 -143.371974 
L 443.033206 -143.374989 
L 441.150924 -143.27248 
L 439.889292 -143.652364 
L 439.376241 -144.599058 
L 435.877466 -145.445253 
L 434.898858 -145.528164 
L 434.192209 -145.719614 
L 434.096109 -147.121062 
L 433.62385 -147.877312 
L 430.276496 -149.265696 
L 429.910517 -150.197817 
L 426.446064 -153.801184 
L 424.568594 -156.444791 
L 423.544274 -155.815169 
L 420.528931 -157.889454 
L 420.219946 -157.452286 
L 419.860681 -159.210504 
L 419.566783 -159.542148 
L 418.15547 -160.938572 
L 415.848122 -162.190278 
L 413.96584 -163.076171 
L 412.704208 -165.720783 
L 412.191157 -166.730791 
L 408.692383 -166.983042 
L 407.713774 -169.546753 
L 407.007125 -171.527574 
L 407.006459 -173.804866 
L 406.911026 -173.939031 
L 406.438766 -176.340437 
L 403.091413 -177.019303 
L 402.725433 -177.222812 
L 399.26098 -180.167412 
L 397.38351 -181.936685 
L 396.35919 -185.548593 
L 393.034862 -185.406388 
L 392.675597 -186.243036 
L 392.381699 -186.441018 
L 390.970386 -188.434401 
L 388.663038 -189.145427 
L 386.780757 -189.40019 
L 385.519124 -189.263512 
L 385.006074 -192.46991 
L 381.507299 -194.631628 
L 380.52869 -196.217492 
L 379.822041 -198.356598 
L 379.821375 -200.839408 
L 379.751306 -203.653862 
L 379.725942 -206.771822 
L 379.253683 -207.170298 
L 375.906329 -208.473258 
L 375.54035 -212.343447 
L 372.075896 -207.798914 
L 370.198426 -212.651474 
L 369.174106 -213.237882 
L 365.849778 -214.320751 
L 365.490514 -216.970388 
L 365.196616 -220.398887 
L 363.785302 -220.854145 
L 359.595673 -222.245543 
L 358.33404 -222.445033 
L 357.82099 -223.511822 
L 354.322215 -223.511822 
L 353.343606 -229.61458 
L 352.636957 -229.605536 
L 352.636291 -229.350772 
L 352.566222 -227.622704 
L 352.540858 -227.955856 
L 352.068599 -227.026247 
L 348.721245 -226.241858 
L 348.355266 -225.172556 
L 347.885413 -224.113304 
L 338.664694 -223.948487 
L 338.30543 -221.163679 
L 332.410589 -220.033074 
L 331.298271 -220.22201 
L 331.148956 -219.242655 
L 330.635906 -220.374768 
L 329.420801 -217.481422 
L 328.39648 -216.460862 
L 327.137131 -214.744351 
L 326.158523 -214.547374 
L 325.451874 -213.033368 
L 325.451208 -211.608302 
L 325.381138 -210.404835 
L 325.355774 -209.963648 
L 324.883515 -208.967709 
L 324.41899 -207.17884 
L 323.007676 -206.079389 
L 321.536161 -203.876466 
L 321.170182 -201.671534 
L 320.700329 -201.498677 
L 311.47961 -201.232859 
L 311.120346 -199.412835 
L 305.225505 -198.825925 
L 304.113187 -194.532638 
L 303.963873 -193.05682 
L 303.450822 -191.838781 
L 302.235717 -190.507681 
L 301.211397 -187.708804 
L 299.952047 -187.498762 
L 298.973439 -188.263052 
L 298.26679 -187.432434 
L 298.266124 -183.420542 
L 298.196054 -182.254762 
L 298.170691 -180.978433 
L 297.698431 -177.962982 
L 297.233906 -177.104224 
L 295.822592 -174.345546 
L 294.351078 -171.925548 
L 293.985098 -170.847201 
L 293.515245 -169.419623 
L 284.294527 -165.425821 
L 283.935262 -164.299235 
L 276.928103 -160.082327 
L 276.778789 -158.349736 
L 276.265738 -157.189986 
L 275.050633 -153.915752 
L 274.026313 -151.123909 
L 271.788355 -150.581721 
L 271.081706 -148.929026 
L 271.08104 -148.222524 
L 271.01097 -147.292412 
L 270.985607 -147.286884 
L 270.513347 -140.165576 
L 270.048822 -141.418789 
L 268.637509 -141.174076 
L 267.165994 -141.11428 
L 266.800015 -140.838412 
L 266.330161 -142.151924 
L 264.44788 -142.468996 
L 259.174422 -142.913199 
L 256.750178 -143.034299 
L 249.743019 -142.451912 
L 249.593705 -141.888116 
L 249.080655 -140.188188 
L 247.865549 -141.639886 
L 246.841229 -140.732386 
L 244.603271 -140.110804 
L 243.896622 -141.493661 
L 243.895956 -141.862992 
L 243.825887 -140.980617 
L 243.800523 -140.112814 
L 243.516901 -141.417784 
L 243.328264 -140.957502 
L 242.863739 -142.225791 
L 241.452425 -144.102094 
L 239.98091 -143.602115 
L 239.614931 -143.477999 
L 239.145077 -142.734312 
L 237.262796 -143.108668 
L 231.989338 -143.046359 
L 229.565095 -141.0982 
L 222.557935 -142.182576 
L 220.680465 -142.23986 
L 219.656145 -141.304221 
L 216.711538 -141.375073 
L 216.710872 -141.056493 
L 216.640803 -141.309749 
L 216.615439 -141.056995 
L 216.331817 -141.295679 
L 216.14318 -141.54391 
L 215.678655 -141.651945 
L 214.267341 -142.285587 
L 212.795826 -142.087605 
L 212.429847 -142.097153 
L 211.959994 -143.039324 
L 210.077712 -145.978899 
L 208.816079 -144.416151 
L 208.303029 -147.484866 
L 204.804254 -147.551697 
L 203.825646 -148.107955 
L 202.380011 -148.805916 
L 195.372852 -150.693776 
L 193.495382 -150.624935 
L 192.471061 -149.999333 
L 189.525789 -151.074162 
L 189.455719 -150.822917 
L 189.430355 -150.883718 
L 189.146733 -149.812909 
L 188.958096 -149.076759 
L 188.493571 -149.655127 
L 187.082257 -150.608855 
L 184.77491 -150.539512 
L 182.892628 -151.537962 
L 181.630996 -151.415857 
L 181.117945 -149.91793 
L 177.61917 -149.467195 
L 176.640562 -149.529504 
L 175.933913 -148.456685 
L 175.194927 -147.331104 
L 172.0182 -147.147192 
L 171.652221 -147.579837 
L 168.187768 -147.579334 
L 166.310298 -149.221979 
L 165.285978 -150.48273 
L 162.340705 -150.292788 
L 162.270635 -149.402876 
L 161.96165 -150.111891 
L 161.308487 -150.420421 
L 159.897174 -149.600355 
L 157.589826 -149.553121 
L 155.707544 -149.806879 
L 154.445912 -149.865168 
L 153.932861 -149.185297 
L 150.434087 -148.362719 
L 149.455478 -147.780331 
L 148.748829 -146.031158 
L 148.65273 -144.839249 
L 148.18047 -144.903065 
L 144.833117 -144.837741 
L 144.467137 -145.279431 
L 141.002684 -146.297981 
L 139.125214 -146.551237 
L 138.100894 -145.524647 
L 135.085551 -144.717143 
L 134.776566 -144.403086 
L 134.417301 -145.167878 
L 134.123403 -145.985934 
L 132.71209 -145.731673 
L 130.404742 -145.790465 
L 128.522461 -145.733683 
L 127.260828 -144.991504 
L 126.747777 -143.803614 
L 123.249003 -142.934806 
L 122.270394 -145.007081 
L 121.563745 -143.690553 
L 121.563079 -142.818731 
L 121.467646 -140.714799 
L 120.995387 -140.458026 
L 117.648033 -137.457649 
L 117.282054 -137.013447 
L 113.8176 -136.449149 
L 111.94013 -135.686869 
L 110.91581 -133.741725 
L 107.591482 -135.481853 
L 107.232217 -136.221018 
L 106.93832 -135.33412 
L 105.527006 -134.514054 
L 103.219658 -134.196982 
L 101.337377 -134.067842 
L 100.075744 -133.939204 
L 99.562694 -132.490019 
L 96.063919 -131.160426 
L 95.08531 -130.536332 
L 94.378661 -130.930285 
L 94.377995 -131.617191 
L 94.307926 -131.2358 
L 94.282562 -131.675983 
L 93.810303 -131.85688 
L 90.462949 -131.663923 
L 90.09697 -131.663923 
L 86.632516 -130.595626 
L 84.755046 -129.717774 
L 83.730726 -128.390694 
L 80.406398 -125.995819 
L 80.047134 -125.177261 
L 79.753236 -125.240072 
L 78.341922 -124.238104 
L 74.152293 -124.918478 
L 72.89066 -125.295346 
L 72.37761 -126.051596 
L 68.878835 -125.605886 
z
" style="stroke: #b85741; stroke-opacity: 0.7; stroke-width: 1.5"/>
    </defs>
    <g clip-path="url(#p41fa700636)">
     <use xlink:href="#md59d7e6b9d" x="0" y="287.233281" style="fill: #b85741; fill-opacity: 0.7; stroke: #b85741; stroke-opacity: 0.7; stroke-width: 1.5"/>
    </g>
   </g>
   <g id="matplotlib.axis_1">
    <g id="xtick_1">
     <g id="line2d_1">
      <defs>
       <path id="m6bc413dde9" d="M 0 0 
L 0 3.5 
" style="stroke: #000000; stroke-width: 0.8"/>
      </defs>
      <g>
       <use xlink:href="#m6bc413dde9" x="111.056778" y="244.837969" style="stroke: #000000; stroke-width: 0.8"/>
      </g>
     </g>
     <g id="text_1">
      <!-- −5 -->
      <g transform="translate(102.211466 260.956094) scale(0.12 -0.12)">
       <defs>
        <path id="DejaVuSans-2212" d="M 678 2272 
L 4684 2272 
L 4684 1741 
L 678 1741 
L 678 2272 
z
" transform="scale(0.015625)"/>
        <path id="DejaVuSans-35" d="M 691 4666 
L 3169 4666 
L 3169 4134 
L 1269 4134 
L 1269 2991 
Q 1406 3038 1543 3061 
Q 1681 3084 1819 3084 
Q 2600 3084 3056 2656 
Q 3513 2228 3513 1497 
Q 3513 744 3044 326 
Q 2575 -91 1722 -91 
Q 1428 -91 1123 -41 
Q 819 9 494 109 
L 494 744 
Q 775 591 1075 516 
Q 1375 441 1709 441 
Q 2250 441 2565 725 
Q 2881 1009 2881 1497 
Q 2881 1984 2565 2268 
Q 2250 2553 1709 2553 
Q 1456 2553 1204 2497 
Q 953 2441 691 2322 
L 691 4666 
z
" transform="scale(0.015625)"/>
       </defs>
       <use xlink:href="#DejaVuSans-2212"/>
       <use xlink:href="#DejaVuSans-35" x="83.789062"/>
      </g>
     </g>
    </g>
    <g id="xtick_2">
     <g id="line2d_2">
      <g>
       <use xlink:href="#m6bc413dde9" x="179.019488" y="244.837969" style="stroke: #000000; stroke-width: 0.8"/>
      </g>
     </g>
     <g id="text_2">
      <!-- 0 -->
      <g transform="translate(175.201988 260.956094) scale(0.12 -0.12)">
       <defs>
        <path id="DejaVuSans-30" d="M 2034 4250 
Q 1547 4250 1301 3770 
Q 1056 3291 1056 2328 
Q 1056 1369 1301 889 
Q 1547 409 2034 409 
Q 2525 409 2770 889 
Q 3016 1369 3016 2328 
Q 3016 3291 2770 3770 
Q 2525 4250 2034 4250 
z
M 2034 4750 
Q 2819 4750 3233 4129 
Q 3647 3509 3647 2328 
Q 3647 1150 3233 529 
Q 2819 -91 2034 -91 
Q 1250 -91 836 529 
Q 422 1150 422 2328 
Q 422 3509 836 4129 
Q 1250 4750 2034 4750 
z
" transform="scale(0.015625)"/>
       </defs>
       <use xlink:href="#DejaVuSans-30"/>
      </g>
     </g>
    </g>
    <g id="xtick_3">
     <g id="line2d_3">
      <g>
       <use xlink:href="#m6bc413dde9" x="246.982197" y="244.837969" style="stroke: #000000; stroke-width: 0.8"/>
      </g>
     </g>
     <g id="text_3">
      <!-- 5 -->
      <g transform="translate(243.164697 260.956094) scale(0.12 -0.12)">
       <use xlink:href="#DejaVuSans-35"/>
      </g>
     </g>
    </g>
    <g id="xtick_4">
     <g id="line2d_4">
      <g>
       <use xlink:href="#m6bc413dde9" x="314.944907" y="244.837969" style="stroke: #000000; stroke-width: 0.8"/>
      </g>
     </g>
     <g id="text_4">
      <!-- 10 -->
      <g transform="translate(307.309907 260.956094) scale(0.12 -0.12)">
       <defs>
        <path id="DejaVuSans-31" d="M 794 531 
L 1825 531 
L 1825 4091 
L 703 3866 
L 703 4441 
L 1819 4666 
L 2450 4666 
L 2450 531 
L 3481 531 
L 3481 0 
L 794 0 
L 794 531 
z
" transform="scale(0.015625)"/>
       </defs>
       <use xlink:href="#DejaVuSans-31"/>
       <use xlink:href="#DejaVuSans-30" x="63.623047"/>
      </g>
     </g>
    </g>
    <g id="xtick_5">
     <g id="line2d_5">
      <g>
       <use xlink:href="#m6bc413dde9" x="382.907616" y="244.837969" style="stroke: #000000; stroke-width: 0.8"/>
      </g>
     </g>
     <g id="text_5">
      <!-- 15 -->
      <g transform="translate(375.272616 260.956094) scale(0.12 -0.12)">
       <use xlink:href="#DejaVuSans-31"/>
       <use xlink:href="#DejaVuSans-35" x="63.623047"/>
      </g>
     </g>
    </g>
    <g id="xtick_6">
     <g id="line2d_6">
      <g>
       <use xlink:href="#m6bc413dde9" x="450.870326" y="244.837969" style="stroke: #000000; stroke-width: 0.8"/>
      </g>
     </g>
     <g id="text_6">
      <!-- 20 -->
      <g transform="translate(443.235326 260.956094) scale(0.12 -0.12)">
       <defs>
        <path id="DejaVuSans-32" d="M 1228 531 
L 3431 531 
L 3431 0 
L 469 0 
L 469 531 
Q 828 903 1448 1529 
Q 2069 2156 2228 2338 
Q 2531 2678 2651 2914 
Q 2772 3150 2772 3378 
Q 2772 3750 2511 3984 
Q 2250 4219 1831 4219 
Q 1534 4219 1204 4116 
Q 875 4013 500 3803 
L 500 4441 
Q 881 4594 1212 4672 
Q 1544 4750 1819 4750 
Q 2544 4750 2975 4387 
Q 3406 4025 3406 3419 
Q 3406 3131 3298 2873 
Q 3191 2616 2906 2266 
Q 2828 2175 2409 1742 
Q 1991 1309 1228 531 
z
" transform="scale(0.015625)"/>
       </defs>
       <use xlink:href="#DejaVuSans-32"/>
       <use xlink:href="#DejaVuSans-30" x="63.623047"/>
      </g>
     </g>
    </g>
    <g id="xtick_7">
     <g id="line2d_7">
      <g>
       <use xlink:href="#m6bc413dde9" x="518.833035" y="244.837969" style="stroke: #000000; stroke-width: 0.8"/>
      </g>
     </g>
     <g id="text_7">
      <!-- 25 -->
      <g transform="translate(511.198035 260.956094) scale(0.12 -0.12)">
       <use xlink:href="#DejaVuSans-32"/>
       <use xlink:href="#DejaVuSans-35" x="63.623047"/>
      </g>
     </g>
    </g>
    <g id="text_8">
     <!-- Time (s) -->
     <g transform="translate(270.723984 277.329687) scale(0.13 -0.13)">
      <defs>
       <path id="DejaVuSans-54" d="M -19 4666 
L 3928 4666 
L 3928 4134 
L 2272 4134 
L 2272 0 
L 1638 0 
L 1638 4134 
L -19 4134 
L -19 4666 
z
" transform="scale(0.015625)"/>
       <path id="DejaVuSans-69" d="M 603 3500 
L 1178 3500 
L 1178 0 
L 603 0 
L 603 3500 
z
M 603 4863 
L 1178 4863 
L 1178 4134 
L 603 4134 
L 603 4863 
z
" transform="scale(0.015625)"/>
       <path id="DejaVuSans-6d" d="M 3328 2828 
Q 3544 3216 3844 3400 
Q 4144 3584 4550 3584 
Q 5097 3584 5394 3201 
Q 5691 2819 5691 2113 
L 5691 0 
L 5113 0 
L 5113 2094 
Q 5113 2597 4934 2840 
Q 4756 3084 4391 3084 
Q 3944 3084 3684 2787 
Q 3425 2491 3425 1978 
L 3425 0 
L 2847 0 
L 2847 2094 
Q 2847 2600 2669 2842 
Q 2491 3084 2119 3084 
Q 1678 3084 1418 2786 
Q 1159 2488 1159 1978 
L 1159 0 
L 581 0 
L 581 3500 
L 1159 3500 
L 1159 2956 
Q 1356 3278 1631 3431 
Q 1906 3584 2284 3584 
Q 2666 3584 2933 3390 
Q 3200 3197 3328 2828 
z
" transform="scale(0.015625)"/>
       <path id="DejaVuSans-65" d="M 3597 1894 
L 3597 1613 
L 953 1613 
Q 991 1019 1311 708 
Q 1631 397 2203 397 
Q 2534 397 2845 478 
Q 3156 559 3463 722 
L 3463 178 
Q 3153 47 2828 -22 
Q 2503 -91 2169 -91 
Q 1331 -91 842 396 
Q 353 884 353 1716 
Q 353 2575 817 3079 
Q 1281 3584 2069 3584 
Q 2775 3584 3186 3129 
Q 3597 2675 3597 1894 
z
M 3022 2063 
Q 3016 2534 2758 2815 
Q 2500 3097 2075 3097 
Q 1594 3097 1305 2825 
Q 1016 2553 972 2059 
L 3022 2063 
z
" transform="scale(0.015625)"/>
       <path id="DejaVuSans-20" transform="scale(0.015625)"/>
       <path id="DejaVuSans-28" d="M 1984 4856 
Q 1566 4138 1362 3434 
Q 1159 2731 1159 2009 
Q 1159 1288 1364 580 
Q 1569 -128 1984 -844 
L 1484 -844 
Q 1016 -109 783 600 
Q 550 1309 550 2009 
Q 550 2706 781 3412 
Q 1013 4119 1484 4856 
L 1984 4856 
z
" transform="scale(0.015625)"/>
       <path id="DejaVuSans-73" d="M 2834 3397 
L 2834 2853 
Q 2591 2978 2328 3040 
Q 2066 3103 1784 3103 
Q 1356 3103 1142 2972 
Q 928 2841 928 2578 
Q 928 2378 1081 2264 
Q 1234 2150 1697 2047 
L 1894 2003 
Q 2506 1872 2764 1633 
Q 3022 1394 3022 966 
Q 3022 478 2636 193 
Q 2250 -91 1575 -91 
Q 1294 -91 989 -36 
Q 684 19 347 128 
L 347 722 
Q 666 556 975 473 
Q 1284 391 1588 391 
Q 1994 391 2212 530 
Q 2431 669 2431 922 
Q 2431 1156 2273 1281 
Q 2116 1406 1581 1522 
L 1381 1569 
Q 847 1681 609 1914 
Q 372 2147 372 2553 
Q 372 3047 722 3315 
Q 1072 3584 1716 3584 
Q 2034 3584 2315 3537 
Q 2597 3491 2834 3397 
z
" transform="scale(0.015625)"/>
       <path id="DejaVuSans-29" d="M 513 4856 
L 1013 4856 
Q 1481 4119 1714 3412 
Q 1947 2706 1947 2009 
Q 1947 1309 1714 600 
Q 1481 -109 1013 -844 
L 513 -844 
Q 928 -128 1133 580 
Q 1338 1288 1338 2009 
Q 1338 2731 1133 3434 
Q 928 4138 513 4856 
z
" transform="scale(0.015625)"/>
      </defs>
      <use xlink:href="#DejaVuSans-54"/>
      <use xlink:href="#DejaVuSans-69" x="57.958984"/>
      <use xlink:href="#DejaVuSans-6d" x="85.742188"/>
      <use xlink:href="#DejaVuSans-65" x="183.154297"/>
      <use xlink:href="#DejaVuSans-20" x="244.677734"/>
      <use xlink:href="#DejaVuSans-28" x="276.464844"/>
      <use xlink:href="#DejaVuSans-73" x="315.478516"/>
      <use xlink:href="#DejaVuSans-29" x="367.578125"/>
     </g>
    </g>
   </g>
   <g id="matplotlib.axis_2">
    <g id="ytick_1">
     <g id="line2d_8">
      <defs>
       <path id="m7b59778434" d="M 0 0 
L -3.5 0 
" style="stroke: #000000; stroke-width: 0.8"/>
      </defs>
      <g>
       <use xlink:href="#m7b59778434" x="46.051562" y="244.837969" style="stroke: #000000; stroke-width: 0.8"/>
      </g>
     </g>
     <g id="text_9">
      <!-- 0 -->
      <g transform="translate(31.416562 249.397031) scale(0.12 -0.12)">
       <use xlink:href="#DejaVuSans-30"/>
      </g>
     </g>
    </g>
    <g id="ytick_2">
     <g id="line2d_9">
      <g>
       <use xlink:href="#m7b59778434" x="46.051562" y="214.185991" style="stroke: #000000; stroke-width: 0.8"/>
      </g>
     </g>
     <g id="text_10">
      <!-- 2 -->
      <g transform="translate(31.416562 218.745053) scale(0.12 -0.12)">
       <use xlink:href="#DejaVuSans-32"/>
      </g>
     </g>
    </g>
    <g id="ytick_3">
     <g id="line2d_10">
      <g>
       <use xlink:href="#m7b59778434" x="46.051562" y="183.534012" style="stroke: #000000; stroke-width: 0.8"/>
      </g>
     </g>
     <g id="text_11">
      <!-- 4 -->
      <g transform="translate(31.416562 188.093075) scale(0.12 -0.12)">
       <defs>
        <path id="DejaVuSans-34" d="M 2419 4116 
L 825 1625 
L 2419 1625 
L 2419 4116 
z
M 2253 4666 
L 3047 4666 
L 3047 1625 
L 3713 1625 
L 3713 1100 
L 3047 1100 
L 3047 0 
L 2419 0 
L 2419 1100 
L 313 1100 
L 313 1709 
L 2253 4666 
z
" transform="scale(0.015625)"/>
       </defs>
       <use xlink:href="#DejaVuSans-34"/>
      </g>
     </g>
    </g>
    <g id="ytick_4">
     <g id="line2d_11">
      <g>
       <use xlink:href="#m7b59778434" x="46.051562" y="152.882034" style="stroke: #000000; stroke-width: 0.8"/>
      </g>
     </g>
     <g id="text_12">
      <!-- 6 -->
      <g transform="translate(31.416562 157.441097) scale(0.12 -0.12)">
       <defs>
        <path id="DejaVuSans-36" d="M 2113 2584 
Q 1688 2584 1439 2293 
Q 1191 2003 1191 1497 
Q 1191 994 1439 701 
Q 1688 409 2113 409 
Q 2538 409 2786 701 
Q 3034 994 3034 1497 
Q 3034 2003 2786 2293 
Q 2538 2584 2113 2584 
z
M 3366 4563 
L 3366 3988 
Q 3128 4100 2886 4159 
Q 2644 4219 2406 4219 
Q 1781 4219 1451 3797 
Q 1122 3375 1075 2522 
Q 1259 2794 1537 2939 
Q 1816 3084 2150 3084 
Q 2853 3084 3261 2657 
Q 3669 2231 3669 1497 
Q 3669 778 3244 343 
Q 2819 -91 2113 -91 
Q 1303 -91 875 529 
Q 447 1150 447 2328 
Q 447 3434 972 4092 
Q 1497 4750 2381 4750 
Q 2619 4750 2861 4703 
Q 3103 4656 3366 4563 
z
" transform="scale(0.015625)"/>
       </defs>
       <use xlink:href="#DejaVuSans-36"/>
      </g>
     </g>
    </g>
    <g id="ytick_5">
     <g id="line2d_12">
      <g>
       <use xlink:href="#m7b59778434" x="46.051562" y="122.230056" style="stroke: #000000; stroke-width: 0.8"/>
      </g>
     </g>
     <g id="text_13">
      <!-- 8 -->
      <g transform="translate(31.416562 126.789118) scale(0.12 -0.12)">
       <defs>
        <path id="DejaVuSans-38" d="M 2034 2216 
Q 1584 2216 1326 1975 
Q 1069 1734 1069 1313 
Q 1069 891 1326 650 
Q 1584 409 2034 409 
Q 2484 409 2743 651 
Q 3003 894 3003 1313 
Q 3003 1734 2745 1975 
Q 2488 2216 2034 2216 
z
M 1403 2484 
Q 997 2584 770 2862 
Q 544 3141 544 3541 
Q 544 4100 942 4425 
Q 1341 4750 2034 4750 
Q 2731 4750 3128 4425 
Q 3525 4100 3525 3541 
Q 3525 3141 3298 2862 
Q 3072 2584 2669 2484 
Q 3125 2378 3379 2068 
Q 3634 1759 3634 1313 
Q 3634 634 3220 271 
Q 2806 -91 2034 -91 
Q 1263 -91 848 271 
Q 434 634 434 1313 
Q 434 1759 690 2068 
Q 947 2378 1403 2484 
z
M 1172 3481 
Q 1172 3119 1398 2916 
Q 1625 2713 2034 2713 
Q 2441 2713 2670 2916 
Q 2900 3119 2900 3481 
Q 2900 3844 2670 4047 
Q 2441 4250 2034 4250 
Q 1625 4250 1398 4047 
Q 1172 3844 1172 3481 
z
" transform="scale(0.015625)"/>
       </defs>
       <use xlink:href="#DejaVuSans-38"/>
      </g>
     </g>
    </g>
    <g id="ytick_6">
     <g id="line2d_13">
      <g>
       <use xlink:href="#m7b59778434" x="46.051562" y="91.578078" style="stroke: #000000; stroke-width: 0.8"/>
      </g>
     </g>
     <g id="text_14">
      <!-- 10 -->
      <g transform="translate(23.781562 96.13714) scale(0.12 -0.12)">
       <use xlink:href="#DejaVuSans-31"/>
       <use xlink:href="#DejaVuSans-30" x="63.623047"/>
      </g>
     </g>
    </g>
    <g id="ytick_7">
     <g id="line2d_14">
      <g>
       <use xlink:href="#m7b59778434" x="46.051562" y="60.926099" style="stroke: #000000; stroke-width: 0.8"/>
      </g>
     </g>
     <g id="text_15">
      <!-- 12 -->
      <g transform="translate(23.781562 65.485162) scale(0.12 -0.12)">
       <use xlink:href="#DejaVuSans-31"/>
       <use xlink:href="#DejaVuSans-32" x="63.623047"/>
      </g>
     </g>
    </g>
    <g id="ytick_8">
     <g id="line2d_15">
      <g>
       <use xlink:href="#m7b59778434" x="46.051562" y="30.274121" style="stroke: #000000; stroke-width: 0.8"/>
      </g>
     </g>
     <g id="text_16">
      <!-- 14 -->
      <g transform="translate(23.781562 34.833184) scale(0.12 -0.12)">
       <use xlink:href="#DejaVuSans-31"/>
       <use xlink:href="#DejaVuSans-34" x="63.623047"/>
      </g>
     </g>
    </g>
    <g id="text_17">
     <!-- Utilization (%) -->
     <g transform="translate(17.077969 179.839844) rotate(-90) scale(0.13 -0.13)">
      <defs>
       <path id="DejaVuSans-55" d="M 556 4666 
L 1191 4666 
L 1191 1831 
Q 1191 1081 1462 751 
Q 1734 422 2344 422 
Q 2950 422 3222 751 
Q 3494 1081 3494 1831 
L 3494 4666 
L 4128 4666 
L 4128 1753 
Q 4128 841 3676 375 
Q 3225 -91 2344 -91 
Q 1459 -91 1007 375 
Q 556 841 556 1753 
L 556 4666 
z
" transform="scale(0.015625)"/>
       <path id="DejaVuSans-74" d="M 1172 4494 
L 1172 3500 
L 2356 3500 
L 2356 3053 
L 1172 3053 
L 1172 1153 
Q 1172 725 1289 603 
Q 1406 481 1766 481 
L 2356 481 
L 2356 0 
L 1766 0 
Q 1100 0 847 248 
Q 594 497 594 1153 
L 594 3053 
L 172 3053 
L 172 3500 
L 594 3500 
L 594 4494 
L 1172 4494 
z
" transform="scale(0.015625)"/>
       <path id="DejaVuSans-6c" d="M 603 4863 
L 1178 4863 
L 1178 0 
L 603 0 
L 603 4863 
z
" transform="scale(0.015625)"/>
       <path id="DejaVuSans-7a" d="M 353 3500 
L 3084 3500 
L 3084 2975 
L 922 459 
L 3084 459 
L 3084 0 
L 275 0 
L 275 525 
L 2438 3041 
L 353 3041 
L 353 3500 
z
" transform="scale(0.015625)"/>
       <path id="DejaVuSans-61" d="M 2194 1759 
Q 1497 1759 1228 1600 
Q 959 1441 959 1056 
Q 959 750 1161 570 
Q 1363 391 1709 391 
Q 2188 391 2477 730 
Q 2766 1069 2766 1631 
L 2766 1759 
L 2194 1759 
z
M 3341 1997 
L 3341 0 
L 2766 0 
L 2766 531 
Q 2569 213 2275 61 
Q 1981 -91 1556 -91 
Q 1019 -91 701 211 
Q 384 513 384 1019 
Q 384 1609 779 1909 
Q 1175 2209 1959 2209 
L 2766 2209 
L 2766 2266 
Q 2766 2663 2505 2880 
Q 2244 3097 1772 3097 
Q 1472 3097 1187 3025 
Q 903 2953 641 2809 
L 641 3341 
Q 956 3463 1253 3523 
Q 1550 3584 1831 3584 
Q 2591 3584 2966 3190 
Q 3341 2797 3341 1997 
z
" transform="scale(0.015625)"/>
       <path id="DejaVuSans-6f" d="M 1959 3097 
Q 1497 3097 1228 2736 
Q 959 2375 959 1747 
Q 959 1119 1226 758 
Q 1494 397 1959 397 
Q 2419 397 2687 759 
Q 2956 1122 2956 1747 
Q 2956 2369 2687 2733 
Q 2419 3097 1959 3097 
z
M 1959 3584 
Q 2709 3584 3137 3096 
Q 3566 2609 3566 1747 
Q 3566 888 3137 398 
Q 2709 -91 1959 -91 
Q 1206 -91 779 398 
Q 353 888 353 1747 
Q 353 2609 779 3096 
Q 1206 3584 1959 3584 
z
" transform="scale(0.015625)"/>
       <path id="DejaVuSans-6e" d="M 3513 2113 
L 3513 0 
L 2938 0 
L 2938 2094 
Q 2938 2591 2744 2837 
Q 2550 3084 2163 3084 
Q 1697 3084 1428 2787 
Q 1159 2491 1159 1978 
L 1159 0 
L 581 0 
L 581 3500 
L 1159 3500 
L 1159 2956 
Q 1366 3272 1645 3428 
Q 1925 3584 2291 3584 
Q 2894 3584 3203 3211 
Q 3513 2838 3513 2113 
z
" transform="scale(0.015625)"/>
       <path id="DejaVuSans-25" d="M 4653 2053 
Q 4381 2053 4226 1822 
Q 4072 1591 4072 1178 
Q 4072 772 4226 539 
Q 4381 306 4653 306 
Q 4919 306 5073 539 
Q 5228 772 5228 1178 
Q 5228 1588 5073 1820 
Q 4919 2053 4653 2053 
z
M 4653 2450 
Q 5147 2450 5437 2106 
Q 5728 1763 5728 1178 
Q 5728 594 5436 251 
Q 5144 -91 4653 -91 
Q 4153 -91 3862 251 
Q 3572 594 3572 1178 
Q 3572 1766 3864 2108 
Q 4156 2450 4653 2450 
z
M 1428 4353 
Q 1159 4353 1004 4120 
Q 850 3888 850 3481 
Q 850 3069 1003 2837 
Q 1156 2606 1428 2606 
Q 1700 2606 1854 2837 
Q 2009 3069 2009 3481 
Q 2009 3884 1853 4118 
Q 1697 4353 1428 4353 
z
M 4250 4750 
L 4750 4750 
L 1831 -91 
L 1331 -91 
L 4250 4750 
z
M 1428 4750 
Q 1922 4750 2215 4408 
Q 2509 4066 2509 3481 
Q 2509 2891 2217 2550 
Q 1925 2209 1428 2209 
Q 931 2209 642 2551 
Q 353 2894 353 3481 
Q 353 4063 643 4406 
Q 934 4750 1428 4750 
z
" transform="scale(0.015625)"/>
      </defs>
      <use xlink:href="#DejaVuSans-55"/>
      <use xlink:href="#DejaVuSans-74" x="73.193359"/>
      <use xlink:href="#DejaVuSans-69" x="112.402344"/>
      <use xlink:href="#DejaVuSans-6c" x="140.185547"/>
      <use xlink:href="#DejaVuSans-69" x="167.96875"/>
      <use xlink:href="#DejaVuSans-7a" x="195.751953"/>
      <use xlink:href="#DejaVuSans-61" x="248.242188"/>
      <use xlink:href="#DejaVuSans-74" x="309.521484"/>
      <use xlink:href="#DejaVuSans-69" x="348.730469"/>
      <use xlink:href="#DejaVuSans-6f" x="376.513672"/>
      <use xlink:href="#DejaVuSans-6e" x="437.695312"/>
      <use xlink:href="#DejaVuSans-20" x="501.074219"/>
      <use xlink:href="#DejaVuSans-28" x="532.861328"/>
      <use xlink:href="#DejaVuSans-25" x="571.875"/>
      <use xlink:href="#DejaVuSans-29" x="666.894531"/>
     </g>
    </g>
   </g>
   <g id="patch_3">
    <path d="M 46.051562 244.837969 
L 46.051562 23.077969 
" style="fill: none; stroke: #000000; stroke-width: 0.8; stroke-linejoin: miter; stroke-linecap: square"/>
   </g>
   <g id="patch_4">
    <path d="M 548.251563 244.837969 
L 548.251563 23.077969 
" style="fill: none; stroke: #000000; stroke-width: 0.8; stroke-linejoin: miter; stroke-linecap: square"/>
   </g>
   <g id="patch_5">
    <path d="M 46.051562 244.837969 
L 548.251563 244.837969 
" style="fill: none; stroke: #000000; stroke-width: 0.8; stroke-linejoin: miter; stroke-linecap: square"/>
   </g>
   <g id="patch_6">
    <path d="M 46.051562 23.077969 
L 548.251563 23.077969 
" style="fill: none; stroke: #000000; stroke-width: 0.8; stroke-linejoin: miter; stroke-linecap: square"/>
   </g>
   <g id="text_18">
    <!-- Create VM Type 3 -->
    <g transform="translate(240.241016 17.077969) scale(0.13 -0.13)">
     <defs>
      <path id="DejaVuSans-43" d="M 4122 4306 
L 4122 3641 
Q 3803 3938 3442 4084 
Q 3081 4231 2675 4231 
Q 1875 4231 1450 3742 
Q 1025 3253 1025 2328 
Q 1025 1406 1450 917 
Q 1875 428 2675 428 
Q 3081 428 3442 575 
Q 3803 722 4122 1019 
L 4122 359 
Q 3791 134 3420 21 
Q 3050 -91 2638 -91 
Q 1578 -91 968 557 
Q 359 1206 359 2328 
Q 359 3453 968 4101 
Q 1578 4750 2638 4750 
Q 3056 4750 3426 4639 
Q 3797 4528 4122 4306 
z
" transform="scale(0.015625)"/>
      <path id="DejaVuSans-72" d="M 2631 2963 
Q 2534 3019 2420 3045 
Q 2306 3072 2169 3072 
Q 1681 3072 1420 2755 
Q 1159 2438 1159 1844 
L 1159 0 
L 581 0 
L 581 3500 
L 1159 3500 
L 1159 2956 
Q 1341 3275 1631 3429 
Q 1922 3584 2338 3584 
Q 2397 3584 2469 3576 
Q 2541 3569 2628 3553 
L 2631 2963 
z
" transform="scale(0.015625)"/>
      <path id="DejaVuSans-56" d="M 1831 0 
L 50 4666 
L 709 4666 
L 2188 738 
L 3669 4666 
L 4325 4666 
L 2547 0 
L 1831 0 
z
" transform="scale(0.015625)"/>
      <path id="DejaVuSans-4d" d="M 628 4666 
L 1569 4666 
L 2759 1491 
L 3956 4666 
L 4897 4666 
L 4897 0 
L 4281 0 
L 4281 4097 
L 3078 897 
L 2444 897 
L 1241 4097 
L 1241 0 
L 628 0 
L 628 4666 
z
" transform="scale(0.015625)"/>
      <path id="DejaVuSans-79" d="M 2059 -325 
Q 1816 -950 1584 -1140 
Q 1353 -1331 966 -1331 
L 506 -1331 
L 506 -850 
L 844 -850 
Q 1081 -850 1212 -737 
Q 1344 -625 1503 -206 
L 1606 56 
L 191 3500 
L 800 3500 
L 1894 763 
L 2988 3500 
L 3597 3500 
L 2059 -325 
z
" transform="scale(0.015625)"/>
      <path id="DejaVuSans-70" d="M 1159 525 
L 1159 -1331 
L 581 -1331 
L 581 3500 
L 1159 3500 
L 1159 2969 
Q 1341 3281 1617 3432 
Q 1894 3584 2278 3584 
Q 2916 3584 3314 3078 
Q 3713 2572 3713 1747 
Q 3713 922 3314 415 
Q 2916 -91 2278 -91 
Q 1894 -91 1617 61 
Q 1341 213 1159 525 
z
M 3116 1747 
Q 3116 2381 2855 2742 
Q 2594 3103 2138 3103 
Q 1681 3103 1420 2742 
Q 1159 2381 1159 1747 
Q 1159 1113 1420 752 
Q 1681 391 2138 391 
Q 2594 391 2855 752 
Q 3116 1113 3116 1747 
z
" transform="scale(0.015625)"/>
      <path id="DejaVuSans-33" d="M 2597 2516 
Q 3050 2419 3304 2112 
Q 3559 1806 3559 1356 
Q 3559 666 3084 287 
Q 2609 -91 1734 -91 
Q 1441 -91 1130 -33 
Q 819 25 488 141 
L 488 750 
Q 750 597 1062 519 
Q 1375 441 1716 441 
Q 2309 441 2620 675 
Q 2931 909 2931 1356 
Q 2931 1769 2642 2001 
Q 2353 2234 1838 2234 
L 1294 2234 
L 1294 2753 
L 1863 2753 
Q 2328 2753 2575 2939 
Q 2822 3125 2822 3475 
Q 2822 3834 2567 4026 
Q 2313 4219 1838 4219 
Q 1578 4219 1281 4162 
Q 984 4106 628 3988 
L 628 4550 
Q 988 4650 1302 4700 
Q 1616 4750 1894 4750 
Q 2613 4750 3031 4423 
Q 3450 4097 3450 3541 
Q 3450 3153 3228 2886 
Q 3006 2619 2597 2516 
z
" transform="scale(0.015625)"/>
     </defs>
     <use xlink:href="#DejaVuSans-43"/>
     <use xlink:href="#DejaVuSans-72" x="69.824219"/>
     <use xlink:href="#DejaVuSans-65" x="108.6875"/>
     <use xlink:href="#DejaVuSans-61" x="170.210938"/>
     <use xlink:href="#DejaVuSans-74" x="231.490234"/>
     <use xlink:href="#DejaVuSans-65" x="270.699219"/>
     <use xlink:href="#DejaVuSans-20" x="332.222656"/>
     <use xlink:href="#DejaVuSans-56" x="364.009766"/>
     <use xlink:href="#DejaVuSans-4d" x="432.417969"/>
     <use xlink:href="#DejaVuSans-20" x="518.697266"/>
     <use xlink:href="#DejaVuSans-54" x="550.484375"/>
     <use xlink:href="#DejaVuSans-79" x="595.943359"/>
     <use xlink:href="#DejaVuSans-70" x="655.123047"/>
     <use xlink:href="#DejaVuSans-65" x="718.599609"/>
     <use xlink:href="#DejaVuSans-20" x="780.123047"/>
     <use xlink:href="#DejaVuSans-33" x="811.910156"/>
    </g>
   </g>
   <g id="legend_1">
    <g id="patch_7">
     <path d="M 427.126563 67.905469 
L 539.851563 67.905469 
Q 542.251563 67.905469 542.251563 65.505469 
L 542.251563 31.477969 
Q 542.251563 29.077969 539.851563 29.077969 
L 427.126563 29.077969 
Q 424.726563 29.077969 424.726563 31.477969 
L 424.726563 65.505469 
Q 424.726563 67.905469 427.126563 67.905469 
z
" style="fill: #ffffff; opacity: 0.8; stroke: #cccccc; stroke-linejoin: miter"/>
    </g>
    <g id="patch_8">
     <path d="M 429.526563 42.996094 
L 453.526563 42.996094 
L 453.526563 34.596094 
L 429.526563 34.596094 
z
" style="fill: #009384; fill-opacity: 0.7; stroke: #009384; stroke-opacity: 0.7; stroke-width: 1.5; stroke-linejoin: miter"/>
    </g>
    <g id="text_19">
     <!-- KubeVirt -->
     <g transform="translate(463.126563 42.996094) scale(0.12 -0.12)">
      <defs>
       <path id="DejaVuSans-4b" d="M 628 4666 
L 1259 4666 
L 1259 2694 
L 3353 4666 
L 4166 4666 
L 1850 2491 
L 4331 0 
L 3500 0 
L 1259 2247 
L 1259 0 
L 628 0 
L 628 4666 
z
" transform="scale(0.015625)"/>
       <path id="DejaVuSans-75" d="M 544 1381 
L 544 3500 
L 1119 3500 
L 1119 1403 
Q 1119 906 1312 657 
Q 1506 409 1894 409 
Q 2359 409 2629 706 
Q 2900 1003 2900 1516 
L 2900 3500 
L 3475 3500 
L 3475 0 
L 2900 0 
L 2900 538 
Q 2691 219 2414 64 
Q 2138 -91 1772 -91 
Q 1169 -91 856 284 
Q 544 659 544 1381 
z
M 1991 3584 
L 1991 3584 
z
" transform="scale(0.015625)"/>
       <path id="DejaVuSans-62" d="M 3116 1747 
Q 3116 2381 2855 2742 
Q 2594 3103 2138 3103 
Q 1681 3103 1420 2742 
Q 1159 2381 1159 1747 
Q 1159 1113 1420 752 
Q 1681 391 2138 391 
Q 2594 391 2855 752 
Q 3116 1113 3116 1747 
z
M 1159 2969 
Q 1341 3281 1617 3432 
Q 1894 3584 2278 3584 
Q 2916 3584 3314 3078 
Q 3713 2572 3713 1747 
Q 3713 922 3314 415 
Q 2916 -91 2278 -91 
Q 1894 -91 1617 61 
Q 1341 213 1159 525 
L 1159 0 
L 581 0 
L 581 4863 
L 1159 4863 
L 1159 2969 
z
" transform="scale(0.015625)"/>
      </defs>
      <use xlink:href="#DejaVuSans-4b"/>
      <use xlink:href="#DejaVuSans-75" x="60.576172"/>
      <use xlink:href="#DejaVuSans-62" x="123.955078"/>
      <use xlink:href="#DejaVuSans-65" x="187.431641"/>
      <use xlink:href="#DejaVuSans-56" x="248.955078"/>
      <use xlink:href="#DejaVuSans-69" x="315.113281"/>
      <use xlink:href="#DejaVuSans-72" x="342.896484"/>
      <use xlink:href="#DejaVuSans-74" x="384.009766"/>
     </g>
    </g>
    <g id="patch_9">
     <path d="M 429.526563 60.609844 
L 453.526563 60.609844 
L 453.526563 52.209844 
L 429.526563 52.209844 
z
" style="fill: #b85741; fill-opacity: 0.7; stroke: #b85741; stroke-opacity: 0.7; stroke-width: 1.5; stroke-linejoin: miter"/>
    </g>
    <g id="text_20">
     <!-- OpenNebula -->
     <g transform="translate(463.126563 60.609844) scale(0.12 -0.12)">
      <defs>
       <path id="DejaVuSans-4f" d="M 2522 4238 
Q 1834 4238 1429 3725 
Q 1025 3213 1025 2328 
Q 1025 1447 1429 934 
Q 1834 422 2522 422 
Q 3209 422 3611 934 
Q 4013 1447 4013 2328 
Q 4013 3213 3611 3725 
Q 3209 4238 2522 4238 
z
M 2522 4750 
Q 3503 4750 4090 4092 
Q 4678 3434 4678 2328 
Q 4678 1225 4090 567 
Q 3503 -91 2522 -91 
Q 1538 -91 948 565 
Q 359 1222 359 2328 
Q 359 3434 948 4092 
Q 1538 4750 2522 4750 
z
" transform="scale(0.015625)"/>
       <path id="DejaVuSans-4e" d="M 628 4666 
L 1478 4666 
L 3547 763 
L 3547 4666 
L 4159 4666 
L 4159 0 
L 3309 0 
L 1241 3903 
L 1241 0 
L 628 0 
L 628 4666 
z
" transform="scale(0.015625)"/>
      </defs>
      <use xlink:href="#DejaVuSans-4f"/>
      <use xlink:href="#DejaVuSans-70" x="78.710938"/>
      <use xlink:href="#DejaVuSans-65" x="142.1875"/>
      <use xlink:href="#DejaVuSans-6e" x="203.710938"/>
      <use xlink:href="#DejaVuSans-4e" x="267.089844"/>
      <use xlink:href="#DejaVuSans-65" x="341.894531"/>
      <use xlink:href="#DejaVuSans-62" x="403.417969"/>
      <use xlink:href="#DejaVuSans-75" x="466.894531"/>
      <use xlink:href="#DejaVuSans-6c" x="530.273438"/>
      <use xlink:href="#DejaVuSans-61" x="558.056641"/>
     </g>
    </g>
   </g>
  </g>
 </g>
 <defs>
  <clipPath id="p41fa700636">
   <rect x="46.051562" y="23.077969" width="502.2" height="221.76"/>
  </clipPath>
 </defs>
</svg>
