<?xml version="1.0" encoding="utf-8" standalone="no"?>
<!DOCTYPE svg PUBLIC "-//W3C//DTD SVG 1.1//EN"
  "http://www.w3.org/Graphics/SVG/1.1/DTD/svg11.dtd">
<svg xmlns:xlink="http://www.w3.org/1999/xlink" width="555.451562pt" height="287.233281pt" viewBox="0 0 555.451562 287.233281" xmlns="http://www.w3.org/2000/svg" version="1.1">
 <metadata>
  <rdf:RDF xmlns:dc="http://purl.org/dc/elements/1.1/" xmlns:cc="http://creativecommons.org/ns#" xmlns:rdf="http://www.w3.org/1999/02/22-rdf-syntax-ns#">
   <cc:Work>
    <dc:type rdf:resource="http://purl.org/dc/dcmitype/StillImage"/>
    <dc:date>2024-05-21T10:08:04.985530</dc:date>
    <dc:format>image/svg+xml</dc:format>
    <dc:creator>
     <cc:Agent>
      <dc:title>Matplotlib v3.8.4, https://matplotlib.org/</dc:title>
     </cc:Agent>
    </dc:creator>
   </cc:Work>
  </rdf:RDF>
 </metadata>
 <defs>
  <style type="text/css">*{stroke-linejoin: round; stroke-linecap: butt}</style>
 </defs>
 <g id="figure_1">
  <g id="patch_1">
   <path d="M 0 287.233281 
L 555.451562 287.233281 
L 555.451562 0 
L 0 0 
z
" style="fill: #f3f7f8"/>
  </g>
  <g id="axes_1">
   <g id="patch_2">
    <path d="M 46.051562 244.837969 
L 548.251563 244.837969 
L 548.251563 23.077969 
L 46.051562 23.077969 
z
" style="fill: #ffffff"/>
   </g>
   <g id="matplotlib.axis_1">
    <g id="xtick_1">
     <g id="line2d_1">
      <defs>
       <path id="m1f1ea4c16f" d="M 0 0 
L 0 3.5 
" style="stroke: #000000; stroke-width: 0.8"/>
      </defs>
      <g>
       <use xlink:href="#m1f1ea4c16f" x="76.732794" y="244.837969" style="stroke: #000000; stroke-width: 0.8"/>
      </g>
     </g>
     <g id="text_1">
      <!-- 0 -->
      <g transform="translate(72.915294 260.956094) scale(0.12 -0.12)">
       <defs>
        <path id="DejaVuSans-30" d="M 2034 4250 
Q 1547 4250 1301 3770 
Q 1056 3291 1056 2328 
Q 1056 1369 1301 889 
Q 1547 409 2034 409 
Q 2525 409 2770 889 
Q 3016 1369 3016 2328 
Q 3016 3291 2770 3770 
Q 2525 4250 2034 4250 
z
M 2034 4750 
Q 2819 4750 3233 4129 
Q 3647 3509 3647 2328 
Q 3647 1150 3233 529 
Q 2819 -91 2034 -91 
Q 1250 -91 836 529 
Q 422 1150 422 2328 
Q 422 3509 836 4129 
Q 1250 4750 2034 4750 
z
" transform="scale(0.015625)"/>
       </defs>
       <use xlink:href="#DejaVuSans-30"/>
      </g>
     </g>
    </g>
    <g id="xtick_2">
     <g id="line2d_2">
      <g>
       <use xlink:href="#m1f1ea4c16f" x="178.916801" y="244.837969" style="stroke: #000000; stroke-width: 0.8"/>
      </g>
     </g>
     <g id="text_2">
      <!-- 50 -->
      <g transform="translate(171.281801 260.956094) scale(0.12 -0.12)">
       <defs>
        <path id="DejaVuSans-35" d="M 691 4666 
L 3169 4666 
L 3169 4134 
L 1269 4134 
L 1269 2991 
Q 1406 3038 1543 3061 
Q 1681 3084 1819 3084 
Q 2600 3084 3056 2656 
Q 3513 2228 3513 1497 
Q 3513 744 3044 326 
Q 2575 -91 1722 -91 
Q 1428 -91 1123 -41 
Q 819 9 494 109 
L 494 744 
Q 775 591 1075 516 
Q 1375 441 1709 441 
Q 2250 441 2565 725 
Q 2881 1009 2881 1497 
Q 2881 1984 2565 2268 
Q 2250 2553 1709 2553 
Q 1456 2553 1204 2497 
Q 953 2441 691 2322 
L 691 4666 
z
" transform="scale(0.015625)"/>
       </defs>
       <use xlink:href="#DejaVuSans-35"/>
       <use xlink:href="#DejaVuSans-30" x="63.623047"/>
      </g>
     </g>
    </g>
    <g id="xtick_3">
     <g id="line2d_3">
      <g>
       <use xlink:href="#m1f1ea4c16f" x="281.100807" y="244.837969" style="stroke: #000000; stroke-width: 0.8"/>
      </g>
     </g>
     <g id="text_3">
      <!-- 100 -->
      <g transform="translate(269.648307 260.956094) scale(0.12 -0.12)">
       <defs>
        <path id="DejaVuSans-31" d="M 794 531 
L 1825 531 
L 1825 4091 
L 703 3866 
L 703 4441 
L 1819 4666 
L 2450 4666 
L 2450 531 
L 3481 531 
L 3481 0 
L 794 0 
L 794 531 
z
" transform="scale(0.015625)"/>
       </defs>
       <use xlink:href="#DejaVuSans-31"/>
       <use xlink:href="#DejaVuSans-30" x="63.623047"/>
       <use xlink:href="#DejaVuSans-30" x="127.246094"/>
      </g>
     </g>
    </g>
    <g id="xtick_4">
     <g id="line2d_4">
      <g>
       <use xlink:href="#m1f1ea4c16f" x="383.284814" y="244.837969" style="stroke: #000000; stroke-width: 0.8"/>
      </g>
     </g>
     <g id="text_4">
      <!-- 150 -->
      <g transform="translate(371.832314 260.956094) scale(0.12 -0.12)">
       <use xlink:href="#DejaVuSans-31"/>
       <use xlink:href="#DejaVuSans-35" x="63.623047"/>
       <use xlink:href="#DejaVuSans-30" x="127.246094"/>
      </g>
     </g>
    </g>
    <g id="xtick_5">
     <g id="line2d_5">
      <g>
       <use xlink:href="#m1f1ea4c16f" x="485.468821" y="244.837969" style="stroke: #000000; stroke-width: 0.8"/>
      </g>
     </g>
     <g id="text_5">
      <!-- 200 -->
      <g transform="translate(474.016321 260.956094) scale(0.12 -0.12)">
       <defs>
        <path id="DejaVuSans-32" d="M 1228 531 
L 3431 531 
L 3431 0 
L 469 0 
L 469 531 
Q 828 903 1448 1529 
Q 2069 2156 2228 2338 
Q 2531 2678 2651 2914 
Q 2772 3150 2772 3378 
Q 2772 3750 2511 3984 
Q 2250 4219 1831 4219 
Q 1534 4219 1204 4116 
Q 875 4013 500 3803 
L 500 4441 
Q 881 4594 1212 4672 
Q 1544 4750 1819 4750 
Q 2544 4750 2975 4387 
Q 3406 4025 3406 3419 
Q 3406 3131 3298 2873 
Q 3191 2616 2906 2266 
Q 2828 2175 2409 1742 
Q 1991 1309 1228 531 
z
" transform="scale(0.015625)"/>
       </defs>
       <use xlink:href="#DejaVuSans-32"/>
       <use xlink:href="#DejaVuSans-30" x="63.623047"/>
       <use xlink:href="#DejaVuSans-30" x="127.246094"/>
      </g>
     </g>
    </g>
    <g id="text_6">
     <!-- Time (s) -->
     <g transform="translate(270.723984 277.329687) scale(0.13 -0.13)">
      <defs>
       <path id="DejaVuSans-54" d="M -19 4666 
L 3928 4666 
L 3928 4134 
L 2272 4134 
L 2272 0 
L 1638 0 
L 1638 4134 
L -19 4134 
L -19 4666 
z
" transform="scale(0.015625)"/>
       <path id="DejaVuSans-69" d="M 603 3500 
L 1178 3500 
L 1178 0 
L 603 0 
L 603 3500 
z
M 603 4863 
L 1178 4863 
L 1178 4134 
L 603 4134 
L 603 4863 
z
" transform="scale(0.015625)"/>
       <path id="DejaVuSans-6d" d="M 3328 2828 
Q 3544 3216 3844 3400 
Q 4144 3584 4550 3584 
Q 5097 3584 5394 3201 
Q 5691 2819 5691 2113 
L 5691 0 
L 5113 0 
L 5113 2094 
Q 5113 2597 4934 2840 
Q 4756 3084 4391 3084 
Q 3944 3084 3684 2787 
Q 3425 2491 3425 1978 
L 3425 0 
L 2847 0 
L 2847 2094 
Q 2847 2600 2669 2842 
Q 2491 3084 2119 3084 
Q 1678 3084 1418 2786 
Q 1159 2488 1159 1978 
L 1159 0 
L 581 0 
L 581 3500 
L 1159 3500 
L 1159 2956 
Q 1356 3278 1631 3431 
Q 1906 3584 2284 3584 
Q 2666 3584 2933 3390 
Q 3200 3197 3328 2828 
z
" transform="scale(0.015625)"/>
       <path id="DejaVuSans-65" d="M 3597 1894 
L 3597 1613 
L 953 1613 
Q 991 1019 1311 708 
Q 1631 397 2203 397 
Q 2534 397 2845 478 
Q 3156 559 3463 722 
L 3463 178 
Q 3153 47 2828 -22 
Q 2503 -91 2169 -91 
Q 1331 -91 842 396 
Q 353 884 353 1716 
Q 353 2575 817 3079 
Q 1281 3584 2069 3584 
Q 2775 3584 3186 3129 
Q 3597 2675 3597 1894 
z
M 3022 2063 
Q 3016 2534 2758 2815 
Q 2500 3097 2075 3097 
Q 1594 3097 1305 2825 
Q 1016 2553 972 2059 
L 3022 2063 
z
" transform="scale(0.015625)"/>
       <path id="DejaVuSans-20" transform="scale(0.015625)"/>
       <path id="DejaVuSans-28" d="M 1984 4856 
Q 1566 4138 1362 3434 
Q 1159 2731 1159 2009 
Q 1159 1288 1364 580 
Q 1569 -128 1984 -844 
L 1484 -844 
Q 1016 -109 783 600 
Q 550 1309 550 2009 
Q 550 2706 781 3412 
Q 1013 4119 1484 4856 
L 1984 4856 
z
" transform="scale(0.015625)"/>
       <path id="DejaVuSans-73" d="M 2834 3397 
L 2834 2853 
Q 2591 2978 2328 3040 
Q 2066 3103 1784 3103 
Q 1356 3103 1142 2972 
Q 928 2841 928 2578 
Q 928 2378 1081 2264 
Q 1234 2150 1697 2047 
L 1894 2003 
Q 2506 1872 2764 1633 
Q 3022 1394 3022 966 
Q 3022 478 2636 193 
Q 2250 -91 1575 -91 
Q 1294 -91 989 -36 
Q 684 19 347 128 
L 347 722 
Q 666 556 975 473 
Q 1284 391 1588 391 
Q 1994 391 2212 530 
Q 2431 669 2431 922 
Q 2431 1156 2273 1281 
Q 2116 1406 1581 1522 
L 1381 1569 
Q 847 1681 609 1914 
Q 372 2147 372 2553 
Q 372 3047 722 3315 
Q 1072 3584 1716 3584 
Q 2034 3584 2315 3537 
Q 2597 3491 2834 3397 
z
" transform="scale(0.015625)"/>
       <path id="DejaVuSans-29" d="M 513 4856 
L 1013 4856 
Q 1481 4119 1714 3412 
Q 1947 2706 1947 2009 
Q 1947 1309 1714 600 
Q 1481 -109 1013 -844 
L 513 -844 
Q 928 -128 1133 580 
Q 1338 1288 1338 2009 
Q 1338 2731 1133 3434 
Q 928 4138 513 4856 
z
" transform="scale(0.015625)"/>
      </defs>
      <use xlink:href="#DejaVuSans-54"/>
      <use xlink:href="#DejaVuSans-69" x="57.958984"/>
      <use xlink:href="#DejaVuSans-6d" x="85.742188"/>
      <use xlink:href="#DejaVuSans-65" x="183.154297"/>
      <use xlink:href="#DejaVuSans-20" x="244.677734"/>
      <use xlink:href="#DejaVuSans-28" x="276.464844"/>
      <use xlink:href="#DejaVuSans-73" x="315.478516"/>
      <use xlink:href="#DejaVuSans-29" x="367.578125"/>
     </g>
    </g>
   </g>
   <g id="matplotlib.axis_2">
    <g id="ytick_1">
     <g id="line2d_6">
      <defs>
       <path id="m4c07d28c49" d="M 0 0 
L -3.5 0 
" style="stroke: #000000; stroke-width: 0.8"/>
      </defs>
      <g>
       <use xlink:href="#m4c07d28c49" x="46.051562" y="224.544941" style="stroke: #000000; stroke-width: 0.8"/>
      </g>
     </g>
     <g id="text_7">
      <!-- 8 -->
      <g transform="translate(31.416562 229.104004) scale(0.12 -0.12)">
       <defs>
        <path id="DejaVuSans-38" d="M 2034 2216 
Q 1584 2216 1326 1975 
Q 1069 1734 1069 1313 
Q 1069 891 1326 650 
Q 1584 409 2034 409 
Q 2484 409 2743 651 
Q 3003 894 3003 1313 
Q 3003 1734 2745 1975 
Q 2488 2216 2034 2216 
z
M 1403 2484 
Q 997 2584 770 2862 
Q 544 3141 544 3541 
Q 544 4100 942 4425 
Q 1341 4750 2034 4750 
Q 2731 4750 3128 4425 
Q 3525 4100 3525 3541 
Q 3525 3141 3298 2862 
Q 3072 2584 2669 2484 
Q 3125 2378 3379 2068 
Q 3634 1759 3634 1313 
Q 3634 634 3220 271 
Q 2806 -91 2034 -91 
Q 1263 -91 848 271 
Q 434 634 434 1313 
Q 434 1759 690 2068 
Q 947 2378 1403 2484 
z
M 1172 3481 
Q 1172 3119 1398 2916 
Q 1625 2713 2034 2713 
Q 2441 2713 2670 2916 
Q 2900 3119 2900 3481 
Q 2900 3844 2670 4047 
Q 2441 4250 2034 4250 
Q 1625 4250 1398 4047 
Q 1172 3844 1172 3481 
z
" transform="scale(0.015625)"/>
       </defs>
       <use xlink:href="#DejaVuSans-38"/>
      </g>
     </g>
    </g>
    <g id="ytick_2">
     <g id="line2d_7">
      <g>
       <use xlink:href="#m4c07d28c49" x="46.051562" y="182.541291" style="stroke: #000000; stroke-width: 0.8"/>
      </g>
     </g>
     <g id="text_8">
      <!-- 10 -->
      <g transform="translate(23.781562 187.100354) scale(0.12 -0.12)">
       <use xlink:href="#DejaVuSans-31"/>
       <use xlink:href="#DejaVuSans-30" x="63.623047"/>
      </g>
     </g>
    </g>
    <g id="ytick_3">
     <g id="line2d_8">
      <g>
       <use xlink:href="#m4c07d28c49" x="46.051562" y="140.537641" style="stroke: #000000; stroke-width: 0.8"/>
      </g>
     </g>
     <g id="text_9">
      <!-- 12 -->
      <g transform="translate(23.781562 145.096704) scale(0.12 -0.12)">
       <use xlink:href="#DejaVuSans-31"/>
       <use xlink:href="#DejaVuSans-32" x="63.623047"/>
      </g>
     </g>
    </g>
    <g id="ytick_4">
     <g id="line2d_9">
      <g>
       <use xlink:href="#m4c07d28c49" x="46.051562" y="98.533991" style="stroke: #000000; stroke-width: 0.8"/>
      </g>
     </g>
     <g id="text_10">
      <!-- 14 -->
      <g transform="translate(23.781562 103.093054) scale(0.12 -0.12)">
       <defs>
        <path id="DejaVuSans-34" d="M 2419 4116 
L 825 1625 
L 2419 1625 
L 2419 4116 
z
M 2253 4666 
L 3047 4666 
L 3047 1625 
L 3713 1625 
L 3713 1100 
L 3047 1100 
L 3047 0 
L 2419 0 
L 2419 1100 
L 313 1100 
L 313 1709 
L 2253 4666 
z
" transform="scale(0.015625)"/>
       </defs>
       <use xlink:href="#DejaVuSans-31"/>
       <use xlink:href="#DejaVuSans-34" x="63.623047"/>
      </g>
     </g>
    </g>
    <g id="ytick_5">
     <g id="line2d_10">
      <g>
       <use xlink:href="#m4c07d28c49" x="46.051562" y="56.530342" style="stroke: #000000; stroke-width: 0.8"/>
      </g>
     </g>
     <g id="text_11">
      <!-- 16 -->
      <g transform="translate(23.781562 61.089404) scale(0.12 -0.12)">
       <defs>
        <path id="DejaVuSans-36" d="M 2113 2584 
Q 1688 2584 1439 2293 
Q 1191 2003 1191 1497 
Q 1191 994 1439 701 
Q 1688 409 2113 409 
Q 2538 409 2786 701 
Q 3034 994 3034 1497 
Q 3034 2003 2786 2293 
Q 2538 2584 2113 2584 
z
M 3366 4563 
L 3366 3988 
Q 3128 4100 2886 4159 
Q 2644 4219 2406 4219 
Q 1781 4219 1451 3797 
Q 1122 3375 1075 2522 
Q 1259 2794 1537 2939 
Q 1816 3084 2150 3084 
Q 2853 3084 3261 2657 
Q 3669 2231 3669 1497 
Q 3669 778 3244 343 
Q 2819 -91 2113 -91 
Q 1303 -91 875 529 
Q 447 1150 447 2328 
Q 447 3434 972 4092 
Q 1497 4750 2381 4750 
Q 2619 4750 2861 4703 
Q 3103 4656 3366 4563 
z
" transform="scale(0.015625)"/>
       </defs>
       <use xlink:href="#DejaVuSans-31"/>
       <use xlink:href="#DejaVuSans-36" x="63.623047"/>
      </g>
     </g>
    </g>
    <g id="text_12">
     <!-- Utilization (%) -->
     <g transform="translate(17.077969 179.839844) rotate(-90) scale(0.13 -0.13)">
      <defs>
       <path id="DejaVuSans-55" d="M 556 4666 
L 1191 4666 
L 1191 1831 
Q 1191 1081 1462 751 
Q 1734 422 2344 422 
Q 2950 422 3222 751 
Q 3494 1081 3494 1831 
L 3494 4666 
L 4128 4666 
L 4128 1753 
Q 4128 841 3676 375 
Q 3225 -91 2344 -91 
Q 1459 -91 1007 375 
Q 556 841 556 1753 
L 556 4666 
z
" transform="scale(0.015625)"/>
       <path id="DejaVuSans-74" d="M 1172 4494 
L 1172 3500 
L 2356 3500 
L 2356 3053 
L 1172 3053 
L 1172 1153 
Q 1172 725 1289 603 
Q 1406 481 1766 481 
L 2356 481 
L 2356 0 
L 1766 0 
Q 1100 0 847 248 
Q 594 497 594 1153 
L 594 3053 
L 172 3053 
L 172 3500 
L 594 3500 
L 594 4494 
L 1172 4494 
z
" transform="scale(0.015625)"/>
       <path id="DejaVuSans-6c" d="M 603 4863 
L 1178 4863 
L 1178 0 
L 603 0 
L 603 4863 
z
" transform="scale(0.015625)"/>
       <path id="DejaVuSans-7a" d="M 353 3500 
L 3084 3500 
L 3084 2975 
L 922 459 
L 3084 459 
L 3084 0 
L 275 0 
L 275 525 
L 2438 3041 
L 353 3041 
L 353 3500 
z
" transform="scale(0.015625)"/>
       <path id="DejaVuSans-61" d="M 2194 1759 
Q 1497 1759 1228 1600 
Q 959 1441 959 1056 
Q 959 750 1161 570 
Q 1363 391 1709 391 
Q 2188 391 2477 730 
Q 2766 1069 2766 1631 
L 2766 1759 
L 2194 1759 
z
M 3341 1997 
L 3341 0 
L 2766 0 
L 2766 531 
Q 2569 213 2275 61 
Q 1981 -91 1556 -91 
Q 1019 -91 701 211 
Q 384 513 384 1019 
Q 384 1609 779 1909 
Q 1175 2209 1959 2209 
L 2766 2209 
L 2766 2266 
Q 2766 2663 2505 2880 
Q 2244 3097 1772 3097 
Q 1472 3097 1187 3025 
Q 903 2953 641 2809 
L 641 3341 
Q 956 3463 1253 3523 
Q 1550 3584 1831 3584 
Q 2591 3584 2966 3190 
Q 3341 2797 3341 1997 
z
" transform="scale(0.015625)"/>
       <path id="DejaVuSans-6f" d="M 1959 3097 
Q 1497 3097 1228 2736 
Q 959 2375 959 1747 
Q 959 1119 1226 758 
Q 1494 397 1959 397 
Q 2419 397 2687 759 
Q 2956 1122 2956 1747 
Q 2956 2369 2687 2733 
Q 2419 3097 1959 3097 
z
M 1959 3584 
Q 2709 3584 3137 3096 
Q 3566 2609 3566 1747 
Q 3566 888 3137 398 
Q 2709 -91 1959 -91 
Q 1206 -91 779 398 
Q 353 888 353 1747 
Q 353 2609 779 3096 
Q 1206 3584 1959 3584 
z
" transform="scale(0.015625)"/>
       <path id="DejaVuSans-6e" d="M 3513 2113 
L 3513 0 
L 2938 0 
L 2938 2094 
Q 2938 2591 2744 2837 
Q 2550 3084 2163 3084 
Q 1697 3084 1428 2787 
Q 1159 2491 1159 1978 
L 1159 0 
L 581 0 
L 581 3500 
L 1159 3500 
L 1159 2956 
Q 1366 3272 1645 3428 
Q 1925 3584 2291 3584 
Q 2894 3584 3203 3211 
Q 3513 2838 3513 2113 
z
" transform="scale(0.015625)"/>
       <path id="DejaVuSans-25" d="M 4653 2053 
Q 4381 2053 4226 1822 
Q 4072 1591 4072 1178 
Q 4072 772 4226 539 
Q 4381 306 4653 306 
Q 4919 306 5073 539 
Q 5228 772 5228 1178 
Q 5228 1588 5073 1820 
Q 4919 2053 4653 2053 
z
M 4653 2450 
Q 5147 2450 5437 2106 
Q 5728 1763 5728 1178 
Q 5728 594 5436 251 
Q 5144 -91 4653 -91 
Q 4153 -91 3862 251 
Q 3572 594 3572 1178 
Q 3572 1766 3864 2108 
Q 4156 2450 4653 2450 
z
M 1428 4353 
Q 1159 4353 1004 4120 
Q 850 3888 850 3481 
Q 850 3069 1003 2837 
Q 1156 2606 1428 2606 
Q 1700 2606 1854 2837 
Q 2009 3069 2009 3481 
Q 2009 3884 1853 4118 
Q 1697 4353 1428 4353 
z
M 4250 4750 
L 4750 4750 
L 1831 -91 
L 1331 -91 
L 4250 4750 
z
M 1428 4750 
Q 1922 4750 2215 4408 
Q 2509 4066 2509 3481 
Q 2509 2891 2217 2550 
Q 1925 2209 1428 2209 
Q 931 2209 642 2551 
Q 353 2894 353 3481 
Q 353 4063 643 4406 
Q 934 4750 1428 4750 
z
" transform="scale(0.015625)"/>
      </defs>
      <use xlink:href="#DejaVuSans-55"/>
      <use xlink:href="#DejaVuSans-74" x="73.193359"/>
      <use xlink:href="#DejaVuSans-69" x="112.402344"/>
      <use xlink:href="#DejaVuSans-6c" x="140.185547"/>
      <use xlink:href="#DejaVuSans-69" x="167.96875"/>
      <use xlink:href="#DejaVuSans-7a" x="195.751953"/>
      <use xlink:href="#DejaVuSans-61" x="248.242188"/>
      <use xlink:href="#DejaVuSans-74" x="309.521484"/>
      <use xlink:href="#DejaVuSans-69" x="348.730469"/>
      <use xlink:href="#DejaVuSans-6f" x="376.513672"/>
      <use xlink:href="#DejaVuSans-6e" x="437.695312"/>
      <use xlink:href="#DejaVuSans-20" x="501.074219"/>
      <use xlink:href="#DejaVuSans-28" x="532.861328"/>
      <use xlink:href="#DejaVuSans-25" x="571.875"/>
      <use xlink:href="#DejaVuSans-29" x="666.894531"/>
     </g>
    </g>
   </g>
   <g id="line2d_11">
    <path d="M 68.878835 133.471272 
L 68.904336 133.303124 
L 68.944147 133.371048 
L 69.447775 133.706439 
L 69.473734 133.48794 
L 69.566503 133.646145 
L 69.608454 133.894605 
L 69.952658 134.080165 
L 70.257175 133.961199 
L 70.531418 133.87573 
L 70.881239 133.518885 
L 72.148756 133.817031 
L 72.705477 133.800096 
L 72.80526 133.477891 
L 72.862215 133.48701 
L 72.966195 133.786937 
L 72.991697 133.601616 
L 73.031507 133.399307 
L 73.38508 133.678047 
L 73.561094 133.436393 
L 73.695814 133.601297 
L 74.18764 133.716328 
L 74.260969 133.593135 
L 74.344535 133.655849 
L 74.618779 133.567136 
L 74.968599 133.205771 
L 75.265031 133.29576 
L 75.703799 133.60882 
L 76.792837 133.333085 
L 76.949575 133.140001 
L 77.118868 133.441258 
L 77.622496 132.656374 
L 77.648455 132.299689 
L 77.783174 132.095998 
L 78.275 131.775999 
L 78.431895 130.721442 
L 79.122737 128.722307 
L 79.352391 127.921872 
L 79.516121 127.829092 
L 79.784904 127.489713 
L 79.791159 127.239791 
L 81.140916 124.760645 
L 81.206228 122.949597 
L 81.709856 120.7309 
L 81.870534 116.427786 
L 82.214739 114.254974 
L 82.36236 112.292898 
L 82.43569 105.461643 
L 82.519256 103.821108 
L 82.793499 101.326383 
L 83.080616 94.177841 
L 83.210097 89.304381 
L 83.439752 86.792137 
L 83.603481 80.20756 
L 83.87852 77.196669 
L 85.228276 76.837299 
L 85.293588 75.010007 
L 85.957895 73.03759 
L 86.449721 72.041651 
L 86.454517 70.45923 
L 86.880859 68.725304 
L 87.011238 66.710059 
L 87.111021 64.501092 
L 87.297457 58.556752 
L 87.648476 56.764897 
L 87.690841 54.670165 
L 87.866855 53.098723 
L 87.96588 49.924124 
L 88.34578 48.572723 
L 88.525382 48.390566 
L 88.650296 45.274666 
L 89.315637 43.238632 
L 89.570792 41.891883 
L 90.045255 41.859211 
L 90.541877 41.563776 
L 91.255336 41.692845 
L 91.424629 41.07042 
L 91.651326 40.676596 
L 91.928257 39.756237 
L 92.05324 37.894013 
L 92.580761 37.674105 
L 92.65409 36.881273 
L 92.737656 37.241043 
L 93.0119 37.155547 
L 93.242061 36.566592 
L 93.658152 36.979663 
L 93.997896 36.297555 
L 94.090665 34.547944 
L 94.47682 34.417095 
L 94.629238 34.115599 
L 95.342697 33.96194 
L 95.405401 33.225999 
L 95.446677 34.041348 
L 95.511989 33.402733 
L 95.865562 33.157969 
L 96.015617 34.330987 
L 96.176295 33.953459 
L 96.668121 35.671223 
L 96.741451 37.682081 
L 97.09926 38.895508 
L 97.229639 40.286227 
L 97.329421 44.033937 
L 97.745513 46.862138 
L 97.866877 48.93446 
L 98.178025 50.840921 
L 98.184281 53.492334 
L 98.56418 55.524567 
L 98.868697 59.568508 
L 99.534037 61.359512 
L 99.599349 63.25712 
L 100.102977 64.805938 
L 100.263656 66.66856 
L 100.755481 68.068425 
L 100.760278 69.897418 
L 101.316999 69.851241 
L 101.330113 69.51795 
L 101.869727 76.861623 
L 102.271641 83.876791 
L 102.65154 84.466145 
L 102.831143 84.203037 
L 102.872491 85.857955 
L 103.2303 86.692711 
L 104.351016 86.23628 
L 104.999737 88.674007 
L 105.690579 90.178588 
L 105.73039 91.799052 
L 106.041597 93.904578 
L 106.352745 92.869507 
L 106.359001 93.047305 
L 106.886522 92.784037 
L 106.959851 91.085654 
L 107.317661 90.252387 
L 107.448039 90.380126 
L 107.547822 88.98284 
L 107.667482 89.177094 
L 107.963913 90.664342 
L 108.127643 90.32039 
L 108.303657 90.264962 
L 108.782581 90.511986 
L 108.934999 90.145357 
L 109.087097 90.57967 
L 109.648457 90.456796 
L 109.752438 91.059229 
L 109.81775 90.952705 
L 110.044447 91.556015 
L 110.128957 93.341649 
L 110.321378 93.208327 
L 110.482056 93.557729 
L 110.973882 93.763387 
L 111.405021 92.942163 
L 111.548514 93.518251 
L 111.635182 93.392319 
L 111.754842 93.495281 
L 111.821619 94.019104 
L 112.051274 93.70413 
L 112.391017 94.233323 
L 112.490041 94.60548 
L 112.869941 94.588254 
L 113.090892 93.711786 
L 113.174458 94.234944 
L 113.90511 94.254883 
L 114.408738 95.397462 
L 114.569416 94.624914 
L 115.635874 94.555475 
L 116.175487 93.729811 
L 116.259998 94.14881 
L 116.571146 94.187039 
L 116.577402 94.844582 
L 117.104923 95.075576 
L 117.261818 95.495293 
L 117.536061 94.767912 
L 117.927158 94.597984 
L 117.99247 94.916839 
L 118.656777 92.947453 
L 119.000982 92.900318 
L 119.153399 93.098374 
L 119.929562 92.642448 
L 119.99634 92.556021 
L 120.262848 92.609191 
L 120.347358 91.943459 
L 120.539779 91.995246 
L 120.658506 91.595387 
L 120.664762 92.276883 
L 121.192283 91.873675 
L 121.265612 92.489055 
L 121.623422 91.989265 
L 121.7538 92.1635 
L 121.853583 91.275442 
L 122.433404 91.424209 
L 122.609418 91.581218 
L 123.088342 91.519435 
L 123.392858 93.225767 
L 123.954218 93.173129 
L 124.123511 94.069322 
L 124.627139 94.386636 
L 124.787817 93.751557 
L 125.279643 93.805098 
L 125.352972 93.269818 
L 125.841161 92.984592 
L 125.940943 93.261576 
L 126.060603 93.410184 
L 126.12738 93.192855 
L 126.393888 94.035985 
L 126.478398 93.768119 
L 126.520764 93.608346 
L 126.696778 93.544755 
L 127.175702 93.718326 
L 127.480219 94.466071 
L 127.754462 93.582266 
L 128.210871 94.171806 
L 128.875177 94.020699 
L 129.928521 94.79463 
L 130.028303 95.516455 
L 130.085259 95.339242 
L 130.21474 96.006116 
L 130.481248 96.012629 
L 130.608124 96.222329 
L 130.876907 96.344458 
L 130.883163 96.917702 
L 131.567579 98.237945 
L 132.232919 98.660135 
L 132.298231 99.111834 
L 132.609439 98.673242 
L 132.827818 98.59596 
L 132.962538 99.336208 
L 133.45916 99.741437 
L 134.015881 99.764273 
L 134.172619 100.675619 
L 134.235323 100.768639 
L 134.302101 100.543202 
L 134.531755 100.895368 
L 134.568609 101.422168 
L 134.84554 101.862621 
L 134.964267 101.548551 
L 134.970523 102.220662 
L 135.498044 102.139128 
L 135.654939 103.669336 
L 136.159344 103.676727 
L 136.385592 103.947783 
L 136.696799 103.909661 
L 136.739165 104.50909 
L 136.915179 105.39146 
L 137.394103 105.599856 
L 137.54652 106.261786 
L 137.972863 106.515881 
L 138.259979 107.265886 
L 138.389461 109.028284 
L 138.655969 109.387309 
L 139.057883 109.321938 
L 139.093578 109.239898 
L 139.585404 109.036845 
L 139.658733 109.746494 
L 140.146921 110.074335 
L 140.160036 110.044135 
L 140.366364 110.841194 
L 140.784159 111.041695 
L 140.826525 111.372061 
L 141.002539 111.506128 
L 141.095308 111.856699 
L 141.481463 112.04069 
L 141.633881 112.81401 
L 141.78598 112.843332 
L 142.34734 113.33637 
L 142.516632 114.606396 
L 142.743329 114.696252 
L 143.02026 114.422324 
L 143.180938 114.923018 
L 143.704746 114.720018 
L 144.234282 114.712628 
L 144.247396 115.003702 
L 144.334064 114.883487 
L 144.453724 115.202555 
L 144.87152 115.203858 
L 144.913885 115.037784 
L 145.182668 114.800197 
L 145.188924 115.399042 
L 145.568823 115.474276 
L 145.716444 115.14928 
L 145.789774 116.106936 
L 145.87334 115.876661 
L 146.147583 115.916803 
L 146.53868 116.167655 
L 146.603992 116.397187 
L 147.10762 116.397958 
L 147.133579 116.075141 
L 147.268299 115.892425 
L 148.321642 116.019553 
L 148.421425 116.992814 
L 148.47838 117.202301 
L 148.541084 117.022696 
L 148.607861 117.189487 
L 148.837516 117.363111 
L 149.001245 118.162616 
L 149.276284 118.90967 
L 149.656184 119.061601 
L 149.803805 118.771031 
L 149.835786 120.058018 
L 149.877134 120.037335 
L 150.691352 120.594229 
L 151.220939 120.473295 
L 151.313708 119.740199 
L 151.355659 119.788317 
L 152.278624 120.438337 
L 152.409002 120.344679 
L 152.508785 120.625971 
L 152.628444 120.477283 
L 152.695222 120.882831 
L 152.96173 120.915663 
L 153.088606 120.81621 
L 153.238661 120.46867 
L 153.363644 120.929354 
L 153.743544 120.677465 
L 153.895961 121.401337 
L 153.964494 121.209768 
L 154.713401 121.547047 
L 154.778713 121.426247 
L 154.968556 121.553879 
L 155.08992 121.482234 
L 155.443019 121.846868 
L 156.09174 121.950362 
L 156.596145 122.235747 
L 156.653101 122.002654 
L 157.04909 122.674659 
L 157.444749 122.362476 
L 157.451004 122.594958 
L 158.010507 122.584883 
L 158.051854 122.963952 
L 158.866073 123.189602 
L 159.219646 123.421766 
L 159.530379 123.828669 
L 159.874584 124.226641 
L 160.179101 125.254294 
L 160.453344 125.368395 
L 160.583723 125.615738 
L 160.740461 125.501664 
L 160.869942 126.032159 
L 161.13645 126.332698 
L 161.413381 126.189859 
L 161.532109 126.342854 
L 161.538365 126.887465 
L 162.065885 127.004172 
L 162.097867 127.186941 
L 162.139215 127.160941 
L 162.640517 127.234421 
L 162.953433 127.538921 
L 163.143277 127.833319 
L 163.264641 127.756994 
L 163.307006 127.934101 
L 163.48302 128.118677 
L 163.961944 128.000961 
L 164.114362 128.152759 
L 164.266461 128.518191 
L 164.671083 128.282093 
L 164.931801 128.501522 
L 164.957303 128.698009 
L 165.500742 128.60257 
L 165.619469 128.845686 
L 165.66142 129.325565 
L 166.153246 129.493526 
L 166.727878 129.438496 
L 166.871501 128.8996 
L 166.934205 129.028243 
L 167.352001 129.065807 
L 167.394367 129.453995 
L 167.669405 129.407365 
L 168.049305 129.556372 
L 168.270255 129.20519 
L 168.353821 129.575407 
L 168.628065 128.328031 
L 169.019162 128.873919 
L 169.044663 129.120438 
L 169.084474 128.929986 
L 169.311171 129.316739 
L 169.706829 128.713747 
L 169.74878 128.684371 
L 170.240606 128.933256 
L 170.802123 128.777151 
L 170.901906 127.163972 
L 171.317997 127.544025 
L 171.481727 127.247235 
L 171.756765 127.686678 
L 172.136665 127.192497 
L 172.441182 125.879378 
L 172.715425 124.867489 
L 173.106522 124.280448 
L 173.132023 123.407995 
L 173.171834 123.578003 
L 173.398531 123.13638 
L 173.83614 123.147891 
L 174.889484 122.557713 
L 174.902598 121.364836 
L 175.405358 120.23329 
L 175.526722 120.135724 
L 175.844126 117.611199 
L 176.371646 116.721944 
L 176.444976 115.31958 
L 176.528542 114.662277 
L 177.032947 113.598149 
L 177.612767 110.968747 
L 177.923501 109.541314 
L 178.846465 108.459507 
L 178.976844 107.453413 
L 179.133582 107.334713 
L 179.263063 106.490307 
L 179.614082 106.189263 
L 179.931486 103.775276 
L 180.459007 102.800738 
L 180.532336 99.910302 
L 181.120307 98.425393 
L 181.281243 97.594891 
L 181.346554 96.459702 
L 182.355066 90.874652 
L 182.933826 89.465244 
L 183.064204 88.450032 
L 183.283646 88.411112 
L 183.616932 87.205873 
L 183.893863 87.183701 
L 184.01259 87.01683 
L 184.018846 86.123933 
L 184.546367 85.047444 
L 184.619696 83.30376 
L 185.120999 82.413389 
L 185.264622 82.533685 
L 185.394104 81.577995 
L 185.433915 80.34665 
L 185.745122 79.807568 
L 185.787488 78.894467 
L 186.442426 77.947684 
L 186.746942 76.731545 
L 187.021186 75.919492 
L 187.251347 74.488231 
L 187.412283 74.673605 
L 187.981223 72.747392 
L 188.007182 72.244678 
L 188.099951 73.219349 
L 188.141901 72.712115 
L 188.707056 71.710301 
L 189.208359 71.099254 
L 189.351983 70.715373 
L 189.521275 69.259468 
L 189.832483 67.109652 
L 190.529786 67.226305 
L 190.709389 66.187938 
L 191.108546 67.289231 
L 191.338707 66.924916 
L 191.499643 67.400301 
L 192.068583 65.75974 
L 192.187311 65.907045 
L 192.193567 66.237491 
L 192.229262 65.633809 
L 192.794417 65.744746 
L 193.282605 65.357621 
L 193.295719 65.441815 
L 193.439343 64.94548 
L 193.502047 64.988521 
L 193.568824 65.115622 
L 193.798479 64.27608 
L 193.919843 63.197145 
L 194.138222 63.206928 
L 194.617146 62.852848 
L 194.764768 63.201957 
L 194.769564 63.107635 
L 194.796749 62.981092 
L 194.921663 64.346211 
L 195.426068 65.991424 
L 195.587003 67.176246 
L 195.652315 67.07246 
L 196.005888 67.984152 
L 196.316622 68.032323 
L 197.369965 68.684443 
L 197.383079 69.084515 
L 197.526703 69.08494 
L 197.885839 70.562033 
L 198.225583 71.248155 
L 198.318351 70.353503 
L 198.324607 71.236776 
L 198.704507 72.354818 
L 198.852128 71.654766 
L 198.925457 73.199118 
L 199.009023 74.556155 
L 199.674364 75.6839 
L 199.739676 75.718406 
L 200.093249 77.506592 
L 200.403982 77.658709 
L 201.326947 78.464488 
L 201.457325 79.159489 
L 201.47044 79.851991 
L 201.676768 79.807834 
L 202.286984 81.042741 
L 202.405712 80.936748 
L 202.411967 81.988647 
L 202.939488 82.520313 
L 202.944285 83.617432 
L 203.012817 83.125484 
L 203.096384 84.196205 
L 203.657744 85.605215 
L 204.053733 89.021148 
L 204.138243 89.331204 
L 204.180609 90.139562 
L 204.356623 90.965864 
L 205.414307 92.454309 
L 205.544686 93.529203 
L 206.374344 93.765275 
L 206.493072 93.277846 
L 206.535022 94.28604 
L 207.100178 95.388583 
L 207.60148 96.402599 
L 207.874585 99.802422 
L 208.10424 100.496359 
L 208.267969 102.609595 
L 208.443983 103.372839 
L 208.922907 104.163757 
L 209.501667 107.516738 
L 209.632046 107.68672 
L 209.958076 108.552739 
L 210.269284 107.394874 
L 210.586688 107.42542 
L 210.622383 108.493961 
L 211.119005 108.790406 
L 211.187538 109.205683 
L 211.895168 110.5779 
L 211.961946 112.70278 
L 212.1916 112.678854 
L 212.355329 114.0868 
L 213.010268 114.814819 
L 213.314784 116.00323 
L 213.719406 116.678771 
L 214.045437 117.862822 
L 214.674048 117.458603 
L 214.709743 118.277701 
L 215.206365 118.312287 
L 215.274898 119.127424 
L 215.776201 119.568808 
L 215.862869 120.226697 
L 216.27896 120.346194 
L 216.315814 121.098352 
L 216.400324 120.606564 
L 216.711473 121.684436 
L 217.097628 121.488481 
L 217.245249 121.913037 
L 217.277231 121.889137 
L 217.402144 122.804232 
L 217.963505 122.572627 
L 218.132797 123.304341 
L 218.761408 123.110433 
L 218.797103 123.309153 
L 219.293726 123.184046 
L 219.863561 123.998412 
L 220.069889 124.07019 
L 220.136666 124.549032 
L 220.366321 124.57862 
L 220.403174 125.171776 
L 220.487685 124.398217 
L 220.53005 124.424669 
L 220.706064 124.435143 
L 220.798833 125.211759 
L 221.184988 125.012667 
L 221.364591 125.107547 
L 221.405939 125.475106 
L 222.050865 125.528807 
L 222.220157 126.045824 
L 222.884464 126.516158 
L 223.950921 126.354152 
L 224.157249 126.135733 
L 224.224026 126.288568 
L 224.453681 126.186962 
L 224.886193 126.32039 
L 226.138225 126.305981 
L 226.66109 125.361271 
L 226.837104 125.328971 
L 228.025167 126.250286 
L 228.244609 126.230082 
L 228.973553 126.436724 
L 229.580659 126.179305 
L 230.225585 126.094208 
L 230.394878 126.195442 
L 230.706085 125.509108 
L 230.748451 125.676165 
L 232.33197 126.046834 
L 234.312946 125.723486 
L 234.793445 125.042601 
L 235.63837 124.90064 
L 238.46301 124.695726 
L 238.880806 124.498149 
L 242.968166 124.602812 
L 247.055526 124.286881 
L 253.186567 124.371021 
L 257.273927 124.256309 
L 261.361287 124.254873 
L 261.361287 124.254873 
" clip-path="url(#p5839e24ac6)" style="fill: none; stroke: #009384; stroke-width: 2.5; stroke-linecap: square"/>
   </g>
   <g id="line2d_12">
    <path d="M 69.055405 234.403883 
L 69.262998 234.757969 
L 69.424821 234.738453 
L 69.68362 234.737387 
L 69.873768 234.260136 
L 69.878514 234.413841 
L 70.487261 233.906384 
L 70.957127 233.90215 
L 71.734251 233.751063 
L 72.06367 233.971878 
L 72.398661 233.989441 
L 72.436568 233.835117 
L 72.664569 233.830562 
L 72.690781 234.049918 
L 73.142765 234.472339 
L 73.330678 234.35843 
L 73.350358 234.753411 
L 73.456158 234.707163 
L 73.573778 234.733507 
L 73.77098 234.732441 
L 73.961128 234.254592 
L 73.965874 234.417516 
L 74.423863 233.892806 
L 74.46445 234.055277 
L 74.574621 234.100908 
L 75.044487 233.852648 
L 75.821611 233.898474 
L 76.15103 234.061488 
L 76.523928 233.980069 
L 76.751929 233.530696 
L 76.778141 233.732906 
L 77.230126 233.887028 
L 77.543518 233.827496 
L 77.661138 232.994737 
L 77.833518 232.909055 
L 77.858341 233.071352 
L 78.048489 231.36966 
L 78.389389 230.790005 
L 78.661981 229.219231 
L 79.131848 228.302459 
L 80.611288 226.961432 
L 80.839289 226.160221 
L 80.865502 225.427367 
L 81.505398 224.109739 
L 82.28207 218.878489 
L 82.598583 217.101385 
L 82.749341 214.323676 
L 83.361166 212.57084 
L 83.568759 211.840281 
L 83.730582 210.794939 
L 84.127481 209.65967 
L 84.184275 208.548505 
L 84.698648 207.78658 
L 84.92665 206.81927 
L 84.952862 205.797169 
L 85.592758 204.791964 
L 86.033061 201.191839 
L 86.040012 200.234032 
L 86.564109 198.552484 
L 86.685943 197.769796 
L 86.836702 194.906213 
L 87.263181 193.811301 
L 87.448526 192.342935 
L 87.656119 191.759286 
L 87.817942 190.810692 
L 88.214841 190.058619 
L 88.271635 188.332471 
L 89.680119 188.290391 
L 89.923219 187.95237 
L 90.65147 187.814532 
L 90.791783 188.062086 
L 90.829689 187.965084 
L 90.924062 187.932715 
L 91.083902 188.069694 
L 91.350541 187.984594 
L 91.535887 187.238011 
L 91.74348 187.642041 
L 92.35425 185.893687 
L 92.358995 185.895566 
L 92.857571 186.579294 
L 93.767479 185.918251 
L 94.010579 185.146269 
L 94.182959 185.005294 
L 94.214732 185.196946 
L 94.544151 184.946722 
L 94.879143 184.907265 
L 94.917049 184.247495 
L 95.14505 183.891396 
L 95.171262 183.443315 
L 95.437901 183.604136 
L 95.623247 184.17972 
L 95.936639 184.310259 
L 95.992662 183.966722 
L 96.251462 184.390324 
L 96.446355 184.300173 
L 96.78251 184.323669 
L 96.944932 183.995964 
L 97.055102 184.082124 
L 97.524969 183.827687 
L 98.270319 183.551487 
L 98.302093 183.750059 
L 98.631511 183.252631 
L 99.004409 183.180227 
L 99.23241 182.812564 
L 99.258623 182.838528 
L 99.898519 182.446526 
L 99.9182 182.594116 
L 100.080023 182.109788 
L 100.141619 182.236796 
L 100.338822 182.641423 
L 100.52897 182.303924 
L 100.991704 182.382365 
L 101.032292 181.927366 
L 101.612329 181.717112 
L 102.577396 181.568891 
L 103.09177 181.918086 
L 103.186143 181.330219 
L 103.319771 181.750544 
L 103.345983 181.381988 
L 103.612622 182.049993 
L 103.797967 181.673013 
L 103.98588 182.186284 
L 104.00556 182.74744 
L 104.426182 181.169599 
L 104.433133 180.570832 
L 104.564282 180.237391 
L 104.61633 180.30848 
L 105.119652 175.682429 
L 105.699689 175.474327 
L 107.17913 172.699414 
L 107.273503 172.78 
L 107.407131 172.129666 
L 107.433343 170.349328 
L 107.885328 170.487047 
L 108.07324 169.919581 
L 108.19872 170.030811 
L 108.48872 169.389888 
L 108.520493 168.145577 
L 108.849912 166.198727 
L 109.743662 165.962078 
L 109.78705 165.730743 
L 110.136601 165.929404 
L 110.298423 165.689403 
L 110.695322 165.628734 
L 110.752116 165.271801 
L 111.360863 164.017824 
L 112.4037 163.882966 
L 112.57608 163.100312 
L 112.607853 163.647519 
L 113.272264 163.957197 
L 113.31017 163.868333 
L 113.538171 163.646973 
L 113.564384 162.932439 
L 113.831023 162.785793 
L 113.87441 162.548447 
L 114.016368 163.126154 
L 114.223961 162.798158 
L 114.32976 162.85846 
L 114.385784 162.607252 
L 114.839477 162.457692 
L 114.980952 162.105282 
L 115.175631 162.262376 
L 115.448223 161.769016 
L 116.24796 162.226069 
L 116.49106 161.541042 
L 116.695214 161.497857 
L 117.359624 161.694854 
L 117.397531 161.524371 
L 117.625532 161.356567 
L 117.651744 160.511375 
L 117.918383 160.355069 
L 118.103728 160.669991 
L 118.417121 160.186726 
L 118.473144 160.602457 
L 118.731943 160.084946 
L 118.926837 160.742027 
L 119.262992 158.678642 
L 119.384826 159.138661 
L 119.425413 158.769344 
L 120.00545 159.759914 
L 120.355001 158.980221 
L 121.484891 158.760778 
L 121.579264 158.877564 
L 121.739104 157.010683 
L 122.504481 158.924128 
L 122.622101 157.9958 
L 122.819304 158.589259 
L 122.826254 158.299074 
L 123.155673 157.091041 
L 123.472186 157.826 
L 123.490665 157.637708 
L 123.512773 157.102713 
L 123.756572 156.884583 
L 124.442362 155.784174 
L 125.001083 155.995084 
L 125.057877 155.804926 
L 125.394032 156.654739 
L 125.666624 156.686005 
L 126.466361 156.345513 
L 126.881841 155.621491 
L 126.906664 156.084358 
L 126.913614 155.634158 
L 127.559546 154.660592 
L 127.578025 154.848033 
L 127.615931 154.137489 
L 127.843932 154.252185 
L 127.870145 153.368481 
L 128.136784 152.854172 
L 128.180171 152.030029 
L 128.691545 150.822813 
L 129.088444 150.737755 
L 129.140492 150.977071 
L 129.145237 151.575728 
L 129.481392 151.538161 
L 129.753984 151.014166 
L 130.796821 151.069794 
L 130.969202 151.56844 
L 130.994024 152.10824 
L 131.000975 151.19936 
L 131.665385 151.010737 
L 131.703291 150.115718 
L 131.931293 150.19269 
L 131.957505 149.637323 
L 132.224144 149.052291 
L 132.267531 149.599021 
L 132.409489 149.052448 
L 132.722881 149.312319 
L 132.778905 149.757794 
L 133.175804 150.153679 
L 133.374074 151.260029 
L 133.690586 152.2856 
L 133.841345 151.816288 
L 134.641082 152.266266 
L 134.660762 151.414011 
L 134.884181 151.774986 
L 135.056562 151.667456 
L 135.612433 151.471092 
L 135.790652 150.004372 
L 136.018653 150.723054 
L 136.044865 150.099694 
L 136.311504 148.930128 
L 136.496849 149.568347 
L 136.810242 149.456991 
L 136.866265 150.288637 
L 137.125065 150.489676 
L 137.132015 148.929354 
L 137.263164 150.151581 
L 137.315213 150.011788 
L 137.319958 149.558889 
L 137.777947 149.85147 
L 137.818534 147.905155 
L 138.398572 147.641897 
L 138.728442 147.66156 
L 138.748123 146.985039 
L 139.699793 146.965429 
L 139.972385 146.532922 
L 140.398864 144.703918 
L 140.58421 144.712109 
L 141.015222 144.985894 
L 141.187602 144.680553 
L 141.212425 145.530925 
L 141.219375 144.666936 
L 141.350524 144.604928 
L 141.402573 145.160138 
L 141.548794 145.252913 
L 141.865307 145.285125 
L 141.883786 145.068806 
L 142.835483 144.003475 
L 142.997306 144.467117 
L 143.450998 144.836697 
L 144.059745 144.451471 
L 144.67157 144.677844 
L 144.984962 145.641513 
L 145.102582 146.365735 
L 145.274962 146.566433 
L 145.299785 146.833603 
L 145.306736 146.472739 
L 145.952667 146.648154 
L 145.971146 146.094546 
L 146.009052 146.36014 
L 146.237054 146.424301 
L 146.263266 146.296688 
L 146.529905 145.890854 
L 146.573292 145.923504 
L 146.922843 145.735275 
L 147.084666 147.272488 
L 147.481565 147.898453 
L 147.538359 149.52045 
L 147.679834 149.881682 
L 147.874513 150.872784 
L 148.036935 150.045575 
L 148.147106 150.574608 
L 149.072323 150.837157 
L 149.189942 151.03187 
L 149.387145 150.645227 
L 150.058506 149.938043 
L 150.096413 149.114115 
L 150.324414 149.953033 
L 150.350626 149.435364 
L 150.617265 148.427683 
L 150.660652 149.442334 
L 150.80261 148.356718 
L 151.172026 148.63431 
L 151.437776 147.530007 
L 151.767195 149.859349 
L 152.083708 150.118695 
L 152.234466 148.933171 
L 153.034203 148.79028 
L 153.053883 149.646262 
L 153.277303 149.618828 
L 153.449683 149.722577 
L 154.005554 149.691862 
L 154.183773 148.817608 
L 154.411774 148.672381 
L 154.437986 148.764369 
L 154.704625 149.189892 
L 154.748013 149.679035 
L 154.889971 148.871462 
L 155.259386 150.19123 
L 155.518186 151.523231 
L 155.525136 150.884986 
L 155.656285 150.705735 
L 155.713079 153.360098 
L 155.854555 153.194683 
L 156.171068 153.338493 
L 156.189547 152.525722 
L 157.121563 152.522309 
L 157.141244 151.750012 
L 157.364663 153.031908 
L 157.537043 153.273245 
L 158.092914 153.211051 
L 158.365506 152.292772 
L 159.290723 152.536315 
L 159.743646 153.808506 
L 159.795694 153.713236 
L 160.258428 153.931314 
L 160.276907 154.474894 
L 160.542814 154.818817 
L 160.569027 155.585777 
L 160.879053 155.40524 
L 161.228604 154.39689 
L 161.390427 154.330472 
L 161.84412 154.686172 
L 162.180274 155.628209 
L 162.342696 155.081741 
L 162.452867 155.740332 
L 163.252604 156.590751 
L 163.378083 156.316964 
L 163.495703 156.518319 
L 163.692906 155.778619 
L 164.345788 155.57813 
L 164.364267 154.676758 
L 164.402174 155.011816 
L 164.630175 154.890163 
L 164.656387 155.3883 
L 165.108371 154.202487 
L 165.874686 153.823404 
L 166.072956 155.872394 
L 166.430056 155.646493 
L 166.540227 156.284161 
L 167.339964 156.264367 
L 167.359644 156.887885 
L 167.583064 156.713596 
L 167.780266 158.404348 
L 168.311315 158.332889 
L 168.489534 158.454264 
L 168.717535 159.039848 
L 168.743747 158.767795 
L 169.053774 159.918622 
L 169.195732 159.224853 
L 169.509124 159.403998 
L 169.565147 159.816884 
L 169.830897 160.031522 
L 169.962046 159.877868 
L 170.01884 161.261203 
L 170.476829 162.147165 
L 170.495308 161.26639 
L 170.517416 161.820418 
L 171.427324 161.677868 
L 171.447005 161.413232 
L 171.670424 161.225442 
L 171.867627 162.199753 
L 172.398675 161.904901 
L 172.576894 161.247615 
L 172.671267 161.961477 
L 172.804895 162.045616 
L 172.831108 163.33188 
L 173.596484 163.848026 
L 173.652508 163.602859 
L 174.049407 163.727615 
L 174.101455 163.568739 
L 174.1062 164.444594 
L 174.247676 165.524074 
L 174.582668 166.016987 
L 175.141427 165.69453 
L 175.326772 164.683156 
L 175.930164 165.532158 
L 175.961938 165.111202 
L 176.648457 165.863453 
L 176.758627 166.638421 
L 177.998667 167.234768 
L 178.188815 167.960483 
L 178.193561 167.942151 
L 178.651549 168.270278 
L 178.707935 168.7825 
L 179.228787 168.077308 
L 179.272174 168.225266 
L 179.414132 167.751806 
L 179.621725 167.758317 
L 179.783548 168.370651 
L 180.049298 168.144567 
L 180.180447 168.26895 
L 180.378717 169.234341 
L 180.845988 169.980877 
L 181.771205 170.298684 
L 181.888825 170.612909 
L 182.061205 170.658089 
L 182.086027 171.12849 
L 182.276176 171.312017 
L 182.73891 171.506195 
L 182.795295 171.871837 
L 183.049508 172.374379 
L 183.316147 172.327151 
L 183.359534 172.59301 
L 183.501493 172.244301 
L 184.136658 172.036948 
L 184.267807 171.792158 
L 184.466077 173.365948 
L 184.660756 173.530918 
L 184.801069 173.436746 
L 184.933348 175.072111 
L 185.733085 174.927733 
L 185.858565 175.485539 
L 186.148565 174.889379 
L 186.173388 175.186817 
L 186.82627 175.450529 
L 186.882655 175.994818 
L 187.446895 177.039362 
L 187.958268 177.02722 
L 188.224018 177.420794 
L 188.355167 177.271251 
L 188.411961 178.244898 
L 188.553437 178.009195 
L 188.888429 178.34142 
L 189.447188 178.170691 
L 189.632533 178.335172 
L 189.840126 178.188238 
L 190.063545 178.300424 
L 190.260748 178.804565 
L 190.791796 178.279638 
L 190.954218 178.348091 
L 191.064388 178.955873 
L 191.198016 179.621893 
L 191.224229 179.44369 
L 192.442528 180.002643 
L 192.494576 179.796466 
L 192.499322 179.890656 
L 192.640797 179.832665 
L 192.975789 180.349517 
L 193.534548 179.872253 
L 193.719893 179.880552 
L 193.907806 179.773758 
L 193.927486 179.413668 
L 194.150905 179.848091 
L 194.323286 179.744106 
L 194.355059 179.470137 
L 194.879156 180.013008 
L 195.041578 179.996285 
L 195.151749 181.014262 
L 196.076966 180.998248 
L 196.132989 181.126832 
L 196.391788 181.17847 
L 196.529888 181.831078 
L 196.581936 181.761641 
L 196.586682 181.180294 
L 197.044671 181.205628 
L 197.101056 181.754182 
L 197.621908 181.533527 
L 197.665295 181.033093 
L 197.995166 181.242966 
L 198.014846 182.261051 
L 198.410646 182.491084 
L 198.442419 182.339792 
L 198.771838 182.733366 
L 198.966517 182.641507 
L 199.128938 183.195435 
L 199.239109 183.020057 
L 200.281946 183.374447 
L 200.479149 183.143923 
L 200.669297 182.664738 
L 201.132031 182.633865 
L 201.15051 182.846146 
L 201.188416 182.479228 
L 201.416417 182.076083 
L 201.442629 181.788935 
L 201.752656 181.29923 
L 201.894614 181.627859 
L 202.102207 182.881403 
L 202.264029 182.867962 
L 202.717722 183.136596 
L 202.859198 182.079023 
L 203.216298 181.626423 
L 203.326469 181.88432 
L 204.126206 181.758546 
L 204.251686 181.501628 
L 204.566509 181.604954 
L 205.275776 181.701295 
L 205.503777 182.064348 
L 205.52999 182.648348 
L 205.840016 182.480278 
L 205.981974 182.728426 
L 206.35139 182.904581 
L 206.800337 182.529932 
L 206.805083 182.791037 
L 206.946558 181.530114 
L 207.28155 181.479736 
L 207.303659 182.114878 
L 208.213566 182.078267 
L 208.233247 183.140001 
L 208.629047 183.571938 
L 208.653869 183.750395 
L 209.363137 183.518512 
L 209.45751 183.715173 
L 209.591138 183.512138 
L 209.61735 183.853514 
L 210.382726 183.935763 
L 210.887697 185.331213 
L 210.892443 185.591074 
L 211.350432 185.24179 
L 211.36891 186.042666 
L 212.300927 186.728108 
L 212.320607 187.421042 
L 212.544027 187.758531 
L 212.716407 187.282905 
L 212.741229 187.722366 
L 213.077599 186.488797 
L 213.272278 186.334431 
L 213.434699 186.64006 
L 213.450497 187.092773 
L 213.54487 186.769867 
L 213.678498 186.639202 
L 213.70471 185.910969 
L 214.470087 185.795493 
L 214.52611 186.224985 
L 214.979803 185.978752 
L 215.437792 186.165469 
L 215.456271 186.358896 
L 216.015029 186.781163 
L 216.200375 187.259971 
L 216.407968 188.183167 
L 216.83554 188.612798 
L 217.164959 187.35786 
L 217.522059 187.668664 
L 217.63223 187.639164 
L 217.79207 188.579067 
L 218.431967 188.436233 
L 218.557447 187.717328 
L 218.675067 187.868228 
L 218.847447 187.626148 
L 218.87227 187.96721 
L 219.062418 188.028404 
L 219.525152 189.178162 
L 219.543631 189.126471 
L 219.581537 189.642371 
L 219.809538 189.312385 
L 220.287735 189.901126 
L 220.657151 189.978022 
L 220.922901 190.356131 
L 221.05405 189.906747 
L 221.110843 190.186725 
L 221.252319 189.336928 
L 221.446998 188.921693 
L 221.60942 189.02497 
L 221.71959 188.803196 
L 222.519327 188.265205 
L 222.644807 188.868322 
L 222.762427 189.147849 
L 222.934808 189.157903 
L 222.95963 189.493064 
L 223.612512 191.087504 
L 223.630991 191.506532 
L 223.668897 191.460843 
L 223.896899 191.278276 
L 223.923111 190.273982 
L 224.233137 189.945377 
L 224.375095 190.357685 
L 224.744511 190.524287 
L 225.198204 191.525975 
L 225.534358 191.767115 
L 225.806951 191.343752 
L 226.626368 191.03272 
L 226.849787 190.708279 
L 227.04699 190.776671 
L 227.38336 188.952167 
L 227.984259 188.375958 
L 228.010471 187.907276 
L 228.462455 187.837658 
L 228.775848 187.595559 
L 228.831871 187.694819 
L 229.065848 187.812511 
L 229.097621 189.01728 
L 229.280819 188.955535 
L 229.285564 189.068267 
L 229.762032 188.512559 
L 230.364178 188.443605 
L 230.713729 188.509446 
L 231.134351 188.812678 
L 231.47072 187.437513 
L 231.665399 187.232734 
L 232.097831 184.072994 
L 232.863208 183.319252 
L 232.919231 182.712916 
L 233.153208 183.976254 
L 233.31613 184.049401 
L 233.368179 184.250643 
L 233.372924 184.110711 
L 233.830913 183.499172 
L 233.849392 182.210833 
L 234.115299 182.305627 
L 234.40815 181.914046 
L 234.451538 182.205254 
L 234.801089 181.893548 
L 235.228661 182.542995 
L 235.55808 180.824479 
L 235.752759 180.999776 
L 235.915181 179.532428 
L 236.025351 179.579485 
L 236.950568 179.436576 
L 237.068188 179.544533 
L 237.240568 179.129813 
L 237.265391 179.826283 
L 237.403491 179.54106 
L 237.455539 180.395837 
L 237.918273 180.448625 
L 237.936752 178.823485 
L 237.974658 178.894619 
L 238.20266 178.962192 
L 238.228872 177.081883 
L 238.680856 176.079463 
L 239.050272 175.859437 
L 239.503965 175.474432 
L 239.64544 174.346062 
L 239.840119 174.484377 
L 240.002541 173.667459 
L 240.112712 174.136524 
L 240.912449 174.248726 
L 241.037928 173.18586 
L 241.155548 172.686112 
L 241.352751 172.358879 
L 242.005634 172.363692 
L 242.062019 171.945952 
L 242.29002 172.680008 
L 242.316232 171.700816 
L 242.582871 170.56577 
L 242.626258 170.86398 
L 242.768216 171.234053 
L 243.137632 171.209405 
L 243.92748 173.128612 
L 244.067793 171.346888 
L 244.999809 171.443594 
L 245.019489 170.533086 
L 245.242909 170.27144 
L 245.440112 170.701098 
L 245.776481 170.593962 
L 246.092994 170.788016 
L 246.133581 169.32049 
L 246.149379 169.542873 
L 246.37738 169.999351 
L 246.713619 169.945056 
L 246.855577 169.138906 
L 247.224992 169.487421 
L 247.458969 170.918779 
L 247.621891 170.891608 
L 247.678685 172.573193 
L 248.155153 171.626483 
L 248.447272 171.910165 
L 248.713911 170.417728 
L 249.087169 170.582957 
L 249.10685 169.587103 
L 249.330269 169.768772 
L 249.527472 170.165885 
L 249.534422 168.929058 
L 250.05852 169.212785 
L 250.331112 169.247693 
L 250.46474 169.665829 
L 251.546329 169.635071 
L 251.709252 169.838156 
L 251.7613 169.748983 
L 251.766045 171.296605 
L 251.907521 170.711798 
L 252.224034 172.386161 
L 252.280419 170.199015 
L 253.174529 166.500294 
L 253.417629 166.526982 
L 253.621783 166.760339 
L 254.14588 166.912681 
L 254.308302 165.789451 
L 254.418473 167.284762 
L 255.23789 167.163267 
L 255.343689 167.420384 
L 255.399713 167.857913 
L 255.63369 168.002875 
L 255.658512 168.340406 
L 255.796612 168.190059 
L 255.994882 170.182783 
L 256.311394 170.113015 
L 256.36778 169.18757 
L 256.595781 169.702613 
L 256.932019 169.917388 
L 257.073977 168.443596 
L 257.709143 167.865888 
L 258.233241 168.011255 
L 258.373554 166.527316 
L 258.505833 167.218124 
L 258.665673 165.426967 
L 258.932312 165.165468 
L 259.30557 166.275066 
L 259.43105 164.801688 
L 259.54867 164.922574 
L 259.72105 165.684581 
L 259.745872 165.608814 
L 259.936021 165.793838 
L 260.082242 166.377969 
L 260.398755 166.45796 
L 260.439342 166.194597 
L 260.45514 164.938969 
L 260.683141 166.184695 
L 261.019379 166.078139 
L 261.161338 164.575288 
L 261.530753 164.929334 
L 261.796503 163.780065 
L 261.984446 166.043381 
L 262.320601 166.005641 
L 262.460914 164.533859 
L 263.019672 163.098524 
L 263.39293 162.977175 
L 263.51841 161.710337 
L 263.63603 161.795534 
L 263.833233 161.65442 
L 264.169602 161.868022 
L 264.5425 162.914708 
L 264.636873 162.837587 
L 264.770501 164.09249 
L 265.618113 163.493799 
L 265.85209 164.873086 
L 266.015013 164.763231 
L 266.067061 165.870578 
L 266.071806 165.675062 
L 266.407961 165.455997 
L 266.548274 164.487821 
L 267.48029 160.774905 
L 267.499971 159.579878 
L 267.72339 160.221912 
L 267.920593 160.261587 
L 267.927544 160.082651 
L 268.256962 161.79708 
L 268.724233 163.108266 
L 268.857862 163.993146 
L 269.64945 164.101421 
L 269.705474 165.301326 
L 270.102373 165.879473 
L 270.159167 167.846299 
L 270.617155 169.289912 
L 270.673541 167.937413 
L 271.23778 166.263948 
L 271.379738 164.992928 
L 271.567651 164.977982 
L 271.81075 165.148824 
L 272.014904 163.790096 
L 272.539002 164.278792 
L 272.679314 163.734294 
L 272.945222 164.969043 
L 272.971434 163.975431 
L 273.631011 164.20401 
L 273.792834 165.190518 
L 274.051633 166.646063 
L 274.189733 166.418185 
L 274.246527 169.317576 
L 274.704516 169.470186 
L 274.745103 169.895788 
L 274.760901 168.67422 
L 275.32514 168.777504 
L 275.467099 167.284923 
L 275.898111 167.478625 
L 276.070491 166.940028 
L 276.431683 167.486249 
L 276.766675 169.577059 
L 276.898954 169.333908 
L 277.058794 168.790263 
L 277.325433 169.411917 
L 277.718372 168.759592 
L 277.824171 169.836804 
L 278.138994 170.076202 
L 278.145944 168.419722 
L 278.277093 168.492383 
L 278.329142 169.945744 
L 278.791876 170.737785 
L 278.832463 171.708253 
L 278.848261 170.680424 
L 279.076262 171.950066 
L 279.923874 172.354288 
L 280.157851 172.687786 
L 280.377567 172.371255 
L 280.713722 172.409431 
L 280.854035 172.853908 
L 281.146155 174.307846 
L 281.412793 173.614933 
L 281.598139 172.200993 
L 282.029151 172.629008 
L 282.226354 172.978562 
L 282.233305 172.457008 
L 282.879236 172.635634 
L 283.499861 176.370223 
L 284.011235 177.000443 
L 284.245212 177.940324 
L 284.460182 178.045649 
L 284.464928 179.554168 
L 284.941395 179.601598 
L 284.979301 178.041173 
L 285.233515 177.999757 
L 285.500154 177.403667 
L 285.685499 176.419556 
L 285.873412 176.195167 
L 286.116511 176.236677 
L 286.313714 175.978717 
L 286.320665 175.148883 
L 286.844762 176.323675 
L 287.117355 179.525645 
L 287.250983 179.522526 
L 288.098595 180.414938 
L 288.332572 180.590141 
L 288.495494 181.69565 
L 288.552288 181.48287 
L 289.028756 182.579801 
L 289.050864 182.971144 
L 289.066662 181.98453 
L 289.587514 182.53869 
L 289.630901 183.75112 
L 289.772859 183.218721 
L 289.960772 182.989481 
L 290.203872 183.196273 
L 290.408025 182.615496 
L 291.338343 182.941788 
L 291.364555 184.238189 
L 292.024133 185.249112 
L 292.129932 185.181756 
L 292.185955 186.841433 
L 292.444755 186.59552 
L 292.582854 186.69713 
L 292.634903 186.326731 
L 292.639648 186.764656 
L 293.097637 187.466007 
L 293.154022 189.586606 
L 293.718262 190.179135 
L 293.86022 189.553908 
L 294.048132 189.28953 
L 294.291232 190.59086 
L 295.019483 190.749671 
L 295.292075 191.042169 
L 296.111493 193.869623 
L 296.532115 193.745411 
L 296.539065 193.374676 
L 296.722263 192.952035 
L 296.727008 193.238855 
L 297.184997 193.733831 
L 297.225585 194.241419 
L 297.805622 196.3986 
L 299.106843 196.145334 
L 299.247156 196.487913 
L 299.285062 197.309355 
L 299.805915 198.35676 
L 299.99126 197.793867 
L 300.179172 198.037751 
L 300.304652 199.531429 
L 300.619475 200.007344 
L 300.626426 200.523524 
L 300.757575 200.299329 
L 301.312945 200.259772 
L 301.556744 202.304227 
L 301.892982 202.823594 
L 302.638333 204.125791 
L 303.194204 204.117981 
L 303.334516 205.450649 
L 303.372423 204.989368 
L 304.266533 206.6753 
L 304.286213 207.252989 
L 304.392013 207.194373 
L 304.509633 207.627501 
L 304.706835 207.611713 
L 304.713786 208.055897 
L 305.400305 207.532542 
L 305.510476 208.572578 
L 306.491716 208.963735 
L 306.725693 209.229442 
L 306.940664 210.01732 
L 306.945409 209.897594 
L 307.421877 211.03143 
L 307.459783 210.848312 
L 307.687784 210.658585 
L 307.713996 211.193118 
L 307.980635 211.211274 
L 308.165981 212.151649 
L 308.353893 212.155902 
L 308.794196 212.576784 
L 308.801146 213.079418 
L 309.597836 213.135941 
L 310.417254 213.232353 
L 310.523053 212.856804 
L 310.579076 213.596795 
L 310.813053 213.916375 
L 311.032769 215.029269 
L 311.547143 215.456945 
L 311.775144 215.209418 
L 312.067995 215.227574 
L 312.111383 214.808837 
L 312.441253 215.310914 
L 312.684353 215.52723 
L 312.888506 216.428329 
L 313.412604 216.68336 
L 314.666437 217.49005 
L 314.900414 216.904737 
L 314.925236 217.193276 
L 315.063336 217.13492 
L 315.12013 217.533713 
L 315.634503 217.87074 
L 315.728877 217.691605 
L 315.862505 217.12628 
L 316.155356 217.123708 
L 316.340701 218.31926 
L 316.528613 217.732367 
L 316.771713 217.897076 
L 317.499964 217.981582 
L 318.591974 218.46512 
L 318.697774 218.051831 
L 319.012596 218.41196 
L 319.019547 218.847335 
L 319.202744 218.486899 
L 319.20749 218.657896 
L 319.665479 218.622101 
L 319.721864 219.155692 
L 319.816237 219.011609 
L 319.949865 218.7694 
L 320.286103 218.742956 
L 320.428061 219.141135 
L 320.797477 219.358745 
L 321.031454 218.900935 
L 321.194376 219.313933 
L 321.587325 218.994545 
L 322.902754 218.258203 
L 323.099957 217.821863 
L 323.290105 217.895391 
L 323.752839 217.948344 
L 323.809224 218.345079 
L 323.903597 217.904766 
L 324.515422 217.937667 
L 325.118814 218.060914 
L 325.281736 217.909866 
L 325.33853 217.974744 
L 325.674685 218.030136 
L 326.080905 217.913481 
L 326.747014 217.435753 
L 326.990114 217.451441 
L 327.187317 217.844047 
L 327.896584 217.361986 
L 328.916174 217.277365 
L 328.972198 216.851821 
L 329.369097 216.905656 
L 329.425891 216.214993 
L 330.168266 216.225305 
L 330.504504 216.061861 
L 330.834374 215.531184 
L 331.077474 215.566593 
L 331.805725 215.273027 
L 333.003534 215.442036 
L 333.059558 215.33274 
L 333.293535 215.316955 
L 333.456457 215.028673 
L 333.513251 215.331207 
L 333.97124 215.010914 
L 334.121998 215.13694 
L 334.255626 214.80434 
L 334.921735 214.77285 
L 335.552185 214.377393 
L 335.893086 214.310193 
L 337.208515 213.663518 
L 337.380895 213.781632 
L 337.405718 213.989561 
L 337.600611 213.940445 
L 338.342986 214.197644 
L 339.190598 213.551431 
L 339.587497 213.858877 
L 339.639546 214.058347 
L 339.980446 213.718078 
L 341.052775 213.766852 
L 341.178255 213.460837 
L 341.295875 213.628883 
L 341.687971 213.74542 
L 342.296718 213.261903 
L 342.430346 213.199299 
L 342.766585 212.734956 
L 343.277959 212.740096 
L 343.674858 212.449452 
L 343.726906 212.152269 
L 345.140135 212.358714 
L 345.383235 212.703472 
L 345.580438 212.497557 
L 346.111486 212.345619 
L 346.384078 212.506569 
L 346.853945 212.484468 
L 347.365319 212.781824 
L 347.814266 212.656465 
L 347.819012 212.793407 
L 348.561387 212.628128 
L 349.227496 212.355695 
L 349.667798 212.701687 
L 350.198847 212.277534 
L 350.320681 212.336013 
L 351.396656 212.400216 
L 351.452679 212.634321 
L 351.849578 212.72062 
L 351.906372 213.274262 
L 352.515119 213.421952 
L 352.648747 213.273818 
L 352.984985 213.516539 
L 353.314856 212.990346 
L 353.755159 213.485092 
L 354.286207 213.375564 
L 354.408041 213.524956 
L 355.936938 213.704873 
L 355.993732 214.001209 
L 357.072346 214.197479 
L 357.402216 214.365858 
L 357.645316 214.235944 
L 358.373567 214.655807 
L 359.571376 214.468702 
L 359.6274 214.256284 
L 359.861376 214.287138 
L 359.886199 214.171502 
L 360.081093 214.361511 
L 360.539081 214.310413 
L 360.823467 214.465669 
L 361.159706 214.341134 
L 362.067979 214.622372 
L 362.120027 214.450632 
L 363.973559 214.403394 
L 364.504608 214.889176 
L 364.7772 215.061554 
L 365.247066 214.965324 
L 366.207387 215.038767 
L 368.255813 215.011029 
L 368.713802 215.149862 
L 368.86456 215.320126 
L 369.334427 215.455349 
L 369.8458 215.331254 
L 370.294748 215.487529 
L 371.041868 215.348817 
L 371.833457 215.523214 
L 371.951077 215.735568 
L 372.14828 215.810309 
L 372.679328 215.840769 
L 372.95192 216.326481 
L 373.933161 216.366211 
L 374.167137 216.200181 
L 374.386853 216.531524 
L 376.038437 216.666653 
L 376.23564 216.840871 
L 376.888522 217.181371 
L 378.469468 217.09798 
L 378.474214 217.509272 
L 379.082961 217.428153 
L 379.216589 217.171854 
L 379.552827 217.341368 
L 380.125797 217.400102 
L 380.323 217.696052 
L 382.556829 218.204693 
L 382.561574 218.498962 
L 384.54846 218.944815 
L 384.941409 219.13249 
L 385.347629 219.040397 
L 386.013738 219.078605 
L 386.139218 218.902121 
L 386.195241 219.040513 
L 386.429218 218.977137 
L 386.454041 219.148861 
L 386.648934 219.487043 
L 387.257681 219.675122 
L 387.727548 219.894337 
L 388.687869 220.050307 
L 389.028769 220.284364 
L 390.282602 220.031765 
L 390.344198 220.050099 
L 390.736295 220.578563 
L 391.345041 220.412404 
L 393.52235 220.662717 
L 393.858588 220.475394 
L 394.313938 220.485661 
L 394.431558 220.319175 
L 394.628761 220.642495 
L 395.281643 220.626426 
L 395.432402 220.736006 
L 396.862589 220.910604 
L 396.867335 220.9657 
L 397.945948 220.962434 
L 398.401299 221.098573 
L 398.518919 220.877976 
L 398.716122 221.124899 
L 400.734979 221.051994 
L 400.954695 221.281499 
L 401.69707 221.244607 
L 402.033309 221.07576 
L 402.606279 220.512137 
L 403.33453 220.380668 
L 403.456364 219.834592 
L 403.607122 220.099569 
L 404.406859 220.159871 
L 404.588363 219.195627 
L 404.822339 219.201922 
L 404.847162 219.537941 
L 405.042055 219.665141 
L 405.78443 219.498809 
L 406.120669 218.780216 
L 407.08099 217.131851 
L 407.42189 216.291938 
L 407.543724 215.505777 
L 408.494219 215.495812 
L 408.675723 213.831349 
L 408.9097 213.805372 
L 408.934522 213.946767 
L 409.072622 213.871147 
L 409.129416 214.133967 
L 409.738163 214.062839 
L 409.871791 214.190887 
L 410.208029 213.29796 
L 411.16835 212.45642 
L 411.509251 211.483883 
L 412.58158 211.616029 
L 412.99706 209.345747 
L 413.021882 209.561504 
L 413.216776 209.031652 
L 413.674765 208.553501 
L 413.825523 208.559436 
L 414.295389 208.141637 
L 415.203662 208.089696 
L 415.255711 207.733897 
L 416.66894 207.487041 
L 416.91204 203.440583 
L 417.109243 203.695382 
L 417.640291 201.744872 
L 417.762125 200.393231 
L 417.912883 200.302973 
L 419.1281 200.254987 
L 419.291022 200.489892 
L 419.343071 198.764387 
L 420.090191 198.793354 
L 420.42643 197.159168 
L 420.7563 197.084551 
L 420.9994 195.064548 
L 421.196603 195.202651 
L 421.727651 194.446252 
L 422.000243 191.768338 
L 422.92546 189.787583 
L 422.981484 188.367683 
L 423.215461 187.636329 
L 423.378383 187.655139 
L 423.435177 186.90001 
L 424.177552 186.592496 
L 424.51379 184.598995 
L 424.843661 184.615686 
L 425.08676 182.292895 
L 425.283963 182.441638 
L 425.474111 180.525938 
L 425.815011 178.816116 
L 426.087604 178.097416 
L 427.012821 176.159393 
L 427.068844 174.382103 
L 427.465743 172.671022 
L 427.522537 171.070263 
L 428.264912 168.841762 
L 428.931021 168.714097 
L 429.371324 168.797164 
L 429.561472 166.66336 
L 431.100181 160.416181 
L 431.217801 156.43491 
L 432.067886 153.421158 
L 433.458684 154.211334 
L 433.648832 152.056625 
L 435.062061 150.900186 
L 435.305161 149.88317 
L 435.640464 149.154464 
L 436.155246 145.595317 
L 436.306004 143.896755 
L 437.231221 142.719962 
L 437.287245 141.853742 
L 437.521222 141.277951 
L 437.740938 140.317563 
L 438.483313 139.195486 
L 438.819551 138.451942 
L 439.149421 138.984223 
L 439.779872 135.884973 
L 440.120772 134.97163 
L 440.393365 131.856254 
L 441.318582 130.603416 
L 441.374605 129.160446 
L 441.771504 126.149664 
L 441.828298 124.66725 
L 442.570673 124.746611 
L 443.236782 124.282339 
L 443.677084 125.394034 
L 443.867233 123.394188 
L 444.208133 122.614206 
L 444.480725 121.618746 
L 444.950591 121.017831 
L 445.405942 119.096941 
L 445.523562 115.539736 
L 445.695942 115.156873 
L 445.858864 113.25437 
L 445.915658 113.894952 
L 446.373647 112.049719 
L 446.658033 112.285359 
L 447.764445 111.00288 
L 447.954593 109.783934 
L 449.037952 109.61164 
L 449.367822 108.40183 
L 449.610922 108.332787 
L 449.783302 107.890383 
L 449.946224 106.526656 
L 450.339173 104.636893 
L 450.611765 102.292475 
L 451.536982 102.451984 
L 451.593006 100.573137 
L 452.041953 100.618423 
L 452.046698 98.763667 
L 452.789073 98.720771 
L 453.125312 98.567694 
L 453.455182 97.407947 
L 453.895485 97.58179 
L 454.426533 96.41078 
L 454.548367 95.283114 
L 454.699126 95.617463 
L 455.624342 96.408024 
L 455.680366 95.096486 
L 455.914343 94.508566 
L 456.077265 92.248867 
L 456.134059 92.476133 
L 456.876434 92.75929 
L 457.542543 91.826442 
L 458.513894 92.048063 
L 458.786486 91.958228 
L 459.256352 91.650158 
L 459.711703 91.552709 
L 459.829323 92.354113 
L 460.164625 90.420047 
L 460.679408 91.626418 
L 460.963794 91.718012 
L 462.070206 90.545821 
L 462.260354 90.801755 
L 462.265099 89.114836 
L 463.673583 90.577219 
L 463.916683 92.341294 
L 464.089063 91.861139 
L 464.251985 92.194622 
L 464.644934 92.443021 
L 464.766768 92.863583 
L 464.917526 91.272259 
L 465.051154 91.05867 
L 466.347714 90.667406 
L 466.352459 90.495217 
L 467.431073 90.936335 
L 467.760943 90.791054 
L 468.201246 92.466711 
L 468.732294 93.102883 
L 468.854128 93.808518 
L 469.004886 93.492992 
L 469.930103 94.04366 
L 469.986127 94.420642 
L 470.220104 93.697339 
L 470.383026 92.135208 
L 471.182195 92.204199 
L 471.848304 91.647283 
L 472.091403 92.98762 
L 472.288606 93.411673 
L 472.478754 94.567876 
L 472.4835 95.480142 
L 473.562113 98.289609 
L 474.017464 99.357297 
L 474.073487 100.276915 
L 474.307464 100.401639 
L 474.470386 99.482993 
L 474.985169 100.483231 
L 475.269555 100.507042 
L 476.375967 100.971392 
L 476.566115 102.693899 
L 476.57086 103.972884 
L 476.907015 105.147516 
L 478.104824 108.581377 
L 478.222444 111.970794 
L 478.394824 113.022591 
L 478.557746 112.693913 
L 479.072529 114.123927 
L 479.356915 115.26115 
L 480.463327 115.204392 
L 480.653475 116.96905 
L 480.65822 118.295656 
L 480.994375 120.10484 
L 481.736834 121.446707 
L 482.066704 120.970911 
L 482.309804 126.677836 
L 483.159889 128.295006 
L 483.310647 129.009146 
L 484.525865 130.088456 
L 484.688787 131.237204 
L 484.745581 135.097715 
L 485.487956 135.932642 
L 485.824194 136.972739 
L 486.154065 137.171101 
L 486.335568 140.070582 
L 486.397164 141.897594 
L 486.594367 141.714116 
L 487.125415 142.588619 
L 487.398008 145.311304 
L 488.613225 145.215115 
L 488.828195 147.417708 
L 488.832941 148.518259 
L 489.575316 148.757706 
L 489.911554 149.979104 
L 490.241425 149.631025 
L 490.484525 153.327133 
L 490.681728 153.44918 
L 491.212776 154.47016 
L 491.485368 158.153702 
L 492.466608 159.234962 
L 492.700585 160.18555 
L 492.863507 160.310878 
L 492.915556 162.069041 
L 493.662676 162.233406 
L 493.998915 163.319536 
L 494.328785 163.242014 
L 494.963981 166.836072 
L 495.300136 167.966692 
L 495.572728 172.075061 
L 496.497945 173.802834 
L 496.553969 175.879691 
L 496.787945 176.77843 
L 497.002916 179.008506 
L 497.750036 178.908275 
L 499.051342 182.402377 
L 499.387496 182.487046 
L 500.459825 183.080269 
L 500.900128 186.968101 
L 501.55301 189.044908 
L 501.703769 190.883678 
L 504.547186 194.559021 
L 505.640371 194.710893 
L 505.791129 195.145962 
L 507.169268 196.269221 
L 507.226062 198.503965 
L 507.968437 199.101055 
L 508.634546 200.125088 
L 509.050026 201.827194 
L 509.074849 203.993561 
L 509.878489 204.046381 
L 511.256628 204.880156 
L 512.721906 204.979156 
L 513.162209 206.922591 
L 515.343989 206.951975 
L 516.143158 207.333161 
L 516.809267 208.456638 
L 517.249569 209.635391 
L 519.431349 210.46976 
L 520.896627 210.476717 
L 521.33693 211.724493 
L 525.42429 211.920156 
L 525.42429 211.920156 
" clip-path="url(#p5839e24ac6)" style="fill: none; stroke: #b85741; stroke-width: 2.5; stroke-linecap: square"/>
   </g>
   <g id="patch_3">
    <path d="M 46.051562 244.837969 
L 46.051562 23.077969 
" style="fill: none; stroke: #000000; stroke-width: 0.8; stroke-linejoin: miter; stroke-linecap: square"/>
   </g>
   <g id="patch_4">
    <path d="M 548.251563 244.837969 
L 548.251563 23.077969 
" style="fill: none; stroke: #000000; stroke-width: 0.8; stroke-linejoin: miter; stroke-linecap: square"/>
   </g>
   <g id="patch_5">
    <path d="M 46.051562 244.837969 
L 548.251563 244.837969 
" style="fill: none; stroke: #000000; stroke-width: 0.8; stroke-linejoin: miter; stroke-linecap: square"/>
   </g>
   <g id="patch_6">
    <path d="M 46.051562 23.077969 
L 548.251563 23.077969 
" style="fill: none; stroke: #000000; stroke-width: 0.8; stroke-linejoin: miter; stroke-linecap: square"/>
   </g>
   <g id="text_13">
    <!-- Create Many Type-1 VMs (RAM) -->
    <g transform="translate(195.502734 17.077969) scale(0.13 -0.13)">
     <defs>
      <path id="DejaVuSans-43" d="M 4122 4306 
L 4122 3641 
Q 3803 3938 3442 4084 
Q 3081 4231 2675 4231 
Q 1875 4231 1450 3742 
Q 1025 3253 1025 2328 
Q 1025 1406 1450 917 
Q 1875 428 2675 428 
Q 3081 428 3442 575 
Q 3803 722 4122 1019 
L 4122 359 
Q 3791 134 3420 21 
Q 3050 -91 2638 -91 
Q 1578 -91 968 557 
Q 359 1206 359 2328 
Q 359 3453 968 4101 
Q 1578 4750 2638 4750 
Q 3056 4750 3426 4639 
Q 3797 4528 4122 4306 
z
" transform="scale(0.015625)"/>
      <path id="DejaVuSans-72" d="M 2631 2963 
Q 2534 3019 2420 3045 
Q 2306 3072 2169 3072 
Q 1681 3072 1420 2755 
Q 1159 2438 1159 1844 
L 1159 0 
L 581 0 
L 581 3500 
L 1159 3500 
L 1159 2956 
Q 1341 3275 1631 3429 
Q 1922 3584 2338 3584 
Q 2397 3584 2469 3576 
Q 2541 3569 2628 3553 
L 2631 2963 
z
" transform="scale(0.015625)"/>
      <path id="DejaVuSans-4d" d="M 628 4666 
L 1569 4666 
L 2759 1491 
L 3956 4666 
L 4897 4666 
L 4897 0 
L 4281 0 
L 4281 4097 
L 3078 897 
L 2444 897 
L 1241 4097 
L 1241 0 
L 628 0 
L 628 4666 
z
" transform="scale(0.015625)"/>
      <path id="DejaVuSans-79" d="M 2059 -325 
Q 1816 -950 1584 -1140 
Q 1353 -1331 966 -1331 
L 506 -1331 
L 506 -850 
L 844 -850 
Q 1081 -850 1212 -737 
Q 1344 -625 1503 -206 
L 1606 56 
L 191 3500 
L 800 3500 
L 1894 763 
L 2988 3500 
L 3597 3500 
L 2059 -325 
z
" transform="scale(0.015625)"/>
      <path id="DejaVuSans-70" d="M 1159 525 
L 1159 -1331 
L 581 -1331 
L 581 3500 
L 1159 3500 
L 1159 2969 
Q 1341 3281 1617 3432 
Q 1894 3584 2278 3584 
Q 2916 3584 3314 3078 
Q 3713 2572 3713 1747 
Q 3713 922 3314 415 
Q 2916 -91 2278 -91 
Q 1894 -91 1617 61 
Q 1341 213 1159 525 
z
M 3116 1747 
Q 3116 2381 2855 2742 
Q 2594 3103 2138 3103 
Q 1681 3103 1420 2742 
Q 1159 2381 1159 1747 
Q 1159 1113 1420 752 
Q 1681 391 2138 391 
Q 2594 391 2855 752 
Q 3116 1113 3116 1747 
z
" transform="scale(0.015625)"/>
      <path id="DejaVuSans-2d" d="M 313 2009 
L 1997 2009 
L 1997 1497 
L 313 1497 
L 313 2009 
z
" transform="scale(0.015625)"/>
      <path id="DejaVuSans-56" d="M 1831 0 
L 50 4666 
L 709 4666 
L 2188 738 
L 3669 4666 
L 4325 4666 
L 2547 0 
L 1831 0 
z
" transform="scale(0.015625)"/>
      <path id="DejaVuSans-52" d="M 2841 2188 
Q 3044 2119 3236 1894 
Q 3428 1669 3622 1275 
L 4263 0 
L 3584 0 
L 2988 1197 
Q 2756 1666 2539 1819 
Q 2322 1972 1947 1972 
L 1259 1972 
L 1259 0 
L 628 0 
L 628 4666 
L 2053 4666 
Q 2853 4666 3247 4331 
Q 3641 3997 3641 3322 
Q 3641 2881 3436 2590 
Q 3231 2300 2841 2188 
z
M 1259 4147 
L 1259 2491 
L 2053 2491 
Q 2509 2491 2742 2702 
Q 2975 2913 2975 3322 
Q 2975 3731 2742 3939 
Q 2509 4147 2053 4147 
L 1259 4147 
z
" transform="scale(0.015625)"/>
      <path id="DejaVuSans-41" d="M 2188 4044 
L 1331 1722 
L 3047 1722 
L 2188 4044 
z
M 1831 4666 
L 2547 4666 
L 4325 0 
L 3669 0 
L 3244 1197 
L 1141 1197 
L 716 0 
L 50 0 
L 1831 4666 
z
" transform="scale(0.015625)"/>
     </defs>
     <use xlink:href="#DejaVuSans-43"/>
     <use xlink:href="#DejaVuSans-72" x="69.824219"/>
     <use xlink:href="#DejaVuSans-65" x="108.6875"/>
     <use xlink:href="#DejaVuSans-61" x="170.210938"/>
     <use xlink:href="#DejaVuSans-74" x="231.490234"/>
     <use xlink:href="#DejaVuSans-65" x="270.699219"/>
     <use xlink:href="#DejaVuSans-20" x="332.222656"/>
     <use xlink:href="#DejaVuSans-4d" x="364.009766"/>
     <use xlink:href="#DejaVuSans-61" x="450.289062"/>
     <use xlink:href="#DejaVuSans-6e" x="511.568359"/>
     <use xlink:href="#DejaVuSans-79" x="574.947266"/>
     <use xlink:href="#DejaVuSans-20" x="634.126953"/>
     <use xlink:href="#DejaVuSans-54" x="665.914062"/>
     <use xlink:href="#DejaVuSans-79" x="711.373047"/>
     <use xlink:href="#DejaVuSans-70" x="770.552734"/>
     <use xlink:href="#DejaVuSans-65" x="834.029297"/>
     <use xlink:href="#DejaVuSans-2d" x="895.552734"/>
     <use xlink:href="#DejaVuSans-31" x="931.636719"/>
     <use xlink:href="#DejaVuSans-20" x="995.259766"/>
     <use xlink:href="#DejaVuSans-56" x="1027.046875"/>
     <use xlink:href="#DejaVuSans-4d" x="1095.455078"/>
     <use xlink:href="#DejaVuSans-73" x="1181.734375"/>
     <use xlink:href="#DejaVuSans-20" x="1233.833984"/>
     <use xlink:href="#DejaVuSans-28" x="1265.621094"/>
     <use xlink:href="#DejaVuSans-52" x="1304.634766"/>
     <use xlink:href="#DejaVuSans-41" x="1370.117188"/>
     <use xlink:href="#DejaVuSans-4d" x="1438.525391"/>
     <use xlink:href="#DejaVuSans-29" x="1524.804688"/>
    </g>
   </g>
   <g id="legend_1">
    <g id="patch_7">
     <path d="M 423.312813 67.905469 
L 539.851563 67.905469 
Q 542.251563 67.905469 542.251563 65.505469 
L 542.251563 31.477969 
Q 542.251563 29.077969 539.851563 29.077969 
L 423.312813 29.077969 
Q 420.912813 29.077969 420.912813 31.477969 
L 420.912813 65.505469 
Q 420.912813 67.905469 423.312813 67.905469 
z
" style="fill: #ffffff; opacity: 0.8; stroke: #cccccc; stroke-linejoin: miter"/>
    </g>
    <g id="line2d_13">
     <path d="M 425.712813 38.796094 
L 437.712813 38.796094 
L 449.712813 38.796094 
" style="fill: none; stroke: #009384; stroke-width: 2.5; stroke-linecap: square"/>
    </g>
    <g id="text_14">
     <!-- KubeVirt  -->
     <g transform="translate(459.312813 42.996094) scale(0.12 -0.12)">
      <defs>
       <path id="DejaVuSans-4b" d="M 628 4666 
L 1259 4666 
L 1259 2694 
L 3353 4666 
L 4166 4666 
L 1850 2491 
L 4331 0 
L 3500 0 
L 1259 2247 
L 1259 0 
L 628 0 
L 628 4666 
z
" transform="scale(0.015625)"/>
       <path id="DejaVuSans-75" d="M 544 1381 
L 544 3500 
L 1119 3500 
L 1119 1403 
Q 1119 906 1312 657 
Q 1506 409 1894 409 
Q 2359 409 2629 706 
Q 2900 1003 2900 1516 
L 2900 3500 
L 3475 3500 
L 3475 0 
L 2900 0 
L 2900 538 
Q 2691 219 2414 64 
Q 2138 -91 1772 -91 
Q 1169 -91 856 284 
Q 544 659 544 1381 
z
M 1991 3584 
L 1991 3584 
z
" transform="scale(0.015625)"/>
       <path id="DejaVuSans-62" d="M 3116 1747 
Q 3116 2381 2855 2742 
Q 2594 3103 2138 3103 
Q 1681 3103 1420 2742 
Q 1159 2381 1159 1747 
Q 1159 1113 1420 752 
Q 1681 391 2138 391 
Q 2594 391 2855 752 
Q 3116 1113 3116 1747 
z
M 1159 2969 
Q 1341 3281 1617 3432 
Q 1894 3584 2278 3584 
Q 2916 3584 3314 3078 
Q 3713 2572 3713 1747 
Q 3713 922 3314 415 
Q 2916 -91 2278 -91 
Q 1894 -91 1617 61 
Q 1341 213 1159 525 
L 1159 0 
L 581 0 
L 581 4863 
L 1159 4863 
L 1159 2969 
z
" transform="scale(0.015625)"/>
      </defs>
      <use xlink:href="#DejaVuSans-4b"/>
      <use xlink:href="#DejaVuSans-75" x="60.576172"/>
      <use xlink:href="#DejaVuSans-62" x="123.955078"/>
      <use xlink:href="#DejaVuSans-65" x="187.431641"/>
      <use xlink:href="#DejaVuSans-56" x="248.955078"/>
      <use xlink:href="#DejaVuSans-69" x="315.113281"/>
      <use xlink:href="#DejaVuSans-72" x="342.896484"/>
      <use xlink:href="#DejaVuSans-74" x="384.009766"/>
      <use xlink:href="#DejaVuSans-20" x="423.21875"/>
     </g>
    </g>
    <g id="line2d_14">
     <path d="M 425.712813 56.409844 
L 437.712813 56.409844 
L 449.712813 56.409844 
" style="fill: none; stroke: #b85741; stroke-width: 2.5; stroke-linecap: square"/>
    </g>
    <g id="text_15">
     <!-- OpenNebula  -->
     <g transform="translate(459.312813 60.609844) scale(0.12 -0.12)">
      <defs>
       <path id="DejaVuSans-4f" d="M 2522 4238 
Q 1834 4238 1429 3725 
Q 1025 3213 1025 2328 
Q 1025 1447 1429 934 
Q 1834 422 2522 422 
Q 3209 422 3611 934 
Q 4013 1447 4013 2328 
Q 4013 3213 3611 3725 
Q 3209 4238 2522 4238 
z
M 2522 4750 
Q 3503 4750 4090 4092 
Q 4678 3434 4678 2328 
Q 4678 1225 4090 567 
Q 3503 -91 2522 -91 
Q 1538 -91 948 565 
Q 359 1222 359 2328 
Q 359 3434 948 4092 
Q 1538 4750 2522 4750 
z
" transform="scale(0.015625)"/>
       <path id="DejaVuSans-4e" d="M 628 4666 
L 1478 4666 
L 3547 763 
L 3547 4666 
L 4159 4666 
L 4159 0 
L 3309 0 
L 1241 3903 
L 1241 0 
L 628 0 
L 628 4666 
z
" transform="scale(0.015625)"/>
      </defs>
      <use xlink:href="#DejaVuSans-4f"/>
      <use xlink:href="#DejaVuSans-70" x="78.710938"/>
      <use xlink:href="#DejaVuSans-65" x="142.1875"/>
      <use xlink:href="#DejaVuSans-6e" x="203.710938"/>
      <use xlink:href="#DejaVuSans-4e" x="267.089844"/>
      <use xlink:href="#DejaVuSans-65" x="341.894531"/>
      <use xlink:href="#DejaVuSans-62" x="403.417969"/>
      <use xlink:href="#DejaVuSans-75" x="466.894531"/>
      <use xlink:href="#DejaVuSans-6c" x="530.273438"/>
      <use xlink:href="#DejaVuSans-61" x="558.056641"/>
      <use xlink:href="#DejaVuSans-20" x="619.335938"/>
     </g>
    </g>
   </g>
  </g>
 </g>
 <defs>
  <clipPath id="p5839e24ac6">
   <rect x="46.051562" y="23.077969" width="502.2" height="221.76"/>
  </clipPath>
 </defs>
</svg>
