<?xml version="1.0" encoding="utf-8" standalone="no"?>
<!DOCTYPE svg PUBLIC "-//W3C//DTD SVG 1.1//EN"
  "http://www.w3.org/Graphics/SVG/1.1/DTD/svg11.dtd">
<svg xmlns:xlink="http://www.w3.org/1999/xlink" width="574.592812pt" height="298.015156pt" viewBox="0 0 574.592812 298.015156" xmlns="http://www.w3.org/2000/svg" version="1.1">
 <metadata>
  <rdf:RDF xmlns:dc="http://purl.org/dc/elements/1.1/" xmlns:cc="http://creativecommons.org/ns#" xmlns:rdf="http://www.w3.org/1999/02/22-rdf-syntax-ns#">
   <cc:Work>
    <dc:type rdf:resource="http://purl.org/dc/dcmitype/StillImage"/>
    <dc:date>2024-06-25T10:48:17.156851</dc:date>
    <dc:format>image/svg+xml</dc:format>
    <dc:creator>
     <cc:Agent>
      <dc:title>Matplotlib v3.8.4, https://matplotlib.org/</dc:title>
     </cc:Agent>
    </dc:creator>
   </cc:Work>
  </rdf:RDF>
 </metadata>
 <defs>
  <style type="text/css">*{stroke-linejoin: round; stroke-linecap: butt}</style>
 </defs>
 <g id="figure_1">
  <g id="patch_1">
   <path d="M 0 298.015156 
L 574.592812 298.015156 
L 574.592812 0 
L 0 0 
z
" style="fill: #f3f7f8"/>
  </g>
  <g id="axes_1">
   <g id="patch_2">
    <path d="M 65.192813 247.877344 
L 567.392813 247.877344 
L 567.392813 26.117344 
L 65.192813 26.117344 
z
" style="fill: #ffffff"/>
   </g>
   <g id="PolyCollection_1">
    <defs>
     <path id="m4b689adf4f" d="M 91.672449 -65.891476 
L 91.672449 -62.09913 
L 95.324813 -62.227251 
L 98.977176 -62.404684 
L 102.62954 -62.774549 
L 106.281903 -63.727839 
L 109.934267 -64.748989 
L 113.586631 -66.443996 
L 117.238994 -68.271202 
L 120.891358 -70.365298 
L 124.543722 -72.641687 
L 128.196085 -74.804846 
L 131.848449 -77.246569 
L 135.500813 -79.882722 
L 139.153176 -82.375441 
L 142.80554 -85.132422 
L 146.457903 -87.022393 
L 150.110267 -89.505878 
L 153.762631 -91.739722 
L 157.414994 -94.764272 
L 161.067358 -97.06362 
L 164.719722 -101.27315 
L 168.372085 -104.718931 
L 172.024449 -109.906849 
L 175.676813 -115.48147 
L 179.329176 -121.369565 
L 182.98154 -127.119461 
L 186.633903 -132.685755 
L 190.286267 -136.75321 
L 193.938631 -141.509072 
L 197.590994 -144.396532 
L 201.243358 -147.692624 
L 204.895722 -149.520721 
L 208.548085 -151.521381 
L 212.200449 -151.269594 
L 215.852813 -150.720774 
L 219.505176 -149.828835 
L 223.15754 -148.397412 
L 226.809903 -146.619304 
L 230.462267 -145.985367 
L 234.114631 -143.847418 
L 237.766994 -142.114775 
L 241.419358 -140.960392 
L 245.071722 -137.910068 
L 248.724085 -135.900045 
L 252.376449 -133.761983 
L 256.028813 -131.331142 
L 259.681176 -128.878584 
L 263.33354 -128.44561 
L 266.985903 -128.940924 
L 270.638267 -133.271367 
L 274.290631 -138.383081 
L 277.942994 -146.168383 
L 281.595358 -151.971727 
L 285.247722 -158.695284 
L 288.900085 -161.192186 
L 292.552449 -163.866039 
L 296.204813 -163.612968 
L 299.857176 -162.863483 
L 303.50954 -158.307374 
L 307.161903 -153.15019 
L 310.814267 -143.461683 
L 314.466631 -132.257369 
L 318.118994 -118.8604 
L 321.771358 -106.055454 
L 325.423722 -93.508381 
L 329.076085 -84.769566 
L 332.728449 -76.493521 
L 336.380813 -71.348968 
L 340.033176 -66.65236 
L 343.68554 -64.100814 
L 347.337903 -62.11062 
L 350.990267 -60.683738 
L 354.642631 -60.404421 
L 358.294994 -60.217812 
L 361.947358 -60.2786 
L 365.599722 -60.885183 
L 369.252085 -61.145373 
L 372.904449 -61.88484 
L 376.556813 -62.160616 
L 380.209176 -62.843401 
L 383.86154 -63.643708 
L 387.513903 -63.734685 
L 391.166267 -63.973803 
L 394.818631 -64.233271 
L 398.470994 -64.373662 
L 405.775722 -64.489748 
L 409.428085 -64.022665 
L 413.080449 -63.763464 
L 416.732813 -64.250367 
L 420.385176 -64.114243 
L 424.03754 -64.197685 
L 424.03754 -66.930322 
L 424.03754 -66.930322 
L 420.385176 -67.742879 
L 416.732813 -68.076252 
L 413.080449 -68.426092 
L 409.428085 -70.727628 
L 405.775722 -71.937312 
L 398.470994 -74.624174 
L 394.818631 -75.205655 
L 391.166267 -75.314819 
L 387.513903 -74.863588 
L 383.86154 -75.312955 
L 380.209176 -74.796817 
L 376.556813 -75.136249 
L 372.904449 -76.054254 
L 369.252085 -77.135218 
L 365.599722 -77.959908 
L 361.947358 -80.636993 
L 358.294994 -84.007253 
L 354.642631 -87.041073 
L 350.990267 -92.71432 
L 347.337903 -100.786691 
L 343.68554 -107.810016 
L 340.033176 -116.1568 
L 336.380813 -126.794538 
L 332.728449 -138.525491 
L 329.076085 -153.739747 
L 325.423722 -169.505615 
L 321.771358 -188.733056 
L 318.118994 -204.608857 
L 314.466631 -223.924092 
L 310.814267 -237.249824 
L 307.161903 -249.0594 
L 303.50954 -256.562253 
L 299.857176 -261.817813 
L 296.204813 -260.473204 
L 292.552449 -256.634967 
L 288.900085 -247.544196 
L 285.247722 -237.304617 
L 281.595358 -222.163445 
L 277.942994 -210.075606 
L 274.290631 -195.797052 
L 270.638267 -185.179775 
L 266.985903 -174.475349 
L 263.33354 -168.457542 
L 259.681176 -164.685054 
L 256.028813 -164.14397 
L 252.376449 -165.571418 
L 248.724085 -166.87756 
L 245.071722 -169.539859 
L 241.419358 -173.421077 
L 237.766994 -174.601949 
L 234.114631 -177.009309 
L 230.462267 -179.597078 
L 226.809903 -180.580096 
L 223.15754 -183.272395 
L 219.505176 -185.361383 
L 215.852813 -187.065683 
L 212.200449 -189.142183 
L 208.548085 -191.525147 
L 204.895722 -190.297252 
L 201.243358 -190.049226 
L 197.590994 -187.711922 
L 193.938631 -184.529046 
L 190.286267 -180.199131 
L 186.633903 -175.400577 
L 182.98154 -167.808473 
L 179.329176 -160.364904 
L 175.676813 -152.546286 
L 172.024449 -143.993911 
L 168.372085 -136.119671 
L 164.719722 -130.176816 
L 161.067358 -122.814875 
L 157.414994 -117.793853 
L 153.762631 -113.084743 
L 150.110267 -108.65773 
L 146.457903 -104.65698 
L 142.80554 -102.210576 
L 139.153176 -98.329539 
L 135.500813 -94.787233 
L 131.848449 -91.068971 
L 128.196085 -87.266844 
L 124.543722 -84.076025 
L 120.891358 -80.603714 
L 117.238994 -77.56475 
L 113.586631 -74.330801 
L 109.934267 -71.49782 
L 106.281903 -69.552591 
L 102.62954 -67.748188 
L 98.977176 -66.51963 
L 95.324813 -66.066516 
L 91.672449 -65.891476 
z
" style="stroke: #009384; stroke-opacity: 0.15"/>
    </defs>
    <g clip-path="url(#pb1bd2ec1da)">
     <use xlink:href="#m4b689adf4f" x="0" y="298.015156" style="fill: #009384; fill-opacity: 0.15; stroke: #009384; stroke-opacity: 0.15"/>
    </g>
   </g>
   <g id="PolyCollection_2">
    <defs>
     <path id="mba7edf43e3" d="M 88.020085 -67.513742 
L 88.020085 -60.650425 
L 91.672449 -61.487762 
L 95.324813 -61.713568 
L 98.977176 -61.637438 
L 102.62954 -61.690938 
L 106.281903 -61.181663 
L 109.934267 -61.462593 
L 113.586631 -61.338873 
L 117.238994 -61.14181 
L 120.891358 -61.577072 
L 124.543722 -61.289553 
L 128.196085 -61.608921 
L 131.848449 -61.749807 
L 135.500813 -61.868608 
L 139.153176 -61.89006 
L 142.80554 -61.917365 
L 146.457903 -62.65289 
L 150.110267 -62.534977 
L 153.762631 -61.890271 
L 157.414994 -62.421243 
L 161.067358 -62.367301 
L 164.719722 -62.704015 
L 168.372085 -62.605718 
L 172.024449 -61.747745 
L 175.676813 -62.211026 
L 179.329176 -61.695079 
L 182.98154 -61.761033 
L 186.633903 -61.770497 
L 190.286267 -60.635565 
L 193.938631 -61.522472 
L 197.590994 -60.84978 
L 201.243358 -60.302754 
L 204.895722 -60.797379 
L 208.548085 -60.748683 
L 212.200449 -61.529029 
L 215.852813 -61.289086 
L 219.505176 -62.467584 
L 223.15754 -62.751787 
L 226.809903 -63.292641 
L 230.462267 -65.090164 
L 234.114631 -65.985819 
L 237.766994 -68.641009 
L 241.419358 -70.538145 
L 245.071722 -72.001432 
L 248.724085 -73.640182 
L 252.376449 -75.587441 
L 256.028813 -78.494112 
L 259.681176 -80.332805 
L 263.33354 -82.426715 
L 266.985903 -84.083638 
L 270.638267 -85.826883 
L 274.290631 -88.539741 
L 277.942994 -88.505641 
L 281.595358 -89.417432 
L 285.247722 -90.214008 
L 288.900085 -90.20124 
L 292.552449 -91.138871 
L 296.204813 -90.303904 
L 299.857176 -90.365935 
L 303.50954 -91.443254 
L 307.161903 -91.260671 
L 310.814267 -91.264574 
L 314.466631 -89.322799 
L 318.118994 -88.980238 
L 321.771358 -87.462081 
L 325.423722 -86.170657 
L 329.076085 -85.637114 
L 332.728449 -84.180977 
L 336.380813 -82.11074 
L 340.033176 -81.445623 
L 343.68554 -78.852903 
L 347.337903 -78.539119 
L 350.990267 -76.712067 
L 354.642631 -75.973984 
L 358.294994 -76.517555 
L 361.947358 -75.982197 
L 365.599722 -75.798567 
L 369.252085 -75.572825 
L 372.904449 -74.095386 
L 376.556813 -74.976724 
L 380.209176 -73.231517 
L 383.86154 -72.542876 
L 387.513903 -70.099916 
L 391.166267 -69.757154 
L 394.818631 -68.045404 
L 398.470994 -65.941369 
L 402.123358 -65.314882 
L 405.775722 -64.047069 
L 409.428085 -63.136063 
L 413.080449 -63.037626 
L 416.732813 -61.980601 
L 420.385176 -61.844449 
L 424.03754 -61.677999 
L 427.689903 -62.128575 
L 431.342267 -61.564719 
L 434.994631 -62.190976 
L 438.646994 -61.775492 
L 442.299358 -61.860142 
L 445.951722 -61.759781 
L 449.604085 -61.447554 
L 453.256449 -61.626865 
L 456.908813 -61.498646 
L 460.561176 -61.614155 
L 464.21354 -61.659649 
L 467.865903 -61.718031 
L 471.518267 -61.851065 
L 475.170631 -61.7957 
L 478.822994 -61.779239 
L 482.475358 -61.981977 
L 486.127722 -62.062217 
L 489.780085 -62.063421 
L 493.432449 -61.829513 
L 497.084813 -61.974768 
L 500.737176 -62.152502 
L 504.38954 -62.116918 
L 508.041903 -62.092493 
L 511.694267 -62.112895 
L 515.346631 -62.675184 
L 518.998994 -62.489248 
L 522.651358 -63.317736 
L 526.303722 -63.049014 
L 529.956085 -63.085136 
L 533.608449 -64.410957 
L 537.260813 -64.498516 
L 540.913176 -65.358833 
L 544.56554 -66.21314 
L 544.56554 -76.037726 
L 544.56554 -76.037726 
L 540.913176 -75.68161 
L 537.260813 -75.549895 
L 533.608449 -75.107137 
L 529.956085 -73.882946 
L 526.303722 -72.982372 
L 522.651358 -72.601687 
L 518.998994 -71.710237 
L 515.346631 -71.527869 
L 511.694267 -71.054094 
L 508.041903 -70.594667 
L 504.38954 -70.358471 
L 500.737176 -70.11393 
L 497.084813 -69.927265 
L 493.432449 -69.659034 
L 489.780085 -69.420056 
L 486.127722 -69.389207 
L 482.475358 -69.492658 
L 478.822994 -69.308545 
L 475.170631 -69.138674 
L 471.518267 -69.188305 
L 467.865903 -69.201667 
L 464.21354 -69.121577 
L 460.561176 -69.053649 
L 456.908813 -68.819048 
L 453.256449 -68.665286 
L 449.604085 -68.581152 
L 445.951722 -68.790397 
L 442.299358 -69.213701 
L 438.646994 -70.04684 
L 434.994631 -71.499275 
L 431.342267 -73.189569 
L 427.689903 -75.480555 
L 424.03754 -78.292933 
L 420.385176 -81.389927 
L 416.732813 -84.717949 
L 413.080449 -88.998486 
L 409.428085 -93.100122 
L 405.775722 -97.643933 
L 402.123358 -103.165946 
L 398.470994 -107.342243 
L 394.818631 -112.545882 
L 391.166267 -116.979349 
L 387.513903 -120.526119 
L 383.86154 -123.996951 
L 380.209176 -126.509998 
L 376.556813 -129.404069 
L 372.904449 -129.764505 
L 369.252085 -129.993055 
L 365.599722 -129.953869 
L 361.947358 -129.16062 
L 358.294994 -129.15792 
L 354.642631 -128.628328 
L 350.990267 -128.400798 
L 347.337903 -130.110868 
L 343.68554 -131.026537 
L 340.033176 -133.685839 
L 336.380813 -135.522985 
L 332.728449 -138.228188 
L 329.076085 -141.831087 
L 325.423722 -143.780773 
L 321.771358 -145.536299 
L 318.118994 -147.757665 
L 314.466631 -148.62409 
L 310.814267 -150.246403 
L 307.161903 -150.818784 
L 303.50954 -150.451899 
L 299.857176 -149.023389 
L 296.204813 -147.350886 
L 292.552449 -147.27741 
L 288.900085 -145.463841 
L 285.247722 -144.646921 
L 281.595358 -143.690314 
L 277.942994 -142.178196 
L 274.290631 -141.266069 
L 270.638267 -139.25876 
L 266.985903 -135.676847 
L 263.33354 -132.952023 
L 259.681176 -129.271116 
L 256.028813 -126.399576 
L 252.376449 -122.387962 
L 248.724085 -119.150356 
L 245.071722 -115.433001 
L 241.419358 -112.251842 
L 237.766994 -109.77001 
L 234.114631 -106.009519 
L 230.462267 -102.362732 
L 226.809903 -99.926524 
L 223.15754 -97.538553 
L 219.505176 -96.173521 
L 215.852813 -93.800414 
L 212.200449 -91.606691 
L 208.548085 -89.884532 
L 204.895722 -88.085835 
L 201.243358 -85.85357 
L 197.590994 -83.324492 
L 193.938631 -82.616764 
L 190.286267 -82.390097 
L 186.633903 -81.637044 
L 182.98154 -81.805628 
L 179.329176 -81.473949 
L 175.676813 -81.589149 
L 172.024449 -81.345319 
L 168.372085 -80.656206 
L 164.719722 -81.027906 
L 161.067358 -81.349938 
L 157.414994 -81.378748 
L 153.762631 -80.555867 
L 150.110267 -79.388614 
L 146.457903 -78.831663 
L 142.80554 -77.641457 
L 139.153176 -76.218772 
L 135.500813 -75.14753 
L 131.848449 -74.378302 
L 128.196085 -73.724241 
L 124.543722 -73.03584 
L 120.891358 -72.172065 
L 117.238994 -71.414641 
L 113.586631 -70.555256 
L 109.934267 -70.029551 
L 106.281903 -69.307159 
L 102.62954 -68.780204 
L 98.977176 -68.713151 
L 95.324813 -68.577694 
L 91.672449 -68.306751 
L 88.020085 -67.513742 
z
" style="stroke: #b85741; stroke-opacity: 0.15"/>
    </defs>
    <g clip-path="url(#pb1bd2ec1da)">
     <use xlink:href="#mba7edf43e3" x="0" y="298.015156" style="fill: #b85741; fill-opacity: 0.15; stroke: #b85741; stroke-opacity: 0.15"/>
    </g>
   </g>
   <g id="matplotlib.axis_1">
    <g id="xtick_1">
     <g id="line2d_1">
      <defs>
       <path id="m8b2d04c2ad" d="M 0 0 
L 0 3.5 
" style="stroke: #000000; stroke-width: 0.8"/>
      </defs>
      <g>
       <use xlink:href="#m8b2d04c2ad" x="91.672449" y="247.877344" style="stroke: #000000; stroke-width: 0.8"/>
      </g>
     </g>
     <g id="text_1">
      <!-- 0 -->
      <g transform="translate(86.582449 267.034844) scale(0.16 -0.16)">
       <defs>
        <path id="DejaVuSans-30" d="M 2034 4250 
Q 1547 4250 1301 3770 
Q 1056 3291 1056 2328 
Q 1056 1369 1301 889 
Q 1547 409 2034 409 
Q 2525 409 2770 889 
Q 3016 1369 3016 2328 
Q 3016 3291 2770 3770 
Q 2525 4250 2034 4250 
z
M 2034 4750 
Q 2819 4750 3233 4129 
Q 3647 3509 3647 2328 
Q 3647 1150 3233 529 
Q 2819 -91 2034 -91 
Q 1250 -91 836 529 
Q 422 1150 422 2328 
Q 422 3509 836 4129 
Q 1250 4750 2034 4750 
z
" transform="scale(0.015625)"/>
       </defs>
       <use xlink:href="#DejaVuSans-30"/>
      </g>
     </g>
    </g>
    <g id="xtick_2">
     <g id="line2d_2">
      <g>
       <use xlink:href="#m8b2d04c2ad" x="164.719722" y="247.877344" style="stroke: #000000; stroke-width: 0.8"/>
      </g>
     </g>
     <g id="text_2">
      <!-- 20 -->
      <g transform="translate(154.539722 267.034844) scale(0.16 -0.16)">
       <defs>
        <path id="DejaVuSans-32" d="M 1228 531 
L 3431 531 
L 3431 0 
L 469 0 
L 469 531 
Q 828 903 1448 1529 
Q 2069 2156 2228 2338 
Q 2531 2678 2651 2914 
Q 2772 3150 2772 3378 
Q 2772 3750 2511 3984 
Q 2250 4219 1831 4219 
Q 1534 4219 1204 4116 
Q 875 4013 500 3803 
L 500 4441 
Q 881 4594 1212 4672 
Q 1544 4750 1819 4750 
Q 2544 4750 2975 4387 
Q 3406 4025 3406 3419 
Q 3406 3131 3298 2873 
Q 3191 2616 2906 2266 
Q 2828 2175 2409 1742 
Q 1991 1309 1228 531 
z
" transform="scale(0.015625)"/>
       </defs>
       <use xlink:href="#DejaVuSans-32"/>
       <use xlink:href="#DejaVuSans-30" x="63.623047"/>
      </g>
     </g>
    </g>
    <g id="xtick_3">
     <g id="line2d_3">
      <g>
       <use xlink:href="#m8b2d04c2ad" x="237.766994" y="247.877344" style="stroke: #000000; stroke-width: 0.8"/>
      </g>
     </g>
     <g id="text_3">
      <!-- 40 -->
      <g transform="translate(227.586994 267.034844) scale(0.16 -0.16)">
       <defs>
        <path id="DejaVuSans-34" d="M 2419 4116 
L 825 1625 
L 2419 1625 
L 2419 4116 
z
M 2253 4666 
L 3047 4666 
L 3047 1625 
L 3713 1625 
L 3713 1100 
L 3047 1100 
L 3047 0 
L 2419 0 
L 2419 1100 
L 313 1100 
L 313 1709 
L 2253 4666 
z
" transform="scale(0.015625)"/>
       </defs>
       <use xlink:href="#DejaVuSans-34"/>
       <use xlink:href="#DejaVuSans-30" x="63.623047"/>
      </g>
     </g>
    </g>
    <g id="xtick_4">
     <g id="line2d_4">
      <g>
       <use xlink:href="#m8b2d04c2ad" x="310.814267" y="247.877344" style="stroke: #000000; stroke-width: 0.8"/>
      </g>
     </g>
     <g id="text_4">
      <!-- 60 -->
      <g transform="translate(300.634267 267.034844) scale(0.16 -0.16)">
       <defs>
        <path id="DejaVuSans-36" d="M 2113 2584 
Q 1688 2584 1439 2293 
Q 1191 2003 1191 1497 
Q 1191 994 1439 701 
Q 1688 409 2113 409 
Q 2538 409 2786 701 
Q 3034 994 3034 1497 
Q 3034 2003 2786 2293 
Q 2538 2584 2113 2584 
z
M 3366 4563 
L 3366 3988 
Q 3128 4100 2886 4159 
Q 2644 4219 2406 4219 
Q 1781 4219 1451 3797 
Q 1122 3375 1075 2522 
Q 1259 2794 1537 2939 
Q 1816 3084 2150 3084 
Q 2853 3084 3261 2657 
Q 3669 2231 3669 1497 
Q 3669 778 3244 343 
Q 2819 -91 2113 -91 
Q 1303 -91 875 529 
Q 447 1150 447 2328 
Q 447 3434 972 4092 
Q 1497 4750 2381 4750 
Q 2619 4750 2861 4703 
Q 3103 4656 3366 4563 
z
" transform="scale(0.015625)"/>
       </defs>
       <use xlink:href="#DejaVuSans-36"/>
       <use xlink:href="#DejaVuSans-30" x="63.623047"/>
      </g>
     </g>
    </g>
    <g id="xtick_5">
     <g id="line2d_5">
      <g>
       <use xlink:href="#m8b2d04c2ad" x="383.86154" y="247.877344" style="stroke: #000000; stroke-width: 0.8"/>
      </g>
     </g>
     <g id="text_5">
      <!-- 80 -->
      <g transform="translate(373.68154 267.034844) scale(0.16 -0.16)">
       <defs>
        <path id="DejaVuSans-38" d="M 2034 2216 
Q 1584 2216 1326 1975 
Q 1069 1734 1069 1313 
Q 1069 891 1326 650 
Q 1584 409 2034 409 
Q 2484 409 2743 651 
Q 3003 894 3003 1313 
Q 3003 1734 2745 1975 
Q 2488 2216 2034 2216 
z
M 1403 2484 
Q 997 2584 770 2862 
Q 544 3141 544 3541 
Q 544 4100 942 4425 
Q 1341 4750 2034 4750 
Q 2731 4750 3128 4425 
Q 3525 4100 3525 3541 
Q 3525 3141 3298 2862 
Q 3072 2584 2669 2484 
Q 3125 2378 3379 2068 
Q 3634 1759 3634 1313 
Q 3634 634 3220 271 
Q 2806 -91 2034 -91 
Q 1263 -91 848 271 
Q 434 634 434 1313 
Q 434 1759 690 2068 
Q 947 2378 1403 2484 
z
M 1172 3481 
Q 1172 3119 1398 2916 
Q 1625 2713 2034 2713 
Q 2441 2713 2670 2916 
Q 2900 3119 2900 3481 
Q 2900 3844 2670 4047 
Q 2441 4250 2034 4250 
Q 1625 4250 1398 4047 
Q 1172 3844 1172 3481 
z
" transform="scale(0.015625)"/>
       </defs>
       <use xlink:href="#DejaVuSans-38"/>
       <use xlink:href="#DejaVuSans-30" x="63.623047"/>
      </g>
     </g>
    </g>
    <g id="xtick_6">
     <g id="line2d_6">
      <g>
       <use xlink:href="#m8b2d04c2ad" x="456.908813" y="247.877344" style="stroke: #000000; stroke-width: 0.8"/>
      </g>
     </g>
     <g id="text_6">
      <!-- 100 -->
      <g transform="translate(441.638813 267.034844) scale(0.16 -0.16)">
       <defs>
        <path id="DejaVuSans-31" d="M 794 531 
L 1825 531 
L 1825 4091 
L 703 3866 
L 703 4441 
L 1819 4666 
L 2450 4666 
L 2450 531 
L 3481 531 
L 3481 0 
L 794 0 
L 794 531 
z
" transform="scale(0.015625)"/>
       </defs>
       <use xlink:href="#DejaVuSans-31"/>
       <use xlink:href="#DejaVuSans-30" x="63.623047"/>
       <use xlink:href="#DejaVuSans-30" x="127.246094"/>
      </g>
     </g>
    </g>
    <g id="xtick_7">
     <g id="line2d_7">
      <g>
       <use xlink:href="#m8b2d04c2ad" x="529.956085" y="247.877344" style="stroke: #000000; stroke-width: 0.8"/>
      </g>
     </g>
     <g id="text_7">
      <!-- 120 -->
      <g transform="translate(514.686085 267.034844) scale(0.16 -0.16)">
       <use xlink:href="#DejaVuSans-31"/>
       <use xlink:href="#DejaVuSans-32" x="63.623047"/>
       <use xlink:href="#DejaVuSans-30" x="127.246094"/>
      </g>
     </g>
    </g>
    <g id="text_8">
     <!-- Time (s) -->
     <g transform="translate(281.733672 287.279687) scale(0.17 -0.17)">
      <defs>
       <path id="DejaVuSans-54" d="M -19 4666 
L 3928 4666 
L 3928 4134 
L 2272 4134 
L 2272 0 
L 1638 0 
L 1638 4134 
L -19 4134 
L -19 4666 
z
" transform="scale(0.015625)"/>
       <path id="DejaVuSans-69" d="M 603 3500 
L 1178 3500 
L 1178 0 
L 603 0 
L 603 3500 
z
M 603 4863 
L 1178 4863 
L 1178 4134 
L 603 4134 
L 603 4863 
z
" transform="scale(0.015625)"/>
       <path id="DejaVuSans-6d" d="M 3328 2828 
Q 3544 3216 3844 3400 
Q 4144 3584 4550 3584 
Q 5097 3584 5394 3201 
Q 5691 2819 5691 2113 
L 5691 0 
L 5113 0 
L 5113 2094 
Q 5113 2597 4934 2840 
Q 4756 3084 4391 3084 
Q 3944 3084 3684 2787 
Q 3425 2491 3425 1978 
L 3425 0 
L 2847 0 
L 2847 2094 
Q 2847 2600 2669 2842 
Q 2491 3084 2119 3084 
Q 1678 3084 1418 2786 
Q 1159 2488 1159 1978 
L 1159 0 
L 581 0 
L 581 3500 
L 1159 3500 
L 1159 2956 
Q 1356 3278 1631 3431 
Q 1906 3584 2284 3584 
Q 2666 3584 2933 3390 
Q 3200 3197 3328 2828 
z
" transform="scale(0.015625)"/>
       <path id="DejaVuSans-65" d="M 3597 1894 
L 3597 1613 
L 953 1613 
Q 991 1019 1311 708 
Q 1631 397 2203 397 
Q 2534 397 2845 478 
Q 3156 559 3463 722 
L 3463 178 
Q 3153 47 2828 -22 
Q 2503 -91 2169 -91 
Q 1331 -91 842 396 
Q 353 884 353 1716 
Q 353 2575 817 3079 
Q 1281 3584 2069 3584 
Q 2775 3584 3186 3129 
Q 3597 2675 3597 1894 
z
M 3022 2063 
Q 3016 2534 2758 2815 
Q 2500 3097 2075 3097 
Q 1594 3097 1305 2825 
Q 1016 2553 972 2059 
L 3022 2063 
z
" transform="scale(0.015625)"/>
       <path id="DejaVuSans-20" transform="scale(0.015625)"/>
       <path id="DejaVuSans-28" d="M 1984 4856 
Q 1566 4138 1362 3434 
Q 1159 2731 1159 2009 
Q 1159 1288 1364 580 
Q 1569 -128 1984 -844 
L 1484 -844 
Q 1016 -109 783 600 
Q 550 1309 550 2009 
Q 550 2706 781 3412 
Q 1013 4119 1484 4856 
L 1984 4856 
z
" transform="scale(0.015625)"/>
       <path id="DejaVuSans-73" d="M 2834 3397 
L 2834 2853 
Q 2591 2978 2328 3040 
Q 2066 3103 1784 3103 
Q 1356 3103 1142 2972 
Q 928 2841 928 2578 
Q 928 2378 1081 2264 
Q 1234 2150 1697 2047 
L 1894 2003 
Q 2506 1872 2764 1633 
Q 3022 1394 3022 966 
Q 3022 478 2636 193 
Q 2250 -91 1575 -91 
Q 1294 -91 989 -36 
Q 684 19 347 128 
L 347 722 
Q 666 556 975 473 
Q 1284 391 1588 391 
Q 1994 391 2212 530 
Q 2431 669 2431 922 
Q 2431 1156 2273 1281 
Q 2116 1406 1581 1522 
L 1381 1569 
Q 847 1681 609 1914 
Q 372 2147 372 2553 
Q 372 3047 722 3315 
Q 1072 3584 1716 3584 
Q 2034 3584 2315 3537 
Q 2597 3491 2834 3397 
z
" transform="scale(0.015625)"/>
       <path id="DejaVuSans-29" d="M 513 4856 
L 1013 4856 
Q 1481 4119 1714 3412 
Q 1947 2706 1947 2009 
Q 1947 1309 1714 600 
Q 1481 -109 1013 -844 
L 513 -844 
Q 928 -128 1133 580 
Q 1338 1288 1338 2009 
Q 1338 2731 1133 3434 
Q 928 4138 513 4856 
z
" transform="scale(0.015625)"/>
      </defs>
      <use xlink:href="#DejaVuSans-54"/>
      <use xlink:href="#DejaVuSans-69" x="57.958984"/>
      <use xlink:href="#DejaVuSans-6d" x="85.742188"/>
      <use xlink:href="#DejaVuSans-65" x="183.154297"/>
      <use xlink:href="#DejaVuSans-20" x="244.677734"/>
      <use xlink:href="#DejaVuSans-28" x="276.464844"/>
      <use xlink:href="#DejaVuSans-73" x="315.478516"/>
      <use xlink:href="#DejaVuSans-29" x="367.578125"/>
     </g>
    </g>
   </g>
   <g id="matplotlib.axis_2">
    <g id="ytick_1">
     <g id="line2d_8">
      <defs>
       <path id="m41390484be" d="M 0 0 
L -3.5 0 
" style="stroke: #000000; stroke-width: 0.8"/>
      </defs>
      <g>
       <use xlink:href="#m41390484be" x="65.192813" y="244.952211" style="stroke: #000000; stroke-width: 0.8"/>
      </g>
     </g>
     <g id="text_9">
      <!-- 0 -->
      <g transform="translate(48.012813 251.030961) scale(0.16 -0.16)">
       <use xlink:href="#DejaVuSans-30"/>
      </g>
     </g>
    </g>
    <g id="ytick_2">
     <g id="line2d_9">
      <g>
       <use xlink:href="#m41390484be" x="65.192813" y="205.892506" style="stroke: #000000; stroke-width: 0.8"/>
      </g>
     </g>
     <g id="text_10">
      <!-- 20 -->
      <g transform="translate(37.832813 211.971256) scale(0.16 -0.16)">
       <use xlink:href="#DejaVuSans-32"/>
       <use xlink:href="#DejaVuSans-30" x="63.623047"/>
      </g>
     </g>
    </g>
    <g id="ytick_3">
     <g id="line2d_10">
      <g>
       <use xlink:href="#m41390484be" x="65.192813" y="166.832802" style="stroke: #000000; stroke-width: 0.8"/>
      </g>
     </g>
     <g id="text_11">
      <!-- 40 -->
      <g transform="translate(37.832813 172.911552) scale(0.16 -0.16)">
       <use xlink:href="#DejaVuSans-34"/>
       <use xlink:href="#DejaVuSans-30" x="63.623047"/>
      </g>
     </g>
    </g>
    <g id="ytick_4">
     <g id="line2d_11">
      <g>
       <use xlink:href="#m41390484be" x="65.192813" y="127.773097" style="stroke: #000000; stroke-width: 0.8"/>
      </g>
     </g>
     <g id="text_12">
      <!-- 60 -->
      <g transform="translate(37.832813 133.851847) scale(0.16 -0.16)">
       <use xlink:href="#DejaVuSans-36"/>
       <use xlink:href="#DejaVuSans-30" x="63.623047"/>
      </g>
     </g>
    </g>
    <g id="ytick_5">
     <g id="line2d_12">
      <g>
       <use xlink:href="#m41390484be" x="65.192813" y="88.713392" style="stroke: #000000; stroke-width: 0.8"/>
      </g>
     </g>
     <g id="text_13">
      <!-- 80 -->
      <g transform="translate(37.832813 94.792142) scale(0.16 -0.16)">
       <use xlink:href="#DejaVuSans-38"/>
       <use xlink:href="#DejaVuSans-30" x="63.623047"/>
      </g>
     </g>
    </g>
    <g id="ytick_6">
     <g id="line2d_13">
      <g>
       <use xlink:href="#m41390484be" x="65.192813" y="49.653687" style="stroke: #000000; stroke-width: 0.8"/>
      </g>
     </g>
     <g id="text_14">
      <!-- 100 -->
      <g transform="translate(27.652813 55.732437) scale(0.16 -0.16)">
       <use xlink:href="#DejaVuSans-31"/>
       <use xlink:href="#DejaVuSans-30" x="63.623047"/>
       <use xlink:href="#DejaVuSans-30" x="127.246094"/>
      </g>
     </g>
    </g>
    <g id="text_15">
     <!-- Utilization (%) -->
     <g transform="translate(20.117344 196.996719) rotate(-90) scale(0.17 -0.17)">
      <defs>
       <path id="DejaVuSans-55" d="M 556 4666 
L 1191 4666 
L 1191 1831 
Q 1191 1081 1462 751 
Q 1734 422 2344 422 
Q 2950 422 3222 751 
Q 3494 1081 3494 1831 
L 3494 4666 
L 4128 4666 
L 4128 1753 
Q 4128 841 3676 375 
Q 3225 -91 2344 -91 
Q 1459 -91 1007 375 
Q 556 841 556 1753 
L 556 4666 
z
" transform="scale(0.015625)"/>
       <path id="DejaVuSans-74" d="M 1172 4494 
L 1172 3500 
L 2356 3500 
L 2356 3053 
L 1172 3053 
L 1172 1153 
Q 1172 725 1289 603 
Q 1406 481 1766 481 
L 2356 481 
L 2356 0 
L 1766 0 
Q 1100 0 847 248 
Q 594 497 594 1153 
L 594 3053 
L 172 3053 
L 172 3500 
L 594 3500 
L 594 4494 
L 1172 4494 
z
" transform="scale(0.015625)"/>
       <path id="DejaVuSans-6c" d="M 603 4863 
L 1178 4863 
L 1178 0 
L 603 0 
L 603 4863 
z
" transform="scale(0.015625)"/>
       <path id="DejaVuSans-7a" d="M 353 3500 
L 3084 3500 
L 3084 2975 
L 922 459 
L 3084 459 
L 3084 0 
L 275 0 
L 275 525 
L 2438 3041 
L 353 3041 
L 353 3500 
z
" transform="scale(0.015625)"/>
       <path id="DejaVuSans-61" d="M 2194 1759 
Q 1497 1759 1228 1600 
Q 959 1441 959 1056 
Q 959 750 1161 570 
Q 1363 391 1709 391 
Q 2188 391 2477 730 
Q 2766 1069 2766 1631 
L 2766 1759 
L 2194 1759 
z
M 3341 1997 
L 3341 0 
L 2766 0 
L 2766 531 
Q 2569 213 2275 61 
Q 1981 -91 1556 -91 
Q 1019 -91 701 211 
Q 384 513 384 1019 
Q 384 1609 779 1909 
Q 1175 2209 1959 2209 
L 2766 2209 
L 2766 2266 
Q 2766 2663 2505 2880 
Q 2244 3097 1772 3097 
Q 1472 3097 1187 3025 
Q 903 2953 641 2809 
L 641 3341 
Q 956 3463 1253 3523 
Q 1550 3584 1831 3584 
Q 2591 3584 2966 3190 
Q 3341 2797 3341 1997 
z
" transform="scale(0.015625)"/>
       <path id="DejaVuSans-6f" d="M 1959 3097 
Q 1497 3097 1228 2736 
Q 959 2375 959 1747 
Q 959 1119 1226 758 
Q 1494 397 1959 397 
Q 2419 397 2687 759 
Q 2956 1122 2956 1747 
Q 2956 2369 2687 2733 
Q 2419 3097 1959 3097 
z
M 1959 3584 
Q 2709 3584 3137 3096 
Q 3566 2609 3566 1747 
Q 3566 888 3137 398 
Q 2709 -91 1959 -91 
Q 1206 -91 779 398 
Q 353 888 353 1747 
Q 353 2609 779 3096 
Q 1206 3584 1959 3584 
z
" transform="scale(0.015625)"/>
       <path id="DejaVuSans-6e" d="M 3513 2113 
L 3513 0 
L 2938 0 
L 2938 2094 
Q 2938 2591 2744 2837 
Q 2550 3084 2163 3084 
Q 1697 3084 1428 2787 
Q 1159 2491 1159 1978 
L 1159 0 
L 581 0 
L 581 3500 
L 1159 3500 
L 1159 2956 
Q 1366 3272 1645 3428 
Q 1925 3584 2291 3584 
Q 2894 3584 3203 3211 
Q 3513 2838 3513 2113 
z
" transform="scale(0.015625)"/>
       <path id="DejaVuSans-25" d="M 4653 2053 
Q 4381 2053 4226 1822 
Q 4072 1591 4072 1178 
Q 4072 772 4226 539 
Q 4381 306 4653 306 
Q 4919 306 5073 539 
Q 5228 772 5228 1178 
Q 5228 1588 5073 1820 
Q 4919 2053 4653 2053 
z
M 4653 2450 
Q 5147 2450 5437 2106 
Q 5728 1763 5728 1178 
Q 5728 594 5436 251 
Q 5144 -91 4653 -91 
Q 4153 -91 3862 251 
Q 3572 594 3572 1178 
Q 3572 1766 3864 2108 
Q 4156 2450 4653 2450 
z
M 1428 4353 
Q 1159 4353 1004 4120 
Q 850 3888 850 3481 
Q 850 3069 1003 2837 
Q 1156 2606 1428 2606 
Q 1700 2606 1854 2837 
Q 2009 3069 2009 3481 
Q 2009 3884 1853 4118 
Q 1697 4353 1428 4353 
z
M 4250 4750 
L 4750 4750 
L 1831 -91 
L 1331 -91 
L 4250 4750 
z
M 1428 4750 
Q 1922 4750 2215 4408 
Q 2509 4066 2509 3481 
Q 2509 2891 2217 2550 
Q 1925 2209 1428 2209 
Q 931 2209 642 2551 
Q 353 2894 353 3481 
Q 353 4063 643 4406 
Q 934 4750 1428 4750 
z
" transform="scale(0.015625)"/>
      </defs>
      <use xlink:href="#DejaVuSans-55"/>
      <use xlink:href="#DejaVuSans-74" x="73.193359"/>
      <use xlink:href="#DejaVuSans-69" x="112.402344"/>
      <use xlink:href="#DejaVuSans-6c" x="140.185547"/>
      <use xlink:href="#DejaVuSans-69" x="167.96875"/>
      <use xlink:href="#DejaVuSans-7a" x="195.751953"/>
      <use xlink:href="#DejaVuSans-61" x="248.242188"/>
      <use xlink:href="#DejaVuSans-74" x="309.521484"/>
      <use xlink:href="#DejaVuSans-69" x="348.730469"/>
      <use xlink:href="#DejaVuSans-6f" x="376.513672"/>
      <use xlink:href="#DejaVuSans-6e" x="437.695312"/>
      <use xlink:href="#DejaVuSans-20" x="501.074219"/>
      <use xlink:href="#DejaVuSans-28" x="532.861328"/>
      <use xlink:href="#DejaVuSans-25" x="571.875"/>
      <use xlink:href="#DejaVuSans-29" x="666.894531"/>
     </g>
    </g>
   </g>
   <g id="line2d_14">
    <path d="M 91.672449 234.019853 
L 95.324813 233.868273 
L 98.977176 233.553 
L 102.62954 232.753788 
L 106.281903 231.374941 
L 109.934267 229.891752 
L 113.586631 227.627757 
L 117.238994 225.097181 
L 120.891358 222.53065 
L 124.543722 219.6563 
L 128.196085 216.979311 
L 131.848449 213.857387 
L 135.500813 210.680179 
L 139.153176 207.662666 
L 142.80554 204.343657 
L 146.457903 202.17547 
L 150.110267 198.933352 
L 153.762631 195.602924 
L 157.414994 191.736094 
L 161.067358 188.075909 
L 164.719722 182.290173 
L 168.372085 177.595855 
L 172.024449 171.064776 
L 175.676813 164.001278 
L 179.329176 157.147922 
L 182.98154 150.551189 
L 186.633903 143.97199 
L 190.286267 139.538985 
L 193.938631 134.996098 
L 197.590994 131.960929 
L 201.243358 129.144231 
L 204.895722 128.10617 
L 208.548085 126.491892 
L 212.200449 127.809268 
L 215.852813 129.121928 
L 219.505176 130.420047 
L 223.15754 132.180253 
L 226.809903 134.415456 
L 230.462267 135.223933 
L 234.114631 137.586793 
L 237.766994 139.656794 
L 241.419358 140.824422 
L 245.071722 144.290193 
L 248.724085 146.626354 
L 252.376449 148.348456 
L 256.028813 150.2776 
L 259.681176 151.233337 
L 263.33354 149.56358 
L 266.985903 146.30702 
L 270.638267 138.789585 
L 274.290631 130.92509 
L 277.942994 119.893161 
L 281.595358 110.94757 
L 285.247722 100.015206 
L 288.900085 93.646965 
L 292.552449 87.764653 
L 296.204813 85.97207 
L 299.857176 85.674509 
L 303.50954 90.580343 
L 307.161903 96.910361 
L 310.814267 107.659403 
L 314.466631 119.924426 
L 318.118994 136.280528 
L 321.771358 150.620901 
L 325.423722 166.508158 
L 329.076085 178.7605 
L 332.728449 190.50565 
L 336.380813 198.943403 
L 340.033176 206.610576 
L 343.68554 212.059741 
L 347.337903 216.5665 
L 350.990267 221.316127 
L 354.642631 224.292409 
L 358.294994 225.902623 
L 361.947358 227.55736 
L 365.599722 228.59261 
L 369.252085 228.87486 
L 372.904449 229.045609 
L 376.556813 229.366724 
L 380.209176 229.195047 
L 383.86154 228.536825 
L 387.513903 228.71602 
L 391.166267 228.370845 
L 394.818631 228.295693 
L 398.470994 228.516238 
L 405.775722 229.801626 
L 409.428085 230.640009 
L 413.080449 231.920379 
L 416.732813 231.851847 
L 420.385176 232.086595 
L 424.03754 232.451153 
" clip-path="url(#pb1bd2ec1da)" style="fill: none; stroke: #009384; stroke-width: 2.5; stroke-linecap: square"/>
   </g>
   <g id="line2d_15">
    <path d="M 88.020085 233.933072 
L 91.672449 233.1179 
L 95.324813 232.869525 
L 106.281903 232.770745 
L 109.934267 232.269084 
L 113.586631 232.068092 
L 117.238994 231.736931 
L 120.891358 231.140588 
L 124.543722 230.85246 
L 131.848449 229.951102 
L 139.153176 228.96074 
L 142.80554 228.235745 
L 146.457903 227.27288 
L 153.762631 226.792087 
L 157.414994 226.115161 
L 164.719722 226.149196 
L 168.372085 226.384195 
L 172.024449 226.468624 
L 175.676813 226.115069 
L 179.329176 226.430642 
L 182.98154 226.231826 
L 186.633903 226.311386 
L 190.286267 226.502326 
L 193.938631 225.945538 
L 197.590994 225.92802 
L 201.243358 224.936994 
L 204.895722 223.57355 
L 208.548085 222.698548 
L 212.200449 221.447296 
L 215.852813 220.470406 
L 219.505176 218.694604 
L 223.15754 217.869986 
L 226.809903 216.405574 
L 230.462267 214.288709 
L 234.114631 212.017487 
L 237.766994 208.809647 
L 241.419358 206.620163 
L 245.071722 204.29794 
L 252.376449 199.027455 
L 256.028813 195.568312 
L 259.681176 193.213196 
L 263.33354 190.325787 
L 266.985903 188.134914 
L 270.638267 185.472335 
L 274.290631 183.112252 
L 277.942994 182.673237 
L 281.595358 181.461283 
L 285.247722 180.584692 
L 288.900085 180.182615 
L 292.552449 178.807016 
L 296.204813 179.187761 
L 299.857176 178.320495 
L 303.50954 177.06758 
L 307.161903 176.975429 
L 310.814267 177.259668 
L 314.466631 179.041712 
L 318.118994 179.646205 
L 321.771358 181.515966 
L 325.423722 183.039441 
L 329.076085 184.281056 
L 332.728449 186.810574 
L 336.380813 189.198294 
L 340.033176 190.449425 
L 343.68554 193.075436 
L 347.337903 193.690163 
L 350.990267 195.458724 
L 354.642631 195.714 
L 358.294994 195.177419 
L 361.947358 195.443747 
L 365.599722 195.138938 
L 369.252085 195.232216 
L 372.904449 196.085211 
L 376.556813 195.82476 
L 380.209176 198.144399 
L 383.86154 199.745242 
L 387.513903 202.702139 
L 391.166267 204.646905 
L 394.818631 207.719513 
L 398.470994 211.37335 
L 402.123358 213.774742 
L 405.775722 217.169655 
L 409.428085 219.897064 
L 413.080449 221.9971 
L 416.732813 224.665882 
L 424.03754 228.02969 
L 427.689903 229.210591 
L 431.342267 230.638012 
L 434.994631 231.170031 
L 438.646994 232.10399 
L 442.299358 232.478235 
L 449.604085 233.000803 
L 453.256449 232.869081 
L 456.908813 232.856309 
L 460.561176 232.681255 
L 497.084813 232.064139 
L 504.38954 231.777462 
L 508.041903 231.671576 
L 511.694267 231.431662 
L 515.346631 230.91363 
L 518.998994 230.915413 
L 522.651358 230.055445 
L 526.303722 229.999463 
L 529.956085 229.531116 
L 533.608449 228.256109 
L 537.260813 227.990951 
L 544.56554 226.889723 
L 544.56554 226.889723 
" clip-path="url(#pb1bd2ec1da)" style="fill: none; stroke: #b85741; stroke-width: 2.5; stroke-linecap: square"/>
   </g>
   <g id="patch_3">
    <path d="M 65.192813 247.877344 
L 65.192813 26.117344 
" style="fill: none; stroke: #000000; stroke-width: 0.8; stroke-linejoin: miter; stroke-linecap: square"/>
   </g>
   <g id="patch_4">
    <path d="M 567.392813 247.877344 
L 567.392813 26.117344 
" style="fill: none; stroke: #000000; stroke-width: 0.8; stroke-linejoin: miter; stroke-linecap: square"/>
   </g>
   <g id="patch_5">
    <path d="M 65.192813 247.877344 
L 567.392813 247.877344 
" style="fill: none; stroke: #000000; stroke-width: 0.8; stroke-linejoin: miter; stroke-linecap: square"/>
   </g>
   <g id="patch_6">
    <path d="M 65.192813 26.117344 
L 567.392813 26.117344 
" style="fill: none; stroke: #000000; stroke-width: 0.8; stroke-linejoin: miter; stroke-linecap: square"/>
   </g>
   <g id="text_16">
    <!-- Create Many Type-1 VMs (CPU) -->
    <g transform="translate(184.800469 20.117344) scale(0.17 -0.17)">
     <defs>
      <path id="DejaVuSans-43" d="M 4122 4306 
L 4122 3641 
Q 3803 3938 3442 4084 
Q 3081 4231 2675 4231 
Q 1875 4231 1450 3742 
Q 1025 3253 1025 2328 
Q 1025 1406 1450 917 
Q 1875 428 2675 428 
Q 3081 428 3442 575 
Q 3803 722 4122 1019 
L 4122 359 
Q 3791 134 3420 21 
Q 3050 -91 2638 -91 
Q 1578 -91 968 557 
Q 359 1206 359 2328 
Q 359 3453 968 4101 
Q 1578 4750 2638 4750 
Q 3056 4750 3426 4639 
Q 3797 4528 4122 4306 
z
" transform="scale(0.015625)"/>
      <path id="DejaVuSans-72" d="M 2631 2963 
Q 2534 3019 2420 3045 
Q 2306 3072 2169 3072 
Q 1681 3072 1420 2755 
Q 1159 2438 1159 1844 
L 1159 0 
L 581 0 
L 581 3500 
L 1159 3500 
L 1159 2956 
Q 1341 3275 1631 3429 
Q 1922 3584 2338 3584 
Q 2397 3584 2469 3576 
Q 2541 3569 2628 3553 
L 2631 2963 
z
" transform="scale(0.015625)"/>
      <path id="DejaVuSans-4d" d="M 628 4666 
L 1569 4666 
L 2759 1491 
L 3956 4666 
L 4897 4666 
L 4897 0 
L 4281 0 
L 4281 4097 
L 3078 897 
L 2444 897 
L 1241 4097 
L 1241 0 
L 628 0 
L 628 4666 
z
" transform="scale(0.015625)"/>
      <path id="DejaVuSans-79" d="M 2059 -325 
Q 1816 -950 1584 -1140 
Q 1353 -1331 966 -1331 
L 506 -1331 
L 506 -850 
L 844 -850 
Q 1081 -850 1212 -737 
Q 1344 -625 1503 -206 
L 1606 56 
L 191 3500 
L 800 3500 
L 1894 763 
L 2988 3500 
L 3597 3500 
L 2059 -325 
z
" transform="scale(0.015625)"/>
      <path id="DejaVuSans-70" d="M 1159 525 
L 1159 -1331 
L 581 -1331 
L 581 3500 
L 1159 3500 
L 1159 2969 
Q 1341 3281 1617 3432 
Q 1894 3584 2278 3584 
Q 2916 3584 3314 3078 
Q 3713 2572 3713 1747 
Q 3713 922 3314 415 
Q 2916 -91 2278 -91 
Q 1894 -91 1617 61 
Q 1341 213 1159 525 
z
M 3116 1747 
Q 3116 2381 2855 2742 
Q 2594 3103 2138 3103 
Q 1681 3103 1420 2742 
Q 1159 2381 1159 1747 
Q 1159 1113 1420 752 
Q 1681 391 2138 391 
Q 2594 391 2855 752 
Q 3116 1113 3116 1747 
z
" transform="scale(0.015625)"/>
      <path id="DejaVuSans-2d" d="M 313 2009 
L 1997 2009 
L 1997 1497 
L 313 1497 
L 313 2009 
z
" transform="scale(0.015625)"/>
      <path id="DejaVuSans-56" d="M 1831 0 
L 50 4666 
L 709 4666 
L 2188 738 
L 3669 4666 
L 4325 4666 
L 2547 0 
L 1831 0 
z
" transform="scale(0.015625)"/>
      <path id="DejaVuSans-50" d="M 1259 4147 
L 1259 2394 
L 2053 2394 
Q 2494 2394 2734 2622 
Q 2975 2850 2975 3272 
Q 2975 3691 2734 3919 
Q 2494 4147 2053 4147 
L 1259 4147 
z
M 628 4666 
L 2053 4666 
Q 2838 4666 3239 4311 
Q 3641 3956 3641 3272 
Q 3641 2581 3239 2228 
Q 2838 1875 2053 1875 
L 1259 1875 
L 1259 0 
L 628 0 
L 628 4666 
z
" transform="scale(0.015625)"/>
     </defs>
     <use xlink:href="#DejaVuSans-43"/>
     <use xlink:href="#DejaVuSans-72" x="69.824219"/>
     <use xlink:href="#DejaVuSans-65" x="108.6875"/>
     <use xlink:href="#DejaVuSans-61" x="170.210938"/>
     <use xlink:href="#DejaVuSans-74" x="231.490234"/>
     <use xlink:href="#DejaVuSans-65" x="270.699219"/>
     <use xlink:href="#DejaVuSans-20" x="332.222656"/>
     <use xlink:href="#DejaVuSans-4d" x="364.009766"/>
     <use xlink:href="#DejaVuSans-61" x="450.289062"/>
     <use xlink:href="#DejaVuSans-6e" x="511.568359"/>
     <use xlink:href="#DejaVuSans-79" x="574.947266"/>
     <use xlink:href="#DejaVuSans-20" x="634.126953"/>
     <use xlink:href="#DejaVuSans-54" x="665.914062"/>
     <use xlink:href="#DejaVuSans-79" x="711.373047"/>
     <use xlink:href="#DejaVuSans-70" x="770.552734"/>
     <use xlink:href="#DejaVuSans-65" x="834.029297"/>
     <use xlink:href="#DejaVuSans-2d" x="895.552734"/>
     <use xlink:href="#DejaVuSans-31" x="931.636719"/>
     <use xlink:href="#DejaVuSans-20" x="995.259766"/>
     <use xlink:href="#DejaVuSans-56" x="1027.046875"/>
     <use xlink:href="#DejaVuSans-4d" x="1095.455078"/>
     <use xlink:href="#DejaVuSans-73" x="1181.734375"/>
     <use xlink:href="#DejaVuSans-20" x="1233.833984"/>
     <use xlink:href="#DejaVuSans-28" x="1265.621094"/>
     <use xlink:href="#DejaVuSans-43" x="1304.634766"/>
     <use xlink:href="#DejaVuSans-50" x="1374.458984"/>
     <use xlink:href="#DejaVuSans-55" x="1434.761719"/>
     <use xlink:href="#DejaVuSans-29" x="1507.955078"/>
    </g>
   </g>
   <g id="legend_1">
    <g id="patch_7">
     <path d="M 400.807813 85.887344 
L 556.192812 85.887344 
Q 559.392812 85.887344 559.392812 82.687344 
L 559.392812 37.317344 
Q 559.392812 34.117344 556.192812 34.117344 
L 400.807813 34.117344 
Q 397.607813 34.117344 397.607813 37.317344 
L 397.607813 82.687344 
Q 397.607813 85.887344 400.807813 85.887344 
z
" style="fill: #ffffff; opacity: 0.8; stroke: #cccccc; stroke-linejoin: miter"/>
    </g>
    <g id="line2d_16">
     <path d="M 404.007813 47.074844 
L 420.007813 47.074844 
L 436.007813 47.074844 
" style="fill: none; stroke: #009384; stroke-width: 2.5; stroke-linecap: square"/>
    </g>
    <g id="text_17">
     <!-- KubeVirt  -->
     <g transform="translate(448.807813 52.674844) scale(0.16 -0.16)">
      <defs>
       <path id="DejaVuSans-4b" d="M 628 4666 
L 1259 4666 
L 1259 2694 
L 3353 4666 
L 4166 4666 
L 1850 2491 
L 4331 0 
L 3500 0 
L 1259 2247 
L 1259 0 
L 628 0 
L 628 4666 
z
" transform="scale(0.015625)"/>
       <path id="DejaVuSans-75" d="M 544 1381 
L 544 3500 
L 1119 3500 
L 1119 1403 
Q 1119 906 1312 657 
Q 1506 409 1894 409 
Q 2359 409 2629 706 
Q 2900 1003 2900 1516 
L 2900 3500 
L 3475 3500 
L 3475 0 
L 2900 0 
L 2900 538 
Q 2691 219 2414 64 
Q 2138 -91 1772 -91 
Q 1169 -91 856 284 
Q 544 659 544 1381 
z
M 1991 3584 
L 1991 3584 
z
" transform="scale(0.015625)"/>
       <path id="DejaVuSans-62" d="M 3116 1747 
Q 3116 2381 2855 2742 
Q 2594 3103 2138 3103 
Q 1681 3103 1420 2742 
Q 1159 2381 1159 1747 
Q 1159 1113 1420 752 
Q 1681 391 2138 391 
Q 2594 391 2855 752 
Q 3116 1113 3116 1747 
z
M 1159 2969 
Q 1341 3281 1617 3432 
Q 1894 3584 2278 3584 
Q 2916 3584 3314 3078 
Q 3713 2572 3713 1747 
Q 3713 922 3314 415 
Q 2916 -91 2278 -91 
Q 1894 -91 1617 61 
Q 1341 213 1159 525 
L 1159 0 
L 581 0 
L 581 4863 
L 1159 4863 
L 1159 2969 
z
" transform="scale(0.015625)"/>
      </defs>
      <use xlink:href="#DejaVuSans-4b"/>
      <use xlink:href="#DejaVuSans-75" x="60.576172"/>
      <use xlink:href="#DejaVuSans-62" x="123.955078"/>
      <use xlink:href="#DejaVuSans-65" x="187.431641"/>
      <use xlink:href="#DejaVuSans-56" x="248.955078"/>
      <use xlink:href="#DejaVuSans-69" x="315.113281"/>
      <use xlink:href="#DejaVuSans-72" x="342.896484"/>
      <use xlink:href="#DejaVuSans-74" x="384.009766"/>
      <use xlink:href="#DejaVuSans-20" x="423.21875"/>
     </g>
    </g>
    <g id="line2d_17">
     <path d="M 404.007813 70.559844 
L 420.007813 70.559844 
L 436.007813 70.559844 
" style="fill: none; stroke: #b85741; stroke-width: 2.5; stroke-linecap: square"/>
    </g>
    <g id="text_18">
     <!-- OpenNebula  -->
     <g transform="translate(448.807813 76.159844) scale(0.16 -0.16)">
      <defs>
       <path id="DejaVuSans-4f" d="M 2522 4238 
Q 1834 4238 1429 3725 
Q 1025 3213 1025 2328 
Q 1025 1447 1429 934 
Q 1834 422 2522 422 
Q 3209 422 3611 934 
Q 4013 1447 4013 2328 
Q 4013 3213 3611 3725 
Q 3209 4238 2522 4238 
z
M 2522 4750 
Q 3503 4750 4090 4092 
Q 4678 3434 4678 2328 
Q 4678 1225 4090 567 
Q 3503 -91 2522 -91 
Q 1538 -91 948 565 
Q 359 1222 359 2328 
Q 359 3434 948 4092 
Q 1538 4750 2522 4750 
z
" transform="scale(0.015625)"/>
       <path id="DejaVuSans-4e" d="M 628 4666 
L 1478 4666 
L 3547 763 
L 3547 4666 
L 4159 4666 
L 4159 0 
L 3309 0 
L 1241 3903 
L 1241 0 
L 628 0 
L 628 4666 
z
" transform="scale(0.015625)"/>
      </defs>
      <use xlink:href="#DejaVuSans-4f"/>
      <use xlink:href="#DejaVuSans-70" x="78.710938"/>
      <use xlink:href="#DejaVuSans-65" x="142.1875"/>
      <use xlink:href="#DejaVuSans-6e" x="203.710938"/>
      <use xlink:href="#DejaVuSans-4e" x="267.089844"/>
      <use xlink:href="#DejaVuSans-65" x="341.894531"/>
      <use xlink:href="#DejaVuSans-62" x="403.417969"/>
      <use xlink:href="#DejaVuSans-75" x="466.894531"/>
      <use xlink:href="#DejaVuSans-6c" x="530.273438"/>
      <use xlink:href="#DejaVuSans-61" x="558.056641"/>
      <use xlink:href="#DejaVuSans-20" x="619.335938"/>
     </g>
    </g>
   </g>
  </g>
 </g>
 <defs>
  <clipPath id="pb1bd2ec1da">
   <rect x="65.192813" y="26.117344" width="502.2" height="221.76"/>
  </clipPath>
 </defs>
</svg>
