<?xml version="1.0" encoding="utf-8" standalone="no"?>
<!DOCTYPE svg PUBLIC "-//W3C//DTD SVG 1.1//EN"
  "http://www.w3.org/Graphics/SVG/1.1/DTD/svg11.dtd">
<svg xmlns:xlink="http://www.w3.org/1999/xlink" width="555.451562pt" height="287.233281pt" viewBox="0 0 555.451562 287.233281" xmlns="http://www.w3.org/2000/svg" version="1.1">
 <metadata>
  <rdf:RDF xmlns:dc="http://purl.org/dc/elements/1.1/" xmlns:cc="http://creativecommons.org/ns#" xmlns:rdf="http://www.w3.org/1999/02/22-rdf-syntax-ns#">
   <cc:Work>
    <dc:type rdf:resource="http://purl.org/dc/dcmitype/StillImage"/>
    <dc:date>2024-05-21T10:08:03.670252</dc:date>
    <dc:format>image/svg+xml</dc:format>
    <dc:creator>
     <cc:Agent>
      <dc:title>Matplotlib v3.8.4, https://matplotlib.org/</dc:title>
     </cc:Agent>
    </dc:creator>
   </cc:Work>
  </rdf:RDF>
 </metadata>
 <defs>
  <style type="text/css">*{stroke-linejoin: round; stroke-linecap: butt}</style>
 </defs>
 <g id="figure_1">
  <g id="patch_1">
   <path d="M 0 287.233281 
L 555.451562 287.233281 
L 555.451562 0 
L 0 0 
z
" style="fill: #f3f7f8"/>
  </g>
  <g id="axes_1">
   <g id="patch_2">
    <path d="M 46.051562 244.837969 
L 548.251563 244.837969 
L 548.251563 23.077969 
L 46.051562 23.077969 
z
" style="fill: #ffffff"/>
   </g>
   <g id="matplotlib.axis_1">
    <g id="xtick_1">
     <g id="line2d_1">
      <defs>
       <path id="m5fb67bfaf1" d="M 0 0 
L 0 3.5 
" style="stroke: #000000; stroke-width: 0.8"/>
      </defs>
      <g>
       <use xlink:href="#m5fb67bfaf1" x="48.033602" y="244.837969" style="stroke: #000000; stroke-width: 0.8"/>
      </g>
     </g>
     <g id="text_1">
      <!-- −5 -->
      <g transform="translate(39.188289 260.956094) scale(0.12 -0.12)">
       <defs>
        <path id="DejaVuSans-2212" d="M 678 2272 
L 4684 2272 
L 4684 1741 
L 678 1741 
L 678 2272 
z
" transform="scale(0.015625)"/>
        <path id="DejaVuSans-35" d="M 691 4666 
L 3169 4666 
L 3169 4134 
L 1269 4134 
L 1269 2991 
Q 1406 3038 1543 3061 
Q 1681 3084 1819 3084 
Q 2600 3084 3056 2656 
Q 3513 2228 3513 1497 
Q 3513 744 3044 326 
Q 2575 -91 1722 -91 
Q 1428 -91 1123 -41 
Q 819 9 494 109 
L 494 744 
Q 775 591 1075 516 
Q 1375 441 1709 441 
Q 2250 441 2565 725 
Q 2881 1009 2881 1497 
Q 2881 1984 2565 2268 
Q 2250 2553 1709 2553 
Q 1456 2553 1204 2497 
Q 953 2441 691 2322 
L 691 4666 
z
" transform="scale(0.015625)"/>
       </defs>
       <use xlink:href="#DejaVuSans-2212"/>
       <use xlink:href="#DejaVuSans-35" x="83.789062"/>
      </g>
     </g>
    </g>
    <g id="xtick_2">
     <g id="line2d_2">
      <g>
       <use xlink:href="#m5fb67bfaf1" x="115.742565" y="244.837969" style="stroke: #000000; stroke-width: 0.8"/>
      </g>
     </g>
     <g id="text_2">
      <!-- 0 -->
      <g transform="translate(111.925065 260.956094) scale(0.12 -0.12)">
       <defs>
        <path id="DejaVuSans-30" d="M 2034 4250 
Q 1547 4250 1301 3770 
Q 1056 3291 1056 2328 
Q 1056 1369 1301 889 
Q 1547 409 2034 409 
Q 2525 409 2770 889 
Q 3016 1369 3016 2328 
Q 3016 3291 2770 3770 
Q 2525 4250 2034 4250 
z
M 2034 4750 
Q 2819 4750 3233 4129 
Q 3647 3509 3647 2328 
Q 3647 1150 3233 529 
Q 2819 -91 2034 -91 
Q 1250 -91 836 529 
Q 422 1150 422 2328 
Q 422 3509 836 4129 
Q 1250 4750 2034 4750 
z
" transform="scale(0.015625)"/>
       </defs>
       <use xlink:href="#DejaVuSans-30"/>
      </g>
     </g>
    </g>
    <g id="xtick_3">
     <g id="line2d_3">
      <g>
       <use xlink:href="#m5fb67bfaf1" x="183.451529" y="244.837969" style="stroke: #000000; stroke-width: 0.8"/>
      </g>
     </g>
     <g id="text_3">
      <!-- 5 -->
      <g transform="translate(179.634029 260.956094) scale(0.12 -0.12)">
       <use xlink:href="#DejaVuSans-35"/>
      </g>
     </g>
    </g>
    <g id="xtick_4">
     <g id="line2d_4">
      <g>
       <use xlink:href="#m5fb67bfaf1" x="251.160493" y="244.837969" style="stroke: #000000; stroke-width: 0.8"/>
      </g>
     </g>
     <g id="text_4">
      <!-- 10 -->
      <g transform="translate(243.525493 260.956094) scale(0.12 -0.12)">
       <defs>
        <path id="DejaVuSans-31" d="M 794 531 
L 1825 531 
L 1825 4091 
L 703 3866 
L 703 4441 
L 1819 4666 
L 2450 4666 
L 2450 531 
L 3481 531 
L 3481 0 
L 794 0 
L 794 531 
z
" transform="scale(0.015625)"/>
       </defs>
       <use xlink:href="#DejaVuSans-31"/>
       <use xlink:href="#DejaVuSans-30" x="63.623047"/>
      </g>
     </g>
    </g>
    <g id="xtick_5">
     <g id="line2d_5">
      <g>
       <use xlink:href="#m5fb67bfaf1" x="318.869456" y="244.837969" style="stroke: #000000; stroke-width: 0.8"/>
      </g>
     </g>
     <g id="text_5">
      <!-- 15 -->
      <g transform="translate(311.234456 260.956094) scale(0.12 -0.12)">
       <use xlink:href="#DejaVuSans-31"/>
       <use xlink:href="#DejaVuSans-35" x="63.623047"/>
      </g>
     </g>
    </g>
    <g id="xtick_6">
     <g id="line2d_6">
      <g>
       <use xlink:href="#m5fb67bfaf1" x="386.57842" y="244.837969" style="stroke: #000000; stroke-width: 0.8"/>
      </g>
     </g>
     <g id="text_6">
      <!-- 20 -->
      <g transform="translate(378.94342 260.956094) scale(0.12 -0.12)">
       <defs>
        <path id="DejaVuSans-32" d="M 1228 531 
L 3431 531 
L 3431 0 
L 469 0 
L 469 531 
Q 828 903 1448 1529 
Q 2069 2156 2228 2338 
Q 2531 2678 2651 2914 
Q 2772 3150 2772 3378 
Q 2772 3750 2511 3984 
Q 2250 4219 1831 4219 
Q 1534 4219 1204 4116 
Q 875 4013 500 3803 
L 500 4441 
Q 881 4594 1212 4672 
Q 1544 4750 1819 4750 
Q 2544 4750 2975 4387 
Q 3406 4025 3406 3419 
Q 3406 3131 3298 2873 
Q 3191 2616 2906 2266 
Q 2828 2175 2409 1742 
Q 1991 1309 1228 531 
z
" transform="scale(0.015625)"/>
       </defs>
       <use xlink:href="#DejaVuSans-32"/>
       <use xlink:href="#DejaVuSans-30" x="63.623047"/>
      </g>
     </g>
    </g>
    <g id="xtick_7">
     <g id="line2d_7">
      <g>
       <use xlink:href="#m5fb67bfaf1" x="454.287384" y="244.837969" style="stroke: #000000; stroke-width: 0.8"/>
      </g>
     </g>
     <g id="text_7">
      <!-- 25 -->
      <g transform="translate(446.652384 260.956094) scale(0.12 -0.12)">
       <use xlink:href="#DejaVuSans-32"/>
       <use xlink:href="#DejaVuSans-35" x="63.623047"/>
      </g>
     </g>
    </g>
    <g id="xtick_8">
     <g id="line2d_8">
      <g>
       <use xlink:href="#m5fb67bfaf1" x="521.996347" y="244.837969" style="stroke: #000000; stroke-width: 0.8"/>
      </g>
     </g>
     <g id="text_8">
      <!-- 30 -->
      <g transform="translate(514.361347 260.956094) scale(0.12 -0.12)">
       <defs>
        <path id="DejaVuSans-33" d="M 2597 2516 
Q 3050 2419 3304 2112 
Q 3559 1806 3559 1356 
Q 3559 666 3084 287 
Q 2609 -91 1734 -91 
Q 1441 -91 1130 -33 
Q 819 25 488 141 
L 488 750 
Q 750 597 1062 519 
Q 1375 441 1716 441 
Q 2309 441 2620 675 
Q 2931 909 2931 1356 
Q 2931 1769 2642 2001 
Q 2353 2234 1838 2234 
L 1294 2234 
L 1294 2753 
L 1863 2753 
Q 2328 2753 2575 2939 
Q 2822 3125 2822 3475 
Q 2822 3834 2567 4026 
Q 2313 4219 1838 4219 
Q 1578 4219 1281 4162 
Q 984 4106 628 3988 
L 628 4550 
Q 988 4650 1302 4700 
Q 1616 4750 1894 4750 
Q 2613 4750 3031 4423 
Q 3450 4097 3450 3541 
Q 3450 3153 3228 2886 
Q 3006 2619 2597 2516 
z
" transform="scale(0.015625)"/>
       </defs>
       <use xlink:href="#DejaVuSans-33"/>
       <use xlink:href="#DejaVuSans-30" x="63.623047"/>
      </g>
     </g>
    </g>
    <g id="text_9">
     <!-- Time (s) -->
     <g transform="translate(270.723984 277.329687) scale(0.13 -0.13)">
      <defs>
       <path id="DejaVuSans-54" d="M -19 4666 
L 3928 4666 
L 3928 4134 
L 2272 4134 
L 2272 0 
L 1638 0 
L 1638 4134 
L -19 4134 
L -19 4666 
z
" transform="scale(0.015625)"/>
       <path id="DejaVuSans-69" d="M 603 3500 
L 1178 3500 
L 1178 0 
L 603 0 
L 603 3500 
z
M 603 4863 
L 1178 4863 
L 1178 4134 
L 603 4134 
L 603 4863 
z
" transform="scale(0.015625)"/>
       <path id="DejaVuSans-6d" d="M 3328 2828 
Q 3544 3216 3844 3400 
Q 4144 3584 4550 3584 
Q 5097 3584 5394 3201 
Q 5691 2819 5691 2113 
L 5691 0 
L 5113 0 
L 5113 2094 
Q 5113 2597 4934 2840 
Q 4756 3084 4391 3084 
Q 3944 3084 3684 2787 
Q 3425 2491 3425 1978 
L 3425 0 
L 2847 0 
L 2847 2094 
Q 2847 2600 2669 2842 
Q 2491 3084 2119 3084 
Q 1678 3084 1418 2786 
Q 1159 2488 1159 1978 
L 1159 0 
L 581 0 
L 581 3500 
L 1159 3500 
L 1159 2956 
Q 1356 3278 1631 3431 
Q 1906 3584 2284 3584 
Q 2666 3584 2933 3390 
Q 3200 3197 3328 2828 
z
" transform="scale(0.015625)"/>
       <path id="DejaVuSans-65" d="M 3597 1894 
L 3597 1613 
L 953 1613 
Q 991 1019 1311 708 
Q 1631 397 2203 397 
Q 2534 397 2845 478 
Q 3156 559 3463 722 
L 3463 178 
Q 3153 47 2828 -22 
Q 2503 -91 2169 -91 
Q 1331 -91 842 396 
Q 353 884 353 1716 
Q 353 2575 817 3079 
Q 1281 3584 2069 3584 
Q 2775 3584 3186 3129 
Q 3597 2675 3597 1894 
z
M 3022 2063 
Q 3016 2534 2758 2815 
Q 2500 3097 2075 3097 
Q 1594 3097 1305 2825 
Q 1016 2553 972 2059 
L 3022 2063 
z
" transform="scale(0.015625)"/>
       <path id="DejaVuSans-20" transform="scale(0.015625)"/>
       <path id="DejaVuSans-28" d="M 1984 4856 
Q 1566 4138 1362 3434 
Q 1159 2731 1159 2009 
Q 1159 1288 1364 580 
Q 1569 -128 1984 -844 
L 1484 -844 
Q 1016 -109 783 600 
Q 550 1309 550 2009 
Q 550 2706 781 3412 
Q 1013 4119 1484 4856 
L 1984 4856 
z
" transform="scale(0.015625)"/>
       <path id="DejaVuSans-73" d="M 2834 3397 
L 2834 2853 
Q 2591 2978 2328 3040 
Q 2066 3103 1784 3103 
Q 1356 3103 1142 2972 
Q 928 2841 928 2578 
Q 928 2378 1081 2264 
Q 1234 2150 1697 2047 
L 1894 2003 
Q 2506 1872 2764 1633 
Q 3022 1394 3022 966 
Q 3022 478 2636 193 
Q 2250 -91 1575 -91 
Q 1294 -91 989 -36 
Q 684 19 347 128 
L 347 722 
Q 666 556 975 473 
Q 1284 391 1588 391 
Q 1994 391 2212 530 
Q 2431 669 2431 922 
Q 2431 1156 2273 1281 
Q 2116 1406 1581 1522 
L 1381 1569 
Q 847 1681 609 1914 
Q 372 2147 372 2553 
Q 372 3047 722 3315 
Q 1072 3584 1716 3584 
Q 2034 3584 2315 3537 
Q 2597 3491 2834 3397 
z
" transform="scale(0.015625)"/>
       <path id="DejaVuSans-29" d="M 513 4856 
L 1013 4856 
Q 1481 4119 1714 3412 
Q 1947 2706 1947 2009 
Q 1947 1309 1714 600 
Q 1481 -109 1013 -844 
L 513 -844 
Q 928 -128 1133 580 
Q 1338 1288 1338 2009 
Q 1338 2731 1133 3434 
Q 928 4138 513 4856 
z
" transform="scale(0.015625)"/>
      </defs>
      <use xlink:href="#DejaVuSans-54"/>
      <use xlink:href="#DejaVuSans-69" x="57.958984"/>
      <use xlink:href="#DejaVuSans-6d" x="85.742188"/>
      <use xlink:href="#DejaVuSans-65" x="183.154297"/>
      <use xlink:href="#DejaVuSans-20" x="244.677734"/>
      <use xlink:href="#DejaVuSans-28" x="276.464844"/>
      <use xlink:href="#DejaVuSans-73" x="315.478516"/>
      <use xlink:href="#DejaVuSans-29" x="367.578125"/>
     </g>
    </g>
   </g>
   <g id="matplotlib.axis_2">
    <g id="ytick_1">
     <g id="line2d_9">
      <defs>
       <path id="m176968d90a" d="M 0 0 
L -3.5 0 
" style="stroke: #000000; stroke-width: 0.8"/>
      </defs>
      <g>
       <use xlink:href="#m176968d90a" x="46.051562" y="236.70082" style="stroke: #000000; stroke-width: 0.8"/>
      </g>
     </g>
     <g id="text_10">
      <!-- 2 -->
      <g transform="translate(31.416562 241.259883) scale(0.12 -0.12)">
       <use xlink:href="#DejaVuSans-32"/>
      </g>
     </g>
    </g>
    <g id="ytick_2">
     <g id="line2d_10">
      <g>
       <use xlink:href="#m176968d90a" x="46.051562" y="203.259435" style="stroke: #000000; stroke-width: 0.8"/>
      </g>
     </g>
     <g id="text_11">
      <!-- 4 -->
      <g transform="translate(31.416562 207.818497) scale(0.12 -0.12)">
       <defs>
        <path id="DejaVuSans-34" d="M 2419 4116 
L 825 1625 
L 2419 1625 
L 2419 4116 
z
M 2253 4666 
L 3047 4666 
L 3047 1625 
L 3713 1625 
L 3713 1100 
L 3047 1100 
L 3047 0 
L 2419 0 
L 2419 1100 
L 313 1100 
L 313 1709 
L 2253 4666 
z
" transform="scale(0.015625)"/>
       </defs>
       <use xlink:href="#DejaVuSans-34"/>
      </g>
     </g>
    </g>
    <g id="ytick_3">
     <g id="line2d_11">
      <g>
       <use xlink:href="#m176968d90a" x="46.051562" y="169.818049" style="stroke: #000000; stroke-width: 0.8"/>
      </g>
     </g>
     <g id="text_12">
      <!-- 6 -->
      <g transform="translate(31.416562 174.377112) scale(0.12 -0.12)">
       <defs>
        <path id="DejaVuSans-36" d="M 2113 2584 
Q 1688 2584 1439 2293 
Q 1191 2003 1191 1497 
Q 1191 994 1439 701 
Q 1688 409 2113 409 
Q 2538 409 2786 701 
Q 3034 994 3034 1497 
Q 3034 2003 2786 2293 
Q 2538 2584 2113 2584 
z
M 3366 4563 
L 3366 3988 
Q 3128 4100 2886 4159 
Q 2644 4219 2406 4219 
Q 1781 4219 1451 3797 
Q 1122 3375 1075 2522 
Q 1259 2794 1537 2939 
Q 1816 3084 2150 3084 
Q 2853 3084 3261 2657 
Q 3669 2231 3669 1497 
Q 3669 778 3244 343 
Q 2819 -91 2113 -91 
Q 1303 -91 875 529 
Q 447 1150 447 2328 
Q 447 3434 972 4092 
Q 1497 4750 2381 4750 
Q 2619 4750 2861 4703 
Q 3103 4656 3366 4563 
z
" transform="scale(0.015625)"/>
       </defs>
       <use xlink:href="#DejaVuSans-36"/>
      </g>
     </g>
    </g>
    <g id="ytick_4">
     <g id="line2d_12">
      <g>
       <use xlink:href="#m176968d90a" x="46.051562" y="136.376663" style="stroke: #000000; stroke-width: 0.8"/>
      </g>
     </g>
     <g id="text_13">
      <!-- 8 -->
      <g transform="translate(31.416562 140.935726) scale(0.12 -0.12)">
       <defs>
        <path id="DejaVuSans-38" d="M 2034 2216 
Q 1584 2216 1326 1975 
Q 1069 1734 1069 1313 
Q 1069 891 1326 650 
Q 1584 409 2034 409 
Q 2484 409 2743 651 
Q 3003 894 3003 1313 
Q 3003 1734 2745 1975 
Q 2488 2216 2034 2216 
z
M 1403 2484 
Q 997 2584 770 2862 
Q 544 3141 544 3541 
Q 544 4100 942 4425 
Q 1341 4750 2034 4750 
Q 2731 4750 3128 4425 
Q 3525 4100 3525 3541 
Q 3525 3141 3298 2862 
Q 3072 2584 2669 2484 
Q 3125 2378 3379 2068 
Q 3634 1759 3634 1313 
Q 3634 634 3220 271 
Q 2806 -91 2034 -91 
Q 1263 -91 848 271 
Q 434 634 434 1313 
Q 434 1759 690 2068 
Q 947 2378 1403 2484 
z
M 1172 3481 
Q 1172 3119 1398 2916 
Q 1625 2713 2034 2713 
Q 2441 2713 2670 2916 
Q 2900 3119 2900 3481 
Q 2900 3844 2670 4047 
Q 2441 4250 2034 4250 
Q 1625 4250 1398 4047 
Q 1172 3844 1172 3481 
z
" transform="scale(0.015625)"/>
       </defs>
       <use xlink:href="#DejaVuSans-38"/>
      </g>
     </g>
    </g>
    <g id="ytick_5">
     <g id="line2d_13">
      <g>
       <use xlink:href="#m176968d90a" x="46.051562" y="102.935278" style="stroke: #000000; stroke-width: 0.8"/>
      </g>
     </g>
     <g id="text_14">
      <!-- 10 -->
      <g transform="translate(23.781562 107.49434) scale(0.12 -0.12)">
       <use xlink:href="#DejaVuSans-31"/>
       <use xlink:href="#DejaVuSans-30" x="63.623047"/>
      </g>
     </g>
    </g>
    <g id="ytick_6">
     <g id="line2d_14">
      <g>
       <use xlink:href="#m176968d90a" x="46.051562" y="69.493892" style="stroke: #000000; stroke-width: 0.8"/>
      </g>
     </g>
     <g id="text_15">
      <!-- 12 -->
      <g transform="translate(23.781562 74.052955) scale(0.12 -0.12)">
       <use xlink:href="#DejaVuSans-31"/>
       <use xlink:href="#DejaVuSans-32" x="63.623047"/>
      </g>
     </g>
    </g>
    <g id="ytick_7">
     <g id="line2d_15">
      <g>
       <use xlink:href="#m176968d90a" x="46.051562" y="36.052506" style="stroke: #000000; stroke-width: 0.8"/>
      </g>
     </g>
     <g id="text_16">
      <!-- 14 -->
      <g transform="translate(23.781562 40.611569) scale(0.12 -0.12)">
       <use xlink:href="#DejaVuSans-31"/>
       <use xlink:href="#DejaVuSans-34" x="63.623047"/>
      </g>
     </g>
    </g>
    <g id="text_17">
     <!-- Utilization (%) -->
     <g transform="translate(17.077969 179.839844) rotate(-90) scale(0.13 -0.13)">
      <defs>
       <path id="DejaVuSans-55" d="M 556 4666 
L 1191 4666 
L 1191 1831 
Q 1191 1081 1462 751 
Q 1734 422 2344 422 
Q 2950 422 3222 751 
Q 3494 1081 3494 1831 
L 3494 4666 
L 4128 4666 
L 4128 1753 
Q 4128 841 3676 375 
Q 3225 -91 2344 -91 
Q 1459 -91 1007 375 
Q 556 841 556 1753 
L 556 4666 
z
" transform="scale(0.015625)"/>
       <path id="DejaVuSans-74" d="M 1172 4494 
L 1172 3500 
L 2356 3500 
L 2356 3053 
L 1172 3053 
L 1172 1153 
Q 1172 725 1289 603 
Q 1406 481 1766 481 
L 2356 481 
L 2356 0 
L 1766 0 
Q 1100 0 847 248 
Q 594 497 594 1153 
L 594 3053 
L 172 3053 
L 172 3500 
L 594 3500 
L 594 4494 
L 1172 4494 
z
" transform="scale(0.015625)"/>
       <path id="DejaVuSans-6c" d="M 603 4863 
L 1178 4863 
L 1178 0 
L 603 0 
L 603 4863 
z
" transform="scale(0.015625)"/>
       <path id="DejaVuSans-7a" d="M 353 3500 
L 3084 3500 
L 3084 2975 
L 922 459 
L 3084 459 
L 3084 0 
L 275 0 
L 275 525 
L 2438 3041 
L 353 3041 
L 353 3500 
z
" transform="scale(0.015625)"/>
       <path id="DejaVuSans-61" d="M 2194 1759 
Q 1497 1759 1228 1600 
Q 959 1441 959 1056 
Q 959 750 1161 570 
Q 1363 391 1709 391 
Q 2188 391 2477 730 
Q 2766 1069 2766 1631 
L 2766 1759 
L 2194 1759 
z
M 3341 1997 
L 3341 0 
L 2766 0 
L 2766 531 
Q 2569 213 2275 61 
Q 1981 -91 1556 -91 
Q 1019 -91 701 211 
Q 384 513 384 1019 
Q 384 1609 779 1909 
Q 1175 2209 1959 2209 
L 2766 2209 
L 2766 2266 
Q 2766 2663 2505 2880 
Q 2244 3097 1772 3097 
Q 1472 3097 1187 3025 
Q 903 2953 641 2809 
L 641 3341 
Q 956 3463 1253 3523 
Q 1550 3584 1831 3584 
Q 2591 3584 2966 3190 
Q 3341 2797 3341 1997 
z
" transform="scale(0.015625)"/>
       <path id="DejaVuSans-6f" d="M 1959 3097 
Q 1497 3097 1228 2736 
Q 959 2375 959 1747 
Q 959 1119 1226 758 
Q 1494 397 1959 397 
Q 2419 397 2687 759 
Q 2956 1122 2956 1747 
Q 2956 2369 2687 2733 
Q 2419 3097 1959 3097 
z
M 1959 3584 
Q 2709 3584 3137 3096 
Q 3566 2609 3566 1747 
Q 3566 888 3137 398 
Q 2709 -91 1959 -91 
Q 1206 -91 779 398 
Q 353 888 353 1747 
Q 353 2609 779 3096 
Q 1206 3584 1959 3584 
z
" transform="scale(0.015625)"/>
       <path id="DejaVuSans-6e" d="M 3513 2113 
L 3513 0 
L 2938 0 
L 2938 2094 
Q 2938 2591 2744 2837 
Q 2550 3084 2163 3084 
Q 1697 3084 1428 2787 
Q 1159 2491 1159 1978 
L 1159 0 
L 581 0 
L 581 3500 
L 1159 3500 
L 1159 2956 
Q 1366 3272 1645 3428 
Q 1925 3584 2291 3584 
Q 2894 3584 3203 3211 
Q 3513 2838 3513 2113 
z
" transform="scale(0.015625)"/>
       <path id="DejaVuSans-25" d="M 4653 2053 
Q 4381 2053 4226 1822 
Q 4072 1591 4072 1178 
Q 4072 772 4226 539 
Q 4381 306 4653 306 
Q 4919 306 5073 539 
Q 5228 772 5228 1178 
Q 5228 1588 5073 1820 
Q 4919 2053 4653 2053 
z
M 4653 2450 
Q 5147 2450 5437 2106 
Q 5728 1763 5728 1178 
Q 5728 594 5436 251 
Q 5144 -91 4653 -91 
Q 4153 -91 3862 251 
Q 3572 594 3572 1178 
Q 3572 1766 3864 2108 
Q 4156 2450 4653 2450 
z
M 1428 4353 
Q 1159 4353 1004 4120 
Q 850 3888 850 3481 
Q 850 3069 1003 2837 
Q 1156 2606 1428 2606 
Q 1700 2606 1854 2837 
Q 2009 3069 2009 3481 
Q 2009 3884 1853 4118 
Q 1697 4353 1428 4353 
z
M 4250 4750 
L 4750 4750 
L 1831 -91 
L 1331 -91 
L 4250 4750 
z
M 1428 4750 
Q 1922 4750 2215 4408 
Q 2509 4066 2509 3481 
Q 2509 2891 2217 2550 
Q 1925 2209 1428 2209 
Q 931 2209 642 2551 
Q 353 2894 353 3481 
Q 353 4063 643 4406 
Q 934 4750 1428 4750 
z
" transform="scale(0.015625)"/>
      </defs>
      <use xlink:href="#DejaVuSans-55"/>
      <use xlink:href="#DejaVuSans-74" x="73.193359"/>
      <use xlink:href="#DejaVuSans-69" x="112.402344"/>
      <use xlink:href="#DejaVuSans-6c" x="140.185547"/>
      <use xlink:href="#DejaVuSans-69" x="167.96875"/>
      <use xlink:href="#DejaVuSans-7a" x="195.751953"/>
      <use xlink:href="#DejaVuSans-61" x="248.242188"/>
      <use xlink:href="#DejaVuSans-74" x="309.521484"/>
      <use xlink:href="#DejaVuSans-69" x="348.730469"/>
      <use xlink:href="#DejaVuSans-6f" x="376.513672"/>
      <use xlink:href="#DejaVuSans-6e" x="437.695312"/>
      <use xlink:href="#DejaVuSans-20" x="501.074219"/>
      <use xlink:href="#DejaVuSans-28" x="532.861328"/>
      <use xlink:href="#DejaVuSans-25" x="571.875"/>
      <use xlink:href="#DejaVuSans-29" x="666.894531"/>
     </g>
    </g>
   </g>
   <g id="line2d_16">
    <path d="M 68.878835 234.757969 
L 71.229907 234.475575 
L 72.160431 233.958162 
L 75.055558 233.608421 
L 75.18472 233.208518 
L 78.602167 233.02877 
L 82.930179 232.974893 
L 84.125228 232.74359 
L 88.634713 232.741732 
L 90.149484 232.393384 
L 92.086922 232.5095 
L 93.205406 231.986514 
L 93.608491 231.644204 
L 95.962421 230.999529 
L 98.313493 230.771012 
L 99.244017 230.248491 
L 102.154121 230.362749 
L 102.268305 230.127266 
L 105.685753 230.065957 
L 115.718298 226.814246 
L 116.204097 224.27781 
L 117.23307 222.131059 
L 120.692077 218.558869 
L 121.555312 217.495247 
L 121.887235 216.491076 
L 122.126221 215.386582 
L 123.046006 214.568661 
L 124.750606 213.513864 
L 126.013379 211.082397 
L 126.327602 208.760543 
L 127.081311 206.657451 
L 129.222729 206.5418 
L 129.351891 203.276155 
L 132.769338 202.574351 
L 133.830785 200.374186 
L 137.097349 197.801057 
L 144.316655 195.765313 
L 146.254093 192.685919 
L 148.638898 189.751437 
L 148.97082 186.690622 
L 149.209806 183.327904 
L 150.129592 180.1101 
L 151.834192 176.53791 
L 153.096964 170.330353 
L 153.411188 167.640179 
L 154.164897 165.212427 
L 156.306315 161.903588 
L 156.435476 153.37557 
L 156.829475 151.719292 
L 159.852924 148.903249 
L 160.91437 146.610656 
L 161.317455 143.245152 
L 164.180935 141.54986 
L 171.400241 139.10771 
L 173.337679 136.792823 
L 175.722483 134.982808 
L 176.293391 131.187675 
L 177.213177 129.491918 
L 178.917777 127.791052 
L 179.564249 125.213279 
L 180.18055 123.435776 
L 180.494773 119.956943 
L 181.248482 116.675043 
L 183.3899 115.098653 
L 183.519062 108.564113 
L 183.91306 105.593868 
L 186.936509 104.132201 
L 187.997956 101.428558 
L 188.401041 99.962246 
L 191.26452 96.294376 
L 200.421264 93.248888 
L 203.137991 89.728253 
L 203.376977 87.291212 
L 206.001363 84.112422 
L 206.647835 82.314483 
L 207.264135 79.558356 
L 207.578359 77.199809 
L 208.332068 75.600661 
L 210.473486 71.918393 
L 210.602647 65.622123 
L 210.996646 64.990452 
L 212.025619 65.120502 
L 214.020095 64.2566 
L 215.081541 64.796771 
L 215.484626 63.167897 
L 216.347861 61.127043 
L 217.838555 58.615224 
L 218.348106 56.393229 
L 233.084948 54.821484 
L 233.73142 51.562807 
L 235.415653 48.352434 
L 237.557071 47.244688 
L 237.572048 46.963223 
L 237.594433 47.263731 
L 238.080231 44.240537 
L 239.109204 42.888019 
L 241.046642 43.730091 
L 241.10368 42.051055 
L 242.165127 40.432399 
L 242.568212 40.549908 
L 243.431447 39.474675 
L 243.76337 40.225248 
L 244.002355 39.794226 
L 245.431691 41.266111 
L 247.889513 40.836947 
L 248.203737 40.987898 
L 251.228026 39.544344 
L 260.168534 39.864824 
L 264.640657 39.816985 
L 264.678019 41.007405 
L 265.163817 41.716177 
L 266.19279 42.415195 
L 268.130228 40.834625 
L 268.187266 39.398038 
L 269.248712 40.298169 
L 269.651797 39.086383 
L 270.515032 39.931243 
L 270.846955 39.236405 
L 271.085941 39.666963 
L 272.515277 38.216443 
L 274.356798 38.337668 
L 274.973099 38.14956 
L 275.287322 37.739903 
L 276.041032 37.574554 
L 278.311611 38.485832 
L 291.761604 36.587569 
L 292.247402 38.259173 
L 293.276375 37.627503 
L 295.213813 37.81654 
L 295.270851 36.862067 
L 296.332298 37.113806 
L 296.735383 37.519283 
L 297.598618 36.538335 
L 297.930541 35.698121 
L 298.169526 34.762226 
L 299.089312 35.145409 
L 299.598862 36.390636 
L 300.793912 37.160717 
L 301.440384 37.060393 
L 302.056684 36.770567 
L 302.370908 35.383679 
L 305.266035 34.011653 
L 305.395197 33.157969 
L 318.822805 37.01116 
L 318.845189 39.455632 
L 319.330988 39.874578 
L 320.359961 41.5708 
L 322.297399 41.61771 
L 323.415883 41.129095 
L 323.818968 41.810927 
L 324.682203 41.768197 
L 325.253112 45.694308 
L 326.172897 47.406321 
L 326.682448 50.730024 
L 327.877498 51.540977 
L 328.523969 53.041195 
L 329.454493 59.854877 
L 330.208203 58.669101 
L 332.34962 59.473552 
L 332.478782 58.894831 
L 335.896229 60.378328 
L 345.90639 61.746173 
L 345.928775 64.185072 
L 346.414573 67.999248 
L 347.443546 70.515248 
L 349.380984 70.416781 
L 350.499469 69.524547 
L 350.902554 73.177554 
L 351.765789 75.44135 
L 352.097712 78.30802 
L 352.336697 78.45061 
L 353.256483 81.637295 
L 354.961083 86.042733 
L 356.538079 93.332027 
L 357.291788 94.969261 
L 359.562367 97.833144 
L 362.979815 98.67243 
L 367.307826 101.596229 
L 373.01236 103.741122 
L 373.498159 107.125669 
L 374.527132 109.467031 
L 377.986139 113.929598 
L 378.849374 117.071695 
L 379.420283 121.016849 
L 380.340068 123.009398 
L 382.044668 125.107845 
L 383.307441 128.472885 
L 383.621664 132.144006 
L 384.375374 135.683219 
L 386.516791 137.242888 
L 386.645953 140.678991 
L 390.0634 143.227503 
L 391.124847 146.040759 
L 394.391412 148.545612 
L 400.095946 151.104343 
L 403.548155 154.941277 
L 405.069724 157.401077 
L 405.93296 160.740106 
L 406.264882 162.540832 
L 406.503868 165.178057 
L 407.423654 167.718673 
L 409.128254 171.362391 
L 410.391026 177.874636 
L 410.70525 181.276833 
L 411.458959 183.614014 
L 413.600377 183.324653 
L 413.729538 186.514125 
L 414.123537 186.344596 
L 415.15251 188.607928 
L 417.146986 191.448123 
L 418.208432 194.065376 
L 421.474997 195.620865 
L 433.016545 196.426245 
L 433.348468 197.990094 
L 434.507239 199.734155 
L 436.211839 199.618039 
L 436.858311 201.309152 
L 437.474612 204.182324 
L 437.788835 204.413627 
L 438.542544 204.353247 
L 440.683962 207.971419 
L 440.813124 213.610472 
L 441.207122 213.550557 
L 442.236096 213.721944 
L 444.173533 213.787433 
L 444.230571 214.076794 
L 445.292018 217.634586 
L 445.695103 220.800835 
L 447.129246 220.512403 
L 448.558582 220.683326 
L 460.100131 220.683326 
L 460.432053 223.182605 
L 463.295425 223.470572 
L 463.941897 223.239269 
L 464.558197 222.72325 
L 464.872421 221.807792 
L 465.62613 221.811508 
L 467.767548 223.030261 
L 467.782525 222.1645 
L 467.80491 223.598764 
L 467.896709 226.628925 
L 468.290708 226.086432 
L 472.375603 225.811934 
L 472.778688 224.926201 
L 474.212832 225.159827 
L 475.132617 224.679107 
L 492.709715 222.333565 
L 498.340704 222.45061 
L 498.397742 221.929017 
L 499.459189 221.226748 
L 501.296417 220.243943 
L 508.522088 219.590907 
L 525.42429 219.105078 
L 525.42429 219.105078 
" clip-path="url(#pe8dfc256dc)" style="fill: none; stroke: #009384; stroke-width: 2.5; stroke-linecap: square"/>
   </g>
   <g id="line2d_17">
    <path d="M 68.878835 146.933403 
L 71.229907 146.537055 
L 71.846208 146.926564 
L 72.160431 146.520924 
L 72.914141 146.5266 
L 75.18472 146.884437 
L 78.602167 147.048657 
L 82.930179 147.007921 
L 84.125228 147.28323 
L 88.634713 147.298416 
L 89.120511 147.163538 
L 90.149484 147.278302 
L 92.086922 146.892549 
L 93.205406 146.848099 
L 93.608491 147.188777 
L 94.471727 146.845394 
L 94.80365 146.482362 
L 95.042635 146.870036 
L 95.962421 147.309509 
L 98.929793 146.908094 
L 99.244017 146.508848 
L 99.997726 146.515258 
L 102.268305 146.876004 
L 105.685753 147.008079 
L 110.013764 146.887625 
L 115.718298 146.868524 
L 116.204097 146.732808 
L 117.23307 146.839405 
L 119.170508 146.431912 
L 120.692077 146.753532 
L 121.555312 146.718842 
L 121.887235 146.335136 
L 122.126221 146.287503 
L 123.046006 146.662182 
L 124.750606 147.028481 
L 126.013379 146.940883 
L 126.327602 146.559988 
L 127.081311 146.945556 
L 129.237707 147.245042 
L 129.351891 147.119558 
L 132.769338 147.248639 
L 133.830785 147.07937 
L 137.097349 147.066432 
L 146.254093 146.794807 
L 148.638898 146.797714 
L 148.97082 146.454655 
L 149.209806 146.45772 
L 150.129592 146.887525 
L 151.834192 147.312881 
L 152.480664 146.924276 
L 153.096964 147.34558 
L 153.411188 146.948268 
L 154.164897 146.943642 
L 156.306315 147.328132 
L 156.343677 146.959032 
L 156.435476 146.89589 
L 156.829475 146.840303 
L 160.91437 146.891446 
L 161.317455 147.284143 
L 164.180935 146.876854 
L 173.337679 146.894016 
L 175.722483 146.574389 
L 176.054406 146.195075 
L 176.293391 146.617928 
L 177.213177 146.612268 
L 178.917777 146.988841 
L 179.564249 146.576339 
L 180.494773 146.604769 
L 181.248482 146.840443 
L 183.3899 147.1904 
L 183.519062 146.738461 
L 183.91306 146.677421 
L 188.401041 146.829038 
L 200.421264 146.79617 
L 203.376977 146.394128 
L 206.001363 146.800076 
L 206.647835 146.404938 
L 207.264135 146.812547 
L 207.578359 146.335011 
L 208.332068 146.325429 
L 210.488463 146.693524 
L 210.602647 146.523723 
L 210.996646 146.605199 
L 214.020095 146.776958 
L 216.347861 146.846332 
L 217.838555 147.280339 
L 218.348106 146.871128 
L 233.084948 146.911757 
L 233.73142 146.50576 
L 235.415653 146.923078 
L 237.572048 146.969756 
L 237.594433 146.559194 
L 238.080231 146.215451 
L 239.109204 146.301709 
L 242.165127 146.307991 
L 242.568212 146.678045 
L 243.76337 146.536066 
L 244.002355 146.849602 
L 244.922141 147.168452 
L 245.431691 146.768365 
L 247.889513 146.71409 
L 248.203737 146.270144 
L 260.168534 146.22108 
L 264.640657 146.595731 
L 264.678019 145.81121 
L 268.130228 145.991638 
L 268.187266 146.128497 
L 269.248712 145.894611 
L 269.651797 146.27885 
L 270.515032 145.897247 
L 270.846955 145.901629 
L 271.085941 146.162742 
L 272.005726 146.557283 
L 274.973099 146.320236 
L 275.287322 145.901425 
L 276.041032 145.854019 
L 278.311611 145.899704 
L 291.761604 145.486838 
L 292.247402 145.102617 
L 293.276375 144.784483 
L 295.213813 144.716016 
L 295.270851 144.913116 
L 296.332298 144.919549 
L 296.735383 145.263902 
L 297.930541 145.16457 
L 298.169526 145.202769 
L 299.089312 145.572694 
L 299.598862 145.453942 
L 300.793912 145.8346 
L 301.440384 145.432416 
L 303.124617 145.39022 
L 305.266035 145.880529 
L 305.395197 145.491998 
L 319.330988 145.115703 
L 320.359961 145.270904 
L 324.682203 145.204353 
L 325.014126 144.766459 
L 325.253112 145.096479 
L 328.523969 144.988649 
L 329.14027 145.036691 
L 329.454493 144.619175 
L 330.208203 144.997511 
L 332.478782 145.335713 
L 335.896229 145.398021 
L 345.90639 145.459016 
L 345.928775 145.247191 
L 346.414573 145.338079 
L 347.443546 145.114563 
L 350.902554 145.089744 
L 351.765789 144.771166 
L 352.336697 144.800799 
L 353.256483 145.238835 
L 354.961083 145.661437 
L 355.607555 145.293468 
L 356.538079 145.349689 
L 357.291788 145.698705 
L 359.433206 146.040908 
L 359.562367 145.8963 
L 362.979815 146.052884 
L 367.307826 145.943111 
L 373.01236 146.035265 
L 373.498159 145.713463 
L 374.527132 145.835947 
L 377.986139 145.859412 
L 378.849374 145.5123 
L 379.181297 145.538026 
L 379.420283 146.002499 
L 380.340068 146.066867 
L 382.044668 146.510218 
L 382.69114 146.199181 
L 383.307441 146.585338 
L 383.621664 146.57062 
L 384.375374 146.989445 
L 386.645953 147.423549 
L 391.124847 147.443231 
L 394.391412 147.053037 
L 405.069724 147.007989 
L 405.93296 146.649969 
L 407.423654 147.209601 
L 410.391026 147.281978 
L 410.70525 146.88701 
L 411.458959 147.298009 
L 413.729538 147.691977 
L 414.123537 147.609806 
L 417.146986 147.907225 
L 418.208432 147.563478 
L 421.474997 147.655005 
L 433.016545 147.729977 
L 433.348468 147.396051 
L 434.507239 147.42524 
L 436.211839 147.818255 
L 436.858311 147.535559 
L 437.474612 147.982429 
L 437.788835 147.578441 
L 438.542544 148.017807 
L 440.683962 148.003081 
L 440.813124 147.56803 
L 445.292018 147.802767 
L 445.695103 148.169529 
L 448.558582 148.151387 
L 460.100131 148.153305 
L 460.432053 147.818822 
L 463.295425 147.806544 
L 463.941897 147.405751 
L 464.558197 147.807877 
L 464.872421 147.405005 
L 465.62613 147.792765 
L 467.767548 147.848271 
L 467.896709 147.363659 
L 468.290708 147.407256 
L 471.257119 147.392706 
L 471.314157 147.521045 
L 472.375603 147.397681 
L 472.778688 147.783116 
L 474.212832 147.803443 
L 475.132617 148.175402 
L 492.709715 148.533596 
L 498.340704 148.153268 
L 498.397742 147.918581 
L 499.459189 147.523244 
L 501.296417 147.916559 
L 508.522088 147.515915 
L 525.42429 147.523759 
L 525.42429 147.523759 
" clip-path="url(#pe8dfc256dc)" style="fill: none; stroke: #b85741; stroke-width: 2.5; stroke-linecap: square"/>
   </g>
   <g id="line2d_18">
    <path d="M 68.878835 182.823032 
L 71.229907 182.73014 
L 71.846208 181.894105 
L 72.160431 181.70832 
L 72.914141 179.01443 
L 75.18472 178.828645 
L 78.602167 178.549966 
L 82.930179 190.904701 
L 84.125228 188.396597 
L 88.634713 189.51131 
L 89.120511 190.068666 
L 90.149484 190.068666 
L 93.205406 189.697095 
L 94.471727 191.369164 
L 94.80365 190.904701 
L 95.042635 190.811808 
L 95.962421 190.904701 
L 98.313493 186.445849 
L 98.929793 187.281884 
L 99.244017 193.691483 
L 99.997726 193.877268 
L 102.154121 193.691483 
L 102.268305 192.948341 
L 105.685753 192.298092 
L 110.013764 197.871656 
L 115.718298 196.106694 
L 116.204097 197.221407 
L 117.23307 195.456445 
L 119.170508 193.319912 
L 120.692077 191.462057 
L 121.555312 189.51131 
L 121.887235 187.374777 
L 122.126221 184.866673 
L 123.046006 166.47391 
L 124.750606 163.872914 
L 125.397078 161.457703 
L 126.013379 158.206457 
L 126.327602 140.928408 
L 127.081311 141.299979 
L 129.222729 135.169058 
L 129.237707 133.21831 
L 129.351891 133.682774 
L 132.769338 131.200216 
L 137.097349 131.571787 
L 144.316655 131.664679 
L 146.254093 141.139739 
L 148.638898 141.139739 
L 149.209806 142.068666 
L 150.129592 147.456445 
L 151.834192 147.456445 
L 153.096964 147.735123 
L 154.164897 147.735123 
L 156.306315 148.385372 
L 156.321292 148.571158 
L 156.343677 158.510681 
L 156.435476 154.794971 
L 160.91437 154.794971 
L 161.317455 155.352327 
L 164.180935 156.188362 
L 171.400241 155.166542 
L 173.337679 155.352327 
L 175.722483 154.609186 
L 176.293391 154.702078 
L 178.917777 154.794971 
L 179.564249 156.931504 
L 180.18055 156.931504 
L 180.494773 151.265047 
L 181.248482 150.800583 
L 183.3899 150.893476 
L 183.427262 153.218117 
L 183.519062 153.032331 
L 183.91306 152.939439 
L 186.936509 152.474975 
L 187.997956 152.010511 
L 188.401041 160.835321 
L 191.26452 156.190684 
L 200.421264 156.004899 
L 203.137991 142.163881 
L 203.376977 142.163881 
L 206.001363 141.234954 
L 206.647835 141.327846 
L 207.264135 133.339071 
L 207.578359 133.431964 
L 208.332068 129.994932 
L 210.473486 125.16451 
L 210.488463 125.257403 
L 210.510848 122.749299 
L 210.602647 123.492441 
L 210.996646 118.754911 
L 212.025619 121.170122 
L 214.020095 123.027977 
L 215.081541 125.350295 
L 215.484626 120.519873 
L 216.347861 118.104662 
L 217.838555 115.039202 
L 218.348106 117.547305 
L 233.084948 135.940068 
L 233.73142 138.72685 
L 235.415653 141.049168 
L 237.557071 129.809147 
L 237.572048 147.087196 
L 237.594433 126.465008 
L 238.080231 130.92386 
L 239.109204 133.060393 
L 241.046642 128.322863 
L 241.10368 130.898314 
L 242.165127 130.898314 
L 243.431447 130.248065 
L 243.76337 128.483103 
L 244.002355 128.668888 
L 245.431691 125.603428 
L 247.889513 123.745573 
L 248.203737 121.980611 
L 251.228026 122.073504 
L 260.168534 120.308542 
L 264.640657 120.308542 
L 264.678019 119.379615 
L 265.163817 107.396452 
L 266.19279 105.631489 
L 268.130228 108.789843 
L 268.187266 107.117773 
L 269.248712 104.98124 
L 269.651797 102.751815 
L 270.846955 100.243711 
L 271.085941 99.221891 
L 272.005726 99.221891 
L 272.515277 97.735607 
L 274.973099 94.484361 
L 275.287322 95.227503 
L 276.041032 95.320396 
L 278.311611 95.784859 
L 291.739219 94.484361 
L 291.761604 98.943212 
L 293.276375 94.391468 
L 295.213813 91.511793 
L 295.270851 79.804986 
L 296.332298 80.176557 
L 296.735383 77.947131 
L 297.598618 76.739526 
L 297.930541 75.996384 
L 298.169526 74.417207 
L 299.089312 77.57556 
L 299.598862 74.602993 
L 300.793912 86.679049 
L 301.440384 85.37855 
L 302.056684 86.679049 
L 302.370908 86.586156 
L 303.124617 94.85361 
L 305.266035 82.31309 
L 305.395197 85.843014 
L 318.822805 90.673436 
L 318.845189 90.208973 
L 319.330988 92.902862 
L 320.359961 92.809969 
L 322.297399 85.750121 
L 323.415883 83.985159 
L 323.818968 84.078052 
L 324.682203 73.952744 
L 325.014126 81.29127 
L 325.253112 72.930923 
L 326.172897 76.832418 
L 326.682448 72.46646 
L 327.877498 68.75075 
L 328.523969 62.434044 
L 329.14027 62.341151 
L 329.454493 77.111097 
L 330.208203 74.788778 
L 332.478782 92.066827 
L 335.896229 88.536903 
L 345.90639 93.18154 
L 345.928775 93.088648 
L 346.414573 92.066827 
L 347.443546 91.973935 
L 349.380984 89.837402 
L 350.499469 86.177428 
L 350.902554 86.084535 
L 352.097712 88.778425 
L 352.336697 90.729172 
L 353.256483 92.494134 
L 354.961083 92.494134 
L 355.607555 94.259096 
L 356.223855 94.259096 
L 356.538079 95.002238 
L 357.291788 78.002867 
L 359.433206 72.057732 
L 359.562367 73.915586 
L 362.979815 72.893766 
L 367.307826 74.658728 
L 373.01236 76.702369 
L 373.498159 79.024687 
L 374.527132 71.593268 
L 376.46457 72.33641 
L 377.986139 73.544015 
L 378.849374 73.451123 
L 379.181297 74.937407 
L 379.420283 77.259725 
L 380.340068 77.909974 
L 382.044668 73.544015 
L 382.69114 73.35823 
L 383.307441 73.35823 
L 383.621664 72.522195 
L 384.375374 73.729801 
L 386.516791 75.959227 
L 386.645953 81.068327 
L 390.0634 92.679919 
L 391.124847 92.587027 
L 394.391412 94.351989 
L 400.095946 96.116951 
L 403.548155 76.330798 
L 405.069724 77.909974 
L 405.93296 80.046507 
L 406.264882 83.669324 
L 406.503868 67.877558 
L 407.423654 69.178057 
L 409.128254 72.522195 
L 410.391026 72.615088 
L 410.70525 85.062715 
L 411.458959 84.319573 
L 413.600377 84.22668 
L 413.615354 85.341393 
L 413.729538 84.969822 
L 414.123537 80.046507 
L 415.15251 93.796955 
L 417.146986 95.469024 
L 418.208432 95.283238 
L 421.474997 90.824387 
L 433.016545 90.731494 
L 433.348468 103.364907 
L 434.507239 104.665405 
L 436.211839 108.938471 
L 436.858311 112.003931 
L 437.474612 117.577496 
L 437.788835 117.763281 
L 438.542544 117.39171 
L 440.683962 119.714029 
L 440.813124 125.008915 
L 442.236096 125.008915 
L 444.173533 125.287593 
L 444.230571 121.478991 
L 445.292018 124.17288 
L 445.695103 129.504923 
L 447.129246 129.504923 
L 448.558582 128.947567 
L 460.100131 123.652681 
L 460.432053 119.286722 
L 463.295425 99.221891 
L 465.62613 99.128998 
L 467.767548 107.67513 
L 467.782525 125.603428 
L 467.80491 124.860286 
L 467.896709 127.089712 
L 468.290708 127.182605 
L 471.314157 126.903926 
L 472.375603 135.914522 
L 472.778688 135.078487 
L 474.212832 135.728737 
L 475.132617 135.264273 
L 492.709715 135.078487 
L 498.340704 135.17138 
L 498.397742 135.357166 
L 499.459189 137.029235 
L 501.296417 137.122128 
L 508.522088 136.471878 
L 525.42429 138.701304 
L 525.42429 138.701304 
" clip-path="url(#pe8dfc256dc)" style="fill: none; stroke: #002f4a; stroke-width: 2.5; stroke-linecap: square"/>
   </g>
   <g id="patch_3">
    <path d="M 46.051562 244.837969 
L 46.051562 23.077969 
" style="fill: none; stroke: #000000; stroke-width: 0.8; stroke-linejoin: miter; stroke-linecap: square"/>
   </g>
   <g id="patch_4">
    <path d="M 548.251563 244.837969 
L 548.251563 23.077969 
" style="fill: none; stroke: #000000; stroke-width: 0.8; stroke-linejoin: miter; stroke-linecap: square"/>
   </g>
   <g id="patch_5">
    <path d="M 46.051563 244.837969 
L 548.251563 244.837969 
" style="fill: none; stroke: #000000; stroke-width: 0.8; stroke-linejoin: miter; stroke-linecap: square"/>
   </g>
   <g id="patch_6">
    <path d="M 46.051563 23.077969 
L 548.251563 23.077969 
" style="fill: none; stroke: #000000; stroke-width: 0.8; stroke-linejoin: miter; stroke-linecap: square"/>
   </g>
   <g id="text_18">
    <!-- Create VM Type 4 (OpenNebula) -->
    <g transform="translate(192.843828 17.077969) scale(0.13 -0.13)">
     <defs>
      <path id="DejaVuSans-43" d="M 4122 4306 
L 4122 3641 
Q 3803 3938 3442 4084 
Q 3081 4231 2675 4231 
Q 1875 4231 1450 3742 
Q 1025 3253 1025 2328 
Q 1025 1406 1450 917 
Q 1875 428 2675 428 
Q 3081 428 3442 575 
Q 3803 722 4122 1019 
L 4122 359 
Q 3791 134 3420 21 
Q 3050 -91 2638 -91 
Q 1578 -91 968 557 
Q 359 1206 359 2328 
Q 359 3453 968 4101 
Q 1578 4750 2638 4750 
Q 3056 4750 3426 4639 
Q 3797 4528 4122 4306 
z
" transform="scale(0.015625)"/>
      <path id="DejaVuSans-72" d="M 2631 2963 
Q 2534 3019 2420 3045 
Q 2306 3072 2169 3072 
Q 1681 3072 1420 2755 
Q 1159 2438 1159 1844 
L 1159 0 
L 581 0 
L 581 3500 
L 1159 3500 
L 1159 2956 
Q 1341 3275 1631 3429 
Q 1922 3584 2338 3584 
Q 2397 3584 2469 3576 
Q 2541 3569 2628 3553 
L 2631 2963 
z
" transform="scale(0.015625)"/>
      <path id="DejaVuSans-56" d="M 1831 0 
L 50 4666 
L 709 4666 
L 2188 738 
L 3669 4666 
L 4325 4666 
L 2547 0 
L 1831 0 
z
" transform="scale(0.015625)"/>
      <path id="DejaVuSans-4d" d="M 628 4666 
L 1569 4666 
L 2759 1491 
L 3956 4666 
L 4897 4666 
L 4897 0 
L 4281 0 
L 4281 4097 
L 3078 897 
L 2444 897 
L 1241 4097 
L 1241 0 
L 628 0 
L 628 4666 
z
" transform="scale(0.015625)"/>
      <path id="DejaVuSans-79" d="M 2059 -325 
Q 1816 -950 1584 -1140 
Q 1353 -1331 966 -1331 
L 506 -1331 
L 506 -850 
L 844 -850 
Q 1081 -850 1212 -737 
Q 1344 -625 1503 -206 
L 1606 56 
L 191 3500 
L 800 3500 
L 1894 763 
L 2988 3500 
L 3597 3500 
L 2059 -325 
z
" transform="scale(0.015625)"/>
      <path id="DejaVuSans-70" d="M 1159 525 
L 1159 -1331 
L 581 -1331 
L 581 3500 
L 1159 3500 
L 1159 2969 
Q 1341 3281 1617 3432 
Q 1894 3584 2278 3584 
Q 2916 3584 3314 3078 
Q 3713 2572 3713 1747 
Q 3713 922 3314 415 
Q 2916 -91 2278 -91 
Q 1894 -91 1617 61 
Q 1341 213 1159 525 
z
M 3116 1747 
Q 3116 2381 2855 2742 
Q 2594 3103 2138 3103 
Q 1681 3103 1420 2742 
Q 1159 2381 1159 1747 
Q 1159 1113 1420 752 
Q 1681 391 2138 391 
Q 2594 391 2855 752 
Q 3116 1113 3116 1747 
z
" transform="scale(0.015625)"/>
      <path id="DejaVuSans-4f" d="M 2522 4238 
Q 1834 4238 1429 3725 
Q 1025 3213 1025 2328 
Q 1025 1447 1429 934 
Q 1834 422 2522 422 
Q 3209 422 3611 934 
Q 4013 1447 4013 2328 
Q 4013 3213 3611 3725 
Q 3209 4238 2522 4238 
z
M 2522 4750 
Q 3503 4750 4090 4092 
Q 4678 3434 4678 2328 
Q 4678 1225 4090 567 
Q 3503 -91 2522 -91 
Q 1538 -91 948 565 
Q 359 1222 359 2328 
Q 359 3434 948 4092 
Q 1538 4750 2522 4750 
z
" transform="scale(0.015625)"/>
      <path id="DejaVuSans-4e" d="M 628 4666 
L 1478 4666 
L 3547 763 
L 3547 4666 
L 4159 4666 
L 4159 0 
L 3309 0 
L 1241 3903 
L 1241 0 
L 628 0 
L 628 4666 
z
" transform="scale(0.015625)"/>
      <path id="DejaVuSans-62" d="M 3116 1747 
Q 3116 2381 2855 2742 
Q 2594 3103 2138 3103 
Q 1681 3103 1420 2742 
Q 1159 2381 1159 1747 
Q 1159 1113 1420 752 
Q 1681 391 2138 391 
Q 2594 391 2855 752 
Q 3116 1113 3116 1747 
z
M 1159 2969 
Q 1341 3281 1617 3432 
Q 1894 3584 2278 3584 
Q 2916 3584 3314 3078 
Q 3713 2572 3713 1747 
Q 3713 922 3314 415 
Q 2916 -91 2278 -91 
Q 1894 -91 1617 61 
Q 1341 213 1159 525 
L 1159 0 
L 581 0 
L 581 4863 
L 1159 4863 
L 1159 2969 
z
" transform="scale(0.015625)"/>
      <path id="DejaVuSans-75" d="M 544 1381 
L 544 3500 
L 1119 3500 
L 1119 1403 
Q 1119 906 1312 657 
Q 1506 409 1894 409 
Q 2359 409 2629 706 
Q 2900 1003 2900 1516 
L 2900 3500 
L 3475 3500 
L 3475 0 
L 2900 0 
L 2900 538 
Q 2691 219 2414 64 
Q 2138 -91 1772 -91 
Q 1169 -91 856 284 
Q 544 659 544 1381 
z
M 1991 3584 
L 1991 3584 
z
" transform="scale(0.015625)"/>
     </defs>
     <use xlink:href="#DejaVuSans-43"/>
     <use xlink:href="#DejaVuSans-72" x="69.824219"/>
     <use xlink:href="#DejaVuSans-65" x="108.6875"/>
     <use xlink:href="#DejaVuSans-61" x="170.210938"/>
     <use xlink:href="#DejaVuSans-74" x="231.490234"/>
     <use xlink:href="#DejaVuSans-65" x="270.699219"/>
     <use xlink:href="#DejaVuSans-20" x="332.222656"/>
     <use xlink:href="#DejaVuSans-56" x="364.009766"/>
     <use xlink:href="#DejaVuSans-4d" x="432.417969"/>
     <use xlink:href="#DejaVuSans-20" x="518.697266"/>
     <use xlink:href="#DejaVuSans-54" x="550.484375"/>
     <use xlink:href="#DejaVuSans-79" x="595.943359"/>
     <use xlink:href="#DejaVuSans-70" x="655.123047"/>
     <use xlink:href="#DejaVuSans-65" x="718.599609"/>
     <use xlink:href="#DejaVuSans-20" x="780.123047"/>
     <use xlink:href="#DejaVuSans-34" x="811.910156"/>
     <use xlink:href="#DejaVuSans-20" x="875.533203"/>
     <use xlink:href="#DejaVuSans-28" x="907.320312"/>
     <use xlink:href="#DejaVuSans-4f" x="946.333984"/>
     <use xlink:href="#DejaVuSans-70" x="1025.044922"/>
     <use xlink:href="#DejaVuSans-65" x="1088.521484"/>
     <use xlink:href="#DejaVuSans-6e" x="1150.044922"/>
     <use xlink:href="#DejaVuSans-4e" x="1213.423828"/>
     <use xlink:href="#DejaVuSans-65" x="1288.228516"/>
     <use xlink:href="#DejaVuSans-62" x="1349.751953"/>
     <use xlink:href="#DejaVuSans-75" x="1413.228516"/>
     <use xlink:href="#DejaVuSans-6c" x="1476.607422"/>
     <use xlink:href="#DejaVuSans-61" x="1504.390625"/>
     <use xlink:href="#DejaVuSans-29" x="1565.669922"/>
    </g>
   </g>
   <g id="legend_1">
    <g id="patch_7">
     <path d="M 471.217188 85.519219 
L 539.851563 85.519219 
Q 542.251563 85.519219 542.251563 83.119219 
L 542.251563 31.477969 
Q 542.251563 29.077969 539.851563 29.077969 
L 471.217188 29.077969 
Q 468.817188 29.077969 468.817188 31.477969 
L 468.817188 83.119219 
Q 468.817188 85.519219 471.217188 85.519219 
z
" style="fill: #ffffff; opacity: 0.8; stroke: #cccccc; stroke-linejoin: miter"/>
    </g>
    <g id="line2d_19">
     <path d="M 473.617188 38.796094 
L 485.617188 38.796094 
L 497.617188 38.796094 
" style="fill: none; stroke: #009384; stroke-width: 2.5; stroke-linecap: square"/>
    </g>
    <g id="text_19">
     <!--  CPU -->
     <g transform="translate(507.217188 42.996094) scale(0.12 -0.12)">
      <defs>
       <path id="DejaVuSans-50" d="M 1259 4147 
L 1259 2394 
L 2053 2394 
Q 2494 2394 2734 2622 
Q 2975 2850 2975 3272 
Q 2975 3691 2734 3919 
Q 2494 4147 2053 4147 
L 1259 4147 
z
M 628 4666 
L 2053 4666 
Q 2838 4666 3239 4311 
Q 3641 3956 3641 3272 
Q 3641 2581 3239 2228 
Q 2838 1875 2053 1875 
L 1259 1875 
L 1259 0 
L 628 0 
L 628 4666 
z
" transform="scale(0.015625)"/>
      </defs>
      <use xlink:href="#DejaVuSans-20"/>
      <use xlink:href="#DejaVuSans-43" x="31.787109"/>
      <use xlink:href="#DejaVuSans-50" x="101.611328"/>
      <use xlink:href="#DejaVuSans-55" x="161.914062"/>
     </g>
    </g>
    <g id="line2d_20">
     <path d="M 473.617188 56.409844 
L 485.617188 56.409844 
L 497.617188 56.409844 
" style="fill: none; stroke: #b85741; stroke-width: 2.5; stroke-linecap: square"/>
    </g>
    <g id="text_20">
     <!--  RAM -->
     <g transform="translate(507.217188 60.609844) scale(0.12 -0.12)">
      <defs>
       <path id="DejaVuSans-52" d="M 2841 2188 
Q 3044 2119 3236 1894 
Q 3428 1669 3622 1275 
L 4263 0 
L 3584 0 
L 2988 1197 
Q 2756 1666 2539 1819 
Q 2322 1972 1947 1972 
L 1259 1972 
L 1259 0 
L 628 0 
L 628 4666 
L 2053 4666 
Q 2853 4666 3247 4331 
Q 3641 3997 3641 3322 
Q 3641 2881 3436 2590 
Q 3231 2300 2841 2188 
z
M 1259 4147 
L 1259 2491 
L 2053 2491 
Q 2509 2491 2742 2702 
Q 2975 2913 2975 3322 
Q 2975 3731 2742 3939 
Q 2509 4147 2053 4147 
L 1259 4147 
z
" transform="scale(0.015625)"/>
       <path id="DejaVuSans-41" d="M 2188 4044 
L 1331 1722 
L 3047 1722 
L 2188 4044 
z
M 1831 4666 
L 2547 4666 
L 4325 0 
L 3669 0 
L 3244 1197 
L 1141 1197 
L 716 0 
L 50 0 
L 1831 4666 
z
" transform="scale(0.015625)"/>
      </defs>
      <use xlink:href="#DejaVuSans-20"/>
      <use xlink:href="#DejaVuSans-52" x="31.787109"/>
      <use xlink:href="#DejaVuSans-41" x="97.269531"/>
      <use xlink:href="#DejaVuSans-4d" x="165.677734"/>
     </g>
    </g>
    <g id="line2d_21">
     <path d="M 473.617188 74.023594 
L 485.617188 74.023594 
L 497.617188 74.023594 
" style="fill: none; stroke: #002f4a; stroke-width: 2.5; stroke-linecap: square"/>
    </g>
    <g id="text_21">
     <!--  Disk -->
     <g transform="translate(507.217188 78.223594) scale(0.12 -0.12)">
      <defs>
       <path id="DejaVuSans-44" d="M 1259 4147 
L 1259 519 
L 2022 519 
Q 2988 519 3436 956 
Q 3884 1394 3884 2338 
Q 3884 3275 3436 3711 
Q 2988 4147 2022 4147 
L 1259 4147 
z
M 628 4666 
L 1925 4666 
Q 3281 4666 3915 4102 
Q 4550 3538 4550 2338 
Q 4550 1131 3912 565 
Q 3275 0 1925 0 
L 628 0 
L 628 4666 
z
" transform="scale(0.015625)"/>
       <path id="DejaVuSans-6b" d="M 581 4863 
L 1159 4863 
L 1159 1991 
L 2875 3500 
L 3609 3500 
L 1753 1863 
L 3688 0 
L 2938 0 
L 1159 1709 
L 1159 0 
L 581 0 
L 581 4863 
z
" transform="scale(0.015625)"/>
      </defs>
      <use xlink:href="#DejaVuSans-20"/>
      <use xlink:href="#DejaVuSans-44" x="31.787109"/>
      <use xlink:href="#DejaVuSans-69" x="108.789062"/>
      <use xlink:href="#DejaVuSans-73" x="136.572266"/>
      <use xlink:href="#DejaVuSans-6b" x="188.671875"/>
     </g>
    </g>
   </g>
  </g>
 </g>
 <defs>
  <clipPath id="pe8dfc256dc">
   <rect x="46.051562" y="23.077969" width="502.2" height="221.76"/>
  </clipPath>
 </defs>
</svg>
