<?xml version="1.0" encoding="utf-8" standalone="no"?>
<!DOCTYPE svg PUBLIC "-//W3C//DTD SVG 1.1//EN"
  "http://www.w3.org/Graphics/SVG/1.1/DTD/svg11.dtd">
<svg xmlns:xlink="http://www.w3.org/1999/xlink" width="555.451562pt" height="287.233281pt" viewBox="0 0 555.451562 287.233281" xmlns="http://www.w3.org/2000/svg" version="1.1">
 <metadata>
  <rdf:RDF xmlns:dc="http://purl.org/dc/elements/1.1/" xmlns:cc="http://creativecommons.org/ns#" xmlns:rdf="http://www.w3.org/1999/02/22-rdf-syntax-ns#">
   <cc:Work>
    <dc:type rdf:resource="http://purl.org/dc/dcmitype/StillImage"/>
    <dc:date>2024-05-21T10:08:01.308784</dc:date>
    <dc:format>image/svg+xml</dc:format>
    <dc:creator>
     <cc:Agent>
      <dc:title>Matplotlib v3.8.4, https://matplotlib.org/</dc:title>
     </cc:Agent>
    </dc:creator>
   </cc:Work>
  </rdf:RDF>
 </metadata>
 <defs>
  <style type="text/css">*{stroke-linejoin: round; stroke-linecap: butt}</style>
 </defs>
 <g id="figure_1">
  <g id="patch_1">
   <path d="M 0 287.233281 
L 555.451562 287.233281 
L 555.451562 0 
L 0 0 
z
" style="fill: #f3f7f8"/>
  </g>
  <g id="axes_1">
   <g id="patch_2">
    <path d="M 46.051562 244.837969 
L 548.251563 244.837969 
L 548.251563 23.077969 
L 46.051562 23.077969 
z
" style="fill: #ffffff"/>
   </g>
   <g id="matplotlib.axis_1">
    <g id="xtick_1">
     <g id="line2d_1">
      <defs>
       <path id="m5eefc9f348" d="M 0 0 
L 0 3.5 
" style="stroke: #000000; stroke-width: 0.8"/>
      </defs>
      <g>
       <use xlink:href="#m5eefc9f348" x="49.412406" y="244.837969" style="stroke: #000000; stroke-width: 0.8"/>
      </g>
     </g>
     <g id="text_1">
      <!-- −5 -->
      <g transform="translate(40.567094 260.956094) scale(0.12 -0.12)">
       <defs>
        <path id="DejaVuSans-2212" d="M 678 2272 
L 4684 2272 
L 4684 1741 
L 678 1741 
L 678 2272 
z
" transform="scale(0.015625)"/>
        <path id="DejaVuSans-35" d="M 691 4666 
L 3169 4666 
L 3169 4134 
L 1269 4134 
L 1269 2991 
Q 1406 3038 1543 3061 
Q 1681 3084 1819 3084 
Q 2600 3084 3056 2656 
Q 3513 2228 3513 1497 
Q 3513 744 3044 326 
Q 2575 -91 1722 -91 
Q 1428 -91 1123 -41 
Q 819 9 494 109 
L 494 744 
Q 775 591 1075 516 
Q 1375 441 1709 441 
Q 2250 441 2565 725 
Q 2881 1009 2881 1497 
Q 2881 1984 2565 2268 
Q 2250 2553 1709 2553 
Q 1456 2553 1204 2497 
Q 953 2441 691 2322 
L 691 4666 
z
" transform="scale(0.015625)"/>
       </defs>
       <use xlink:href="#DejaVuSans-2212"/>
       <use xlink:href="#DejaVuSans-35" x="83.789062"/>
      </g>
     </g>
    </g>
    <g id="xtick_2">
     <g id="line2d_2">
      <g>
       <use xlink:href="#m5eefc9f348" x="125.101898" y="244.837969" style="stroke: #000000; stroke-width: 0.8"/>
      </g>
     </g>
     <g id="text_2">
      <!-- 0 -->
      <g transform="translate(121.284398 260.956094) scale(0.12 -0.12)">
       <defs>
        <path id="DejaVuSans-30" d="M 2034 4250 
Q 1547 4250 1301 3770 
Q 1056 3291 1056 2328 
Q 1056 1369 1301 889 
Q 1547 409 2034 409 
Q 2525 409 2770 889 
Q 3016 1369 3016 2328 
Q 3016 3291 2770 3770 
Q 2525 4250 2034 4250 
z
M 2034 4750 
Q 2819 4750 3233 4129 
Q 3647 3509 3647 2328 
Q 3647 1150 3233 529 
Q 2819 -91 2034 -91 
Q 1250 -91 836 529 
Q 422 1150 422 2328 
Q 422 3509 836 4129 
Q 1250 4750 2034 4750 
z
" transform="scale(0.015625)"/>
       </defs>
       <use xlink:href="#DejaVuSans-30"/>
      </g>
     </g>
    </g>
    <g id="xtick_3">
     <g id="line2d_3">
      <g>
       <use xlink:href="#m5eefc9f348" x="200.791391" y="244.837969" style="stroke: #000000; stroke-width: 0.8"/>
      </g>
     </g>
     <g id="text_3">
      <!-- 5 -->
      <g transform="translate(196.973891 260.956094) scale(0.12 -0.12)">
       <use xlink:href="#DejaVuSans-35"/>
      </g>
     </g>
    </g>
    <g id="xtick_4">
     <g id="line2d_4">
      <g>
       <use xlink:href="#m5eefc9f348" x="276.480883" y="244.837969" style="stroke: #000000; stroke-width: 0.8"/>
      </g>
     </g>
     <g id="text_4">
      <!-- 10 -->
      <g transform="translate(268.845883 260.956094) scale(0.12 -0.12)">
       <defs>
        <path id="DejaVuSans-31" d="M 794 531 
L 1825 531 
L 1825 4091 
L 703 3866 
L 703 4441 
L 1819 4666 
L 2450 4666 
L 2450 531 
L 3481 531 
L 3481 0 
L 794 0 
L 794 531 
z
" transform="scale(0.015625)"/>
       </defs>
       <use xlink:href="#DejaVuSans-31"/>
       <use xlink:href="#DejaVuSans-30" x="63.623047"/>
      </g>
     </g>
    </g>
    <g id="xtick_5">
     <g id="line2d_5">
      <g>
       <use xlink:href="#m5eefc9f348" x="352.170376" y="244.837969" style="stroke: #000000; stroke-width: 0.8"/>
      </g>
     </g>
     <g id="text_5">
      <!-- 15 -->
      <g transform="translate(344.535376 260.956094) scale(0.12 -0.12)">
       <use xlink:href="#DejaVuSans-31"/>
       <use xlink:href="#DejaVuSans-35" x="63.623047"/>
      </g>
     </g>
    </g>
    <g id="xtick_6">
     <g id="line2d_6">
      <g>
       <use xlink:href="#m5eefc9f348" x="427.859868" y="244.837969" style="stroke: #000000; stroke-width: 0.8"/>
      </g>
     </g>
     <g id="text_6">
      <!-- 20 -->
      <g transform="translate(420.224868 260.956094) scale(0.12 -0.12)">
       <defs>
        <path id="DejaVuSans-32" d="M 1228 531 
L 3431 531 
L 3431 0 
L 469 0 
L 469 531 
Q 828 903 1448 1529 
Q 2069 2156 2228 2338 
Q 2531 2678 2651 2914 
Q 2772 3150 2772 3378 
Q 2772 3750 2511 3984 
Q 2250 4219 1831 4219 
Q 1534 4219 1204 4116 
Q 875 4013 500 3803 
L 500 4441 
Q 881 4594 1212 4672 
Q 1544 4750 1819 4750 
Q 2544 4750 2975 4387 
Q 3406 4025 3406 3419 
Q 3406 3131 3298 2873 
Q 3191 2616 2906 2266 
Q 2828 2175 2409 1742 
Q 1991 1309 1228 531 
z
" transform="scale(0.015625)"/>
       </defs>
       <use xlink:href="#DejaVuSans-32"/>
       <use xlink:href="#DejaVuSans-30" x="63.623047"/>
      </g>
     </g>
    </g>
    <g id="xtick_7">
     <g id="line2d_7">
      <g>
       <use xlink:href="#m5eefc9f348" x="503.54936" y="244.837969" style="stroke: #000000; stroke-width: 0.8"/>
      </g>
     </g>
     <g id="text_7">
      <!-- 25 -->
      <g transform="translate(495.91436 260.956094) scale(0.12 -0.12)">
       <use xlink:href="#DejaVuSans-32"/>
       <use xlink:href="#DejaVuSans-35" x="63.623047"/>
      </g>
     </g>
    </g>
    <g id="text_8">
     <!-- Time (s) -->
     <g transform="translate(270.723984 277.329687) scale(0.13 -0.13)">
      <defs>
       <path id="DejaVuSans-54" d="M -19 4666 
L 3928 4666 
L 3928 4134 
L 2272 4134 
L 2272 0 
L 1638 0 
L 1638 4134 
L -19 4134 
L -19 4666 
z
" transform="scale(0.015625)"/>
       <path id="DejaVuSans-69" d="M 603 3500 
L 1178 3500 
L 1178 0 
L 603 0 
L 603 3500 
z
M 603 4863 
L 1178 4863 
L 1178 4134 
L 603 4134 
L 603 4863 
z
" transform="scale(0.015625)"/>
       <path id="DejaVuSans-6d" d="M 3328 2828 
Q 3544 3216 3844 3400 
Q 4144 3584 4550 3584 
Q 5097 3584 5394 3201 
Q 5691 2819 5691 2113 
L 5691 0 
L 5113 0 
L 5113 2094 
Q 5113 2597 4934 2840 
Q 4756 3084 4391 3084 
Q 3944 3084 3684 2787 
Q 3425 2491 3425 1978 
L 3425 0 
L 2847 0 
L 2847 2094 
Q 2847 2600 2669 2842 
Q 2491 3084 2119 3084 
Q 1678 3084 1418 2786 
Q 1159 2488 1159 1978 
L 1159 0 
L 581 0 
L 581 3500 
L 1159 3500 
L 1159 2956 
Q 1356 3278 1631 3431 
Q 1906 3584 2284 3584 
Q 2666 3584 2933 3390 
Q 3200 3197 3328 2828 
z
" transform="scale(0.015625)"/>
       <path id="DejaVuSans-65" d="M 3597 1894 
L 3597 1613 
L 953 1613 
Q 991 1019 1311 708 
Q 1631 397 2203 397 
Q 2534 397 2845 478 
Q 3156 559 3463 722 
L 3463 178 
Q 3153 47 2828 -22 
Q 2503 -91 2169 -91 
Q 1331 -91 842 396 
Q 353 884 353 1716 
Q 353 2575 817 3079 
Q 1281 3584 2069 3584 
Q 2775 3584 3186 3129 
Q 3597 2675 3597 1894 
z
M 3022 2063 
Q 3016 2534 2758 2815 
Q 2500 3097 2075 3097 
Q 1594 3097 1305 2825 
Q 1016 2553 972 2059 
L 3022 2063 
z
" transform="scale(0.015625)"/>
       <path id="DejaVuSans-20" transform="scale(0.015625)"/>
       <path id="DejaVuSans-28" d="M 1984 4856 
Q 1566 4138 1362 3434 
Q 1159 2731 1159 2009 
Q 1159 1288 1364 580 
Q 1569 -128 1984 -844 
L 1484 -844 
Q 1016 -109 783 600 
Q 550 1309 550 2009 
Q 550 2706 781 3412 
Q 1013 4119 1484 4856 
L 1984 4856 
z
" transform="scale(0.015625)"/>
       <path id="DejaVuSans-73" d="M 2834 3397 
L 2834 2853 
Q 2591 2978 2328 3040 
Q 2066 3103 1784 3103 
Q 1356 3103 1142 2972 
Q 928 2841 928 2578 
Q 928 2378 1081 2264 
Q 1234 2150 1697 2047 
L 1894 2003 
Q 2506 1872 2764 1633 
Q 3022 1394 3022 966 
Q 3022 478 2636 193 
Q 2250 -91 1575 -91 
Q 1294 -91 989 -36 
Q 684 19 347 128 
L 347 722 
Q 666 556 975 473 
Q 1284 391 1588 391 
Q 1994 391 2212 530 
Q 2431 669 2431 922 
Q 2431 1156 2273 1281 
Q 2116 1406 1581 1522 
L 1381 1569 
Q 847 1681 609 1914 
Q 372 2147 372 2553 
Q 372 3047 722 3315 
Q 1072 3584 1716 3584 
Q 2034 3584 2315 3537 
Q 2597 3491 2834 3397 
z
" transform="scale(0.015625)"/>
       <path id="DejaVuSans-29" d="M 513 4856 
L 1013 4856 
Q 1481 4119 1714 3412 
Q 1947 2706 1947 2009 
Q 1947 1309 1714 600 
Q 1481 -109 1013 -844 
L 513 -844 
Q 928 -128 1133 580 
Q 1338 1288 1338 2009 
Q 1338 2731 1133 3434 
Q 928 4138 513 4856 
z
" transform="scale(0.015625)"/>
      </defs>
      <use xlink:href="#DejaVuSans-54"/>
      <use xlink:href="#DejaVuSans-69" x="57.958984"/>
      <use xlink:href="#DejaVuSans-6d" x="85.742188"/>
      <use xlink:href="#DejaVuSans-65" x="183.154297"/>
      <use xlink:href="#DejaVuSans-20" x="244.677734"/>
      <use xlink:href="#DejaVuSans-28" x="276.464844"/>
      <use xlink:href="#DejaVuSans-73" x="315.478516"/>
      <use xlink:href="#DejaVuSans-29" x="367.578125"/>
     </g>
    </g>
   </g>
   <g id="matplotlib.axis_2">
    <g id="ytick_1">
     <g id="line2d_8">
      <defs>
       <path id="m35de2aa5bc" d="M 0 0 
L -3.5 0 
" style="stroke: #000000; stroke-width: 0.8"/>
      </defs>
      <g>
       <use xlink:href="#m35de2aa5bc" x="46.051562" y="223.002055" style="stroke: #000000; stroke-width: 0.8"/>
      </g>
     </g>
     <g id="text_9">
      <!-- 4 -->
      <g transform="translate(31.416562 227.561117) scale(0.12 -0.12)">
       <defs>
        <path id="DejaVuSans-34" d="M 2419 4116 
L 825 1625 
L 2419 1625 
L 2419 4116 
z
M 2253 4666 
L 3047 4666 
L 3047 1625 
L 3713 1625 
L 3713 1100 
L 3047 1100 
L 3047 0 
L 2419 0 
L 2419 1100 
L 313 1100 
L 313 1709 
L 2253 4666 
z
" transform="scale(0.015625)"/>
       </defs>
       <use xlink:href="#DejaVuSans-34"/>
      </g>
     </g>
    </g>
    <g id="ytick_2">
     <g id="line2d_9">
      <g>
       <use xlink:href="#m35de2aa5bc" x="46.051562" y="189.053393" style="stroke: #000000; stroke-width: 0.8"/>
      </g>
     </g>
     <g id="text_10">
      <!-- 6 -->
      <g transform="translate(31.416562 193.612455) scale(0.12 -0.12)">
       <defs>
        <path id="DejaVuSans-36" d="M 2113 2584 
Q 1688 2584 1439 2293 
Q 1191 2003 1191 1497 
Q 1191 994 1439 701 
Q 1688 409 2113 409 
Q 2538 409 2786 701 
Q 3034 994 3034 1497 
Q 3034 2003 2786 2293 
Q 2538 2584 2113 2584 
z
M 3366 4563 
L 3366 3988 
Q 3128 4100 2886 4159 
Q 2644 4219 2406 4219 
Q 1781 4219 1451 3797 
Q 1122 3375 1075 2522 
Q 1259 2794 1537 2939 
Q 1816 3084 2150 3084 
Q 2853 3084 3261 2657 
Q 3669 2231 3669 1497 
Q 3669 778 3244 343 
Q 2819 -91 2113 -91 
Q 1303 -91 875 529 
Q 447 1150 447 2328 
Q 447 3434 972 4092 
Q 1497 4750 2381 4750 
Q 2619 4750 2861 4703 
Q 3103 4656 3366 4563 
z
" transform="scale(0.015625)"/>
       </defs>
       <use xlink:href="#DejaVuSans-36"/>
      </g>
     </g>
    </g>
    <g id="ytick_3">
     <g id="line2d_10">
      <g>
       <use xlink:href="#m35de2aa5bc" x="46.051562" y="155.104731" style="stroke: #000000; stroke-width: 0.8"/>
      </g>
     </g>
     <g id="text_11">
      <!-- 8 -->
      <g transform="translate(31.416562 159.663793) scale(0.12 -0.12)">
       <defs>
        <path id="DejaVuSans-38" d="M 2034 2216 
Q 1584 2216 1326 1975 
Q 1069 1734 1069 1313 
Q 1069 891 1326 650 
Q 1584 409 2034 409 
Q 2484 409 2743 651 
Q 3003 894 3003 1313 
Q 3003 1734 2745 1975 
Q 2488 2216 2034 2216 
z
M 1403 2484 
Q 997 2584 770 2862 
Q 544 3141 544 3541 
Q 544 4100 942 4425 
Q 1341 4750 2034 4750 
Q 2731 4750 3128 4425 
Q 3525 4100 3525 3541 
Q 3525 3141 3298 2862 
Q 3072 2584 2669 2484 
Q 3125 2378 3379 2068 
Q 3634 1759 3634 1313 
Q 3634 634 3220 271 
Q 2806 -91 2034 -91 
Q 1263 -91 848 271 
Q 434 634 434 1313 
Q 434 1759 690 2068 
Q 947 2378 1403 2484 
z
M 1172 3481 
Q 1172 3119 1398 2916 
Q 1625 2713 2034 2713 
Q 2441 2713 2670 2916 
Q 2900 3119 2900 3481 
Q 2900 3844 2670 4047 
Q 2441 4250 2034 4250 
Q 1625 4250 1398 4047 
Q 1172 3844 1172 3481 
z
" transform="scale(0.015625)"/>
       </defs>
       <use xlink:href="#DejaVuSans-38"/>
      </g>
     </g>
    </g>
    <g id="ytick_4">
     <g id="line2d_11">
      <g>
       <use xlink:href="#m35de2aa5bc" x="46.051562" y="121.156069" style="stroke: #000000; stroke-width: 0.8"/>
      </g>
     </g>
     <g id="text_12">
      <!-- 10 -->
      <g transform="translate(23.781562 125.715131) scale(0.12 -0.12)">
       <use xlink:href="#DejaVuSans-31"/>
       <use xlink:href="#DejaVuSans-30" x="63.623047"/>
      </g>
     </g>
    </g>
    <g id="ytick_5">
     <g id="line2d_12">
      <g>
       <use xlink:href="#m35de2aa5bc" x="46.051562" y="87.207407" style="stroke: #000000; stroke-width: 0.8"/>
      </g>
     </g>
     <g id="text_13">
      <!-- 12 -->
      <g transform="translate(23.781562 91.76647) scale(0.12 -0.12)">
       <use xlink:href="#DejaVuSans-31"/>
       <use xlink:href="#DejaVuSans-32" x="63.623047"/>
      </g>
     </g>
    </g>
    <g id="ytick_6">
     <g id="line2d_13">
      <g>
       <use xlink:href="#m35de2aa5bc" x="46.051562" y="53.258745" style="stroke: #000000; stroke-width: 0.8"/>
      </g>
     </g>
     <g id="text_14">
      <!-- 14 -->
      <g transform="translate(23.781562 57.817808) scale(0.12 -0.12)">
       <use xlink:href="#DejaVuSans-31"/>
       <use xlink:href="#DejaVuSans-34" x="63.623047"/>
      </g>
     </g>
    </g>
    <g id="text_15">
     <!-- Utilization (%) -->
     <g transform="translate(17.077969 179.839844) rotate(-90) scale(0.13 -0.13)">
      <defs>
       <path id="DejaVuSans-55" d="M 556 4666 
L 1191 4666 
L 1191 1831 
Q 1191 1081 1462 751 
Q 1734 422 2344 422 
Q 2950 422 3222 751 
Q 3494 1081 3494 1831 
L 3494 4666 
L 4128 4666 
L 4128 1753 
Q 4128 841 3676 375 
Q 3225 -91 2344 -91 
Q 1459 -91 1007 375 
Q 556 841 556 1753 
L 556 4666 
z
" transform="scale(0.015625)"/>
       <path id="DejaVuSans-74" d="M 1172 4494 
L 1172 3500 
L 2356 3500 
L 2356 3053 
L 1172 3053 
L 1172 1153 
Q 1172 725 1289 603 
Q 1406 481 1766 481 
L 2356 481 
L 2356 0 
L 1766 0 
Q 1100 0 847 248 
Q 594 497 594 1153 
L 594 3053 
L 172 3053 
L 172 3500 
L 594 3500 
L 594 4494 
L 1172 4494 
z
" transform="scale(0.015625)"/>
       <path id="DejaVuSans-6c" d="M 603 4863 
L 1178 4863 
L 1178 0 
L 603 0 
L 603 4863 
z
" transform="scale(0.015625)"/>
       <path id="DejaVuSans-7a" d="M 353 3500 
L 3084 3500 
L 3084 2975 
L 922 459 
L 3084 459 
L 3084 0 
L 275 0 
L 275 525 
L 2438 3041 
L 353 3041 
L 353 3500 
z
" transform="scale(0.015625)"/>
       <path id="DejaVuSans-61" d="M 2194 1759 
Q 1497 1759 1228 1600 
Q 959 1441 959 1056 
Q 959 750 1161 570 
Q 1363 391 1709 391 
Q 2188 391 2477 730 
Q 2766 1069 2766 1631 
L 2766 1759 
L 2194 1759 
z
M 3341 1997 
L 3341 0 
L 2766 0 
L 2766 531 
Q 2569 213 2275 61 
Q 1981 -91 1556 -91 
Q 1019 -91 701 211 
Q 384 513 384 1019 
Q 384 1609 779 1909 
Q 1175 2209 1959 2209 
L 2766 2209 
L 2766 2266 
Q 2766 2663 2505 2880 
Q 2244 3097 1772 3097 
Q 1472 3097 1187 3025 
Q 903 2953 641 2809 
L 641 3341 
Q 956 3463 1253 3523 
Q 1550 3584 1831 3584 
Q 2591 3584 2966 3190 
Q 3341 2797 3341 1997 
z
" transform="scale(0.015625)"/>
       <path id="DejaVuSans-6f" d="M 1959 3097 
Q 1497 3097 1228 2736 
Q 959 2375 959 1747 
Q 959 1119 1226 758 
Q 1494 397 1959 397 
Q 2419 397 2687 759 
Q 2956 1122 2956 1747 
Q 2956 2369 2687 2733 
Q 2419 3097 1959 3097 
z
M 1959 3584 
Q 2709 3584 3137 3096 
Q 3566 2609 3566 1747 
Q 3566 888 3137 398 
Q 2709 -91 1959 -91 
Q 1206 -91 779 398 
Q 353 888 353 1747 
Q 353 2609 779 3096 
Q 1206 3584 1959 3584 
z
" transform="scale(0.015625)"/>
       <path id="DejaVuSans-6e" d="M 3513 2113 
L 3513 0 
L 2938 0 
L 2938 2094 
Q 2938 2591 2744 2837 
Q 2550 3084 2163 3084 
Q 1697 3084 1428 2787 
Q 1159 2491 1159 1978 
L 1159 0 
L 581 0 
L 581 3500 
L 1159 3500 
L 1159 2956 
Q 1366 3272 1645 3428 
Q 1925 3584 2291 3584 
Q 2894 3584 3203 3211 
Q 3513 2838 3513 2113 
z
" transform="scale(0.015625)"/>
       <path id="DejaVuSans-25" d="M 4653 2053 
Q 4381 2053 4226 1822 
Q 4072 1591 4072 1178 
Q 4072 772 4226 539 
Q 4381 306 4653 306 
Q 4919 306 5073 539 
Q 5228 772 5228 1178 
Q 5228 1588 5073 1820 
Q 4919 2053 4653 2053 
z
M 4653 2450 
Q 5147 2450 5437 2106 
Q 5728 1763 5728 1178 
Q 5728 594 5436 251 
Q 5144 -91 4653 -91 
Q 4153 -91 3862 251 
Q 3572 594 3572 1178 
Q 3572 1766 3864 2108 
Q 4156 2450 4653 2450 
z
M 1428 4353 
Q 1159 4353 1004 4120 
Q 850 3888 850 3481 
Q 850 3069 1003 2837 
Q 1156 2606 1428 2606 
Q 1700 2606 1854 2837 
Q 2009 3069 2009 3481 
Q 2009 3884 1853 4118 
Q 1697 4353 1428 4353 
z
M 4250 4750 
L 4750 4750 
L 1831 -91 
L 1331 -91 
L 4250 4750 
z
M 1428 4750 
Q 1922 4750 2215 4408 
Q 2509 4066 2509 3481 
Q 2509 2891 2217 2550 
Q 1925 2209 1428 2209 
Q 931 2209 642 2551 
Q 353 2894 353 3481 
Q 353 4063 643 4406 
Q 934 4750 1428 4750 
z
" transform="scale(0.015625)"/>
      </defs>
      <use xlink:href="#DejaVuSans-55"/>
      <use xlink:href="#DejaVuSans-74" x="73.193359"/>
      <use xlink:href="#DejaVuSans-69" x="112.402344"/>
      <use xlink:href="#DejaVuSans-6c" x="140.185547"/>
      <use xlink:href="#DejaVuSans-69" x="167.96875"/>
      <use xlink:href="#DejaVuSans-7a" x="195.751953"/>
      <use xlink:href="#DejaVuSans-61" x="248.242188"/>
      <use xlink:href="#DejaVuSans-74" x="309.521484"/>
      <use xlink:href="#DejaVuSans-69" x="348.730469"/>
      <use xlink:href="#DejaVuSans-6f" x="376.513672"/>
      <use xlink:href="#DejaVuSans-6e" x="437.695312"/>
      <use xlink:href="#DejaVuSans-20" x="501.074219"/>
      <use xlink:href="#DejaVuSans-28" x="532.861328"/>
      <use xlink:href="#DejaVuSans-25" x="571.875"/>
      <use xlink:href="#DejaVuSans-29" x="666.894531"/>
     </g>
    </g>
   </g>
   <g id="line2d_14">
    <path d="M 68.878835 212.166547 
L 69.060339 212.055648 
L 71.287335 212.815645 
L 74.902023 213.447996 
L 76.131751 212.710178 
L 76.878094 213.276895 
L 77.288135 213.223935 
L 78.219781 215.187525 
L 78.506508 215.302498 
L 82.676227 214.739403 
L 90.420095 214.847133 
L 90.682692 215.377185 
L 94.603847 215.372659 
L 95.983409 215.518412 
L 96.33146 215.862877 
L 96.972807 216.250797 
L 98.866028 216.719742 
L 98.92658 215.994598 
L 99.154632 215.706713 
L 99.336136 215.877815 
L 101.563132 215.593099 
L 105.17782 215.259949 
L 106.407548 215.483105 
L 107.153891 215.895468 
L 107.563932 216.563578 
L 107.896269 216.745542 
L 108.495578 217.386041 
L 108.782305 217.330817 
L 112.952024 217.321764 
L 120.695892 211.59802 
L 120.958489 206.401159 
L 123.766357 201.362725 
L 125.969315 191.904628 
L 126.607256 187.224691 
L 129.141825 184.126763 
L 129.202377 179.466291 
L 129.611933 174.722078 
L 131.838929 170.741032 
L 135.453617 166.069243 
L 136.683344 161.87862 
L 137.839729 155.139585 
L 138.172066 150.980647 
L 138.771375 146.148621 
L 139.058102 138.372114 
L 141.397104 134.294654 
L 142.386502 128.22237 
L 143.227821 125.845058 
L 144.568328 123.717609 
L 150.971689 122.850786 
L 151.234286 119.609368 
L 154.042154 117.368756 
L 155.155441 115.541413 
L 156.883053 114.280786 
L 159.478174 112.0189 
L 159.887729 111.284251 
L 162.114726 110.136786 
L 165.729414 109.377694 
L 166.959141 107.505086 
L 167.705485 106.068831 
L 168.447863 102.458957 
L 169.047172 100.65153 
L 169.333899 99.329343 
L 171.383011 97.425049 
L 171.672901 95.655645 
L 172.662299 94.814171 
L 173.503618 93.583418 
L 174.555521 92.320528 
L 174.844125 90.671076 
L 181.510083 91.800887 
L 185.431238 90.441583 
L 189.753971 88.60066 
L 190.163526 86.795497 
L 192.390523 85.396359 
L 196.005211 83.781308 
L 197.234938 77.978803 
L 198.391322 75.574785 
L 198.72366 73.49079 
L 199.322969 72.514426 
L 199.609696 68.894593 
L 201.658808 67.359209 
L 201.948698 65.544992 
L 202.296749 64.176182 
L 203.779415 60.766831 
L 204.831317 59.642904 
L 205.119922 57.982588 
L 215.707035 56.632789 
L 220.439323 52.196378 
L 226.281008 50.266736 
L 226.661181 49.604511 
L 226.923778 48.556176 
L 228.667119 43.406391 
L 228.999457 41.37264 
L 229.598766 39.724093 
L 229.885493 33.157969 
L 231.934605 37.272547 
L 232.572546 45.143204 
L 233.213893 48.587409 
L 234.055212 52.085932 
L 235.107114 55.088352 
L 235.395718 59.686811 
L 237.804219 62.866216 
L 245.982832 64.798574 
L 250.71512 67.550226 
L 256.556805 70.021689 
L 256.936978 73.137724 
L 257.199575 73.585846 
L 257.786532 76.220262 
L 258.532876 78.803529 
L 259.275254 82.184816 
L 259.874563 83.790361 
L 260.007444 87.956541 
L 260.16129 88.319565 
L 262.210401 88.749129 
L 262.500292 85.2325 
L 262.848343 86.140514 
L 263.48969 86.967503 
L 265.382911 86.760643 
L 265.443463 85.718192 
L 265.671515 86.19619 
L 268.080016 83.261215 
L 274.080815 81.916395 
L 279.468908 81.021961 
L 286.832602 81.912774 
L 287.212775 80.296817 
L 287.475372 82.152678 
L 288.808673 80.988917 
L 289.551051 81.638921 
L 290.283241 83.77316 
L 290.437087 83.425979 
L 291.396527 83.06386 
L 292.486198 84.058329 
L 293.12414 86.564646 
L 293.765487 88.077398 
L 295.658708 89.604635 
L 295.71926 90.826787 
L 296.128816 94.000308 
L 298.355813 93.377916 
L 304.356612 95.487712 
L 305.288259 99.915523 
L 309.744705 101.49572 
L 317.108399 102.202757 
L 317.488572 104.401273 
L 317.751169 104.979305 
L 319.826848 106.753689 
L 320.559038 107.569362 
L 320.712884 109.111989 
L 321.672324 110.703502 
L 322.761995 110.638321 
L 323.399937 113.197145 
L 324.041284 113.870686 
L 325.934505 114.724382 
L 326.223109 119.661875 
L 326.404613 120.739632 
L 328.63161 121.955899 
L 333.476025 122.992918 
L 334.222368 124.806682 
L 334.632409 126.485556 
L 335.564056 126.367415 
L 340.020502 127.546112 
L 347.764369 127.974771 
L 348.026966 132.70133 
L 350.102645 134.715164 
L 350.834835 136.444736 
L 353.037792 138.855091 
L 353.675734 142.32057 
L 354.317081 144.048783 
L 356.210302 145.938139 
L 356.270854 146.635219 
L 356.498906 145.410351 
L 356.68041 147.343614 
L 358.907407 148.807933 
L 362.522094 151.337787 
L 363.751822 152.911195 
L 364.498165 154.926387 
L 364.908206 156.446835 
L 365.839853 157.839182 
L 366.126579 162.191401 
L 370.296298 165.002803 
L 378.040166 166.845083 
L 378.302763 168.572844 
L 381.110631 170.162999 
L 382.223918 174.253587 
L 383.313589 176.304086 
L 383.60348 177.231111 
L 384.592878 178.778264 
L 386.486099 180.788025 
L 386.774703 186.928659 
L 389.183203 189.371152 
L 392.797891 190.457057 
L 394.027619 190.98394 
L 394.773962 193.978665 
L 395.184003 194.387859 
L 395.51634 196.253678 
L 396.402376 199.427198 
L 399.089429 199.322637 
L 400.572095 201.390789 
L 402.094105 202.987281 
L 408.57856 203.044768 
L 411.386428 203.668971 
L 412.499715 203.494248 
L 414.868675 203.319073 
L 416.761896 203.589304 
L 417.0505 202.870045 
L 419.459 204.706894 
L 423.073688 204.430779 
L 424.303416 203.707898 
L 425.049759 203.425446 
L 425.4598 203.830566 
L 425.792137 203.663539 
L 426.391446 204.741296 
L 426.678173 204.920545 
L 429.017175 205.722186 
L 429.365226 206.233226 
L 430.847892 207.49838 
L 432.369902 207.743715 
L 438.59176 207.738736 
L 438.854357 208.23846 
L 441.662225 208.52725 
L 442.775512 209.105283 
L 447.098245 210.038192 
L 449.734797 210.382205 
L 453.349485 209.86347 
L 454.579213 209.452465 
L 455.325556 209.333871 
L 455.735597 209.737633 
L 456.067934 211.168004 
L 456.667243 211.744226 
L 456.95397 212.673514 
L 459.292972 212.448095 
L 459.641023 212.621912 
L 460.28237 212.626891 
L 461.123689 212.460316 
L 462.175592 211.932075 
L 462.464196 212.041163 
L 462.645699 211.769574 
L 468.867557 211.708014 
L 469.130154 211.971455 
L 473.051309 214.664263 
L 483.625282 215.175304 
L 484.855009 214.731708 
L 485.601353 214.795984 
L 486.343731 214.502668 
L 486.94304 213.985743 
L 487.075921 213.523588 
L 487.229767 213.647614 
L 489.278879 212.807498 
L 489.568769 213.014358 
L 489.91682 213.122089 
L 490.558167 213.186817 
L 491.399486 206.005091 
L 492.451389 205.220198 
L 492.51194 205.713133 
L 492.921496 203.801597 
L 503.327106 203.46211 
L 515.87715 202.376658 
L 517.505564 202.302424 
L 525.42429 202.23 
L 525.42429 202.23 
" clip-path="url(#pb970be0ed1)" style="fill: none; stroke: #009384; stroke-width: 2.5; stroke-linecap: square"/>
   </g>
   <g id="line2d_15">
    <path d="M 68.878835 91.544869 
L 69.060339 91.528031 
L 74.902023 91.541927 
L 76.131751 91.696439 
L 77.288135 91.241255 
L 78.219781 91.390063 
L 78.506508 91.226408 
L 82.676227 91.275226 
L 94.603847 91.204522 
L 96.33146 91.329363 
L 96.972807 91.176006 
L 98.866028 91.201558 
L 98.92658 91.35367 
L 99.154632 91.330246 
L 99.336136 91.47412 
L 101.563132 91.491932 
L 106.407548 91.645583 
L 107.153891 91.352991 
L 107.896269 91.469503 
L 108.782305 91.405295 
L 112.952024 91.43096 
L 123.766357 91.390606 
L 125.969315 91.488311 
L 126.607256 91.31515 
L 129.141825 91.365258 
L 129.202377 91.148643 
L 129.611933 91.30191 
L 131.838929 91.456195 
L 136.683344 91.369083 
L 138.172066 91.063477 
L 138.771375 91.176368 
L 139.058102 90.997164 
L 141.397104 91.063703 
L 142.386502 90.916909 
L 144.568328 90.932571 
L 151.234286 90.926981 
L 155.155441 91.058475 
L 156.883053 90.930421 
L 162.114726 91.139092 
L 165.729414 91.136354 
L 166.959141 91.324316 
L 168.115525 90.99988 
L 168.447863 91.237091 
L 169.333899 90.987409 
L 189.753971 91.359736 
L 190.163526 91.419689 
L 196.005211 91.456489 
L 196.385384 91.311642 
L 197.234938 91.629288 
L 198.391322 91.469096 
L 198.72366 91.645335 
L 199.322969 91.595611 
L 199.45585 91.713617 
L 199.609696 91.647937 
L 203.779415 91.780722 
L 205.119922 91.849479 
L 215.707035 91.828046 
L 220.439323 92.120186 
L 226.281008 92.000053 
L 226.661181 91.879128 
L 227.510735 91.894835 
L 229.885493 91.940009 
L 232.572546 92.039524 
L 233.213893 91.991566 
L 235.395718 92.226422 
L 237.804219 92.071798 
L 245.982832 92.053986 
L 250.71512 92.292441 
L 256.556805 92.356378 
L 257.199575 92.687604 
L 258.532876 92.876426 
L 259.275254 93.032409 
L 259.874563 92.969468 
L 260.007444 93.167751 
L 260.16129 93.09286 
L 263.48969 93.141543 
L 265.382911 93.098926 
L 265.443463 93.240808 
L 265.671515 93.151954 
L 268.080016 92.977435 
L 274.080815 92.82247 
L 279.468908 92.874865 
L 286.832602 92.804523 
L 287.475372 93.066222 
L 288.062329 92.964942 
L 290.283241 93.120811 
L 290.437087 93.080526 
L 291.396527 93.164062 
L 295.71926 92.759824 
L 295.947312 92.448605 
L 296.128816 92.571929 
L 304.356612 92.542937 
L 305.288259 92.397297 
L 309.744705 92.654153 
L 317.108399 92.761861 
L 317.488572 92.502063 
L 317.751169 92.533273 
L 320.559038 92.576773 
L 320.712884 92.480268 
L 322.761995 92.436995 
L 323.051886 92.494572 
L 323.399937 92.334832 
L 324.041284 92.246724 
L 325.995057 92.223095 
L 326.223109 91.912578 
L 326.404613 92.024881 
L 328.63161 92.121566 
L 347.764369 91.931295 
L 348.026966 91.991815 
L 350.834835 92.142275 
L 353.037792 92.153433 
L 353.327683 92.251974 
L 353.675734 92.136458 
L 356.498906 92.039546 
L 356.68041 92.211032 
L 358.907407 92.08067 
L 362.522094 92.092008 
L 363.751822 92.231832 
L 364.498165 92.174707 
L 364.908206 92.00897 
L 366.126579 91.841739 
L 370.296298 91.943834 
L 378.302763 91.933966 
L 383.313589 91.979208 
L 383.60348 92.081892 
L 386.774703 91.903027 
L 389.183203 92.042964 
L 394.027619 92.06786 
L 394.773962 92.175997 
L 395.184003 92.064691 
L 395.51634 92.149993 
L 399.089429 91.952774 
L 402.094105 92.226807 
L 408.57856 92.215966 
L 414.868675 92.398904 
L 416.761896 92.313761 
L 416.822448 92.456753 
L 417.0505 92.221353 
L 419.459 92.219587 
L 425.4598 92.38064 
L 425.792137 92.62335 
L 426.678173 92.462298 
L 428.727285 92.509418 
L 429.017175 92.645621 
L 429.365226 92.579466 
L 432.369902 92.889349 
L 438.59176 92.897836 
L 438.854357 93.041507 
L 447.098245 93.223155 
L 449.734797 93.106711 
L 455.735597 93.227863 
L 456.067934 93.399168 
L 456.95397 93.458284 
L 459.292972 93.32052 
L 460.28237 93.174767 
L 461.123689 93.238455 
L 462.464196 93.131018 
L 462.645699 93.377644 
L 485.601353 93.111532 
L 486.011394 93.014212 
L 486.343731 93.199504 
L 487.075921 93.261947 
L 487.229767 93.13301 
L 489.568769 93.167547 
L 490.558167 92.986578 
L 491.399486 93.045196 
L 492.451389 92.944391 
L 492.51194 93.060451 
L 492.739993 93.028222 
L 492.921496 93.135794 
L 503.327106 93.208421 
L 515.87715 93.006495 
L 517.505564 92.889395 
L 525.42429 92.912253 
L 525.42429 92.912253 
" clip-path="url(#pb970be0ed1)" style="fill: none; stroke: #b85741; stroke-width: 2.5; stroke-linecap: square"/>
   </g>
   <g id="line2d_16">
    <path d="M 68.878835 213.21062 
L 69.060339 220.203014 
L 71.287335 230.000498 
L 74.902023 230.041151 
L 76.131751 224.390321 
L 77.288135 224.309014 
L 78.219781 222.764182 
L 78.506508 223.048756 
L 82.676227 217.194658 
L 90.420095 215.853094 
L 90.682692 215.649827 
L 93.49056 215.405906 
L 94.603847 212.804085 
L 95.693518 212.804085 
L 95.983409 213.129313 
L 96.33146 213.169966 
L 96.972807 219.79648 
L 98.92658 219.552559 
L 99.336136 219.837133 
L 101.563132 225.772538 
L 106.407548 225.731885 
L 107.153891 228.699587 
L 107.563932 231.260755 
L 107.896269 231.342062 
L 108.782305 231.260755 
L 112.952024 231.260755 
L 120.695892 232.195785 
L 120.958489 230.407032 
L 123.766357 231.464022 
L 124.879644 231.138795 
L 125.969315 228.780894 
L 126.607256 228.577627 
L 129.141825 228.415013 
L 129.202377 228.008478 
L 129.611933 231.626636 
L 131.838929 231.78925 
L 135.453617 231.585983 
L 136.683344 226.463647 
L 137.429688 226.626261 
L 137.839729 220.690856 
L 138.172066 220.568895 
L 138.771375 223.943133 
L 139.058102 221.788499 
L 141.397104 221.788499 
L 142.386502 222.276341 
L 143.227821 220.365628 
L 144.568328 211.462521 
L 150.971689 211.421867 
L 151.234286 202.315493 
L 154.042154 202.234186 
L 155.155441 197.193157 
L 156.883053 196.461395 
L 159.478174 196.339434 
L 159.887729 199.998246 
L 162.114726 200.28282 
L 165.729414 197.680998 
L 168.115525 197.477731 
L 168.447863 196.583355 
L 169.047172 192.558663 
L 169.333899 192.558663 
L 171.383011 192.680623 
L 171.672901 191.908207 
L 172.662299 191.745594 
L 174.555521 175.240289 
L 174.844125 166.418489 
L 181.510083 166.337182 
L 185.431238 169.95534 
L 189.753971 170.727756 
L 190.163526 166.377836 
L 192.390523 165.524113 
L 196.005211 165.361499 
L 196.385384 165.564766 
L 197.981282 165.442806 
L 198.391322 164.67039 
L 198.72366 164.54843 
L 199.45585 172.028666 
L 199.609696 171.581478 
L 201.658808 171.784746 
L 201.948698 174.30526 
L 202.296749 174.142646 
L 202.938096 173.085656 
L 203.779415 173.004349 
L 204.831317 170.727756 
L 205.119922 161.783995 
L 215.707035 161.824648 
L 220.439323 155.889243 
L 226.281008 155.767283 
L 227.510735 155.401402 
L 228.257079 154.385065 
L 228.667119 154.344412 
L 228.999457 152.515006 
L 229.598766 150.766908 
L 229.731647 148.856195 
L 229.885493 148.693581 
L 231.934605 148.815542 
L 232.224495 145.644572 
L 232.572546 150.44168 
L 233.213893 150.685601 
L 234.055212 146.782869 
L 235.107114 146.864176 
L 235.167666 145.481958 
L 235.395718 137.310613 
L 237.804219 136.131663 
L 245.982832 136.294276 
L 250.71512 131.131287 
L 256.556805 136.091009 
L 256.936978 136.21297 
L 257.199575 141.497919 
L 257.786532 141.619879 
L 258.532876 142.432949 
L 259.275254 141.823147 
L 259.874563 141.660533 
L 260.007444 142.026414 
L 260.16129 144.262354 
L 262.210401 153.328075 
L 262.500292 153.246769 
L 262.848343 162.353143 
L 263.48969 157.840609 
L 265.382911 162.475104 
L 265.443463 163.125559 
L 265.671515 163.206866 
L 268.080016 163.248536 
L 274.080815 163.126575 
L 279.468908 165.89101 
L 287.212775 163.695724 
L 287.475372 163.817684 
L 288.062329 155.808953 
L 288.808673 159.264497 
L 289.551051 159.345804 
L 290.283241 157.435091 
L 290.437087 158.085546 
L 291.396527 158.1262 
L 292.486198 163.045268 
L 293.12414 180.648216 
L 293.765487 180.770176 
L 295.658708 181.623899 
L 295.71926 181.298671 
L 295.947312 176.867444 
L 296.128816 177.843127 
L 298.355813 177.843127 
L 304.356612 183.04677 
L 305.288259 183.16873 
L 309.744705 183.250037 
L 317.108399 185.892512 
L 317.488572 184.835522 
L 317.751169 178.046394 
L 319.826848 178.127701 
L 320.559038 178.81881 
L 320.712884 178.412276 
L 321.672324 170.728772 
L 322.761995 170.769425 
L 323.051886 171.785762 
L 323.399937 171.867069 
L 324.041284 174.021702 
L 325.995057 183.290691 
L 326.223109 189.226095 
L 326.404613 181.745859 
L 328.63161 181.827166 
L 333.476025 181.176711 
L 334.222368 181.379978 
L 334.632409 177.436593 
L 335.564056 174.794118 
L 340.020502 174.875425 
L 347.764369 176.216989 
L 348.026966 178.209008 
L 350.102645 178.371622 
L 350.834835 178.168355 
L 351.948121 183.534611 
L 353.037792 183.534611 
L 353.327683 183.656572 
L 353.675734 189.429363 
L 354.317081 187.437343 
L 356.210302 184.428987 
L 356.270854 191.218115 
L 356.498906 192.640986 
L 356.68041 192.640986 
L 358.907407 197.966589 
L 362.522094 195.649342 
L 363.751822 195.730649 
L 364.498165 191.218115 
L 365.839853 191.136808 
L 366.126579 193.901243 
L 370.296298 194.10451 
L 378.040166 188.413026 
L 378.302763 184.916829 
L 381.110631 184.998136 
L 382.223918 184.754215 
L 383.313589 184.754215 
L 383.60348 188.697601 
L 384.592878 189.144789 
L 389.183203 189.469 
L 392.797891 188.899851 
L 394.027619 188.899851 
L 395.184003 188.981158 
L 395.51634 197.802959 
L 396.115649 198.412761 
L 396.402376 198.372107 
L 399.089429 205.93365 
L 400.572095 204.876661 
L 402.094105 204.957967 
L 408.315963 208.006977 
L 408.57856 207.966323 
L 411.386428 208.535472 
L 412.499715 208.454165 
L 414.868675 208.413511 
L 416.761896 208.779393 
L 416.822448 217.519886 
L 419.459 217.56054 
L 424.303416 217.80446 
L 425.049759 217.763807 
L 425.4598 217.357272 
L 425.792137 218.454916 
L 426.391446 225.20339 
L 426.678173 225.20339 
L 428.727285 225.32535 
L 429.017175 225.853845 
L 429.365226 233.578002 
L 430.847892 233.618656 
L 432.369902 232.114478 
L 442.775512 232.073824 
L 447.098245 224.105746 
L 449.734797 228.130439 
L 453.349485 228.171092 
L 454.579213 228.943508 
L 455.325556 225.000122 
L 455.735597 230.286088 
L 456.067934 233.00987 
L 456.667243 234.757969 
L 456.95397 228.944524 
L 459.003082 228.944524 
L 459.292972 227.72492 
L 459.641023 227.155772 
L 460.28237 227.074465 
L 461.123689 217.033061 
L 462.175592 216.992407 
L 462.464196 212.398567 
L 462.645699 214.593853 
L 468.867557 219.106387 
L 469.130154 220.895139 
L 473.051309 220.691872 
L 483.625282 220.813833 
L 484.855009 223.25304 
L 485.601353 223.293694 
L 486.011394 228.172109 
L 487.075921 221.261021 
L 487.229767 221.261021 
L 489.278879 227.033812 
L 489.568769 230.164128 
L 490.558167 230.082821 
L 491.399486 226.302049 
L 492.451389 219.065734 
L 492.51194 219.106387 
L 492.921496 205.324865 
L 514.281252 205.406172 
L 515.87715 206.056627 
L 517.505564 203.454806 
L 525.42429 202.926311 
L 525.42429 202.926311 
" clip-path="url(#pb970be0ed1)" style="fill: none; stroke: #002f4a; stroke-width: 2.5; stroke-linecap: square"/>
   </g>
   <g id="patch_3">
    <path d="M 46.051562 244.837969 
L 46.051562 23.077969 
" style="fill: none; stroke: #000000; stroke-width: 0.8; stroke-linejoin: miter; stroke-linecap: square"/>
   </g>
   <g id="patch_4">
    <path d="M 548.251563 244.837969 
L 548.251563 23.077969 
" style="fill: none; stroke: #000000; stroke-width: 0.8; stroke-linejoin: miter; stroke-linecap: square"/>
   </g>
   <g id="patch_5">
    <path d="M 46.051562 244.837969 
L 548.251563 244.837969 
" style="fill: none; stroke: #000000; stroke-width: 0.8; stroke-linejoin: miter; stroke-linecap: square"/>
   </g>
   <g id="patch_6">
    <path d="M 46.051562 23.077969 
L 548.251563 23.077969 
" style="fill: none; stroke: #000000; stroke-width: 0.8; stroke-linejoin: miter; stroke-linecap: square"/>
   </g>
   <g id="text_16">
    <!-- Create VM Type 2 (KubeVirt) -->
    <g transform="translate(205.593984 17.077969) scale(0.13 -0.13)">
     <defs>
      <path id="DejaVuSans-43" d="M 4122 4306 
L 4122 3641 
Q 3803 3938 3442 4084 
Q 3081 4231 2675 4231 
Q 1875 4231 1450 3742 
Q 1025 3253 1025 2328 
Q 1025 1406 1450 917 
Q 1875 428 2675 428 
Q 3081 428 3442 575 
Q 3803 722 4122 1019 
L 4122 359 
Q 3791 134 3420 21 
Q 3050 -91 2638 -91 
Q 1578 -91 968 557 
Q 359 1206 359 2328 
Q 359 3453 968 4101 
Q 1578 4750 2638 4750 
Q 3056 4750 3426 4639 
Q 3797 4528 4122 4306 
z
" transform="scale(0.015625)"/>
      <path id="DejaVuSans-72" d="M 2631 2963 
Q 2534 3019 2420 3045 
Q 2306 3072 2169 3072 
Q 1681 3072 1420 2755 
Q 1159 2438 1159 1844 
L 1159 0 
L 581 0 
L 581 3500 
L 1159 3500 
L 1159 2956 
Q 1341 3275 1631 3429 
Q 1922 3584 2338 3584 
Q 2397 3584 2469 3576 
Q 2541 3569 2628 3553 
L 2631 2963 
z
" transform="scale(0.015625)"/>
      <path id="DejaVuSans-56" d="M 1831 0 
L 50 4666 
L 709 4666 
L 2188 738 
L 3669 4666 
L 4325 4666 
L 2547 0 
L 1831 0 
z
" transform="scale(0.015625)"/>
      <path id="DejaVuSans-4d" d="M 628 4666 
L 1569 4666 
L 2759 1491 
L 3956 4666 
L 4897 4666 
L 4897 0 
L 4281 0 
L 4281 4097 
L 3078 897 
L 2444 897 
L 1241 4097 
L 1241 0 
L 628 0 
L 628 4666 
z
" transform="scale(0.015625)"/>
      <path id="DejaVuSans-79" d="M 2059 -325 
Q 1816 -950 1584 -1140 
Q 1353 -1331 966 -1331 
L 506 -1331 
L 506 -850 
L 844 -850 
Q 1081 -850 1212 -737 
Q 1344 -625 1503 -206 
L 1606 56 
L 191 3500 
L 800 3500 
L 1894 763 
L 2988 3500 
L 3597 3500 
L 2059 -325 
z
" transform="scale(0.015625)"/>
      <path id="DejaVuSans-70" d="M 1159 525 
L 1159 -1331 
L 581 -1331 
L 581 3500 
L 1159 3500 
L 1159 2969 
Q 1341 3281 1617 3432 
Q 1894 3584 2278 3584 
Q 2916 3584 3314 3078 
Q 3713 2572 3713 1747 
Q 3713 922 3314 415 
Q 2916 -91 2278 -91 
Q 1894 -91 1617 61 
Q 1341 213 1159 525 
z
M 3116 1747 
Q 3116 2381 2855 2742 
Q 2594 3103 2138 3103 
Q 1681 3103 1420 2742 
Q 1159 2381 1159 1747 
Q 1159 1113 1420 752 
Q 1681 391 2138 391 
Q 2594 391 2855 752 
Q 3116 1113 3116 1747 
z
" transform="scale(0.015625)"/>
      <path id="DejaVuSans-4b" d="M 628 4666 
L 1259 4666 
L 1259 2694 
L 3353 4666 
L 4166 4666 
L 1850 2491 
L 4331 0 
L 3500 0 
L 1259 2247 
L 1259 0 
L 628 0 
L 628 4666 
z
" transform="scale(0.015625)"/>
      <path id="DejaVuSans-75" d="M 544 1381 
L 544 3500 
L 1119 3500 
L 1119 1403 
Q 1119 906 1312 657 
Q 1506 409 1894 409 
Q 2359 409 2629 706 
Q 2900 1003 2900 1516 
L 2900 3500 
L 3475 3500 
L 3475 0 
L 2900 0 
L 2900 538 
Q 2691 219 2414 64 
Q 2138 -91 1772 -91 
Q 1169 -91 856 284 
Q 544 659 544 1381 
z
M 1991 3584 
L 1991 3584 
z
" transform="scale(0.015625)"/>
      <path id="DejaVuSans-62" d="M 3116 1747 
Q 3116 2381 2855 2742 
Q 2594 3103 2138 3103 
Q 1681 3103 1420 2742 
Q 1159 2381 1159 1747 
Q 1159 1113 1420 752 
Q 1681 391 2138 391 
Q 2594 391 2855 752 
Q 3116 1113 3116 1747 
z
M 1159 2969 
Q 1341 3281 1617 3432 
Q 1894 3584 2278 3584 
Q 2916 3584 3314 3078 
Q 3713 2572 3713 1747 
Q 3713 922 3314 415 
Q 2916 -91 2278 -91 
Q 1894 -91 1617 61 
Q 1341 213 1159 525 
L 1159 0 
L 581 0 
L 581 4863 
L 1159 4863 
L 1159 2969 
z
" transform="scale(0.015625)"/>
     </defs>
     <use xlink:href="#DejaVuSans-43"/>
     <use xlink:href="#DejaVuSans-72" x="69.824219"/>
     <use xlink:href="#DejaVuSans-65" x="108.6875"/>
     <use xlink:href="#DejaVuSans-61" x="170.210938"/>
     <use xlink:href="#DejaVuSans-74" x="231.490234"/>
     <use xlink:href="#DejaVuSans-65" x="270.699219"/>
     <use xlink:href="#DejaVuSans-20" x="332.222656"/>
     <use xlink:href="#DejaVuSans-56" x="364.009766"/>
     <use xlink:href="#DejaVuSans-4d" x="432.417969"/>
     <use xlink:href="#DejaVuSans-20" x="518.697266"/>
     <use xlink:href="#DejaVuSans-54" x="550.484375"/>
     <use xlink:href="#DejaVuSans-79" x="595.943359"/>
     <use xlink:href="#DejaVuSans-70" x="655.123047"/>
     <use xlink:href="#DejaVuSans-65" x="718.599609"/>
     <use xlink:href="#DejaVuSans-20" x="780.123047"/>
     <use xlink:href="#DejaVuSans-32" x="811.910156"/>
     <use xlink:href="#DejaVuSans-20" x="875.533203"/>
     <use xlink:href="#DejaVuSans-28" x="907.320312"/>
     <use xlink:href="#DejaVuSans-4b" x="946.333984"/>
     <use xlink:href="#DejaVuSans-75" x="1006.910156"/>
     <use xlink:href="#DejaVuSans-62" x="1070.289062"/>
     <use xlink:href="#DejaVuSans-65" x="1133.765625"/>
     <use xlink:href="#DejaVuSans-56" x="1195.289062"/>
     <use xlink:href="#DejaVuSans-69" x="1261.447266"/>
     <use xlink:href="#DejaVuSans-72" x="1289.230469"/>
     <use xlink:href="#DejaVuSans-74" x="1330.34375"/>
     <use xlink:href="#DejaVuSans-29" x="1369.552734"/>
    </g>
   </g>
   <g id="legend_1">
    <g id="patch_7">
     <path d="M 471.217188 85.519219 
L 539.851563 85.519219 
Q 542.251563 85.519219 542.251563 83.119219 
L 542.251563 31.477969 
Q 542.251563 29.077969 539.851563 29.077969 
L 471.217188 29.077969 
Q 468.817188 29.077969 468.817188 31.477969 
L 468.817188 83.119219 
Q 468.817188 85.519219 471.217188 85.519219 
z
" style="fill: #ffffff; opacity: 0.8; stroke: #cccccc; stroke-linejoin: miter"/>
    </g>
    <g id="line2d_17">
     <path d="M 473.617188 38.796094 
L 485.617188 38.796094 
L 497.617188 38.796094 
" style="fill: none; stroke: #009384; stroke-width: 2.5; stroke-linecap: square"/>
    </g>
    <g id="text_17">
     <!--  CPU -->
     <g transform="translate(507.217188 42.996094) scale(0.12 -0.12)">
      <defs>
       <path id="DejaVuSans-50" d="M 1259 4147 
L 1259 2394 
L 2053 2394 
Q 2494 2394 2734 2622 
Q 2975 2850 2975 3272 
Q 2975 3691 2734 3919 
Q 2494 4147 2053 4147 
L 1259 4147 
z
M 628 4666 
L 2053 4666 
Q 2838 4666 3239 4311 
Q 3641 3956 3641 3272 
Q 3641 2581 3239 2228 
Q 2838 1875 2053 1875 
L 1259 1875 
L 1259 0 
L 628 0 
L 628 4666 
z
" transform="scale(0.015625)"/>
      </defs>
      <use xlink:href="#DejaVuSans-20"/>
      <use xlink:href="#DejaVuSans-43" x="31.787109"/>
      <use xlink:href="#DejaVuSans-50" x="101.611328"/>
      <use xlink:href="#DejaVuSans-55" x="161.914062"/>
     </g>
    </g>
    <g id="line2d_18">
     <path d="M 473.617188 56.409844 
L 485.617188 56.409844 
L 497.617188 56.409844 
" style="fill: none; stroke: #b85741; stroke-width: 2.5; stroke-linecap: square"/>
    </g>
    <g id="text_18">
     <!--  RAM -->
     <g transform="translate(507.217188 60.609844) scale(0.12 -0.12)">
      <defs>
       <path id="DejaVuSans-52" d="M 2841 2188 
Q 3044 2119 3236 1894 
Q 3428 1669 3622 1275 
L 4263 0 
L 3584 0 
L 2988 1197 
Q 2756 1666 2539 1819 
Q 2322 1972 1947 1972 
L 1259 1972 
L 1259 0 
L 628 0 
L 628 4666 
L 2053 4666 
Q 2853 4666 3247 4331 
Q 3641 3997 3641 3322 
Q 3641 2881 3436 2590 
Q 3231 2300 2841 2188 
z
M 1259 4147 
L 1259 2491 
L 2053 2491 
Q 2509 2491 2742 2702 
Q 2975 2913 2975 3322 
Q 2975 3731 2742 3939 
Q 2509 4147 2053 4147 
L 1259 4147 
z
" transform="scale(0.015625)"/>
       <path id="DejaVuSans-41" d="M 2188 4044 
L 1331 1722 
L 3047 1722 
L 2188 4044 
z
M 1831 4666 
L 2547 4666 
L 4325 0 
L 3669 0 
L 3244 1197 
L 1141 1197 
L 716 0 
L 50 0 
L 1831 4666 
z
" transform="scale(0.015625)"/>
      </defs>
      <use xlink:href="#DejaVuSans-20"/>
      <use xlink:href="#DejaVuSans-52" x="31.787109"/>
      <use xlink:href="#DejaVuSans-41" x="97.269531"/>
      <use xlink:href="#DejaVuSans-4d" x="165.677734"/>
     </g>
    </g>
    <g id="line2d_19">
     <path d="M 473.617188 74.023594 
L 485.617188 74.023594 
L 497.617188 74.023594 
" style="fill: none; stroke: #002f4a; stroke-width: 2.5; stroke-linecap: square"/>
    </g>
    <g id="text_19">
     <!--  Disk -->
     <g transform="translate(507.217188 78.223594) scale(0.12 -0.12)">
      <defs>
       <path id="DejaVuSans-44" d="M 1259 4147 
L 1259 519 
L 2022 519 
Q 2988 519 3436 956 
Q 3884 1394 3884 2338 
Q 3884 3275 3436 3711 
Q 2988 4147 2022 4147 
L 1259 4147 
z
M 628 4666 
L 1925 4666 
Q 3281 4666 3915 4102 
Q 4550 3538 4550 2338 
Q 4550 1131 3912 565 
Q 3275 0 1925 0 
L 628 0 
L 628 4666 
z
" transform="scale(0.015625)"/>
       <path id="DejaVuSans-6b" d="M 581 4863 
L 1159 4863 
L 1159 1991 
L 2875 3500 
L 3609 3500 
L 1753 1863 
L 3688 0 
L 2938 0 
L 1159 1709 
L 1159 0 
L 581 0 
L 581 4863 
z
" transform="scale(0.015625)"/>
      </defs>
      <use xlink:href="#DejaVuSans-20"/>
      <use xlink:href="#DejaVuSans-44" x="31.787109"/>
      <use xlink:href="#DejaVuSans-69" x="108.789062"/>
      <use xlink:href="#DejaVuSans-73" x="136.572266"/>
      <use xlink:href="#DejaVuSans-6b" x="188.671875"/>
     </g>
    </g>
   </g>
  </g>
 </g>
 <defs>
  <clipPath id="pb970be0ed1">
   <rect x="46.051562" y="23.077969" width="502.2" height="221.76"/>
  </clipPath>
 </defs>
</svg>
