<?xml version="1.0" encoding="utf-8" standalone="no"?>
<!DOCTYPE svg PUBLIC "-//W3C//DTD SVG 1.1//EN"
  "http://www.w3.org/Graphics/SVG/1.1/DTD/svg11.dtd">
<svg xmlns:xlink="http://www.w3.org/1999/xlink" width="574.592812pt" height="298.015156pt" viewBox="0 0 574.592812 298.015156" xmlns="http://www.w3.org/2000/svg" version="1.1">
 <metadata>
  <rdf:RDF xmlns:dc="http://purl.org/dc/elements/1.1/" xmlns:cc="http://creativecommons.org/ns#" xmlns:rdf="http://www.w3.org/1999/02/22-rdf-syntax-ns#">
   <cc:Work>
    <dc:type rdf:resource="http://purl.org/dc/dcmitype/StillImage"/>
    <dc:date>2024-06-25T10:48:48.779314</dc:date>
    <dc:format>image/svg+xml</dc:format>
    <dc:creator>
     <cc:Agent>
      <dc:title>Matplotlib v3.8.4, https://matplotlib.org/</dc:title>
     </cc:Agent>
    </dc:creator>
   </cc:Work>
  </rdf:RDF>
 </metadata>
 <defs>
  <style type="text/css">*{stroke-linejoin: round; stroke-linecap: butt}</style>
 </defs>
 <g id="figure_1">
  <g id="patch_1">
   <path d="M 0 298.015156 
L 574.592812 298.015156 
L 574.592812 0 
L 0 0 
z
" style="fill: #f3f7f8"/>
  </g>
  <g id="axes_1">
   <g id="patch_2">
    <path d="M 65.192813 247.877344 
L 567.392813 247.877344 
L 567.392813 26.117344 
L 65.192813 26.117344 
z
" style="fill: #ffffff"/>
   </g>
   <g id="PolyCollection_1">
    <defs>
     <path id="m9d447d89ac" d="M 91.672449 -102.491162 
L 91.672449 -60.217812 
L 95.324813 -60.217812 
L 98.977176 -60.217812 
L 102.62954 -60.217812 
L 106.281903 -60.217812 
L 109.934267 -60.217812 
L 113.586631 -60.217812 
L 117.238994 -60.217812 
L 120.891358 -62.115417 
L 124.543722 -69.583855 
L 128.196085 -78.453385 
L 131.848449 -87.112417 
L 135.500813 -98.236135 
L 139.153176 -107.494742 
L 142.80554 -117.826175 
L 146.457903 -127.359597 
L 150.110267 -136.306291 
L 153.762631 -141.763028 
L 157.414994 -147.648257 
L 161.067358 -148.482341 
L 164.719722 -150.606258 
L 168.372085 -152.602404 
L 172.024449 -151.738227 
L 175.676813 -149.824275 
L 179.329176 -149.084693 
L 182.98154 -146.35791 
L 186.633903 -142.690368 
L 190.286267 -137.659735 
L 193.938631 -132.713988 
L 197.590994 -126.936976 
L 201.243358 -122.476384 
L 204.895722 -116.693669 
L 208.548085 -111.040782 
L 212.200449 -109.04299 
L 215.852813 -104.914051 
L 219.505176 -101.202043 
L 223.15754 -99.400596 
L 226.809903 -97.526398 
L 230.462267 -99.393329 
L 234.114631 -99.234416 
L 237.766994 -99.991041 
L 241.419358 -100.146883 
L 245.071722 -101.776702 
L 248.724085 -102.637797 
L 252.376449 -104.141674 
L 256.028813 -104.39294 
L 259.681176 -107.260117 
L 263.33354 -107.586437 
L 266.985903 -109.306212 
L 270.638267 -108.943832 
L 274.290631 -111.776891 
L 277.942994 -112.164025 
L 281.595358 -113.801677 
L 285.247722 -115.123743 
L 288.900085 -117.311641 
L 292.552449 -118.654009 
L 296.204813 -119.847552 
L 299.857176 -118.786837 
L 303.50954 -117.211919 
L 307.161903 -114.587971 
L 310.814267 -110.32457 
L 314.466631 -103.14235 
L 318.118994 -97.366431 
L 321.771358 -91.286358 
L 325.423722 -83.341509 
L 329.076085 -74.534251 
L 332.728449 -65.214179 
L 336.380813 -60.217812 
L 340.033176 -60.217812 
L 343.68554 -60.217812 
L 347.337903 -60.217812 
L 350.990267 -60.217812 
L 354.642631 -60.217812 
L 358.294994 -60.217812 
L 361.947358 -60.217812 
L 365.599722 -60.217812 
L 369.252085 -60.217812 
L 372.904449 -60.217812 
L 376.556813 -60.217812 
L 380.209176 -60.217812 
L 383.86154 -60.217812 
L 387.513903 -60.217812 
L 391.166267 -60.217812 
L 394.818631 -60.217812 
L 398.470994 -60.217812 
L 405.775722 -60.217812 
L 409.428085 -60.217812 
L 413.080449 -60.217812 
L 416.732813 -60.217812 
L 420.385176 -60.217812 
L 424.03754 -60.217812 
L 424.03754 -65.97143 
L 424.03754 -65.97143 
L 420.385176 -69.360272 
L 416.732813 -73.306339 
L 413.080449 -74.724817 
L 409.428085 -76.492042 
L 405.775722 -76.85343 
L 398.470994 -81.930981 
L 394.818631 -85.803249 
L 391.166267 -89.578916 
L 387.513903 -93.216908 
L 383.86154 -97.120991 
L 380.209176 -97.423914 
L 376.556813 -101.134625 
L 372.904449 -103.614301 
L 369.252085 -110.433797 
L 365.599722 -116.602245 
L 361.947358 -126.200841 
L 358.294994 -132.077407 
L 354.642631 -139.324552 
L 350.990267 -146.98643 
L 347.337903 -155.291207 
L 343.68554 -163.954939 
L 340.033176 -173.256214 
L 336.380813 -179.483454 
L 332.728449 -185.659907 
L 329.076085 -189.581328 
L 325.423722 -193.947098 
L 321.771358 -196.36062 
L 318.118994 -197.157745 
L 314.466631 -198.532654 
L 310.814267 -198.469265 
L 307.161903 -197.294845 
L 303.50954 -196.666809 
L 299.857176 -196.052216 
L 296.204813 -194.830419 
L 292.552449 -193.978932 
L 288.900085 -194.109903 
L 285.247722 -194.241308 
L 281.595358 -194.291327 
L 277.942994 -193.717414 
L 274.290631 -192.877738 
L 270.638267 -193.440432 
L 266.985903 -193.242001 
L 263.33354 -192.652789 
L 259.681176 -191.757881 
L 256.028813 -190.707955 
L 252.376449 -190.392068 
L 248.724085 -188.760441 
L 245.071722 -187.805856 
L 241.419358 -185.318209 
L 237.766994 -185.504671 
L 234.114631 -184.238406 
L 230.462267 -183.3984 
L 226.809903 -183.107222 
L 223.15754 -182.655483 
L 219.505176 -183.012486 
L 215.852813 -183.625133 
L 212.200449 -183.70864 
L 208.548085 -185.28021 
L 204.895722 -185.765484 
L 201.243358 -187.947433 
L 197.590994 -188.961942 
L 193.938631 -190.395779 
L 190.286267 -191.217969 
L 186.633903 -192.246661 
L 182.98154 -193.083654 
L 179.329176 -193.694711 
L 175.676813 -194.85321 
L 172.024449 -195.213758 
L 168.372085 -196.207091 
L 164.719722 -197.061329 
L 161.067358 -198.256953 
L 157.414994 -198.1837 
L 153.762631 -199.088345 
L 150.110267 -199.435128 
L 146.457903 -198.232818 
L 142.80554 -196.948182 
L 139.153176 -191.624203 
L 135.500813 -182.192751 
L 131.848449 -174.716752 
L 128.196085 -166.828165 
L 124.543722 -158.679431 
L 120.891358 -148.565301 
L 117.238994 -138.932815 
L 113.586631 -130.619442 
L 109.934267 -121.318243 
L 106.281903 -114.33652 
L 102.62954 -108.059386 
L 98.977176 -104.492051 
L 95.324813 -104.254003 
L 91.672449 -102.491162 
z
" style="stroke: #009384; stroke-opacity: 0.15"/>
    </defs>
    <g clip-path="url(#p0ffa900ef4)">
     <use xlink:href="#m9d447d89ac" x="0" y="298.015156" style="fill: #009384; fill-opacity: 0.15; stroke: #009384; stroke-opacity: 0.15"/>
    </g>
   </g>
   <g id="PolyCollection_2">
    <defs>
     <path id="mef556858e8" d="M 88.020085 -91.911523 
L 88.020085 -60.217812 
L 91.672449 -60.217812 
L 95.324813 -60.217812 
L 98.977176 -60.217812 
L 102.62954 -60.217812 
L 106.281903 -60.217812 
L 109.934267 -60.217812 
L 113.586631 -60.217812 
L 117.238994 -60.217812 
L 120.891358 -60.217812 
L 124.543722 -60.217812 
L 128.196085 -60.217812 
L 131.848449 -60.217812 
L 135.500813 -60.217812 
L 139.153176 -60.217812 
L 142.80554 -60.217812 
L 146.457903 -60.217812 
L 150.110267 -60.217812 
L 153.762631 -60.217812 
L 157.414994 -60.217812 
L 161.067358 -60.217812 
L 164.719722 -60.217812 
L 168.372085 -60.217812 
L 172.024449 -60.217812 
L 175.676813 -60.217812 
L 179.329176 -60.217812 
L 182.98154 -60.217812 
L 186.633903 -60.217812 
L 190.286267 -60.217812 
L 193.938631 -60.217812 
L 197.590994 -60.217812 
L 201.243358 -60.217812 
L 204.895722 -60.217812 
L 208.548085 -60.217812 
L 212.200449 -60.39299 
L 215.852813 -60.217812 
L 219.505176 -62.923576 
L 223.15754 -65.994261 
L 226.809903 -66.125733 
L 230.462267 -68.897062 
L 234.114631 -70.782597 
L 237.766994 -74.37752 
L 241.419358 -75.67106 
L 245.071722 -81.622279 
L 248.724085 -83.850131 
L 252.376449 -85.520835 
L 256.028813 -92.932754 
L 259.681176 -93.275784 
L 263.33354 -96.901997 
L 266.985903 -100.202158 
L 270.638267 -102.821187 
L 274.290631 -104.097299 
L 277.942994 -106.991909 
L 281.595358 -108.078617 
L 285.247722 -106.818335 
L 288.900085 -107.315237 
L 292.552449 -109.452672 
L 296.204813 -106.83937 
L 299.857176 -107.78576 
L 303.50954 -106.992869 
L 307.161903 -107.227689 
L 310.814267 -108.115669 
L 314.466631 -108.98932 
L 318.118994 -109.248553 
L 321.771358 -110.365834 
L 325.423722 -111.971858 
L 329.076085 -113.190221 
L 332.728449 -115.27308 
L 336.380813 -115.5109 
L 340.033176 -120.027107 
L 343.68554 -121.676796 
L 347.337903 -123.503142 
L 350.990267 -123.799494 
L 354.642631 -123.671394 
L 358.294994 -125.025335 
L 361.947358 -124.147406 
L 365.599722 -122.299626 
L 369.252085 -122.137407 
L 372.904449 -118.451915 
L 376.556813 -116.651878 
L 380.209176 -109.62412 
L 383.86154 -105.597391 
L 387.513903 -98.459993 
L 391.166267 -95.095422 
L 394.818631 -93.089909 
L 398.470994 -85.827329 
L 402.123358 -82.549229 
L 405.775722 -77.550613 
L 409.428085 -74.40885 
L 413.080449 -71.915573 
L 416.732813 -68.529544 
L 420.385176 -67.14658 
L 424.03754 -64.500086 
L 427.689903 -65.034146 
L 431.342267 -63.030851 
L 434.994631 -61.625183 
L 438.646994 -62.803243 
L 442.299358 -63.301584 
L 445.951722 -63.373629 
L 449.604085 -60.972013 
L 453.256449 -60.844041 
L 456.908813 -61.063274 
L 460.561176 -62.158321 
L 464.21354 -61.297601 
L 467.865903 -61.993197 
L 471.518267 -60.217812 
L 475.170631 -60.297948 
L 478.822994 -60.217812 
L 482.475358 -60.217812 
L 486.127722 -60.217812 
L 489.780085 -60.217812 
L 493.432449 -60.217812 
L 497.084813 -60.217812 
L 500.737176 -60.217812 
L 504.38954 -60.217812 
L 508.041903 -60.217812 
L 511.694267 -60.217812 
L 515.346631 -60.217812 
L 518.998994 -60.217812 
L 522.651358 -60.320699 
L 526.303722 -60.217812 
L 529.956085 -60.586011 
L 533.608449 -61.939979 
L 537.260813 -61.151771 
L 540.913176 -64.269188 
L 544.56554 -64.951668 
L 544.56554 -86.877307 
L 544.56554 -86.877307 
L 540.913176 -88.525404 
L 537.260813 -90.42815 
L 533.608449 -90.963339 
L 529.956085 -93.026755 
L 526.303722 -94.267961 
L 522.651358 -97.18108 
L 518.998994 -98.89511 
L 515.346631 -98.278128 
L 511.694267 -100.287214 
L 508.041903 -102.908759 
L 504.38954 -105.715283 
L 500.737176 -107.478367 
L 497.084813 -108.787076 
L 493.432449 -112.020985 
L 489.780085 -113.760053 
L 486.127722 -115.111633 
L 482.475358 -113.574854 
L 478.822994 -112.796691 
L 475.170631 -114.616136 
L 471.518267 -116.234128 
L 467.865903 -117.611293 
L 464.21354 -119.576585 
L 460.561176 -120.70908 
L 456.908813 -121.551543 
L 453.256449 -120.755409 
L 449.604085 -121.322917 
L 445.951722 -123.446079 
L 442.299358 -127.683835 
L 438.646994 -131.066336 
L 434.994631 -132.666187 
L 431.342267 -134.451073 
L 427.689903 -139.296442 
L 424.03754 -142.058181 
L 420.385176 -147.342516 
L 416.732813 -152.491651 
L 413.080449 -160.115897 
L 409.428085 -167.341052 
L 405.775722 -175.021039 
L 402.123358 -183.39604 
L 398.470994 -190.970637 
L 394.818631 -202.69234 
L 391.166267 -210.792925 
L 387.513903 -217.648842 
L 383.86154 -226.441742 
L 380.209176 -234.576097 
L 376.556813 -244.639108 
L 372.904449 -250.28044 
L 369.252085 -255.813254 
L 365.599722 -257.802312 
L 361.947358 -259.967726 
L 358.294994 -261.817813 
L 354.642631 -261.536995 
L 350.990267 -260.465442 
L 347.337903 -259.367431 
L 343.68554 -256.606524 
L 340.033176 -253.333418 
L 336.380813 -247.326461 
L 332.728449 -244.788803 
L 329.076085 -241.210212 
L 325.423722 -238.991834 
L 321.771358 -235.628095 
L 318.118994 -232.348487 
L 314.466631 -229.506423 
L 310.814267 -228.011554 
L 307.161903 -225.516106 
L 303.50954 -224.905599 
L 299.857176 -225.995986 
L 296.204813 -224.504051 
L 292.552449 -226.479061 
L 288.900085 -224.18461 
L 285.247722 -222.162155 
L 281.595358 -222.495834 
L 277.942994 -222.25512 
L 274.290631 -219.617785 
L 270.638267 -217.224631 
L 266.985903 -213.91001 
L 263.33354 -209.038214 
L 259.681176 -202.237408 
L 256.028813 -200.411037 
L 252.376449 -192.634455 
L 248.724085 -189.065883 
L 245.071722 -184.752346 
L 241.419358 -177.374361 
L 237.766994 -171.481155 
L 234.114631 -165.441434 
L 230.462267 -160.381521 
L 226.809903 -154.600905 
L 223.15754 -151.007378 
L 219.505176 -146.538601 
L 215.852813 -138.451176 
L 212.200449 -131.29086 
L 208.548085 -124.715807 
L 204.895722 -120.024078 
L 201.243358 -117.490741 
L 197.590994 -115.647377 
L 193.938631 -113.913187 
L 190.286267 -110.548649 
L 186.633903 -108.467506 
L 182.98154 -106.8785 
L 179.329176 -106.280389 
L 175.676813 -107.375729 
L 172.024449 -109.836404 
L 168.372085 -110.381773 
L 164.719722 -109.378571 
L 161.067358 -107.625663 
L 157.414994 -105.304869 
L 153.762631 -103.694425 
L 150.110267 -102.59932 
L 146.457903 -102.464607 
L 142.80554 -100.035593 
L 139.153176 -97.678507 
L 135.500813 -96.484247 
L 131.848449 -93.753679 
L 128.196085 -91.872368 
L 124.543722 -91.454027 
L 120.891358 -90.99386 
L 117.238994 -90.642272 
L 113.586631 -89.97683 
L 109.934267 -90.633169 
L 106.281903 -90.545988 
L 102.62954 -90.174407 
L 98.977176 -89.64872 
L 95.324813 -90.426946 
L 91.672449 -92.037062 
L 88.020085 -91.911523 
z
" style="stroke: #b85741; stroke-opacity: 0.15"/>
    </defs>
    <g clip-path="url(#p0ffa900ef4)">
     <use xlink:href="#mef556858e8" x="0" y="298.015156" style="fill: #b85741; fill-opacity: 0.15; stroke: #b85741; stroke-opacity: 0.15"/>
    </g>
   </g>
   <g id="matplotlib.axis_1">
    <g id="xtick_1">
     <g id="line2d_1">
      <defs>
       <path id="m5e46060cf8" d="M 0 0 
L 0 3.5 
" style="stroke: #000000; stroke-width: 0.8"/>
      </defs>
      <g>
       <use xlink:href="#m5e46060cf8" x="91.672449" y="247.877344" style="stroke: #000000; stroke-width: 0.8"/>
      </g>
     </g>
     <g id="text_1">
      <!-- 0 -->
      <g transform="translate(86.582449 267.034844) scale(0.16 -0.16)">
       <defs>
        <path id="DejaVuSans-30" d="M 2034 4250 
Q 1547 4250 1301 3770 
Q 1056 3291 1056 2328 
Q 1056 1369 1301 889 
Q 1547 409 2034 409 
Q 2525 409 2770 889 
Q 3016 1369 3016 2328 
Q 3016 3291 2770 3770 
Q 2525 4250 2034 4250 
z
M 2034 4750 
Q 2819 4750 3233 4129 
Q 3647 3509 3647 2328 
Q 3647 1150 3233 529 
Q 2819 -91 2034 -91 
Q 1250 -91 836 529 
Q 422 1150 422 2328 
Q 422 3509 836 4129 
Q 1250 4750 2034 4750 
z
" transform="scale(0.015625)"/>
       </defs>
       <use xlink:href="#DejaVuSans-30"/>
      </g>
     </g>
    </g>
    <g id="xtick_2">
     <g id="line2d_2">
      <g>
       <use xlink:href="#m5e46060cf8" x="164.719722" y="247.877344" style="stroke: #000000; stroke-width: 0.8"/>
      </g>
     </g>
     <g id="text_2">
      <!-- 20 -->
      <g transform="translate(154.539722 267.034844) scale(0.16 -0.16)">
       <defs>
        <path id="DejaVuSans-32" d="M 1228 531 
L 3431 531 
L 3431 0 
L 469 0 
L 469 531 
Q 828 903 1448 1529 
Q 2069 2156 2228 2338 
Q 2531 2678 2651 2914 
Q 2772 3150 2772 3378 
Q 2772 3750 2511 3984 
Q 2250 4219 1831 4219 
Q 1534 4219 1204 4116 
Q 875 4013 500 3803 
L 500 4441 
Q 881 4594 1212 4672 
Q 1544 4750 1819 4750 
Q 2544 4750 2975 4387 
Q 3406 4025 3406 3419 
Q 3406 3131 3298 2873 
Q 3191 2616 2906 2266 
Q 2828 2175 2409 1742 
Q 1991 1309 1228 531 
z
" transform="scale(0.015625)"/>
       </defs>
       <use xlink:href="#DejaVuSans-32"/>
       <use xlink:href="#DejaVuSans-30" x="63.623047"/>
      </g>
     </g>
    </g>
    <g id="xtick_3">
     <g id="line2d_3">
      <g>
       <use xlink:href="#m5e46060cf8" x="237.766994" y="247.877344" style="stroke: #000000; stroke-width: 0.8"/>
      </g>
     </g>
     <g id="text_3">
      <!-- 40 -->
      <g transform="translate(227.586994 267.034844) scale(0.16 -0.16)">
       <defs>
        <path id="DejaVuSans-34" d="M 2419 4116 
L 825 1625 
L 2419 1625 
L 2419 4116 
z
M 2253 4666 
L 3047 4666 
L 3047 1625 
L 3713 1625 
L 3713 1100 
L 3047 1100 
L 3047 0 
L 2419 0 
L 2419 1100 
L 313 1100 
L 313 1709 
L 2253 4666 
z
" transform="scale(0.015625)"/>
       </defs>
       <use xlink:href="#DejaVuSans-34"/>
       <use xlink:href="#DejaVuSans-30" x="63.623047"/>
      </g>
     </g>
    </g>
    <g id="xtick_4">
     <g id="line2d_4">
      <g>
       <use xlink:href="#m5e46060cf8" x="310.814267" y="247.877344" style="stroke: #000000; stroke-width: 0.8"/>
      </g>
     </g>
     <g id="text_4">
      <!-- 60 -->
      <g transform="translate(300.634267 267.034844) scale(0.16 -0.16)">
       <defs>
        <path id="DejaVuSans-36" d="M 2113 2584 
Q 1688 2584 1439 2293 
Q 1191 2003 1191 1497 
Q 1191 994 1439 701 
Q 1688 409 2113 409 
Q 2538 409 2786 701 
Q 3034 994 3034 1497 
Q 3034 2003 2786 2293 
Q 2538 2584 2113 2584 
z
M 3366 4563 
L 3366 3988 
Q 3128 4100 2886 4159 
Q 2644 4219 2406 4219 
Q 1781 4219 1451 3797 
Q 1122 3375 1075 2522 
Q 1259 2794 1537 2939 
Q 1816 3084 2150 3084 
Q 2853 3084 3261 2657 
Q 3669 2231 3669 1497 
Q 3669 778 3244 343 
Q 2819 -91 2113 -91 
Q 1303 -91 875 529 
Q 447 1150 447 2328 
Q 447 3434 972 4092 
Q 1497 4750 2381 4750 
Q 2619 4750 2861 4703 
Q 3103 4656 3366 4563 
z
" transform="scale(0.015625)"/>
       </defs>
       <use xlink:href="#DejaVuSans-36"/>
       <use xlink:href="#DejaVuSans-30" x="63.623047"/>
      </g>
     </g>
    </g>
    <g id="xtick_5">
     <g id="line2d_5">
      <g>
       <use xlink:href="#m5e46060cf8" x="383.86154" y="247.877344" style="stroke: #000000; stroke-width: 0.8"/>
      </g>
     </g>
     <g id="text_5">
      <!-- 80 -->
      <g transform="translate(373.68154 267.034844) scale(0.16 -0.16)">
       <defs>
        <path id="DejaVuSans-38" d="M 2034 2216 
Q 1584 2216 1326 1975 
Q 1069 1734 1069 1313 
Q 1069 891 1326 650 
Q 1584 409 2034 409 
Q 2484 409 2743 651 
Q 3003 894 3003 1313 
Q 3003 1734 2745 1975 
Q 2488 2216 2034 2216 
z
M 1403 2484 
Q 997 2584 770 2862 
Q 544 3141 544 3541 
Q 544 4100 942 4425 
Q 1341 4750 2034 4750 
Q 2731 4750 3128 4425 
Q 3525 4100 3525 3541 
Q 3525 3141 3298 2862 
Q 3072 2584 2669 2484 
Q 3125 2378 3379 2068 
Q 3634 1759 3634 1313 
Q 3634 634 3220 271 
Q 2806 -91 2034 -91 
Q 1263 -91 848 271 
Q 434 634 434 1313 
Q 434 1759 690 2068 
Q 947 2378 1403 2484 
z
M 1172 3481 
Q 1172 3119 1398 2916 
Q 1625 2713 2034 2713 
Q 2441 2713 2670 2916 
Q 2900 3119 2900 3481 
Q 2900 3844 2670 4047 
Q 2441 4250 2034 4250 
Q 1625 4250 1398 4047 
Q 1172 3844 1172 3481 
z
" transform="scale(0.015625)"/>
       </defs>
       <use xlink:href="#DejaVuSans-38"/>
       <use xlink:href="#DejaVuSans-30" x="63.623047"/>
      </g>
     </g>
    </g>
    <g id="xtick_6">
     <g id="line2d_6">
      <g>
       <use xlink:href="#m5e46060cf8" x="456.908813" y="247.877344" style="stroke: #000000; stroke-width: 0.8"/>
      </g>
     </g>
     <g id="text_6">
      <!-- 100 -->
      <g transform="translate(441.638813 267.034844) scale(0.16 -0.16)">
       <defs>
        <path id="DejaVuSans-31" d="M 794 531 
L 1825 531 
L 1825 4091 
L 703 3866 
L 703 4441 
L 1819 4666 
L 2450 4666 
L 2450 531 
L 3481 531 
L 3481 0 
L 794 0 
L 794 531 
z
" transform="scale(0.015625)"/>
       </defs>
       <use xlink:href="#DejaVuSans-31"/>
       <use xlink:href="#DejaVuSans-30" x="63.623047"/>
       <use xlink:href="#DejaVuSans-30" x="127.246094"/>
      </g>
     </g>
    </g>
    <g id="xtick_7">
     <g id="line2d_7">
      <g>
       <use xlink:href="#m5e46060cf8" x="529.956085" y="247.877344" style="stroke: #000000; stroke-width: 0.8"/>
      </g>
     </g>
     <g id="text_7">
      <!-- 120 -->
      <g transform="translate(514.686085 267.034844) scale(0.16 -0.16)">
       <use xlink:href="#DejaVuSans-31"/>
       <use xlink:href="#DejaVuSans-32" x="63.623047"/>
       <use xlink:href="#DejaVuSans-30" x="127.246094"/>
      </g>
     </g>
    </g>
    <g id="text_8">
     <!-- Time (s) -->
     <g transform="translate(281.733672 287.279687) scale(0.17 -0.17)">
      <defs>
       <path id="DejaVuSans-54" d="M -19 4666 
L 3928 4666 
L 3928 4134 
L 2272 4134 
L 2272 0 
L 1638 0 
L 1638 4134 
L -19 4134 
L -19 4666 
z
" transform="scale(0.015625)"/>
       <path id="DejaVuSans-69" d="M 603 3500 
L 1178 3500 
L 1178 0 
L 603 0 
L 603 3500 
z
M 603 4863 
L 1178 4863 
L 1178 4134 
L 603 4134 
L 603 4863 
z
" transform="scale(0.015625)"/>
       <path id="DejaVuSans-6d" d="M 3328 2828 
Q 3544 3216 3844 3400 
Q 4144 3584 4550 3584 
Q 5097 3584 5394 3201 
Q 5691 2819 5691 2113 
L 5691 0 
L 5113 0 
L 5113 2094 
Q 5113 2597 4934 2840 
Q 4756 3084 4391 3084 
Q 3944 3084 3684 2787 
Q 3425 2491 3425 1978 
L 3425 0 
L 2847 0 
L 2847 2094 
Q 2847 2600 2669 2842 
Q 2491 3084 2119 3084 
Q 1678 3084 1418 2786 
Q 1159 2488 1159 1978 
L 1159 0 
L 581 0 
L 581 3500 
L 1159 3500 
L 1159 2956 
Q 1356 3278 1631 3431 
Q 1906 3584 2284 3584 
Q 2666 3584 2933 3390 
Q 3200 3197 3328 2828 
z
" transform="scale(0.015625)"/>
       <path id="DejaVuSans-65" d="M 3597 1894 
L 3597 1613 
L 953 1613 
Q 991 1019 1311 708 
Q 1631 397 2203 397 
Q 2534 397 2845 478 
Q 3156 559 3463 722 
L 3463 178 
Q 3153 47 2828 -22 
Q 2503 -91 2169 -91 
Q 1331 -91 842 396 
Q 353 884 353 1716 
Q 353 2575 817 3079 
Q 1281 3584 2069 3584 
Q 2775 3584 3186 3129 
Q 3597 2675 3597 1894 
z
M 3022 2063 
Q 3016 2534 2758 2815 
Q 2500 3097 2075 3097 
Q 1594 3097 1305 2825 
Q 1016 2553 972 2059 
L 3022 2063 
z
" transform="scale(0.015625)"/>
       <path id="DejaVuSans-20" transform="scale(0.015625)"/>
       <path id="DejaVuSans-28" d="M 1984 4856 
Q 1566 4138 1362 3434 
Q 1159 2731 1159 2009 
Q 1159 1288 1364 580 
Q 1569 -128 1984 -844 
L 1484 -844 
Q 1016 -109 783 600 
Q 550 1309 550 2009 
Q 550 2706 781 3412 
Q 1013 4119 1484 4856 
L 1984 4856 
z
" transform="scale(0.015625)"/>
       <path id="DejaVuSans-73" d="M 2834 3397 
L 2834 2853 
Q 2591 2978 2328 3040 
Q 2066 3103 1784 3103 
Q 1356 3103 1142 2972 
Q 928 2841 928 2578 
Q 928 2378 1081 2264 
Q 1234 2150 1697 2047 
L 1894 2003 
Q 2506 1872 2764 1633 
Q 3022 1394 3022 966 
Q 3022 478 2636 193 
Q 2250 -91 1575 -91 
Q 1294 -91 989 -36 
Q 684 19 347 128 
L 347 722 
Q 666 556 975 473 
Q 1284 391 1588 391 
Q 1994 391 2212 530 
Q 2431 669 2431 922 
Q 2431 1156 2273 1281 
Q 2116 1406 1581 1522 
L 1381 1569 
Q 847 1681 609 1914 
Q 372 2147 372 2553 
Q 372 3047 722 3315 
Q 1072 3584 1716 3584 
Q 2034 3584 2315 3537 
Q 2597 3491 2834 3397 
z
" transform="scale(0.015625)"/>
       <path id="DejaVuSans-29" d="M 513 4856 
L 1013 4856 
Q 1481 4119 1714 3412 
Q 1947 2706 1947 2009 
Q 1947 1309 1714 600 
Q 1481 -109 1013 -844 
L 513 -844 
Q 928 -128 1133 580 
Q 1338 1288 1338 2009 
Q 1338 2731 1133 3434 
Q 928 4138 513 4856 
z
" transform="scale(0.015625)"/>
      </defs>
      <use xlink:href="#DejaVuSans-54"/>
      <use xlink:href="#DejaVuSans-69" x="57.958984"/>
      <use xlink:href="#DejaVuSans-6d" x="85.742188"/>
      <use xlink:href="#DejaVuSans-65" x="183.154297"/>
      <use xlink:href="#DejaVuSans-20" x="244.677734"/>
      <use xlink:href="#DejaVuSans-28" x="276.464844"/>
      <use xlink:href="#DejaVuSans-73" x="315.478516"/>
      <use xlink:href="#DejaVuSans-29" x="367.578125"/>
     </g>
    </g>
   </g>
   <g id="matplotlib.axis_2">
    <g id="ytick_1">
     <g id="line2d_8">
      <defs>
       <path id="md185b53ff4" d="M 0 0 
L -3.5 0 
" style="stroke: #000000; stroke-width: 0.8"/>
      </defs>
      <g>
       <use xlink:href="#md185b53ff4" x="65.192813" y="237.797344" style="stroke: #000000; stroke-width: 0.8"/>
      </g>
     </g>
     <g id="text_9">
      <!-- 0 -->
      <g transform="translate(48.012813 243.876094) scale(0.16 -0.16)">
       <use xlink:href="#DejaVuSans-30"/>
      </g>
     </g>
    </g>
    <g id="ytick_2">
     <g id="line2d_9">
      <g>
       <use xlink:href="#md185b53ff4" x="65.192813" y="195.232249" style="stroke: #000000; stroke-width: 0.8"/>
      </g>
     </g>
     <g id="text_10">
      <!-- 25 -->
      <g transform="translate(37.832813 201.310999) scale(0.16 -0.16)">
       <defs>
        <path id="DejaVuSans-35" d="M 691 4666 
L 3169 4666 
L 3169 4134 
L 1269 4134 
L 1269 2991 
Q 1406 3038 1543 3061 
Q 1681 3084 1819 3084 
Q 2600 3084 3056 2656 
Q 3513 2228 3513 1497 
Q 3513 744 3044 326 
Q 2575 -91 1722 -91 
Q 1428 -91 1123 -41 
Q 819 9 494 109 
L 494 744 
Q 775 591 1075 516 
Q 1375 441 1709 441 
Q 2250 441 2565 725 
Q 2881 1009 2881 1497 
Q 2881 1984 2565 2268 
Q 2250 2553 1709 2553 
Q 1456 2553 1204 2497 
Q 953 2441 691 2322 
L 691 4666 
z
" transform="scale(0.015625)"/>
       </defs>
       <use xlink:href="#DejaVuSans-32"/>
       <use xlink:href="#DejaVuSans-35" x="63.623047"/>
      </g>
     </g>
    </g>
    <g id="ytick_3">
     <g id="line2d_10">
      <g>
       <use xlink:href="#md185b53ff4" x="65.192813" y="152.667154" style="stroke: #000000; stroke-width: 0.8"/>
      </g>
     </g>
     <g id="text_11">
      <!-- 50 -->
      <g transform="translate(37.832813 158.745904) scale(0.16 -0.16)">
       <use xlink:href="#DejaVuSans-35"/>
       <use xlink:href="#DejaVuSans-30" x="63.623047"/>
      </g>
     </g>
    </g>
    <g id="ytick_4">
     <g id="line2d_11">
      <g>
       <use xlink:href="#md185b53ff4" x="65.192813" y="110.102059" style="stroke: #000000; stroke-width: 0.8"/>
      </g>
     </g>
     <g id="text_12">
      <!-- 75 -->
      <g transform="translate(37.832813 116.180809) scale(0.16 -0.16)">
       <defs>
        <path id="DejaVuSans-37" d="M 525 4666 
L 3525 4666 
L 3525 4397 
L 1831 0 
L 1172 0 
L 2766 4134 
L 525 4134 
L 525 4666 
z
" transform="scale(0.015625)"/>
       </defs>
       <use xlink:href="#DejaVuSans-37"/>
       <use xlink:href="#DejaVuSans-35" x="63.623047"/>
      </g>
     </g>
    </g>
    <g id="ytick_5">
     <g id="line2d_12">
      <g>
       <use xlink:href="#md185b53ff4" x="65.192813" y="67.536965" style="stroke: #000000; stroke-width: 0.8"/>
      </g>
     </g>
     <g id="text_13">
      <!-- 100 -->
      <g transform="translate(27.652813 73.615715) scale(0.16 -0.16)">
       <use xlink:href="#DejaVuSans-31"/>
       <use xlink:href="#DejaVuSans-30" x="63.623047"/>
       <use xlink:href="#DejaVuSans-30" x="127.246094"/>
      </g>
     </g>
    </g>
    <g id="text_14">
     <!-- Utilization (%) -->
     <g transform="translate(20.117344 196.996719) rotate(-90) scale(0.17 -0.17)">
      <defs>
       <path id="DejaVuSans-55" d="M 556 4666 
L 1191 4666 
L 1191 1831 
Q 1191 1081 1462 751 
Q 1734 422 2344 422 
Q 2950 422 3222 751 
Q 3494 1081 3494 1831 
L 3494 4666 
L 4128 4666 
L 4128 1753 
Q 4128 841 3676 375 
Q 3225 -91 2344 -91 
Q 1459 -91 1007 375 
Q 556 841 556 1753 
L 556 4666 
z
" transform="scale(0.015625)"/>
       <path id="DejaVuSans-74" d="M 1172 4494 
L 1172 3500 
L 2356 3500 
L 2356 3053 
L 1172 3053 
L 1172 1153 
Q 1172 725 1289 603 
Q 1406 481 1766 481 
L 2356 481 
L 2356 0 
L 1766 0 
Q 1100 0 847 248 
Q 594 497 594 1153 
L 594 3053 
L 172 3053 
L 172 3500 
L 594 3500 
L 594 4494 
L 1172 4494 
z
" transform="scale(0.015625)"/>
       <path id="DejaVuSans-6c" d="M 603 4863 
L 1178 4863 
L 1178 0 
L 603 0 
L 603 4863 
z
" transform="scale(0.015625)"/>
       <path id="DejaVuSans-7a" d="M 353 3500 
L 3084 3500 
L 3084 2975 
L 922 459 
L 3084 459 
L 3084 0 
L 275 0 
L 275 525 
L 2438 3041 
L 353 3041 
L 353 3500 
z
" transform="scale(0.015625)"/>
       <path id="DejaVuSans-61" d="M 2194 1759 
Q 1497 1759 1228 1600 
Q 959 1441 959 1056 
Q 959 750 1161 570 
Q 1363 391 1709 391 
Q 2188 391 2477 730 
Q 2766 1069 2766 1631 
L 2766 1759 
L 2194 1759 
z
M 3341 1997 
L 3341 0 
L 2766 0 
L 2766 531 
Q 2569 213 2275 61 
Q 1981 -91 1556 -91 
Q 1019 -91 701 211 
Q 384 513 384 1019 
Q 384 1609 779 1909 
Q 1175 2209 1959 2209 
L 2766 2209 
L 2766 2266 
Q 2766 2663 2505 2880 
Q 2244 3097 1772 3097 
Q 1472 3097 1187 3025 
Q 903 2953 641 2809 
L 641 3341 
Q 956 3463 1253 3523 
Q 1550 3584 1831 3584 
Q 2591 3584 2966 3190 
Q 3341 2797 3341 1997 
z
" transform="scale(0.015625)"/>
       <path id="DejaVuSans-6f" d="M 1959 3097 
Q 1497 3097 1228 2736 
Q 959 2375 959 1747 
Q 959 1119 1226 758 
Q 1494 397 1959 397 
Q 2419 397 2687 759 
Q 2956 1122 2956 1747 
Q 2956 2369 2687 2733 
Q 2419 3097 1959 3097 
z
M 1959 3584 
Q 2709 3584 3137 3096 
Q 3566 2609 3566 1747 
Q 3566 888 3137 398 
Q 2709 -91 1959 -91 
Q 1206 -91 779 398 
Q 353 888 353 1747 
Q 353 2609 779 3096 
Q 1206 3584 1959 3584 
z
" transform="scale(0.015625)"/>
       <path id="DejaVuSans-6e" d="M 3513 2113 
L 3513 0 
L 2938 0 
L 2938 2094 
Q 2938 2591 2744 2837 
Q 2550 3084 2163 3084 
Q 1697 3084 1428 2787 
Q 1159 2491 1159 1978 
L 1159 0 
L 581 0 
L 581 3500 
L 1159 3500 
L 1159 2956 
Q 1366 3272 1645 3428 
Q 1925 3584 2291 3584 
Q 2894 3584 3203 3211 
Q 3513 2838 3513 2113 
z
" transform="scale(0.015625)"/>
       <path id="DejaVuSans-25" d="M 4653 2053 
Q 4381 2053 4226 1822 
Q 4072 1591 4072 1178 
Q 4072 772 4226 539 
Q 4381 306 4653 306 
Q 4919 306 5073 539 
Q 5228 772 5228 1178 
Q 5228 1588 5073 1820 
Q 4919 2053 4653 2053 
z
M 4653 2450 
Q 5147 2450 5437 2106 
Q 5728 1763 5728 1178 
Q 5728 594 5436 251 
Q 5144 -91 4653 -91 
Q 4153 -91 3862 251 
Q 3572 594 3572 1178 
Q 3572 1766 3864 2108 
Q 4156 2450 4653 2450 
z
M 1428 4353 
Q 1159 4353 1004 4120 
Q 850 3888 850 3481 
Q 850 3069 1003 2837 
Q 1156 2606 1428 2606 
Q 1700 2606 1854 2837 
Q 2009 3069 2009 3481 
Q 2009 3884 1853 4118 
Q 1697 4353 1428 4353 
z
M 4250 4750 
L 4750 4750 
L 1831 -91 
L 1331 -91 
L 4250 4750 
z
M 1428 4750 
Q 1922 4750 2215 4408 
Q 2509 4066 2509 3481 
Q 2509 2891 2217 2550 
Q 1925 2209 1428 2209 
Q 931 2209 642 2551 
Q 353 2894 353 3481 
Q 353 4063 643 4406 
Q 934 4750 1428 4750 
z
" transform="scale(0.015625)"/>
      </defs>
      <use xlink:href="#DejaVuSans-55"/>
      <use xlink:href="#DejaVuSans-74" x="73.193359"/>
      <use xlink:href="#DejaVuSans-69" x="112.402344"/>
      <use xlink:href="#DejaVuSans-6c" x="140.185547"/>
      <use xlink:href="#DejaVuSans-69" x="167.96875"/>
      <use xlink:href="#DejaVuSans-7a" x="195.751953"/>
      <use xlink:href="#DejaVuSans-61" x="248.242188"/>
      <use xlink:href="#DejaVuSans-74" x="309.521484"/>
      <use xlink:href="#DejaVuSans-69" x="348.730469"/>
      <use xlink:href="#DejaVuSans-6f" x="376.513672"/>
      <use xlink:href="#DejaVuSans-6e" x="437.695312"/>
      <use xlink:href="#DejaVuSans-20" x="501.074219"/>
      <use xlink:href="#DejaVuSans-28" x="532.861328"/>
      <use xlink:href="#DejaVuSans-25" x="571.875"/>
      <use xlink:href="#DejaVuSans-29" x="666.894531"/>
     </g>
    </g>
   </g>
   <g id="line2d_13">
    <path d="M 91.672449 226.861456 
L 95.324813 226.274016 
L 98.977176 226.081701 
L 102.62954 224.494852 
L 106.281903 220.562707 
L 109.934267 215.835579 
L 113.586631 208.534236 
L 117.238994 201.757915 
L 120.891358 192.674797 
L 124.543722 183.883513 
L 128.196085 175.374381 
L 131.848449 167.100571 
L 135.500813 157.800713 
L 139.153176 148.455684 
L 142.80554 140.627977 
L 146.457903 135.218949 
L 150.110267 130.144446 
L 153.762631 127.589469 
L 157.414994 125.099178 
L 161.067358 124.645509 
L 164.719722 124.181363 
L 168.372085 123.610409 
L 172.024449 124.539164 
L 175.676813 125.676414 
L 179.329176 126.625454 
L 182.98154 128.294374 
L 186.633903 130.546642 
L 190.286267 133.576304 
L 193.938631 136.460273 
L 197.590994 140.065697 
L 201.243358 142.803248 
L 204.895722 146.78558 
L 208.548085 149.85466 
L 212.200449 151.639341 
L 215.852813 153.745564 
L 219.505176 155.907892 
L 223.15754 156.987117 
L 226.809903 157.698347 
L 230.462267 156.619292 
L 234.114631 156.278745 
L 237.766994 155.2673 
L 241.419358 155.28261 
L 245.071722 153.223877 
L 248.724085 152.316037 
L 252.376449 150.748285 
L 256.028813 150.464709 
L 259.681176 148.506157 
L 263.33354 147.895544 
L 266.985903 146.741049 
L 270.638267 146.823024 
L 274.290631 145.687842 
L 277.942994 145.074437 
L 281.595358 143.968654 
L 285.247722 143.332631 
L 288.900085 142.304384 
L 292.552449 141.698686 
L 296.204813 140.676171 
L 299.857176 140.59563 
L 303.50954 141.075792 
L 307.161903 142.073748 
L 310.814267 143.618239 
L 314.466631 147.177654 
L 318.118994 150.753068 
L 321.771358 154.191667 
L 325.423722 159.370853 
L 329.076085 165.957367 
L 332.728449 172.578113 
L 336.380813 179.1128 
L 340.033176 186.317775 
L 343.68554 193.263232 
L 347.337903 199.958942 
L 350.990267 205.883929 
L 354.642631 210.707579 
L 358.294994 215.027158 
L 361.947358 218.843716 
L 365.599722 222.348261 
L 369.252085 224.658696 
L 372.904449 227.034569 
L 376.556813 227.880001 
L 380.209176 228.569103 
L 383.86154 228.128626 
L 387.513903 228.878217 
L 391.166267 229.648889 
L 394.818631 230.314882 
L 398.470994 230.961986 
L 405.775722 232.211443 
L 409.428085 232.33871 
L 413.080449 232.667589 
L 416.732813 232.932204 
L 420.385176 233.930182 
L 424.03754 235.177653 
" clip-path="url(#p0ffa900ef4)" style="fill: none; stroke: #009384; stroke-width: 2.5; stroke-linecap: square"/>
   </g>
   <g id="line2d_14">
    <path d="M 88.020085 223.469484 
L 91.672449 222.509376 
L 95.324813 223.098525 
L 98.977176 224.83339 
L 106.281903 224.46363 
L 109.934267 223.570265 
L 113.586631 223.915522 
L 117.238994 223.998055 
L 120.891358 223.371486 
L 124.543722 222.958113 
L 131.848449 222.837489 
L 135.500813 220.583515 
L 139.153176 219.968637 
L 142.80554 219.006772 
L 146.457903 217.239275 
L 153.762631 216.762366 
L 157.414994 216.000831 
L 161.067358 214.910453 
L 164.719722 214.521288 
L 168.372085 213.358903 
L 172.024449 213.470519 
L 175.676813 214.686811 
L 179.329176 215.662018 
L 182.98154 215.666088 
L 186.633903 214.77151 
L 190.286267 214.761839 
L 193.938631 212.608757 
L 197.590994 211.864408 
L 201.243358 210.821627 
L 208.548085 206.949239 
L 212.200449 202.173232 
L 215.852813 199.190555 
L 219.505176 193.284068 
L 223.15754 189.514337 
L 226.809903 187.651837 
L 230.462267 183.375864 
L 234.114631 179.903141 
L 237.766994 175.085819 
L 241.419358 171.492446 
L 245.071722 164.827844 
L 248.724085 161.557149 
L 252.376449 158.937511 
L 256.028813 151.343261 
L 259.681176 150.25856 
L 263.33354 145.045051 
L 266.985903 140.959072 
L 270.638267 137.992247 
L 274.290631 136.157614 
L 277.942994 133.391642 
L 281.595358 132.72793 
L 285.247722 133.524911 
L 288.900085 132.265233 
L 292.552449 130.04929 
L 296.204813 132.343446 
L 299.857176 131.124284 
L 303.50954 132.065922 
L 307.161903 131.643259 
L 310.814267 129.951545 
L 314.466631 128.767285 
L 318.118994 127.216636 
L 321.771358 125.018192 
L 325.423722 122.53331 
L 329.076085 120.81494 
L 332.728449 117.984215 
L 336.380813 116.596476 
L 340.033176 111.334893 
L 343.68554 108.873496 
L 347.337903 106.57987 
L 350.990267 105.882688 
L 354.642631 105.410962 
L 358.294994 104.593583 
L 361.947358 105.95759 
L 365.599722 107.964187 
L 369.252085 109.039826 
L 372.904449 113.648979 
L 376.556813 117.369663 
L 380.209176 125.915048 
L 383.86154 131.99559 
L 387.513903 139.960739 
L 394.818631 150.124032 
L 398.470994 159.616173 
L 402.123358 165.042522 
L 405.775722 171.72933 
L 409.428085 177.140206 
L 413.080449 181.999421 
L 416.732813 187.504559 
L 420.385176 190.770608 
L 424.03754 194.736023 
L 427.689903 195.849863 
L 431.342267 199.274194 
L 434.994631 200.869471 
L 438.646994 201.080367 
L 442.299358 202.522447 
L 445.951722 204.605302 
L 449.604085 206.867691 
L 453.256449 207.215431 
L 456.908813 206.707748 
L 460.561176 206.581455 
L 464.21354 207.578064 
L 467.865903 208.212911 
L 471.518267 209.862085 
L 475.170631 210.558114 
L 478.822994 211.862972 
L 482.475358 212.329293 
L 486.127722 211.138244 
L 489.780085 211.635183 
L 493.432449 213.051858 
L 497.084813 214.249018 
L 500.737176 216.04259 
L 504.38954 216.73139 
L 508.041903 218.240838 
L 511.694267 219.054615 
L 515.346631 220.302976 
L 518.998994 220.376119 
L 522.651358 219.264267 
L 526.303722 221.504923 
L 529.956085 221.208773 
L 533.608449 221.563497 
L 537.260813 222.225196 
L 540.913176 221.61786 
L 544.56554 222.100669 
L 544.56554 222.100669 
" clip-path="url(#p0ffa900ef4)" style="fill: none; stroke: #b85741; stroke-width: 2.5; stroke-linecap: square"/>
   </g>
   <g id="patch_3">
    <path d="M 65.192813 247.877344 
L 65.192813 26.117344 
" style="fill: none; stroke: #000000; stroke-width: 0.8; stroke-linejoin: miter; stroke-linecap: square"/>
   </g>
   <g id="patch_4">
    <path d="M 567.392813 247.877344 
L 567.392813 26.117344 
" style="fill: none; stroke: #000000; stroke-width: 0.8; stroke-linejoin: miter; stroke-linecap: square"/>
   </g>
   <g id="patch_5">
    <path d="M 65.192813 247.877344 
L 567.392813 247.877344 
" style="fill: none; stroke: #000000; stroke-width: 0.8; stroke-linejoin: miter; stroke-linecap: square"/>
   </g>
   <g id="patch_6">
    <path d="M 65.192813 26.117344 
L 567.392813 26.117344 
" style="fill: none; stroke: #000000; stroke-width: 0.8; stroke-linejoin: miter; stroke-linecap: square"/>
   </g>
   <g id="text_15">
    <!-- Create Many Type-1 VMs (Disk) -->
    <g transform="translate(183.825625 20.117344) scale(0.17 -0.17)">
     <defs>
      <path id="DejaVuSans-43" d="M 4122 4306 
L 4122 3641 
Q 3803 3938 3442 4084 
Q 3081 4231 2675 4231 
Q 1875 4231 1450 3742 
Q 1025 3253 1025 2328 
Q 1025 1406 1450 917 
Q 1875 428 2675 428 
Q 3081 428 3442 575 
Q 3803 722 4122 1019 
L 4122 359 
Q 3791 134 3420 21 
Q 3050 -91 2638 -91 
Q 1578 -91 968 557 
Q 359 1206 359 2328 
Q 359 3453 968 4101 
Q 1578 4750 2638 4750 
Q 3056 4750 3426 4639 
Q 3797 4528 4122 4306 
z
" transform="scale(0.015625)"/>
      <path id="DejaVuSans-72" d="M 2631 2963 
Q 2534 3019 2420 3045 
Q 2306 3072 2169 3072 
Q 1681 3072 1420 2755 
Q 1159 2438 1159 1844 
L 1159 0 
L 581 0 
L 581 3500 
L 1159 3500 
L 1159 2956 
Q 1341 3275 1631 3429 
Q 1922 3584 2338 3584 
Q 2397 3584 2469 3576 
Q 2541 3569 2628 3553 
L 2631 2963 
z
" transform="scale(0.015625)"/>
      <path id="DejaVuSans-4d" d="M 628 4666 
L 1569 4666 
L 2759 1491 
L 3956 4666 
L 4897 4666 
L 4897 0 
L 4281 0 
L 4281 4097 
L 3078 897 
L 2444 897 
L 1241 4097 
L 1241 0 
L 628 0 
L 628 4666 
z
" transform="scale(0.015625)"/>
      <path id="DejaVuSans-79" d="M 2059 -325 
Q 1816 -950 1584 -1140 
Q 1353 -1331 966 -1331 
L 506 -1331 
L 506 -850 
L 844 -850 
Q 1081 -850 1212 -737 
Q 1344 -625 1503 -206 
L 1606 56 
L 191 3500 
L 800 3500 
L 1894 763 
L 2988 3500 
L 3597 3500 
L 2059 -325 
z
" transform="scale(0.015625)"/>
      <path id="DejaVuSans-70" d="M 1159 525 
L 1159 -1331 
L 581 -1331 
L 581 3500 
L 1159 3500 
L 1159 2969 
Q 1341 3281 1617 3432 
Q 1894 3584 2278 3584 
Q 2916 3584 3314 3078 
Q 3713 2572 3713 1747 
Q 3713 922 3314 415 
Q 2916 -91 2278 -91 
Q 1894 -91 1617 61 
Q 1341 213 1159 525 
z
M 3116 1747 
Q 3116 2381 2855 2742 
Q 2594 3103 2138 3103 
Q 1681 3103 1420 2742 
Q 1159 2381 1159 1747 
Q 1159 1113 1420 752 
Q 1681 391 2138 391 
Q 2594 391 2855 752 
Q 3116 1113 3116 1747 
z
" transform="scale(0.015625)"/>
      <path id="DejaVuSans-2d" d="M 313 2009 
L 1997 2009 
L 1997 1497 
L 313 1497 
L 313 2009 
z
" transform="scale(0.015625)"/>
      <path id="DejaVuSans-56" d="M 1831 0 
L 50 4666 
L 709 4666 
L 2188 738 
L 3669 4666 
L 4325 4666 
L 2547 0 
L 1831 0 
z
" transform="scale(0.015625)"/>
      <path id="DejaVuSans-44" d="M 1259 4147 
L 1259 519 
L 2022 519 
Q 2988 519 3436 956 
Q 3884 1394 3884 2338 
Q 3884 3275 3436 3711 
Q 2988 4147 2022 4147 
L 1259 4147 
z
M 628 4666 
L 1925 4666 
Q 3281 4666 3915 4102 
Q 4550 3538 4550 2338 
Q 4550 1131 3912 565 
Q 3275 0 1925 0 
L 628 0 
L 628 4666 
z
" transform="scale(0.015625)"/>
      <path id="DejaVuSans-6b" d="M 581 4863 
L 1159 4863 
L 1159 1991 
L 2875 3500 
L 3609 3500 
L 1753 1863 
L 3688 0 
L 2938 0 
L 1159 1709 
L 1159 0 
L 581 0 
L 581 4863 
z
" transform="scale(0.015625)"/>
     </defs>
     <use xlink:href="#DejaVuSans-43"/>
     <use xlink:href="#DejaVuSans-72" x="69.824219"/>
     <use xlink:href="#DejaVuSans-65" x="108.6875"/>
     <use xlink:href="#DejaVuSans-61" x="170.210938"/>
     <use xlink:href="#DejaVuSans-74" x="231.490234"/>
     <use xlink:href="#DejaVuSans-65" x="270.699219"/>
     <use xlink:href="#DejaVuSans-20" x="332.222656"/>
     <use xlink:href="#DejaVuSans-4d" x="364.009766"/>
     <use xlink:href="#DejaVuSans-61" x="450.289062"/>
     <use xlink:href="#DejaVuSans-6e" x="511.568359"/>
     <use xlink:href="#DejaVuSans-79" x="574.947266"/>
     <use xlink:href="#DejaVuSans-20" x="634.126953"/>
     <use xlink:href="#DejaVuSans-54" x="665.914062"/>
     <use xlink:href="#DejaVuSans-79" x="711.373047"/>
     <use xlink:href="#DejaVuSans-70" x="770.552734"/>
     <use xlink:href="#DejaVuSans-65" x="834.029297"/>
     <use xlink:href="#DejaVuSans-2d" x="895.552734"/>
     <use xlink:href="#DejaVuSans-31" x="931.636719"/>
     <use xlink:href="#DejaVuSans-20" x="995.259766"/>
     <use xlink:href="#DejaVuSans-56" x="1027.046875"/>
     <use xlink:href="#DejaVuSans-4d" x="1095.455078"/>
     <use xlink:href="#DejaVuSans-73" x="1181.734375"/>
     <use xlink:href="#DejaVuSans-20" x="1233.833984"/>
     <use xlink:href="#DejaVuSans-28" x="1265.621094"/>
     <use xlink:href="#DejaVuSans-44" x="1304.634766"/>
     <use xlink:href="#DejaVuSans-69" x="1381.636719"/>
     <use xlink:href="#DejaVuSans-73" x="1409.419922"/>
     <use xlink:href="#DejaVuSans-6b" x="1461.519531"/>
     <use xlink:href="#DejaVuSans-29" x="1519.429688"/>
    </g>
   </g>
   <g id="legend_1">
    <g id="patch_7">
     <path d="M 400.807813 85.887344 
L 556.192812 85.887344 
Q 559.392812 85.887344 559.392812 82.687344 
L 559.392812 37.317344 
Q 559.392812 34.117344 556.192812 34.117344 
L 400.807813 34.117344 
Q 397.607813 34.117344 397.607813 37.317344 
L 397.607813 82.687344 
Q 397.607813 85.887344 400.807813 85.887344 
z
" style="fill: #ffffff; opacity: 0.8; stroke: #cccccc; stroke-linejoin: miter"/>
    </g>
    <g id="line2d_15">
     <path d="M 404.007813 47.074844 
L 420.007813 47.074844 
L 436.007813 47.074844 
" style="fill: none; stroke: #009384; stroke-width: 2.5; stroke-linecap: square"/>
    </g>
    <g id="text_16">
     <!-- KubeVirt  -->
     <g transform="translate(448.807813 52.674844) scale(0.16 -0.16)">
      <defs>
       <path id="DejaVuSans-4b" d="M 628 4666 
L 1259 4666 
L 1259 2694 
L 3353 4666 
L 4166 4666 
L 1850 2491 
L 4331 0 
L 3500 0 
L 1259 2247 
L 1259 0 
L 628 0 
L 628 4666 
z
" transform="scale(0.015625)"/>
       <path id="DejaVuSans-75" d="M 544 1381 
L 544 3500 
L 1119 3500 
L 1119 1403 
Q 1119 906 1312 657 
Q 1506 409 1894 409 
Q 2359 409 2629 706 
Q 2900 1003 2900 1516 
L 2900 3500 
L 3475 3500 
L 3475 0 
L 2900 0 
L 2900 538 
Q 2691 219 2414 64 
Q 2138 -91 1772 -91 
Q 1169 -91 856 284 
Q 544 659 544 1381 
z
M 1991 3584 
L 1991 3584 
z
" transform="scale(0.015625)"/>
       <path id="DejaVuSans-62" d="M 3116 1747 
Q 3116 2381 2855 2742 
Q 2594 3103 2138 3103 
Q 1681 3103 1420 2742 
Q 1159 2381 1159 1747 
Q 1159 1113 1420 752 
Q 1681 391 2138 391 
Q 2594 391 2855 752 
Q 3116 1113 3116 1747 
z
M 1159 2969 
Q 1341 3281 1617 3432 
Q 1894 3584 2278 3584 
Q 2916 3584 3314 3078 
Q 3713 2572 3713 1747 
Q 3713 922 3314 415 
Q 2916 -91 2278 -91 
Q 1894 -91 1617 61 
Q 1341 213 1159 525 
L 1159 0 
L 581 0 
L 581 4863 
L 1159 4863 
L 1159 2969 
z
" transform="scale(0.015625)"/>
      </defs>
      <use xlink:href="#DejaVuSans-4b"/>
      <use xlink:href="#DejaVuSans-75" x="60.576172"/>
      <use xlink:href="#DejaVuSans-62" x="123.955078"/>
      <use xlink:href="#DejaVuSans-65" x="187.431641"/>
      <use xlink:href="#DejaVuSans-56" x="248.955078"/>
      <use xlink:href="#DejaVuSans-69" x="315.113281"/>
      <use xlink:href="#DejaVuSans-72" x="342.896484"/>
      <use xlink:href="#DejaVuSans-74" x="384.009766"/>
      <use xlink:href="#DejaVuSans-20" x="423.21875"/>
     </g>
    </g>
    <g id="line2d_16">
     <path d="M 404.007813 70.559844 
L 420.007813 70.559844 
L 436.007813 70.559844 
" style="fill: none; stroke: #b85741; stroke-width: 2.5; stroke-linecap: square"/>
    </g>
    <g id="text_17">
     <!-- OpenNebula  -->
     <g transform="translate(448.807813 76.159844) scale(0.16 -0.16)">
      <defs>
       <path id="DejaVuSans-4f" d="M 2522 4238 
Q 1834 4238 1429 3725 
Q 1025 3213 1025 2328 
Q 1025 1447 1429 934 
Q 1834 422 2522 422 
Q 3209 422 3611 934 
Q 4013 1447 4013 2328 
Q 4013 3213 3611 3725 
Q 3209 4238 2522 4238 
z
M 2522 4750 
Q 3503 4750 4090 4092 
Q 4678 3434 4678 2328 
Q 4678 1225 4090 567 
Q 3503 -91 2522 -91 
Q 1538 -91 948 565 
Q 359 1222 359 2328 
Q 359 3434 948 4092 
Q 1538 4750 2522 4750 
z
" transform="scale(0.015625)"/>
       <path id="DejaVuSans-4e" d="M 628 4666 
L 1478 4666 
L 3547 763 
L 3547 4666 
L 4159 4666 
L 4159 0 
L 3309 0 
L 1241 3903 
L 1241 0 
L 628 0 
L 628 4666 
z
" transform="scale(0.015625)"/>
      </defs>
      <use xlink:href="#DejaVuSans-4f"/>
      <use xlink:href="#DejaVuSans-70" x="78.710938"/>
      <use xlink:href="#DejaVuSans-65" x="142.1875"/>
      <use xlink:href="#DejaVuSans-6e" x="203.710938"/>
      <use xlink:href="#DejaVuSans-4e" x="267.089844"/>
      <use xlink:href="#DejaVuSans-65" x="341.894531"/>
      <use xlink:href="#DejaVuSans-62" x="403.417969"/>
      <use xlink:href="#DejaVuSans-75" x="466.894531"/>
      <use xlink:href="#DejaVuSans-6c" x="530.273438"/>
      <use xlink:href="#DejaVuSans-61" x="558.056641"/>
      <use xlink:href="#DejaVuSans-20" x="619.335938"/>
     </g>
    </g>
   </g>
  </g>
 </g>
 <defs>
  <clipPath id="p0ffa900ef4">
   <rect x="65.192813" y="26.117344" width="502.2" height="221.76"/>
  </clipPath>
 </defs>
</svg>
