<?xml version="1.0" encoding="utf-8" standalone="no"?>
<!DOCTYPE svg PUBLIC "-//W3C//DTD SVG 1.1//EN"
  "http://www.w3.org/Graphics/SVG/1.1/DTD/svg11.dtd">
<svg xmlns:xlink="http://www.w3.org/1999/xlink" width="555.451562pt" height="287.233281pt" viewBox="0 0 555.451562 287.233281" xmlns="http://www.w3.org/2000/svg" version="1.1">
 <metadata>
  <rdf:RDF xmlns:dc="http://purl.org/dc/elements/1.1/" xmlns:cc="http://creativecommons.org/ns#" xmlns:rdf="http://www.w3.org/1999/02/22-rdf-syntax-ns#">
   <cc:Work>
    <dc:type rdf:resource="http://purl.org/dc/dcmitype/StillImage"/>
    <dc:date>2024-05-21T10:08:04.231220</dc:date>
    <dc:format>image/svg+xml</dc:format>
    <dc:creator>
     <cc:Agent>
      <dc:title>Matplotlib v3.8.4, https://matplotlib.org/</dc:title>
     </cc:Agent>
    </dc:creator>
   </cc:Work>
  </rdf:RDF>
 </metadata>
 <defs>
  <style type="text/css">*{stroke-linejoin: round; stroke-linecap: butt}</style>
 </defs>
 <g id="figure_1">
  <g id="patch_1">
   <path d="M 0 287.233281 
L 555.451562 287.233281 
L 555.451562 0 
L 0 0 
z
" style="fill: #f3f7f8"/>
  </g>
  <g id="axes_1">
   <g id="patch_2">
    <path d="M 46.051562 244.837969 
L 548.251563 244.837969 
L 548.251563 23.077969 
L 46.051562 23.077969 
z
" style="fill: #ffffff"/>
   </g>
   <g id="matplotlib.axis_1">
    <g id="xtick_1">
     <g id="line2d_1">
      <defs>
       <path id="meb5c35e477" d="M 0 0 
L 0 3.5 
" style="stroke: #000000; stroke-width: 0.8"/>
      </defs>
      <g>
       <use xlink:href="#meb5c35e477" x="76.732794" y="244.837969" style="stroke: #000000; stroke-width: 0.8"/>
      </g>
     </g>
     <g id="text_1">
      <!-- 0 -->
      <g transform="translate(72.915294 260.956094) scale(0.12 -0.12)">
       <defs>
        <path id="DejaVuSans-30" d="M 2034 4250 
Q 1547 4250 1301 3770 
Q 1056 3291 1056 2328 
Q 1056 1369 1301 889 
Q 1547 409 2034 409 
Q 2525 409 2770 889 
Q 3016 1369 3016 2328 
Q 3016 3291 2770 3770 
Q 2525 4250 2034 4250 
z
M 2034 4750 
Q 2819 4750 3233 4129 
Q 3647 3509 3647 2328 
Q 3647 1150 3233 529 
Q 2819 -91 2034 -91 
Q 1250 -91 836 529 
Q 422 1150 422 2328 
Q 422 3509 836 4129 
Q 1250 4750 2034 4750 
z
" transform="scale(0.015625)"/>
       </defs>
       <use xlink:href="#DejaVuSans-30"/>
      </g>
     </g>
    </g>
    <g id="xtick_2">
     <g id="line2d_2">
      <g>
       <use xlink:href="#meb5c35e477" x="178.916801" y="244.837969" style="stroke: #000000; stroke-width: 0.8"/>
      </g>
     </g>
     <g id="text_2">
      <!-- 50 -->
      <g transform="translate(171.281801 260.956094) scale(0.12 -0.12)">
       <defs>
        <path id="DejaVuSans-35" d="M 691 4666 
L 3169 4666 
L 3169 4134 
L 1269 4134 
L 1269 2991 
Q 1406 3038 1543 3061 
Q 1681 3084 1819 3084 
Q 2600 3084 3056 2656 
Q 3513 2228 3513 1497 
Q 3513 744 3044 326 
Q 2575 -91 1722 -91 
Q 1428 -91 1123 -41 
Q 819 9 494 109 
L 494 744 
Q 775 591 1075 516 
Q 1375 441 1709 441 
Q 2250 441 2565 725 
Q 2881 1009 2881 1497 
Q 2881 1984 2565 2268 
Q 2250 2553 1709 2553 
Q 1456 2553 1204 2497 
Q 953 2441 691 2322 
L 691 4666 
z
" transform="scale(0.015625)"/>
       </defs>
       <use xlink:href="#DejaVuSans-35"/>
       <use xlink:href="#DejaVuSans-30" x="63.623047"/>
      </g>
     </g>
    </g>
    <g id="xtick_3">
     <g id="line2d_3">
      <g>
       <use xlink:href="#meb5c35e477" x="281.100807" y="244.837969" style="stroke: #000000; stroke-width: 0.8"/>
      </g>
     </g>
     <g id="text_3">
      <!-- 100 -->
      <g transform="translate(269.648307 260.956094) scale(0.12 -0.12)">
       <defs>
        <path id="DejaVuSans-31" d="M 794 531 
L 1825 531 
L 1825 4091 
L 703 3866 
L 703 4441 
L 1819 4666 
L 2450 4666 
L 2450 531 
L 3481 531 
L 3481 0 
L 794 0 
L 794 531 
z
" transform="scale(0.015625)"/>
       </defs>
       <use xlink:href="#DejaVuSans-31"/>
       <use xlink:href="#DejaVuSans-30" x="63.623047"/>
       <use xlink:href="#DejaVuSans-30" x="127.246094"/>
      </g>
     </g>
    </g>
    <g id="xtick_4">
     <g id="line2d_4">
      <g>
       <use xlink:href="#meb5c35e477" x="383.284814" y="244.837969" style="stroke: #000000; stroke-width: 0.8"/>
      </g>
     </g>
     <g id="text_4">
      <!-- 150 -->
      <g transform="translate(371.832314 260.956094) scale(0.12 -0.12)">
       <use xlink:href="#DejaVuSans-31"/>
       <use xlink:href="#DejaVuSans-35" x="63.623047"/>
       <use xlink:href="#DejaVuSans-30" x="127.246094"/>
      </g>
     </g>
    </g>
    <g id="xtick_5">
     <g id="line2d_5">
      <g>
       <use xlink:href="#meb5c35e477" x="485.468821" y="244.837969" style="stroke: #000000; stroke-width: 0.8"/>
      </g>
     </g>
     <g id="text_5">
      <!-- 200 -->
      <g transform="translate(474.016321 260.956094) scale(0.12 -0.12)">
       <defs>
        <path id="DejaVuSans-32" d="M 1228 531 
L 3431 531 
L 3431 0 
L 469 0 
L 469 531 
Q 828 903 1448 1529 
Q 2069 2156 2228 2338 
Q 2531 2678 2651 2914 
Q 2772 3150 2772 3378 
Q 2772 3750 2511 3984 
Q 2250 4219 1831 4219 
Q 1534 4219 1204 4116 
Q 875 4013 500 3803 
L 500 4441 
Q 881 4594 1212 4672 
Q 1544 4750 1819 4750 
Q 2544 4750 2975 4387 
Q 3406 4025 3406 3419 
Q 3406 3131 3298 2873 
Q 3191 2616 2906 2266 
Q 2828 2175 2409 1742 
Q 1991 1309 1228 531 
z
" transform="scale(0.015625)"/>
       </defs>
       <use xlink:href="#DejaVuSans-32"/>
       <use xlink:href="#DejaVuSans-30" x="63.623047"/>
       <use xlink:href="#DejaVuSans-30" x="127.246094"/>
      </g>
     </g>
    </g>
    <g id="text_6">
     <!-- Time (s) -->
     <g transform="translate(270.723984 277.329687) scale(0.13 -0.13)">
      <defs>
       <path id="DejaVuSans-54" d="M -19 4666 
L 3928 4666 
L 3928 4134 
L 2272 4134 
L 2272 0 
L 1638 0 
L 1638 4134 
L -19 4134 
L -19 4666 
z
" transform="scale(0.015625)"/>
       <path id="DejaVuSans-69" d="M 603 3500 
L 1178 3500 
L 1178 0 
L 603 0 
L 603 3500 
z
M 603 4863 
L 1178 4863 
L 1178 4134 
L 603 4134 
L 603 4863 
z
" transform="scale(0.015625)"/>
       <path id="DejaVuSans-6d" d="M 3328 2828 
Q 3544 3216 3844 3400 
Q 4144 3584 4550 3584 
Q 5097 3584 5394 3201 
Q 5691 2819 5691 2113 
L 5691 0 
L 5113 0 
L 5113 2094 
Q 5113 2597 4934 2840 
Q 4756 3084 4391 3084 
Q 3944 3084 3684 2787 
Q 3425 2491 3425 1978 
L 3425 0 
L 2847 0 
L 2847 2094 
Q 2847 2600 2669 2842 
Q 2491 3084 2119 3084 
Q 1678 3084 1418 2786 
Q 1159 2488 1159 1978 
L 1159 0 
L 581 0 
L 581 3500 
L 1159 3500 
L 1159 2956 
Q 1356 3278 1631 3431 
Q 1906 3584 2284 3584 
Q 2666 3584 2933 3390 
Q 3200 3197 3328 2828 
z
" transform="scale(0.015625)"/>
       <path id="DejaVuSans-65" d="M 3597 1894 
L 3597 1613 
L 953 1613 
Q 991 1019 1311 708 
Q 1631 397 2203 397 
Q 2534 397 2845 478 
Q 3156 559 3463 722 
L 3463 178 
Q 3153 47 2828 -22 
Q 2503 -91 2169 -91 
Q 1331 -91 842 396 
Q 353 884 353 1716 
Q 353 2575 817 3079 
Q 1281 3584 2069 3584 
Q 2775 3584 3186 3129 
Q 3597 2675 3597 1894 
z
M 3022 2063 
Q 3016 2534 2758 2815 
Q 2500 3097 2075 3097 
Q 1594 3097 1305 2825 
Q 1016 2553 972 2059 
L 3022 2063 
z
" transform="scale(0.015625)"/>
       <path id="DejaVuSans-20" transform="scale(0.015625)"/>
       <path id="DejaVuSans-28" d="M 1984 4856 
Q 1566 4138 1362 3434 
Q 1159 2731 1159 2009 
Q 1159 1288 1364 580 
Q 1569 -128 1984 -844 
L 1484 -844 
Q 1016 -109 783 600 
Q 550 1309 550 2009 
Q 550 2706 781 3412 
Q 1013 4119 1484 4856 
L 1984 4856 
z
" transform="scale(0.015625)"/>
       <path id="DejaVuSans-73" d="M 2834 3397 
L 2834 2853 
Q 2591 2978 2328 3040 
Q 2066 3103 1784 3103 
Q 1356 3103 1142 2972 
Q 928 2841 928 2578 
Q 928 2378 1081 2264 
Q 1234 2150 1697 2047 
L 1894 2003 
Q 2506 1872 2764 1633 
Q 3022 1394 3022 966 
Q 3022 478 2636 193 
Q 2250 -91 1575 -91 
Q 1294 -91 989 -36 
Q 684 19 347 128 
L 347 722 
Q 666 556 975 473 
Q 1284 391 1588 391 
Q 1994 391 2212 530 
Q 2431 669 2431 922 
Q 2431 1156 2273 1281 
Q 2116 1406 1581 1522 
L 1381 1569 
Q 847 1681 609 1914 
Q 372 2147 372 2553 
Q 372 3047 722 3315 
Q 1072 3584 1716 3584 
Q 2034 3584 2315 3537 
Q 2597 3491 2834 3397 
z
" transform="scale(0.015625)"/>
       <path id="DejaVuSans-29" d="M 513 4856 
L 1013 4856 
Q 1481 4119 1714 3412 
Q 1947 2706 1947 2009 
Q 1947 1309 1714 600 
Q 1481 -109 1013 -844 
L 513 -844 
Q 928 -128 1133 580 
Q 1338 1288 1338 2009 
Q 1338 2731 1133 3434 
Q 928 4138 513 4856 
z
" transform="scale(0.015625)"/>
      </defs>
      <use xlink:href="#DejaVuSans-54"/>
      <use xlink:href="#DejaVuSans-69" x="57.958984"/>
      <use xlink:href="#DejaVuSans-6d" x="85.742188"/>
      <use xlink:href="#DejaVuSans-65" x="183.154297"/>
      <use xlink:href="#DejaVuSans-20" x="244.677734"/>
      <use xlink:href="#DejaVuSans-28" x="276.464844"/>
      <use xlink:href="#DejaVuSans-73" x="315.478516"/>
      <use xlink:href="#DejaVuSans-29" x="367.578125"/>
     </g>
    </g>
   </g>
   <g id="matplotlib.axis_2">
    <g id="ytick_1">
     <g id="line2d_6">
      <defs>
       <path id="mc5a426d437" d="M 0 0 
L -3.5 0 
" style="stroke: #000000; stroke-width: 0.8"/>
      </defs>
      <g>
       <use xlink:href="#mc5a426d437" x="46.051562" y="240.477982" style="stroke: #000000; stroke-width: 0.8"/>
      </g>
     </g>
     <g id="text_7">
      <!-- 0 -->
      <g transform="translate(31.416562 245.037044) scale(0.12 -0.12)">
       <use xlink:href="#DejaVuSans-30"/>
      </g>
     </g>
    </g>
    <g id="ytick_2">
     <g id="line2d_7">
      <g>
       <use xlink:href="#mc5a426d437" x="46.051562" y="214.793435" style="stroke: #000000; stroke-width: 0.8"/>
      </g>
     </g>
     <g id="text_8">
      <!-- 10 -->
      <g transform="translate(23.781562 219.352497) scale(0.12 -0.12)">
       <use xlink:href="#DejaVuSans-31"/>
       <use xlink:href="#DejaVuSans-30" x="63.623047"/>
      </g>
     </g>
    </g>
    <g id="ytick_3">
     <g id="line2d_8">
      <g>
       <use xlink:href="#mc5a426d437" x="46.051562" y="189.108888" style="stroke: #000000; stroke-width: 0.8"/>
      </g>
     </g>
     <g id="text_9">
      <!-- 20 -->
      <g transform="translate(23.781562 193.66795) scale(0.12 -0.12)">
       <use xlink:href="#DejaVuSans-32"/>
       <use xlink:href="#DejaVuSans-30" x="63.623047"/>
      </g>
     </g>
    </g>
    <g id="ytick_4">
     <g id="line2d_9">
      <g>
       <use xlink:href="#mc5a426d437" x="46.051562" y="163.424341" style="stroke: #000000; stroke-width: 0.8"/>
      </g>
     </g>
     <g id="text_10">
      <!-- 30 -->
      <g transform="translate(23.781562 167.983403) scale(0.12 -0.12)">
       <defs>
        <path id="DejaVuSans-33" d="M 2597 2516 
Q 3050 2419 3304 2112 
Q 3559 1806 3559 1356 
Q 3559 666 3084 287 
Q 2609 -91 1734 -91 
Q 1441 -91 1130 -33 
Q 819 25 488 141 
L 488 750 
Q 750 597 1062 519 
Q 1375 441 1716 441 
Q 2309 441 2620 675 
Q 2931 909 2931 1356 
Q 2931 1769 2642 2001 
Q 2353 2234 1838 2234 
L 1294 2234 
L 1294 2753 
L 1863 2753 
Q 2328 2753 2575 2939 
Q 2822 3125 2822 3475 
Q 2822 3834 2567 4026 
Q 2313 4219 1838 4219 
Q 1578 4219 1281 4162 
Q 984 4106 628 3988 
L 628 4550 
Q 988 4650 1302 4700 
Q 1616 4750 1894 4750 
Q 2613 4750 3031 4423 
Q 3450 4097 3450 3541 
Q 3450 3153 3228 2886 
Q 3006 2619 2597 2516 
z
" transform="scale(0.015625)"/>
       </defs>
       <use xlink:href="#DejaVuSans-33"/>
       <use xlink:href="#DejaVuSans-30" x="63.623047"/>
      </g>
     </g>
    </g>
    <g id="ytick_5">
     <g id="line2d_10">
      <g>
       <use xlink:href="#mc5a426d437" x="46.051562" y="137.739794" style="stroke: #000000; stroke-width: 0.8"/>
      </g>
     </g>
     <g id="text_11">
      <!-- 40 -->
      <g transform="translate(23.781562 142.298856) scale(0.12 -0.12)">
       <defs>
        <path id="DejaVuSans-34" d="M 2419 4116 
L 825 1625 
L 2419 1625 
L 2419 4116 
z
M 2253 4666 
L 3047 4666 
L 3047 1625 
L 3713 1625 
L 3713 1100 
L 3047 1100 
L 3047 0 
L 2419 0 
L 2419 1100 
L 313 1100 
L 313 1709 
L 2253 4666 
z
" transform="scale(0.015625)"/>
       </defs>
       <use xlink:href="#DejaVuSans-34"/>
       <use xlink:href="#DejaVuSans-30" x="63.623047"/>
      </g>
     </g>
    </g>
    <g id="ytick_6">
     <g id="line2d_11">
      <g>
       <use xlink:href="#mc5a426d437" x="46.051562" y="112.055247" style="stroke: #000000; stroke-width: 0.8"/>
      </g>
     </g>
     <g id="text_12">
      <!-- 50 -->
      <g transform="translate(23.781562 116.614309) scale(0.12 -0.12)">
       <use xlink:href="#DejaVuSans-35"/>
       <use xlink:href="#DejaVuSans-30" x="63.623047"/>
      </g>
     </g>
    </g>
    <g id="ytick_7">
     <g id="line2d_12">
      <g>
       <use xlink:href="#mc5a426d437" x="46.051562" y="86.3707" style="stroke: #000000; stroke-width: 0.8"/>
      </g>
     </g>
     <g id="text_13">
      <!-- 60 -->
      <g transform="translate(23.781562 90.929762) scale(0.12 -0.12)">
       <defs>
        <path id="DejaVuSans-36" d="M 2113 2584 
Q 1688 2584 1439 2293 
Q 1191 2003 1191 1497 
Q 1191 994 1439 701 
Q 1688 409 2113 409 
Q 2538 409 2786 701 
Q 3034 994 3034 1497 
Q 3034 2003 2786 2293 
Q 2538 2584 2113 2584 
z
M 3366 4563 
L 3366 3988 
Q 3128 4100 2886 4159 
Q 2644 4219 2406 4219 
Q 1781 4219 1451 3797 
Q 1122 3375 1075 2522 
Q 1259 2794 1537 2939 
Q 1816 3084 2150 3084 
Q 2853 3084 3261 2657 
Q 3669 2231 3669 1497 
Q 3669 778 3244 343 
Q 2819 -91 2113 -91 
Q 1303 -91 875 529 
Q 447 1150 447 2328 
Q 447 3434 972 4092 
Q 1497 4750 2381 4750 
Q 2619 4750 2861 4703 
Q 3103 4656 3366 4563 
z
" transform="scale(0.015625)"/>
       </defs>
       <use xlink:href="#DejaVuSans-36"/>
       <use xlink:href="#DejaVuSans-30" x="63.623047"/>
      </g>
     </g>
    </g>
    <g id="ytick_8">
     <g id="line2d_13">
      <g>
       <use xlink:href="#mc5a426d437" x="46.051562" y="60.686153" style="stroke: #000000; stroke-width: 0.8"/>
      </g>
     </g>
     <g id="text_14">
      <!-- 70 -->
      <g transform="translate(23.781562 65.245215) scale(0.12 -0.12)">
       <defs>
        <path id="DejaVuSans-37" d="M 525 4666 
L 3525 4666 
L 3525 4397 
L 1831 0 
L 1172 0 
L 2766 4134 
L 525 4134 
L 525 4666 
z
" transform="scale(0.015625)"/>
       </defs>
       <use xlink:href="#DejaVuSans-37"/>
       <use xlink:href="#DejaVuSans-30" x="63.623047"/>
      </g>
     </g>
    </g>
    <g id="ytick_9">
     <g id="line2d_14">
      <g>
       <use xlink:href="#mc5a426d437" x="46.051562" y="35.001606" style="stroke: #000000; stroke-width: 0.8"/>
      </g>
     </g>
     <g id="text_15">
      <!-- 80 -->
      <g transform="translate(23.781562 39.560668) scale(0.12 -0.12)">
       <defs>
        <path id="DejaVuSans-38" d="M 2034 2216 
Q 1584 2216 1326 1975 
Q 1069 1734 1069 1313 
Q 1069 891 1326 650 
Q 1584 409 2034 409 
Q 2484 409 2743 651 
Q 3003 894 3003 1313 
Q 3003 1734 2745 1975 
Q 2488 2216 2034 2216 
z
M 1403 2484 
Q 997 2584 770 2862 
Q 544 3141 544 3541 
Q 544 4100 942 4425 
Q 1341 4750 2034 4750 
Q 2731 4750 3128 4425 
Q 3525 4100 3525 3541 
Q 3525 3141 3298 2862 
Q 3072 2584 2669 2484 
Q 3125 2378 3379 2068 
Q 3634 1759 3634 1313 
Q 3634 634 3220 271 
Q 2806 -91 2034 -91 
Q 1263 -91 848 271 
Q 434 634 434 1313 
Q 434 1759 690 2068 
Q 947 2378 1403 2484 
z
M 1172 3481 
Q 1172 3119 1398 2916 
Q 1625 2713 2034 2713 
Q 2441 2713 2670 2916 
Q 2900 3119 2900 3481 
Q 2900 3844 2670 4047 
Q 2441 4250 2034 4250 
Q 1625 4250 1398 4047 
Q 1172 3844 1172 3481 
z
" transform="scale(0.015625)"/>
       </defs>
       <use xlink:href="#DejaVuSans-38"/>
       <use xlink:href="#DejaVuSans-30" x="63.623047"/>
      </g>
     </g>
    </g>
    <g id="text_16">
     <!-- Utilization (%) -->
     <g transform="translate(17.077969 179.839844) rotate(-90) scale(0.13 -0.13)">
      <defs>
       <path id="DejaVuSans-55" d="M 556 4666 
L 1191 4666 
L 1191 1831 
Q 1191 1081 1462 751 
Q 1734 422 2344 422 
Q 2950 422 3222 751 
Q 3494 1081 3494 1831 
L 3494 4666 
L 4128 4666 
L 4128 1753 
Q 4128 841 3676 375 
Q 3225 -91 2344 -91 
Q 1459 -91 1007 375 
Q 556 841 556 1753 
L 556 4666 
z
" transform="scale(0.015625)"/>
       <path id="DejaVuSans-74" d="M 1172 4494 
L 1172 3500 
L 2356 3500 
L 2356 3053 
L 1172 3053 
L 1172 1153 
Q 1172 725 1289 603 
Q 1406 481 1766 481 
L 2356 481 
L 2356 0 
L 1766 0 
Q 1100 0 847 248 
Q 594 497 594 1153 
L 594 3053 
L 172 3053 
L 172 3500 
L 594 3500 
L 594 4494 
L 1172 4494 
z
" transform="scale(0.015625)"/>
       <path id="DejaVuSans-6c" d="M 603 4863 
L 1178 4863 
L 1178 0 
L 603 0 
L 603 4863 
z
" transform="scale(0.015625)"/>
       <path id="DejaVuSans-7a" d="M 353 3500 
L 3084 3500 
L 3084 2975 
L 922 459 
L 3084 459 
L 3084 0 
L 275 0 
L 275 525 
L 2438 3041 
L 353 3041 
L 353 3500 
z
" transform="scale(0.015625)"/>
       <path id="DejaVuSans-61" d="M 2194 1759 
Q 1497 1759 1228 1600 
Q 959 1441 959 1056 
Q 959 750 1161 570 
Q 1363 391 1709 391 
Q 2188 391 2477 730 
Q 2766 1069 2766 1631 
L 2766 1759 
L 2194 1759 
z
M 3341 1997 
L 3341 0 
L 2766 0 
L 2766 531 
Q 2569 213 2275 61 
Q 1981 -91 1556 -91 
Q 1019 -91 701 211 
Q 384 513 384 1019 
Q 384 1609 779 1909 
Q 1175 2209 1959 2209 
L 2766 2209 
L 2766 2266 
Q 2766 2663 2505 2880 
Q 2244 3097 1772 3097 
Q 1472 3097 1187 3025 
Q 903 2953 641 2809 
L 641 3341 
Q 956 3463 1253 3523 
Q 1550 3584 1831 3584 
Q 2591 3584 2966 3190 
Q 3341 2797 3341 1997 
z
" transform="scale(0.015625)"/>
       <path id="DejaVuSans-6f" d="M 1959 3097 
Q 1497 3097 1228 2736 
Q 959 2375 959 1747 
Q 959 1119 1226 758 
Q 1494 397 1959 397 
Q 2419 397 2687 759 
Q 2956 1122 2956 1747 
Q 2956 2369 2687 2733 
Q 2419 3097 1959 3097 
z
M 1959 3584 
Q 2709 3584 3137 3096 
Q 3566 2609 3566 1747 
Q 3566 888 3137 398 
Q 2709 -91 1959 -91 
Q 1206 -91 779 398 
Q 353 888 353 1747 
Q 353 2609 779 3096 
Q 1206 3584 1959 3584 
z
" transform="scale(0.015625)"/>
       <path id="DejaVuSans-6e" d="M 3513 2113 
L 3513 0 
L 2938 0 
L 2938 2094 
Q 2938 2591 2744 2837 
Q 2550 3084 2163 3084 
Q 1697 3084 1428 2787 
Q 1159 2491 1159 1978 
L 1159 0 
L 581 0 
L 581 3500 
L 1159 3500 
L 1159 2956 
Q 1366 3272 1645 3428 
Q 1925 3584 2291 3584 
Q 2894 3584 3203 3211 
Q 3513 2838 3513 2113 
z
" transform="scale(0.015625)"/>
       <path id="DejaVuSans-25" d="M 4653 2053 
Q 4381 2053 4226 1822 
Q 4072 1591 4072 1178 
Q 4072 772 4226 539 
Q 4381 306 4653 306 
Q 4919 306 5073 539 
Q 5228 772 5228 1178 
Q 5228 1588 5073 1820 
Q 4919 2053 4653 2053 
z
M 4653 2450 
Q 5147 2450 5437 2106 
Q 5728 1763 5728 1178 
Q 5728 594 5436 251 
Q 5144 -91 4653 -91 
Q 4153 -91 3862 251 
Q 3572 594 3572 1178 
Q 3572 1766 3864 2108 
Q 4156 2450 4653 2450 
z
M 1428 4353 
Q 1159 4353 1004 4120 
Q 850 3888 850 3481 
Q 850 3069 1003 2837 
Q 1156 2606 1428 2606 
Q 1700 2606 1854 2837 
Q 2009 3069 2009 3481 
Q 2009 3884 1853 4118 
Q 1697 4353 1428 4353 
z
M 4250 4750 
L 4750 4750 
L 1831 -91 
L 1331 -91 
L 4250 4750 
z
M 1428 4750 
Q 1922 4750 2215 4408 
Q 2509 4066 2509 3481 
Q 2509 2891 2217 2550 
Q 1925 2209 1428 2209 
Q 931 2209 642 2551 
Q 353 2894 353 3481 
Q 353 4063 643 4406 
Q 934 4750 1428 4750 
z
" transform="scale(0.015625)"/>
      </defs>
      <use xlink:href="#DejaVuSans-55"/>
      <use xlink:href="#DejaVuSans-74" x="73.193359"/>
      <use xlink:href="#DejaVuSans-69" x="112.402344"/>
      <use xlink:href="#DejaVuSans-6c" x="140.185547"/>
      <use xlink:href="#DejaVuSans-69" x="167.96875"/>
      <use xlink:href="#DejaVuSans-7a" x="195.751953"/>
      <use xlink:href="#DejaVuSans-61" x="248.242188"/>
      <use xlink:href="#DejaVuSans-74" x="309.521484"/>
      <use xlink:href="#DejaVuSans-69" x="348.730469"/>
      <use xlink:href="#DejaVuSans-6f" x="376.513672"/>
      <use xlink:href="#DejaVuSans-6e" x="437.695312"/>
      <use xlink:href="#DejaVuSans-20" x="501.074219"/>
      <use xlink:href="#DejaVuSans-28" x="532.861328"/>
      <use xlink:href="#DejaVuSans-25" x="571.875"/>
      <use xlink:href="#DejaVuSans-29" x="666.894531"/>
     </g>
    </g>
   </g>
   <g id="line2d_15">
    <path d="M 68.878835 228.831047 
L 68.904336 228.782019 
L 68.944147 229.202335 
L 69.473734 229.109416 
L 69.572759 228.968508 
L 69.608454 229.108896 
L 73.031507 229.13393 
L 73.258205 229.058892 
L 73.561094 228.525239 
L 73.695814 228.535838 
L 74.18764 228.342326 
L 74.260969 227.686687 
L 74.344535 227.702943 
L 74.968599 227.229372 
L 75.265031 226.748258 
L 75.703799 226.699685 
L 76.792837 222.990251 
L 77.053556 218.485052 
L 77.118868 216.66314 
L 77.345565 214.037854 
L 77.648455 206.483606 
L 77.783174 204.373767 
L 78.127379 201.708036 
L 78.275 199.643908 
L 78.431895 192.273289 
L 78.706139 189.634218 
L 79.05596 181.826051 
L 79.122737 179.292449 
L 79.784904 171.375496 
L 79.791159 168.652674 
L 80.880198 166.008596 
L 81.140916 163.418814 
L 81.206228 160.687993 
L 81.709856 158.911598 
L 81.870534 153.650558 
L 82.214739 152.381481 
L 82.36236 149.754179 
L 82.43569 142.127494 
L 82.519256 140.401038 
L 82.793499 138.467349 
L 83.080616 130.978971 
L 83.603481 116.897596 
L 83.872264 116.911772 
L 83.87852 114.536569 
L 85.228276 111.871228 
L 85.293588 109.369748 
L 86.449721 104.519335 
L 86.454517 102.233801 
L 86.880859 99.907821 
L 87.011238 98.121933 
L 87.111021 93.728314 
L 87.297457 87.127126 
L 87.563966 84.591183 
L 87.96588 74.398514 
L 88.34578 72.148223 
L 88.525382 70.116868 
L 88.650296 65.549115 
L 89.315637 63.051407 
L 89.570792 61.206086 
L 90.045255 59.563965 
L 90.541877 57.211261 
L 91.098598 55.452357 
L 91.31804 51.806387 
L 91.424629 49.004951 
L 91.928257 47.42961 
L 92.05324 48.773139 
L 92.65409 48.657396 
L 92.737656 48.871261 
L 93.0119 48.92185 
L 93.155393 48.418563 
L 93.658152 49.332542 
L 93.997896 48.732564 
L 94.090665 51.273449 
L 94.47682 51.225006 
L 94.629238 51.602146 
L 95.342697 51.820952 
L 95.738686 53.16032 
L 95.865562 53.369828 
L 96.176295 54.502289 
L 96.668121 55.331282 
L 96.741451 54.967147 
L 97.229639 55.413668 
L 97.242753 54.706985 
L 97.329421 55.348383 
L 97.515858 55.64795 
L 97.866877 57.371871 
L 98.085256 56.869039 
L 98.178025 56.317764 
L 98.184281 56.990634 
L 98.56418 57.633983 
L 98.743783 57.649719 
L 98.868697 56.801153 
L 99.534037 56.883474 
L 99.599349 57.240522 
L 100.263656 57.209765 
L 100.755481 57.292021 
L 100.760278 55.155912 
L 101.316999 55.757711 
L 101.416782 56.73899 
L 101.603218 57.021976 
L 101.832873 57.273424 
L 101.954237 56.562775 
L 102.172616 57.257623 
L 102.265385 57.287079 
L 102.271641 56.455745 
L 102.65154 56.799073 
L 102.831143 56.460362 
L 102.872491 55.586697 
L 103.2303 55.668302 
L 104.351016 55.328681 
L 104.847638 52.994704 
L 104.999737 53.48232 
L 105.665078 53.79112 
L 105.73039 55.210272 
L 106.041597 57.617532 
L 106.234018 57.243448 
L 106.359001 57.535146 
L 106.886522 57.543014 
L 106.959851 59.558113 
L 107.317661 59.58926 
L 107.448039 59.735434 
L 107.547822 60.565208 
L 107.667482 60.844877 
L 107.963913 59.966725 
L 108.127643 62.226575 
L 108.303657 62.279635 
L 108.782581 62.619711 
L 108.934999 62.256941 
L 109.087097 62.492589 
L 109.648457 62.878507 
L 109.752438 63.316315 
L 109.81775 62.955431 
L 110.044447 63.495262 
L 110.128957 61.226048 
L 110.321378 61.785386 
L 110.440106 61.570481 
L 110.482056 61.624711 
L 110.973882 61.753394 
L 111.405021 61.555201 
L 111.635182 61.826872 
L 111.754842 61.771081 
L 111.821619 61.290942 
L 112.051274 61.014069 
L 112.391017 61.377815 
L 112.490041 61.784216 
L 112.869941 61.500125 
L 113.049544 61.780184 
L 113.090892 61.690581 
L 113.174458 60.775431 
L 113.839798 60.471183 
L 113.90511 60.691745 
L 114.408738 60.817111 
L 114.569416 60.431193 
L 115.635874 60.089166 
L 115.908979 62.130664 
L 116.175487 62.642275 
L 116.259998 63.411315 
L 116.571146 63.322232 
L 116.577402 62.891317 
L 117.104923 62.864592 
L 117.261818 62.534465 
L 117.536061 64.335959 
L 117.766223 63.936321 
L 117.927158 63.882676 
L 117.99247 64.054535 
L 118.182314 63.818367 
L 118.522057 65.033148 
L 118.656777 65.383694 
L 119.000982 65.283947 
L 119.153399 65.398064 
L 119.866858 65.46738 
L 119.929562 65.591966 
L 119.99634 66.504905 
L 120.262848 66.51635 
L 120.347358 66.349433 
L 120.539779 66.232454 
L 120.658506 65.949859 
L 120.664762 64.82221 
L 121.192283 64.75426 
L 121.265612 62.446162 
L 121.623422 64.401308 
L 121.7538 64.319898 
L 121.853583 63.899712 
L 122.269674 63.829226 
L 122.609418 64.395001 
L 123.088342 64.327051 
L 123.392858 63.737022 
L 123.954218 63.724992 
L 124.058199 63.572445 
L 124.123511 61.434386 
L 124.627139 61.778624 
L 124.752122 61.532117 
L 124.787817 61.685574 
L 125.352972 61.450967 
L 125.854275 61.502076 
L 126.12738 63.669266 
L 126.393888 63.831502 
L 126.478398 63.636559 
L 126.520764 64.238098 
L 126.696778 64.211113 
L 127.175702 64.279583 
L 127.480219 64.696973 
L 127.754462 65.753876 
L 128.145559 65.645546 
L 128.210871 65.463153 
L 128.875177 65.481555 
L 129.928521 65.085233 
L 129.941635 65.272437 
L 130.028303 64.931581 
L 130.085259 65.237389 
L 130.147963 64.963377 
L 130.21474 65.112803 
L 130.444395 65.832165 
L 130.481248 66.754143 
L 130.758179 67.362964 
L 130.876907 66.302875 
L 130.883163 66.910526 
L 131.410683 65.727932 
L 131.442665 65.386945 
L 131.484013 65.52122 
L 131.567579 65.787104 
L 132.298231 65.880153 
L 132.609439 68.076605 
L 132.827818 68.800194 
L 132.962538 66.997138 
L 133.885502 67.760587 
L 134.028995 67.526955 
L 134.235323 66.177639 
L 134.302101 68.409984 
L 134.531755 68.195469 
L 134.568609 68.599529 
L 134.84554 68.820286 
L 134.964267 70.76906 
L 134.970523 69.927518 
L 135.530025 70.302902 
L 135.654939 70.801898 
L 136.385592 71.202446 
L 136.696799 71.052566 
L 136.739165 72.129301 
L 136.915179 70.572037 
L 137.394103 70.680042 
L 137.54652 70.379045 
L 137.972863 70.98377 
L 138.36396 68.876402 
L 138.389461 69.030509 
L 138.9329 69.842726 
L 139.057883 69.845912 
L 139.093578 70.137155 
L 139.585404 70.488091 
L 139.658733 71.666849 
L 140.160036 72.166755 
L 140.366364 72.722907 
L 140.662795 73.04055 
L 140.826525 72.995488 
L 141.002539 73.163836 
L 141.095308 72.53076 
L 141.481463 72.86661 
L 141.633881 71.729988 
L 141.78598 73.797301 
L 142.060223 74.207799 
L 142.34734 74.360865 
L 142.45132 73.937233 
L 142.516632 74.552232 
L 142.743329 75.30118 
L 143.02026 75.527789 
L 143.180938 74.933988 
L 143.704746 74.679484 
L 144.234282 75.881716 
L 144.334064 77.672091 
L 144.750156 78.702334 
L 144.87152 78.560321 
L 144.913885 80.065696 
L 145.182668 80.357654 
L 145.188924 80.287298 
L 145.716444 79.51286 
L 145.789774 80.576006 
L 145.87334 81.524513 
L 146.147583 82.079755 
L 146.603992 83.548195 
L 147.10762 84.015394 
L 147.133579 83.831311 
L 147.268299 84.083279 
L 148.321642 84.854401 
L 148.334756 83.77552 
L 148.421425 83.820972 
L 148.541084 84.091862 
L 148.607861 85.260087 
L 149.001245 88.407647 
L 149.276284 86.674102 
L 149.656184 87.543215 
L 149.803805 87.58197 
L 149.808601 88.784137 
L 149.835786 87.212177 
L 149.877134 87.477411 
L 151.220939 86.889527 
L 151.355659 89.892214 
L 152.00438 91.564505 
L 152.278624 92.691959 
L 152.409002 92.701128 
L 152.56574 95.480846 
L 152.628444 95.551787 
L 152.695222 96.503221 
L 152.96173 97.480664 
L 153.238661 99.090858 
L 153.363644 99.749227 
L 153.891165 100.919792 
L 153.923146 103.025275 
L 153.964494 102.933851 
L 154.713401 103.112277 
L 154.968556 104.890884 
L 155.3083 105.750503 
L 155.443019 107.162178 
L 156.09174 108.586337 
L 156.365984 109.656245 
L 156.496363 110.631802 
L 156.596145 112.908234 
L 156.653101 112.861351 
L 157.444749 116.303536 
L 157.451004 117.32435 
L 157.978525 117.843893 
L 158.051854 119.433019 
L 159.177281 121.814399 
L 159.219646 123.536694 
L 159.39566 124.14298 
L 159.530379 125.505171 
L 159.874584 124.461468 
L 160.179101 126.789008 
L 160.453344 128.066538 
L 160.740461 130.068697 
L 160.844441 131.123064 
L 160.869942 130.896715 
L 161.13645 132.084576 
L 161.413381 132.393246 
L 161.532109 133.070798 
L 161.538365 133.914097 
L 162.065885 135.450162 
L 162.139215 136.468636 
L 162.640517 136.678274 
L 162.953433 140.197187 
L 163.143277 140.255904 
L 163.264641 140.074551 
L 163.307006 140.882477 
L 163.48302 141.833455 
L 163.961944 143.161379 
L 164.266461 145.671637 
L 164.540704 144.974903 
L 164.931801 146.52651 
L 164.957303 148.091706 
L 165.619469 152.416204 
L 165.66142 151.877674 
L 166.153246 152.212288 
L 166.727878 152.037113 
L 166.814546 150.741896 
L 166.934205 152.294088 
L 167.230637 151.398446 
L 167.352001 152.065008 
L 167.394367 153.149676 
L 167.570381 153.341498 
L 167.669405 154.307302 
L 168.049305 154.743744 
L 168.201722 153.733398 
L 168.270255 154.015993 
L 168.353821 154.121138 
L 168.628065 153.131925 
L 169.019162 152.385773 
L 169.044663 152.443904 
L 169.084474 153.323226 
L 169.311171 154.469927 
L 169.588102 152.604059 
L 169.706829 152.71551 
L 169.74878 153.672016 
L 170.240606 154.224916 
L 170.802123 154.011052 
L 170.901906 151.675318 
L 171.021566 152.440263 
L 171.317997 150.944967 
L 171.439361 151.254807 
L 171.481727 150.894443 
L 171.756765 150.442525 
L 172.136665 149.228589 
L 172.316268 150.070067 
L 172.357615 149.922722 
L 172.441182 149.012904 
L 172.715425 149.778368 
L 173.106522 148.332036 
L 173.132023 147.082986 
L 173.171834 147.771852 
L 173.398531 145.715918 
L 173.701421 145.494381 
L 173.83614 145.895775 
L 174.889484 144.931467 
L 174.902598 144.002922 
L 175.046222 144.526561 
L 175.108926 144.488717 
L 175.405358 142.62714 
L 175.83787 144.535665 
L 175.844126 142.54677 
L 176.224025 142.097388 
L 176.403628 140.401103 
L 176.444976 138.924989 
L 176.528542 139.879414 
L 177.193882 141.139452 
L 177.259194 139.193994 
L 177.485891 139.594478 
L 177.923501 134.013844 
L 178.846465 134.244744 
L 178.976844 134.099025 
L 179.133582 134.513684 
L 179.196286 133.810188 
L 179.263063 135.544057 
L 179.92523 131.707631 
L 179.931486 132.000565 
L 180.459007 130.046134 
L 180.463803 131.474325 
L 180.532336 127.953916 
L 181.033638 127.891493 
L 181.120307 130.196015 
L 181.281243 130.323332 
L 181.346554 129.856913 
L 181.536398 131.427507 
L 181.700127 131.829422 
L 182.010861 131.082164 
L 182.355066 131.086976 
L 182.659582 131.36788 
L 183.064204 134.278427 
L 183.283646 133.065206 
L 183.616932 134.324204 
L 184.01259 136.911451 
L 184.018846 138.401154 
L 184.546367 139.038391 
L 184.578348 139.000092 
L 184.619696 141.318269 
L 185.264622 142.947124 
L 185.394104 143.002655 
L 185.623758 146.240793 
L 185.745122 145.795963 
L 185.787488 145.993897 
L 186.442426 146.170567 
L 186.746942 147.618916 
L 187.021186 148.459483 
L 187.251347 151.247459 
L 187.412283 151.505475 
L 187.704292 151.627005 
L 187.981223 151.873642 
L 188.007182 153.875021 
L 188.099951 151.558665 
L 188.106206 153.633131 
L 188.141901 155.451077 
L 188.707056 155.471494 
L 189.208359 156.567932 
L 189.351983 155.32584 
L 189.414687 153.301963 
L 189.521275 157.117971 
L 189.711119 157.126034 
L 189.832483 157.264991 
L 190.529786 159.177417 
L 190.677407 159.099388 
L 190.682204 158.582641 
L 190.709389 158.813022 
L 190.834303 159.83182 
L 191.108546 160.640591 
L 191.338707 162.402876 
L 191.499643 161.696388 
L 191.791652 162.305405 
L 191.918528 163.971064 
L 192.068583 163.295593 
L 192.193567 160.689359 
L 192.229262 161.872799 
L 192.794417 162.354693 
L 193.282605 164.093439 
L 193.295719 165.646412 
L 193.502047 166.370131 
L 193.568824 165.706949 
L 193.798479 165.426955 
L 194.617146 167.64714 
L 194.769564 170.245311 
L 194.796749 170.087302 
L 194.921663 172.410096 
L 195.195906 172.678385 
L 195.587003 177.449404 
L 195.652315 177.189567 
L 195.879013 176.614688 
L 196.316622 176.991699 
L 197.369965 175.917954 
L 197.383079 176.205101 
L 197.526703 176.31031 
L 197.656185 177.242562 
L 197.885839 177.197825 
L 198.199624 176.261347 
L 198.225583 174.986093 
L 198.324607 177.034224 
L 198.704507 177.147627 
L 198.852128 177.427035 
L 198.856924 177.337302 
L 198.925457 176.902225 
L 199.009023 177.306351 
L 199.513428 177.512217 
L 199.674364 177.742403 
L 199.739676 177.332425 
L 199.966373 177.191193 
L 200.050883 176.522029 
L 200.093249 178.306617 
L 200.403982 177.368709 
L 201.326947 177.836428 
L 201.457325 178.394985 
L 201.47044 179.054915 
L 201.676768 179.037424 
L 201.973199 178.571396 
L 202.411967 180.605287 
L 202.939488 179.328277 
L 203.096384 182.520964 
L 203.657744 182.735283 
L 203.761724 183.879709 
L 203.827036 188.120065 
L 204.053733 188.54981 
L 204.138243 187.688435 
L 204.180609 187.880711 
L 204.356623 187.880646 
L 205.414307 189.134442 
L 205.544686 189.575696 
L 206.374344 190.87696 
L 206.493072 190.008302 
L 206.499328 190.739369 
L 206.535022 191.755891 
L 207.60148 193.725213 
L 207.807808 196.995084 
L 207.849084 197.069211 
L 207.874585 197.854833 
L 208.10424 198.901528 
L 208.141093 201.12685 
L 208.267969 200.886325 
L 208.443983 201.766297 
L 208.922907 202.239998 
L 209.10251 203.331884 
L 209.227424 203.959042 
L 209.501667 204.555834 
L 209.632046 204.483592 
L 210.269284 204.59875 
L 210.461705 204.591598 
L 210.580432 204.404068 
L 210.586688 204.435214 
L 210.622383 205.347699 
L 211.68884 207.197311 
L 211.775509 208.343817 
L 211.895168 208.139121 
L 211.961946 209.249279 
L 212.1916 209.457291 
L 212.355329 210.842891 
L 213.18987 212.738411 
L 213.314784 212.770077 
L 213.719406 213.388002 
L 214.045437 214.676716 
L 214.674048 214.645049 
L 214.709743 215.334046 
L 215.206365 215.564556 
L 215.274898 216.52971 
L 215.776201 217.016676 
L 215.862869 218.101604 
L 216.27896 217.750604 
L 216.400324 218.767972 
L 216.44269 218.728892 
L 216.711473 218.809132 
L 217.097628 218.783968 
L 217.245249 220.328552 
L 217.277231 220.280109 
L 217.963505 220.286741 
L 218.132797 220.639888 
L 218.636425 220.688071 
L 218.761408 220.896408 
L 218.797103 221.307751 
L 219.293726 221.143825 
L 219.863561 221.991415 
L 220.069889 222.041484 
L 220.136666 222.552899 
L 220.366321 222.446779 
L 220.403174 222.896682 
L 220.487685 222.86521 
L 220.53005 222.889009 
L 220.706064 222.775281 
L 220.798833 223.970686 
L 221.184988 223.927835 
L 221.364591 223.724244 
L 221.405939 224.435804 
L 222.050865 224.437689 
L 222.220157 225.550123 
L 223.950921 225.333657 
L 224.157249 225.399137 
L 224.224026 225.261155 
L 224.453681 225.269479 
L 225.493299 226.406361 
L 226.66109 226.460331 
L 226.837104 226.568987 
L 228.244609 226.47158 
L 228.973553 226.594216 
L 230.394878 226.271566 
L 230.706085 226.101593 
L 230.748451 225.855281 
L 232.33197 226.440759 
L 234.312946 226.559883 
L 234.793445 225.698573 
L 235.63837 225.470533 
L 238.880806 225.515855 
L 242.968166 225.59681 
L 257.273927 225.588097 
L 261.361287 225.388798 
L 261.361287 225.388798 
" clip-path="url(#p5536105b17)" style="fill: none; stroke: #009384; stroke-width: 2.5; stroke-linecap: square"/>
   </g>
   <g id="line2d_16">
    <path d="M 69.055405 234.749685 
L 69.424821 234.709168 
L 70.957127 234.502279 
L 72.690781 234.428757 
L 73.77098 234.222318 
L 73.965874 233.76205 
L 74.302029 233.76205 
L 74.574621 233.197376 
L 75.044487 232.688565 
L 75.821611 231.196549 
L 76.15103 229.222243 
L 76.523928 227.764516 
L 76.751929 226.098552 
L 76.778141 224.400932 
L 77.04478 222.351498 
L 77.437719 215.37763 
L 78.048489 198.109588 
L 78.389389 195.275362 
L 78.529702 189.743617 
L 78.661981 184.415743 
L 79.131848 181.549925 
L 80.096914 178.593827 
L 80.611288 175.774883 
L 80.839289 172.981175 
L 80.865502 170.164415 
L 81.630878 161.827596 
L 81.945701 153.688164 
L 81.952651 150.879045 
L 82.598583 139.67095 
L 82.749341 131.196912 
L 83.219208 128.440575 
L 83.730582 120.04648 
L 84.127481 117.229013 
L 84.184275 114.348556 
L 84.698648 113.1871 
L 84.92665 112.178468 
L 84.952862 111.38199 
L 85.718238 109.981669 
L 86.008239 107.999014 
L 86.040012 104.15956 
L 86.36943 103.379328 
L 86.726531 103.025202 
L 86.836702 102.760908 
L 87.448526 102.161816 
L 87.656119 102.144607 
L 87.817942 102.015478 
L 88.266889 101.799985 
L 88.271635 101.693266 
L 89.680119 99.112225 
L 89.923219 98.585821 
L 90.127372 96.89886 
L 90.456791 96.110151 
L 90.829689 94.090768 
L 90.924062 92.033885 
L 91.083902 91.770298 
L 91.393928 92.80333 
L 91.535887 94.25303 
L 91.74348 93.800147 
L 91.905302 95.164382 
L 92.164102 95.076605 
L 92.302201 94.195304 
L 92.35425 95.263396 
L 92.358995 95.253186 
L 92.816984 96.842161 
L 92.857571 96.45227 
L 93.767479 95.358429 
L 94.544151 96.861874 
L 94.879143 98.034245 
L 94.917049 97.715179 
L 95.14505 97.851949 
L 95.171262 97.384362 
L 95.437901 97.37595 
L 95.623247 98.124334 
L 95.83084 98.110592 
L 95.992662 98.838107 
L 96.251462 101.299586 
L 96.44161 101.187922 
L 96.446355 102.336792 
L 96.78251 102.199893 
L 96.944932 102.414167 
L 97.055102 102.82711 
L 97.524969 102.901338 
L 98.302093 103.64985 
L 98.631511 104.895551 
L 99.004409 104.926822 
L 99.23241 105.072196 
L 99.258623 105.887167 
L 99.9182 106.020149 
L 100.023999 106.129822 
L 100.141619 102.706392 
L 100.476922 99.243409 
L 100.52897 96.637519 
L 100.86987 95.096061 
L 101.032292 92.668294 
L 101.612329 90.671898 
L 102.577396 88.041094 
L 103.09177 85.92899 
L 103.345983 79.72585 
L 103.612622 77.937114 
L 103.98588 73.224385 
L 104.11136 68.564438 
L 104.61633 57.891802 
L 104.762552 57.807621 
L 105.079065 54.608097 
L 105.119652 51.605188 
L 105.699689 49.804702 
L 106.211063 49.706908 
L 106.664756 48.488433 
L 107.17913 46.450878 
L 107.273503 45.455666 
L 107.407131 42.727004 
L 107.433343 43.257068 
L 107.885328 41.732498 
L 108.07324 40.145578 
L 108.31634 39.902731 
L 108.48872 38.785774 
L 108.513543 38.863598 
L 108.520493 37.300694 
L 109.044591 37.450499 
L 109.184904 37.681082 
L 109.207012 38.526745 
L 109.743662 38.62287 
L 109.78705 37.776179 
L 110.136601 37.390012 
L 110.695322 37.538468 
L 110.747371 37.5786 
L 110.752116 37.563125 
L 111.210105 36.873303 
L 111.360863 37.023044 
L 112.1606 36.855773 
L 112.4037 36.415989 
L 112.57608 33.906416 
L 112.607853 34.410797 
L 113.272264 33.157969 
L 113.31017 33.906545 
L 113.538171 34.461588 
L 113.564384 35.838087 
L 113.87441 36.553723 
L 114.016368 35.862808 
L 114.223961 36.912472 
L 114.385784 35.664973 
L 114.782683 36.406165 
L 114.839477 35.815164 
L 114.980952 37.374537 
L 115.297465 37.415568 
L 115.448223 38.386893 
L 116.663441 39.774501 
L 116.695214 40.796553 
L 117.359624 40.763484 
L 117.397531 41.683954 
L 117.625532 40.962154 
L 117.651744 42.051436 
L 117.918383 42.942561 
L 118.103728 43.158054 
L 118.731943 42.427265 
L 118.922091 41.695641 
L 118.926837 41.845767 
L 119.068313 42.324206 
L 119.262992 42.312262 
L 119.384826 42.125921 
L 119.425413 43.082799 
L 120.00545 42.15655 
L 120.355001 43.283395 
L 121.579264 43.905924 
L 121.739104 44.783822 
L 122.005743 44.824468 
L 122.191089 44.573723 
L 122.504481 45.509732 
L 122.622101 45.437751 
L 122.819304 44.471755 
L 122.826254 45.634944 
L 123.009452 46.145745 
L 123.155673 47.234963 
L 123.472186 46.280718 
L 123.512773 47.957469 
L 123.756572 48.109778 
L 124.092811 48.572357 
L 124.442362 50.030854 
L 125.057877 49.756543 
L 125.394032 49.177678 
L 125.666624 49.239706 
L 126.278449 49.155781 
L 126.466361 48.310696 
L 126.709461 50.31775 
L 126.881841 49.721676 
L 126.913614 52.118109 
L 127.243033 52.778972 
L 127.559546 53.95937 
L 127.615931 56.271749 
L 127.843932 56.218903 
L 127.870145 57.588725 
L 128.136784 58.901526 
L 128.180171 59.826234 
L 128.529722 60.645892 
L 128.691545 61.872586 
L 129.088444 61.421373 
L 129.145237 60.098041 
L 129.481392 59.941108 
L 129.753984 61.239333 
L 130.553721 60.429564 
L 130.796821 60.629582 
L 130.969202 60.92855 
L 130.994024 60.009557 
L 131.000975 60.980305 
L 131.665385 62.116268 
L 131.703291 61.820382 
L 131.931293 61.927294 
L 131.957505 63.183846 
L 132.409489 63.6741 
L 132.778905 63.984048 
L 133.232598 63.11758 
L 133.374074 63.659331 
L 133.690586 62.859515 
L 133.841345 63.719819 
L 134.641082 63.551071 
L 134.660762 64.456387 
L 134.884181 64.633033 
L 135.056562 65.062543 
L 135.612433 64.691337 
L 135.790652 65.606541 
L 136.018653 64.516296 
L 136.044865 65.522617 
L 136.311504 66.355888 
L 136.496849 66.043821 
L 136.810242 65.967794 
L 136.866265 64.83517 
L 137.125065 63.661194 
L 137.132015 64.580251 
L 137.461434 61.761565 
L 137.777947 61.082337 
L 137.818534 62.759345 
L 138.398572 62.870431 
L 138.728442 62.42063 
L 138.748123 62.582122 
L 139.699793 61.969417 
L 139.878012 62.107086 
L 139.972385 62.435655 
L 140.106013 62.006274 
L 140.132225 61.50504 
L 140.58421 63.368005 
L 140.897602 61.919075 
L 141.015222 61.926138 
L 141.187602 62.494537 
L 141.212425 62.399569 
L 141.219375 63.512031 
L 141.350524 62.723258 
L 141.402573 62.953777 
L 141.548794 63.186158 
L 141.865307 62.089685 
L 141.883786 63.516782 
L 142.485932 62.688006 
L 142.835483 62.563179 
L 142.997306 61.992725 
L 143.949575 60.111718 
L 144.059745 60.416272 
L 144.67157 60.253304 
L 145.299785 56.533411 
L 145.306736 57.712267 
L 145.952667 57.020711 
L 146.009052 57.557646 
L 146.237054 58.332999 
L 146.263266 59.338099 
L 146.922843 61.890116 
L 147.084666 60.874806 
L 147.481565 60.642232 
L 147.538359 59.342209 
L 147.679834 59.310231 
L 147.874513 57.973543 
L 148.036935 59.0164 
L 148.147106 58.102737 
L 148.946843 57.88628 
L 149.189942 57.202172 
L 149.362323 57.123963 
L 149.387145 56.331145 
L 150.058506 56.713459 
L 150.096413 57.68639 
L 150.324414 56.919706 
L 150.350626 57.194017 
L 150.617265 58.304874 
L 150.660652 57.15305 
L 150.80261 58.272897 
L 151.172026 57.375222 
L 151.437776 58.363371 
L 151.568925 57.65178 
L 151.620974 57.845955 
L 151.625719 56.641093 
L 151.767195 56.656376 
L 152.083708 55.761975 
L 152.234466 57.108231 
L 153.034203 58.149482 
L 153.053883 57.694224 
L 153.449683 57.774617 
L 154.005554 57.814171 
L 154.411774 58.232187 
L 154.437986 58.162453 
L 154.704625 57.900535 
L 154.748013 58.019133 
L 154.889971 59.070787 
L 155.203363 58.110699 
L 155.259386 58.298838 
L 155.518186 57.440846 
L 155.525136 57.989596 
L 155.708334 58.1342 
L 155.713079 56.951748 
L 155.854555 56.854082 
L 156.171068 56.893893 
L 156.189547 58.10614 
L 157.121563 57.806658 
L 157.141244 58.278868 
L 157.364663 58.050918 
L 157.537043 58.251835 
L 158.092914 58.035186 
L 158.255336 58.108708 
L 158.271133 58.601787 
L 158.365506 57.741034 
L 159.290723 58.417758 
L 159.605546 58.229426 
L 159.743646 58.467521 
L 159.795694 59.205182 
L 160.276907 60.043011 
L 160.542814 59.817822 
L 160.569027 59.886721 
L 160.835666 60.321753 
L 161.021011 62.049296 
L 161.228604 62.761079 
L 161.390427 63.924268 
L 161.656177 63.106857 
L 161.84412 63.48031 
L 162.180274 62.565812 
L 162.342696 62.69828 
L 162.452867 61.310351 
L 163.252604 59.935265 
L 163.378083 59.946181 
L 163.495703 59.032389 
L 163.668084 58.881171 
L 163.692906 58.032875 
L 164.345788 58.807713 
L 164.364267 59.805494 
L 164.402174 59.263485 
L 164.630175 59.358261 
L 164.656387 58.340704 
L 164.923026 59.007667 
L 165.108371 60.865752 
L 165.477787 60.946851 
L 165.743537 61.517048 
L 165.874686 61.381947 
L 165.93148 60.034407 
L 166.072956 59.850506 
L 166.430056 59.863091 
L 166.540227 58.889904 
L 167.339964 58.873915 
L 167.359644 58.707287 
L 167.583064 59.233499 
L 167.780266 58.145758 
L 168.311315 58.735796 
L 168.489534 59.728312 
L 168.717535 58.723725 
L 168.743747 59.031939 
L 169.010386 58.786138 
L 169.053774 58.870833 
L 169.195732 59.015886 
L 169.509124 58.49327 
L 169.830897 59.612474 
L 169.962046 59.604448 
L 170.160316 57.861494 
L 170.476829 57.240763 
L 170.495308 58.151024 
L 170.517416 57.825665 
L 171.427324 57.771727 
L 171.447005 58.759041 
L 172.398675 57.640415 
L 172.576894 58.591578 
L 172.671267 58.494169 
L 172.804895 58.309433 
L 172.831108 57.266961 
L 173.141134 57.308956 
L 173.596484 56.540602 
L 173.652508 55.71478 
L 174.101455 55.371185 
L 174.1062 54.282417 
L 174.247676 54.165488 
L 174.582668 53.446449 
L 175.141427 53.690966 
L 175.326772 54.610023 
L 175.534365 53.310706 
L 175.757784 51.952187 
L 175.930164 53.005574 
L 175.961938 52.80196 
L 176.486035 52.339831 
L 176.648457 51.937675 
L 176.758627 50.569138 
L 177.683844 49.607701 
L 178.193561 47.776907 
L 178.707935 46.633431 
L 179.228787 48.075233 
L 179.272174 47.540737 
L 179.414132 48.622057 
L 179.602045 48.726079 
L 179.621725 48.079599 
L 179.783548 47.107118 
L 180.378717 48.094368 
L 180.735817 46.766027 
L 180.845988 45.653051 
L 181.771205 45.516602 
L 181.888825 45.133581 
L 182.061205 45.149698 
L 182.276176 43.99505 
L 182.795295 43.793875 
L 183.049508 44.691358 
L 183.316147 43.9458 
L 183.359534 43.398205 
L 183.501493 44.429825 
L 183.870908 44.243933 
L 184.267807 44.576869 
L 184.324601 44.524216 
L 184.466077 45.135122 
L 184.660756 44.230898 
L 184.801069 44.114098 
L 184.933348 42.97152 
L 185.733085 43.564898 
L 185.752766 42.949239 
L 185.858565 42.971135 
L 186.82627 42.585931 
L 186.882655 41.869653 
L 187.446895 39.615192 
L 187.958268 39.59214 
L 188.355167 38.831171 
L 188.407216 38.800992 
L 188.411961 37.761153 
L 188.553437 36.621337 
L 188.888429 37.015467 
L 189.447188 37.002945 
L 189.632533 37.254654 
L 190.063545 38.485136 
L 190.235925 38.437941 
L 190.260748 39.369455 
L 190.954218 39.062653 
L 191.064388 37.362465 
L 191.198016 36.217705 
L 191.224229 36.781545 
L 191.534255 37.065166 
L 191.989605 37.861002 
L 192.045629 37.324901 
L 192.442528 36.460167 
L 192.494576 37.456535 
L 192.499322 37.167198 
L 192.640797 37.905757 
L 192.95731 38.327754 
L 192.975789 38.25526 
L 193.534548 38.063139 
L 193.719893 38.235996 
L 193.907806 38.57561 
L 193.927486 38.185976 
L 194.150905 38.020567 
L 194.323286 37.624255 
L 194.355059 37.781765 
L 194.879156 37.607817 
L 195.041578 37.798203 
L 195.151749 36.873816 
L 196.076966 37.083916 
L 196.132989 38.112389 
L 196.391788 38.277413 
L 196.581936 36.755282 
L 196.586682 37.562355 
L 197.06315 38.7755 
L 197.101056 38.745128 
L 197.329057 38.808505 
L 197.355269 38.572978 
L 197.621908 38.731066 
L 197.665295 39.006212 
L 197.807253 39.02387 
L 197.995166 38.931534 
L 198.014846 38.061919 
L 198.410646 37.214072 
L 198.442419 37.323874 
L 198.966517 39.102593 
L 199.128938 37.947751 
L 199.239109 37.964639 
L 200.164326 37.166299 
L 200.281946 36.378939 
L 200.479149 36.489704 
L 200.669297 35.657204 
L 201.132031 35.96041 
L 201.15051 35.930166 
L 201.188416 35.690272 
L 201.416417 35.68475 
L 201.442629 35.073715 
L 201.709268 34.952163 
L 201.752656 35.566987 
L 201.894614 35.598065 
L 202.102207 36.250324 
L 202.529779 36.48553 
L 202.660928 36.148228 
L 202.717722 36.243068 
L 202.859198 37.502895 
L 203.053877 37.74311 
L 203.326469 38.99491 
L 204.126206 39.116077 
L 204.251686 38.808954 
L 204.541686 39.130461 
L 204.566509 38.94489 
L 205.219391 38.90906 
L 205.275776 38.508638 
L 205.503777 37.853168 
L 205.52999 39.407147 
L 205.840016 38.870212 
L 205.981974 37.979215 
L 206.748289 37.796726 
L 206.800337 38.152971 
L 206.805083 39.136561 
L 206.946558 39.750871 
L 207.28155 39.496465 
L 207.303659 39.96264 
L 208.213566 39.412156 
L 208.233247 40.823586 
L 208.456666 39.748688 
L 208.629047 40.376868 
L 208.653869 39.670478 
L 209.184917 39.137588 
L 209.363137 39.27911 
L 209.45751 39.614358 
L 209.591138 39.457939 
L 209.61735 38.934038 
L 210.382726 38.781857 
L 210.43875 37.922709 
L 210.835649 38.088053 
L 210.887697 37.333056 
L 210.892443 38.332378 
L 211.350432 38.153485 
L 211.36891 39.511812 
L 211.927669 39.092126 
L 211.971056 38.855058 
L 212.300927 38.955292 
L 212.320607 40.68322 
L 212.544027 39.760631 
L 212.741229 40.205295 
L 213.077599 41.597205 
L 213.272278 41.686009 
L 213.450497 41.267287 
L 213.54487 41.489651 
L 213.70471 42.360292 
L 214.470087 42.204387 
L 214.52611 42.041483 
L 214.923009 41.609918 
L 214.979803 41.112088 
L 215.437792 41.160696 
L 215.456271 40.751412 
L 216.015029 42.052977 
L 216.058417 41.878001 
L 216.200375 41.88577 
L 216.407968 43.289559 
L 216.83554 44.367797 
L 217.164959 45.613369 
L 217.359638 45.573044 
L 217.522059 45.946048 
L 217.63223 45.80947 
L 217.79207 45.807865 
L 218.431967 46.451456 
L 218.675067 45.604122 
L 218.87227 45.763688 
L 219.062418 45.691321 
L 219.543631 44.373833 
L 219.581537 44.787097 
L 219.809538 43.999095 
L 220.10239 43.764916 
L 220.145777 43.894559 
L 220.287735 43.782703 
L 220.657151 43.865728 
L 221.110843 46.176181 
L 221.252319 47.562954 
L 221.446998 46.104778 
L 221.71959 47.557239 
L 222.762427 48.756451 
L 222.934808 48.539609 
L 222.95963 47.866096 
L 223.612512 46.73726 
L 223.630991 47.666848 
L 223.668897 46.706503 
L 223.896899 46.863243 
L 223.923111 46.227037 
L 224.18975 46.249254 
L 224.233137 46.056812 
L 224.744511 46.034852 
L 225.010261 46.029715 
L 225.14141 45.838494 
L 225.198204 46.191399 
L 225.534358 46.405352 
L 225.69678 47.517493 
L 225.806951 47.250951 
L 226.626368 47.482176 
L 226.849787 47.196115 
L 227.04699 48.207765 
L 227.38336 47.676031 
L 227.699873 48.057896 
L 227.756258 47.947516 
L 227.984259 47.838742 
L 228.010471 48.843522 
L 228.462455 47.710833 
L 228.831871 48.809297 
L 229.065848 48.90144 
L 229.097621 47.500605 
L 229.22877 47.660748 
L 229.285564 49.470995 
L 229.762032 50.426268 
L 230.32079 50.119209 
L 230.364178 50.853016 
L 230.694048 50.965964 
L 230.713729 51.588943 
L 230.937148 51.071142 
L 231.134351 51.176 
L 231.665399 53.217793 
L 231.82782 54.555187 
L 231.843618 53.812326 
L 231.937991 54.037322 
L 232.097831 55.134566 
L 232.863208 53.549316 
L 232.919231 52.702175 
L 233.153208 51.434322 
L 233.31613 51.384622 
L 233.368179 50.878316 
L 233.372924 51.523961 
L 233.830913 50.863419 
L 233.849392 51.443761 
L 234.115299 51.75448 
L 234.451538 52.782375 
L 234.593496 52.678931 
L 234.781408 52.750205 
L 234.801089 53.828186 
L 235.228661 54.344253 
L 235.752759 54.402878 
L 235.915181 55.640231 
L 236.025351 55.590981 
L 237.068188 55.597594 
L 237.455539 52.298414 
L 237.936752 52.11188 
L 237.974658 53.04699 
L 238.20266 52.134354 
L 238.228872 53.534355 
L 238.495511 54.357159 
L 238.538898 54.259365 
L 238.680856 54.499965 
L 239.050272 54.374881 
L 239.316022 55.377799 
L 239.503965 54.438322 
L 239.64544 55.390705 
L 239.840119 55.305047 
L 240.002541 55.607162 
L 240.112712 56.810419 
L 240.912449 56.376157 
L 240.932129 57.560022 
L 241.037928 57.502553 
L 241.155548 57.382092 
L 241.327929 58.139594 
L 241.352751 57.905222 
L 242.005634 58.068576 
L 242.062019 58.513689 
L 242.29002 57.590972 
L 242.316232 59.070851 
L 242.768216 60.45634 
L 243.137632 59.465559 
L 243.403382 59.510057 
L 243.534531 58.350657 
L 243.591325 58.672934 
L 244.067793 57.303241 
L 244.999809 56.273547 
L 245.019489 56.527375 
L 245.440112 56.39343 
L 245.776481 57.186376 
L 246.092994 56.322862 
L 246.133581 56.554536 
L 246.149379 56.197264 
L 246.37738 55.161535 
L 246.713619 55.178679 
L 246.855577 55.6794 
L 247.168969 55.420243 
L 247.224992 55.046404 
L 247.621891 54.571818 
L 247.678685 52.674115 
L 248.155153 53.882637 
L 248.447272 53.979018 
L 248.713911 54.862438 
L 249.087169 54.980202 
L 249.10685 56.018115 
L 249.330269 56.258329 
L 249.527472 56.135429 
L 249.534422 56.727393 
L 250.220942 56.71256 
L 250.331112 56.539126 
L 250.46474 56.773561 
L 251.256329 56.399466 
L 251.312353 56.585037 
L 251.709252 56.902177 
L 251.766045 55.410033 
L 251.907521 55.874795 
L 252.224034 54.920935 
L 252.280419 57.315184 
L 253.174529 61.413796 
L 253.621783 61.482951 
L 254.14588 60.484593 
L 254.308302 61.694207 
L 254.418473 60.424555 
L 255.343689 60.576865 
L 255.399713 60.204054 
L 255.63369 59.997486 
L 255.658512 59.010172 
L 255.796612 59.004971 
L 255.994882 56.628058 
L 256.311394 55.43392 
L 256.36778 56.833406 
L 256.595781 55.731218 
L 256.932019 55.883528 
L 257.073977 57.039139 
L 257.709143 57.499663 
L 258.233241 57.581404 
L 258.373554 58.537255 
L 258.505833 58.008153 
L 258.665673 58.894527 
L 258.932312 58.570131 
L 259.30557 57.339135 
L 259.32525 58.436571 
L 259.43105 58.15295 
L 259.54867 58.473108 
L 259.72105 57.339135 
L 259.745872 58.435095 
L 259.936021 59.429408 
L 260.082242 62.117873 
L 260.439342 62.79113 
L 260.45514 64.050764 
L 260.683141 63.009898 
L 261.019379 63.811577 
L 261.161338 65.092144 
L 261.530753 65.106977 
L 261.796503 66.291548 
L 261.984446 64.731533 
L 262.460914 66.5055 
L 262.753033 67.809697 
L 263.019672 67.85182 
L 263.39293 67.697777 
L 263.412611 68.814156 
L 263.51841 67.992892 
L 263.63603 68.488091 
L 263.833233 68.617155 
L 264.169602 71.266709 
L 264.486115 70.701777 
L 264.5425 70.953165 
L 264.636873 70.827824 
L 264.770501 69.870561 
L 265.10674 69.798195 
L 265.618113 70.683156 
L 265.85209 69.414275 
L 266.015013 69.316802 
L 266.067061 68.326085 
L 266.071806 70.101915 
L 266.407961 69.16841 
L 266.548274 70.321903 
L 267.292378 72.228852 
L 267.48029 72.219798 
L 267.499971 73.404883 
L 267.72339 73.072012 
L 267.920593 73.119464 
L 267.927544 73.018588 
L 268.256962 74.503733 
L 268.724233 73.259766 
L 268.857862 71.911776 
L 269.64945 72.102998 
L 269.705474 71.224715 
L 269.939451 70.418734 
L 270.102373 70.315418 
L 270.154421 69.25715 
L 270.159167 69.913519 
L 270.617155 68.93757 
L 270.657743 69.864012 
L 270.673541 69.792416 
L 271.23778 70.843685 
L 271.379738 71.989408 
L 271.567651 71.920317 
L 271.81075 71.664113 
L 272.014904 72.769897 
L 272.344323 75.531307 
L 272.539002 75.557505 
L 272.679314 76.548351 
L 272.811594 75.677516 
L 272.945222 75.70044 
L 272.971434 76.540324 
L 273.631011 76.481699 
L 273.792834 75.246337 
L 274.051633 74.223643 
L 274.189733 74.269233 
L 274.241782 73.89167 
L 274.246527 72.94879 
L 274.704516 72.964971 
L 274.745103 72.715061 
L 274.760901 72.978969 
L 275.32514 72.635824 
L 275.467099 73.817506 
L 275.898111 71.909465 
L 276.070491 69.597791 
L 276.431683 71.666296 
L 276.626362 71.583849 
L 276.766675 71.317436 
L 276.898954 72.209589 
L 277.058794 72.030696 
L 277.325433 72.066012 
L 277.718372 72.242529 
L 277.824171 71.445473 
L 278.138994 71.159733 
L 278.145944 72.042382 
L 278.329142 70.06082 
L 278.791876 68.74057 
L 278.832463 67.561585 
L 278.848261 68.899236 
L 279.076262 67.942872 
L 279.412501 68.044647 
L 279.923874 67.046224 
L 280.157851 68.186233 
L 280.377567 65.513692 
L 280.713722 64.589754 
L 280.854035 63.281383 
L 281.146155 62.262092 
L 281.412793 63.001807 
L 281.598139 64.055323 
L 281.786051 64.054424 
L 281.911531 63.231941 
L 282.029151 63.55929 
L 282.226354 63.601541 
L 282.233305 64.647801 
L 282.919824 62.358987 
L 283.029994 61.307783 
L 284.011235 60.256257 
L 284.245212 58.890674 
L 284.408134 59.687409 
L 284.460182 59.636489 
L 284.464928 58.775672 
L 284.941395 58.776057 
L 284.979301 59.803182 
L 285.233515 59.827903 
L 285.500154 60.003393 
L 285.873412 61.399156 
L 285.998891 61.591276 
L 286.116511 61.537788 
L 286.313714 60.953914 
L 286.320665 61.735687 
L 286.844762 60.742915 
L 287.117355 58.8133 
L 287.250983 58.89716 
L 287.936772 58.423922 
L 288.098595 58.479529 
L 288.332572 58.732008 
L 288.495494 57.778983 
L 288.547542 55.111578 
L 288.552288 55.370864 
L 289.028756 57.036828 
L 289.066662 59.811915 
L 289.587514 58.98057 
L 289.630901 58.063311 
L 289.960772 59.794064 
L 290.203872 60.223189 
L 290.408025 60.838783 
L 291.204715 60.021822 
L 291.338343 59.990679 
L 291.364555 61.768885 
L 292.024133 60.59356 
L 292.129932 61.789496 
L 292.185955 61.238948 
L 292.419932 61.58935 
L 292.444755 62.394368 
L 292.582854 62.153896 
L 292.639648 59.047157 
L 293.097637 58.903773 
L 293.138224 62.753116 
L 293.154022 62.228381 
L 293.718262 61.996321 
L 293.86022 62.555923 
L 294.048132 62.713177 
L 294.291232 62.499803 
L 295.019483 63.539449 
L 295.292075 63.523332 
L 295.718554 68.871946 
L 296.217292 69.611661 
L 296.532115 70.447051 
L 296.539065 70.340267 
L 296.670215 69.412927 
L 296.727008 70.186353 
L 297.184997 70.826283 
L 297.225585 73.426972 
L 297.805622 71.949533 
L 298.316996 72.901017 
L 298.550972 72.773493 
L 299.106843 72.817478 
L 299.247156 75.48957 
L 299.285062 74.233274 
L 299.805915 79.730859 
L 299.99126 79.67095 
L 300.179172 79.072114 
L 300.198853 80.876903 
L 300.304652 80.154718 
L 300.422272 80.457154 
L 300.619475 80.571321 
L 300.626426 82.323393 
L 300.757575 82.252632 
L 301.312945 82.159525 
L 301.423116 81.161552 
L 301.556744 82.474161 
L 301.892982 82.339959 
L 302.404356 81.435029 
L 302.638333 80.782384 
L 302.853303 80.678747 
L 302.858049 81.62214 
L 303.194204 81.549453 
L 303.626636 85.971883 
L 303.893275 88.508424 
L 304.07862 88.266219 
L 304.266533 87.512378 
L 304.286213 90.224024 
L 304.392013 90.037682 
L 304.706835 89.897252 
L 304.713786 92.295097 
L 305.359718 89.82495 
L 305.400305 89.849479 
L 305.510476 89.8925 
L 306.725693 89.771719 
L 306.940664 88.076025 
L 306.945409 88.110828 
L 307.421877 89.999284 
L 307.459783 92.093152 
L 307.687784 93.403706 
L 307.713996 96.036886 
L 307.980635 96.045169 
L 308.024023 96.255205 
L 308.165981 97.787994 
L 308.596993 96.721957 
L 308.794196 96.093713 
L 308.801146 98.677707 
L 309.447078 97.952119 
L 309.597836 98.632952 
L 310.417254 98.632631 
L 310.523053 96.362117 
L 310.579076 96.434033 
L 310.813053 96.450086 
L 311.032769 95.266928 
L 311.547143 96.849802 
L 311.775144 97.128415 
L 312.067995 97.13657 
L 312.111383 95.220824 
L 312.253341 95.987122 
L 312.441253 95.833336 
L 312.684353 95.210935 
L 312.888506 97.916546 
L 313.412604 97.88643 
L 314.504614 99.961806 
L 314.666437 100.639942 
L 314.925236 98.577088 
L 315.063336 99.050647 
L 315.115384 98.283642 
L 315.12013 98.445968 
L 315.634503 98.525783 
L 315.728877 99.652115 
L 315.862505 97.983133 
L 316.155356 97.983711 
L 316.198743 98.376877 
L 316.340701 101.025788 
L 316.528613 99.182858 
L 316.771713 99.435658 
L 317.499964 99.346533 
L 318.591974 101.927701 
L 318.697774 99.715876 
L 319.012596 99.69886 
L 319.019547 102.298971 
L 319.202744 99.930407 
L 319.20749 100.144937 
L 319.665479 98.839134 
L 319.721864 101.350505 
L 319.816237 101.053207 
L 319.949865 101.892963 
L 320.286103 102.155074 
L 320.428061 103.932252 
L 320.797477 104.506622 
L 321.031454 101.974961 
L 321.194376 102.411405 
L 321.587325 99.793829 
L 322.659654 98.140836 
L 322.902754 100.038089 
L 323.099957 97.434575 
L 323.290105 97.862929 
L 323.752839 98.00612 
L 323.809224 100.721234 
L 323.903597 98.547358 
L 324.373464 99.037612 
L 324.884837 98.93269 
L 325.281736 99.344028 
L 325.33853 101.245712 
L 325.674685 101.89643 
L 326.080905 101.940736 
L 327.187317 98.254233 
L 327.896584 96.441418 
L 328.916174 96.844794 
L 328.972198 95.444922 
L 329.369097 95.921948 
L 329.421145 96.654856 
L 329.425891 93.830006 
L 330.034637 94.362703 
L 330.168266 95.112949 
L 330.504504 94.306968 
L 330.834374 91.855827 
L 331.077474 91.751291 
L 331.274677 91.521286 
L 331.805725 91.095757 
L 333.003534 91.445709 
L 333.293535 92.05835 
L 333.456457 89.628784 
L 333.513251 89.670136 
L 334.121998 87.105278 
L 334.255626 84.958692 
L 334.591864 85.025921 
L 334.921735 84.909377 
L 335.552185 82.362112 
L 335.893086 82.34561 
L 337.208515 81.06119 
L 337.380895 80.57633 
L 337.405718 79.823837 
L 337.600611 80.355058 
L 338.0586 79.638395 
L 338.342986 80.250586 
L 338.679225 81.844119 
L 339.190598 79.577073 
L 339.587497 78.872353 
L 339.639546 78.194923 
L 339.980446 76.170788 
L 341.052775 76.010067 
L 341.178255 74.372035 
L 341.295875 74.446263 
L 341.493078 74.294789 
L 341.687971 74.384235 
L 342.14596 73.113428 
L 342.430346 73.93193 
L 342.766585 72.49565 
L 343.674858 73.924546 
L 343.726906 72.510612 
L 345.140135 72.780299 
L 345.265615 72.493981 
L 345.383235 73.580052 
L 345.580438 71.250849 
L 346.111486 72.311813 
L 346.23332 73.400132 
L 346.384078 73.610039 
L 346.853945 75.333857 
L 347.365319 75.617543 
L 347.599296 75.53394 
L 347.762218 76.026634 
L 347.814266 77.015489 
L 347.819012 76.595482 
L 348.561387 77.438449 
L 349.227496 75.352543 
L 349.470595 76.085194 
L 349.667798 76.101247 
L 350.198847 74.747736 
L 350.320681 75.236898 
L 351.396656 76.401564 
L 351.452679 77.096909 
L 351.686656 75.592757 
L 351.849578 75.274333 
L 351.906372 75.962037 
L 352.515119 75.484754 
L 352.648747 74.912181 
L 352.984985 74.491532 
L 353.314856 72.750056 
L 353.557956 72.883359 
L 353.755159 72.621248 
L 354.286207 74.146396 
L 354.408041 75.14591 
L 355.484016 75.953111 
L 355.540039 77.378411 
L 355.774016 76.977604 
L 355.936938 76.443751 
L 355.993732 77.141086 
L 356.736107 78.261061 
L 357.072346 78.414462 
L 357.402216 78.234156 
L 358.032667 79.642761 
L 358.373567 80.054484 
L 359.571376 81.195584 
L 359.6274 82.680536 
L 359.861376 83.336327 
L 359.886199 84.110074 
L 360.689839 86.988991 
L 360.823467 88.349501 
L 361.159706 88.695151 
L 361.732676 88.19 
L 362.067979 89.000861 
L 362.120027 90.086997 
L 363.533257 90.49583 
L 363.71476 92.142338 
L 363.973559 91.654974 
L 364.168453 92.161666 
L 364.504608 90.716396 
L 364.7772 92.110489 
L 365.247066 93.228153 
L 365.992417 93.835656 
L 366.207387 94.53845 
L 366.954508 94.490355 
L 367.620617 95.854975 
L 367.746097 97.362466 
L 367.863717 97.388407 
L 368.06092 96.633795 
L 368.255813 97.432584 
L 368.591968 96.985352 
L 369.334427 100.033594 
L 369.8458 100.459765 
L 370.079777 100.902631 
L 370.242699 101.921858 
L 370.294748 101.887184 
L 371.041868 102.801104 
L 371.707977 101.809873 
L 371.951077 104.112493 
L 372.14828 103.241016 
L 372.679328 103.908558 
L 372.801162 104.866013 
L 373.933161 105.794895 
L 374.167137 106.979402 
L 374.33006 106.395657 
L 374.382108 107.98964 
L 374.386853 107.947389 
L 375.129228 108.357699 
L 375.465467 109.149746 
L 375.795337 109.557681 
L 376.23564 112.338419 
L 376.766688 113.928806 
L 376.888522 114.65677 
L 378.020521 116.315799 
L 378.41742 117.671301 
L 378.474214 119.918442 
L 379.082961 120.001917 
L 379.216589 120.48453 
L 379.552827 120.533908 
L 380.125797 121.430299 
L 380.323 120.7634 
L 381.926378 122.415044 
L 382.107881 124.336698 
L 382.341858 124.244812 
L 382.556829 126.043693 
L 382.561574 127.263837 
L 383.019563 129.195187 
L 383.170321 129.098164 
L 383.640187 129.718895 
L 384.213158 130.784611 
L 384.54846 130.276827 
L 384.941409 130.723225 
L 385.347629 130.828917 
L 386.013738 130.659399 
L 386.195241 132.458665 
L 386.429218 132.114814 
L 386.454041 131.690633 
L 386.648934 133.183419 
L 387.106923 133.940985 
L 387.257681 134.470215 
L 388.635821 135.82302 
L 388.687869 136.321493 
L 389.028769 137.076683 
L 389.434989 138.682095 
L 390.101098 138.876014 
L 390.344198 141.889068 
L 390.541401 142.015243 
L 391.194283 143.707855 
L 391.345041 144.673209 
L 392.560259 145.76981 
L 392.775229 146.565903 
L 393.116129 146.733559 
L 394.431558 151.363905 
L 394.628761 150.750044 
L 395.432402 152.259332 
L 396.647619 152.982031 
L 396.810541 153.666011 
L 396.867335 154.783481 
L 397.60971 154.746238 
L 397.945948 155.531158 
L 398.275819 155.253508 
L 398.401299 154.261699 
L 398.457322 155.400809 
L 398.518919 155.364915 
L 398.716122 155.030887 
L 399.24717 156.539277 
L 399.369004 156.093586 
L 399.519762 157.10973 
L 400.734979 157.775795 
L 400.897901 157.649427 
L 400.94995 157.836732 
L 400.954695 157.339671 
L 401.69707 157.294788 
L 402.033309 157.64429 
L 402.606279 155.385398 
L 403.33453 153.827181 
L 403.456364 151.47544 
L 403.607122 151.812485 
L 404.406859 153.19303 
L 404.588363 151.199973 
L 404.985262 153.426374 
L 405.042055 153.408395 
L 405.78443 154.301446 
L 406.120669 152.233327 
L 406.693639 151.054534 
L 407.42189 147.248277 
L 407.543724 146.073851 
L 408.494219 145.665146 
L 408.619699 144.699728 
L 408.675723 142.278638 
L 408.934522 142.769727 
L 409.072622 142.68882 
L 409.129416 142.857054 
L 409.738163 142.500296 
L 409.871791 143.170727 
L 410.208029 142.459843 
L 411.509251 139.918164 
L 412.70706 141.432846 
L 412.82468 138.602987 
L 413.021882 139.133822 
L 413.216776 137.758607 
L 413.674765 137.042972 
L 413.825523 137.252558 
L 414.295389 136.733345 
L 415.203662 137.427791 
L 415.255711 136.913072 
L 416.002831 137.008233 
L 416.66894 136.190373 
L 416.79442 135.733317 
L 416.91204 134.198665 
L 417.109243 133.987153 
L 417.304136 132.795968 
L 417.640291 132.550616 
L 417.912883 130.001296 
L 419.291022 128.996453 
L 419.343071 127.986922 
L 420.090191 128.214101 
L 420.42643 127.573465 
L 421.196603 127.949358 
L 421.727651 127.290357 
L 421.849485 126.310363 
L 422.000243 124.15986 
L 422.92546 123.717187 
L 423.215461 120.67954 
L 423.378383 120.393478 
L 423.435177 119.968334 
L 424.177552 118.684621 
L 424.843661 116.642057 
L 425.08676 116.874245 
L 425.283963 116.8702 
L 426.087604 114.318954 
L 427.012821 113.312377 
L 427.522537 109.053108 
L 427.980526 110.345169 
L 428.264912 109.965744 
L 428.931021 110.047036 
L 429.371324 110.231451 
L 429.561472 109.120659 
L 429.902372 110.124282 
L 430.174964 109.735161 
L 431.100181 107.551397 
L 431.390181 105.036238 
L 431.553103 105.635394 
L 431.609897 106.578145 
L 432.067886 107.684957 
L 432.352272 107.796042 
L 433.458684 107.633588 
L 433.648832 106.976127 
L 434.732191 107.171972 
L 435.062061 108.045375 
L 435.640464 107.029744 
L 436.033412 106.115952 
L 436.155246 106.300752 
L 436.306004 105.51275 
L 437.231221 104.844053 
L 437.287245 105.63854 
L 437.521222 106.350773 
L 437.740938 105.931152 
L 438.483313 104.79262 
L 438.819551 104.679544 
L 439.149421 106.022781 
L 439.392521 106.292854 
L 439.589724 104.170283 
L 439.779872 103.433008 
L 440.242606 104.972604 
L 440.393365 104.357074 
L 441.318582 104.33749 
L 441.374605 103.733646 
L 441.608582 103.521427 
L 441.828298 102.584905 
L 443.236782 102.610525 
L 443.677084 102.375126 
L 443.867233 101.605681 
L 444.208133 102.024147 
L 444.480725 101.36842 
L 444.950591 101.285588 
L 445.461965 102.675186 
L 445.523562 101.797031 
L 445.695942 101.78528 
L 445.858864 100.846061 
L 445.915658 100.874314 
L 446.373647 99.801342 
L 446.658033 99.87968 
L 447.954593 98.98406 
L 449.037952 98.932626 
L 449.367822 100.284918 
L 449.783302 100.057545 
L 449.946224 101.306649 
L 450.339173 101.108107 
L 450.461007 100.676864 
L 450.611765 102.034099 
L 451.536982 101.974254 
L 451.593006 102.193986 
L 452.041953 102.062545 
L 452.046698 101.216881 
L 452.789073 101.279295 
L 453.125312 100.860701 
L 453.698282 101.37497 
L 453.895485 101.402773 
L 454.426533 101.96443 
L 454.548367 103.077663 
L 455.624342 102.932802 
L 455.680366 104.159432 
L 455.914343 105.59584 
L 456.077265 104.791079 
L 456.134059 104.804627 
L 457.982845 105.092744 
L 458.513894 104.61713 
L 458.786486 104.784593 
L 459.256352 104.357395 
L 459.711703 104.832945 
L 459.829323 104.660922 
L 460.164625 107.193354 
L 460.679408 106.970862 
L 460.963794 107.022873 
L 462.260354 107.524621 
L 462.265099 106.49878 
L 463.673583 106.505073 
L 463.916683 105.546525 
L 464.089063 105.499394 
L 464.644934 105.789244 
L 464.766768 105.626982 
L 464.917526 105.213911 
L 465.051154 105.201133 
L 466.347714 105.831752 
L 466.352459 105.560203 
L 467.431073 105.026799 
L 467.760943 105.004196 
L 468.004043 104.080837 
L 468.732294 103.991776 
L 468.854128 103.334893 
L 469.930103 102.143516 
L 469.986127 101.818863 
L 470.220104 101.73481 
L 470.383026 101.849556 
L 471.848304 101.94369 
L 472.091403 100.80869 
L 472.288606 100.804259 
L 472.819655 98.695301 
L 473.092247 98.763622 
L 473.562113 97.561842 
L 474.017464 98.755724 
L 474.073487 97.617898 
L 474.307464 97.203093 
L 474.470386 97.176766 
L 474.985169 96.457727 
L 476.375967 96.566823 
L 476.566115 97.554522 
L 476.57086 97.119554 
L 477.649474 99.799608 
L 478.104824 101.283597 
L 478.160847 102.814011 
L 478.222444 102.774071 
L 478.557746 102.674865 
L 479.072529 101.332269 
L 479.223287 101.599902 
L 479.356915 101.402838 
L 480.463327 101.075295 
L 480.653475 102.547662 
L 480.65822 101.462426 
L 480.994375 103.230871 
L 481.736834 104.824276 
L 482.066704 104.810406 
L 482.248208 107.812866 
L 482.309804 109.394584 
L 483.159889 110.715155 
L 483.310647 110.426461 
L 484.525865 110.055769 
L 484.688787 109.872766 
L 484.745581 112.587366 
L 485.487956 112.616069 
L 485.824194 114.416491 
L 486.154065 114.733888 
L 486.397164 119.90194 
L 486.594367 119.537797 
L 487.125415 121.368528 
L 487.247249 122.881347 
L 487.398008 121.676614 
L 488.613225 120.587846 
L 488.776147 121.048434 
L 488.832941 124.191837 
L 489.575316 124.572225 
L 489.911554 126.460425 
L 490.241425 126.226503 
L 490.484525 129.406892 
L 490.681728 129.36798 
L 491.212776 131.001645 
L 491.33461 132.647511 
L 491.485368 132.47947 
L 492.466608 134.564413 
L 492.700585 135.812875 
L 492.863507 135.011067 
L 492.915556 136.579815 
L 493.662676 136.168028 
L 493.998915 137.726373 
L 494.328785 136.762882 
L 494.571885 138.968414 
L 494.769088 138.753884 
L 494.963981 141.440166 
L 495.300136 143.286564 
L 495.572728 146.60642 
L 496.497945 147.888785 
L 496.553969 149.348759 
L 496.787945 152.125323 
L 496.950868 150.922773 
L 497.002916 153.112059 
L 497.750036 152.12025 
L 498.086275 154.888017 
L 498.659245 156.316078 
L 499.051342 159.069269 
L 499.387496 159.278919 
L 500.459825 159.323096 
L 500.875306 162.548176 
L 500.900128 162.217745 
L 501.55301 163.909072 
L 501.703769 165.4827 
L 503.081908 166.953783 
L 503.138702 167.443009 
L 503.881077 169.440047 
L 504.547186 170.093397 
L 504.962666 170.109258 
L 504.987488 168.485609 
L 505.640371 168.518999 
L 505.791129 170.113239 
L 507.169268 171.786587 
L 507.226062 173.215161 
L 507.968437 176.047718 
L 508.634546 177.682411 
L 509.050026 179.388828 
L 509.074849 181.195222 
L 509.878489 181.195735 
L 511.256628 183.916628 
L 512.721906 183.860636 
L 513.162209 185.605515 
L 515.343989 185.419302 
L 516.143158 185.629402 
L 516.809267 187.403498 
L 517.249569 189.22145 
L 519.431349 190.781144 
L 520.230518 190.821469 
L 520.896627 191.565037 
L 521.33693 193.057245 
L 525.42429 193.000225 
L 525.42429 193.000225 
" clip-path="url(#p5536105b17)" style="fill: none; stroke: #b85741; stroke-width: 2.5; stroke-linecap: square"/>
   </g>
   <g id="patch_3">
    <path d="M 46.051562 244.837969 
L 46.051562 23.077969 
" style="fill: none; stroke: #000000; stroke-width: 0.8; stroke-linejoin: miter; stroke-linecap: square"/>
   </g>
   <g id="patch_4">
    <path d="M 548.251563 244.837969 
L 548.251563 23.077969 
" style="fill: none; stroke: #000000; stroke-width: 0.8; stroke-linejoin: miter; stroke-linecap: square"/>
   </g>
   <g id="patch_5">
    <path d="M 46.051562 244.837969 
L 548.251563 244.837969 
" style="fill: none; stroke: #000000; stroke-width: 0.8; stroke-linejoin: miter; stroke-linecap: square"/>
   </g>
   <g id="patch_6">
    <path d="M 46.051562 23.077969 
L 548.251563 23.077969 
" style="fill: none; stroke: #000000; stroke-width: 0.8; stroke-linejoin: miter; stroke-linecap: square"/>
   </g>
   <g id="text_17">
    <!-- Create Many Type-1 VMs (CPU) -->
    <g transform="translate(196.598594 17.077969) scale(0.13 -0.13)">
     <defs>
      <path id="DejaVuSans-43" d="M 4122 4306 
L 4122 3641 
Q 3803 3938 3442 4084 
Q 3081 4231 2675 4231 
Q 1875 4231 1450 3742 
Q 1025 3253 1025 2328 
Q 1025 1406 1450 917 
Q 1875 428 2675 428 
Q 3081 428 3442 575 
Q 3803 722 4122 1019 
L 4122 359 
Q 3791 134 3420 21 
Q 3050 -91 2638 -91 
Q 1578 -91 968 557 
Q 359 1206 359 2328 
Q 359 3453 968 4101 
Q 1578 4750 2638 4750 
Q 3056 4750 3426 4639 
Q 3797 4528 4122 4306 
z
" transform="scale(0.015625)"/>
      <path id="DejaVuSans-72" d="M 2631 2963 
Q 2534 3019 2420 3045 
Q 2306 3072 2169 3072 
Q 1681 3072 1420 2755 
Q 1159 2438 1159 1844 
L 1159 0 
L 581 0 
L 581 3500 
L 1159 3500 
L 1159 2956 
Q 1341 3275 1631 3429 
Q 1922 3584 2338 3584 
Q 2397 3584 2469 3576 
Q 2541 3569 2628 3553 
L 2631 2963 
z
" transform="scale(0.015625)"/>
      <path id="DejaVuSans-4d" d="M 628 4666 
L 1569 4666 
L 2759 1491 
L 3956 4666 
L 4897 4666 
L 4897 0 
L 4281 0 
L 4281 4097 
L 3078 897 
L 2444 897 
L 1241 4097 
L 1241 0 
L 628 0 
L 628 4666 
z
" transform="scale(0.015625)"/>
      <path id="DejaVuSans-79" d="M 2059 -325 
Q 1816 -950 1584 -1140 
Q 1353 -1331 966 -1331 
L 506 -1331 
L 506 -850 
L 844 -850 
Q 1081 -850 1212 -737 
Q 1344 -625 1503 -206 
L 1606 56 
L 191 3500 
L 800 3500 
L 1894 763 
L 2988 3500 
L 3597 3500 
L 2059 -325 
z
" transform="scale(0.015625)"/>
      <path id="DejaVuSans-70" d="M 1159 525 
L 1159 -1331 
L 581 -1331 
L 581 3500 
L 1159 3500 
L 1159 2969 
Q 1341 3281 1617 3432 
Q 1894 3584 2278 3584 
Q 2916 3584 3314 3078 
Q 3713 2572 3713 1747 
Q 3713 922 3314 415 
Q 2916 -91 2278 -91 
Q 1894 -91 1617 61 
Q 1341 213 1159 525 
z
M 3116 1747 
Q 3116 2381 2855 2742 
Q 2594 3103 2138 3103 
Q 1681 3103 1420 2742 
Q 1159 2381 1159 1747 
Q 1159 1113 1420 752 
Q 1681 391 2138 391 
Q 2594 391 2855 752 
Q 3116 1113 3116 1747 
z
" transform="scale(0.015625)"/>
      <path id="DejaVuSans-2d" d="M 313 2009 
L 1997 2009 
L 1997 1497 
L 313 1497 
L 313 2009 
z
" transform="scale(0.015625)"/>
      <path id="DejaVuSans-56" d="M 1831 0 
L 50 4666 
L 709 4666 
L 2188 738 
L 3669 4666 
L 4325 4666 
L 2547 0 
L 1831 0 
z
" transform="scale(0.015625)"/>
      <path id="DejaVuSans-50" d="M 1259 4147 
L 1259 2394 
L 2053 2394 
Q 2494 2394 2734 2622 
Q 2975 2850 2975 3272 
Q 2975 3691 2734 3919 
Q 2494 4147 2053 4147 
L 1259 4147 
z
M 628 4666 
L 2053 4666 
Q 2838 4666 3239 4311 
Q 3641 3956 3641 3272 
Q 3641 2581 3239 2228 
Q 2838 1875 2053 1875 
L 1259 1875 
L 1259 0 
L 628 0 
L 628 4666 
z
" transform="scale(0.015625)"/>
     </defs>
     <use xlink:href="#DejaVuSans-43"/>
     <use xlink:href="#DejaVuSans-72" x="69.824219"/>
     <use xlink:href="#DejaVuSans-65" x="108.6875"/>
     <use xlink:href="#DejaVuSans-61" x="170.210938"/>
     <use xlink:href="#DejaVuSans-74" x="231.490234"/>
     <use xlink:href="#DejaVuSans-65" x="270.699219"/>
     <use xlink:href="#DejaVuSans-20" x="332.222656"/>
     <use xlink:href="#DejaVuSans-4d" x="364.009766"/>
     <use xlink:href="#DejaVuSans-61" x="450.289062"/>
     <use xlink:href="#DejaVuSans-6e" x="511.568359"/>
     <use xlink:href="#DejaVuSans-79" x="574.947266"/>
     <use xlink:href="#DejaVuSans-20" x="634.126953"/>
     <use xlink:href="#DejaVuSans-54" x="665.914062"/>
     <use xlink:href="#DejaVuSans-79" x="711.373047"/>
     <use xlink:href="#DejaVuSans-70" x="770.552734"/>
     <use xlink:href="#DejaVuSans-65" x="834.029297"/>
     <use xlink:href="#DejaVuSans-2d" x="895.552734"/>
     <use xlink:href="#DejaVuSans-31" x="931.636719"/>
     <use xlink:href="#DejaVuSans-20" x="995.259766"/>
     <use xlink:href="#DejaVuSans-56" x="1027.046875"/>
     <use xlink:href="#DejaVuSans-4d" x="1095.455078"/>
     <use xlink:href="#DejaVuSans-73" x="1181.734375"/>
     <use xlink:href="#DejaVuSans-20" x="1233.833984"/>
     <use xlink:href="#DejaVuSans-28" x="1265.621094"/>
     <use xlink:href="#DejaVuSans-43" x="1304.634766"/>
     <use xlink:href="#DejaVuSans-50" x="1374.458984"/>
     <use xlink:href="#DejaVuSans-55" x="1434.761719"/>
     <use xlink:href="#DejaVuSans-29" x="1507.955078"/>
    </g>
   </g>
   <g id="legend_1">
    <g id="patch_7">
     <path d="M 423.312813 67.905469 
L 539.851563 67.905469 
Q 542.251563 67.905469 542.251563 65.505469 
L 542.251563 31.477969 
Q 542.251563 29.077969 539.851563 29.077969 
L 423.312813 29.077969 
Q 420.912813 29.077969 420.912813 31.477969 
L 420.912813 65.505469 
Q 420.912813 67.905469 423.312813 67.905469 
z
" style="fill: #ffffff; opacity: 0.8; stroke: #cccccc; stroke-linejoin: miter"/>
    </g>
    <g id="line2d_17">
     <path d="M 425.712813 38.796094 
L 437.712813 38.796094 
L 449.712813 38.796094 
" style="fill: none; stroke: #009384; stroke-width: 2.5; stroke-linecap: square"/>
    </g>
    <g id="text_18">
     <!-- KubeVirt  -->
     <g transform="translate(459.312813 42.996094) scale(0.12 -0.12)">
      <defs>
       <path id="DejaVuSans-4b" d="M 628 4666 
L 1259 4666 
L 1259 2694 
L 3353 4666 
L 4166 4666 
L 1850 2491 
L 4331 0 
L 3500 0 
L 1259 2247 
L 1259 0 
L 628 0 
L 628 4666 
z
" transform="scale(0.015625)"/>
       <path id="DejaVuSans-75" d="M 544 1381 
L 544 3500 
L 1119 3500 
L 1119 1403 
Q 1119 906 1312 657 
Q 1506 409 1894 409 
Q 2359 409 2629 706 
Q 2900 1003 2900 1516 
L 2900 3500 
L 3475 3500 
L 3475 0 
L 2900 0 
L 2900 538 
Q 2691 219 2414 64 
Q 2138 -91 1772 -91 
Q 1169 -91 856 284 
Q 544 659 544 1381 
z
M 1991 3584 
L 1991 3584 
z
" transform="scale(0.015625)"/>
       <path id="DejaVuSans-62" d="M 3116 1747 
Q 3116 2381 2855 2742 
Q 2594 3103 2138 3103 
Q 1681 3103 1420 2742 
Q 1159 2381 1159 1747 
Q 1159 1113 1420 752 
Q 1681 391 2138 391 
Q 2594 391 2855 752 
Q 3116 1113 3116 1747 
z
M 1159 2969 
Q 1341 3281 1617 3432 
Q 1894 3584 2278 3584 
Q 2916 3584 3314 3078 
Q 3713 2572 3713 1747 
Q 3713 922 3314 415 
Q 2916 -91 2278 -91 
Q 1894 -91 1617 61 
Q 1341 213 1159 525 
L 1159 0 
L 581 0 
L 581 4863 
L 1159 4863 
L 1159 2969 
z
" transform="scale(0.015625)"/>
      </defs>
      <use xlink:href="#DejaVuSans-4b"/>
      <use xlink:href="#DejaVuSans-75" x="60.576172"/>
      <use xlink:href="#DejaVuSans-62" x="123.955078"/>
      <use xlink:href="#DejaVuSans-65" x="187.431641"/>
      <use xlink:href="#DejaVuSans-56" x="248.955078"/>
      <use xlink:href="#DejaVuSans-69" x="315.113281"/>
      <use xlink:href="#DejaVuSans-72" x="342.896484"/>
      <use xlink:href="#DejaVuSans-74" x="384.009766"/>
      <use xlink:href="#DejaVuSans-20" x="423.21875"/>
     </g>
    </g>
    <g id="line2d_18">
     <path d="M 425.712813 56.409844 
L 437.712813 56.409844 
L 449.712813 56.409844 
" style="fill: none; stroke: #b85741; stroke-width: 2.5; stroke-linecap: square"/>
    </g>
    <g id="text_19">
     <!-- OpenNebula  -->
     <g transform="translate(459.312813 60.609844) scale(0.12 -0.12)">
      <defs>
       <path id="DejaVuSans-4f" d="M 2522 4238 
Q 1834 4238 1429 3725 
Q 1025 3213 1025 2328 
Q 1025 1447 1429 934 
Q 1834 422 2522 422 
Q 3209 422 3611 934 
Q 4013 1447 4013 2328 
Q 4013 3213 3611 3725 
Q 3209 4238 2522 4238 
z
M 2522 4750 
Q 3503 4750 4090 4092 
Q 4678 3434 4678 2328 
Q 4678 1225 4090 567 
Q 3503 -91 2522 -91 
Q 1538 -91 948 565 
Q 359 1222 359 2328 
Q 359 3434 948 4092 
Q 1538 4750 2522 4750 
z
" transform="scale(0.015625)"/>
       <path id="DejaVuSans-4e" d="M 628 4666 
L 1478 4666 
L 3547 763 
L 3547 4666 
L 4159 4666 
L 4159 0 
L 3309 0 
L 1241 3903 
L 1241 0 
L 628 0 
L 628 4666 
z
" transform="scale(0.015625)"/>
      </defs>
      <use xlink:href="#DejaVuSans-4f"/>
      <use xlink:href="#DejaVuSans-70" x="78.710938"/>
      <use xlink:href="#DejaVuSans-65" x="142.1875"/>
      <use xlink:href="#DejaVuSans-6e" x="203.710938"/>
      <use xlink:href="#DejaVuSans-4e" x="267.089844"/>
      <use xlink:href="#DejaVuSans-65" x="341.894531"/>
      <use xlink:href="#DejaVuSans-62" x="403.417969"/>
      <use xlink:href="#DejaVuSans-75" x="466.894531"/>
      <use xlink:href="#DejaVuSans-6c" x="530.273438"/>
      <use xlink:href="#DejaVuSans-61" x="558.056641"/>
      <use xlink:href="#DejaVuSans-20" x="619.335938"/>
     </g>
    </g>
   </g>
  </g>
 </g>
 <defs>
  <clipPath id="p5536105b17">
   <rect x="46.051562" y="23.077969" width="502.2" height="221.76"/>
  </clipPath>
 </defs>
</svg>
