<?xml version="1.0" encoding="utf-8" standalone="no"?>
<!DOCTYPE svg PUBLIC "-//W3C//DTD SVG 1.1//EN"
  "http://www.w3.org/Graphics/SVG/1.1/DTD/svg11.dtd">
<svg xmlns:xlink="http://www.w3.org/1999/xlink" width="555.451562pt" height="287.233281pt" viewBox="0 0 555.451562 287.233281" xmlns="http://www.w3.org/2000/svg" version="1.1">
 <metadata>
  <rdf:RDF xmlns:dc="http://purl.org/dc/elements/1.1/" xmlns:cc="http://creativecommons.org/ns#" xmlns:rdf="http://www.w3.org/1999/02/22-rdf-syntax-ns#">
   <cc:Work>
    <dc:type rdf:resource="http://purl.org/dc/dcmitype/StillImage"/>
    <dc:date>2024-05-21T10:08:00.779931</dc:date>
    <dc:format>image/svg+xml</dc:format>
    <dc:creator>
     <cc:Agent>
      <dc:title>Matplotlib v3.8.4, https://matplotlib.org/</dc:title>
     </cc:Agent>
    </dc:creator>
   </cc:Work>
  </rdf:RDF>
 </metadata>
 <defs>
  <style type="text/css">*{stroke-linejoin: round; stroke-linecap: butt}</style>
 </defs>
 <g id="figure_1">
  <g id="patch_1">
   <path d="M 0 287.233281 
L 555.451562 287.233281 
L 555.451562 0 
L 0 0 
z
" style="fill: #f3f7f8"/>
  </g>
  <g id="axes_1">
   <g id="patch_2">
    <path d="M 46.051562 244.837969 
L 548.251563 244.837969 
L 548.251563 23.077969 
L 46.051562 23.077969 
z
" style="fill: #ffffff"/>
   </g>
   <g id="matplotlib.axis_1">
    <g id="xtick_1">
     <g id="line2d_1">
      <defs>
       <path id="m3b2c978746" d="M 0 0 
L 0 3.5 
" style="stroke: #000000; stroke-width: 0.8"/>
      </defs>
      <g>
       <use xlink:href="#m3b2c978746" x="62.671307" y="244.837969" style="stroke: #000000; stroke-width: 0.8"/>
      </g>
     </g>
     <g id="text_1">
      <!-- −5 -->
      <g transform="translate(53.825995 260.956094) scale(0.12 -0.12)">
       <defs>
        <path id="DejaVuSans-2212" d="M 678 2272 
L 4684 2272 
L 4684 1741 
L 678 1741 
L 678 2272 
z
" transform="scale(0.015625)"/>
        <path id="DejaVuSans-35" d="M 691 4666 
L 3169 4666 
L 3169 4134 
L 1269 4134 
L 1269 2991 
Q 1406 3038 1543 3061 
Q 1681 3084 1819 3084 
Q 2600 3084 3056 2656 
Q 3513 2228 3513 1497 
Q 3513 744 3044 326 
Q 2575 -91 1722 -91 
Q 1428 -91 1123 -41 
Q 819 9 494 109 
L 494 744 
Q 775 591 1075 516 
Q 1375 441 1709 441 
Q 2250 441 2565 725 
Q 2881 1009 2881 1497 
Q 2881 1984 2565 2268 
Q 2250 2553 1709 2553 
Q 1456 2553 1204 2497 
Q 953 2441 691 2322 
L 691 4666 
z
" transform="scale(0.015625)"/>
       </defs>
       <use xlink:href="#DejaVuSans-2212"/>
       <use xlink:href="#DejaVuSans-35" x="83.789062"/>
      </g>
     </g>
    </g>
    <g id="xtick_2">
     <g id="line2d_2">
      <g>
       <use xlink:href="#m3b2c978746" x="121.636975" y="244.837969" style="stroke: #000000; stroke-width: 0.8"/>
      </g>
     </g>
     <g id="text_2">
      <!-- 0 -->
      <g transform="translate(117.819475 260.956094) scale(0.12 -0.12)">
       <defs>
        <path id="DejaVuSans-30" d="M 2034 4250 
Q 1547 4250 1301 3770 
Q 1056 3291 1056 2328 
Q 1056 1369 1301 889 
Q 1547 409 2034 409 
Q 2525 409 2770 889 
Q 3016 1369 3016 2328 
Q 3016 3291 2770 3770 
Q 2525 4250 2034 4250 
z
M 2034 4750 
Q 2819 4750 3233 4129 
Q 3647 3509 3647 2328 
Q 3647 1150 3233 529 
Q 2819 -91 2034 -91 
Q 1250 -91 836 529 
Q 422 1150 422 2328 
Q 422 3509 836 4129 
Q 1250 4750 2034 4750 
z
" transform="scale(0.015625)"/>
       </defs>
       <use xlink:href="#DejaVuSans-30"/>
      </g>
     </g>
    </g>
    <g id="xtick_3">
     <g id="line2d_3">
      <g>
       <use xlink:href="#m3b2c978746" x="180.602642" y="244.837969" style="stroke: #000000; stroke-width: 0.8"/>
      </g>
     </g>
     <g id="text_3">
      <!-- 5 -->
      <g transform="translate(176.785142 260.956094) scale(0.12 -0.12)">
       <use xlink:href="#DejaVuSans-35"/>
      </g>
     </g>
    </g>
    <g id="xtick_4">
     <g id="line2d_4">
      <g>
       <use xlink:href="#m3b2c978746" x="239.56831" y="244.837969" style="stroke: #000000; stroke-width: 0.8"/>
      </g>
     </g>
     <g id="text_4">
      <!-- 10 -->
      <g transform="translate(231.93331 260.956094) scale(0.12 -0.12)">
       <defs>
        <path id="DejaVuSans-31" d="M 794 531 
L 1825 531 
L 1825 4091 
L 703 3866 
L 703 4441 
L 1819 4666 
L 2450 4666 
L 2450 531 
L 3481 531 
L 3481 0 
L 794 0 
L 794 531 
z
" transform="scale(0.015625)"/>
       </defs>
       <use xlink:href="#DejaVuSans-31"/>
       <use xlink:href="#DejaVuSans-30" x="63.623047"/>
      </g>
     </g>
    </g>
    <g id="xtick_5">
     <g id="line2d_5">
      <g>
       <use xlink:href="#m3b2c978746" x="298.533977" y="244.837969" style="stroke: #000000; stroke-width: 0.8"/>
      </g>
     </g>
     <g id="text_5">
      <!-- 15 -->
      <g transform="translate(290.898977 260.956094) scale(0.12 -0.12)">
       <use xlink:href="#DejaVuSans-31"/>
       <use xlink:href="#DejaVuSans-35" x="63.623047"/>
      </g>
     </g>
    </g>
    <g id="xtick_6">
     <g id="line2d_6">
      <g>
       <use xlink:href="#m3b2c978746" x="357.499645" y="244.837969" style="stroke: #000000; stroke-width: 0.8"/>
      </g>
     </g>
     <g id="text_6">
      <!-- 20 -->
      <g transform="translate(349.864645 260.956094) scale(0.12 -0.12)">
       <defs>
        <path id="DejaVuSans-32" d="M 1228 531 
L 3431 531 
L 3431 0 
L 469 0 
L 469 531 
Q 828 903 1448 1529 
Q 2069 2156 2228 2338 
Q 2531 2678 2651 2914 
Q 2772 3150 2772 3378 
Q 2772 3750 2511 3984 
Q 2250 4219 1831 4219 
Q 1534 4219 1204 4116 
Q 875 4013 500 3803 
L 500 4441 
Q 881 4594 1212 4672 
Q 1544 4750 1819 4750 
Q 2544 4750 2975 4387 
Q 3406 4025 3406 3419 
Q 3406 3131 3298 2873 
Q 3191 2616 2906 2266 
Q 2828 2175 2409 1742 
Q 1991 1309 1228 531 
z
" transform="scale(0.015625)"/>
       </defs>
       <use xlink:href="#DejaVuSans-32"/>
       <use xlink:href="#DejaVuSans-30" x="63.623047"/>
      </g>
     </g>
    </g>
    <g id="xtick_7">
     <g id="line2d_7">
      <g>
       <use xlink:href="#m3b2c978746" x="416.465312" y="244.837969" style="stroke: #000000; stroke-width: 0.8"/>
      </g>
     </g>
     <g id="text_7">
      <!-- 25 -->
      <g transform="translate(408.830312 260.956094) scale(0.12 -0.12)">
       <use xlink:href="#DejaVuSans-32"/>
       <use xlink:href="#DejaVuSans-35" x="63.623047"/>
      </g>
     </g>
    </g>
    <g id="xtick_8">
     <g id="line2d_8">
      <g>
       <use xlink:href="#m3b2c978746" x="475.43098" y="244.837969" style="stroke: #000000; stroke-width: 0.8"/>
      </g>
     </g>
     <g id="text_8">
      <!-- 30 -->
      <g transform="translate(467.79598 260.956094) scale(0.12 -0.12)">
       <defs>
        <path id="DejaVuSans-33" d="M 2597 2516 
Q 3050 2419 3304 2112 
Q 3559 1806 3559 1356 
Q 3559 666 3084 287 
Q 2609 -91 1734 -91 
Q 1441 -91 1130 -33 
Q 819 25 488 141 
L 488 750 
Q 750 597 1062 519 
Q 1375 441 1716 441 
Q 2309 441 2620 675 
Q 2931 909 2931 1356 
Q 2931 1769 2642 2001 
Q 2353 2234 1838 2234 
L 1294 2234 
L 1294 2753 
L 1863 2753 
Q 2328 2753 2575 2939 
Q 2822 3125 2822 3475 
Q 2822 3834 2567 4026 
Q 2313 4219 1838 4219 
Q 1578 4219 1281 4162 
Q 984 4106 628 3988 
L 628 4550 
Q 988 4650 1302 4700 
Q 1616 4750 1894 4750 
Q 2613 4750 3031 4423 
Q 3450 4097 3450 3541 
Q 3450 3153 3228 2886 
Q 3006 2619 2597 2516 
z
" transform="scale(0.015625)"/>
       </defs>
       <use xlink:href="#DejaVuSans-33"/>
       <use xlink:href="#DejaVuSans-30" x="63.623047"/>
      </g>
     </g>
    </g>
    <g id="xtick_9">
     <g id="line2d_9">
      <g>
       <use xlink:href="#m3b2c978746" x="534.396647" y="244.837969" style="stroke: #000000; stroke-width: 0.8"/>
      </g>
     </g>
     <g id="text_9">
      <!-- 35 -->
      <g transform="translate(526.761647 260.956094) scale(0.12 -0.12)">
       <use xlink:href="#DejaVuSans-33"/>
       <use xlink:href="#DejaVuSans-35" x="63.623047"/>
      </g>
     </g>
    </g>
    <g id="text_10">
     <!-- Time (s) -->
     <g transform="translate(270.723984 277.329687) scale(0.13 -0.13)">
      <defs>
       <path id="DejaVuSans-54" d="M -19 4666 
L 3928 4666 
L 3928 4134 
L 2272 4134 
L 2272 0 
L 1638 0 
L 1638 4134 
L -19 4134 
L -19 4666 
z
" transform="scale(0.015625)"/>
       <path id="DejaVuSans-69" d="M 603 3500 
L 1178 3500 
L 1178 0 
L 603 0 
L 603 3500 
z
M 603 4863 
L 1178 4863 
L 1178 4134 
L 603 4134 
L 603 4863 
z
" transform="scale(0.015625)"/>
       <path id="DejaVuSans-6d" d="M 3328 2828 
Q 3544 3216 3844 3400 
Q 4144 3584 4550 3584 
Q 5097 3584 5394 3201 
Q 5691 2819 5691 2113 
L 5691 0 
L 5113 0 
L 5113 2094 
Q 5113 2597 4934 2840 
Q 4756 3084 4391 3084 
Q 3944 3084 3684 2787 
Q 3425 2491 3425 1978 
L 3425 0 
L 2847 0 
L 2847 2094 
Q 2847 2600 2669 2842 
Q 2491 3084 2119 3084 
Q 1678 3084 1418 2786 
Q 1159 2488 1159 1978 
L 1159 0 
L 581 0 
L 581 3500 
L 1159 3500 
L 1159 2956 
Q 1356 3278 1631 3431 
Q 1906 3584 2284 3584 
Q 2666 3584 2933 3390 
Q 3200 3197 3328 2828 
z
" transform="scale(0.015625)"/>
       <path id="DejaVuSans-65" d="M 3597 1894 
L 3597 1613 
L 953 1613 
Q 991 1019 1311 708 
Q 1631 397 2203 397 
Q 2534 397 2845 478 
Q 3156 559 3463 722 
L 3463 178 
Q 3153 47 2828 -22 
Q 2503 -91 2169 -91 
Q 1331 -91 842 396 
Q 353 884 353 1716 
Q 353 2575 817 3079 
Q 1281 3584 2069 3584 
Q 2775 3584 3186 3129 
Q 3597 2675 3597 1894 
z
M 3022 2063 
Q 3016 2534 2758 2815 
Q 2500 3097 2075 3097 
Q 1594 3097 1305 2825 
Q 1016 2553 972 2059 
L 3022 2063 
z
" transform="scale(0.015625)"/>
       <path id="DejaVuSans-20" transform="scale(0.015625)"/>
       <path id="DejaVuSans-28" d="M 1984 4856 
Q 1566 4138 1362 3434 
Q 1159 2731 1159 2009 
Q 1159 1288 1364 580 
Q 1569 -128 1984 -844 
L 1484 -844 
Q 1016 -109 783 600 
Q 550 1309 550 2009 
Q 550 2706 781 3412 
Q 1013 4119 1484 4856 
L 1984 4856 
z
" transform="scale(0.015625)"/>
       <path id="DejaVuSans-73" d="M 2834 3397 
L 2834 2853 
Q 2591 2978 2328 3040 
Q 2066 3103 1784 3103 
Q 1356 3103 1142 2972 
Q 928 2841 928 2578 
Q 928 2378 1081 2264 
Q 1234 2150 1697 2047 
L 1894 2003 
Q 2506 1872 2764 1633 
Q 3022 1394 3022 966 
Q 3022 478 2636 193 
Q 2250 -91 1575 -91 
Q 1294 -91 989 -36 
Q 684 19 347 128 
L 347 722 
Q 666 556 975 473 
Q 1284 391 1588 391 
Q 1994 391 2212 530 
Q 2431 669 2431 922 
Q 2431 1156 2273 1281 
Q 2116 1406 1581 1522 
L 1381 1569 
Q 847 1681 609 1914 
Q 372 2147 372 2553 
Q 372 3047 722 3315 
Q 1072 3584 1716 3584 
Q 2034 3584 2315 3537 
Q 2597 3491 2834 3397 
z
" transform="scale(0.015625)"/>
       <path id="DejaVuSans-29" d="M 513 4856 
L 1013 4856 
Q 1481 4119 1714 3412 
Q 1947 2706 1947 2009 
Q 1947 1309 1714 600 
Q 1481 -109 1013 -844 
L 513 -844 
Q 928 -128 1133 580 
Q 1338 1288 1338 2009 
Q 1338 2731 1133 3434 
Q 928 4138 513 4856 
z
" transform="scale(0.015625)"/>
      </defs>
      <use xlink:href="#DejaVuSans-54"/>
      <use xlink:href="#DejaVuSans-69" x="57.958984"/>
      <use xlink:href="#DejaVuSans-6d" x="85.742188"/>
      <use xlink:href="#DejaVuSans-65" x="183.154297"/>
      <use xlink:href="#DejaVuSans-20" x="244.677734"/>
      <use xlink:href="#DejaVuSans-28" x="276.464844"/>
      <use xlink:href="#DejaVuSans-73" x="315.478516"/>
      <use xlink:href="#DejaVuSans-29" x="367.578125"/>
     </g>
    </g>
   </g>
   <g id="matplotlib.axis_2">
    <g id="ytick_1">
     <g id="line2d_10">
      <defs>
       <path id="m4b8f996088" d="M 0 0 
L -3.5 0 
" style="stroke: #000000; stroke-width: 0.8"/>
      </defs>
      <g>
       <use xlink:href="#m4b8f996088" x="46.051562" y="233.433396" style="stroke: #000000; stroke-width: 0.8"/>
      </g>
     </g>
     <g id="text_11">
      <!-- 2 -->
      <g transform="translate(31.416562 237.992458) scale(0.12 -0.12)">
       <use xlink:href="#DejaVuSans-32"/>
      </g>
     </g>
    </g>
    <g id="ytick_2">
     <g id="line2d_11">
      <g>
       <use xlink:href="#m4b8f996088" x="46.051562" y="206.500413" style="stroke: #000000; stroke-width: 0.8"/>
      </g>
     </g>
     <g id="text_12">
      <!-- 4 -->
      <g transform="translate(31.416562 211.059475) scale(0.12 -0.12)">
       <defs>
        <path id="DejaVuSans-34" d="M 2419 4116 
L 825 1625 
L 2419 1625 
L 2419 4116 
z
M 2253 4666 
L 3047 4666 
L 3047 1625 
L 3713 1625 
L 3713 1100 
L 3047 1100 
L 3047 0 
L 2419 0 
L 2419 1100 
L 313 1100 
L 313 1709 
L 2253 4666 
z
" transform="scale(0.015625)"/>
       </defs>
       <use xlink:href="#DejaVuSans-34"/>
      </g>
     </g>
    </g>
    <g id="ytick_3">
     <g id="line2d_12">
      <g>
       <use xlink:href="#m4b8f996088" x="46.051562" y="179.56743" style="stroke: #000000; stroke-width: 0.8"/>
      </g>
     </g>
     <g id="text_13">
      <!-- 6 -->
      <g transform="translate(31.416562 184.126492) scale(0.12 -0.12)">
       <defs>
        <path id="DejaVuSans-36" d="M 2113 2584 
Q 1688 2584 1439 2293 
Q 1191 2003 1191 1497 
Q 1191 994 1439 701 
Q 1688 409 2113 409 
Q 2538 409 2786 701 
Q 3034 994 3034 1497 
Q 3034 2003 2786 2293 
Q 2538 2584 2113 2584 
z
M 3366 4563 
L 3366 3988 
Q 3128 4100 2886 4159 
Q 2644 4219 2406 4219 
Q 1781 4219 1451 3797 
Q 1122 3375 1075 2522 
Q 1259 2794 1537 2939 
Q 1816 3084 2150 3084 
Q 2853 3084 3261 2657 
Q 3669 2231 3669 1497 
Q 3669 778 3244 343 
Q 2819 -91 2113 -91 
Q 1303 -91 875 529 
Q 447 1150 447 2328 
Q 447 3434 972 4092 
Q 1497 4750 2381 4750 
Q 2619 4750 2861 4703 
Q 3103 4656 3366 4563 
z
" transform="scale(0.015625)"/>
       </defs>
       <use xlink:href="#DejaVuSans-36"/>
      </g>
     </g>
    </g>
    <g id="ytick_4">
     <g id="line2d_13">
      <g>
       <use xlink:href="#m4b8f996088" x="46.051562" y="152.634447" style="stroke: #000000; stroke-width: 0.8"/>
      </g>
     </g>
     <g id="text_14">
      <!-- 8 -->
      <g transform="translate(31.416562 157.19351) scale(0.12 -0.12)">
       <defs>
        <path id="DejaVuSans-38" d="M 2034 2216 
Q 1584 2216 1326 1975 
Q 1069 1734 1069 1313 
Q 1069 891 1326 650 
Q 1584 409 2034 409 
Q 2484 409 2743 651 
Q 3003 894 3003 1313 
Q 3003 1734 2745 1975 
Q 2488 2216 2034 2216 
z
M 1403 2484 
Q 997 2584 770 2862 
Q 544 3141 544 3541 
Q 544 4100 942 4425 
Q 1341 4750 2034 4750 
Q 2731 4750 3128 4425 
Q 3525 4100 3525 3541 
Q 3525 3141 3298 2862 
Q 3072 2584 2669 2484 
Q 3125 2378 3379 2068 
Q 3634 1759 3634 1313 
Q 3634 634 3220 271 
Q 2806 -91 2034 -91 
Q 1263 -91 848 271 
Q 434 634 434 1313 
Q 434 1759 690 2068 
Q 947 2378 1403 2484 
z
M 1172 3481 
Q 1172 3119 1398 2916 
Q 1625 2713 2034 2713 
Q 2441 2713 2670 2916 
Q 2900 3119 2900 3481 
Q 2900 3844 2670 4047 
Q 2441 4250 2034 4250 
Q 1625 4250 1398 4047 
Q 1172 3844 1172 3481 
z
" transform="scale(0.015625)"/>
       </defs>
       <use xlink:href="#DejaVuSans-38"/>
      </g>
     </g>
    </g>
    <g id="ytick_5">
     <g id="line2d_14">
      <g>
       <use xlink:href="#m4b8f996088" x="46.051562" y="125.701464" style="stroke: #000000; stroke-width: 0.8"/>
      </g>
     </g>
     <g id="text_15">
      <!-- 10 -->
      <g transform="translate(23.781562 130.260527) scale(0.12 -0.12)">
       <use xlink:href="#DejaVuSans-31"/>
       <use xlink:href="#DejaVuSans-30" x="63.623047"/>
      </g>
     </g>
    </g>
    <g id="ytick_6">
     <g id="line2d_15">
      <g>
       <use xlink:href="#m4b8f996088" x="46.051562" y="98.768481" style="stroke: #000000; stroke-width: 0.8"/>
      </g>
     </g>
     <g id="text_16">
      <!-- 12 -->
      <g transform="translate(23.781562 103.327544) scale(0.12 -0.12)">
       <use xlink:href="#DejaVuSans-31"/>
       <use xlink:href="#DejaVuSans-32" x="63.623047"/>
      </g>
     </g>
    </g>
    <g id="ytick_7">
     <g id="line2d_16">
      <g>
       <use xlink:href="#m4b8f996088" x="46.051562" y="71.835498" style="stroke: #000000; stroke-width: 0.8"/>
      </g>
     </g>
     <g id="text_17">
      <!-- 14 -->
      <g transform="translate(23.781562 76.394561) scale(0.12 -0.12)">
       <use xlink:href="#DejaVuSans-31"/>
       <use xlink:href="#DejaVuSans-34" x="63.623047"/>
      </g>
     </g>
    </g>
    <g id="ytick_8">
     <g id="line2d_17">
      <g>
       <use xlink:href="#m4b8f996088" x="46.051562" y="44.902515" style="stroke: #000000; stroke-width: 0.8"/>
      </g>
     </g>
     <g id="text_18">
      <!-- 16 -->
      <g transform="translate(23.781562 49.461578) scale(0.12 -0.12)">
       <use xlink:href="#DejaVuSans-31"/>
       <use xlink:href="#DejaVuSans-36" x="63.623047"/>
      </g>
     </g>
    </g>
    <g id="text_19">
     <!-- Utilization (%) -->
     <g transform="translate(17.077969 179.839844) rotate(-90) scale(0.13 -0.13)">
      <defs>
       <path id="DejaVuSans-55" d="M 556 4666 
L 1191 4666 
L 1191 1831 
Q 1191 1081 1462 751 
Q 1734 422 2344 422 
Q 2950 422 3222 751 
Q 3494 1081 3494 1831 
L 3494 4666 
L 4128 4666 
L 4128 1753 
Q 4128 841 3676 375 
Q 3225 -91 2344 -91 
Q 1459 -91 1007 375 
Q 556 841 556 1753 
L 556 4666 
z
" transform="scale(0.015625)"/>
       <path id="DejaVuSans-74" d="M 1172 4494 
L 1172 3500 
L 2356 3500 
L 2356 3053 
L 1172 3053 
L 1172 1153 
Q 1172 725 1289 603 
Q 1406 481 1766 481 
L 2356 481 
L 2356 0 
L 1766 0 
Q 1100 0 847 248 
Q 594 497 594 1153 
L 594 3053 
L 172 3053 
L 172 3500 
L 594 3500 
L 594 4494 
L 1172 4494 
z
" transform="scale(0.015625)"/>
       <path id="DejaVuSans-6c" d="M 603 4863 
L 1178 4863 
L 1178 0 
L 603 0 
L 603 4863 
z
" transform="scale(0.015625)"/>
       <path id="DejaVuSans-7a" d="M 353 3500 
L 3084 3500 
L 3084 2975 
L 922 459 
L 3084 459 
L 3084 0 
L 275 0 
L 275 525 
L 2438 3041 
L 353 3041 
L 353 3500 
z
" transform="scale(0.015625)"/>
       <path id="DejaVuSans-61" d="M 2194 1759 
Q 1497 1759 1228 1600 
Q 959 1441 959 1056 
Q 959 750 1161 570 
Q 1363 391 1709 391 
Q 2188 391 2477 730 
Q 2766 1069 2766 1631 
L 2766 1759 
L 2194 1759 
z
M 3341 1997 
L 3341 0 
L 2766 0 
L 2766 531 
Q 2569 213 2275 61 
Q 1981 -91 1556 -91 
Q 1019 -91 701 211 
Q 384 513 384 1019 
Q 384 1609 779 1909 
Q 1175 2209 1959 2209 
L 2766 2209 
L 2766 2266 
Q 2766 2663 2505 2880 
Q 2244 3097 1772 3097 
Q 1472 3097 1187 3025 
Q 903 2953 641 2809 
L 641 3341 
Q 956 3463 1253 3523 
Q 1550 3584 1831 3584 
Q 2591 3584 2966 3190 
Q 3341 2797 3341 1997 
z
" transform="scale(0.015625)"/>
       <path id="DejaVuSans-6f" d="M 1959 3097 
Q 1497 3097 1228 2736 
Q 959 2375 959 1747 
Q 959 1119 1226 758 
Q 1494 397 1959 397 
Q 2419 397 2687 759 
Q 2956 1122 2956 1747 
Q 2956 2369 2687 2733 
Q 2419 3097 1959 3097 
z
M 1959 3584 
Q 2709 3584 3137 3096 
Q 3566 2609 3566 1747 
Q 3566 888 3137 398 
Q 2709 -91 1959 -91 
Q 1206 -91 779 398 
Q 353 888 353 1747 
Q 353 2609 779 3096 
Q 1206 3584 1959 3584 
z
" transform="scale(0.015625)"/>
       <path id="DejaVuSans-6e" d="M 3513 2113 
L 3513 0 
L 2938 0 
L 2938 2094 
Q 2938 2591 2744 2837 
Q 2550 3084 2163 3084 
Q 1697 3084 1428 2787 
Q 1159 2491 1159 1978 
L 1159 0 
L 581 0 
L 581 3500 
L 1159 3500 
L 1159 2956 
Q 1366 3272 1645 3428 
Q 1925 3584 2291 3584 
Q 2894 3584 3203 3211 
Q 3513 2838 3513 2113 
z
" transform="scale(0.015625)"/>
       <path id="DejaVuSans-25" d="M 4653 2053 
Q 4381 2053 4226 1822 
Q 4072 1591 4072 1178 
Q 4072 772 4226 539 
Q 4381 306 4653 306 
Q 4919 306 5073 539 
Q 5228 772 5228 1178 
Q 5228 1588 5073 1820 
Q 4919 2053 4653 2053 
z
M 4653 2450 
Q 5147 2450 5437 2106 
Q 5728 1763 5728 1178 
Q 5728 594 5436 251 
Q 5144 -91 4653 -91 
Q 4153 -91 3862 251 
Q 3572 594 3572 1178 
Q 3572 1766 3864 2108 
Q 4156 2450 4653 2450 
z
M 1428 4353 
Q 1159 4353 1004 4120 
Q 850 3888 850 3481 
Q 850 3069 1003 2837 
Q 1156 2606 1428 2606 
Q 1700 2606 1854 2837 
Q 2009 3069 2009 3481 
Q 2009 3884 1853 4118 
Q 1697 4353 1428 4353 
z
M 4250 4750 
L 4750 4750 
L 1831 -91 
L 1331 -91 
L 4250 4750 
z
M 1428 4750 
Q 1922 4750 2215 4408 
Q 2509 4066 2509 3481 
Q 2509 2891 2217 2550 
Q 1925 2209 1428 2209 
Q 931 2209 642 2551 
Q 353 2894 353 3481 
Q 353 4063 643 4406 
Q 934 4750 1428 4750 
z
" transform="scale(0.015625)"/>
      </defs>
      <use xlink:href="#DejaVuSans-55"/>
      <use xlink:href="#DejaVuSans-74" x="73.193359"/>
      <use xlink:href="#DejaVuSans-69" x="112.402344"/>
      <use xlink:href="#DejaVuSans-6c" x="140.185547"/>
      <use xlink:href="#DejaVuSans-69" x="167.96875"/>
      <use xlink:href="#DejaVuSans-7a" x="195.751953"/>
      <use xlink:href="#DejaVuSans-61" x="248.242188"/>
      <use xlink:href="#DejaVuSans-74" x="309.521484"/>
      <use xlink:href="#DejaVuSans-69" x="348.730469"/>
      <use xlink:href="#DejaVuSans-6f" x="376.513672"/>
      <use xlink:href="#DejaVuSans-6e" x="437.695312"/>
      <use xlink:href="#DejaVuSans-20" x="501.074219"/>
      <use xlink:href="#DejaVuSans-28" x="532.861328"/>
      <use xlink:href="#DejaVuSans-25" x="571.875"/>
      <use xlink:href="#DejaVuSans-29" x="666.894531"/>
     </g>
    </g>
   </g>
   <g id="line2d_18">
    <path d="M 68.878835 230.621327 
L 71.491592 230.679609 
L 73.485092 230.461496 
L 73.49475 230.241617 
L 74.361463 229.966547 
L 75.136319 229.530762 
L 76.740563 229.2579 
L 76.983253 229.038021 
L 77.103001 229.091887 
L 77.285217 228.812844 
L 78.40751 228.538657 
L 78.466216 228.36867 
L 81.471921 228.315246 
L 81.937407 228.097133 
L 84.352783 227.649427 
L 85.1554 227.257795 
L 92.465102 227.033501 
L 98.722586 227.312986 
L 100.32683 227.142999 
L 100.56952 226.876318 
L 100.689268 226.938132 
L 100.871484 226.887356 
L 101.993777 226.944755 
L 102.052483 226.833049 
L 104.62834 226.830841 
L 105.058188 227.111651 
L 105.523674 227.274573 
L 105.893 227.162426 
L 108.39601 226.937249 
L 108.864492 226.55533 
L 116.051369 224.372875 
L 118.664126 220.20312 
L 120.667284 217.776944 
L 124.275535 215.022274 
L 124.457751 212.729438 
L 125.580044 211.207945 
L 125.63875 209.142494 
L 128.214607 206.678789 
L 128.644455 204.155036 
L 129.109941 202.992061 
L 129.479267 200.92661 
L 130.467779 200.036939 
L 131.525317 198.839083 
L 132.450759 194.642836 
L 133.327131 193.746542 
L 134.101987 192.731036 
L 135.70623 190.235099 
L 135.948921 188.926421 
L 139.637636 185.510347 
L 142.250393 184.073627 
L 144.253551 181.34589 
L 147.861802 179.726379 
L 148.044018 177.280334 
L 149.166311 173.915919 
L 149.225017 172.37544 
L 151.800874 170.885737 
L 152.230722 168.283393 
L 153.065534 161.593417 
L 155.111584 155.918063 
L 155.568544 153.535598 
L 155.914201 150.276266 
L 156.037026 147.484949 
L 157.688254 141.725264 
L 159.292497 140.164034 
L 159.535188 137.440271 
L 163.223903 134.923141 
L 171.448069 131.366221 
L 171.630285 129.42219 
L 172.752578 126.845895 
L 172.811284 124.505375 
L 175.387141 121.399251 
L 176.651801 117.416702 
L 177.629794 114.369301 
L 177.640313 112.706521 
L 178.697851 111.113059 
L 179.623293 105.070358 
L 179.632952 103.467183 
L 180.499665 102.092276 
L 181.274521 100.175178 
L 182.878764 97.367083 
L 183.121455 94.305112 
L 186.81017 91.449774 
L 195.034336 92.132812 
L 195.216552 92.756686 
L 196.338845 92.177848 
L 196.397551 91.720429 
L 199.403256 91.058584 
L 200.238068 88.49112 
L 201.216061 88.777228 
L 201.22658 88.572802 
L 202.284118 86.728555 
L 202.741078 86.75019 
L 203.20956 85.697596 
L 203.219219 83.943419 
L 204.085932 82.54158 
L 204.860788 81.681932 
L 206.465031 80.976818 
L 206.707722 80.548098 
L 210.396437 79.703462 
L 210.766541 80.310557 
L 214.879868 78.843372 
L 218.620603 78.574484 
L 218.802819 78.799661 
L 219.925112 79.634142 
L 219.983818 79.549811 
L 222.989523 80.216513 
L 223.455009 81.526957 
L 223.824335 80.084939 
L 224.802328 77.30466 
L 224.812847 76.458699 
L 225.870385 77.397822 
L 226.795827 76.386731 
L 226.805486 77.479945 
L 227.672199 76.838852 
L 228.447055 76.796024 
L 230.051298 76.300634 
L 230.293989 75.952713 
L 234.352808 76.162437 
L 238.466135 74.573391 
L 243.570085 74.313333 
L 245.775838 74.559703 
L 247.410602 75.961985 
L 248.388595 76.094 
L 248.399114 76.688292 
L 249.456652 76.158463 
L 250.382094 77.329827 
L 250.391753 75.069664 
L 251.258466 73.366705 
L 252.033322 72.558274 
L 253.637565 75.105869 
L 253.880256 75.063483 
L 254.000003 76.876823 
L 254.182219 76.554952 
L 255.304513 75.16989 
L 257.939075 73.586584 
L 258.368923 72.241259 
L 258.83441 71.895546 
L 261.706745 72.03595 
L 262.052402 72.910168 
L 267.156352 74.236066 
L 269.362105 77.038421 
L 270.996869 75.593312 
L 271.974862 77.157632 
L 273.968361 77.557653 
L 273.97802 79.030137 
L 274.844733 79.6103 
L 275.619589 79.564823 
L 277.223832 80.785196 
L 277.466523 80.231966 
L 277.58627 82.851088 
L 277.768486 84.048061 
L 278.89078 83.85953 
L 281.525342 83.977858 
L 281.95519 84.696218 
L 282.420677 84.735073 
L 283.778515 86.425228 
L 284.836052 85.569112 
L 285.293012 83.684245 
L 285.638669 82.742032 
L 292.948372 84.518284 
L 295.561129 84.593785 
L 297.564287 86.738268 
L 299.205856 86.51574 
L 301.05279 84.402605 
L 301.172538 86.062295 
L 301.354753 85.49317 
L 302.477047 86.910463 
L 302.535753 88.731309 
L 305.111609 88.649627 
L 305.541457 90.062946 
L 306.006944 90.864313 
L 306.376269 92.775672 
L 307.364782 91.424607 
L 308.422319 93.231766 
L 309.224936 99.821075 
L 309.347762 103.094095 
L 312.603233 103.007998 
L 316.534639 106.438642 
L 319.147396 109.309874 
L 321.150554 108.794615 
L 322.017267 111.059635 
L 324.758805 112.876066 
L 324.94102 111.078179 
L 326.063314 113.898195 
L 326.12202 116.052392 
L 328.697876 120.005359 
L 329.127724 119.928975 
L 329.593211 119.471556 
L 329.962536 117.476308 
L 330.951049 118.571288 
L 332.008586 118.626479 
L 332.811203 124.420161 
L 332.934029 127.676402 
L 334.585256 127.868465 
L 336.1895 129.589527 
L 336.432191 130.533065 
L 340.120906 132.477538 
L 342.733663 134.159304 
L 344.736821 131.101306 
L 348.345072 133.770321 
L 348.527287 133.514678 
L 349.649581 136.11923 
L 349.708287 137.853096 
L 352.284143 140.339761 
L 352.713991 143.618962 
L 353.179478 145.593459 
L 353.548803 148.270862 
L 354.537316 148.1022 
L 355.594853 149.910242 
L 356.39747 154.234531 
L 356.520296 156.686316 
L 357.396667 159.692655 
L 358.171523 160.245002 
L 359.775767 162.918873 
L 360.018458 166.288145 
L 363.707173 169.04149 
L 366.31993 169.148339 
L 368.323088 172.017806 
L 371.931339 172.99799 
L 372.113554 172.040324 
L 373.235848 174.087672 
L 373.294554 178.013706 
L 375.87041 178.07861 
L 376.300258 180.752481 
L 376.765745 182.372875 
L 377.13507 185.257795 
L 378.123583 188.778952 
L 379.18112 190.056723 
L 379.638081 192.440954 
L 380.106563 193.839262 
L 380.982934 197.298163 
L 381.75779 198.571519 
L 383.604725 198.397117 
L 387.29344 198.172381 
L 391.776871 200.883341 
L 395.699821 199.085454 
L 396.822115 199.140644 
L 396.880821 201.984061 
L 399.886525 201.828203 
L 400.352012 205.385122 
L 400.721337 205.603236 
L 401.69933 205.495504 
L 401.70985 205.217343 
L 403.69283 211.263136 
L 403.702488 213.862389 
L 404.569201 214.527766 
L 405.344057 214.196623 
L 415.017481 214.192649 
L 415.363138 217.170731 
L 419.286088 217.443593 
L 420.408382 218.559325 
L 420.467088 218.499278 
L 423.042944 218.55491 
L 423.472792 221.772297 
L 424.307604 221.93522 
L 425.296117 223.953869 
L 426.353654 223.960492 
L 427.279097 223.504839 
L 427.288755 223.555614 
L 428.155468 223.501306 
L 428.930324 223.663346 
L 430.534568 222.837695 
L 430.777259 222.894211 
L 435.731412 222.567924 
L 438.949405 221.363446 
L 444.053355 220.974904 
L 447.059059 220.355446 
L 447.893871 219.565559 
L 448.871864 219.347004 
L 450.875022 219.504187 
L 452.516591 217.907193 
L 454.363526 217.084192 
L 458.422345 217.466994 
L 459.317679 219.343472 
L 460.675517 218.490447 
L 466.458622 218.158421 
L 474.461289 217.365443 
L 501.838023 217.478915 
L 525.42429 217.420192 
L 525.42429 217.420192 
" clip-path="url(#p1c0b3f58a9)" style="fill: none; stroke: #009384; stroke-width: 2.5; stroke-linecap: square"/>
   </g>
   <g id="line2d_19">
    <path d="M 68.878835 159.947306 
L 70.513599 159.82156 
L 71.491592 160.176676 
L 73.485092 160.166525 
L 73.49475 160.531635 
L 74.361463 160.169324 
L 75.136319 160.528736 
L 76.983253 160.240304 
L 77.103001 160.035935 
L 77.285217 160.039947 
L 78.466216 159.657006 
L 81.042073 159.70109 
L 81.937407 160.294331 
L 84.352783 160.200723 
L 84.809743 159.827772 
L 85.1554 159.874978 
L 92.465102 159.956662 
L 97.081017 160.679161 
L 97.94773 160.558151 
L 98.722586 160.916991 
L 100.871484 160.432117 
L 102.052483 160.058729 
L 104.62834 159.754294 
L 105.523674 160.459227 
L 105.893 160.317621 
L 106.881512 160.31391 
L 107.93905 160.591472 
L 108.864492 159.884214 
L 116.051369 159.965932 
L 120.667284 160.575109 
L 124.275535 160.736632 
L 124.457751 160.375083 
L 125.63875 160.047629 
L 128.214607 159.709704 
L 128.644455 160.064431 
L 130.467779 159.935917 
L 131.982277 160.080889 
L 132.450759 160.006303 
L 133.327131 159.610778 
L 135.948921 159.608805 
L 139.637636 159.669799 
L 142.250393 159.892692 
L 144.253551 160.26933 
L 148.044018 160.082212 
L 149.225017 159.760839 
L 151.800874 159.413468 
L 152.696208 160.113679 
L 153.065534 159.962468 
L 154.054046 159.946926 
L 155.111584 160.299194 
L 155.914201 160.244531 
L 156.037026 159.887298 
L 156.913398 159.537287 
L 157.688254 159.925702 
L 159.535188 159.630329 
L 171.448069 159.717923 
L 171.630285 159.335205 
L 172.811284 158.969213 
L 175.387141 158.669987 
L 176.282475 159.319677 
L 176.651801 159.107246 
L 178.697851 159.787644 
L 179.154811 159.74864 
L 179.500468 159.419819 
L 179.623293 159.078075 
L 179.632952 159.442485 
L 181.274521 159.460841 
L 186.81017 159.645891 
L 195.034336 159.632733 
L 195.216552 159.275865 
L 196.397551 158.757402 
L 199.403256 159.140919 
L 199.868742 159.512541 
L 200.238068 159.535092 
L 201.216061 159.850692 
L 201.22658 159.48618 
L 204.085932 159.597647 
L 204.860788 159.935458 
L 206.707722 159.982681 
L 210.766541 159.808032 
L 218.620603 159.924349 
L 218.802819 159.533929 
L 219.925112 159.086426 
L 219.983818 158.912018 
L 222.989523 159.227564 
L 223.455009 159.552725 
L 223.824335 159.500406 
L 224.802328 159.869876 
L 224.812847 159.450973 
L 227.672199 159.271644 
L 228.447055 159.642469 
L 230.293989 159.624366 
L 234.352808 159.252214 
L 245.775838 159.245867 
L 247.410602 159.021759 
L 249.456652 159.676237 
L 250.391753 159.593018 
L 251.258466 159.256186 
L 252.033322 159.657154 
L 254.182219 159.067441 
L 255.304513 159.013701 
L 258.368923 159.039139 
L 258.83441 159.394098 
L 262.052402 158.937151 
L 270.996869 158.723467 
L 271.974862 159.065955 
L 273.968361 159.00659 
L 273.97802 159.357655 
L 274.844733 158.983598 
L 277.223832 158.981379 
L 277.466523 158.663141 
L 277.58627 158.82809 
L 277.768486 158.514953 
L 281.95519 158.536742 
L 282.420677 158.884579 
L 283.778515 158.487867 
L 284.836052 158.842305 
L 285.638669 158.710237 
L 292.948372 158.74083 
L 297.564287 159.23958 
L 298.431 159.189129 
L 299.205856 159.592371 
L 301.05279 159.650224 
L 301.354753 159.150127 
L 302.477047 159.098637 
L 302.535753 158.646889 
L 305.541457 158.753365 
L 306.006944 159.167221 
L 306.376269 159.18703 
L 307.364782 158.844902 
L 308.422319 159.250987 
L 308.879279 158.866925 
L 309.347762 158.919488 
L 316.534639 158.978191 
L 322.017267 159.692107 
L 324.94102 159.533373 
L 326.12202 159.266866 
L 328.697876 158.945973 
L 329.127724 159.277269 
L 329.962536 159.226694 
L 330.951049 159.193567 
L 332.465546 159.382438 
L 332.934029 159.422663 
L 334.585256 159.422636 
L 336.432191 159.152465 
L 340.120906 159.237743 
L 344.736821 159.912081 
L 348.345072 160.089795 
L 348.527287 159.71885 
L 349.649581 159.799142 
L 349.708287 159.425493 
L 352.713991 159.490666 
L 353.179478 159.835461 
L 354.537316 159.671954 
L 355.594853 159.983014 
L 356.39747 160.028769 
L 356.520296 159.676793 
L 357.396667 159.332453 
L 358.171523 159.754468 
L 359.775767 159.442127 
L 360.018458 159.511131 
L 363.707173 159.587941 
L 366.31993 159.864308 
L 368.323088 159.904549 
L 372.113554 159.804047 
L 373.294554 159.455686 
L 375.87041 159.324227 
L 376.765745 160.159072 
L 377.13507 160.235376 
L 379.18112 160.213629 
L 379.638081 159.827894 
L 381.75779 159.900365 
L 391.776871 160.062557 
L 395.699821 159.883475 
L 396.822115 159.506342 
L 396.880821 159.191608 
L 399.456677 159.225599 
L 399.886525 159.42166 
L 400.352012 159.821043 
L 400.721337 159.820423 
L 401.69933 160.193304 
L 401.70985 160.151056 
L 402.767387 160.18957 
L 403.69283 159.908015 
L 403.702488 160.308941 
L 405.344057 160.414973 
L 407.190992 160.427298 
L 415.017481 160.415728 
L 415.363138 160.081969 
L 420.467088 159.982553 
L 424.307604 159.503585 
L 426.353654 160.2651 
L 427.288755 160.203953 
L 428.155468 159.841318 
L 428.930324 160.209662 
L 430.534568 160.228996 
L 430.777259 159.922084 
L 435.731412 160.300358 
L 447.893871 160.225246 
L 448.871864 160.564789 
L 450.875022 160.851075 
L 452.516591 160.847082 
L 454.363526 160.484065 
L 458.422345 160.356917 
L 459.317679 160.753461 
L 466.458622 160.7408 
L 474.461289 161.075831 
L 525.42429 160.311129 
L 525.42429 160.311129 
" clip-path="url(#p1c0b3f58a9)" style="fill: none; stroke: #b85741; stroke-width: 2.5; stroke-linecap: square"/>
   </g>
   <g id="line2d_20">
    <path d="M 68.878835 185.218941 
L 70.513599 184.954027 
L 71.491592 184.335893 
L 73.485092 184.424197 
L 73.49475 180.892003 
L 75.136319 180.450479 
L 76.740563 179.39082 
L 76.983253 178.860991 
L 77.103001 167.822883 
L 77.285217 168.441017 
L 78.466216 168.176103 
L 81.042073 164.997128 
L 81.471921 164.997128 
L 81.937407 165.880176 
L 83.295245 165.880176 
L 84.352783 146.099887 
L 84.809743 146.011582 
L 85.1554 145.746668 
L 92.465102 145.746668 
L 95.077859 146.541412 
L 97.081017 162.259677 
L 98.722586 162.789506 
L 100.32683 159.787141 
L 100.689268 156.115866 
L 100.871484 156.998915 
L 101.993777 157.08722 
L 102.052483 156.469086 
L 104.62834 156.822305 
L 105.058188 155.850952 
L 105.523674 153.378416 
L 105.893 160.266195 
L 107.93905 160.266195 
L 108.39601 173.158705 
L 108.864492 173.247009 
L 116.051369 173.335314 
L 118.664126 172.187351 
L 120.667284 169.62651 
L 124.275535 167.860413 
L 124.457751 166.006011 
L 125.580044 156.115866 
L 125.63875 154.349769 
L 128.214607 152.671977 
L 128.644455 149.934526 
L 129.109941 147.991819 
L 129.479267 148.786563 
L 131.525317 144.19471 
L 131.982277 144.283015 
L 132.450759 139.514552 
L 133.327131 137.395236 
L 134.101987 135.099309 
L 135.70623 135.011004 
L 135.948921 139.514552 
L 139.637636 135.099309 
L 142.250393 147.991819 
L 144.253551 148.168429 
L 148.044018 143.664881 
L 149.225017 147.638599 
L 151.800874 147.815209 
L 152.230722 148.874868 
L 152.696208 149.316392 
L 153.065534 160.442804 
L 154.054046 160.442804 
L 155.568544 160.796024 
L 155.914201 164.063304 
L 156.913398 164.769743 
L 157.688254 161.943987 
L 159.292497 181.812581 
L 159.535188 180.664618 
L 163.223903 179.958179 
L 171.448069 177.838862 
L 172.752578 178.456996 
L 172.811284 178.633606 
L 175.387141 178.545301 
L 176.282475 184.424197 
L 176.651801 184.512502 
L 177.640313 184.512502 
L 178.697851 185.218941 
L 179.154811 184.512502 
L 179.500468 185.74877 
L 179.623293 175.505406 
L 179.632952 175.858626 
L 180.499665 176.12354 
L 181.274521 176.12354 
L 182.878764 175.417101 
L 183.121455 174.710663 
L 186.81017 166.586615 
L 195.034336 164.732213 
L 195.216552 165.968481 
L 196.338845 168.617627 
L 196.397551 170.560334 
L 199.403256 172.591346 
L 199.868742 182.569795 
L 200.238068 179.832345 
L 201.216061 176.30015 
L 201.22658 174.004224 
L 202.284118 175.858626 
L 203.20956 170.560334 
L 203.219219 173.03287 
L 204.085932 168.264408 
L 204.860788 171.443383 
L 206.465031 168.352713 
L 206.707722 170.560334 
L 210.766541 173.121175 
L 214.879868 168.352713 
L 218.620603 171.708297 
L 218.802819 171.619992 
L 219.925112 171.796602 
L 219.983818 176.829979 
L 222.989523 177.006589 
L 223.455009 169.853895 
L 224.802328 169.76559 
L 224.812847 169.677285 
L 225.870385 169.76559 
L 226.795827 165.703567 
L 226.805486 164.555603 
L 227.672199 164.643908 
L 228.447055 164.555603 
L 230.051298 162.877811 
L 230.293989 162.966116 
L 234.352808 161.729848 
L 238.466135 159.963751 
L 243.570085 159.169007 
L 245.775838 157.667824 
L 247.410602 159.698836 
L 248.388595 157.491214 
L 248.399114 155.725117 
L 249.456652 153.605801 
L 250.382094 153.605801 
L 250.391753 150.250216 
L 251.258466 149.455472 
L 252.033322 147.42446 
L 253.880256 128.438915 
L 254.000003 128.262305 
L 254.182219 128.35061 
L 255.304513 110.071504 
L 257.939075 122.080965 
L 258.368923 119.255209 
L 258.83441 116.959283 
L 261.706745 116.252844 
L 262.052402 109.365065 
L 267.156352 93.558494 
L 269.362105 101.682542 
L 270.996869 103.536944 
L 271.974862 81.637338 
L 273.97802 79.959546 
L 274.844733 78.634973 
L 275.619589 76.780571 
L 277.223832 80.312765 
L 277.466523 85.699362 
L 277.58627 90.909349 
L 277.768486 90.997653 
L 278.89078 95.501201 
L 281.525342 100.711188 
L 281.95519 100.622883 
L 282.420677 105.303041 
L 283.778515 94.264933 
L 284.836052 97.797128 
L 285.293012 95.942726 
L 285.638669 95.059677 
L 292.948372 94.883067 
L 295.561129 98.415262 
L 297.564287 97.443908 
L 298.431 77.487009 
L 299.205856 75.367693 
L 301.05279 74.396339 
L 301.172538 73.336681 
L 301.354753 75.985827 
L 302.535753 76.074132 
L 305.111609 76.162437 
L 305.541457 71.129059 
L 306.006944 63.799756 
L 306.376269 63.711451 
L 307.364782 63.358232 
L 308.422319 53.026563 
L 308.879279 53.026563 
L 309.224936 54.43944 
L 309.347762 48.346405 
L 312.603233 51.34877 
L 316.534639 53.114868 
L 319.147396 54.96927 
L 321.150554 37.484907 
L 322.017267 37.573212 
L 324.758805 39.604224 
L 324.94102 40.840492 
L 326.12202 43.048113 
L 328.697876 36.690163 
L 329.593211 33.157969 
L 329.962536 50.465722 
L 330.951049 49.582673 
L 332.008586 49.582673 
L 332.465546 50.200807 
L 332.934029 69.009743 
L 336.1895 73.954815 
L 336.432191 74.837864 
L 340.120906 82.432082 
L 342.733663 99.033396 
L 348.345072 98.856786 
L 348.527287 120.668087 
L 349.649581 122.16927 
L 349.708287 117.577417 
L 352.284143 118.90199 
L 352.713991 120.756392 
L 353.179478 121.904355 
L 353.548803 121.904355 
L 354.537316 121.286221 
L 355.594853 118.460465 
L 356.39747 115.546405 
L 356.520296 115.63471 
L 357.396667 115.63471 
L 358.171523 121.551136 
L 359.775767 122.964013 
L 360.018458 116.076234 
L 363.707173 116.429454 
L 366.31993 115.63471 
L 371.931339 119.078599 
L 372.113554 137.887535 
L 373.235848 139.918547 
L 373.294554 140.8899 
L 375.87041 141.508034 
L 376.300258 146.099887 
L 377.13507 145.746668 
L 378.123583 145.746668 
L 379.18112 149.720387 
L 379.638081 159.080702 
L 380.106563 161.200019 
L 380.982934 162.171372 
L 381.75779 172.414736 
L 383.362034 172.326431 
L 383.604725 172.503041 
L 387.29344 178.419467 
L 391.776871 179.39082 
L 395.699821 176.12354 
L 396.822115 176.30015 
L 396.880821 196.168744 
L 399.456677 196.168744 
L 399.886525 196.345354 
L 400.352012 196.698573 
L 401.69933 196.610268 
L 401.70985 206.323803 
L 402.767387 209.591083 
L 403.69283 213.034973 
L 403.702488 212.151924 
L 404.569201 214.712765 
L 405.344057 214.80107 
L 407.190992 214.094631 
L 415.017481 213.564802 
L 415.363138 213.829716 
L 419.286088 213.741412 
L 420.467088 213.564802 
L 424.307604 213.653107 
L 425.296117 213.741412 
L 426.353654 218.333264 
L 427.279097 218.333264 
L 427.288755 217.096996 
L 428.155468 217.185301 
L 428.930324 217.096996 
L 430.534568 217.71513 
L 430.777259 219.569532 
L 435.731412 221.247325 
L 438.949405 222.483593 
L 442.872355 222.483593 
L 444.053355 222.306983 
L 447.059059 226.192397 
L 447.893871 226.104092 
L 448.871864 234.757969 
L 450.875022 215.065985 
L 452.516591 215.772423 
L 458.422345 215.684119 
L 459.317679 216.125643 
L 460.675517 216.213948 
L 466.458622 216.213948 
L 474.461289 216.037338 
L 501.838023 216.213948 
L 525.42429 198.199756 
L 525.42429 198.199756 
" clip-path="url(#p1c0b3f58a9)" style="fill: none; stroke: #002f4a; stroke-width: 2.5; stroke-linecap: square"/>
   </g>
   <g id="patch_3">
    <path d="M 46.051562 244.837969 
L 46.051562 23.077969 
" style="fill: none; stroke: #000000; stroke-width: 0.8; stroke-linejoin: miter; stroke-linecap: square"/>
   </g>
   <g id="patch_4">
    <path d="M 548.251563 244.837969 
L 548.251563 23.077969 
" style="fill: none; stroke: #000000; stroke-width: 0.8; stroke-linejoin: miter; stroke-linecap: square"/>
   </g>
   <g id="patch_5">
    <path d="M 46.051562 244.837969 
L 548.251563 244.837969 
" style="fill: none; stroke: #000000; stroke-width: 0.8; stroke-linejoin: miter; stroke-linecap: square"/>
   </g>
   <g id="patch_6">
    <path d="M 46.051562 23.077969 
L 548.251563 23.077969 
" style="fill: none; stroke: #000000; stroke-width: 0.8; stroke-linejoin: miter; stroke-linecap: square"/>
   </g>
   <g id="text_20">
    <!-- Create VM Type 1 (OpenNebula) -->
    <g transform="translate(192.843828 17.077969) scale(0.13 -0.13)">
     <defs>
      <path id="DejaVuSans-43" d="M 4122 4306 
L 4122 3641 
Q 3803 3938 3442 4084 
Q 3081 4231 2675 4231 
Q 1875 4231 1450 3742 
Q 1025 3253 1025 2328 
Q 1025 1406 1450 917 
Q 1875 428 2675 428 
Q 3081 428 3442 575 
Q 3803 722 4122 1019 
L 4122 359 
Q 3791 134 3420 21 
Q 3050 -91 2638 -91 
Q 1578 -91 968 557 
Q 359 1206 359 2328 
Q 359 3453 968 4101 
Q 1578 4750 2638 4750 
Q 3056 4750 3426 4639 
Q 3797 4528 4122 4306 
z
" transform="scale(0.015625)"/>
      <path id="DejaVuSans-72" d="M 2631 2963 
Q 2534 3019 2420 3045 
Q 2306 3072 2169 3072 
Q 1681 3072 1420 2755 
Q 1159 2438 1159 1844 
L 1159 0 
L 581 0 
L 581 3500 
L 1159 3500 
L 1159 2956 
Q 1341 3275 1631 3429 
Q 1922 3584 2338 3584 
Q 2397 3584 2469 3576 
Q 2541 3569 2628 3553 
L 2631 2963 
z
" transform="scale(0.015625)"/>
      <path id="DejaVuSans-56" d="M 1831 0 
L 50 4666 
L 709 4666 
L 2188 738 
L 3669 4666 
L 4325 4666 
L 2547 0 
L 1831 0 
z
" transform="scale(0.015625)"/>
      <path id="DejaVuSans-4d" d="M 628 4666 
L 1569 4666 
L 2759 1491 
L 3956 4666 
L 4897 4666 
L 4897 0 
L 4281 0 
L 4281 4097 
L 3078 897 
L 2444 897 
L 1241 4097 
L 1241 0 
L 628 0 
L 628 4666 
z
" transform="scale(0.015625)"/>
      <path id="DejaVuSans-79" d="M 2059 -325 
Q 1816 -950 1584 -1140 
Q 1353 -1331 966 -1331 
L 506 -1331 
L 506 -850 
L 844 -850 
Q 1081 -850 1212 -737 
Q 1344 -625 1503 -206 
L 1606 56 
L 191 3500 
L 800 3500 
L 1894 763 
L 2988 3500 
L 3597 3500 
L 2059 -325 
z
" transform="scale(0.015625)"/>
      <path id="DejaVuSans-70" d="M 1159 525 
L 1159 -1331 
L 581 -1331 
L 581 3500 
L 1159 3500 
L 1159 2969 
Q 1341 3281 1617 3432 
Q 1894 3584 2278 3584 
Q 2916 3584 3314 3078 
Q 3713 2572 3713 1747 
Q 3713 922 3314 415 
Q 2916 -91 2278 -91 
Q 1894 -91 1617 61 
Q 1341 213 1159 525 
z
M 3116 1747 
Q 3116 2381 2855 2742 
Q 2594 3103 2138 3103 
Q 1681 3103 1420 2742 
Q 1159 2381 1159 1747 
Q 1159 1113 1420 752 
Q 1681 391 2138 391 
Q 2594 391 2855 752 
Q 3116 1113 3116 1747 
z
" transform="scale(0.015625)"/>
      <path id="DejaVuSans-4f" d="M 2522 4238 
Q 1834 4238 1429 3725 
Q 1025 3213 1025 2328 
Q 1025 1447 1429 934 
Q 1834 422 2522 422 
Q 3209 422 3611 934 
Q 4013 1447 4013 2328 
Q 4013 3213 3611 3725 
Q 3209 4238 2522 4238 
z
M 2522 4750 
Q 3503 4750 4090 4092 
Q 4678 3434 4678 2328 
Q 4678 1225 4090 567 
Q 3503 -91 2522 -91 
Q 1538 -91 948 565 
Q 359 1222 359 2328 
Q 359 3434 948 4092 
Q 1538 4750 2522 4750 
z
" transform="scale(0.015625)"/>
      <path id="DejaVuSans-4e" d="M 628 4666 
L 1478 4666 
L 3547 763 
L 3547 4666 
L 4159 4666 
L 4159 0 
L 3309 0 
L 1241 3903 
L 1241 0 
L 628 0 
L 628 4666 
z
" transform="scale(0.015625)"/>
      <path id="DejaVuSans-62" d="M 3116 1747 
Q 3116 2381 2855 2742 
Q 2594 3103 2138 3103 
Q 1681 3103 1420 2742 
Q 1159 2381 1159 1747 
Q 1159 1113 1420 752 
Q 1681 391 2138 391 
Q 2594 391 2855 752 
Q 3116 1113 3116 1747 
z
M 1159 2969 
Q 1341 3281 1617 3432 
Q 1894 3584 2278 3584 
Q 2916 3584 3314 3078 
Q 3713 2572 3713 1747 
Q 3713 922 3314 415 
Q 2916 -91 2278 -91 
Q 1894 -91 1617 61 
Q 1341 213 1159 525 
L 1159 0 
L 581 0 
L 581 4863 
L 1159 4863 
L 1159 2969 
z
" transform="scale(0.015625)"/>
      <path id="DejaVuSans-75" d="M 544 1381 
L 544 3500 
L 1119 3500 
L 1119 1403 
Q 1119 906 1312 657 
Q 1506 409 1894 409 
Q 2359 409 2629 706 
Q 2900 1003 2900 1516 
L 2900 3500 
L 3475 3500 
L 3475 0 
L 2900 0 
L 2900 538 
Q 2691 219 2414 64 
Q 2138 -91 1772 -91 
Q 1169 -91 856 284 
Q 544 659 544 1381 
z
M 1991 3584 
L 1991 3584 
z
" transform="scale(0.015625)"/>
     </defs>
     <use xlink:href="#DejaVuSans-43"/>
     <use xlink:href="#DejaVuSans-72" x="69.824219"/>
     <use xlink:href="#DejaVuSans-65" x="108.6875"/>
     <use xlink:href="#DejaVuSans-61" x="170.210938"/>
     <use xlink:href="#DejaVuSans-74" x="231.490234"/>
     <use xlink:href="#DejaVuSans-65" x="270.699219"/>
     <use xlink:href="#DejaVuSans-20" x="332.222656"/>
     <use xlink:href="#DejaVuSans-56" x="364.009766"/>
     <use xlink:href="#DejaVuSans-4d" x="432.417969"/>
     <use xlink:href="#DejaVuSans-20" x="518.697266"/>
     <use xlink:href="#DejaVuSans-54" x="550.484375"/>
     <use xlink:href="#DejaVuSans-79" x="595.943359"/>
     <use xlink:href="#DejaVuSans-70" x="655.123047"/>
     <use xlink:href="#DejaVuSans-65" x="718.599609"/>
     <use xlink:href="#DejaVuSans-20" x="780.123047"/>
     <use xlink:href="#DejaVuSans-31" x="811.910156"/>
     <use xlink:href="#DejaVuSans-20" x="875.533203"/>
     <use xlink:href="#DejaVuSans-28" x="907.320312"/>
     <use xlink:href="#DejaVuSans-4f" x="946.333984"/>
     <use xlink:href="#DejaVuSans-70" x="1025.044922"/>
     <use xlink:href="#DejaVuSans-65" x="1088.521484"/>
     <use xlink:href="#DejaVuSans-6e" x="1150.044922"/>
     <use xlink:href="#DejaVuSans-4e" x="1213.423828"/>
     <use xlink:href="#DejaVuSans-65" x="1288.228516"/>
     <use xlink:href="#DejaVuSans-62" x="1349.751953"/>
     <use xlink:href="#DejaVuSans-75" x="1413.228516"/>
     <use xlink:href="#DejaVuSans-6c" x="1476.607422"/>
     <use xlink:href="#DejaVuSans-61" x="1504.390625"/>
     <use xlink:href="#DejaVuSans-29" x="1565.669922"/>
    </g>
   </g>
   <g id="legend_1">
    <g id="patch_7">
     <path d="M 471.217188 85.519219 
L 539.851563 85.519219 
Q 542.251563 85.519219 542.251563 83.119219 
L 542.251563 31.477969 
Q 542.251563 29.077969 539.851563 29.077969 
L 471.217188 29.077969 
Q 468.817188 29.077969 468.817188 31.477969 
L 468.817188 83.119219 
Q 468.817188 85.519219 471.217188 85.519219 
z
" style="fill: #ffffff; opacity: 0.8; stroke: #cccccc; stroke-linejoin: miter"/>
    </g>
    <g id="line2d_21">
     <path d="M 473.617188 38.796094 
L 485.617188 38.796094 
L 497.617188 38.796094 
" style="fill: none; stroke: #009384; stroke-width: 2.5; stroke-linecap: square"/>
    </g>
    <g id="text_21">
     <!--  CPU -->
     <g transform="translate(507.217188 42.996094) scale(0.12 -0.12)">
      <defs>
       <path id="DejaVuSans-50" d="M 1259 4147 
L 1259 2394 
L 2053 2394 
Q 2494 2394 2734 2622 
Q 2975 2850 2975 3272 
Q 2975 3691 2734 3919 
Q 2494 4147 2053 4147 
L 1259 4147 
z
M 628 4666 
L 2053 4666 
Q 2838 4666 3239 4311 
Q 3641 3956 3641 3272 
Q 3641 2581 3239 2228 
Q 2838 1875 2053 1875 
L 1259 1875 
L 1259 0 
L 628 0 
L 628 4666 
z
" transform="scale(0.015625)"/>
      </defs>
      <use xlink:href="#DejaVuSans-20"/>
      <use xlink:href="#DejaVuSans-43" x="31.787109"/>
      <use xlink:href="#DejaVuSans-50" x="101.611328"/>
      <use xlink:href="#DejaVuSans-55" x="161.914062"/>
     </g>
    </g>
    <g id="line2d_22">
     <path d="M 473.617188 56.409844 
L 485.617188 56.409844 
L 497.617188 56.409844 
" style="fill: none; stroke: #b85741; stroke-width: 2.5; stroke-linecap: square"/>
    </g>
    <g id="text_22">
     <!--  RAM -->
     <g transform="translate(507.217188 60.609844) scale(0.12 -0.12)">
      <defs>
       <path id="DejaVuSans-52" d="M 2841 2188 
Q 3044 2119 3236 1894 
Q 3428 1669 3622 1275 
L 4263 0 
L 3584 0 
L 2988 1197 
Q 2756 1666 2539 1819 
Q 2322 1972 1947 1972 
L 1259 1972 
L 1259 0 
L 628 0 
L 628 4666 
L 2053 4666 
Q 2853 4666 3247 4331 
Q 3641 3997 3641 3322 
Q 3641 2881 3436 2590 
Q 3231 2300 2841 2188 
z
M 1259 4147 
L 1259 2491 
L 2053 2491 
Q 2509 2491 2742 2702 
Q 2975 2913 2975 3322 
Q 2975 3731 2742 3939 
Q 2509 4147 2053 4147 
L 1259 4147 
z
" transform="scale(0.015625)"/>
       <path id="DejaVuSans-41" d="M 2188 4044 
L 1331 1722 
L 3047 1722 
L 2188 4044 
z
M 1831 4666 
L 2547 4666 
L 4325 0 
L 3669 0 
L 3244 1197 
L 1141 1197 
L 716 0 
L 50 0 
L 1831 4666 
z
" transform="scale(0.015625)"/>
      </defs>
      <use xlink:href="#DejaVuSans-20"/>
      <use xlink:href="#DejaVuSans-52" x="31.787109"/>
      <use xlink:href="#DejaVuSans-41" x="97.269531"/>
      <use xlink:href="#DejaVuSans-4d" x="165.677734"/>
     </g>
    </g>
    <g id="line2d_23">
     <path d="M 473.617188 74.023594 
L 485.617188 74.023594 
L 497.617188 74.023594 
" style="fill: none; stroke: #002f4a; stroke-width: 2.5; stroke-linecap: square"/>
    </g>
    <g id="text_23">
     <!--  Disk -->
     <g transform="translate(507.217188 78.223594) scale(0.12 -0.12)">
      <defs>
       <path id="DejaVuSans-44" d="M 1259 4147 
L 1259 519 
L 2022 519 
Q 2988 519 3436 956 
Q 3884 1394 3884 2338 
Q 3884 3275 3436 3711 
Q 2988 4147 2022 4147 
L 1259 4147 
z
M 628 4666 
L 1925 4666 
Q 3281 4666 3915 4102 
Q 4550 3538 4550 2338 
Q 4550 1131 3912 565 
Q 3275 0 1925 0 
L 628 0 
L 628 4666 
z
" transform="scale(0.015625)"/>
       <path id="DejaVuSans-6b" d="M 581 4863 
L 1159 4863 
L 1159 1991 
L 2875 3500 
L 3609 3500 
L 1753 1863 
L 3688 0 
L 2938 0 
L 1159 1709 
L 1159 0 
L 581 0 
L 581 4863 
z
" transform="scale(0.015625)"/>
      </defs>
      <use xlink:href="#DejaVuSans-20"/>
      <use xlink:href="#DejaVuSans-44" x="31.787109"/>
      <use xlink:href="#DejaVuSans-69" x="108.789062"/>
      <use xlink:href="#DejaVuSans-73" x="136.572266"/>
      <use xlink:href="#DejaVuSans-6b" x="188.671875"/>
     </g>
    </g>
   </g>
  </g>
 </g>
 <defs>
  <clipPath id="p1c0b3f58a9">
   <rect x="46.051562" y="23.077969" width="502.2" height="221.76"/>
  </clipPath>
 </defs>
</svg>
