<?xml version="1.0" encoding="utf-8" standalone="no"?>
<!DOCTYPE svg PUBLIC "-//W3C//DTD SVG 1.1//EN"
  "http://www.w3.org/Graphics/SVG/1.1/DTD/svg11.dtd">
<svg xmlns:xlink="http://www.w3.org/1999/xlink" width="560.334432pt" height="287.233281pt" viewBox="0 0 560.334432 287.233281" xmlns="http://www.w3.org/2000/svg" version="1.1">
 <metadata>
  <rdf:RDF xmlns:dc="http://purl.org/dc/elements/1.1/" xmlns:cc="http://creativecommons.org/ns#" xmlns:rdf="http://www.w3.org/1999/02/22-rdf-syntax-ns#">
   <cc:Work>
    <dc:type rdf:resource="http://purl.org/dc/dcmitype/StillImage"/>
    <dc:date>2024-05-21T10:08:01.916255</dc:date>
    <dc:format>image/svg+xml</dc:format>
    <dc:creator>
     <cc:Agent>
      <dc:title>Matplotlib v3.8.4, https://matplotlib.org/</dc:title>
     </cc:Agent>
    </dc:creator>
   </cc:Work>
  </rdf:RDF>
 </metadata>
 <defs>
  <style type="text/css">*{stroke-linejoin: round; stroke-linecap: butt}</style>
 </defs>
 <g id="figure_1">
  <g id="patch_1">
   <path d="M 0 287.233281 
L 560.334432 287.233281 
L 560.334432 0 
L 0 0 
z
" style="fill: #ffffff"/>
  </g>
  <g id="axes_1">
   <g id="patch_2">
    <path d="M 46.051562 244.837969 
L 548.251563 244.837969 
L 548.251563 23.077969 
L 46.051562 23.077969 
z
" style="fill: #ffffff"/>
   </g>
   <g id="PolyCollection_1">
    <defs>
     <path id="mb8192b016b" d="M 68.878835 -83.19168 
L 68.878835 -42.395313 
L 69.888493 -42.395313 
L 72.477281 -42.395313 
L 77.843514 -42.395313 
L 79.131319 -42.395313 
L 84.476571 -42.395313 
L 84.695465 -42.395313 
L 84.869679 -42.395313 
L 90.476761 -42.395313 
L 91.093717 -42.395313 
L 91.657102 -42.395313 
L 92.767046 -42.395313 
L 93.086036 -42.395313 
L 93.788821 -42.395313 
L 93.936489 -42.395313 
L 94.857398 -42.395313 
L 96.181557 -42.395313 
L 96.515629 -42.395313 
L 97.13122 -42.395313 
L 97.938752 -42.395313 
L 98.948409 -42.395313 
L 101.537198 -42.395313 
L 105.371624 -42.395313 
L 106.903431 -42.395313 
L 108.191236 -42.395313 
L 110.433266 -42.395313 
L 113.536488 -42.395313 
L 113.929596 -42.395313 
L 120.717019 -42.395313 
L 121.826962 -42.395313 
L 122.145953 -42.395313 
L 122.996406 -42.395313 
L 123.917314 -42.395313 
L 125.241473 -42.395313 
L 125.575546 -42.395313 
L 126.998668 -42.395313 
L 128.008326 -42.395313 
L 128.28534 -42.395313 
L 130.597114 -42.395313 
L 134.066636 -42.395313 
L 134.431541 -42.395313 
L 134.683592 -42.395313 
L 135.963347 -42.395313 
L 137.251152 -42.395313 
L 137.378696 -42.395313 
L 139.493183 -42.395313 
L 140.721095 -42.395313 
L 149.776935 -42.395313 
L 150.886878 -42.395313 
L 151.205869 -42.395313 
L 152.056322 -42.395313 
L 152.977231 -42.395313 
L 154.30139 -42.395313 
L 154.635462 -42.395313 
L 156.058585 -42.395313 
L 157.126362 -42.395313 
L 157.345256 -42.395313 
L 157.51947 -42.395313 
L 159.657031 -42.395313 
L 163.126552 -42.395313 
L 163.491457 -42.395313 
L 163.743509 -42.395313 
L 165.023264 -42.395313 
L 166.311068 -42.395313 
L 166.438612 -42.395313 
L 168.553099 -42.395313 
L 169.781011 -42.395313 
L 171.598201 -42.395313 
L 179.946795 -42.395313 
L 180.265786 -42.395313 
L 182.037147 -42.395313 
L 183.695379 -42.395313 
L 186.186279 -42.395313 
L 186.405173 -42.395313 
L 186.579387 -42.395313 
L 188.716947 -42.395313 
L 192.186469 -42.395313 
L 192.551374 -42.395313 
L 192.803425 -42.395313 
L 193.36681 -42.395313 
L 194.08318 -42.395313 
L 195.370985 -42.395313 
L 195.498529 -42.395313 
L 195.646197 -42.395313 
L 197.613016 -42.395313 
L 197.891264 -42.395313 
L 198.840928 -42.395313 
L 199.648459 -42.395313 
L 200.658117 -42.395313 
L 209.325702 -42.395313 
L 211.097064 -42.395313 
L 215.246195 -42.395313 
L 215.465089 -42.395313 
L 215.639303 -42.395313 
L 221.246385 -42.395313 
L 221.61129 -42.395313 
L 221.863342 -42.395313 
L 222.426726 -42.395313 
L 223.53667 -42.395313 
L 224.430901 -42.395313 
L 224.558445 -42.395313 
L 224.706113 -42.395313 
L 226.672932 -42.395313 
L 226.951181 -42.395313 
L 227.285254 -42.395313 
L 227.900844 -42.395313 
L 228.708376 -42.395313 
L 229.718034 -42.395313 
L 232.306822 -42.395313 
L 237.673055 -42.395313 
L 238.385619 -42.395313 
L 240.15698 -42.395313 
L 244.306112 -42.395313 
L 244.525005 -42.395313 
L 244.69922 -42.395313 
L 250.306301 -42.395313 
L 250.671207 -42.395313 
L 250.923258 -42.395313 
L 251.486643 -42.395313 
L 252.596586 -42.395313 
L 253.618362 -42.395313 
L 253.76603 -42.395313 
L 255.732849 -42.395313 
L 256.011097 -42.395313 
L 256.34517 -42.395313 
L 256.960761 -42.395313 
L 257.768292 -42.395313 
L 258.77795 -42.395313 
L 261.366738 -42.395313 
L 266.732971 -42.395313 
L 267.445535 -42.395313 
L 268.020776 -42.395313 
L 269.216897 -42.395313 
L 273.366028 -42.395313 
L 273.584922 -42.395313 
L 273.759136 -42.395313 
L 279.366218 -42.395313 
L 279.731123 -42.395313 
L 279.983175 -42.395313 
L 280.546559 -42.395313 
L 281.656503 -42.395313 
L 282.825946 -42.395313 
L 284.792765 -42.395313 
L 285.071014 -42.395313 
L 285.405087 -42.395313 
L 286.828209 -42.395313 
L 287.837867 -42.395313 
L 290.426655 -42.395313 
L 295.792888 -42.395313 
L 297.080693 -42.395313 
L 297.208237 -42.395313 
L 300.550636 -42.395313 
L 302.425945 -42.395313 
L 302.644838 -42.395313 
L 302.819053 -42.395313 
L 308.426134 -42.395313 
L 308.79104 -42.395313 
L 309.043091 -42.395313 
L 309.606476 -42.395313 
L 310.716419 -42.395313 
L 311.03541 -42.395313 
L 311.885863 -42.395313 
L 312.806772 -42.395313 
L 314.13093 -42.395313 
L 314.465003 -42.395313 
L 315.888125 -42.395313 
L 316.897783 -42.395313 
L 319.486571 -42.395313 
L 324.852804 -42.395313 
L 326.140609 -42.395313 
L 326.268153 -42.395313 
L 328.38264 -42.395313 
L 329.610552 -42.395313 
L 331.485861 -42.395313 
L 331.704755 -42.395313 
L 331.878969 -42.395313 
L 337.486051 -42.395313 
L 337.850956 -42.395313 
L 338.103007 -42.395313 
L 338.666392 -42.395313 
L 339.776336 -42.395313 
L 340.095326 -42.395313 
L 340.945779 -42.395313 
L 341.866688 -42.395313 
L 343.52492 -42.395313 
L 344.948042 -42.395313 
L 345.957699 -42.395313 
L 348.546488 -42.395313 
L 353.912721 -42.395313 
L 355.200526 -42.395313 
L 355.32807 -42.395313 
L 357.442556 -42.395313 
L 357.720805 -42.395313 
L 358.670468 -42.395313 
L 360.545778 -42.395313 
L 360.764671 -42.395313 
L 360.938886 -42.395313 
L 366.545967 -42.395313 
L 367.162924 -42.395313 
L 367.726309 -42.395313 
L 368.836252 -42.395313 
L 369.155243 -42.395313 
L 370.005696 -42.395313 
L 370.926605 -42.395313 
L 372.584836 -42.395313 
L 374.007958 -42.395313 
L 377.606404 -42.395313 
L 381.440831 -42.395313 
L 382.972637 -42.395313 
L 384.260442 -42.395313 
L 384.387986 -42.395313 
L 386.502473 -42.395313 
L 386.780721 -42.395313 
L 387.730385 -42.395313 
L 389.547574 -42.395313 
L 389.605694 -42.395313 
L 389.824588 -42.395313 
L 389.998802 -42.395313 
L 395.605884 -42.395313 
L 396.22284 -42.395313 
L 396.786225 -42.395313 
L 397.896169 -42.395313 
L 398.215159 -42.395313 
L 399.986521 -42.395313 
L 401.644752 -42.395313 
L 403.067875 -42.395313 
L 406.666321 -42.395313 
L 410.500747 -42.395313 
L 412.032554 -42.395313 
L 413.320359 -42.395313 
L 413.447903 -42.395313 
L 413.59557 -42.395313 
L 415.562389 -42.395313 
L 415.840638 -42.395313 
L 416.790301 -42.395313 
L 418.607491 -42.395313 
L 418.665611 -42.395313 
L 419.058719 -42.395313 
L 425.846142 -42.395313 
L 426.956085 -42.395313 
L 427.275076 -42.395313 
L 429.046437 -42.395313 
L 430.704669 -42.395313 
L 432.127791 -42.395313 
L 433.414463 -42.395313 
L 435.726237 -42.395313 
L 439.195759 -42.395313 
L 439.560664 -42.395313 
L 439.812715 -42.395313 
L 441.09247 -42.395313 
L 442.380275 -42.395313 
L 442.507819 -42.395313 
L 442.655487 -42.395313 
L 444.622306 -42.395313 
L 444.900554 -42.395313 
L 445.850218 -42.395313 
L 447.667407 -42.395313 
L 456.334992 -42.395313 
L 458.106354 -42.395313 
L 461.187708 -42.395313 
L 462.255485 -42.395313 
L 462.474379 -42.395313 
L 462.648593 -42.395313 
L 464.786154 -42.395313 
L 468.255675 -42.395313 
L 468.62058 -42.395313 
L 468.872632 -42.395313 
L 469.436016 -42.395313 
L 470.152387 -42.395313 
L 470.54596 -42.395313 
L 471.440191 -42.395313 
L 471.567735 -42.395313 
L 471.715403 -42.395313 
L 473.682222 -42.395313 
L 473.960471 -42.395313 
L 474.294544 -42.395313 
L 474.910134 -42.395313 
L 476.727324 -42.395313 
L 485.394909 -42.395313 
L 487.16627 -42.395313 
L 491.315402 -42.395313 
L 491.534296 -42.395313 
L 491.70851 -42.395313 
L 497.315592 -42.395313 
L 497.680497 -42.395313 
L 497.932548 -42.395313 
L 498.495933 -42.395313 
L 499.212303 -42.395313 
L 499.605876 -42.395313 
L 500.500108 -42.395313 
L 500.627652 -42.395313 
L 500.77532 -42.395313 
L 502.742139 -42.395313 
L 503.020387 -42.395313 
L 503.020387 -108.276194 
L 503.020387 -108.276194 
L 502.742139 -107.931203 
L 500.77532 -107.246296 
L 500.627652 -105.837586 
L 500.500108 -105.074041 
L 499.605876 -103.313576 
L 499.212303 -100.806901 
L 498.495933 -99.524179 
L 497.932548 -99.310674 
L 497.680497 -99.04559 
L 497.315592 -96.367688 
L 491.70851 -94.672331 
L 491.534296 -94.722642 
L 491.315402 -94.72687 
L 487.16627 -93.613262 
L 485.394909 -92.547005 
L 476.727324 -90.318097 
L 474.910134 -90.532025 
L 474.294544 -89.569773 
L 473.960471 -88.462506 
L 473.682222 -88.363152 
L 471.715403 -87.607218 
L 471.567735 -86.970085 
L 471.440191 -87.235592 
L 470.54596 -86.598037 
L 470.152387 -86.656803 
L 469.436016 -86.871577 
L 468.872632 -84.959756 
L 468.62058 -84.060075 
L 468.255675 -84.423668 
L 464.786154 -84.373779 
L 462.648593 -84.373357 
L 462.474379 -84.169153 
L 462.255485 -84.814318 
L 461.187708 -84.974553 
L 458.106354 -85.018945 
L 456.334992 -85.240906 
L 447.667407 -84.93608 
L 445.850218 -84.871817 
L 444.900554 -84.818546 
L 444.622306 -85.027401 
L 442.655487 -85.079403 
L 442.507819 -85.391416 
L 442.380275 -85.860282 
L 441.09247 -86.342676 
L 439.812715 -86.664413 
L 439.560664 -87.203461 
L 439.195759 -87.466854 
L 435.726237 -87.590729 
L 433.414463 -87.852009 
L 432.127791 -88.601179 
L 430.704669 -88.655295 
L 429.046437 -88.968576 
L 427.275076 -89.771017 
L 426.956085 -89.826401 
L 425.846142 -89.872907 
L 419.058719 -90.081339 
L 418.665611 -90.023418 
L 418.607491 -91.151401 
L 416.790301 -91.308253 
L 415.840638 -92.523752 
L 415.562389 -93.291101 
L 413.59557 -93.396797 
L 413.447903 -93.664418 
L 413.320359 -93.718112 
L 412.032554 -94.03393 
L 410.500747 -93.987001 
L 406.666321 -94.088046 
L 403.067875 -96.24804 
L 401.644752 -100.655967 
L 399.986521 -100.764622 
L 398.215159 -100.866513 
L 397.896169 -104.211988 
L 396.786225 -105.146337 
L 396.22284 -109.744516 
L 395.605884 -114.145256 
L 389.998802 -115.433896 
L 389.824588 -119.875646 
L 389.605694 -119.774178 
L 389.547574 -123.469295 
L 387.730385 -127.862847 
L 386.780721 -128.285207 
L 386.502473 -128.23405 
L 384.387986 -133.490078 
L 384.260442 -136.457164 
L 382.972637 -137.203797 
L 381.440831 -139.680878 
L 377.606404 -142.51986 
L 374.007958 -144.695075 
L 372.584836 -147.324357 
L 370.926605 -152.810802 
L 370.005696 -155.371593 
L 369.155243 -157.240714 
L 368.836252 -158.835871 
L 367.726309 -160.4602 
L 367.162924 -162.916142 
L 366.545967 -166.037543 
L 360.938886 -168.168788 
L 360.764671 -170.979021 
L 360.545778 -172.848141 
L 358.670468 -174.658072 
L 357.720805 -177.145299 
L 357.442556 -179.358141 
L 355.32807 -179.750483 
L 355.200526 -182.473201 
L 353.912721 -184.130507 
L 348.546488 -186.201717 
L 345.957699 -187.412142 
L 344.948042 -189.079595 
L 343.52492 -189.25209 
L 341.866688 -192.207761 
L 340.945779 -194.178348 
L 340.095326 -194.978252 
L 339.776336 -196.541278 
L 338.666392 -198.146159 
L 338.103007 -198.621789 
L 337.850956 -199.121941 
L 337.486051 -199.242856 
L 331.878969 -199.565016 
L 331.704755 -199.726096 
L 331.485861 -199.187472 
L 329.610552 -199.670712 
L 328.38264 -201.734735 
L 326.268153 -201.89666 
L 326.140609 -201.885668 
L 324.852804 -202.311409 
L 319.486571 -202.00151 
L 316.897783 -202.360029 
L 315.888125 -202.463611 
L 314.465003 -202.251797 
L 314.13093 -202.793381 
L 312.806772 -203.339193 
L 311.885863 -202.382014 
L 311.03541 -203.188683 
L 310.716419 -202.360452 
L 309.606476 -201.651869 
L 309.043091 -202.308873 
L 308.79104 -202.51519 
L 308.426134 -203.209399 
L 302.819053 -203.32355 
L 302.644838 -203.721388 
L 302.425945 -203.931511 
L 300.550636 -202.198527 
L 297.208237 -198.376153 
L 297.080693 -198.426464 
L 295.792888 -198.477198 
L 290.426655 -195.140601 
L 287.837867 -194.417643 
L 286.828209 -189.655002 
L 285.405087 -185.191267 
L 285.071014 -184.337247 
L 284.792765 -180.111116 
L 282.825946 -180.752054 
L 281.656503 -177.380366 
L 280.546559 -172.932697 
L 279.983175 -172.832075 
L 279.731123 -172.986814 
L 279.366218 -167.78617 
L 273.759136 -166.057836 
L 273.584922 -165.469323 
L 273.366028 -163.044245 
L 269.216897 -160.464005 
L 268.020776 -158.074863 
L 267.445535 -155.337771 
L 266.732971 -150.433075 
L 261.366738 -147.92344 
L 258.77795 -146.751064 
L 257.768292 -145.584186 
L 256.960761 -144.709449 
L 256.34517 -142.258158 
L 256.011097 -140.245715 
L 255.732849 -139.13422 
L 253.76603 -136.427992 
L 253.618362 -134.564368 
L 252.596586 -133.510372 
L 251.486643 -132.336728 
L 250.923258 -131.52245 
L 250.671207 -130.936051 
L 250.306301 -128.862727 
L 244.69922 -127.5669 
L 244.525005 -126.661723 
L 244.306112 -125.646623 
L 240.15698 -124.231994 
L 238.385619 -124.32712 
L 237.673055 -121.461925 
L 232.306822 -119.760226 
L 229.718034 -118.80643 
L 228.708376 -117.711424 
L 227.900844 -116.317088 
L 227.285254 -116.164464 
L 226.951181 -115.998733 
L 226.672932 -115.716737 
L 224.706113 -115.070303 
L 224.558445 -114.585795 
L 224.430901 -114.896117 
L 223.53667 -114.045479 
L 222.426726 -111.970042 
L 221.863342 -111.813189 
L 221.61129 -111.12786 
L 221.246385 -110.593463 
L 215.639303 -110.37573 
L 215.465089 -109.429121 
L 215.246195 -109.32723 
L 211.097064 -109.270155 
L 209.325702 -108.624566 
L 200.658117 -108.134139 
L 199.648459 -107.85933 
L 198.840928 -107.101705 
L 197.891264 -106.455271 
L 197.613016 -106.401577 
L 195.646197 -105.425796 
L 195.498529 -105.213982 
L 195.370985 -104.833055 
L 194.08318 -104.712985 
L 193.36681 -104.370109 
L 192.803425 -103.950286 
L 192.551374 -103.41293 
L 192.186469 -102.560178 
L 188.716947 -102.499298 
L 186.579387 -102.39783 
L 186.405173 -102.227449 
L 186.186279 -101.858783 
L 183.695379 -102.126827 
L 182.037147 -101.916281 
L 180.265786 -101.477433 
L 179.946795 -101.262237 
L 171.598201 -100.566338 
L 169.781011 -100.194289 
L 168.553099 -100.350296 
L 166.438612 -100.343531 
L 166.311068 -100.132986 
L 165.023264 -100.238259 
L 163.743509 -99.529676 
L 163.491457 -99.371132 
L 163.126552 -99.217662 
L 159.657031 -99.167351 
L 157.51947 -99.277275 
L 157.345256 -99.493739 
L 157.126362 -99.123382 
L 156.058585 -98.75683 
L 154.635462 -97.958617 
L 154.30139 -98.004277 
L 152.977231 -97.303727 
L 152.056322 -97.198877 
L 151.205869 -96.409543 
L 150.886878 -95.340327 
L 149.776935 -94.862583 
L 140.721095 -94.537886 
L 139.493183 -93.516867 
L 137.378696 -92.258245 
L 137.251152 -91.071918 
L 135.963347 -90.693105 
L 134.683592 -89.943512 
L 134.431541 -89.523689 
L 134.066636 -88.617244 
L 130.597114 -87.931914 
L 128.28534 -87.735743 
L 128.008326 -87.311693 
L 126.998668 -87.161182 
L 125.575546 -86.891025 
L 125.241473 -86.84325 
L 123.917314 -86.163839 
L 122.996406 -85.952025 
L 122.145953 -85.681022 
L 121.826962 -85.145357 
L 120.717019 -85.101388 
L 113.929596 -84.892533 
L 113.536488 -85.208774 
L 110.433266 -84.952568 
L 108.191236 -85.000765 
L 106.903431 -84.83588 
L 105.371624 -84.78261 
L 101.537198 -84.888728 
L 98.948409 -84.520485 
L 97.938752 -84.569528 
L 97.13122 -84.83123 
L 96.515629 -84.722998 
L 96.181557 -84.986391 
L 94.857398 -84.830384 
L 93.936489 -84.832921 
L 93.788821 -84.620261 
L 93.086036 -84.30402 
L 92.767046 -84.677337 
L 91.657102 -84.356868 
L 91.093717 -84.354754 
L 90.476761 -83.987779 
L 84.869679 -83.514686 
L 84.695465 -83.251293 
L 84.476571 -83.088522 
L 79.131319 -83.031446 
L 77.843514 -83.350647 
L 72.477281 -83.402649 
L 69.888493 -83.088522 
L 68.878835 -83.19168 
z
" style="stroke: #009384; stroke-opacity: 0.7; stroke-width: 1.5"/>
    </defs>
    <g clip-path="url(#pf48d3a6613)">
     <use xlink:href="#mb8192b016b" x="0" y="287.233281" style="fill: #009384; fill-opacity: 0.7; stroke: #009384; stroke-opacity: 0.7; stroke-width: 1.5"/>
    </g>
   </g>
   <g id="PolyCollection_2">
    <defs>
     <path id="m0277113607" d="M 68.878835 -132.445383 
L 68.878835 -83.19168 
L 69.888493 -83.088522 
L 72.477281 -83.402649 
L 77.843514 -83.350647 
L 79.131319 -83.031446 
L 84.476571 -83.088522 
L 84.695465 -83.251293 
L 84.869679 -83.514686 
L 90.476761 -83.987779 
L 91.093717 -84.354754 
L 91.657102 -84.356868 
L 92.767046 -84.677337 
L 93.086036 -84.30402 
L 93.788821 -84.620261 
L 93.936489 -84.832921 
L 94.857398 -84.830384 
L 96.181557 -84.986391 
L 96.515629 -84.722998 
L 97.13122 -84.83123 
L 97.938752 -84.569528 
L 98.948409 -84.520485 
L 101.537198 -84.888728 
L 105.371624 -84.78261 
L 106.903431 -84.83588 
L 108.191236 -85.000765 
L 110.433266 -84.952568 
L 113.536488 -85.208774 
L 113.929596 -84.892533 
L 120.717019 -85.101388 
L 121.826962 -85.145357 
L 122.145953 -85.681022 
L 122.996406 -85.952025 
L 123.917314 -86.163839 
L 125.241473 -86.84325 
L 125.575546 -86.891025 
L 126.998668 -87.161182 
L 128.008326 -87.311693 
L 128.28534 -87.735743 
L 130.597114 -87.931914 
L 134.066636 -88.617244 
L 134.431541 -89.523689 
L 134.683592 -89.943512 
L 135.963347 -90.693105 
L 137.251152 -91.071918 
L 137.378696 -92.258245 
L 139.493183 -93.516867 
L 140.721095 -94.537886 
L 149.776935 -94.862583 
L 150.886878 -95.340327 
L 151.205869 -96.409543 
L 152.056322 -97.198877 
L 152.977231 -97.303727 
L 154.30139 -98.004277 
L 154.635462 -97.958617 
L 156.058585 -98.75683 
L 157.126362 -99.123382 
L 157.345256 -99.493739 
L 157.51947 -99.277275 
L 159.657031 -99.167351 
L 163.126552 -99.217662 
L 163.491457 -99.371132 
L 163.743509 -99.529676 
L 165.023264 -100.238259 
L 166.311068 -100.132986 
L 166.438612 -100.343531 
L 168.553099 -100.350296 
L 169.781011 -100.194289 
L 171.598201 -100.566338 
L 179.946795 -101.262237 
L 180.265786 -101.477433 
L 182.037147 -101.916281 
L 183.695379 -102.126827 
L 186.186279 -101.858783 
L 186.405173 -102.227449 
L 186.579387 -102.39783 
L 188.716947 -102.499298 
L 192.186469 -102.560178 
L 192.551374 -103.41293 
L 192.803425 -103.950286 
L 193.36681 -104.370109 
L 194.08318 -104.712985 
L 195.370985 -104.833055 
L 195.498529 -105.213982 
L 195.646197 -105.425796 
L 197.613016 -106.401577 
L 197.891264 -106.455271 
L 198.840928 -107.101705 
L 199.648459 -107.85933 
L 200.658117 -108.134139 
L 209.325702 -108.624566 
L 211.097064 -109.270155 
L 215.246195 -109.32723 
L 215.465089 -109.429121 
L 215.639303 -110.37573 
L 221.246385 -110.593463 
L 221.61129 -111.12786 
L 221.863342 -111.813189 
L 222.426726 -111.970042 
L 223.53667 -114.045479 
L 224.430901 -114.896117 
L 224.558445 -114.585795 
L 224.706113 -115.070303 
L 226.672932 -115.716737 
L 226.951181 -115.998733 
L 227.285254 -116.164464 
L 227.900844 -116.317088 
L 228.708376 -117.711424 
L 229.718034 -118.80643 
L 232.306822 -119.760226 
L 237.673055 -121.461925 
L 238.385619 -124.32712 
L 240.15698 -124.231994 
L 244.306112 -125.646623 
L 244.525005 -126.661723 
L 244.69922 -127.5669 
L 250.306301 -128.862727 
L 250.671207 -130.936051 
L 250.923258 -131.52245 
L 251.486643 -132.336728 
L 252.596586 -133.510372 
L 253.618362 -134.564368 
L 253.76603 -136.427992 
L 255.732849 -139.13422 
L 256.011097 -140.245715 
L 256.34517 -142.258158 
L 256.960761 -144.709449 
L 257.768292 -145.584186 
L 258.77795 -146.751064 
L 261.366738 -147.92344 
L 266.732971 -150.433075 
L 267.445535 -155.337771 
L 268.020776 -158.074863 
L 269.216897 -160.464005 
L 273.366028 -163.044245 
L 273.584922 -165.469323 
L 273.759136 -166.057836 
L 279.366218 -167.78617 
L 279.731123 -172.986814 
L 279.983175 -172.832075 
L 280.546559 -172.932697 
L 281.656503 -177.380366 
L 282.825946 -180.752054 
L 284.792765 -180.111116 
L 285.071014 -184.337247 
L 285.405087 -185.191267 
L 286.828209 -189.655002 
L 287.837867 -194.417643 
L 290.426655 -195.140601 
L 295.792888 -198.477198 
L 297.080693 -198.426464 
L 297.208237 -198.376153 
L 300.550636 -202.198527 
L 302.425945 -203.931511 
L 302.644838 -203.721388 
L 302.819053 -203.32355 
L 308.426134 -203.209399 
L 308.79104 -202.51519 
L 309.043091 -202.308873 
L 309.606476 -201.651869 
L 310.716419 -202.360452 
L 311.03541 -203.188683 
L 311.885863 -202.382014 
L 312.806772 -203.339193 
L 314.13093 -202.793381 
L 314.465003 -202.251797 
L 315.888125 -202.463611 
L 316.897783 -202.360029 
L 319.486571 -202.00151 
L 324.852804 -202.311409 
L 326.140609 -201.885668 
L 326.268153 -201.89666 
L 328.38264 -201.734735 
L 329.610552 -199.670712 
L 331.485861 -199.187472 
L 331.704755 -199.726096 
L 331.878969 -199.565016 
L 337.486051 -199.242856 
L 337.850956 -199.121941 
L 338.103007 -198.621789 
L 338.666392 -198.146159 
L 339.776336 -196.541278 
L 340.095326 -194.978252 
L 340.945779 -194.178348 
L 341.866688 -192.207761 
L 343.52492 -189.25209 
L 344.948042 -189.079595 
L 345.957699 -187.412142 
L 348.546488 -186.201717 
L 353.912721 -184.130507 
L 355.200526 -182.473201 
L 355.32807 -179.750483 
L 357.442556 -179.358141 
L 357.720805 -177.145299 
L 358.670468 -174.658072 
L 360.545778 -172.848141 
L 360.764671 -170.979021 
L 360.938886 -168.168788 
L 366.545967 -166.037543 
L 367.162924 -162.916142 
L 367.726309 -160.4602 
L 368.836252 -158.835871 
L 369.155243 -157.240714 
L 370.005696 -155.371593 
L 370.926605 -152.810802 
L 372.584836 -147.324357 
L 374.007958 -144.695075 
L 377.606404 -142.51986 
L 381.440831 -139.680878 
L 382.972637 -137.203797 
L 384.260442 -136.457164 
L 384.387986 -133.490078 
L 386.502473 -128.23405 
L 386.780721 -128.285207 
L 387.730385 -127.862847 
L 389.547574 -123.469295 
L 389.605694 -119.774178 
L 389.824588 -119.875646 
L 389.998802 -115.433896 
L 395.605884 -114.145256 
L 396.22284 -109.744516 
L 396.786225 -105.146337 
L 397.896169 -104.211988 
L 398.215159 -100.866513 
L 399.986521 -100.764622 
L 401.644752 -100.655967 
L 403.067875 -96.24804 
L 406.666321 -94.088046 
L 410.500747 -93.987001 
L 412.032554 -94.03393 
L 413.320359 -93.718112 
L 413.447903 -93.664418 
L 413.59557 -93.396797 
L 415.562389 -93.291101 
L 415.840638 -92.523752 
L 416.790301 -91.308253 
L 418.607491 -91.151401 
L 418.665611 -90.023418 
L 419.058719 -90.081339 
L 425.846142 -89.872907 
L 426.956085 -89.826401 
L 427.275076 -89.771017 
L 429.046437 -88.968576 
L 430.704669 -88.655295 
L 432.127791 -88.601179 
L 433.414463 -87.852009 
L 435.726237 -87.590729 
L 439.195759 -87.466854 
L 439.560664 -87.203461 
L 439.812715 -86.664413 
L 441.09247 -86.342676 
L 442.380275 -85.860282 
L 442.507819 -85.391416 
L 442.655487 -85.079403 
L 444.622306 -85.027401 
L 444.900554 -84.818546 
L 445.850218 -84.871817 
L 447.667407 -84.93608 
L 456.334992 -85.240906 
L 458.106354 -85.018945 
L 461.187708 -84.974553 
L 462.255485 -84.814318 
L 462.474379 -84.169153 
L 462.648593 -84.373357 
L 464.786154 -84.373779 
L 468.255675 -84.423668 
L 468.62058 -84.060075 
L 468.872632 -84.959756 
L 469.436016 -86.871577 
L 470.152387 -86.656803 
L 470.54596 -86.598037 
L 471.440191 -87.235592 
L 471.567735 -86.970085 
L 471.715403 -87.607218 
L 473.682222 -88.363152 
L 473.960471 -88.462506 
L 474.294544 -89.569773 
L 474.910134 -90.532025 
L 476.727324 -90.318097 
L 485.394909 -92.547005 
L 487.16627 -93.613262 
L 491.315402 -94.72687 
L 491.534296 -94.722642 
L 491.70851 -94.672331 
L 497.315592 -96.367688 
L 497.680497 -99.04559 
L 497.932548 -99.310674 
L 498.495933 -99.524179 
L 499.212303 -100.806901 
L 499.605876 -103.313576 
L 500.500108 -105.074041 
L 500.627652 -105.837586 
L 500.77532 -107.246296 
L 500.77532 -173.422279 
L 500.77532 -173.422279 
L 500.627652 -170.108935 
L 500.500108 -168.481224 
L 499.605876 -164.854175 
L 499.212303 -161.137074 
L 498.495933 -157.765809 
L 497.932548 -155.398652 
L 497.680497 -154.647368 
L 497.315592 -151.059215 
L 491.70851 -149.529589 
L 491.534296 -149.475473 
L 491.315402 -148.790989 
L 487.16627 -147.57253 
L 485.394909 -145.493287 
L 476.727324 -142.839484 
L 474.910134 -142.948139 
L 474.294544 -141.671336 
L 473.960471 -138.908878 
L 473.682222 -138.972295 
L 471.715403 -138.169854 
L 471.567735 -137.004667 
L 471.440191 -137.484947 
L 470.54596 -136.637269 
L 470.152387 -136.591186 
L 469.436016 -134.730944 
L 468.872632 -132.39465 
L 468.62058 -128.839474 
L 468.255675 -129.264793 
L 464.786154 -129.265638 
L 462.648593 -129.004359 
L 462.474379 -128.801424 
L 462.255485 -129.502397 
L 461.187708 -129.29016 
L 458.106354 -129.284241 
L 456.334992 -129.292274 
L 447.667407 -129.042409 
L 445.850218 -128.821294 
L 444.900554 -128.821294 
L 444.622306 -129.194611 
L 442.655487 -128.8678 
L 442.507819 -129.285509 
L 442.380275 -129.812719 
L 441.09247 -130.873902 
L 439.812715 -131.304717 
L 439.560664 -132.053041 
L 439.195759 -132.370128 
L 435.726237 -133.031359 
L 433.414463 -133.401294 
L 432.127791 -134.37327 
L 430.704669 -134.966434 
L 429.046437 -135.606103 
L 427.275076 -135.672903 
L 426.956085 -135.780712 
L 425.846142 -135.996754 
L 419.058719 -136.36246 
L 418.665611 -136.258879 
L 418.607491 -137.491289 
L 416.790301 -137.439287 
L 415.840638 -139.081795 
L 415.562389 -140.334076 
L 413.59557 -140.816894 
L 413.447903 -141.035472 
L 413.320359 -141.35129 
L 412.032554 -141.507297 
L 410.500747 -141.043928 
L 406.666321 -141.347908 
L 403.067875 -143.984378 
L 401.644752 -148.285341 
L 399.986521 -148.555076 
L 398.215159 -148.974053 
L 397.896169 -151.404628 
L 396.786225 -152.284861 
L 396.22284 -157.042851 
L 395.605884 -161.395817 
L 389.998802 -162.900499 
L 389.824588 -167.496141 
L 389.605694 -167.716411 
L 389.547574 -171.458456 
L 387.730385 -176.010975 
L 386.780721 -176.430375 
L 386.502473 -176.061286 
L 384.387986 -181.32281 
L 384.260442 -184.3939 
L 382.972637 -184.928719 
L 381.440831 -187.242606 
L 377.606404 -190.140356 
L 374.007958 -192.904928 
L 372.584836 -195.423442 
L 370.926605 -201.903847 
L 370.005696 -204.253671 
L 369.155243 -206.066984 
L 368.836252 -207.671019 
L 367.726309 -209.502089 
L 367.162924 -211.694215 
L 366.545967 -214.391988 
L 360.938886 -216.207837 
L 360.764671 -219.234535 
L 360.545778 -221.36874 
L 358.670468 -223.179093 
L 357.720805 -225.565276 
L 357.442556 -227.836462 
L 355.32807 -227.906644 
L 355.200526 -230.522397 
L 353.912721 -232.597412 
L 348.546488 -235.098169 
L 345.957699 -235.941619 
L 344.948042 -237.93546 
L 343.52492 -238.208577 
L 341.866688 -241.491481 
L 340.945779 -243.619767 
L 340.095326 -244.635712 
L 339.776336 -246.567827 
L 338.666392 -248.331251 
L 338.103007 -248.863534 
L 337.850956 -249.422029 
L 337.486051 -249.545905 
L 331.878969 -249.396663 
L 331.704755 -249.137074 
L 331.485861 -248.708796 
L 329.610552 -249.296463 
L 328.38264 -251.556657 
L 326.268153 -251.710127 
L 326.140609 -251.753673 
L 324.852804 -252.065264 
L 319.486571 -251.431513 
L 316.897783 -251.677995 
L 315.888125 -251.940543 
L 314.465003 -252.203936 
L 314.13093 -252.537511 
L 312.806772 -252.918015 
L 311.885863 -251.849222 
L 311.03541 -252.915056 
L 310.716419 -251.714777 
L 309.606476 -250.677693 
L 309.043091 -250.962225 
L 308.79104 -251.430245 
L 308.426134 -251.753673 
L 302.819053 -252.29568 
L 302.644838 -252.957757 
L 302.425945 -253.595312 
L 300.550636 -251.598512 
L 297.208237 -247.828141 
L 297.080693 -247.717372 
L 295.792888 -247.824336 
L 290.426655 -244.538895 
L 287.837867 -244.021832 
L 286.828209 -239.155187 
L 285.405087 -235.008116 
L 285.071014 -233.884784 
L 284.792765 -229.772381 
L 282.825946 -230.248011 
L 281.656503 -227.040363 
L 280.546559 -222.330569 
L 279.983175 -222.55253 
L 279.731123 -223.026469 
L 279.366218 -218.196605 
L 273.759136 -216.270409 
L 273.584922 -215.678937 
L 273.366028 -213.30882 
L 269.216897 -210.940394 
L 268.020776 -208.124242 
L 267.445535 -205.813314 
L 266.732971 -200.016125 
L 261.366738 -197.830341 
L 258.77795 -196.657966 
L 257.768292 -195.653435 
L 256.960761 -194.675117 
L 256.34517 -192.374337 
L 256.011097 -190.462516 
L 255.732849 -189.82792 
L 253.76603 -187.487397 
L 253.618362 -186.105322 
L 252.596586 -185.736656 
L 251.486643 -184.672513 
L 250.923258 -184.434064 
L 250.671207 -184.166866 
L 250.306301 -182.673176 
L 244.69922 -181.541811 
L 244.525005 -180.314897 
L 244.306112 -180.144516 
L 240.15698 -178.781044 
L 238.385619 -179.500619 
L 237.673055 -176.68193 
L 232.306822 -175.466854 
L 229.718034 -174.926538 
L 228.708376 -173.891145 
L 227.900844 -172.343339 
L 227.285254 -172.766967 
L 226.951181 -172.589821 
L 226.672932 -172.304443 
L 224.706113 -171.395461 
L 224.558445 -170.961687 
L 224.430901 -171.325702 
L 223.53667 -170.581606 
L 222.426726 -168.092264 
L 221.863342 -168.313802 
L 221.61129 -167.828871 
L 221.246385 -167.13424 
L 215.639303 -166.757964 
L 215.465089 -165.928465 
L 215.246195 -165.780068 
L 211.097064 -164.921398 
L 209.325702 -164.061881 
L 200.658117 -163.575259 
L 199.648459 -163.35203 
L 198.840928 -162.278586 
L 197.891264 -161.528993 
L 197.613016 -161.268982 
L 195.646197 -160.234011 
L 195.498529 -159.814189 
L 195.370985 -160.230629 
L 194.08318 -159.839978 
L 193.36681 -159.285288 
L 192.803425 -158.32515 
L 192.551374 -157.683789 
L 192.186469 -156.883885 
L 188.716947 -156.769311 
L 186.579387 -156.827233 
L 186.405173 -156.973515 
L 186.186279 -156.502113 
L 183.695379 -157.459715 
L 182.037147 -157.136709 
L 180.265786 -156.755782 
L 179.946795 -156.37697 
L 171.598201 -155.626954 
L 169.781011 -155.196139 
L 168.553099 -155.295915 
L 166.438612 -155.339885 
L 166.311068 -155.178805 
L 165.023264 -155.391887 
L 163.743509 -154.409764 
L 163.491457 -154.929363 
L 163.126552 -155.105663 
L 159.657031 -155.050702 
L 157.51947 -155.052393 
L 157.345256 -155.210936 
L 157.126362 -154.686264 
L 156.058585 -154.260099 
L 154.635462 -153.411575 
L 154.30139 -153.292351 
L 152.977231 -152.436217 
L 152.056322 -152.073892 
L 151.205869 -151.713259 
L 150.886878 -149.790446 
L 149.776935 -149.105961 
L 140.721095 -148.302252 
L 139.493183 -146.745568 
L 137.378696 -145.533875 
L 137.251152 -143.659681 
L 135.963347 -143.017475 
L 134.683592 -141.587203 
L 134.431541 -140.896377 
L 134.066636 -139.884659 
L 130.597114 -138.664509 
L 128.28534 -138.04006 
L 128.008326 -136.570469 
L 126.998668 -136.211527 
L 125.575546 -135.510131 
L 125.241473 -134.778718 
L 123.917314 -133.515445 
L 122.996406 -133.142551 
L 122.145953 -132.61196 
L 121.826962 -132.132947 
L 120.717019 -131.817975 
L 113.929596 -131.763436 
L 113.536488 -132.601813 
L 110.433266 -132.078408 
L 108.191236 -132.285149 
L 106.903431 -131.850952 
L 105.371624 -131.63491 
L 101.537198 -131.053584 
L 98.948409 -130.573304 
L 97.938752 -130.671389 
L 97.13122 -132.932006 
L 96.515629 -132.449611 
L 96.181557 -132.816586 
L 94.857398 -132.92651 
L 93.936489 -133.188634 
L 93.788821 -133.022481 
L 93.086036 -133.769114 
L 92.767046 -134.515748 
L 91.657102 -134.297169 
L 91.093717 -134.664567 
L 90.476761 -134.295055 
L 84.869679 -133.183138 
L 84.695465 -132.921436 
L 84.476571 -132.707931 
L 79.131319 -132.865206 
L 77.843514 -133.180602 
L 72.477281 -132.969633 
L 69.888493 -132.502882 
L 68.878835 -132.445383 
z
" style="stroke: #009384; stroke-opacity: 0.7; stroke-width: 1.5"/>
    </defs>
    <g clip-path="url(#pf48d3a6613)">
     <use xlink:href="#m0277113607" x="0" y="287.233281" style="fill: #009384; fill-opacity: 0.7; stroke: #009384; stroke-opacity: 0.7; stroke-width: 1.5"/>
    </g>
   </g>
   <g id="PolyCollection_3">
    <defs>
     <path id="mc927ca8b0d" d="M 71.814323 -89.909443 
L 71.814323 -42.395313 
L 72.490852 -42.395313 
L 74.546231 -42.395313 
L 77.499983 -42.395313 
L 82.450456 -42.395313 
L 83.867897 -42.395313 
L 88.226492 -42.395313 
L 88.909487 -42.395313 
L 89.525543 -42.395313 
L 89.715871 -42.395313 
L 93.432227 -42.395313 
L 93.55114 -42.395313 
L 93.564319 -42.395313 
L 96.068993 -42.395313 
L 96.665884 -42.395313 
L 96.959171 -42.395313 
L 96.969313 -42.395313 
L 97.061113 -42.395313 
L 99.943959 -42.395313 
L 100.874239 -42.395313 
L 101.550769 -42.395313 
L 103.606147 -42.395313 
L 106.559899 -42.395313 
L 109.935455 -42.395313 
L 111.510372 -42.395313 
L 112.927813 -42.395313 
L 117.286408 -42.395313 
L 117.969403 -42.395313 
L 118.775787 -42.395313 
L 122.492144 -42.395313 
L 122.611057 -42.395313 
L 122.624235 -42.395313 
L 125.12891 -42.395313 
L 125.7258 -42.395313 
L 126.019087 -42.395313 
L 126.029229 -42.395313 
L 126.12103 -42.395313 
L 129.003875 -42.395313 
L 129.934156 -42.395313 
L 130.610685 -42.395313 
L 132.666064 -42.395313 
L 133.115417 -42.395313 
L 135.619815 -42.395313 
L 138.995372 -42.395313 
L 140.570288 -42.395313 
L 141.98773 -42.395313 
L 146.346325 -42.395313 
L 147.02932 -42.395313 
L 147.835704 -42.395313 
L 151.55206 -42.395313 
L 151.670973 -42.395313 
L 151.684152 -42.395313 
L 154.188826 -42.395313 
L 154.785717 -42.395313 
L 155.089146 -42.395313 
L 158.063792 -42.395313 
L 158.994072 -42.395313 
L 159.670602 -42.395313 
L 161.72598 -42.395313 
L 162.175334 -42.395313 
L 164.679732 -42.395313 
L 168.055288 -42.395313 
L 169.608962 -42.395313 
L 169.710904 -42.395313 
L 176.089236 -42.395313 
L 180.744068 -42.395313 
L 184.149062 -42.395313 
L 184.160163 -42.395313 
L 185.577604 -42.395313 
L 187.123708 -42.395313 
L 188.053989 -42.395313 
L 188.730518 -42.395313 
L 189.936199 -42.395313 
L 190.785897 -42.395313 
L 191.23525 -42.395313 
L 191.425578 -42.395313 
L 193.739648 -42.395313 
L 195.141935 -42.395313 
L 195.260848 -42.395313 
L 197.115205 -42.395313 
L 197.778701 -42.395313 
L 198.375591 -42.395313 
L 198.668879 -42.395313 
L 198.770821 -42.395313 
L 209.803985 -42.395313 
L 213.208979 -42.395313 
L 213.22008 -42.395313 
L 214.637521 -42.395313 
L 216.183624 -42.395313 
L 217.113905 -42.395313 
L 217.790434 -42.395313 
L 218.996116 -42.395313 
L 219.679111 -42.395313 
L 219.845813 -42.395313 
L 220.295167 -42.395313 
L 220.485495 -42.395313 
L 222.799565 -42.395313 
L 224.201851 -42.395313 
L 224.320764 -42.395313 
L 226.175121 -42.395313 
L 226.838617 -42.395313 
L 227.435508 -42.395313 
L 227.728795 -42.395313 
L 227.830737 -42.395313 
L 238.863901 -42.395313 
L 242.268895 -42.395313 
L 242.279996 -42.395313 
L 243.697437 -42.395313 
L 246.173822 -42.395313 
L 246.850351 -42.395313 
L 248.056032 -42.395313 
L 248.739028 -42.395313 
L 248.90573 -42.395313 
L 249.355083 -42.395313 
L 249.545411 -42.395313 
L 251.859481 -42.395313 
L 253.261768 -42.395313 
L 253.380681 -42.395313 
L 255.235038 -42.395313 
L 255.898534 -42.395313 
L 256.495424 -42.395313 
L 256.788712 -42.395313 
L 256.890654 -42.395313 
L 259.773499 -42.395313 
L 271.328812 -42.395313 
L 271.339913 -42.395313 
L 272.757354 -42.395313 
L 275.233738 -42.395313 
L 275.910267 -42.395313 
L 277.115949 -42.395313 
L 277.798944 -42.395313 
L 277.965646 -42.395313 
L 278.415 -42.395313 
L 278.605328 -42.395313 
L 280.919398 -42.395313 
L 282.321684 -42.395313 
L 282.440597 -42.395313 
L 282.453776 -42.395313 
L 284.294954 -42.395313 
L 284.95845 -42.395313 
L 285.555341 -42.395313 
L 285.848628 -42.395313 
L 285.95057 -42.395313 
L 288.833416 -42.395313 
L 300.388728 -42.395313 
L 300.399829 -42.395313 
L 301.81727 -42.395313 
L 304.293654 -42.395313 
L 306.175865 -42.395313 
L 306.858861 -42.395313 
L 307.025563 -42.395313 
L 307.474916 -42.395313 
L 307.665244 -42.395313 
L 309.979314 -42.395313 
L 311.381601 -42.395313 
L 311.500514 -42.395313 
L 311.513692 -42.395313 
L 313.354871 -42.395313 
L 314.018367 -42.395313 
L 314.615257 -42.395313 
L 314.908545 -42.395313 
L 315.010487 -42.395313 
L 317.893332 -42.395313 
L 319.500142 -42.395313 
L 329.448645 -42.395313 
L 329.459746 -42.395313 
L 330.877187 -42.395313 
L 335.235782 -42.395313 
L 335.918777 -42.395313 
L 336.534833 -42.395313 
L 336.725161 -42.395313 
L 340.441517 -42.395313 
L 340.56043 -42.395313 
L 340.573609 -42.395313 
L 342.414787 -42.395313 
L 343.078283 -42.395313 
L 343.675174 -42.395313 
L 343.968461 -42.395313 
L 344.070403 -42.395313 
L 346.953249 -42.395313 
L 347.883529 -42.395313 
L 348.560059 -42.395313 
L 350.615437 -42.395313 
L 353.569189 -42.395313 
L 358.508561 -42.395313 
L 358.519662 -42.395313 
L 359.937103 -42.395313 
L 364.295698 -42.395313 
L 364.978693 -42.395313 
L 365.594749 -42.395313 
L 365.785077 -42.395313 
L 369.501434 -42.395313 
L 369.620347 -42.395313 
L 369.633525 -42.395313 
L 371.474704 -42.395313 
L 372.1382 -42.395313 
L 372.73509 -42.395313 
L 373.028377 -42.395313 
L 373.13032 -42.395313 
L 376.013165 -42.395313 
L 376.943446 -42.395313 
L 377.619975 -42.395313 
L 379.675354 -42.395313 
L 382.629106 -42.395313 
L 387.579579 -42.395313 
L 388.99702 -42.395313 
L 393.355615 -42.395313 
L 394.03861 -42.395313 
L 394.654666 -42.395313 
L 394.844994 -42.395313 
L 398.56135 -42.395313 
L 398.680263 -42.395313 
L 398.693442 -42.395313 
L 401.198116 -42.395313 
L 401.795007 -42.395313 
L 402.088294 -42.395313 
L 402.098436 -42.395313 
L 402.190236 -42.395313 
L 405.073082 -42.395313 
L 406.003362 -42.395313 
L 406.679892 -42.395313 
L 408.73527 -42.395313 
L 411.689022 -42.395313 
L 415.064578 -42.395313 
L 416.639495 -42.395313 
L 418.056936 -42.395313 
L 422.415531 -42.395313 
L 423.098526 -42.395313 
L 423.90491 -42.395313 
L 427.621267 -42.395313 
L 427.74018 -42.395313 
L 427.753358 -42.395313 
L 430.258033 -42.395313 
L 430.854923 -42.395313 
L 431.14821 -42.395313 
L 431.158352 -42.395313 
L 431.250153 -42.395313 
L 434.132998 -42.395313 
L 435.063279 -42.395313 
L 435.739808 -42.395313 
L 437.795187 -42.395313 
L 438.24454 -42.395313 
L 440.748938 -42.395313 
L 444.124495 -42.395313 
L 445.699411 -42.395313 
L 447.116853 -42.395313 
L 451.475448 -42.395313 
L 452.158443 -42.395313 
L 452.964827 -42.395313 
L 456.681183 -42.395313 
L 456.800096 -42.395313 
L 456.813275 -42.395313 
L 459.317949 -42.395313 
L 459.91484 -42.395313 
L 460.218269 -42.395313 
L 463.192915 -42.395313 
L 464.123195 -42.395313 
L 464.799725 -42.395313 
L 466.855103 -42.395313 
L 467.304457 -42.395313 
L 469.808855 -42.395313 
L 473.184411 -42.395313 
L 474.738085 -42.395313 
L 474.840027 -42.395313 
L 481.218359 -42.395313 
L 485.873191 -42.395313 
L 489.278185 -42.395313 
L 489.289286 -42.395313 
L 490.706727 -42.395313 
L 492.252831 -42.395313 
L 493.183112 -42.395313 
L 493.859641 -42.395313 
L 495.065322 -42.395313 
L 495.91502 -42.395313 
L 496.364373 -42.395313 
L 496.554701 -42.395313 
L 498.868771 -42.395313 
L 500.271058 -42.395313 
L 500.389971 -42.395313 
L 502.244328 -42.395313 
L 502.907824 -42.395313 
L 503.504714 -42.395313 
L 503.798002 -42.395313 
L 503.899944 -42.395313 
L 514.933108 -42.395313 
L 518.338102 -42.395313 
L 518.349203 -42.395313 
L 519.766644 -42.395313 
L 521.312747 -42.395313 
L 522.243028 -42.395313 
L 522.919557 -42.395313 
L 524.125239 -42.395313 
L 524.808234 -42.395313 
L 524.974936 -42.395313 
L 525.42429 -42.395313 
L 525.42429 -109.963694 
L 525.42429 -109.963694 
L 524.974936 -109.301476 
L 524.808234 -109.082474 
L 524.125239 -109.838115 
L 522.919557 -109.082474 
L 522.243028 -109.563929 
L 521.312747 -109.895473 
L 519.766644 -109.173725 
L 518.349203 -107.376525 
L 518.338102 -105.527182 
L 514.933108 -105.469824 
L 503.899944 -103.549653 
L 503.798002 -102.490278 
L 503.504714 -102.166122 
L 502.907824 -103.028222 
L 502.244328 -100.935109 
L 500.389971 -99.08707 
L 500.271058 -96.854474 
L 498.868771 -95.42358 
L 496.554701 -93.265288 
L 496.364373 -92.178104 
L 495.91502 -92.127699 
L 495.065322 -90.874091 
L 493.859641 -91.037473 
L 493.183112 -91.421159 
L 492.252831 -91.521969 
L 490.706727 -90.223171 
L 489.289286 -90.233165 
L 489.278185 -91.146539 
L 485.873191 -91.251694 
L 481.218359 -91.747054 
L 474.840027 -92.56266 
L 474.738085 -92.457939 
L 473.184411 -92.622624 
L 469.808855 -93.599004 
L 467.304457 -94.700094 
L 466.855103 -94.970369 
L 464.799725 -95.087691 
L 464.123195 -96.078845 
L 463.192915 -95.915029 
L 460.218269 -95.205882 
L 459.91484 -95.25368 
L 459.317949 -95.578705 
L 456.813275 -95.528735 
L 456.800096 -96.549871 
L 456.681183 -96.492948 
L 452.964827 -97.252935 
L 452.158443 -96.653289 
L 451.475448 -97.144738 
L 447.116853 -97.302036 
L 445.699411 -97.408495 
L 444.124495 -97.838676 
L 440.748938 -97.725265 
L 438.24454 -97.831724 
L 437.795187 -97.27075 
L 435.739808 -97.219476 
L 435.063279 -97.157339 
L 434.132998 -97.588823 
L 431.250153 -97.534508 
L 431.158352 -97.69311 
L 431.14821 -97.363304 
L 430.854923 -96.50077 
L 430.258033 -96.009755 
L 427.753358 -95.896779 
L 427.74018 -96.164881 
L 427.621267 -95.842028 
L 423.90491 -96.553782 
L 423.098526 -96.50077 
L 422.415531 -96.447758 
L 418.056936 -96.229191 
L 416.639495 -96.335216 
L 415.064578 -96.383448 
L 411.689022 -96.328698 
L 408.73527 -96.007583 
L 406.679892 -96.063637 
L 406.003362 -95.478764 
L 405.073082 -95.640843 
L 402.190236 -95.149394 
L 402.098436 -94.328574 
L 402.088294 -95.145483 
L 401.795007 -99.99914 
L 401.198116 -99.674549 
L 398.693442 -99.510733 
L 398.680263 -99.349523 
L 398.56135 -98.647329 
L 394.844994 -98.977134 
L 394.654666 -98.276678 
L 394.03861 -97.561448 
L 393.355615 -97.611419 
L 388.99702 -98.536959 
L 387.579579 -99.079248 
L 382.629106 -98.968444 
L 379.675354 -98.970617 
L 377.619975 -99.070558 
L 376.943446 -98.680788 
L 376.013165 -98.520013 
L 373.13032 -97.809563 
L 373.028377 -98.084618 
L 372.73509 -98.247565 
L 372.1382 -99.439036 
L 371.474704 -99.433821 
L 369.633525 -99.433821 
L 369.620347 -98.83461 
L 369.501434 -98.236267 
L 365.785077 -98.286672 
L 365.594749 -97.740908 
L 364.978693 -96.597669 
L 364.295698 -95.716016 
L 359.937103 -95.660396 
L 358.519662 -94.461104 
L 358.508561 -94.242972 
L 353.569189 -94.906494 
L 350.615437 -95.183287 
L 348.560059 -95.839421 
L 347.883529 -95.568711 
L 346.953249 -95.404461 
L 344.070403 -94.925613 
L 343.968461 -95.248031 
L 343.675174 -94.379413 
L 343.078283 -94.384628 
L 342.414787 -94.278603 
L 340.573609 -94.228633 
L 340.56043 -94.761796 
L 340.441517 -94.385931 
L 336.725161 -94.335526 
L 336.534833 -95.149828 
L 335.918777 -94.988619 
L 335.235782 -94.828279 
L 330.877187 -94.77179 
L 329.459746 -94.068727 
L 329.448645 -94.008763 
L 319.500142 -93.798452 
L 317.893332 -94.783957 
L 315.010487 -94.947774 
L 314.908545 -95.057709 
L 314.615257 -95.115935 
L 314.018367 -94.95603 
L 313.354871 -95.278882 
L 311.513692 -94.518462 
L 311.500514 -94.570605 
L 311.381601 -94.518027 
L 309.979314 -94.739201 
L 307.665244 -95.22196 
L 307.474916 -95.22109 
L 307.025563 -95.221525 
L 306.858861 -95.328853 
L 306.175865 -94.618403 
L 304.293654 -94.0709 
L 301.81727 -93.964441 
L 300.399829 -93.806708 
L 300.388728 -93.859286 
L 288.833416 -93.530784 
L 285.95057 -88.245208 
L 285.848628 -88.469423 
L 285.555341 -88.631067 
L 284.95845 -88.846592 
L 284.294954 -89.512286 
L 282.453776 -89.291981 
L 282.440597 -89.18335 
L 282.321684 -89.131641 
L 280.919398 -89.130772 
L 278.605328 -88.154826 
L 278.415 -87.561264 
L 277.965646 -87.722038 
L 277.798944 -87.773747 
L 277.115949 -88.49115 
L 275.910267 -88.218267 
L 275.233738 -88.268238 
L 272.757354 -89.073415 
L 271.339913 -88.801401 
L 271.328812 -88.855282 
L 259.773499 -87.602109 
L 256.890654 -86.802146 
L 256.788712 -87.35834 
L 256.495424 -87.301851 
L 255.898534 -88.005784 
L 255.235038 -87.955813 
L 253.380681 -87.844575 
L 253.261768 -88.008826 
L 251.859481 -87.954944 
L 249.545411 -87.739419 
L 249.355083 -88.069225 
L 248.90573 -88.051844 
L 248.739028 -87.554311 
L 248.056032 -87.834581 
L 246.850351 -87.018106 
L 246.173822 -87.17975 
L 243.697437 -87.342262 
L 242.279996 -87.012457 
L 242.268895 -87.188875 
L 238.863901 -87.079809 
L 227.830737 -86.971612 
L 227.728795 -86.479293 
L 227.435508 -87.348346 
L 226.838617 -86.543603 
L 226.175121 -86.599657 
L 224.320764 -86.703509 
L 224.201851 -86.106036 
L 222.799565 -86.330686 
L 220.485495 -86.540996 
L 220.295167 -85.893552 
L 219.845813 -85.950041 
L 219.679111 -86.062583 
L 218.996116 -86.223358 
L 217.790434 -85.29521 
L 217.113905 -86.0565 
L 216.183624 -86.650931 
L 214.637521 -86.700902 
L 213.22008 -86.753045 
L 213.208979 -86.590098 
L 209.803985 -86.587925 
L 198.770821 -86.535347 
L 198.668879 -87.336179 
L 198.375591 -87.062428 
L 197.778701 -86.750003 
L 197.115205 -87.5139 
L 195.260848 -87.778092 
L 195.141935 -87.941908 
L 193.739648 -88.05054 
L 191.425578 -88.103987 
L 191.23525 -88.211315 
L 190.785897 -88.099641 
L 189.936199 -88.047064 
L 188.730518 -87.50912 
L 188.053989 -87.782003 
L 187.123708 -87.773747 
L 185.577604 -87.879771 
L 184.160163 -87.877164 
L 184.149062 -88.073135 
L 180.744068 -88.723186 
L 176.089236 -89.535316 
L 169.710904 -90.302689 
L 169.608962 -90.08586 
L 168.055288 -90.960562 
L 164.679732 -91.060068 
L 162.175334 -91.008794 
L 161.72598 -91.011836 
L 159.670602 -90.190581 
L 158.994072 -90.460422 
L 158.063792 -91.223884 
L 155.089146 -90.364826 
L 154.785717 -90.307903 
L 154.188826 -90.195796 
L 151.684152 -90.304427 
L 151.670973 -90.356136 
L 151.55206 -89.8573 
L 147.835704 -89.912485 
L 147.02932 -89.154671 
L 146.346325 -90.14148 
L 141.98773 -90.519518 
L 140.570288 -90.519952 
L 138.995372 -90.572964 
L 135.619815 -90.790227 
L 133.115417 -90.459987 
L 132.666064 -90.09542 
L 130.610685 -90.093682 
L 129.934156 -90.235337 
L 129.003875 -91.103955 
L 126.12103 -91.64972 
L 126.029229 -91.650155 
L 126.019087 -91.706208 
L 125.7258 -91.955626 
L 125.12891 -92.010377 
L 122.624235 -92.066431 
L 122.611057 -92.120312 
L 122.492144 -91.142628 
L 118.775787 -91.411165 
L 117.969403 -91.353808 
L 117.286408 -91.35598 
L 112.927813 -91.360326 
L 111.510372 -91.298623 
L 109.935455 -90.977508 
L 106.559899 -90.973163 
L 103.606147 -90.918847 
L 101.550769 -91.5211 
L 100.874239 -92.01168 
L 99.943959 -92.012984 
L 97.061113 -90.978377 
L 96.969313 -90.493446 
L 96.959171 -91.096568 
L 96.665884 -91.424201 
L 96.068993 -91.372492 
L 93.564319 -91.101783 
L 93.55114 -90.882781 
L 93.432227 -89.917264 
L 89.715871 -90.951871 
L 89.525543 -90.458249 
L 88.909487 -90.348749 
L 88.226492 -89.972015 
L 83.867897 -89.918568 
L 82.450456 -89.753448 
L 77.499983 -90.072825 
L 74.546231 -89.856431 
L 72.490852 -89.857734 
L 71.814323 -89.909443 
z
" style="stroke: #b85741; stroke-opacity: 0.7; stroke-width: 1.5"/>
    </defs>
    <g clip-path="url(#pf48d3a6613)">
     <use xlink:href="#mc927ca8b0d" x="0" y="287.233281" style="fill: #b85741; fill-opacity: 0.7; stroke: #b85741; stroke-opacity: 0.7; stroke-width: 1.5"/>
    </g>
   </g>
   <g id="PolyCollection_4">
    <defs>
     <path id="m65c36f3b42" d="M 71.814323 -138.40343 
L 71.814323 -89.909443 
L 72.490852 -89.857734 
L 74.546231 -89.856431 
L 77.499983 -90.072825 
L 82.450456 -89.753448 
L 83.867897 -89.918568 
L 88.226492 -89.972015 
L 88.909487 -90.348749 
L 89.525543 -90.458249 
L 89.715871 -90.951871 
L 93.432227 -89.917264 
L 93.55114 -90.882781 
L 93.564319 -91.101783 
L 96.068993 -91.372492 
L 96.665884 -91.424201 
L 96.959171 -91.096568 
L 96.969313 -90.493446 
L 97.061113 -90.978377 
L 99.943959 -92.012984 
L 100.874239 -92.01168 
L 101.550769 -91.5211 
L 103.606147 -90.918847 
L 106.559899 -90.973163 
L 109.935455 -90.977508 
L 111.510372 -91.298623 
L 112.927813 -91.360326 
L 117.286408 -91.35598 
L 117.969403 -91.353808 
L 118.775787 -91.411165 
L 122.492144 -91.142628 
L 122.611057 -92.120312 
L 122.624235 -92.066431 
L 125.12891 -92.010377 
L 125.7258 -91.955626 
L 126.019087 -91.706208 
L 126.029229 -91.650155 
L 126.12103 -91.64972 
L 129.003875 -91.103955 
L 129.934156 -90.235337 
L 130.610685 -90.093682 
L 132.666064 -90.09542 
L 133.115417 -90.459987 
L 135.619815 -90.790227 
L 138.995372 -90.572964 
L 140.570288 -90.519952 
L 141.98773 -90.519518 
L 146.346325 -90.14148 
L 147.02932 -89.154671 
L 147.835704 -89.912485 
L 151.55206 -89.8573 
L 151.670973 -90.356136 
L 151.684152 -90.304427 
L 154.188826 -90.195796 
L 154.785717 -90.307903 
L 155.089146 -90.364826 
L 158.063792 -91.223884 
L 158.994072 -90.460422 
L 159.670602 -90.190581 
L 161.72598 -91.011836 
L 162.175334 -91.008794 
L 164.679732 -91.060068 
L 168.055288 -90.960562 
L 169.608962 -90.08586 
L 169.710904 -90.302689 
L 176.089236 -89.535316 
L 180.744068 -88.723186 
L 184.149062 -88.073135 
L 184.160163 -87.877164 
L 185.577604 -87.879771 
L 187.123708 -87.773747 
L 188.053989 -87.782003 
L 188.730518 -87.50912 
L 189.936199 -88.047064 
L 190.785897 -88.099641 
L 191.23525 -88.211315 
L 191.425578 -88.103987 
L 193.739648 -88.05054 
L 195.141935 -87.941908 
L 195.260848 -87.778092 
L 197.115205 -87.5139 
L 197.778701 -86.750003 
L 198.375591 -87.062428 
L 198.668879 -87.336179 
L 198.770821 -86.535347 
L 209.803985 -86.587925 
L 213.208979 -86.590098 
L 213.22008 -86.753045 
L 214.637521 -86.700902 
L 216.183624 -86.650931 
L 217.113905 -86.0565 
L 217.790434 -85.29521 
L 218.996116 -86.223358 
L 219.679111 -86.062583 
L 219.845813 -85.950041 
L 220.295167 -85.893552 
L 220.485495 -86.540996 
L 222.799565 -86.330686 
L 224.201851 -86.106036 
L 224.320764 -86.703509 
L 226.175121 -86.599657 
L 226.838617 -86.543603 
L 227.435508 -87.348346 
L 227.728795 -86.479293 
L 227.830737 -86.971612 
L 238.863901 -87.079809 
L 242.268895 -87.188875 
L 242.279996 -87.012457 
L 243.697437 -87.342262 
L 246.173822 -87.17975 
L 246.850351 -87.018106 
L 248.056032 -87.834581 
L 248.739028 -87.554311 
L 248.90573 -88.051844 
L 249.355083 -88.069225 
L 249.545411 -87.739419 
L 251.859481 -87.954944 
L 253.261768 -88.008826 
L 253.380681 -87.844575 
L 255.235038 -87.955813 
L 255.898534 -88.005784 
L 256.495424 -87.301851 
L 256.788712 -87.35834 
L 256.890654 -86.802146 
L 259.773499 -87.602109 
L 271.328812 -88.855282 
L 271.339913 -88.801401 
L 272.757354 -89.073415 
L 275.233738 -88.268238 
L 275.910267 -88.218267 
L 277.115949 -88.49115 
L 277.798944 -87.773747 
L 277.965646 -87.722038 
L 278.415 -87.561264 
L 278.605328 -88.154826 
L 280.919398 -89.130772 
L 282.321684 -89.131641 
L 282.440597 -89.18335 
L 282.453776 -89.291981 
L 284.294954 -89.512286 
L 284.95845 -88.846592 
L 285.555341 -88.631067 
L 285.848628 -88.469423 
L 285.95057 -88.245208 
L 288.833416 -93.530784 
L 300.388728 -93.859286 
L 300.399829 -93.806708 
L 301.81727 -93.964441 
L 304.293654 -94.0709 
L 306.175865 -94.618403 
L 306.858861 -95.328853 
L 307.025563 -95.221525 
L 307.474916 -95.22109 
L 307.665244 -95.22196 
L 309.979314 -94.739201 
L 311.381601 -94.518027 
L 311.500514 -94.570605 
L 311.513692 -94.518462 
L 313.354871 -95.278882 
L 314.018367 -94.95603 
L 314.615257 -95.115935 
L 314.908545 -95.057709 
L 315.010487 -94.947774 
L 317.893332 -94.783957 
L 319.500142 -93.798452 
L 329.448645 -94.008763 
L 329.459746 -94.068727 
L 330.877187 -94.77179 
L 335.235782 -94.828279 
L 335.918777 -94.988619 
L 336.534833 -95.149828 
L 336.725161 -94.335526 
L 340.441517 -94.385931 
L 340.56043 -94.761796 
L 340.573609 -94.228633 
L 342.414787 -94.278603 
L 343.078283 -94.384628 
L 343.675174 -94.379413 
L 343.968461 -95.248031 
L 344.070403 -94.925613 
L 346.953249 -95.404461 
L 347.883529 -95.568711 
L 348.560059 -95.839421 
L 350.615437 -95.183287 
L 353.569189 -94.906494 
L 358.508561 -94.242972 
L 358.519662 -94.461104 
L 359.937103 -95.660396 
L 364.295698 -95.716016 
L 364.978693 -96.597669 
L 365.594749 -97.740908 
L 365.785077 -98.286672 
L 369.501434 -98.236267 
L 369.620347 -98.83461 
L 369.633525 -99.433821 
L 371.474704 -99.433821 
L 372.1382 -99.439036 
L 372.73509 -98.247565 
L 373.028377 -98.084618 
L 373.13032 -97.809563 
L 376.013165 -98.520013 
L 376.943446 -98.680788 
L 377.619975 -99.070558 
L 379.675354 -98.970617 
L 382.629106 -98.968444 
L 387.579579 -99.079248 
L 388.99702 -98.536959 
L 393.355615 -97.611419 
L 394.03861 -97.561448 
L 394.654666 -98.276678 
L 394.844994 -98.977134 
L 398.56135 -98.647329 
L 398.680263 -99.349523 
L 398.693442 -99.510733 
L 401.198116 -99.674549 
L 401.795007 -99.99914 
L 402.088294 -95.145483 
L 402.098436 -94.328574 
L 402.190236 -95.149394 
L 405.073082 -95.640843 
L 406.003362 -95.478764 
L 406.679892 -96.063637 
L 408.73527 -96.007583 
L 411.689022 -96.328698 
L 415.064578 -96.383448 
L 416.639495 -96.335216 
L 418.056936 -96.229191 
L 422.415531 -96.447758 
L 423.098526 -96.50077 
L 423.90491 -96.553782 
L 427.621267 -95.842028 
L 427.74018 -96.164881 
L 427.753358 -95.896779 
L 430.258033 -96.009755 
L 430.854923 -96.50077 
L 431.14821 -97.363304 
L 431.158352 -97.69311 
L 431.250153 -97.534508 
L 434.132998 -97.588823 
L 435.063279 -97.157339 
L 435.739808 -97.219476 
L 437.795187 -97.27075 
L 438.24454 -97.831724 
L 440.748938 -97.725265 
L 444.124495 -97.838676 
L 445.699411 -97.408495 
L 447.116853 -97.302036 
L 451.475448 -97.144738 
L 452.158443 -96.653289 
L 452.964827 -97.252935 
L 456.681183 -96.492948 
L 456.800096 -96.549871 
L 456.813275 -95.528735 
L 459.317949 -95.578705 
L 459.91484 -95.25368 
L 460.218269 -95.205882 
L 463.192915 -95.915029 
L 464.123195 -96.078845 
L 464.799725 -95.087691 
L 466.855103 -94.970369 
L 467.304457 -94.700094 
L 469.808855 -93.599004 
L 473.184411 -92.622624 
L 474.738085 -92.457939 
L 474.840027 -92.56266 
L 481.218359 -91.747054 
L 485.873191 -91.251694 
L 489.278185 -91.146539 
L 489.289286 -90.233165 
L 490.706727 -90.223171 
L 492.252831 -91.521969 
L 493.183112 -91.421159 
L 493.859641 -91.037473 
L 495.065322 -90.874091 
L 495.91502 -92.127699 
L 496.364373 -92.178104 
L 496.554701 -93.265288 
L 498.868771 -95.42358 
L 500.271058 -96.854474 
L 500.389971 -99.08707 
L 502.244328 -100.935109 
L 502.907824 -103.028222 
L 503.504714 -102.166122 
L 503.798002 -102.490278 
L 503.899944 -103.549653 
L 514.933108 -105.469824 
L 518.338102 -105.527182 
L 518.349203 -107.376525 
L 519.766644 -109.173725 
L 521.312747 -109.895473 
L 522.243028 -109.563929 
L 522.919557 -109.082474 
L 522.919557 -185.246217 
L 522.919557 -185.246217 
L 522.243028 -185.512147 
L 521.312747 -185.946673 
L 519.766644 -184.950305 
L 518.349203 -183.701042 
L 518.338102 -179.928921 
L 514.933108 -179.538716 
L 503.899944 -179.37012 
L 503.798002 -177.440824 
L 503.504714 -175.278187 
L 502.907824 -175.870447 
L 502.244328 -171.58515 
L 500.389971 -166.821874 
L 500.271058 -162.523107 
L 498.868771 -158.436389 
L 496.554701 -155.345604 
L 496.364373 -152.177039 
L 495.91502 -151.625626 
L 495.065322 -150.318571 
L 493.859641 -149.983986 
L 493.183112 -148.841617 
L 492.252831 -148.783825 
L 490.706727 -145.799065 
L 489.289286 -145.809493 
L 489.278185 -146.773707 
L 485.873191 -146.871041 
L 481.218359 -147.423323 
L 474.840027 -148.453585 
L 474.738085 -147.543253 
L 473.184411 -147.758343 
L 469.808855 -148.73342 
L 467.304457 -152.109688 
L 466.855103 -151.686459 
L 464.799725 -151.417922 
L 464.123195 -152.141408 
L 463.192915 -151.812472 
L 460.218269 -150.563209 
L 459.91484 -150.449363 
L 459.317949 -150.448494 
L 456.813275 -150.028308 
L 456.800096 -151.659084 
L 456.681183 -151.816383 
L 452.964827 -152.141843 
L 452.158443 -151.328844 
L 451.475448 -151.822901 
L 447.116853 -152.612869 
L 445.699411 -151.97064 
L 444.124495 -152.887924 
L 440.748938 -152.503369 
L 438.24454 -152.124462 
L 437.795187 -151.779448 
L 435.739808 -152.356064 
L 435.063279 -155.944816 
L 434.132998 -156.48189 
L 431.250153 -157.109346 
L 431.158352 -159.360191 
L 431.14821 -161.092212 
L 430.854923 -161.10829 
L 430.258033 -161.102641 
L 427.753358 -157.666843 
L 427.74018 -160.728079 
L 427.621267 -161.254291 
L 423.90491 -161.804401 
L 423.098526 -162.348427 
L 422.415531 -163.127533 
L 418.056936 -162.387535 
L 416.639495 -164.060026 
L 415.064578 -165.038579 
L 411.689022 -167.759582 
L 408.73527 -169.330828 
L 406.679892 -171.13107 
L 406.003362 -171.530834 
L 405.073082 -175.088299 
L 402.190236 -176.069894 
L 402.098436 -175.764422 
L 402.088294 -179.411835 
L 401.795007 -186.235633 
L 401.198116 -188.066726 
L 398.693442 -190.756443 
L 398.680263 -189.837855 
L 398.56135 -189.799182 
L 394.844994 -191.766282 
L 394.654666 -194.20267 
L 394.03861 -194.512922 
L 393.355615 -195.870816 
L 388.99702 -200.385543 
L 387.579579 -202.477786 
L 382.629106 -202.979229 
L 379.675354 -203.912591 
L 377.619975 -206.868238 
L 376.943446 -210.485234 
L 376.013165 -210.865879 
L 373.13032 -210.270143 
L 373.028377 -211.632383 
L 372.73509 -212.228553 
L 372.1382 -214.071378 
L 371.474704 -214.495041 
L 369.633525 -214.445505 
L 369.620347 -216.161449 
L 369.501434 -219.200959 
L 365.785077 -219.902719 
L 365.594749 -221.304935 
L 364.978693 -221.661246 
L 364.295698 -219.215733 
L 359.937103 -219.322192 
L 358.519662 -218.286282 
L 358.508561 -219.663295 
L 353.569189 -222.801877 
L 350.615437 -223.512762 
L 348.560059 -224.446993 
L 347.883529 -224.442648 
L 346.953249 -223.938163 
L 344.070403 -222.201797 
L 343.968461 -222.523346 
L 343.675174 -221.814199 
L 343.078283 -222.146612 
L 342.414787 -222.412542 
L 340.573609 -221.572603 
L 340.56043 -222.051451 
L 340.441517 -222.011909 
L 336.725161 -222.072308 
L 336.534833 -222.607644 
L 335.918777 -222.177898 
L 335.235782 -220.51149 
L 330.877187 -217.074823 
L 329.459746 -215.392338 
L 329.448645 -213.793281 
L 319.500142 -212.14382 
L 317.893332 -211.069237 
L 315.010487 -210.51652 
L 314.908545 -209.536663 
L 314.615257 -208.821433 
L 314.018367 -205.917495 
L 313.354871 -205.4456 
L 311.513692 -204.790334 
L 311.500514 -204.348421 
L 311.381601 -203.790055 
L 309.979314 -202.911009 
L 307.665244 -201.822955 
L 307.474916 -201.16769 
L 307.025563 -198.721307 
L 306.858861 -197.371235 
L 306.175865 -194.703679 
L 304.293654 -193.789436 
L 301.81727 -191.055397 
L 300.399829 -189.043541 
L 300.388728 -187.984601 
L 288.833416 -185.477385 
L 285.95057 -177.51339 
L 285.848628 -175.094383 
L 285.555341 -171.916259 
L 284.95845 -171.137588 
L 284.294954 -170.97464 
L 282.453776 -169.281292 
L 282.440597 -166.201805 
L 282.321684 -166.09187 
L 280.919398 -164.886495 
L 278.605328 -161.744871 
L 278.415 -159.817747 
L 277.965646 -159.265899 
L 277.798944 -159.205934 
L 277.115949 -156.902511 
L 275.910267 -152.774947 
L 275.233738 -153.045223 
L 272.757354 -152.873585 
L 271.339913 -151.401845 
L 271.328812 -151.128962 
L 259.773499 -149.812348 
L 256.890654 -149.185761 
L 256.788712 -149.744562 
L 256.495424 -147.970392 
L 255.898534 -144.876566 
L 255.235038 -144.926102 
L 253.380681 -142.809525 
L 253.261768 -142.238992 
L 251.859481 -141.964371 
L 249.545411 -141.97002 
L 249.355083 -141.812287 
L 248.90573 -140.473078 
L 248.739028 -137.343186 
L 248.056032 -137.677337 
L 246.850351 -136.47761 
L 246.173822 -136.539747 
L 243.697437 -136.813499 
L 242.279996 -136.856517 
L 242.268895 -136.978618 
L 238.863901 -136.653593 
L 227.830737 -137.140697 
L 227.728795 -136.490646 
L 227.435508 -137.083774 
L 226.838617 -136.174745 
L 226.175121 -135.681123 
L 224.320764 -135.782803 
L 224.201851 -135.464295 
L 222.799565 -135.908815 
L 220.485495 -136.391574 
L 220.295167 -135.364354 
L 219.845813 -135.366526 
L 219.679111 -135.478634 
L 218.996116 -134.986316 
L 217.790434 -134.06121 
L 217.113905 -136.071762 
L 216.183624 -136.557563 
L 214.637521 -136.768742 
L 213.22008 -137.748164 
L 213.208979 -137.962386 
L 209.803985 -138.070583 
L 198.770821 -138.561597 
L 198.668879 -139.312458 
L 198.375591 -139.590555 
L 197.778701 -139.279 
L 197.115205 -139.766973 
L 195.260848 -139.650085 
L 195.141935 -139.272482 
L 193.739648 -139.542323 
L 191.425578 -138.817099 
L 191.23525 -138.808408 
L 190.785897 -138.697169 
L 189.936199 -138.691086 
L 188.730518 -137.506568 
L 188.053989 -137.944136 
L 187.123708 -138.206155 
L 185.577604 -138.200941 
L 184.160163 -137.979767 
L 184.149062 -138.44471 
L 180.744068 -139.147338 
L 176.089236 -140.006831 
L 169.710904 -139.806515 
L 169.608962 -139.641395 
L 168.055288 -139.092154 
L 164.679732 -139.029582 
L 162.175334 -138.92095 
L 161.72598 -138.212238 
L 159.670602 -137.450948 
L 158.994072 -137.240203 
L 158.063792 -137.133744 
L 155.089146 -136.602753 
L 154.785717 -136.658373 
L 154.188826 -136.54583 
L 151.684152 -136.064375 
L 151.670973 -135.565539 
L 151.55206 -135.504271 
L 147.835704 -135.016298 
L 147.02932 -134.583945 
L 146.346325 -134.761666 
L 141.98773 -135.088864 
L 140.570288 -134.324533 
L 138.995372 -134.75819 
L 135.619815 -134.589594 
L 133.115417 -135.297002 
L 132.666064 -134.929828 
L 130.610685 -135.6846 
L 129.934156 -135.609427 
L 129.003875 -136.637081 
L 126.12103 -137.338406 
L 126.029229 -137.280614 
L 126.019087 -136.914309 
L 125.7258 -137.275834 
L 125.12891 -138.047987 
L 122.624235 -138.005838 
L 122.611057 -139.095195 
L 122.492144 -138.392132 
L 118.775787 -138.872718 
L 117.969403 -138.648068 
L 117.286408 -139.304637 
L 112.927813 -139.088243 
L 111.510372 -139.025671 
L 109.935455 -138.754527 
L 106.559899 -139.671812 
L 103.606147 -139.620103 
L 101.550769 -140.765948 
L 100.874239 -141.632828 
L 99.943959 -141.956985 
L 97.061113 -139.456287 
L 96.969313 -140.508709 
L 96.959171 -141.439464 
L 96.665884 -140.788978 
L 96.068993 -140.950187 
L 93.564319 -140.407464 
L 93.55114 -140.033337 
L 93.432227 -138.900093 
L 89.715871 -139.223381 
L 89.525543 -138.564204 
L 88.909487 -139.054784 
L 88.226492 -139.271178 
L 83.867897 -139.161678 
L 82.450456 -138.833176 
L 77.499983 -139.859961 
L 74.546231 -138.71933 
L 72.490852 -138.723241 
L 71.814323 -138.40343 
z
" style="stroke: #b85741; stroke-opacity: 0.7; stroke-width: 1.5"/>
    </defs>
    <g clip-path="url(#pf48d3a6613)">
     <use xlink:href="#m65c36f3b42" x="0" y="287.233281" style="fill: #b85741; fill-opacity: 0.7; stroke: #b85741; stroke-opacity: 0.7; stroke-width: 1.5"/>
    </g>
   </g>
   <g id="matplotlib.axis_1">
    <g id="xtick_1">
     <g id="line2d_1">
      <defs>
       <path id="m33f5716c8d" d="M 0 0 
L 0 3.5 
" style="stroke: #000000; stroke-width: 0.8"/>
      </defs>
      <g>
       <use xlink:href="#m33f5716c8d" x="109.600685" y="244.837969" style="stroke: #000000; stroke-width: 0.8"/>
      </g>
     </g>
     <g id="text_1">
      <!-- −5 -->
      <g transform="translate(100.755373 260.956094) scale(0.12 -0.12)">
       <defs>
        <path id="DejaVuSans-2212" d="M 678 2272 
L 4684 2272 
L 4684 1741 
L 678 1741 
L 678 2272 
z
" transform="scale(0.015625)"/>
        <path id="DejaVuSans-35" d="M 691 4666 
L 3169 4666 
L 3169 4134 
L 1269 4134 
L 1269 2991 
Q 1406 3038 1543 3061 
Q 1681 3084 1819 3084 
Q 2600 3084 3056 2656 
Q 3513 2228 3513 1497 
Q 3513 744 3044 326 
Q 2575 -91 1722 -91 
Q 1428 -91 1123 -41 
Q 819 9 494 109 
L 494 744 
Q 775 591 1075 516 
Q 1375 441 1709 441 
Q 2250 441 2565 725 
Q 2881 1009 2881 1497 
Q 2881 1984 2565 2268 
Q 2250 2553 1709 2553 
Q 1456 2553 1204 2497 
Q 953 2441 691 2322 
L 691 4666 
z
" transform="scale(0.015625)"/>
       </defs>
       <use xlink:href="#DejaVuSans-2212"/>
       <use xlink:href="#DejaVuSans-35" x="83.789062"/>
      </g>
     </g>
    </g>
    <g id="xtick_2">
     <g id="line2d_2">
      <g>
       <use xlink:href="#m33f5716c8d" x="182.250476" y="244.837969" style="stroke: #000000; stroke-width: 0.8"/>
      </g>
     </g>
     <g id="text_2">
      <!-- 0 -->
      <g transform="translate(178.432976 260.956094) scale(0.12 -0.12)">
       <defs>
        <path id="DejaVuSans-30" d="M 2034 4250 
Q 1547 4250 1301 3770 
Q 1056 3291 1056 2328 
Q 1056 1369 1301 889 
Q 1547 409 2034 409 
Q 2525 409 2770 889 
Q 3016 1369 3016 2328 
Q 3016 3291 2770 3770 
Q 2525 4250 2034 4250 
z
M 2034 4750 
Q 2819 4750 3233 4129 
Q 3647 3509 3647 2328 
Q 3647 1150 3233 529 
Q 2819 -91 2034 -91 
Q 1250 -91 836 529 
Q 422 1150 422 2328 
Q 422 3509 836 4129 
Q 1250 4750 2034 4750 
z
" transform="scale(0.015625)"/>
       </defs>
       <use xlink:href="#DejaVuSans-30"/>
      </g>
     </g>
    </g>
    <g id="xtick_3">
     <g id="line2d_3">
      <g>
       <use xlink:href="#m33f5716c8d" x="254.900267" y="244.837969" style="stroke: #000000; stroke-width: 0.8"/>
      </g>
     </g>
     <g id="text_3">
      <!-- 5 -->
      <g transform="translate(251.082767 260.956094) scale(0.12 -0.12)">
       <use xlink:href="#DejaVuSans-35"/>
      </g>
     </g>
    </g>
    <g id="xtick_4">
     <g id="line2d_4">
      <g>
       <use xlink:href="#m33f5716c8d" x="327.550059" y="244.837969" style="stroke: #000000; stroke-width: 0.8"/>
      </g>
     </g>
     <g id="text_4">
      <!-- 10 -->
      <g transform="translate(319.915059 260.956094) scale(0.12 -0.12)">
       <defs>
        <path id="DejaVuSans-31" d="M 794 531 
L 1825 531 
L 1825 4091 
L 703 3866 
L 703 4441 
L 1819 4666 
L 2450 4666 
L 2450 531 
L 3481 531 
L 3481 0 
L 794 0 
L 794 531 
z
" transform="scale(0.015625)"/>
       </defs>
       <use xlink:href="#DejaVuSans-31"/>
       <use xlink:href="#DejaVuSans-30" x="63.623047"/>
      </g>
     </g>
    </g>
    <g id="xtick_5">
     <g id="line2d_5">
      <g>
       <use xlink:href="#m33f5716c8d" x="400.19985" y="244.837969" style="stroke: #000000; stroke-width: 0.8"/>
      </g>
     </g>
     <g id="text_5">
      <!-- 15 -->
      <g transform="translate(392.56485 260.956094) scale(0.12 -0.12)">
       <use xlink:href="#DejaVuSans-31"/>
       <use xlink:href="#DejaVuSans-35" x="63.623047"/>
      </g>
     </g>
    </g>
    <g id="xtick_6">
     <g id="line2d_6">
      <g>
       <use xlink:href="#m33f5716c8d" x="472.849641" y="244.837969" style="stroke: #000000; stroke-width: 0.8"/>
      </g>
     </g>
     <g id="text_6">
      <!-- 20 -->
      <g transform="translate(465.214641 260.956094) scale(0.12 -0.12)">
       <defs>
        <path id="DejaVuSans-32" d="M 1228 531 
L 3431 531 
L 3431 0 
L 469 0 
L 469 531 
Q 828 903 1448 1529 
Q 2069 2156 2228 2338 
Q 2531 2678 2651 2914 
Q 2772 3150 2772 3378 
Q 2772 3750 2511 3984 
Q 2250 4219 1831 4219 
Q 1534 4219 1204 4116 
Q 875 4013 500 3803 
L 500 4441 
Q 881 4594 1212 4672 
Q 1544 4750 1819 4750 
Q 2544 4750 2975 4387 
Q 3406 4025 3406 3419 
Q 3406 3131 3298 2873 
Q 3191 2616 2906 2266 
Q 2828 2175 2409 1742 
Q 1991 1309 1228 531 
z
" transform="scale(0.015625)"/>
       </defs>
       <use xlink:href="#DejaVuSans-32"/>
       <use xlink:href="#DejaVuSans-30" x="63.623047"/>
      </g>
     </g>
    </g>
    <g id="xtick_7">
     <g id="line2d_7">
      <g>
       <use xlink:href="#m33f5716c8d" x="545.499432" y="244.837969" style="stroke: #000000; stroke-width: 0.8"/>
      </g>
     </g>
     <g id="text_7">
      <!-- 25 -->
      <g transform="translate(537.864432 260.956094) scale(0.12 -0.12)">
       <use xlink:href="#DejaVuSans-32"/>
       <use xlink:href="#DejaVuSans-35" x="63.623047"/>
      </g>
     </g>
    </g>
    <g id="text_8">
     <!-- Time (s) -->
     <g transform="translate(270.723984 277.329687) scale(0.13 -0.13)">
      <defs>
       <path id="DejaVuSans-54" d="M -19 4666 
L 3928 4666 
L 3928 4134 
L 2272 4134 
L 2272 0 
L 1638 0 
L 1638 4134 
L -19 4134 
L -19 4666 
z
" transform="scale(0.015625)"/>
       <path id="DejaVuSans-69" d="M 603 3500 
L 1178 3500 
L 1178 0 
L 603 0 
L 603 3500 
z
M 603 4863 
L 1178 4863 
L 1178 4134 
L 603 4134 
L 603 4863 
z
" transform="scale(0.015625)"/>
       <path id="DejaVuSans-6d" d="M 3328 2828 
Q 3544 3216 3844 3400 
Q 4144 3584 4550 3584 
Q 5097 3584 5394 3201 
Q 5691 2819 5691 2113 
L 5691 0 
L 5113 0 
L 5113 2094 
Q 5113 2597 4934 2840 
Q 4756 3084 4391 3084 
Q 3944 3084 3684 2787 
Q 3425 2491 3425 1978 
L 3425 0 
L 2847 0 
L 2847 2094 
Q 2847 2600 2669 2842 
Q 2491 3084 2119 3084 
Q 1678 3084 1418 2786 
Q 1159 2488 1159 1978 
L 1159 0 
L 581 0 
L 581 3500 
L 1159 3500 
L 1159 2956 
Q 1356 3278 1631 3431 
Q 1906 3584 2284 3584 
Q 2666 3584 2933 3390 
Q 3200 3197 3328 2828 
z
" transform="scale(0.015625)"/>
       <path id="DejaVuSans-65" d="M 3597 1894 
L 3597 1613 
L 953 1613 
Q 991 1019 1311 708 
Q 1631 397 2203 397 
Q 2534 397 2845 478 
Q 3156 559 3463 722 
L 3463 178 
Q 3153 47 2828 -22 
Q 2503 -91 2169 -91 
Q 1331 -91 842 396 
Q 353 884 353 1716 
Q 353 2575 817 3079 
Q 1281 3584 2069 3584 
Q 2775 3584 3186 3129 
Q 3597 2675 3597 1894 
z
M 3022 2063 
Q 3016 2534 2758 2815 
Q 2500 3097 2075 3097 
Q 1594 3097 1305 2825 
Q 1016 2553 972 2059 
L 3022 2063 
z
" transform="scale(0.015625)"/>
       <path id="DejaVuSans-20" transform="scale(0.015625)"/>
       <path id="DejaVuSans-28" d="M 1984 4856 
Q 1566 4138 1362 3434 
Q 1159 2731 1159 2009 
Q 1159 1288 1364 580 
Q 1569 -128 1984 -844 
L 1484 -844 
Q 1016 -109 783 600 
Q 550 1309 550 2009 
Q 550 2706 781 3412 
Q 1013 4119 1484 4856 
L 1984 4856 
z
" transform="scale(0.015625)"/>
       <path id="DejaVuSans-73" d="M 2834 3397 
L 2834 2853 
Q 2591 2978 2328 3040 
Q 2066 3103 1784 3103 
Q 1356 3103 1142 2972 
Q 928 2841 928 2578 
Q 928 2378 1081 2264 
Q 1234 2150 1697 2047 
L 1894 2003 
Q 2506 1872 2764 1633 
Q 3022 1394 3022 966 
Q 3022 478 2636 193 
Q 2250 -91 1575 -91 
Q 1294 -91 989 -36 
Q 684 19 347 128 
L 347 722 
Q 666 556 975 473 
Q 1284 391 1588 391 
Q 1994 391 2212 530 
Q 2431 669 2431 922 
Q 2431 1156 2273 1281 
Q 2116 1406 1581 1522 
L 1381 1569 
Q 847 1681 609 1914 
Q 372 2147 372 2553 
Q 372 3047 722 3315 
Q 1072 3584 1716 3584 
Q 2034 3584 2315 3537 
Q 2597 3491 2834 3397 
z
" transform="scale(0.015625)"/>
       <path id="DejaVuSans-29" d="M 513 4856 
L 1013 4856 
Q 1481 4119 1714 3412 
Q 1947 2706 1947 2009 
Q 1947 1309 1714 600 
Q 1481 -109 1013 -844 
L 513 -844 
Q 928 -128 1133 580 
Q 1338 1288 1338 2009 
Q 1338 2731 1133 3434 
Q 928 4138 513 4856 
z
" transform="scale(0.015625)"/>
      </defs>
      <use xlink:href="#DejaVuSans-54"/>
      <use xlink:href="#DejaVuSans-69" x="57.958984"/>
      <use xlink:href="#DejaVuSans-6d" x="85.742188"/>
      <use xlink:href="#DejaVuSans-65" x="183.154297"/>
      <use xlink:href="#DejaVuSans-20" x="244.677734"/>
      <use xlink:href="#DejaVuSans-28" x="276.464844"/>
      <use xlink:href="#DejaVuSans-73" x="315.478516"/>
      <use xlink:href="#DejaVuSans-29" x="367.578125"/>
     </g>
    </g>
   </g>
   <g id="matplotlib.axis_2">
    <g id="ytick_1">
     <g id="line2d_8">
      <defs>
       <path id="md616d209ba" d="M 0 0 
L -3.5 0 
" style="stroke: #000000; stroke-width: 0.8"/>
      </defs>
      <g>
       <use xlink:href="#md616d209ba" x="46.051562" y="244.837969" style="stroke: #000000; stroke-width: 0.8"/>
      </g>
     </g>
     <g id="text_9">
      <!-- 0 -->
      <g transform="translate(31.416562 249.397031) scale(0.12 -0.12)">
       <use xlink:href="#DejaVuSans-30"/>
      </g>
     </g>
    </g>
    <g id="ytick_2">
     <g id="line2d_9">
      <g>
       <use xlink:href="#md616d209ba" x="46.051562" y="213.552086" style="stroke: #000000; stroke-width: 0.8"/>
      </g>
     </g>
     <g id="text_10">
      <!-- 2 -->
      <g transform="translate(31.416562 218.111149) scale(0.12 -0.12)">
       <use xlink:href="#DejaVuSans-32"/>
      </g>
     </g>
    </g>
    <g id="ytick_3">
     <g id="line2d_10">
      <g>
       <use xlink:href="#md616d209ba" x="46.051562" y="182.266204" style="stroke: #000000; stroke-width: 0.8"/>
      </g>
     </g>
     <g id="text_11">
      <!-- 4 -->
      <g transform="translate(31.416562 186.825266) scale(0.12 -0.12)">
       <defs>
        <path id="DejaVuSans-34" d="M 2419 4116 
L 825 1625 
L 2419 1625 
L 2419 4116 
z
M 2253 4666 
L 3047 4666 
L 3047 1625 
L 3713 1625 
L 3713 1100 
L 3047 1100 
L 3047 0 
L 2419 0 
L 2419 1100 
L 313 1100 
L 313 1709 
L 2253 4666 
z
" transform="scale(0.015625)"/>
       </defs>
       <use xlink:href="#DejaVuSans-34"/>
      </g>
     </g>
    </g>
    <g id="ytick_4">
     <g id="line2d_11">
      <g>
       <use xlink:href="#md616d209ba" x="46.051562" y="150.980321" style="stroke: #000000; stroke-width: 0.8"/>
      </g>
     </g>
     <g id="text_12">
      <!-- 6 -->
      <g transform="translate(31.416562 155.539384) scale(0.12 -0.12)">
       <defs>
        <path id="DejaVuSans-36" d="M 2113 2584 
Q 1688 2584 1439 2293 
Q 1191 2003 1191 1497 
Q 1191 994 1439 701 
Q 1688 409 2113 409 
Q 2538 409 2786 701 
Q 3034 994 3034 1497 
Q 3034 2003 2786 2293 
Q 2538 2584 2113 2584 
z
M 3366 4563 
L 3366 3988 
Q 3128 4100 2886 4159 
Q 2644 4219 2406 4219 
Q 1781 4219 1451 3797 
Q 1122 3375 1075 2522 
Q 1259 2794 1537 2939 
Q 1816 3084 2150 3084 
Q 2853 3084 3261 2657 
Q 3669 2231 3669 1497 
Q 3669 778 3244 343 
Q 2819 -91 2113 -91 
Q 1303 -91 875 529 
Q 447 1150 447 2328 
Q 447 3434 972 4092 
Q 1497 4750 2381 4750 
Q 2619 4750 2861 4703 
Q 3103 4656 3366 4563 
z
" transform="scale(0.015625)"/>
       </defs>
       <use xlink:href="#DejaVuSans-36"/>
      </g>
     </g>
    </g>
    <g id="ytick_5">
     <g id="line2d_12">
      <g>
       <use xlink:href="#md616d209ba" x="46.051562" y="119.694439" style="stroke: #000000; stroke-width: 0.8"/>
      </g>
     </g>
     <g id="text_13">
      <!-- 8 -->
      <g transform="translate(31.416562 124.253501) scale(0.12 -0.12)">
       <defs>
        <path id="DejaVuSans-38" d="M 2034 2216 
Q 1584 2216 1326 1975 
Q 1069 1734 1069 1313 
Q 1069 891 1326 650 
Q 1584 409 2034 409 
Q 2484 409 2743 651 
Q 3003 894 3003 1313 
Q 3003 1734 2745 1975 
Q 2488 2216 2034 2216 
z
M 1403 2484 
Q 997 2584 770 2862 
Q 544 3141 544 3541 
Q 544 4100 942 4425 
Q 1341 4750 2034 4750 
Q 2731 4750 3128 4425 
Q 3525 4100 3525 3541 
Q 3525 3141 3298 2862 
Q 3072 2584 2669 2484 
Q 3125 2378 3379 2068 
Q 3634 1759 3634 1313 
Q 3634 634 3220 271 
Q 2806 -91 2034 -91 
Q 1263 -91 848 271 
Q 434 634 434 1313 
Q 434 1759 690 2068 
Q 947 2378 1403 2484 
z
M 1172 3481 
Q 1172 3119 1398 2916 
Q 1625 2713 2034 2713 
Q 2441 2713 2670 2916 
Q 2900 3119 2900 3481 
Q 2900 3844 2670 4047 
Q 2441 4250 2034 4250 
Q 1625 4250 1398 4047 
Q 1172 3844 1172 3481 
z
" transform="scale(0.015625)"/>
       </defs>
       <use xlink:href="#DejaVuSans-38"/>
      </g>
     </g>
    </g>
    <g id="ytick_6">
     <g id="line2d_13">
      <g>
       <use xlink:href="#md616d209ba" x="46.051562" y="88.408557" style="stroke: #000000; stroke-width: 0.8"/>
      </g>
     </g>
     <g id="text_14">
      <!-- 10 -->
      <g transform="translate(23.781562 92.967619) scale(0.12 -0.12)">
       <use xlink:href="#DejaVuSans-31"/>
       <use xlink:href="#DejaVuSans-30" x="63.623047"/>
      </g>
     </g>
    </g>
    <g id="ytick_7">
     <g id="line2d_14">
      <g>
       <use xlink:href="#md616d209ba" x="46.051562" y="57.122674" style="stroke: #000000; stroke-width: 0.8"/>
      </g>
     </g>
     <g id="text_15">
      <!-- 12 -->
      <g transform="translate(23.781562 61.681737) scale(0.12 -0.12)">
       <use xlink:href="#DejaVuSans-31"/>
       <use xlink:href="#DejaVuSans-32" x="63.623047"/>
      </g>
     </g>
    </g>
    <g id="ytick_8">
     <g id="line2d_15">
      <g>
       <use xlink:href="#md616d209ba" x="46.051562" y="25.836792" style="stroke: #000000; stroke-width: 0.8"/>
      </g>
     </g>
     <g id="text_16">
      <!-- 14 -->
      <g transform="translate(23.781562 30.395854) scale(0.12 -0.12)">
       <use xlink:href="#DejaVuSans-31"/>
       <use xlink:href="#DejaVuSans-34" x="63.623047"/>
      </g>
     </g>
    </g>
    <g id="text_17">
     <!-- Utilization (%) -->
     <g transform="translate(17.077969 179.839844) rotate(-90) scale(0.13 -0.13)">
      <defs>
       <path id="DejaVuSans-55" d="M 556 4666 
L 1191 4666 
L 1191 1831 
Q 1191 1081 1462 751 
Q 1734 422 2344 422 
Q 2950 422 3222 751 
Q 3494 1081 3494 1831 
L 3494 4666 
L 4128 4666 
L 4128 1753 
Q 4128 841 3676 375 
Q 3225 -91 2344 -91 
Q 1459 -91 1007 375 
Q 556 841 556 1753 
L 556 4666 
z
" transform="scale(0.015625)"/>
       <path id="DejaVuSans-74" d="M 1172 4494 
L 1172 3500 
L 2356 3500 
L 2356 3053 
L 1172 3053 
L 1172 1153 
Q 1172 725 1289 603 
Q 1406 481 1766 481 
L 2356 481 
L 2356 0 
L 1766 0 
Q 1100 0 847 248 
Q 594 497 594 1153 
L 594 3053 
L 172 3053 
L 172 3500 
L 594 3500 
L 594 4494 
L 1172 4494 
z
" transform="scale(0.015625)"/>
       <path id="DejaVuSans-6c" d="M 603 4863 
L 1178 4863 
L 1178 0 
L 603 0 
L 603 4863 
z
" transform="scale(0.015625)"/>
       <path id="DejaVuSans-7a" d="M 353 3500 
L 3084 3500 
L 3084 2975 
L 922 459 
L 3084 459 
L 3084 0 
L 275 0 
L 275 525 
L 2438 3041 
L 353 3041 
L 353 3500 
z
" transform="scale(0.015625)"/>
       <path id="DejaVuSans-61" d="M 2194 1759 
Q 1497 1759 1228 1600 
Q 959 1441 959 1056 
Q 959 750 1161 570 
Q 1363 391 1709 391 
Q 2188 391 2477 730 
Q 2766 1069 2766 1631 
L 2766 1759 
L 2194 1759 
z
M 3341 1997 
L 3341 0 
L 2766 0 
L 2766 531 
Q 2569 213 2275 61 
Q 1981 -91 1556 -91 
Q 1019 -91 701 211 
Q 384 513 384 1019 
Q 384 1609 779 1909 
Q 1175 2209 1959 2209 
L 2766 2209 
L 2766 2266 
Q 2766 2663 2505 2880 
Q 2244 3097 1772 3097 
Q 1472 3097 1187 3025 
Q 903 2953 641 2809 
L 641 3341 
Q 956 3463 1253 3523 
Q 1550 3584 1831 3584 
Q 2591 3584 2966 3190 
Q 3341 2797 3341 1997 
z
" transform="scale(0.015625)"/>
       <path id="DejaVuSans-6f" d="M 1959 3097 
Q 1497 3097 1228 2736 
Q 959 2375 959 1747 
Q 959 1119 1226 758 
Q 1494 397 1959 397 
Q 2419 397 2687 759 
Q 2956 1122 2956 1747 
Q 2956 2369 2687 2733 
Q 2419 3097 1959 3097 
z
M 1959 3584 
Q 2709 3584 3137 3096 
Q 3566 2609 3566 1747 
Q 3566 888 3137 398 
Q 2709 -91 1959 -91 
Q 1206 -91 779 398 
Q 353 888 353 1747 
Q 353 2609 779 3096 
Q 1206 3584 1959 3584 
z
" transform="scale(0.015625)"/>
       <path id="DejaVuSans-6e" d="M 3513 2113 
L 3513 0 
L 2938 0 
L 2938 2094 
Q 2938 2591 2744 2837 
Q 2550 3084 2163 3084 
Q 1697 3084 1428 2787 
Q 1159 2491 1159 1978 
L 1159 0 
L 581 0 
L 581 3500 
L 1159 3500 
L 1159 2956 
Q 1366 3272 1645 3428 
Q 1925 3584 2291 3584 
Q 2894 3584 3203 3211 
Q 3513 2838 3513 2113 
z
" transform="scale(0.015625)"/>
       <path id="DejaVuSans-25" d="M 4653 2053 
Q 4381 2053 4226 1822 
Q 4072 1591 4072 1178 
Q 4072 772 4226 539 
Q 4381 306 4653 306 
Q 4919 306 5073 539 
Q 5228 772 5228 1178 
Q 5228 1588 5073 1820 
Q 4919 2053 4653 2053 
z
M 4653 2450 
Q 5147 2450 5437 2106 
Q 5728 1763 5728 1178 
Q 5728 594 5436 251 
Q 5144 -91 4653 -91 
Q 4153 -91 3862 251 
Q 3572 594 3572 1178 
Q 3572 1766 3864 2108 
Q 4156 2450 4653 2450 
z
M 1428 4353 
Q 1159 4353 1004 4120 
Q 850 3888 850 3481 
Q 850 3069 1003 2837 
Q 1156 2606 1428 2606 
Q 1700 2606 1854 2837 
Q 2009 3069 2009 3481 
Q 2009 3884 1853 4118 
Q 1697 4353 1428 4353 
z
M 4250 4750 
L 4750 4750 
L 1831 -91 
L 1331 -91 
L 4250 4750 
z
M 1428 4750 
Q 1922 4750 2215 4408 
Q 2509 4066 2509 3481 
Q 2509 2891 2217 2550 
Q 1925 2209 1428 2209 
Q 931 2209 642 2551 
Q 353 2894 353 3481 
Q 353 4063 643 4406 
Q 934 4750 1428 4750 
z
" transform="scale(0.015625)"/>
      </defs>
      <use xlink:href="#DejaVuSans-55"/>
      <use xlink:href="#DejaVuSans-74" x="73.193359"/>
      <use xlink:href="#DejaVuSans-69" x="112.402344"/>
      <use xlink:href="#DejaVuSans-6c" x="140.185547"/>
      <use xlink:href="#DejaVuSans-69" x="167.96875"/>
      <use xlink:href="#DejaVuSans-7a" x="195.751953"/>
      <use xlink:href="#DejaVuSans-61" x="248.242188"/>
      <use xlink:href="#DejaVuSans-74" x="309.521484"/>
      <use xlink:href="#DejaVuSans-69" x="348.730469"/>
      <use xlink:href="#DejaVuSans-6f" x="376.513672"/>
      <use xlink:href="#DejaVuSans-6e" x="437.695312"/>
      <use xlink:href="#DejaVuSans-20" x="501.074219"/>
      <use xlink:href="#DejaVuSans-28" x="532.861328"/>
      <use xlink:href="#DejaVuSans-25" x="571.875"/>
      <use xlink:href="#DejaVuSans-29" x="666.894531"/>
     </g>
    </g>
   </g>
   <g id="patch_3">
    <path d="M 46.051562 244.837969 
L 46.051562 23.077969 
" style="fill: none; stroke: #000000; stroke-width: 0.8; stroke-linejoin: miter; stroke-linecap: square"/>
   </g>
   <g id="patch_4">
    <path d="M 548.251563 244.837969 
L 548.251563 23.077969 
" style="fill: none; stroke: #000000; stroke-width: 0.8; stroke-linejoin: miter; stroke-linecap: square"/>
   </g>
   <g id="patch_5">
    <path d="M 46.051562 244.837969 
L 548.251563 244.837969 
" style="fill: none; stroke: #000000; stroke-width: 0.8; stroke-linejoin: miter; stroke-linecap: square"/>
   </g>
   <g id="patch_6">
    <path d="M 46.051562 23.077969 
L 548.251563 23.077969 
" style="fill: none; stroke: #000000; stroke-width: 0.8; stroke-linejoin: miter; stroke-linecap: square"/>
   </g>
   <g id="text_18">
    <!-- Create VM Type 2 -->
    <g transform="translate(240.241016 17.077969) scale(0.13 -0.13)">
     <defs>
      <path id="DejaVuSans-43" d="M 4122 4306 
L 4122 3641 
Q 3803 3938 3442 4084 
Q 3081 4231 2675 4231 
Q 1875 4231 1450 3742 
Q 1025 3253 1025 2328 
Q 1025 1406 1450 917 
Q 1875 428 2675 428 
Q 3081 428 3442 575 
Q 3803 722 4122 1019 
L 4122 359 
Q 3791 134 3420 21 
Q 3050 -91 2638 -91 
Q 1578 -91 968 557 
Q 359 1206 359 2328 
Q 359 3453 968 4101 
Q 1578 4750 2638 4750 
Q 3056 4750 3426 4639 
Q 3797 4528 4122 4306 
z
" transform="scale(0.015625)"/>
      <path id="DejaVuSans-72" d="M 2631 2963 
Q 2534 3019 2420 3045 
Q 2306 3072 2169 3072 
Q 1681 3072 1420 2755 
Q 1159 2438 1159 1844 
L 1159 0 
L 581 0 
L 581 3500 
L 1159 3500 
L 1159 2956 
Q 1341 3275 1631 3429 
Q 1922 3584 2338 3584 
Q 2397 3584 2469 3576 
Q 2541 3569 2628 3553 
L 2631 2963 
z
" transform="scale(0.015625)"/>
      <path id="DejaVuSans-56" d="M 1831 0 
L 50 4666 
L 709 4666 
L 2188 738 
L 3669 4666 
L 4325 4666 
L 2547 0 
L 1831 0 
z
" transform="scale(0.015625)"/>
      <path id="DejaVuSans-4d" d="M 628 4666 
L 1569 4666 
L 2759 1491 
L 3956 4666 
L 4897 4666 
L 4897 0 
L 4281 0 
L 4281 4097 
L 3078 897 
L 2444 897 
L 1241 4097 
L 1241 0 
L 628 0 
L 628 4666 
z
" transform="scale(0.015625)"/>
      <path id="DejaVuSans-79" d="M 2059 -325 
Q 1816 -950 1584 -1140 
Q 1353 -1331 966 -1331 
L 506 -1331 
L 506 -850 
L 844 -850 
Q 1081 -850 1212 -737 
Q 1344 -625 1503 -206 
L 1606 56 
L 191 3500 
L 800 3500 
L 1894 763 
L 2988 3500 
L 3597 3500 
L 2059 -325 
z
" transform="scale(0.015625)"/>
      <path id="DejaVuSans-70" d="M 1159 525 
L 1159 -1331 
L 581 -1331 
L 581 3500 
L 1159 3500 
L 1159 2969 
Q 1341 3281 1617 3432 
Q 1894 3584 2278 3584 
Q 2916 3584 3314 3078 
Q 3713 2572 3713 1747 
Q 3713 922 3314 415 
Q 2916 -91 2278 -91 
Q 1894 -91 1617 61 
Q 1341 213 1159 525 
z
M 3116 1747 
Q 3116 2381 2855 2742 
Q 2594 3103 2138 3103 
Q 1681 3103 1420 2742 
Q 1159 2381 1159 1747 
Q 1159 1113 1420 752 
Q 1681 391 2138 391 
Q 2594 391 2855 752 
Q 3116 1113 3116 1747 
z
" transform="scale(0.015625)"/>
     </defs>
     <use xlink:href="#DejaVuSans-43"/>
     <use xlink:href="#DejaVuSans-72" x="69.824219"/>
     <use xlink:href="#DejaVuSans-65" x="108.6875"/>
     <use xlink:href="#DejaVuSans-61" x="170.210938"/>
     <use xlink:href="#DejaVuSans-74" x="231.490234"/>
     <use xlink:href="#DejaVuSans-65" x="270.699219"/>
     <use xlink:href="#DejaVuSans-20" x="332.222656"/>
     <use xlink:href="#DejaVuSans-56" x="364.009766"/>
     <use xlink:href="#DejaVuSans-4d" x="432.417969"/>
     <use xlink:href="#DejaVuSans-20" x="518.697266"/>
     <use xlink:href="#DejaVuSans-54" x="550.484375"/>
     <use xlink:href="#DejaVuSans-79" x="595.943359"/>
     <use xlink:href="#DejaVuSans-70" x="655.123047"/>
     <use xlink:href="#DejaVuSans-65" x="718.599609"/>
     <use xlink:href="#DejaVuSans-20" x="780.123047"/>
     <use xlink:href="#DejaVuSans-32" x="811.910156"/>
    </g>
   </g>
   <g id="legend_1">
    <g id="patch_7">
     <path d="M 427.126563 67.905469 
L 539.851563 67.905469 
Q 542.251563 67.905469 542.251563 65.505469 
L 542.251563 31.477969 
Q 542.251563 29.077969 539.851563 29.077969 
L 427.126563 29.077969 
Q 424.726563 29.077969 424.726563 31.477969 
L 424.726563 65.505469 
Q 424.726563 67.905469 427.126563 67.905469 
z
" style="fill: #ffffff; opacity: 0.8; stroke: #cccccc; stroke-linejoin: miter"/>
    </g>
    <g id="patch_8">
     <path d="M 429.526563 42.996094 
L 453.526563 42.996094 
L 453.526563 34.596094 
L 429.526563 34.596094 
z
" style="fill: #009384; fill-opacity: 0.7; stroke: #009384; stroke-opacity: 0.7; stroke-width: 1.5; stroke-linejoin: miter"/>
    </g>
    <g id="text_19">
     <!-- KubeVirt -->
     <g transform="translate(463.126563 42.996094) scale(0.12 -0.12)">
      <defs>
       <path id="DejaVuSans-4b" d="M 628 4666 
L 1259 4666 
L 1259 2694 
L 3353 4666 
L 4166 4666 
L 1850 2491 
L 4331 0 
L 3500 0 
L 1259 2247 
L 1259 0 
L 628 0 
L 628 4666 
z
" transform="scale(0.015625)"/>
       <path id="DejaVuSans-75" d="M 544 1381 
L 544 3500 
L 1119 3500 
L 1119 1403 
Q 1119 906 1312 657 
Q 1506 409 1894 409 
Q 2359 409 2629 706 
Q 2900 1003 2900 1516 
L 2900 3500 
L 3475 3500 
L 3475 0 
L 2900 0 
L 2900 538 
Q 2691 219 2414 64 
Q 2138 -91 1772 -91 
Q 1169 -91 856 284 
Q 544 659 544 1381 
z
M 1991 3584 
L 1991 3584 
z
" transform="scale(0.015625)"/>
       <path id="DejaVuSans-62" d="M 3116 1747 
Q 3116 2381 2855 2742 
Q 2594 3103 2138 3103 
Q 1681 3103 1420 2742 
Q 1159 2381 1159 1747 
Q 1159 1113 1420 752 
Q 1681 391 2138 391 
Q 2594 391 2855 752 
Q 3116 1113 3116 1747 
z
M 1159 2969 
Q 1341 3281 1617 3432 
Q 1894 3584 2278 3584 
Q 2916 3584 3314 3078 
Q 3713 2572 3713 1747 
Q 3713 922 3314 415 
Q 2916 -91 2278 -91 
Q 1894 -91 1617 61 
Q 1341 213 1159 525 
L 1159 0 
L 581 0 
L 581 4863 
L 1159 4863 
L 1159 2969 
z
" transform="scale(0.015625)"/>
      </defs>
      <use xlink:href="#DejaVuSans-4b"/>
      <use xlink:href="#DejaVuSans-75" x="60.576172"/>
      <use xlink:href="#DejaVuSans-62" x="123.955078"/>
      <use xlink:href="#DejaVuSans-65" x="187.431641"/>
      <use xlink:href="#DejaVuSans-56" x="248.955078"/>
      <use xlink:href="#DejaVuSans-69" x="315.113281"/>
      <use xlink:href="#DejaVuSans-72" x="342.896484"/>
      <use xlink:href="#DejaVuSans-74" x="384.009766"/>
     </g>
    </g>
    <g id="patch_9">
     <path d="M 429.526563 60.609844 
L 453.526563 60.609844 
L 453.526563 52.209844 
L 429.526563 52.209844 
z
" style="fill: #b85741; fill-opacity: 0.7; stroke: #b85741; stroke-opacity: 0.7; stroke-width: 1.5; stroke-linejoin: miter"/>
    </g>
    <g id="text_20">
     <!-- OpenNebula -->
     <g transform="translate(463.126563 60.609844) scale(0.12 -0.12)">
      <defs>
       <path id="DejaVuSans-4f" d="M 2522 4238 
Q 1834 4238 1429 3725 
Q 1025 3213 1025 2328 
Q 1025 1447 1429 934 
Q 1834 422 2522 422 
Q 3209 422 3611 934 
Q 4013 1447 4013 2328 
Q 4013 3213 3611 3725 
Q 3209 4238 2522 4238 
z
M 2522 4750 
Q 3503 4750 4090 4092 
Q 4678 3434 4678 2328 
Q 4678 1225 4090 567 
Q 3503 -91 2522 -91 
Q 1538 -91 948 565 
Q 359 1222 359 2328 
Q 359 3434 948 4092 
Q 1538 4750 2522 4750 
z
" transform="scale(0.015625)"/>
       <path id="DejaVuSans-4e" d="M 628 4666 
L 1478 4666 
L 3547 763 
L 3547 4666 
L 4159 4666 
L 4159 0 
L 3309 0 
L 1241 3903 
L 1241 0 
L 628 0 
L 628 4666 
z
" transform="scale(0.015625)"/>
      </defs>
      <use xlink:href="#DejaVuSans-4f"/>
      <use xlink:href="#DejaVuSans-70" x="78.710938"/>
      <use xlink:href="#DejaVuSans-65" x="142.1875"/>
      <use xlink:href="#DejaVuSans-6e" x="203.710938"/>
      <use xlink:href="#DejaVuSans-4e" x="267.089844"/>
      <use xlink:href="#DejaVuSans-65" x="341.894531"/>
      <use xlink:href="#DejaVuSans-62" x="403.417969"/>
      <use xlink:href="#DejaVuSans-75" x="466.894531"/>
      <use xlink:href="#DejaVuSans-6c" x="530.273438"/>
      <use xlink:href="#DejaVuSans-61" x="558.056641"/>
     </g>
    </g>
   </g>
  </g>
 </g>
 <defs>
  <clipPath id="pf48d3a6613">
   <rect x="46.051562" y="23.077969" width="502.2" height="221.76"/>
  </clipPath>
 </defs>
</svg>
