<?xml version="1.0" encoding="utf-8" standalone="no"?>
<!DOCTYPE svg PUBLIC "-//W3C//DTD SVG 1.1//EN"
  "http://www.w3.org/Graphics/SVG/1.1/DTD/svg11.dtd">
<svg xmlns:xlink="http://www.w3.org/1999/xlink" width="555.451562pt" height="287.233281pt" viewBox="0 0 555.451562 287.233281" xmlns="http://www.w3.org/2000/svg" version="1.1">
 <metadata>
  <rdf:RDF xmlns:dc="http://purl.org/dc/elements/1.1/" xmlns:cc="http://creativecommons.org/ns#" xmlns:rdf="http://www.w3.org/1999/02/22-rdf-syntax-ns#">
   <cc:Work>
    <dc:type rdf:resource="http://purl.org/dc/dcmitype/StillImage"/>
    <dc:date>2024-05-21T10:08:05.708679</dc:date>
    <dc:format>image/svg+xml</dc:format>
    <dc:creator>
     <cc:Agent>
      <dc:title>Matplotlib v3.8.4, https://matplotlib.org/</dc:title>
     </cc:Agent>
    </dc:creator>
   </cc:Work>
  </rdf:RDF>
 </metadata>
 <defs>
  <style type="text/css">*{stroke-linejoin: round; stroke-linecap: butt}</style>
 </defs>
 <g id="figure_1">
  <g id="patch_1">
   <path d="M 0 287.233281 
L 555.451562 287.233281 
L 555.451562 0 
L 0 0 
z
" style="fill: #f3f7f8"/>
  </g>
  <g id="axes_1">
   <g id="patch_2">
    <path d="M 46.051562 244.837969 
L 548.251563 244.837969 
L 548.251563 23.077969 
L 46.051562 23.077969 
z
" style="fill: #ffffff"/>
   </g>
   <g id="matplotlib.axis_1">
    <g id="xtick_1">
     <g id="line2d_1">
      <defs>
       <path id="mfce1ed2753" d="M 0 0 
L 0 3.5 
" style="stroke: #000000; stroke-width: 0.8"/>
      </defs>
      <g>
       <use xlink:href="#mfce1ed2753" x="76.732794" y="244.837969" style="stroke: #000000; stroke-width: 0.8"/>
      </g>
     </g>
     <g id="text_1">
      <!-- 0 -->
      <g transform="translate(72.915294 260.956094) scale(0.12 -0.12)">
       <defs>
        <path id="DejaVuSans-30" d="M 2034 4250 
Q 1547 4250 1301 3770 
Q 1056 3291 1056 2328 
Q 1056 1369 1301 889 
Q 1547 409 2034 409 
Q 2525 409 2770 889 
Q 3016 1369 3016 2328 
Q 3016 3291 2770 3770 
Q 2525 4250 2034 4250 
z
M 2034 4750 
Q 2819 4750 3233 4129 
Q 3647 3509 3647 2328 
Q 3647 1150 3233 529 
Q 2819 -91 2034 -91 
Q 1250 -91 836 529 
Q 422 1150 422 2328 
Q 422 3509 836 4129 
Q 1250 4750 2034 4750 
z
" transform="scale(0.015625)"/>
       </defs>
       <use xlink:href="#DejaVuSans-30"/>
      </g>
     </g>
    </g>
    <g id="xtick_2">
     <g id="line2d_2">
      <g>
       <use xlink:href="#mfce1ed2753" x="178.916801" y="244.837969" style="stroke: #000000; stroke-width: 0.8"/>
      </g>
     </g>
     <g id="text_2">
      <!-- 50 -->
      <g transform="translate(171.281801 260.956094) scale(0.12 -0.12)">
       <defs>
        <path id="DejaVuSans-35" d="M 691 4666 
L 3169 4666 
L 3169 4134 
L 1269 4134 
L 1269 2991 
Q 1406 3038 1543 3061 
Q 1681 3084 1819 3084 
Q 2600 3084 3056 2656 
Q 3513 2228 3513 1497 
Q 3513 744 3044 326 
Q 2575 -91 1722 -91 
Q 1428 -91 1123 -41 
Q 819 9 494 109 
L 494 744 
Q 775 591 1075 516 
Q 1375 441 1709 441 
Q 2250 441 2565 725 
Q 2881 1009 2881 1497 
Q 2881 1984 2565 2268 
Q 2250 2553 1709 2553 
Q 1456 2553 1204 2497 
Q 953 2441 691 2322 
L 691 4666 
z
" transform="scale(0.015625)"/>
       </defs>
       <use xlink:href="#DejaVuSans-35"/>
       <use xlink:href="#DejaVuSans-30" x="63.623047"/>
      </g>
     </g>
    </g>
    <g id="xtick_3">
     <g id="line2d_3">
      <g>
       <use xlink:href="#mfce1ed2753" x="281.100807" y="244.837969" style="stroke: #000000; stroke-width: 0.8"/>
      </g>
     </g>
     <g id="text_3">
      <!-- 100 -->
      <g transform="translate(269.648307 260.956094) scale(0.12 -0.12)">
       <defs>
        <path id="DejaVuSans-31" d="M 794 531 
L 1825 531 
L 1825 4091 
L 703 3866 
L 703 4441 
L 1819 4666 
L 2450 4666 
L 2450 531 
L 3481 531 
L 3481 0 
L 794 0 
L 794 531 
z
" transform="scale(0.015625)"/>
       </defs>
       <use xlink:href="#DejaVuSans-31"/>
       <use xlink:href="#DejaVuSans-30" x="63.623047"/>
       <use xlink:href="#DejaVuSans-30" x="127.246094"/>
      </g>
     </g>
    </g>
    <g id="xtick_4">
     <g id="line2d_4">
      <g>
       <use xlink:href="#mfce1ed2753" x="383.284814" y="244.837969" style="stroke: #000000; stroke-width: 0.8"/>
      </g>
     </g>
     <g id="text_4">
      <!-- 150 -->
      <g transform="translate(371.832314 260.956094) scale(0.12 -0.12)">
       <use xlink:href="#DejaVuSans-31"/>
       <use xlink:href="#DejaVuSans-35" x="63.623047"/>
       <use xlink:href="#DejaVuSans-30" x="127.246094"/>
      </g>
     </g>
    </g>
    <g id="xtick_5">
     <g id="line2d_5">
      <g>
       <use xlink:href="#mfce1ed2753" x="485.468821" y="244.837969" style="stroke: #000000; stroke-width: 0.8"/>
      </g>
     </g>
     <g id="text_5">
      <!-- 200 -->
      <g transform="translate(474.016321 260.956094) scale(0.12 -0.12)">
       <defs>
        <path id="DejaVuSans-32" d="M 1228 531 
L 3431 531 
L 3431 0 
L 469 0 
L 469 531 
Q 828 903 1448 1529 
Q 2069 2156 2228 2338 
Q 2531 2678 2651 2914 
Q 2772 3150 2772 3378 
Q 2772 3750 2511 3984 
Q 2250 4219 1831 4219 
Q 1534 4219 1204 4116 
Q 875 4013 500 3803 
L 500 4441 
Q 881 4594 1212 4672 
Q 1544 4750 1819 4750 
Q 2544 4750 2975 4387 
Q 3406 4025 3406 3419 
Q 3406 3131 3298 2873 
Q 3191 2616 2906 2266 
Q 2828 2175 2409 1742 
Q 1991 1309 1228 531 
z
" transform="scale(0.015625)"/>
       </defs>
       <use xlink:href="#DejaVuSans-32"/>
       <use xlink:href="#DejaVuSans-30" x="63.623047"/>
       <use xlink:href="#DejaVuSans-30" x="127.246094"/>
      </g>
     </g>
    </g>
    <g id="text_6">
     <!-- Time (s) -->
     <g transform="translate(270.723984 277.329687) scale(0.13 -0.13)">
      <defs>
       <path id="DejaVuSans-54" d="M -19 4666 
L 3928 4666 
L 3928 4134 
L 2272 4134 
L 2272 0 
L 1638 0 
L 1638 4134 
L -19 4134 
L -19 4666 
z
" transform="scale(0.015625)"/>
       <path id="DejaVuSans-69" d="M 603 3500 
L 1178 3500 
L 1178 0 
L 603 0 
L 603 3500 
z
M 603 4863 
L 1178 4863 
L 1178 4134 
L 603 4134 
L 603 4863 
z
" transform="scale(0.015625)"/>
       <path id="DejaVuSans-6d" d="M 3328 2828 
Q 3544 3216 3844 3400 
Q 4144 3584 4550 3584 
Q 5097 3584 5394 3201 
Q 5691 2819 5691 2113 
L 5691 0 
L 5113 0 
L 5113 2094 
Q 5113 2597 4934 2840 
Q 4756 3084 4391 3084 
Q 3944 3084 3684 2787 
Q 3425 2491 3425 1978 
L 3425 0 
L 2847 0 
L 2847 2094 
Q 2847 2600 2669 2842 
Q 2491 3084 2119 3084 
Q 1678 3084 1418 2786 
Q 1159 2488 1159 1978 
L 1159 0 
L 581 0 
L 581 3500 
L 1159 3500 
L 1159 2956 
Q 1356 3278 1631 3431 
Q 1906 3584 2284 3584 
Q 2666 3584 2933 3390 
Q 3200 3197 3328 2828 
z
" transform="scale(0.015625)"/>
       <path id="DejaVuSans-65" d="M 3597 1894 
L 3597 1613 
L 953 1613 
Q 991 1019 1311 708 
Q 1631 397 2203 397 
Q 2534 397 2845 478 
Q 3156 559 3463 722 
L 3463 178 
Q 3153 47 2828 -22 
Q 2503 -91 2169 -91 
Q 1331 -91 842 396 
Q 353 884 353 1716 
Q 353 2575 817 3079 
Q 1281 3584 2069 3584 
Q 2775 3584 3186 3129 
Q 3597 2675 3597 1894 
z
M 3022 2063 
Q 3016 2534 2758 2815 
Q 2500 3097 2075 3097 
Q 1594 3097 1305 2825 
Q 1016 2553 972 2059 
L 3022 2063 
z
" transform="scale(0.015625)"/>
       <path id="DejaVuSans-20" transform="scale(0.015625)"/>
       <path id="DejaVuSans-28" d="M 1984 4856 
Q 1566 4138 1362 3434 
Q 1159 2731 1159 2009 
Q 1159 1288 1364 580 
Q 1569 -128 1984 -844 
L 1484 -844 
Q 1016 -109 783 600 
Q 550 1309 550 2009 
Q 550 2706 781 3412 
Q 1013 4119 1484 4856 
L 1984 4856 
z
" transform="scale(0.015625)"/>
       <path id="DejaVuSans-73" d="M 2834 3397 
L 2834 2853 
Q 2591 2978 2328 3040 
Q 2066 3103 1784 3103 
Q 1356 3103 1142 2972 
Q 928 2841 928 2578 
Q 928 2378 1081 2264 
Q 1234 2150 1697 2047 
L 1894 2003 
Q 2506 1872 2764 1633 
Q 3022 1394 3022 966 
Q 3022 478 2636 193 
Q 2250 -91 1575 -91 
Q 1294 -91 989 -36 
Q 684 19 347 128 
L 347 722 
Q 666 556 975 473 
Q 1284 391 1588 391 
Q 1994 391 2212 530 
Q 2431 669 2431 922 
Q 2431 1156 2273 1281 
Q 2116 1406 1581 1522 
L 1381 1569 
Q 847 1681 609 1914 
Q 372 2147 372 2553 
Q 372 3047 722 3315 
Q 1072 3584 1716 3584 
Q 2034 3584 2315 3537 
Q 2597 3491 2834 3397 
z
" transform="scale(0.015625)"/>
       <path id="DejaVuSans-29" d="M 513 4856 
L 1013 4856 
Q 1481 4119 1714 3412 
Q 1947 2706 1947 2009 
Q 1947 1309 1714 600 
Q 1481 -109 1013 -844 
L 513 -844 
Q 928 -128 1133 580 
Q 1338 1288 1338 2009 
Q 1338 2731 1133 3434 
Q 928 4138 513 4856 
z
" transform="scale(0.015625)"/>
      </defs>
      <use xlink:href="#DejaVuSans-54"/>
      <use xlink:href="#DejaVuSans-69" x="57.958984"/>
      <use xlink:href="#DejaVuSans-6d" x="85.742188"/>
      <use xlink:href="#DejaVuSans-65" x="183.154297"/>
      <use xlink:href="#DejaVuSans-20" x="244.677734"/>
      <use xlink:href="#DejaVuSans-28" x="276.464844"/>
      <use xlink:href="#DejaVuSans-73" x="315.478516"/>
      <use xlink:href="#DejaVuSans-29" x="367.578125"/>
     </g>
    </g>
   </g>
   <g id="matplotlib.axis_2">
    <g id="ytick_1">
     <g id="line2d_6">
      <defs>
       <path id="mf34d2257e6" d="M 0 0 
L -3.5 0 
" style="stroke: #000000; stroke-width: 0.8"/>
      </defs>
      <g>
       <use xlink:href="#mf34d2257e6" x="46.051562" y="203.524518" style="stroke: #000000; stroke-width: 0.8"/>
      </g>
     </g>
     <g id="text_7">
      <!-- 10 -->
      <g transform="translate(23.781562 208.08358) scale(0.12 -0.12)">
       <use xlink:href="#DejaVuSans-31"/>
       <use xlink:href="#DejaVuSans-30" x="63.623047"/>
      </g>
     </g>
    </g>
    <g id="ytick_2">
     <g id="line2d_7">
      <g>
       <use xlink:href="#mf34d2257e6" x="46.051562" y="156.364227" style="stroke: #000000; stroke-width: 0.8"/>
      </g>
     </g>
     <g id="text_8">
      <!-- 20 -->
      <g transform="translate(23.781562 160.92329) scale(0.12 -0.12)">
       <use xlink:href="#DejaVuSans-32"/>
       <use xlink:href="#DejaVuSans-30" x="63.623047"/>
      </g>
     </g>
    </g>
    <g id="ytick_3">
     <g id="line2d_8">
      <g>
       <use xlink:href="#mf34d2257e6" x="46.051562" y="109.203937" style="stroke: #000000; stroke-width: 0.8"/>
      </g>
     </g>
     <g id="text_9">
      <!-- 30 -->
      <g transform="translate(23.781562 113.762999) scale(0.12 -0.12)">
       <defs>
        <path id="DejaVuSans-33" d="M 2597 2516 
Q 3050 2419 3304 2112 
Q 3559 1806 3559 1356 
Q 3559 666 3084 287 
Q 2609 -91 1734 -91 
Q 1441 -91 1130 -33 
Q 819 25 488 141 
L 488 750 
Q 750 597 1062 519 
Q 1375 441 1716 441 
Q 2309 441 2620 675 
Q 2931 909 2931 1356 
Q 2931 1769 2642 2001 
Q 2353 2234 1838 2234 
L 1294 2234 
L 1294 2753 
L 1863 2753 
Q 2328 2753 2575 2939 
Q 2822 3125 2822 3475 
Q 2822 3834 2567 4026 
Q 2313 4219 1838 4219 
Q 1578 4219 1281 4162 
Q 984 4106 628 3988 
L 628 4550 
Q 988 4650 1302 4700 
Q 1616 4750 1894 4750 
Q 2613 4750 3031 4423 
Q 3450 4097 3450 3541 
Q 3450 3153 3228 2886 
Q 3006 2619 2597 2516 
z
" transform="scale(0.015625)"/>
       </defs>
       <use xlink:href="#DejaVuSans-33"/>
       <use xlink:href="#DejaVuSans-30" x="63.623047"/>
      </g>
     </g>
    </g>
    <g id="ytick_4">
     <g id="line2d_9">
      <g>
       <use xlink:href="#mf34d2257e6" x="46.051562" y="62.043647" style="stroke: #000000; stroke-width: 0.8"/>
      </g>
     </g>
     <g id="text_10">
      <!-- 40 -->
      <g transform="translate(23.781562 66.602709) scale(0.12 -0.12)">
       <defs>
        <path id="DejaVuSans-34" d="M 2419 4116 
L 825 1625 
L 2419 1625 
L 2419 4116 
z
M 2253 4666 
L 3047 4666 
L 3047 1625 
L 3713 1625 
L 3713 1100 
L 3047 1100 
L 3047 0 
L 2419 0 
L 2419 1100 
L 313 1100 
L 313 1709 
L 2253 4666 
z
" transform="scale(0.015625)"/>
       </defs>
       <use xlink:href="#DejaVuSans-34"/>
       <use xlink:href="#DejaVuSans-30" x="63.623047"/>
      </g>
     </g>
    </g>
    <g id="text_11">
     <!-- Utilization (%) -->
     <g transform="translate(17.077969 179.839844) rotate(-90) scale(0.13 -0.13)">
      <defs>
       <path id="DejaVuSans-55" d="M 556 4666 
L 1191 4666 
L 1191 1831 
Q 1191 1081 1462 751 
Q 1734 422 2344 422 
Q 2950 422 3222 751 
Q 3494 1081 3494 1831 
L 3494 4666 
L 4128 4666 
L 4128 1753 
Q 4128 841 3676 375 
Q 3225 -91 2344 -91 
Q 1459 -91 1007 375 
Q 556 841 556 1753 
L 556 4666 
z
" transform="scale(0.015625)"/>
       <path id="DejaVuSans-74" d="M 1172 4494 
L 1172 3500 
L 2356 3500 
L 2356 3053 
L 1172 3053 
L 1172 1153 
Q 1172 725 1289 603 
Q 1406 481 1766 481 
L 2356 481 
L 2356 0 
L 1766 0 
Q 1100 0 847 248 
Q 594 497 594 1153 
L 594 3053 
L 172 3053 
L 172 3500 
L 594 3500 
L 594 4494 
L 1172 4494 
z
" transform="scale(0.015625)"/>
       <path id="DejaVuSans-6c" d="M 603 4863 
L 1178 4863 
L 1178 0 
L 603 0 
L 603 4863 
z
" transform="scale(0.015625)"/>
       <path id="DejaVuSans-7a" d="M 353 3500 
L 3084 3500 
L 3084 2975 
L 922 459 
L 3084 459 
L 3084 0 
L 275 0 
L 275 525 
L 2438 3041 
L 353 3041 
L 353 3500 
z
" transform="scale(0.015625)"/>
       <path id="DejaVuSans-61" d="M 2194 1759 
Q 1497 1759 1228 1600 
Q 959 1441 959 1056 
Q 959 750 1161 570 
Q 1363 391 1709 391 
Q 2188 391 2477 730 
Q 2766 1069 2766 1631 
L 2766 1759 
L 2194 1759 
z
M 3341 1997 
L 3341 0 
L 2766 0 
L 2766 531 
Q 2569 213 2275 61 
Q 1981 -91 1556 -91 
Q 1019 -91 701 211 
Q 384 513 384 1019 
Q 384 1609 779 1909 
Q 1175 2209 1959 2209 
L 2766 2209 
L 2766 2266 
Q 2766 2663 2505 2880 
Q 2244 3097 1772 3097 
Q 1472 3097 1187 3025 
Q 903 2953 641 2809 
L 641 3341 
Q 956 3463 1253 3523 
Q 1550 3584 1831 3584 
Q 2591 3584 2966 3190 
Q 3341 2797 3341 1997 
z
" transform="scale(0.015625)"/>
       <path id="DejaVuSans-6f" d="M 1959 3097 
Q 1497 3097 1228 2736 
Q 959 2375 959 1747 
Q 959 1119 1226 758 
Q 1494 397 1959 397 
Q 2419 397 2687 759 
Q 2956 1122 2956 1747 
Q 2956 2369 2687 2733 
Q 2419 3097 1959 3097 
z
M 1959 3584 
Q 2709 3584 3137 3096 
Q 3566 2609 3566 1747 
Q 3566 888 3137 398 
Q 2709 -91 1959 -91 
Q 1206 -91 779 398 
Q 353 888 353 1747 
Q 353 2609 779 3096 
Q 1206 3584 1959 3584 
z
" transform="scale(0.015625)"/>
       <path id="DejaVuSans-6e" d="M 3513 2113 
L 3513 0 
L 2938 0 
L 2938 2094 
Q 2938 2591 2744 2837 
Q 2550 3084 2163 3084 
Q 1697 3084 1428 2787 
Q 1159 2491 1159 1978 
L 1159 0 
L 581 0 
L 581 3500 
L 1159 3500 
L 1159 2956 
Q 1366 3272 1645 3428 
Q 1925 3584 2291 3584 
Q 2894 3584 3203 3211 
Q 3513 2838 3513 2113 
z
" transform="scale(0.015625)"/>
       <path id="DejaVuSans-25" d="M 4653 2053 
Q 4381 2053 4226 1822 
Q 4072 1591 4072 1178 
Q 4072 772 4226 539 
Q 4381 306 4653 306 
Q 4919 306 5073 539 
Q 5228 772 5228 1178 
Q 5228 1588 5073 1820 
Q 4919 2053 4653 2053 
z
M 4653 2450 
Q 5147 2450 5437 2106 
Q 5728 1763 5728 1178 
Q 5728 594 5436 251 
Q 5144 -91 4653 -91 
Q 4153 -91 3862 251 
Q 3572 594 3572 1178 
Q 3572 1766 3864 2108 
Q 4156 2450 4653 2450 
z
M 1428 4353 
Q 1159 4353 1004 4120 
Q 850 3888 850 3481 
Q 850 3069 1003 2837 
Q 1156 2606 1428 2606 
Q 1700 2606 1854 2837 
Q 2009 3069 2009 3481 
Q 2009 3884 1853 4118 
Q 1697 4353 1428 4353 
z
M 4250 4750 
L 4750 4750 
L 1831 -91 
L 1331 -91 
L 4250 4750 
z
M 1428 4750 
Q 1922 4750 2215 4408 
Q 2509 4066 2509 3481 
Q 2509 2891 2217 2550 
Q 1925 2209 1428 2209 
Q 931 2209 642 2551 
Q 353 2894 353 3481 
Q 353 4063 643 4406 
Q 934 4750 1428 4750 
z
" transform="scale(0.015625)"/>
      </defs>
      <use xlink:href="#DejaVuSans-55"/>
      <use xlink:href="#DejaVuSans-74" x="73.193359"/>
      <use xlink:href="#DejaVuSans-69" x="112.402344"/>
      <use xlink:href="#DejaVuSans-6c" x="140.185547"/>
      <use xlink:href="#DejaVuSans-69" x="167.96875"/>
      <use xlink:href="#DejaVuSans-7a" x="195.751953"/>
      <use xlink:href="#DejaVuSans-61" x="248.242188"/>
      <use xlink:href="#DejaVuSans-74" x="309.521484"/>
      <use xlink:href="#DejaVuSans-69" x="348.730469"/>
      <use xlink:href="#DejaVuSans-6f" x="376.513672"/>
      <use xlink:href="#DejaVuSans-6e" x="437.695312"/>
      <use xlink:href="#DejaVuSans-20" x="501.074219"/>
      <use xlink:href="#DejaVuSans-28" x="532.861328"/>
      <use xlink:href="#DejaVuSans-25" x="571.875"/>
      <use xlink:href="#DejaVuSans-29" x="666.894531"/>
     </g>
    </g>
   </g>
   <g id="line2d_10">
    <path d="M 68.878835 230.915316 
L 68.944147 230.984413 
L 69.29772 230.223484 
L 69.447775 228.910642 
L 69.473734 228.962465 
L 69.566503 228.962465 
L 69.608454 230.663976 
L 70.132261 230.586242 
L 70.257175 232.063189 
L 70.531418 231.752253 
L 70.881239 231.76089 
L 71.177671 230.819445 
L 73.031507 230.750348 
L 73.258205 231.907721 
L 73.342715 230.629428 
L 73.38508 230.74171 
L 73.535136 231.899084 
L 73.653863 228.383778 
L 73.695814 228.401052 
L 74.18764 228.763811 
L 74.219621 228.504698 
L 74.260969 230.456686 
L 74.344535 230.102564 
L 74.618779 230.111201 
L 74.968599 231.035372 
L 75.265031 231.044009 
L 75.703799 230.92309 
L 76.236116 231.734979 
L 77.053556 231.631333 
L 77.118868 230.396226 
L 77.430075 230.4135 
L 77.648455 231.130381 
L 77.783174 231.069921 
L 78.431895 231.000824 
L 78.706139 232.641876 
L 78.849632 232.633239 
L 78.9363 234.757969 
L 79.05596 234.740695 
L 79.122737 233.298296 
L 79.516121 233.099643 
L 79.791159 233.306934 
L 80.880198 232.978723 
L 81.140916 233.056457 
L 81.206228 232.356851 
L 81.709856 230.974913 
L 81.735815 229.687983 
L 82.36236 225.896289 
L 82.43569 222.285975 
L 82.519256 220.809029 
L 82.793499 219.755301 
L 83.02366 217.789494 
L 83.210097 213.885518 
L 83.561116 210.776157 
L 83.603481 209.860622 
L 83.872264 209.860622 
L 83.87852 209.679243 
L 85.228276 209.575598 
L 85.293588 207.8309 
L 85.957895 206.613067 
L 86.449721 206.207123 
L 86.454517 204.997927 
L 86.880859 203.529617 
L 87.011238 202.320421 
L 87.111021 198.425083 
L 87.297457 192.448199 
L 87.648476 189.101102 
L 87.840897 186.216305 
L 87.866855 186.553153 
L 87.96588 185.741264 
L 88.34578 185.568522 
L 88.525382 185.72399 
L 88.650296 183.219227 
L 89.315637 181.172231 
L 89.570792 179.43617 
L 91.098598 175.998599 
L 91.255336 174.22799 
L 91.424629 169.199894 
L 91.651326 167.524294 
L 91.778202 164.043537 
L 91.928257 164.199005 
L 92.05324 162.126097 
L 92.580761 160.061827 
L 92.737656 155.377272 
L 93.0119 153.900325 
L 93.242061 149.979075 
L 94.47682 143.993555 
L 94.629238 142.110664 
L 95.342697 140.905355 
L 95.405401 140.983089 
L 95.511989 137.586543 
L 95.738686 135.738201 
L 96.176295 130.124077 
L 96.668121 129.346736 
L 96.741451 130.115439 
L 97.09926 129.93406 
L 97.329421 127.800693 
L 97.515858 127.256554 
L 97.745513 126.194189 
L 97.866877 127.247917 
L 98.085256 126.574222 
L 98.178025 127.17882 
L 98.184281 126.484396 
L 98.56418 125.249289 
L 98.868697 126.104363 
L 99.534037 125.776153 
L 99.599349 126.380751 
L 100.102977 125.836613 
L 100.263656 127.01126 
L 101.316999 124.135101 
L 101.416782 121.811717 
L 101.473737 121.733983 
L 101.603218 120.18794 
L 101.869727 119.574705 
L 101.954237 120.602521 
L 101.996602 120.490239 
L 102.265385 121.725346 
L 102.271641 122.105379 
L 102.65154 122.269485 
L 102.831143 121.40167 
L 102.872491 121.436219 
L 103.2303 120.969815 
L 104.351016 120.132015 
L 104.847638 119.613788 
L 104.999737 117.964099 
L 105.561097 118.534148 
L 105.665078 119.39786 
L 105.690579 118.4996 
L 105.73039 119.890175 
L 105.957087 119.795167 
L 106.041597 121.108009 
L 106.234018 120.11474 
L 106.352745 120.995726 
L 106.359001 122.308567 
L 106.886522 122.023543 
L 106.918503 121.868075 
L 106.959851 121.903919 
L 107.317661 122.059387 
L 107.547822 123.760898 
L 107.667482 124.719618 
L 108.127643 124.633247 
L 108.303657 124.788715 
L 108.782581 124.296399 
L 109.087097 126.942595 
L 109.648457 126.804402 
L 109.81775 129.205519 
L 110.044447 129.179608 
L 110.128957 127.443548 
L 110.321378 127.521282 
L 110.440106 127.383088 
L 110.482056 128.381107 
L 110.973882 128.208365 
L 111.405021 129.230135 
L 111.5354 128.783164 
L 111.635182 132.333019 
L 111.821619 132.721689 
L 112.051274 132.514398 
L 112.391017 130.592424 
L 112.490041 131.559781 
L 112.869941 133.261292 
L 113.049544 133.097187 
L 113.174458 133.587775 
L 113.839798 133.846889 
L 113.90511 135.444755 
L 114.408738 133.760518 
L 115.066039 135.890214 
L 115.62276 135.415173 
L 115.635874 135.190608 
L 115.779498 135.017866 
L 115.842202 134.724204 
L 115.908979 134.991954 
L 116.175487 133.143612 
L 116.259998 133.791395 
L 116.571146 132.988144 
L 116.577402 134.491002 
L 117.104923 135.147422 
L 117.261818 140.087852 
L 117.536061 140.087852 
L 117.927158 140.899309 
L 117.99247 141.633463 
L 118.182314 142.289884 
L 118.522057 141.486633 
L 119.000982 141.469358 
L 119.153399 141.892577 
L 119.866858 141.711198 
L 119.929562 142.514449 
L 119.99634 142.194876 
L 120.347358 143.68046 
L 120.664762 141.892577 
L 121.192283 140.493364 
L 121.224264 141.391624 
L 121.265612 140.268799 
L 121.623422 140.199702 
L 121.7538 141.201608 
L 121.766915 139.560556 
L 121.853583 139.646927 
L 122.269674 139.767847 
L 123.088342 137.169371 
L 123.240759 139.017713 
L 123.392858 138.482212 
L 123.954218 137.178008 
L 124.123511 137.946711 
L 124.745867 138.965891 
L 124.787817 137.307565 
L 125.279643 137.903526 
L 125.352972 136.261394 
L 125.854275 136.900541 
L 125.940943 136.30458 
L 126.060603 136.537782 
L 126.12738 134.663528 
L 126.357034 134.56852 
L 126.393888 134.367275 
L 126.478398 135.135978 
L 126.696778 132.026617 
L 127.175702 131.914334 
L 127.480219 134.876865 
L 127.754462 134.764582 
L 128.145559 135.287344 
L 128.210871 135.59828 
L 128.875177 135.719199 
L 129.928521 136.842024 
L 130.028303 139.719911 
L 130.147963 137.336067 
L 130.21474 138.441618 
L 130.444395 137.724737 
L 130.481248 136.070082 
L 130.608124 135.71596 
L 130.758179 136.959705 
L 130.876907 136.61422 
L 130.883163 136.881971 
L 131.410683 138.833959 
L 131.484013 138.255272 
L 131.567579 138.263909 
L 132.298231 139.69767 
L 132.827818 136.277373 
L 132.962538 138.108441 
L 133.885502 141.159286 
L 134.015881 140.882898 
L 134.028995 142.19574 
L 134.172619 142.351208 
L 134.235323 143.569041 
L 134.302101 143.525855 
L 134.531755 145.09781 
L 134.568609 146.298369 
L 134.84554 147.697582 
L 134.964267 146.747499 
L 134.970523 148.716761 
L 135.498044 146.799322 
L 135.654939 150.271442 
L 136.159344 150.651475 
L 136.385592 151.886582 
L 136.696799 151.705203 
L 136.915179 154.85775 
L 137.394103 154.823201 
L 137.54652 156.446979 
L 137.972863 157.198408 
L 138.259979 158.062119 
L 138.36396 160.06593 
L 138.389461 159.92644 
L 138.655969 161.489758 
L 138.9329 161.368838 
L 139.057883 163.165358 
L 139.093578 163.00989 
L 139.585404 163.614488 
L 139.658733 165.316 
L 140.146921 166.758398 
L 140.160036 168.088513 
L 140.246704 168.071239 
L 140.366364 169.479089 
L 140.662795 169.791105 
L 140.826525 170.957115 
L 141.095308 172.753635 
L 141.481463 174.178759 
L 141.633881 175.932093 
L 141.78598 175.43114 
L 142.45132 178.350485 
L 142.516632 181.468484 
L 142.743329 181.364838 
L 143.02026 181.762145 
L 143.180938 183.670948 
L 143.704746 185.13062 
L 144.234282 183.826416 
L 144.247396 183.472294 
L 144.334064 184.336006 
L 144.453724 184.29282 
L 144.750156 182.504937 
L 144.913885 184.880144 
L 145.188924 183.817779 
L 145.568823 185.752492 
L 145.789774 188.248618 
L 145.87334 187.099882 
L 146.147583 187.004874 
L 146.53868 188.317715 
L 146.603992 189.285072 
L 147.10762 189.967404 
L 147.133579 189.11233 
L 147.268299 189.164153 
L 148.321642 188.818668 
L 148.421425 192.731281 
L 148.47838 192.878112 
L 148.607861 189.91407 
L 148.837516 189.378569 
L 148.87437 188.11755 
L 149.001245 189.862247 
L 149.276284 191.201 
L 149.656184 190.527305 
L 149.803805 188.894891 
L 149.808601 187.599323 
L 149.877134 189.388286 
L 150.626041 191.322999 
L 150.691352 192.074428 
L 151.220939 192.834494 
L 151.313708 191.003426 
L 151.355659 192.411276 
L 152.00438 191.418008 
L 152.409002 193.38727 
L 152.508785 193.352721 
L 152.56574 193.119519 
L 152.695222 194.121424 
L 153.363644 194.311441 
L 153.743544 192.42855 
L 153.891165 192.463098 
L 153.923146 194.406449 
L 153.964494 194.16461 
L 154.713401 194.095513 
L 154.778713 194.337352 
L 154.968556 194.423723 
L 155.08992 192.670389 
L 155.443019 194.561917 
L 156.09174 195.426277 
L 156.365984 194.942598 
L 156.496363 196.376359 
L 156.596145 193.515963 
L 156.782582 193.559148 
L 157.326021 193.705979 
L 157.444749 192.643614 
L 157.451004 192.678163 
L 157.978525 192.488146 
L 158.051854 189.66381 
L 158.759485 189.724269 
L 158.866073 191.676257 
L 159.055917 190.527521 
L 159.177281 190.492973 
L 159.219646 188.946929 
L 159.39566 190.838457 
L 159.530379 190.898917 
L 159.874584 191.866274 
L 160.179101 195.856621 
L 160.583723 196.141646 
L 160.869942 199.734685 
L 161.413381 200.209727 
L 161.532109 199.838331 
L 161.538365 200.097444 
L 162.065885 199.18191 
L 162.097867 198.40457 
L 162.139215 198.836425 
L 162.640517 197.359479 
L 162.846845 197.704963 
L 163.143277 200.883421 
L 163.307006 202.161714 
L 163.48302 201.332551 
L 163.961944 201.479382 
L 164.266461 199.795145 
L 164.671083 203.241354 
L 164.957303 201.953344 
L 165.223811 202.108812 
L 165.500742 202.082901 
L 165.619469 201.93607 
L 165.66142 203.888058 
L 166.153246 203.931243 
L 166.727878 203.741227 
L 166.814546 202.419748 
L 166.871501 202.488845 
L 166.934205 202.549305 
L 167.230637 202.549305 
L 167.394367 203.015709 
L 167.669405 203.516662 
L 168.049305 205.313182 
L 168.201722 203.343919 
L 168.228907 203.447565 
L 168.353821 207.049242 
L 168.628065 205.097254 
L 169.084474 202.376563 
L 169.311171 202.462934 
L 169.706829 201.271012 
L 169.74878 201.435117 
L 170.240606 201.676956 
L 170.802123 201.633123 
L 170.815238 202.859593 
L 170.901906 200.881694 
L 170.958861 200.467113 
L 171.021566 202.291055 
L 171.439361 202.826556 
L 171.481727 201.885111 
L 171.756765 201.997393 
L 172.136665 202.489709 
L 172.289083 200.459987 
L 172.316268 200.848657 
L 172.441182 202.014668 
L 173.132023 199.648098 
L 173.171834 199.760381 
L 173.398531 199.596275 
L 173.83614 199.717195 
L 174.889484 198.698016 
L 174.902598 196.823762 
L 175.046222 196.866947 
L 175.108926 196.702842 
L 175.526722 194.414007 
L 175.83787 191.244186 
L 175.844126 189.395843 
L 176.224025 187.685695 
L 176.444976 190.173183 
L 176.528542 188.558043 
L 177.032947 188.005268 
L 177.485891 183.565791 
L 177.788781 180.620535 
L 177.923501 180.292324 
L 178.846465 181.371964 
L 178.976844 179.489073 
L 179.196286 181.80382 
L 179.263063 179.748186 
L 179.614082 179.55817 
L 179.806503 179.204048 
L 179.92523 179.480436 
L 179.931486 178.798104 
L 180.459007 177.25206 
L 180.532336 173.425818 
L 181.033638 174.237707 
L 181.281243 172.242534 
L 181.346554 170.411465 
L 182.010861 163.294483 
L 182.355066 163.337669 
L 183.283646 163.829984 
L 183.893863 163.87317 
L 184.018846 166.162005 
L 184.546367 165.116914 
L 184.578348 163.432677 
L 184.619696 163.639968 
L 185.120999 165.583318 
L 185.394104 162.240755 
L 185.433915 162.327126 
L 185.623758 162.232118 
L 185.745122 162.828079 
L 185.787488 163.631331 
L 186.442426 163.674516 
L 186.594844 165.315568 
L 186.746942 163.968178 
L 187.021186 163.950904 
L 187.251347 163.087192 
L 187.412283 165.203285 
L 187.704292 163.467225 
L 187.981223 163.544959 
L 188.007182 163.337669 
L 188.099951 163.959541 
L 188.106206 163.4845 
L 188.141901 165.263745 
L 188.707056 165.281019 
L 189.208359 165.954714 
L 189.351983 165.920166 
L 189.521275 163.139015 
L 189.711119 163.147652 
L 189.832483 162.40486 
L 190.529786 162.318921 
L 190.709389 161.679774 
L 191.108546 164.288183 
L 191.499643 160.600135 
L 191.918528 160.695143 
L 192.193567 163.51948 
L 192.229262 162.932156 
L 192.794417 163.173995 
L 193.282605 164.616393 
L 193.295719 165.19508 
L 193.439343 165.125983 
L 193.568824 162.923519 
L 193.798479 162.897608 
L 193.919843 161.740234 
L 194.617146 162.120267 
L 194.764768 162.007985 
L 194.769564 162.102993 
L 194.921663 164.504111 
L 195.426068 162.811236 
L 195.879013 167.362996 
L 196.005888 166.792946 
L 196.316622 168.805394 
L 197.369965 169.556823 
L 197.383079 171.249697 
L 197.526703 171.232423 
L 197.589407 173.253508 
L 197.656185 171.30152 
L 197.885839 169.263161 
L 198.199624 169.090419 
L 198.318351 166.637478 
L 198.324607 164.832321 
L 198.704507 165.661484 
L 198.856924 165.592387 
L 198.925457 167.751666 
L 199.009023 167.509827 
L 199.513428 167.509827 
L 199.674364 168.969499 
L 199.739676 168.839942 
L 200.050883 165.782404 
L 200.093249 167.25935 
L 200.403982 166.654752 
L 201.457325 166.646115 
L 201.47044 167.164342 
L 201.676768 167.535738 
L 201.973199 167.129794 
L 202.286984 168.934951 
L 202.405712 167.509827 
L 202.411967 169.289072 
L 202.939488 169.012685 
L 202.944285 171.154689 
L 203.012817 170.506906 
L 203.096384 170.472357 
L 203.600788 170.480994 
L 203.657744 168.6672 
L 203.827036 170.506906 
L 204.138243 172.519353 
L 204.180609 170.679648 
L 204.356623 169.764114 
L 204.835547 171.517016 
L 205.01515 171.14562 
L 205.414307 172.976688 
L 205.544686 174.971862 
L 206.374344 175.852848 
L 206.493072 174.10815 
L 206.535022 177.303883 
L 207.031645 179.022669 
L 207.100178 176.958398 
L 207.60148 177.537085 
L 207.849084 182.503426 
L 207.874585 182.201127 
L 208.10424 183.263492 
L 208.267969 185.621424 
L 208.443983 185.526416 
L 208.922907 185.578239 
L 209.070529 187.227927 
L 209.10251 189.205827 
L 209.227424 189.188552 
L 209.501667 191.054169 
L 209.632046 190.276829 
L 209.958076 190.268192 
L 210.269284 188.195284 
L 210.461705 190.078175 
L 210.586688 190.043627 
L 210.622383 190.380474 
L 211.119005 190.30274 
L 211.187538 192.176994 
L 211.68884 192.081986 
L 211.775509 193.472561 
L 211.895168 193.472561 
L 211.936445 195.51092 
L 211.961946 194.059885 
L 212.1916 195.925502 
L 212.355329 199.976308 
L 213.010268 200.364979 
L 213.18987 203.249775 
L 213.314784 202.360152 
L 213.719406 202.386063 
L 213.876144 204.173946 
L 214.045437 204.165309 
L 214.549065 205.374505 
L 214.575024 203.241138 
L 214.674048 203.258412 
L 214.709743 205.314045 
L 215.206365 206.385047 
L 215.274898 207.680615 
L 215.776201 207.680615 
L 215.862869 209.52032 
L 216.049306 206.177757 
L 216.27896 207.093291 
L 216.315814 207.741074 
L 216.44269 206.695984 
L 216.711473 206.531878 
L 217.097628 206.540516 
L 217.245249 206.799629 
L 217.277231 205.728627 
L 217.402144 206.82554 
L 217.806767 208.397495 
L 217.963505 208.397495 
L 218.132797 210.211289 
L 218.761408 210.686331 
L 218.797103 211.360025 
L 219.293726 210.80725 
L 219.863561 212.940617 
L 220.069889 214.624855 
L 220.136666 216.447286 
L 220.366321 216.438649 
L 220.403174 218.027878 
L 220.706064 213.044263 
L 220.798833 214.832146 
L 221.184988 213.424296 
L 221.364591 213.424296 
L 221.405939 215.384921 
L 222.050865 215.471292 
L 222.220157 215.62676 
L 222.884464 215.790865 
L 223.950921 215.790865 
L 224.157249 216.084527 
L 224.224026 214.84942 
L 224.453681 213.882063 
L 224.886193 214.080717 
L 225.493299 216.07589 
L 226.138225 216.07589 
L 226.307517 215.963608 
L 226.618725 213.821603 
L 226.66109 214.607581 
L 226.837104 214.547121 
L 228.025167 216.52502 
L 228.244609 216.447286 
L 228.973553 217.36282 
L 229.50733 217.354183 
L 229.580659 215.454018 
L 230.394878 215.549026 
L 230.748451 214.296644 
L 232.33197 214.288007 
L 233.060914 213.674772 
L 234.312946 215.134445 
L 234.793445 214.90988 
L 235.63837 214.961702 
L 238.880806 214.797597 
L 241.235634 213.692046 
L 242.968166 214.478024 
L 247.055526 215.894511 
L 261.361287 215.95497 
L 261.361287 215.95497 
" clip-path="url(#p1894e6fce7)" style="fill: none; stroke: #009384; stroke-width: 2.5; stroke-linecap: square"/>
   </g>
   <g id="line2d_11">
    <path d="M 69.055405 222.482954 
L 69.368797 222.435794 
L 69.424821 224.440106 
L 69.68362 224.204305 
L 69.82172 223.190359 
L 69.873768 223.709122 
L 69.878514 223.638381 
L 70.336502 223.119618 
L 70.487261 223.072458 
L 71.734251 222.742336 
L 72.06367 222.718756 
L 72.398661 222.506534 
L 72.436568 220.973825 
L 72.95742 220.950245 
L 73.142765 221.351107 
L 73.330678 221.492588 
L 73.456158 228.23651 
L 73.573778 228.33083 
L 73.77098 229.627738 
L 73.965874 233.329821 
L 74.574621 233.471302 
L 75.044487 233.730684 
L 75.821611 229.156135 
L 76.15103 234.603149 
L 76.751929 234.69747 
L 76.778141 230.240822 
L 77.230126 230.358723 
L 77.418038 230.335143 
L 77.543518 224.440106 
L 77.661138 224.440106 
L 77.833518 223.001718 
L 77.858341 223.025298 
L 77.99644 222.883817 
L 78.048489 219.889138 
L 78.511223 219.936299 
L 78.55181 220.14852 
L 79.131848 220.1721 
L 80.096914 214.913728 
L 81.505398 214.890148 
L 81.630878 215.36175 
L 81.748498 215.33817 
L 81.920878 215.644712 
L 81.952651 215.621132 
L 82.135849 215.29101 
L 82.476749 215.33817 
L 83.361166 213.027316 
L 83.568759 212.956576 
L 83.730582 211.400286 
L 84.184275 211.447446 
L 84.698648 206.401295 
L 84.92665 200.64774 
L 84.952862 195.271467 
L 85.592758 190.579018 
L 86.040012 168.720223 
L 86.36943 162.990248 
L 86.685943 151.695359 
L 86.836702 134.481853 
L 87.263181 130.237426 
L 87.448526 118.612415 
L 87.817942 106.987403 
L 88.214841 101.163107 
L 88.271635 89.514516 
L 89.01401 89.066493 
L 89.680119 89.066493 
L 89.923219 85.741692 
L 90.095599 85.741692 
L 90.127372 84.326884 
L 90.456791 78.691229 
L 90.65147 78.691229 
L 90.924062 74.187421 
L 91.083902 73.503597 
L 91.393928 77.748023 
L 91.535887 74.305322 
L 91.74348 74.281742 
L 91.849279 78.549748 
L 91.905302 77.842344 
L 92.164102 75.861612 
L 92.302201 75.885192 
L 92.35425 81.143564 
L 92.358995 76.804817 
L 92.816984 75.012726 
L 92.857571 75.224948 
L 93.767479 76.710497 
L 94.010579 76.757657 
L 94.182959 72.961254 
L 94.214732 76.238894 
L 94.544151 70.7683 
L 94.879143 70.7683 
L 94.917049 66.146592 
L 95.14505 66.075851 
L 95.171262 61.100441 
L 95.437901 61.076861 
L 95.623247 66.311653 
L 95.936639 66.264493 
L 95.992662 66.240912 
L 96.251462 63.741417 
L 96.389561 63.953638 
L 96.44161 63.411295 
L 96.446355 63.458455 
L 96.78251 63.458455 
L 96.944932 61.784265 
L 97.055102 56.384412 
L 97.524969 56.360832 
L 98.631511 48.03704 
L 99.23241 47.94272 
L 99.258623 44.429278 
L 99.710607 33.157969 
L 99.898519 34.502037 
L 99.9182 34.148335 
L 100.023999 34.124755 
L 100.141619 44.971621 
L 100.476922 56.360832 
L 100.52897 62.185127 
L 100.86987 66.618195 
L 101.032292 77.41967 
L 101.612329 82.725202 
L 102.577396 88.502338 
L 103.09177 94.373794 
L 103.345983 107.154233 
L 103.797967 118.284061 
L 103.98588 124.131937 
L 104.11136 135.308926 
L 104.433133 152.404531 
L 104.564282 148.796769 
L 104.61633 152.640333 
L 104.762552 152.640333 
L 104.957231 152.852554 
L 105.079065 158.511789 
L 105.097544 156.625377 
L 105.119652 154.753703 
L 105.699689 151.311002 
L 106.211063 151.311002 
L 106.664756 150.792239 
L 107.407131 143.932185 
L 107.885328 144.285887 
L 108.07324 144.993292 
L 108.19872 146.974024 
L 108.48872 145.936498 
L 108.520493 152.138076 
L 108.849912 150.369565 
L 109.044591 150.133763 
L 109.207012 145.983658 
L 109.743662 142.328735 
L 109.78705 147.775749 
L 110.136601 142.367053 
L 110.298423 146.988762 
L 110.695322 141.329527 
L 110.747371 146.234197 
L 110.752116 145.550373 
L 111.210105 145.597533 
L 111.360863 144.560007 
L 112.1606 144.111984 
L 112.4037 143.758282 
L 112.57608 145.998395 
L 112.600903 145.833334 
L 112.607853 141.146191 
L 113.272264 141.146191 
L 113.31017 135.934979 
L 113.564384 138.152102 
L 113.87441 138.199262 
L 114.016368 144.070719 
L 114.223961 139.095308 
L 114.385784 142.137147 
L 114.782683 142.373538 
L 114.980952 159.115441 
L 115.297465 159.304082 
L 115.448223 153.833488 
L 116.24796 151.310413 
L 116.663441 151.239672 
L 116.695214 146.688704 
L 117.359624 145.061674 
L 117.397531 140.628607 
L 117.625532 140.438197 
L 117.651744 140.721159 
L 117.918383 136.217351 
L 118.103728 136.311672 
L 118.731943 136.382412 
L 118.870043 141.051281 
L 118.922091 135.840069 
L 118.926837 136.311672 
L 119.068313 136.311672 
L 119.262992 131.784284 
L 119.384826 132.090826 
L 119.425413 130.298735 
L 120.355001 119.970631 
L 121.484891 117.589037 
L 121.579264 121.173219 
L 121.739104 121.173219 
L 122.191089 113.27387 
L 122.379001 113.25029 
L 122.622101 110.783217 
L 122.794481 110.783217 
L 122.819304 107.741378 
L 122.826254 108.283722 
L 123.009452 108.283722 
L 123.155673 113.139463 
L 123.472186 107.480228 
L 123.512773 101.915314 
L 123.756572 99.368658 
L 124.092811 94.652629 
L 124.442362 95.737316 
L 125.057877 95.784476 
L 125.394032 92.011653 
L 125.666624 92.082394 
L 126.278449 89.394257 
L 126.591841 98.614094 
L 126.709461 98.614094 
L 126.881841 104.02279 
L 126.906664 103.999209 
L 126.913614 109.705605 
L 127.243033 109.823505 
L 127.559546 110.507329 
L 127.578025 106.545865 
L 127.615931 107.583391 
L 127.843932 107.37117 
L 127.870145 107.606972 
L 128.180171 107.984843 
L 128.529722 107.390034 
L 128.691545 107.390034 
L 129.088444 111.021377 
L 129.140492 110.973627 
L 129.145237 108.780673 
L 129.481392 114.487068 
L 129.753984 114.204107 
L 130.553721 119.391739 
L 130.796821 119.344578 
L 130.994024 119.108187 
L 131.000975 115.571166 
L 131.703291 111.821923 
L 131.931293 111.798342 
L 131.957505 107.247374 
L 132.224144 112.576487 
L 132.267531 112.411426 
L 132.409489 109.628969 
L 132.778905 109.676129 
L 133.175804 114.227097 
L 133.374074 106.71859 
L 133.690586 106.74217 
L 133.731174 111.694 
L 133.841345 108.770062 
L 134.660762 103.60601 
L 134.884181 103.55885 
L 135.056562 102.361568 
L 135.612433 107.313399 
L 135.790652 107.384139 
L 136.018653 107.174276 
L 136.044865 111.701664 
L 136.311504 111.843145 
L 136.496849 110.30513 
L 136.810242 113.229068 
L 136.866265 116.931151 
L 137.263164 112.02648 
L 137.319958 119.124104 
L 137.461434 113.53561 
L 137.777947 116.83683 
L 137.818534 125.420003 
L 138.398572 123.910873 
L 138.728442 127.943078 
L 138.748123 133.177871 
L 139.699793 132.069604 
L 139.878012 131.291459 
L 140.106013 141.855364 
L 140.132225 141.14796 
L 140.398864 143.718195 
L 141.187602 143.694615 
L 141.219375 148.952988 
L 141.350524 153.669017 
L 141.402573 153.527536 
L 141.548794 149.37743 
L 141.883786 149.28311 
L 142.485932 146.901515 
L 142.997306 146.902105 
L 143.450998 145.369395 
L 143.787153 148.481974 
L 143.949575 147.515188 
L 144.059745 147.703829 
L 144.67157 146.888546 
L 144.859482 146.887956 
L 144.984962 146.487094 
L 145.102582 152.240649 
L 145.274962 150.283497 
L 145.299785 151.839787 
L 145.306736 145.968331 
L 146.009052 147.479818 
L 146.237054 145.687727 
L 146.263266 144.473939 
L 146.529905 144.54468 
L 146.573292 144.426779 
L 146.922843 144.450359 
L 147.084666 146.572572 
L 147.538359 147.633679 
L 147.679834 152.562518 
L 147.874513 152.515358 
L 148.036935 152.84548 
L 148.147106 156.689044 
L 149.072323 150.558206 
L 149.189942 150.369565 
L 149.387145 159.00992 
L 150.058506 164.339032 
L 150.096413 164.315452 
L 150.324414 164.339032 
L 150.350626 162.31114 
L 150.660652 167.404451 
L 150.80261 167.451612 
L 151.172026 168.696054 
L 151.568925 168.931855 
L 151.620974 168.953077 
L 151.625719 168.740856 
L 151.767195 168.457894 
L 152.083708 172.542565 
L 152.124295 175.490083 
L 152.234466 170.420352 
L 153.034203 175.301442 
L 153.053883 169.477146 
L 153.449683 168.840482 
L 154.005554 170.868375 
L 154.183773 176.456869 
L 154.411774 176.716251 
L 154.437986 176.59835 
L 154.704625 176.456869 
L 154.748013 177.423655 
L 155.203363 171.599359 
L 155.259386 169.029123 
L 155.713079 160.889257 
L 155.854555 165.204424 
L 156.171068 164.072577 
L 156.189547 164.096157 
L 157.121563 163.695294 
L 157.141244 159.474448 
L 157.364663 156.43261 
L 157.537043 156.951373 
L 158.092914 155.230022 
L 158.365506 158.932105 
L 159.290723 159.969631 
L 159.605546 159.969042 
L 159.743646 158.554233 
L 159.795694 160.134103 
L 160.258428 160.275584 
L 160.276907 161.21879 
L 160.542814 161.100889 
L 160.569027 162.057653 
L 161.021011 160.713585 
L 161.228604 162.623577 
L 161.390427 162.293455 
L 161.656177 168.189081 
L 161.985595 160.994778 
L 162.342696 160.991241 
L 162.452867 162.205029 
L 163.252604 162.181449 
L 163.378083 162.511571 
L 163.495703 162.487991 
L 163.668084 163.87922 
L 163.692906 166.331555 
L 164.345788 164.775265 
L 164.402174 163.194806 
L 164.630175 163.218386 
L 164.656387 162.157279 
L 164.923026 160.506669 
L 164.966413 165.953683 
L 165.108371 165.717881 
L 165.477787 165.906523 
L 165.743537 166.661087 
L 165.926734 166.543186 
L 165.93148 166.566767 
L 166.072956 164.491714 
L 166.430056 167.227011 
L 166.540227 162.157279 
L 167.359644 159.280502 
L 167.583064 159.0447 
L 167.780266 152.701641 
L 168.311315 152.866702 
L 168.743747 141.524652 
L 169.010386 139.779722 
L 169.053774 145.061674 
L 169.195732 144.613651 
L 169.565147 151.074611 
L 169.830897 148.362895 
L 170.014095 143.293163 
L 170.01884 143.906247 
L 170.160316 145.462537 
L 170.476829 145.273895 
L 170.495308 141.218111 
L 170.517416 143.340324 
L 171.427324 147.089567 
L 171.447005 150.744489 
L 171.670424 154.02095 
L 171.842804 148.904059 
L 171.867627 150.318868 
L 172.398675 152.470556 
L 172.576894 147.451522 
L 172.804895 149.479414 
L 172.831108 148.394728 
L 173.141134 148.394728 
L 173.596484 153.063596 
L 173.652508 156.105435 
L 174.049407 155.987534 
L 174.101455 157.543824 
L 174.1062 156.600618 
L 174.247676 151.554467 
L 174.564189 150.705582 
L 174.582668 151.97891 
L 175.141427 152.00249 
L 175.326772 153.157917 
L 175.514684 153.087177 
L 175.534365 153.299398 
L 175.757784 153.322978 
L 175.930164 154.030382 
L 175.961938 152.969276 
L 176.486035 152.733474 
L 176.648457 151.648788 
L 176.758627 152.02607 
L 177.683844 152.07323 
L 177.998667 152.426933 
L 178.188815 151.884 
L 178.193561 157.118792 
L 178.651549 159.759768 
L 178.670028 157.707117 
L 178.707935 159.551084 
L 179.414132 146.817806 
L 179.602045 146.582004 
L 179.621725 145.9925 
L 180.049298 147.59595 
L 180.180447 142.59696 
L 180.378717 141.465113 
L 180.573396 144.176829 
L 180.845988 143.445845 
L 181.771205 143.469425 
L 181.888825 142.903501 
L 182.276176 142.974242 
L 182.73891 144.931394 
L 183.049508 155.094436 
L 183.316147 155.070856 
L 183.359534 155.259497 
L 183.501493 160.47071 
L 183.870908 160.918732 
L 184.136658 160.753671 
L 184.466077 172.142881 
L 184.801069 174.453736 
L 184.823177 169.053882 
L 184.933348 169.313264 
L 185.733085 170.515851 
L 185.858565 177.212613 
L 185.976185 176.929651 
L 186.173388 175.514842 
L 186.882655 175.774224 
L 187.110656 175.797804 
L 187.136868 170.138569 
L 187.446895 170.114989 
L 187.958268 171.576958 
L 188.224018 176.71743 
L 188.355167 176.552369 
L 188.407216 174.925339 
L 188.411961 179.920792 
L 188.888429 179.944372 
L 189.447188 178.576724 
L 189.632533 177.044015 
L 189.820445 177.067595 
L 189.840126 172.186505 
L 190.063545 166.941691 
L 190.235925 167.271813 
L 190.260748 166.72947 
L 190.791796 171.586979 
L 190.970015 171.846361 
L 191.064388 171.61056 
L 191.198016 171.846361 
L 191.534255 168.993164 
L 191.989605 168.026378 
L 192.045629 162.697265 
L 192.442528 161.9427 
L 192.494576 162.084181 
L 192.499322 162.555784 
L 192.640797 158.877281 
L 192.975789 153.147306 
L 193.534548 153.713229 
L 193.719893 151.685337 
L 193.907806 150.977933 
L 193.927486 149.115101 
L 194.150905 149.115101 
L 194.323286 153.972611 
L 194.355059 153.453848 
L 194.879156 156.849389 
L 195.041578 156.731488 
L 195.151749 158.853701 
L 196.076966 159.372464 
L 196.132989 161.518258 
L 196.529888 160.999494 
L 196.586682 167.955637 
L 197.044671 168.3565 
L 197.101056 170.00711 
L 197.329057 170.00711 
L 197.355269 169.252545 
L 197.621908 169.252545 
L 197.665295 163.404669 
L 197.807253 163.381089 
L 198.014846 160.480731 
L 198.410646 160.457151 
L 198.442419 159.844067 
L 198.771838 157.556793 
L 199.128938 148.90288 
L 199.239109 148.90288 
L 200.281946 148.101155 
L 200.669297 137.985273 
L 201.132031 137.938112 
L 201.15051 135.226396 
L 201.188416 141.097852 
L 201.416417 141.097852 
L 201.442629 138.150334 
L 201.709268 133.033442 
L 201.752656 133.481465 
L 201.894614 132.821221 
L 202.102207 133.174923 
L 202.264029 132.844801 
L 202.529779 130.628267 
L 202.660928 135.273556 
L 202.717722 133.080602 
L 202.859198 135.450407 
L 203.053877 129.720432 
L 203.326469 128.116982 
L 204.126206 127.81044 
L 204.251686 131.418202 
L 204.369306 130.239195 
L 204.566509 130.239195 
L 205.219391 129.767592 
L 205.275776 130.805118 
L 205.503777 130.710798 
L 205.52999 132.62079 
L 205.981974 138.030664 
L 206.35139 136.545115 
L 206.61714 136.214993 
L 206.800337 131.098102 
L 206.805083 125.250226 
L 206.946558 125.627508 
L 207.28155 123.222333 
L 207.303659 124.141959 
L 208.213566 129.423911 
L 208.233247 128.527866 
L 208.456666 129.329591 
L 208.629047 125.863309 
L 208.653869 129.18811 
L 209.184917 133.243895 
L 209.363137 132.347849 
L 209.591138 127.796881 
L 209.61735 128.787247 
L 210.382726 132.677971 
L 210.7045 128.527866 
L 210.835649 128.881568 
L 210.887697 131.357483 
L 210.892443 130.697239 
L 211.36891 130.555758 
L 211.927669 129.871934 
L 212.113014 123.175173 
L 212.300927 121.925425 
L 212.320607 116.077549 
L 212.544027 116.077549 
L 212.741229 114.172863 
L 213.077599 114.172863 
L 213.272278 115.493351 
L 213.434699 114.715206 
L 213.450497 120.563082 
L 213.54487 119.549136 
L 213.70471 120.044319 
L 214.470087 117.544824 
L 214.52611 118.181488 
L 214.923009 120.516512 
L 214.979803 129.146845 
L 215.437792 129.123265 
L 215.456271 130.090051 
L 216.015029 129.736348 
L 216.200375 140.205933 
L 216.407968 136.857552 
L 216.83554 138.791124 
L 217.164959 138.791124 
L 217.522059 137.989399 
L 217.63223 143.129871 
L 217.79207 140.158773 
L 218.431967 137.305575 
L 219.525152 144.895434 
L 219.543631 148.102334 
L 219.581537 148.031593 
L 219.809538 148.856899 
L 220.287735 149.493562 
L 220.657151 149.446402 
L 220.922901 148.621097 
L 221.110843 152.488241 
L 221.252319 152.558981 
L 221.60942 157.510812 
L 222.519327 157.534392 
L 222.539008 159.185002 
L 222.644807 155.718721 
L 222.762427 158.949201 
L 222.934808 154.810885 
L 222.95963 155.683351 
L 223.612512 152.759413 
L 223.668897 157.734823 
L 223.896899 155.942732 
L 223.923111 157.923464 
L 224.18975 157.121739 
L 224.375095 153.749779 
L 224.744511 152.38213 
L 225.010261 147.878323 
L 225.14141 150.094856 
L 225.198204 148.585727 
L 225.69678 142.66711 
L 225.806951 146.227712 
L 226.606688 146.369193 
L 226.626368 145.944751 
L 226.849787 146.722895 
L 227.04699 146.864376 
L 227.38336 146.887956 
L 227.699873 143.610316 
L 227.756258 145.85043 
L 228.010471 144.529942 
L 228.462455 150.401398 
L 228.775848 150.401398 
L 228.831871 152.235933 
L 229.065848 151.599269 
L 229.097621 145.798554 
L 229.22877 145.751393 
L 229.280819 146.529538 
L 229.285564 143.888562 
L 229.762032 144.595966 
L 230.32079 142.237952 
L 230.364178 142.685975 
L 230.694048 144.454485 
L 230.713729 139.762037 
L 230.937148 138.228738 
L 231.134351 138.275898 
L 231.665399 137.474173 
L 231.82782 135.443333 
L 231.937991 125.445351 
L 232.097831 121.389566 
L 232.863208 124.761527 
L 232.919231 125.563252 
L 233.153208 125.376969 
L 233.31613 126.037213 
L 233.368179 129.762876 
L 233.372924 129.739296 
L 233.830913 132.710394 
L 233.849392 131.893932 
L 234.115299 131.65813 
L 234.40815 128.687032 
L 234.451538 129.479914 
L 234.593496 129.479914 
L 235.228661 127.310541 
L 235.55808 124.622994 
L 235.752759 124.646574 
L 235.915181 123.868429 
L 236.025351 118.350675 
L 236.950568 118.209194 
L 237.068188 117.171668 
L 237.455539 107.079366 
L 237.936752 106.985635 
L 237.974658 105.924528 
L 238.228872 105.924528 
L 238.680856 112.350707 
L 239.316022 119.849193 
L 239.503965 119.165369 
L 239.64544 117.111539 
L 240.002541 118.597088 
L 240.112712 119.587454 
L 240.912449 124.987307 
L 241.037928 130.31642 
L 241.155548 136.140716 
L 241.327929 133.829862 
L 241.352751 138.286509 
L 242.005634 138.40441 
L 242.062019 137.623317 
L 242.29002 139.085286 
L 242.316232 138.07134 
L 242.582871 138.07193 
L 242.626258 138.472792 
L 242.768216 136.869342 
L 243.137632 136.326999 
L 243.403382 135.407373 
L 243.534531 138.802914 
L 243.58658 137.506006 
L 243.591325 143.353882 
L 243.92748 145.145973 
L 244.999809 145.122393 
L 245.019489 144.212199 
L 245.242909 144.094299 
L 245.440112 149.871434 
L 245.776481 145.391207 
L 246.092994 145.391207 
L 246.133581 146.923916 
L 246.149379 142.372948 
L 246.243752 146.735275 
L 246.37738 141.807025 
L 246.713619 142.278628 
L 246.855577 146.364477 
L 247.168969 146.576699 
L 247.224992 147.001141 
L 247.458969 147.826446 
L 247.621891 144.327153 
L 247.67394 146.334413 
L 247.678685 151.050442 
L 248.447272 159.940746 
L 249.087169 153.276407 
L 249.10685 153.41553 
L 249.527472 153.41553 
L 249.534422 152.920347 
L 250.05852 152.896767 
L 250.331112 157.627534 
L 250.46474 160.787273 
L 251.256329 160.810853 
L 251.312353 160.598632 
L 251.546329 160.22135 
L 251.709252 160.716533 
L 251.766045 167.860727 
L 251.907521 164.488766 
L 252.224034 165.243331 
L 252.242513 170.077261 
L 252.280419 169.369856 
L 252.534633 169.039734 
L 252.986617 178.879729 
L 253.174529 179.233431 
L 253.417629 173.597776 
L 253.621783 171.543356 
L 254.14588 172.628043 
L 254.308302 166.780167 
L 254.418473 166.827327 
L 255.23789 166.520196 
L 255.343689 163.195395 
L 255.399713 166.307974 
L 255.63369 166.001433 
L 255.658512 165.364769 
L 255.796612 165.694891 
L 255.84866 163.480715 
L 255.853406 164.494661 
L 255.994882 164.494661 
L 256.311394 164.2117 
L 256.36778 158.528885 
L 256.595781 158.505304 
L 256.932019 156.21803 
L 257.073977 156.21803 
L 257.709143 159.660732 
L 258.233241 158.222343 
L 258.373554 157.499022 
L 258.505833 163.326265 
L 258.665673 163.349845 
L 258.932312 161.469329 
L 259.30557 161.492319 
L 259.32525 160.949976 
L 259.43105 162.388365 
L 259.54867 160.148251 
L 259.745872 161.58664 
L 259.936021 162.977868 
L 260.082242 161.822441 
L 260.398755 160.468941 
L 260.45514 159.206224 
L 260.683141 159.455584 
L 261.019379 159.573485 
L 261.161338 157.757814 
L 261.530753 161.082614 
L 261.796503 161.082614 
L 261.984446 160.39879 
L 262.320601 160.39879 
L 262.460914 162.473843 
L 262.753033 162.544583 
L 263.51841 164.094388 
L 263.63603 167.853064 
L 263.833233 165.61295 
L 264.486115 165.61236 
L 264.526702 166.20658 
L 264.636873 172.894499 
L 264.770501 172.941659 
L 265.10674 168.154889 
L 265.618113 168.131309 
L 265.85209 168.650072 
L 266.015013 168.650072 
L 266.067061 169.711179 
L 266.071806 164.405646 
L 266.548274 164.382066 
L 266.840394 160.302701 
L 267.107033 161.363808 
L 267.292378 160.11406 
L 267.48029 154.266184 
L 267.499971 149.550155 
L 267.72339 152.898535 
L 267.920593 152.167551 
L 267.927544 152.214711 
L 268.256962 154.030382 
L 268.724233 155.25655 
L 268.857862 155.23297 
L 269.939451 150.486287 
L 270.102373 151.335172 
L 270.159167 147.352485 
L 270.617155 152.96456 
L 270.657743 150.300003 
L 270.673541 150.630125 
L 271.194393 153.884186 
L 271.23778 149.521859 
L 271.379738 147.989149 
L 271.81075 149.569019 
L 272.014904 153.860605 
L 272.344323 153.860605 
L 272.679314 143.839044 
L 272.811594 147.258165 
L 272.945222 147.116684 
L 272.971434 147.818783 
L 273.736811 145.531509 
L 273.792834 146.757676 
L 274.051633 147.433837 
L 274.189733 147.433837 
L 274.241782 145.712486 
L 274.246527 147.970285 
L 274.704516 147.970285 
L 274.745103 147.473334 
L 274.760901 147.638395 
L 275.32514 149.902088 
L 275.898111 149.949249 
L 276.070491 145.751983 
L 276.626362 148.108818 
L 276.766675 143.41637 
L 276.898954 143.322049 
L 277.325433 140.745329 
L 277.824171 139.381217 
L 278.138994 138.815294 
L 278.145944 143.932185 
L 278.277093 139.8764 
L 278.329142 142.776758 
L 278.791876 142.022193 
L 278.848261 139.273338 
L 279.076262 136.467301 
L 279.412501 136.231499 
L 279.923874 136.184339 
L 280.157851 138.306552 
L 280.377567 137.858529 
L 280.713722 137.834949 
L 280.854035 137.38221 
L 281.146155 135.825921 
L 281.598139 131.180632 
L 281.786051 134.623333 
L 282.029151 133.515067 
L 282.226354 133.515067 
L 282.233305 128.633977 
L 282.879236 134.01025 
L 283.029994 133.090624 
L 283.163622 137.38221 
L 283.499861 137.122829 
L 283.849412 135.024196 
L 284.245212 145.588101 
L 284.408134 145.588101 
L 284.464928 146.885009 
L 284.941395 146.814268 
L 284.979301 146.012544 
L 285.233515 146.059704 
L 285.500154 147.592413 
L 285.685499 147.789897 
L 285.873412 148.685943 
L 286.116511 156.656032 
L 286.320665 156.608871 
L 286.966596 156.255169 
L 287.117355 156.632451 
L 287.250983 160.994778 
L 287.936772 159.57997 
L 288.332572 157.104054 
L 288.547542 157.104054 
L 288.552288 162.173786 
L 289.028756 166.654013 
L 289.050864 168.894127 
L 289.066662 163.494274 
L 289.587514 162.01403 
L 289.630901 164.325474 
L 289.772859 162.344742 
L 289.960772 162.745604 
L 290.408025 155.270698 
L 290.932123 156.992049 
L 291.338343 157.22785 
L 291.364555 158.149244 
L 292.024133 155.932711 
L 292.129932 156.380733 
L 292.185955 152.820131 
L 292.444755 150.067739 
L 292.582854 154.359325 
L 292.639648 150.203914 
L 293.097637 151.430082 
L 293.154022 155.633832 
L 293.718262 158.03547 
L 293.86022 158.08322 
L 294.048132 159.851731 
L 294.291232 159.851731 
L 295.019483 163.908105 
L 295.292075 163.908105 
L 295.718554 166.902784 
L 296.111493 167.812388 
L 296.217292 170.618425 
L 296.532115 170.854226 
L 296.539065 165.029931 
L 296.670215 164.181045 
L 296.722263 164.652648 
L 296.727008 164.629068 
L 297.184997 165.501534 
L 297.225585 166.987083 
L 297.469383 164.346106 
L 297.805622 165.784495 
L 298.550972 167.765227 
L 299.247156 168.001029 
L 299.285062 171.207929 
L 299.539276 171.160768 
L 299.805915 171.302249 
L 300.179172 168.967815 
L 300.198853 169.227196 
L 300.304652 172.269035 
L 300.619475 170.547685 
L 300.626426 168.661273 
L 300.757575 167.883128 
L 301.272357 167.104983 
L 301.312945 167.152144 
L 301.423116 165.902396 
L 301.556744 165.902396 
L 301.892982 167.835968 
L 302.404356 167.355522 
L 302.638333 167.331942 
L 302.853303 167.00182 
L 302.858049 167.072561 
L 303.194204 167.261202 
L 303.334516 162.710234 
L 303.372423 163.299737 
L 303.626636 163.111096 
L 303.893275 163.959982 
L 304.07862 163.959982 
L 304.392013 169.760697 
L 304.509633 168.888232 
L 304.706835 168.864652 
L 304.713786 169.619216 
L 305.510476 168.60527 
L 306.491716 171.529208 
L 306.725693 171.552199 
L 306.888615 172.000222 
L 306.940664 170.821214 
L 306.945409 175.961686 
L 307.459783 178.343281 
L 307.687784 178.720563 
L 307.713996 178.508342 
L 307.980635 178.626242 
L 308.024023 180.583394 
L 308.165981 177.022792 
L 308.353893 180.606975 
L 308.596993 182.729188 
L 308.794196 182.416161 
L 308.801146 183.453688 
L 309.325244 187.491198 
L 309.447078 187.491198 
L 309.597836 186.406511 
L 310.417254 186.406511 
L 310.523053 185.463305 
L 310.579076 187.090335 
L 310.975975 183.057541 
L 311.028024 183.434823 
L 311.032769 182.8689 
L 311.547143 178.600304 
L 312.067995 169.78133 
L 312.253341 169.85207 
L 312.684353 169.82849 
L 312.888506 175.699946 
L 313.412604 176.713893 
L 314.666437 176.737473 
L 314.900414 175.723526 
L 314.925236 181.594983 
L 315.063336 180.604617 
L 315.12013 180.887578 
L 315.634503 180.840418 
L 315.728877 182.514608 
L 315.862505 182.514608 
L 316.155356 183.174852 
L 316.340701 185.344226 
L 316.528613 182.86831 
L 316.771713 183.787936 
L 317.499964 184.589661 
L 318.591974 185.438546 
L 318.697774 186.971256 
L 319.012596 187.560759 
L 319.019547 188.409645 
L 319.202744 188.291744 
L 319.20749 186.02805 
L 319.721864 186.00447 
L 319.816237 186.452493 
L 319.949865 185.886569 
L 320.286103 185.721508 
L 320.428061 186.806195 
L 320.797477 186.853355 
L 321.194376 192.842712 
L 321.587325 191.946666 
L 322.659654 191.640124 
L 322.785134 191.404323 
L 323.290105 179.142648 
L 323.903597 174.61526 
L 324.373464 172.422306 
L 324.515422 172.422306 
L 324.884837 173.715677 
L 325.118814 173.762837 
L 325.281736 173.267654 
L 325.33853 169.565572 
L 325.674685 168.457305 
L 326.080905 168.080022 
L 326.747014 166.995336 
L 327.187317 166.924595 
L 328.916174 167.372618 
L 328.972198 169.494831 
L 329.206174 169.494831 
L 329.425891 169.211869 
L 330.168266 169.37693 
L 330.504504 174.18728 
L 330.834374 173.173334 
L 331.077474 173.173334 
L 331.274677 172.029697 
L 331.805725 175.590299 
L 333.003534 174.482032 
L 333.059558 173.444505 
L 333.293535 173.939688 
L 333.456457 178.231275 
L 333.513251 177.42955 
L 333.97124 181.909778 
L 334.255626 181.862617 
L 334.591864 179.785206 
L 334.921735 176.224605 
L 335.552185 174.408933 
L 335.893086 174.361773 
L 337.380895 173.89017 
L 337.405718 174.927697 
L 337.600611 174.927697 
L 338.0586 170.848331 
L 338.209358 170.777591 
L 338.342986 170.518209 
L 338.679225 166.085142 
L 339.190598 166.155883 
L 339.639546 165.943661 
L 339.980446 160.260846 
L 341.052775 160.260846 
L 341.178255 160.119365 
L 341.295875 162.54812 
L 341.687971 160.190106 
L 342.14596 160.025045 
L 342.296718 159.694923 
L 342.430346 159.859984 
L 342.766585 159.2469 
L 343.277959 159.034679 
L 343.511935 159.789243 
L 343.674858 159.789243 
L 343.726906 159.671343 
L 345.140135 158.515916 
L 345.265615 156.464443 
L 345.580438 158.256534 
L 346.111486 154.601611 
L 346.23332 155.733458 
L 346.384078 155.733458 
L 346.853945 156.912466 
L 347.365319 157.006786 
L 347.599296 157.219008 
L 347.762218 158.256534 
L 347.819012 167.947974 
L 348.561387 172.687583 
L 349.227496 168.513897 
L 349.470595 168.9855 
L 349.667798 171.956598 
L 350.198847 171.980178 
L 350.320681 176.228142 
L 351.396656 176.534683 
L 351.452679 174.766173 
L 351.901627 180.967751 
L 351.906372 180.87343 
L 352.515119 180.213186 
L 352.648747 179.22282 
L 353.314856 179.2464 
L 353.557956 177.006286 
L 353.755159 178.515416 
L 354.286207 178.421095 
L 354.408041 176.817645 
L 355.540039 175.662218 
L 355.993732 173.540005 
L 356.736107 174.671852 
L 357.072346 171.924765 
L 357.402216 170.910819 
L 357.645316 172.77365 
L 358.032667 172.632169 
L 358.373567 169.189468 
L 359.571376 169.165888 
L 359.6274 169.283789 
L 359.886199 170.203414 
L 360.081093 170.250575 
L 360.539081 167.942079 
L 360.823467 172.658108 
L 361.159706 172.658108 
L 361.732676 172.139344 
L 362.120027 171.997864 
L 363.533257 171.856383 
L 363.658736 170.913177 
L 363.71476 175.841427 
L 363.973559 175.865007 
L 364.168453 173.341932 
L 364.504608 177.751419 
L 364.626441 177.751419 
L 364.7772 177.98722 
L 365.247066 177.138335 
L 365.992417 182.962631 
L 366.155339 183.104112 
L 366.207387 182.325967 
L 366.954508 176.525251 
L 367.620617 177.044015 
L 367.746097 177.798579 
L 367.863717 177.822159 
L 368.06092 177.609938 
L 368.255813 177.633518 
L 368.591968 177.444877 
L 368.713802 177.562778 
L 368.86456 180.368815 
L 369.334427 180.392395 
L 369.8458 180.156594 
L 370.079777 182.208066 
L 370.294748 178.505984 
L 371.041868 178.482403 
L 371.707977 181.925105 
L 371.833457 180.486716 
L 372.801162 180.486716 
L 372.95192 179.166228 
L 373.933161 179.142648 
L 374.33006 178.836106 
L 374.382108 183.316333 
L 374.386853 182.79757 
L 375.129228 182.939051 
L 375.465467 177.091175 
L 375.920817 177.138335 
L 376.038437 179.142648 
L 376.23564 180.392395 
L 376.766688 180.203754 
L 376.888522 180.368815 
L 378.020521 181.359181 
L 378.254498 182.090166 
L 378.469468 181.17054 
L 378.474214 179.166228 
L 379.082961 181.382761 
L 379.216589 181.264861 
L 379.552827 181.359181 
L 380.125797 183.222013 
L 380.323 185.273485 
L 380.854049 185.344226 
L 381.926378 183.198432 
L 382.107881 184.165218 
L 382.341858 183.127692 
L 382.556829 183.952997 
L 382.561574 187.820141 
L 383.019563 188.810507 
L 383.170321 187.60792 
L 383.640187 188.173843 
L 384.213158 190.626178 
L 384.54846 190.649758 
L 384.941409 193.974559 
L 385.347629 192.040987 
L 386.013738 192.017996 
L 386.139218 189.094058 
L 386.195241 193.527126 
L 386.429218 193.338484 
L 386.454041 188.032952 
L 386.648934 187.79715 
L 387.257681 188.834677 
L 387.727548 185.533456 
L 388.635821 184.660991 
L 388.687869 185.415556 
L 389.028769 182.491618 
L 389.434989 182.491618 
L 390.101098 185.226914 
L 390.226578 184.826052 
L 390.344198 182.79816 
L 390.541401 183.623465 
L 390.736295 177.799169 
L 391.194283 177.799169 
L 391.345041 178.742375 
L 392.723181 185.674937 
L 392.775229 184.165808 
L 393.116129 183.246182 
L 393.52235 184.165808 
L 393.858588 183.835686 
L 394.188459 184.708151 
L 394.628761 182.350137 
L 395.281643 181.878534 
L 395.432402 187.74999 
L 396.647619 187.113326 
L 396.810541 187.160486 
L 396.862589 186.335181 
L 396.867335 187.113326 
L 397.60971 186.688883 
L 397.945948 185.745678 
L 398.275819 185.887159 
L 398.401299 183.930006 
L 398.457322 187.089746 
L 398.518919 187.066166 
L 398.716122 186.382342 
L 399.369004 180.982488 
L 399.519762 181.501252 
L 400.734979 181.31261 
L 400.897901 187.184067 
L 400.954695 182.82174 
L 402.606279 183.293343 
L 403.33453 183.269762 
L 403.607122 178.247191 
L 404.406859 180.133603 
L 404.532339 179.779901 
L 404.588363 181.760633 
L 404.985262 181.713473 
L 405.042055 181.029649 
L 405.78443 180.911748 
L 406.120669 180.345824 
L 406.693639 182.255816 
L 407.42189 182.279396 
L 407.543724 181.713473 
L 408.494219 180.487305 
L 408.619699 176.596581 
L 408.675723 176.620161 
L 408.9097 177.846329 
L 409.072622 174.80449 
L 409.129416 174.80449 
L 409.871791 175.488315 
L 410.208029 172.398726 
L 411.16835 172.610947 
L 411.509251 166.739491 
L 412.58158 164.617278 
L 412.70706 167.800598 
L 412.82468 162.202671 
L 412.99706 161.848969 
L 413.021882 165.19735 
L 413.216776 165.692533 
L 413.674765 161.566007 
L 413.825523 163.853281 
L 414.295389 160.858603 
L 415.203662 158.925031 
L 415.255711 157.580963 
L 416.002831 157.274421 
L 416.66894 158.71281 
L 416.79442 157.863925 
L 416.850443 158.435743 
L 416.91204 157.846239 
L 417.109243 157.846239 
L 417.640291 149.525396 
L 417.762125 148.770831 
L 417.912883 149.879098 
L 419.291022 147.544663 
L 419.343071 147.356022 
L 420.090191 148.440709 
L 420.42643 149.360335 
L 420.7563 149.383915 
L 420.9994 150.18564 
L 421.196603 147.804045 
L 421.727651 145.139489 
L 421.849485 146.554297 
L 422.000243 146.530717 
L 422.92546 147.544663 
L 422.981484 148.158337 
L 423.215461 148.299818 
L 423.378383 149.243023 
L 423.435177 148.263858 
L 424.177552 148.66472 
L 424.51379 148.64114 
L 424.843661 148.452499 
L 425.08676 149.348545 
L 425.283963 153.663711 
L 425.474111 153.899513 
L 425.815011 152.225322 
L 426.087604 147.348359 
L 427.012821 147.208646 
L 427.068844 151.217271 
L 427.302821 147.575318 
L 427.522537 147.339516 
L 427.980526 142.229109 
L 428.264912 141.996255 
L 429.371324 146.570803 
L 429.561472 146.405742 
L 429.902372 146.759445 
L 430.174964 145.155995 
L 431.100181 144.802293 
L 431.217801 145.556857 
L 431.390181 144.542911 
L 431.553103 141.666133 
L 431.609897 143.033782 
L 432.067886 142.7744 
L 432.352272 136.902944 
L 433.458684 138.529974 
L 433.648832 139.638241 
L 434.732191 143.553134 
L 435.062061 138.483403 
L 435.305161 138.483403 
L 435.640464 134.380458 
L 436.033412 137.516617 
L 436.155246 137.493037 
L 436.306004 137.115755 
L 437.231221 138.931426 
L 437.287245 141.808204 
L 437.521222 142.940051 
L 437.740938 148.811507 
L 438.483313 146.547813 
L 439.149421 151.24203 
L 439.392521 154.977125 
L 439.779872 154.882805 
L 440.120772 155.401568 
L 440.242606 159.598834 
L 440.393365 160.353398 
L 441.318582 163.348077 
L 441.374605 164.149802 
L 441.608582 164.857206 
L 441.828298 164.352591 
L 442.570673 163.42766 
L 443.236782 166.133481 
L 443.677084 162.030536 
L 443.867233 162.054116 
L 444.208133 165.473237 
L 444.480725 170.233479 
L 444.950591 172.261372 
L 445.405942 172.284952 
L 445.461965 173.440379 
L 445.523562 173.275318 
L 445.695942 173.463959 
L 445.915658 173.463959 
L 446.373647 173.58186 
L 446.658033 170.587181 
L 447.764445 172.497173 
L 447.954593 172.308532 
L 449.037952 168.317003 
L 449.367822 168.340583 
L 449.610922 167.486392 
L 449.783302 164.868407 
L 449.946224 165.198529 
L 450.339173 165.222109 
L 450.461007 164.550664 
L 450.611765 166.083374 
L 451.536982 163.536718 
L 451.593006 160.707101 
L 452.041953 159.693154 
L 452.046698 160.542039 
L 452.789073 160.518459 
L 453.125312 159.251027 
L 453.455182 164.340211 
L 453.895485 154.085206 
L 454.426533 156.831114 
L 454.548367 153.671375 
L 454.699126 153.671375 
L 455.624342 153.971432 
L 455.914343 151.604575 
L 456.077265 152.170498 
L 456.134059 150.3283 
L 456.876434 150.210399 
L 457.542543 151.837429 
L 457.982845 150.917803 
L 458.172993 145.51795 
L 458.513894 142.051669 
L 459.256352 140.626838 
L 459.711703 144.06954 
L 459.829323 137.467099 
L 460.001703 143.338555 
L 460.679408 140.163489 
L 460.963794 140.139319 
L 462.070206 145.20905 
L 462.260354 145.20905 
L 462.265099 145.989553 
L 463.343713 140.471799 
L 463.673583 139.575753 
L 463.855086 135.048366 
L 463.916683 135.237007 
L 464.089063 136.581075 
L 464.251985 136.511514 
L 464.644934 138.562986 
L 464.766768 138.561218 
L 464.917526 137.500111 
L 465.051154 137.500111 
L 466.347714 136.391844 
L 466.352459 131.062732 
L 467.431073 130.125421 
L 468.004043 121.683729 
L 468.201246 121.636568 
L 468.732294 118.429669 
L 469.004886 114.477636 
L 469.930103 114.454056 
L 469.986127 113.468996 
L 470.383026 117.949223 
L 471.848304 117.832502 
L 472.288606 116.158311 
L 472.478754 110.334015 
L 472.4835 110.640557 
L 472.819655 111.536603 
L 473.092247 108.919207 
L 473.562113 108.895627 
L 474.017464 108.424024 
L 474.073487 109.343649 
L 474.307464 107.245016 
L 474.985169 110.970679 
L 475.269555 112.132591 
L 475.935664 111.011945 
L 476.375967 111.818975 
L 476.566115 114.436371 
L 476.57086 113.115883 
L 476.907015 112.880082 
L 477.649474 114.507112 
L 478.104824 112.927242 
L 478.394824 118.727958 
L 478.557746 118.539316 
L 479.072529 118.539316 
L 479.223287 121.457359 
L 479.356915 117.778857 
L 480.463327 121.617704 
L 480.65822 127.579355 
L 480.994375 125.127019 
L 481.736834 125.127019 
L 482.248208 129.680345 
L 482.309804 129.161582 
L 483.159889 131.168842 
L 483.310647 128.952309 
L 484.525865 127.63182 
L 484.688787 125.962346 
L 484.745581 134.899221 
L 485.487956 135.545907 
L 485.824194 136.654173 
L 486.154065 135.545907 
L 486.335568 142.360569 
L 486.397164 142.336988 
L 486.594367 138.673813 
L 487.125415 140.843186 
L 487.247249 140.819606 
L 487.398008 139.994301 
L 488.613225 139.970721 
L 488.776147 144.094888 
L 488.832941 149.989925 
L 489.575316 149.872024 
L 489.911554 151.664115 
L 490.241425 150.88597 
L 490.484525 151.144173 
L 490.681728 153.761569 
L 491.212776 153.90305 
L 491.33461 151.969478 
L 491.485368 151.757256 
L 492.466608 153.360706 
L 492.700585 158.666239 
L 492.863507 159.62713 
L 492.915556 165.475006 
L 493.662676 168.210303 
L 493.998915 168.233883 
L 494.328785 170.497577 
L 494.769088 175.425827 
L 494.963981 175.449407 
L 495.300136 178.208284 
L 495.42197 178.231864 
L 495.572728 179.458032 
L 496.553969 179.504013 
L 496.787945 180.164257 
L 496.950868 179.857715 
L 497.002916 185.634851 
L 497.750036 186.106454 
L 498.086275 185.941393 
L 498.659245 188.535209 
L 499.051342 188.511629 
L 499.387496 188.959651 
L 500.459825 183.606958 
L 500.641329 188.440888 
L 500.875306 187.992865 
L 500.900128 188.063606 
L 501.703769 191.99029 
L 503.138702 188.972031 
L 503.881077 185.883032 
L 504.547186 186.095253 
L 504.962666 185.340689 
L 504.987488 185.670811 
L 505.640371 186.425375 
L 505.791129 186.213154 
L 507.169268 186.165994 
L 507.226062 186.401795 
L 507.968437 186.165994 
L 508.634546 186.118833 
L 509.050026 189.797336 
L 509.074849 191.641303 
L 509.878489 191.14612 
L 511.256628 191.12254 
L 512.055797 196.970416 
L 512.721906 196.946836 
L 513.162209 198.318022 
L 513.965849 198.318022 
L 515.181067 199.449869 
L 515.343989 199.779991 
L 516.143158 199.803571 
L 517.249569 203.411922 
L 519.431349 206.189664 
L 520.230518 206.236824 
L 521.33693 206.024603 
L 525.42429 206.283984 
L 525.42429 206.283984 
" clip-path="url(#p1894e6fce7)" style="fill: none; stroke: #b85741; stroke-width: 2.5; stroke-linecap: square"/>
   </g>
   <g id="patch_3">
    <path d="M 46.051562 244.837969 
L 46.051562 23.077969 
" style="fill: none; stroke: #000000; stroke-width: 0.8; stroke-linejoin: miter; stroke-linecap: square"/>
   </g>
   <g id="patch_4">
    <path d="M 548.251563 244.837969 
L 548.251563 23.077969 
" style="fill: none; stroke: #000000; stroke-width: 0.8; stroke-linejoin: miter; stroke-linecap: square"/>
   </g>
   <g id="patch_5">
    <path d="M 46.051562 244.837969 
L 548.251563 244.837969 
" style="fill: none; stroke: #000000; stroke-width: 0.8; stroke-linejoin: miter; stroke-linecap: square"/>
   </g>
   <g id="patch_6">
    <path d="M 46.051562 23.077969 
L 548.251563 23.077969 
" style="fill: none; stroke: #000000; stroke-width: 0.8; stroke-linejoin: miter; stroke-linecap: square"/>
   </g>
   <g id="text_12">
    <!-- Create Many Type-1 VMs (Disk) -->
    <g transform="translate(195.853125 17.077969) scale(0.13 -0.13)">
     <defs>
      <path id="DejaVuSans-43" d="M 4122 4306 
L 4122 3641 
Q 3803 3938 3442 4084 
Q 3081 4231 2675 4231 
Q 1875 4231 1450 3742 
Q 1025 3253 1025 2328 
Q 1025 1406 1450 917 
Q 1875 428 2675 428 
Q 3081 428 3442 575 
Q 3803 722 4122 1019 
L 4122 359 
Q 3791 134 3420 21 
Q 3050 -91 2638 -91 
Q 1578 -91 968 557 
Q 359 1206 359 2328 
Q 359 3453 968 4101 
Q 1578 4750 2638 4750 
Q 3056 4750 3426 4639 
Q 3797 4528 4122 4306 
z
" transform="scale(0.015625)"/>
      <path id="DejaVuSans-72" d="M 2631 2963 
Q 2534 3019 2420 3045 
Q 2306 3072 2169 3072 
Q 1681 3072 1420 2755 
Q 1159 2438 1159 1844 
L 1159 0 
L 581 0 
L 581 3500 
L 1159 3500 
L 1159 2956 
Q 1341 3275 1631 3429 
Q 1922 3584 2338 3584 
Q 2397 3584 2469 3576 
Q 2541 3569 2628 3553 
L 2631 2963 
z
" transform="scale(0.015625)"/>
      <path id="DejaVuSans-4d" d="M 628 4666 
L 1569 4666 
L 2759 1491 
L 3956 4666 
L 4897 4666 
L 4897 0 
L 4281 0 
L 4281 4097 
L 3078 897 
L 2444 897 
L 1241 4097 
L 1241 0 
L 628 0 
L 628 4666 
z
" transform="scale(0.015625)"/>
      <path id="DejaVuSans-79" d="M 2059 -325 
Q 1816 -950 1584 -1140 
Q 1353 -1331 966 -1331 
L 506 -1331 
L 506 -850 
L 844 -850 
Q 1081 -850 1212 -737 
Q 1344 -625 1503 -206 
L 1606 56 
L 191 3500 
L 800 3500 
L 1894 763 
L 2988 3500 
L 3597 3500 
L 2059 -325 
z
" transform="scale(0.015625)"/>
      <path id="DejaVuSans-70" d="M 1159 525 
L 1159 -1331 
L 581 -1331 
L 581 3500 
L 1159 3500 
L 1159 2969 
Q 1341 3281 1617 3432 
Q 1894 3584 2278 3584 
Q 2916 3584 3314 3078 
Q 3713 2572 3713 1747 
Q 3713 922 3314 415 
Q 2916 -91 2278 -91 
Q 1894 -91 1617 61 
Q 1341 213 1159 525 
z
M 3116 1747 
Q 3116 2381 2855 2742 
Q 2594 3103 2138 3103 
Q 1681 3103 1420 2742 
Q 1159 2381 1159 1747 
Q 1159 1113 1420 752 
Q 1681 391 2138 391 
Q 2594 391 2855 752 
Q 3116 1113 3116 1747 
z
" transform="scale(0.015625)"/>
      <path id="DejaVuSans-2d" d="M 313 2009 
L 1997 2009 
L 1997 1497 
L 313 1497 
L 313 2009 
z
" transform="scale(0.015625)"/>
      <path id="DejaVuSans-56" d="M 1831 0 
L 50 4666 
L 709 4666 
L 2188 738 
L 3669 4666 
L 4325 4666 
L 2547 0 
L 1831 0 
z
" transform="scale(0.015625)"/>
      <path id="DejaVuSans-44" d="M 1259 4147 
L 1259 519 
L 2022 519 
Q 2988 519 3436 956 
Q 3884 1394 3884 2338 
Q 3884 3275 3436 3711 
Q 2988 4147 2022 4147 
L 1259 4147 
z
M 628 4666 
L 1925 4666 
Q 3281 4666 3915 4102 
Q 4550 3538 4550 2338 
Q 4550 1131 3912 565 
Q 3275 0 1925 0 
L 628 0 
L 628 4666 
z
" transform="scale(0.015625)"/>
      <path id="DejaVuSans-6b" d="M 581 4863 
L 1159 4863 
L 1159 1991 
L 2875 3500 
L 3609 3500 
L 1753 1863 
L 3688 0 
L 2938 0 
L 1159 1709 
L 1159 0 
L 581 0 
L 581 4863 
z
" transform="scale(0.015625)"/>
     </defs>
     <use xlink:href="#DejaVuSans-43"/>
     <use xlink:href="#DejaVuSans-72" x="69.824219"/>
     <use xlink:href="#DejaVuSans-65" x="108.6875"/>
     <use xlink:href="#DejaVuSans-61" x="170.210938"/>
     <use xlink:href="#DejaVuSans-74" x="231.490234"/>
     <use xlink:href="#DejaVuSans-65" x="270.699219"/>
     <use xlink:href="#DejaVuSans-20" x="332.222656"/>
     <use xlink:href="#DejaVuSans-4d" x="364.009766"/>
     <use xlink:href="#DejaVuSans-61" x="450.289062"/>
     <use xlink:href="#DejaVuSans-6e" x="511.568359"/>
     <use xlink:href="#DejaVuSans-79" x="574.947266"/>
     <use xlink:href="#DejaVuSans-20" x="634.126953"/>
     <use xlink:href="#DejaVuSans-54" x="665.914062"/>
     <use xlink:href="#DejaVuSans-79" x="711.373047"/>
     <use xlink:href="#DejaVuSans-70" x="770.552734"/>
     <use xlink:href="#DejaVuSans-65" x="834.029297"/>
     <use xlink:href="#DejaVuSans-2d" x="895.552734"/>
     <use xlink:href="#DejaVuSans-31" x="931.636719"/>
     <use xlink:href="#DejaVuSans-20" x="995.259766"/>
     <use xlink:href="#DejaVuSans-56" x="1027.046875"/>
     <use xlink:href="#DejaVuSans-4d" x="1095.455078"/>
     <use xlink:href="#DejaVuSans-73" x="1181.734375"/>
     <use xlink:href="#DejaVuSans-20" x="1233.833984"/>
     <use xlink:href="#DejaVuSans-28" x="1265.621094"/>
     <use xlink:href="#DejaVuSans-44" x="1304.634766"/>
     <use xlink:href="#DejaVuSans-69" x="1381.636719"/>
     <use xlink:href="#DejaVuSans-73" x="1409.419922"/>
     <use xlink:href="#DejaVuSans-6b" x="1461.519531"/>
     <use xlink:href="#DejaVuSans-29" x="1519.429688"/>
    </g>
   </g>
   <g id="legend_1">
    <g id="patch_7">
     <path d="M 423.312813 67.905469 
L 539.851563 67.905469 
Q 542.251563 67.905469 542.251563 65.505469 
L 542.251563 31.477969 
Q 542.251563 29.077969 539.851563 29.077969 
L 423.312813 29.077969 
Q 420.912813 29.077969 420.912813 31.477969 
L 420.912813 65.505469 
Q 420.912813 67.905469 423.312813 67.905469 
z
" style="fill: #ffffff; opacity: 0.8; stroke: #cccccc; stroke-linejoin: miter"/>
    </g>
    <g id="line2d_12">
     <path d="M 425.712813 38.796094 
L 437.712813 38.796094 
L 449.712813 38.796094 
" style="fill: none; stroke: #009384; stroke-width: 2.5; stroke-linecap: square"/>
    </g>
    <g id="text_13">
     <!-- KubeVirt  -->
     <g transform="translate(459.312813 42.996094) scale(0.12 -0.12)">
      <defs>
       <path id="DejaVuSans-4b" d="M 628 4666 
L 1259 4666 
L 1259 2694 
L 3353 4666 
L 4166 4666 
L 1850 2491 
L 4331 0 
L 3500 0 
L 1259 2247 
L 1259 0 
L 628 0 
L 628 4666 
z
" transform="scale(0.015625)"/>
       <path id="DejaVuSans-75" d="M 544 1381 
L 544 3500 
L 1119 3500 
L 1119 1403 
Q 1119 906 1312 657 
Q 1506 409 1894 409 
Q 2359 409 2629 706 
Q 2900 1003 2900 1516 
L 2900 3500 
L 3475 3500 
L 3475 0 
L 2900 0 
L 2900 538 
Q 2691 219 2414 64 
Q 2138 -91 1772 -91 
Q 1169 -91 856 284 
Q 544 659 544 1381 
z
M 1991 3584 
L 1991 3584 
z
" transform="scale(0.015625)"/>
       <path id="DejaVuSans-62" d="M 3116 1747 
Q 3116 2381 2855 2742 
Q 2594 3103 2138 3103 
Q 1681 3103 1420 2742 
Q 1159 2381 1159 1747 
Q 1159 1113 1420 752 
Q 1681 391 2138 391 
Q 2594 391 2855 752 
Q 3116 1113 3116 1747 
z
M 1159 2969 
Q 1341 3281 1617 3432 
Q 1894 3584 2278 3584 
Q 2916 3584 3314 3078 
Q 3713 2572 3713 1747 
Q 3713 922 3314 415 
Q 2916 -91 2278 -91 
Q 1894 -91 1617 61 
Q 1341 213 1159 525 
L 1159 0 
L 581 0 
L 581 4863 
L 1159 4863 
L 1159 2969 
z
" transform="scale(0.015625)"/>
      </defs>
      <use xlink:href="#DejaVuSans-4b"/>
      <use xlink:href="#DejaVuSans-75" x="60.576172"/>
      <use xlink:href="#DejaVuSans-62" x="123.955078"/>
      <use xlink:href="#DejaVuSans-65" x="187.431641"/>
      <use xlink:href="#DejaVuSans-56" x="248.955078"/>
      <use xlink:href="#DejaVuSans-69" x="315.113281"/>
      <use xlink:href="#DejaVuSans-72" x="342.896484"/>
      <use xlink:href="#DejaVuSans-74" x="384.009766"/>
      <use xlink:href="#DejaVuSans-20" x="423.21875"/>
     </g>
    </g>
    <g id="line2d_13">
     <path d="M 425.712813 56.409844 
L 437.712813 56.409844 
L 449.712813 56.409844 
" style="fill: none; stroke: #b85741; stroke-width: 2.5; stroke-linecap: square"/>
    </g>
    <g id="text_14">
     <!-- OpenNebula  -->
     <g transform="translate(459.312813 60.609844) scale(0.12 -0.12)">
      <defs>
       <path id="DejaVuSans-4f" d="M 2522 4238 
Q 1834 4238 1429 3725 
Q 1025 3213 1025 2328 
Q 1025 1447 1429 934 
Q 1834 422 2522 422 
Q 3209 422 3611 934 
Q 4013 1447 4013 2328 
Q 4013 3213 3611 3725 
Q 3209 4238 2522 4238 
z
M 2522 4750 
Q 3503 4750 4090 4092 
Q 4678 3434 4678 2328 
Q 4678 1225 4090 567 
Q 3503 -91 2522 -91 
Q 1538 -91 948 565 
Q 359 1222 359 2328 
Q 359 3434 948 4092 
Q 1538 4750 2522 4750 
z
" transform="scale(0.015625)"/>
       <path id="DejaVuSans-4e" d="M 628 4666 
L 1478 4666 
L 3547 763 
L 3547 4666 
L 4159 4666 
L 4159 0 
L 3309 0 
L 1241 3903 
L 1241 0 
L 628 0 
L 628 4666 
z
" transform="scale(0.015625)"/>
      </defs>
      <use xlink:href="#DejaVuSans-4f"/>
      <use xlink:href="#DejaVuSans-70" x="78.710938"/>
      <use xlink:href="#DejaVuSans-65" x="142.1875"/>
      <use xlink:href="#DejaVuSans-6e" x="203.710938"/>
      <use xlink:href="#DejaVuSans-4e" x="267.089844"/>
      <use xlink:href="#DejaVuSans-65" x="341.894531"/>
      <use xlink:href="#DejaVuSans-62" x="403.417969"/>
      <use xlink:href="#DejaVuSans-75" x="466.894531"/>
      <use xlink:href="#DejaVuSans-6c" x="530.273438"/>
      <use xlink:href="#DejaVuSans-61" x="558.056641"/>
      <use xlink:href="#DejaVuSans-20" x="619.335938"/>
     </g>
    </g>
   </g>
  </g>
 </g>
 <defs>
  <clipPath id="p1894e6fce7">
   <rect x="46.051562" y="23.077969" width="502.2" height="221.76"/>
  </clipPath>
 </defs>
</svg>
