<?xml version="1.0" encoding="utf-8" standalone="no"?>
<!DOCTYPE svg PUBLIC "-//W3C//DTD SVG 1.1//EN"
  "http://www.w3.org/Graphics/SVG/1.1/DTD/svg11.dtd">
<svg xmlns:xlink="http://www.w3.org/1999/xlink" width="555.451562pt" height="287.233281pt" viewBox="0 0 555.451562 287.233281" xmlns="http://www.w3.org/2000/svg" version="1.1">
 <metadata>
  <rdf:RDF xmlns:dc="http://purl.org/dc/elements/1.1/" xmlns:cc="http://creativecommons.org/ns#" xmlns:rdf="http://www.w3.org/1999/02/22-rdf-syntax-ns#">
   <cc:Work>
    <dc:type rdf:resource="http://purl.org/dc/dcmitype/StillImage"/>
    <dc:date>2024-05-21T10:08:00.529038</dc:date>
    <dc:format>image/svg+xml</dc:format>
    <dc:creator>
     <cc:Agent>
      <dc:title>Matplotlib v3.8.4, https://matplotlib.org/</dc:title>
     </cc:Agent>
    </dc:creator>
   </cc:Work>
  </rdf:RDF>
 </metadata>
 <defs>
  <style type="text/css">*{stroke-linejoin: round; stroke-linecap: butt}</style>
 </defs>
 <g id="figure_1">
  <g id="patch_1">
   <path d="M 0 287.233281 
L 555.451562 287.233281 
L 555.451562 0 
L 0 0 
z
" style="fill: #f3f7f8"/>
  </g>
  <g id="axes_1">
   <g id="patch_2">
    <path d="M 46.051562 244.837969 
L 548.251563 244.837969 
L 548.251563 23.077969 
L 46.051562 23.077969 
z
" style="fill: #ffffff"/>
   </g>
   <g id="matplotlib.axis_1">
    <g id="xtick_1">
     <g id="line2d_1">
      <defs>
       <path id="m0208c0d4d1" d="M 0 0 
L 0 3.5 
" style="stroke: #000000; stroke-width: 0.8"/>
      </defs>
      <g>
       <use xlink:href="#m0208c0d4d1" x="51.697217" y="244.837969" style="stroke: #000000; stroke-width: 0.8"/>
      </g>
     </g>
     <g id="text_1">
      <!-- −5 -->
      <g transform="translate(42.851905 260.956094) scale(0.12 -0.12)">
       <defs>
        <path id="DejaVuSans-2212" d="M 678 2272 
L 4684 2272 
L 4684 1741 
L 678 1741 
L 678 2272 
z
" transform="scale(0.015625)"/>
        <path id="DejaVuSans-35" d="M 691 4666 
L 3169 4666 
L 3169 4134 
L 1269 4134 
L 1269 2991 
Q 1406 3038 1543 3061 
Q 1681 3084 1819 3084 
Q 2600 3084 3056 2656 
Q 3513 2228 3513 1497 
Q 3513 744 3044 326 
Q 2575 -91 1722 -91 
Q 1428 -91 1123 -41 
Q 819 9 494 109 
L 494 744 
Q 775 591 1075 516 
Q 1375 441 1709 441 
Q 2250 441 2565 725 
Q 2881 1009 2881 1497 
Q 2881 1984 2565 2268 
Q 2250 2553 1709 2553 
Q 1456 2553 1204 2497 
Q 953 2441 691 2322 
L 691 4666 
z
" transform="scale(0.015625)"/>
       </defs>
       <use xlink:href="#DejaVuSans-2212"/>
       <use xlink:href="#DejaVuSans-35" x="83.789062"/>
      </g>
     </g>
    </g>
    <g id="xtick_2">
     <g id="line2d_2">
      <g>
       <use xlink:href="#m0208c0d4d1" x="118.836254" y="244.837969" style="stroke: #000000; stroke-width: 0.8"/>
      </g>
     </g>
     <g id="text_2">
      <!-- 0 -->
      <g transform="translate(115.018754 260.956094) scale(0.12 -0.12)">
       <defs>
        <path id="DejaVuSans-30" d="M 2034 4250 
Q 1547 4250 1301 3770 
Q 1056 3291 1056 2328 
Q 1056 1369 1301 889 
Q 1547 409 2034 409 
Q 2525 409 2770 889 
Q 3016 1369 3016 2328 
Q 3016 3291 2770 3770 
Q 2525 4250 2034 4250 
z
M 2034 4750 
Q 2819 4750 3233 4129 
Q 3647 3509 3647 2328 
Q 3647 1150 3233 529 
Q 2819 -91 2034 -91 
Q 1250 -91 836 529 
Q 422 1150 422 2328 
Q 422 3509 836 4129 
Q 1250 4750 2034 4750 
z
" transform="scale(0.015625)"/>
       </defs>
       <use xlink:href="#DejaVuSans-30"/>
      </g>
     </g>
    </g>
    <g id="xtick_3">
     <g id="line2d_3">
      <g>
       <use xlink:href="#m0208c0d4d1" x="185.975292" y="244.837969" style="stroke: #000000; stroke-width: 0.8"/>
      </g>
     </g>
     <g id="text_3">
      <!-- 5 -->
      <g transform="translate(182.157792 260.956094) scale(0.12 -0.12)">
       <use xlink:href="#DejaVuSans-35"/>
      </g>
     </g>
    </g>
    <g id="xtick_4">
     <g id="line2d_4">
      <g>
       <use xlink:href="#m0208c0d4d1" x="253.114329" y="244.837969" style="stroke: #000000; stroke-width: 0.8"/>
      </g>
     </g>
     <g id="text_4">
      <!-- 10 -->
      <g transform="translate(245.479329 260.956094) scale(0.12 -0.12)">
       <defs>
        <path id="DejaVuSans-31" d="M 794 531 
L 1825 531 
L 1825 4091 
L 703 3866 
L 703 4441 
L 1819 4666 
L 2450 4666 
L 2450 531 
L 3481 531 
L 3481 0 
L 794 0 
L 794 531 
z
" transform="scale(0.015625)"/>
       </defs>
       <use xlink:href="#DejaVuSans-31"/>
       <use xlink:href="#DejaVuSans-30" x="63.623047"/>
      </g>
     </g>
    </g>
    <g id="xtick_5">
     <g id="line2d_5">
      <g>
       <use xlink:href="#m0208c0d4d1" x="320.253367" y="244.837969" style="stroke: #000000; stroke-width: 0.8"/>
      </g>
     </g>
     <g id="text_5">
      <!-- 15 -->
      <g transform="translate(312.618367 260.956094) scale(0.12 -0.12)">
       <use xlink:href="#DejaVuSans-31"/>
       <use xlink:href="#DejaVuSans-35" x="63.623047"/>
      </g>
     </g>
    </g>
    <g id="xtick_6">
     <g id="line2d_6">
      <g>
       <use xlink:href="#m0208c0d4d1" x="387.392404" y="244.837969" style="stroke: #000000; stroke-width: 0.8"/>
      </g>
     </g>
     <g id="text_6">
      <!-- 20 -->
      <g transform="translate(379.757404 260.956094) scale(0.12 -0.12)">
       <defs>
        <path id="DejaVuSans-32" d="M 1228 531 
L 3431 531 
L 3431 0 
L 469 0 
L 469 531 
Q 828 903 1448 1529 
Q 2069 2156 2228 2338 
Q 2531 2678 2651 2914 
Q 2772 3150 2772 3378 
Q 2772 3750 2511 3984 
Q 2250 4219 1831 4219 
Q 1534 4219 1204 4116 
Q 875 4013 500 3803 
L 500 4441 
Q 881 4594 1212 4672 
Q 1544 4750 1819 4750 
Q 2544 4750 2975 4387 
Q 3406 4025 3406 3419 
Q 3406 3131 3298 2873 
Q 3191 2616 2906 2266 
Q 2828 2175 2409 1742 
Q 1991 1309 1228 531 
z
" transform="scale(0.015625)"/>
       </defs>
       <use xlink:href="#DejaVuSans-32"/>
       <use xlink:href="#DejaVuSans-30" x="63.623047"/>
      </g>
     </g>
    </g>
    <g id="xtick_7">
     <g id="line2d_7">
      <g>
       <use xlink:href="#m0208c0d4d1" x="454.531442" y="244.837969" style="stroke: #000000; stroke-width: 0.8"/>
      </g>
     </g>
     <g id="text_7">
      <!-- 25 -->
      <g transform="translate(446.896442 260.956094) scale(0.12 -0.12)">
       <use xlink:href="#DejaVuSans-32"/>
       <use xlink:href="#DejaVuSans-35" x="63.623047"/>
      </g>
     </g>
    </g>
    <g id="xtick_8">
     <g id="line2d_8">
      <g>
       <use xlink:href="#m0208c0d4d1" x="521.670479" y="244.837969" style="stroke: #000000; stroke-width: 0.8"/>
      </g>
     </g>
     <g id="text_8">
      <!-- 30 -->
      <g transform="translate(514.035479 260.956094) scale(0.12 -0.12)">
       <defs>
        <path id="DejaVuSans-33" d="M 2597 2516 
Q 3050 2419 3304 2112 
Q 3559 1806 3559 1356 
Q 3559 666 3084 287 
Q 2609 -91 1734 -91 
Q 1441 -91 1130 -33 
Q 819 25 488 141 
L 488 750 
Q 750 597 1062 519 
Q 1375 441 1716 441 
Q 2309 441 2620 675 
Q 2931 909 2931 1356 
Q 2931 1769 2642 2001 
Q 2353 2234 1838 2234 
L 1294 2234 
L 1294 2753 
L 1863 2753 
Q 2328 2753 2575 2939 
Q 2822 3125 2822 3475 
Q 2822 3834 2567 4026 
Q 2313 4219 1838 4219 
Q 1578 4219 1281 4162 
Q 984 4106 628 3988 
L 628 4550 
Q 988 4650 1302 4700 
Q 1616 4750 1894 4750 
Q 2613 4750 3031 4423 
Q 3450 4097 3450 3541 
Q 3450 3153 3228 2886 
Q 3006 2619 2597 2516 
z
" transform="scale(0.015625)"/>
       </defs>
       <use xlink:href="#DejaVuSans-33"/>
       <use xlink:href="#DejaVuSans-30" x="63.623047"/>
      </g>
     </g>
    </g>
    <g id="text_9">
     <!-- Time (s) -->
     <g transform="translate(270.723984 277.329687) scale(0.13 -0.13)">
      <defs>
       <path id="DejaVuSans-54" d="M -19 4666 
L 3928 4666 
L 3928 4134 
L 2272 4134 
L 2272 0 
L 1638 0 
L 1638 4134 
L -19 4134 
L -19 4666 
z
" transform="scale(0.015625)"/>
       <path id="DejaVuSans-69" d="M 603 3500 
L 1178 3500 
L 1178 0 
L 603 0 
L 603 3500 
z
M 603 4863 
L 1178 4863 
L 1178 4134 
L 603 4134 
L 603 4863 
z
" transform="scale(0.015625)"/>
       <path id="DejaVuSans-6d" d="M 3328 2828 
Q 3544 3216 3844 3400 
Q 4144 3584 4550 3584 
Q 5097 3584 5394 3201 
Q 5691 2819 5691 2113 
L 5691 0 
L 5113 0 
L 5113 2094 
Q 5113 2597 4934 2840 
Q 4756 3084 4391 3084 
Q 3944 3084 3684 2787 
Q 3425 2491 3425 1978 
L 3425 0 
L 2847 0 
L 2847 2094 
Q 2847 2600 2669 2842 
Q 2491 3084 2119 3084 
Q 1678 3084 1418 2786 
Q 1159 2488 1159 1978 
L 1159 0 
L 581 0 
L 581 3500 
L 1159 3500 
L 1159 2956 
Q 1356 3278 1631 3431 
Q 1906 3584 2284 3584 
Q 2666 3584 2933 3390 
Q 3200 3197 3328 2828 
z
" transform="scale(0.015625)"/>
       <path id="DejaVuSans-65" d="M 3597 1894 
L 3597 1613 
L 953 1613 
Q 991 1019 1311 708 
Q 1631 397 2203 397 
Q 2534 397 2845 478 
Q 3156 559 3463 722 
L 3463 178 
Q 3153 47 2828 -22 
Q 2503 -91 2169 -91 
Q 1331 -91 842 396 
Q 353 884 353 1716 
Q 353 2575 817 3079 
Q 1281 3584 2069 3584 
Q 2775 3584 3186 3129 
Q 3597 2675 3597 1894 
z
M 3022 2063 
Q 3016 2534 2758 2815 
Q 2500 3097 2075 3097 
Q 1594 3097 1305 2825 
Q 1016 2553 972 2059 
L 3022 2063 
z
" transform="scale(0.015625)"/>
       <path id="DejaVuSans-20" transform="scale(0.015625)"/>
       <path id="DejaVuSans-28" d="M 1984 4856 
Q 1566 4138 1362 3434 
Q 1159 2731 1159 2009 
Q 1159 1288 1364 580 
Q 1569 -128 1984 -844 
L 1484 -844 
Q 1016 -109 783 600 
Q 550 1309 550 2009 
Q 550 2706 781 3412 
Q 1013 4119 1484 4856 
L 1984 4856 
z
" transform="scale(0.015625)"/>
       <path id="DejaVuSans-73" d="M 2834 3397 
L 2834 2853 
Q 2591 2978 2328 3040 
Q 2066 3103 1784 3103 
Q 1356 3103 1142 2972 
Q 928 2841 928 2578 
Q 928 2378 1081 2264 
Q 1234 2150 1697 2047 
L 1894 2003 
Q 2506 1872 2764 1633 
Q 3022 1394 3022 966 
Q 3022 478 2636 193 
Q 2250 -91 1575 -91 
Q 1294 -91 989 -36 
Q 684 19 347 128 
L 347 722 
Q 666 556 975 473 
Q 1284 391 1588 391 
Q 1994 391 2212 530 
Q 2431 669 2431 922 
Q 2431 1156 2273 1281 
Q 2116 1406 1581 1522 
L 1381 1569 
Q 847 1681 609 1914 
Q 372 2147 372 2553 
Q 372 3047 722 3315 
Q 1072 3584 1716 3584 
Q 2034 3584 2315 3537 
Q 2597 3491 2834 3397 
z
" transform="scale(0.015625)"/>
       <path id="DejaVuSans-29" d="M 513 4856 
L 1013 4856 
Q 1481 4119 1714 3412 
Q 1947 2706 1947 2009 
Q 1947 1309 1714 600 
Q 1481 -109 1013 -844 
L 513 -844 
Q 928 -128 1133 580 
Q 1338 1288 1338 2009 
Q 1338 2731 1133 3434 
Q 928 4138 513 4856 
z
" transform="scale(0.015625)"/>
      </defs>
      <use xlink:href="#DejaVuSans-54"/>
      <use xlink:href="#DejaVuSans-69" x="57.958984"/>
      <use xlink:href="#DejaVuSans-6d" x="85.742188"/>
      <use xlink:href="#DejaVuSans-65" x="183.154297"/>
      <use xlink:href="#DejaVuSans-20" x="244.677734"/>
      <use xlink:href="#DejaVuSans-28" x="276.464844"/>
      <use xlink:href="#DejaVuSans-73" x="315.478516"/>
      <use xlink:href="#DejaVuSans-29" x="367.578125"/>
     </g>
    </g>
   </g>
   <g id="matplotlib.axis_2">
    <g id="ytick_1">
     <g id="line2d_9">
      <defs>
       <path id="mf05c461c7c" d="M 0 0 
L -3.5 0 
" style="stroke: #000000; stroke-width: 0.8"/>
      </defs>
      <g>
       <use xlink:href="#mf05c461c7c" x="46.051562" y="244.28196" style="stroke: #000000; stroke-width: 0.8"/>
      </g>
     </g>
     <g id="text_10">
      <!-- 2 -->
      <g transform="translate(31.416562 248.841022) scale(0.12 -0.12)">
       <use xlink:href="#DejaVuSans-32"/>
      </g>
     </g>
    </g>
    <g id="ytick_2">
     <g id="line2d_10">
      <g>
       <use xlink:href="#mf05c461c7c" x="46.051562" y="211.952776" style="stroke: #000000; stroke-width: 0.8"/>
      </g>
     </g>
     <g id="text_11">
      <!-- 4 -->
      <g transform="translate(31.416562 216.511839) scale(0.12 -0.12)">
       <defs>
        <path id="DejaVuSans-34" d="M 2419 4116 
L 825 1625 
L 2419 1625 
L 2419 4116 
z
M 2253 4666 
L 3047 4666 
L 3047 1625 
L 3713 1625 
L 3713 1100 
L 3047 1100 
L 3047 0 
L 2419 0 
L 2419 1100 
L 313 1100 
L 313 1709 
L 2253 4666 
z
" transform="scale(0.015625)"/>
       </defs>
       <use xlink:href="#DejaVuSans-34"/>
      </g>
     </g>
    </g>
    <g id="ytick_3">
     <g id="line2d_11">
      <g>
       <use xlink:href="#mf05c461c7c" x="46.051562" y="179.623593" style="stroke: #000000; stroke-width: 0.8"/>
      </g>
     </g>
     <g id="text_12">
      <!-- 6 -->
      <g transform="translate(31.416562 184.182655) scale(0.12 -0.12)">
       <defs>
        <path id="DejaVuSans-36" d="M 2113 2584 
Q 1688 2584 1439 2293 
Q 1191 2003 1191 1497 
Q 1191 994 1439 701 
Q 1688 409 2113 409 
Q 2538 409 2786 701 
Q 3034 994 3034 1497 
Q 3034 2003 2786 2293 
Q 2538 2584 2113 2584 
z
M 3366 4563 
L 3366 3988 
Q 3128 4100 2886 4159 
Q 2644 4219 2406 4219 
Q 1781 4219 1451 3797 
Q 1122 3375 1075 2522 
Q 1259 2794 1537 2939 
Q 1816 3084 2150 3084 
Q 2853 3084 3261 2657 
Q 3669 2231 3669 1497 
Q 3669 778 3244 343 
Q 2819 -91 2113 -91 
Q 1303 -91 875 529 
Q 447 1150 447 2328 
Q 447 3434 972 4092 
Q 1497 4750 2381 4750 
Q 2619 4750 2861 4703 
Q 3103 4656 3366 4563 
z
" transform="scale(0.015625)"/>
       </defs>
       <use xlink:href="#DejaVuSans-36"/>
      </g>
     </g>
    </g>
    <g id="ytick_4">
     <g id="line2d_12">
      <g>
       <use xlink:href="#mf05c461c7c" x="46.051562" y="147.29441" style="stroke: #000000; stroke-width: 0.8"/>
      </g>
     </g>
     <g id="text_13">
      <!-- 8 -->
      <g transform="translate(31.416562 151.853472) scale(0.12 -0.12)">
       <defs>
        <path id="DejaVuSans-38" d="M 2034 2216 
Q 1584 2216 1326 1975 
Q 1069 1734 1069 1313 
Q 1069 891 1326 650 
Q 1584 409 2034 409 
Q 2484 409 2743 651 
Q 3003 894 3003 1313 
Q 3003 1734 2745 1975 
Q 2488 2216 2034 2216 
z
M 1403 2484 
Q 997 2584 770 2862 
Q 544 3141 544 3541 
Q 544 4100 942 4425 
Q 1341 4750 2034 4750 
Q 2731 4750 3128 4425 
Q 3525 4100 3525 3541 
Q 3525 3141 3298 2862 
Q 3072 2584 2669 2484 
Q 3125 2378 3379 2068 
Q 3634 1759 3634 1313 
Q 3634 634 3220 271 
Q 2806 -91 2034 -91 
Q 1263 -91 848 271 
Q 434 634 434 1313 
Q 434 1759 690 2068 
Q 947 2378 1403 2484 
z
M 1172 3481 
Q 1172 3119 1398 2916 
Q 1625 2713 2034 2713 
Q 2441 2713 2670 2916 
Q 2900 3119 2900 3481 
Q 2900 3844 2670 4047 
Q 2441 4250 2034 4250 
Q 1625 4250 1398 4047 
Q 1172 3844 1172 3481 
z
" transform="scale(0.015625)"/>
       </defs>
       <use xlink:href="#DejaVuSans-38"/>
      </g>
     </g>
    </g>
    <g id="ytick_5">
     <g id="line2d_13">
      <g>
       <use xlink:href="#mf05c461c7c" x="46.051562" y="114.965226" style="stroke: #000000; stroke-width: 0.8"/>
      </g>
     </g>
     <g id="text_14">
      <!-- 10 -->
      <g transform="translate(23.781562 119.524289) scale(0.12 -0.12)">
       <use xlink:href="#DejaVuSans-31"/>
       <use xlink:href="#DejaVuSans-30" x="63.623047"/>
      </g>
     </g>
    </g>
    <g id="ytick_6">
     <g id="line2d_14">
      <g>
       <use xlink:href="#mf05c461c7c" x="46.051562" y="82.636043" style="stroke: #000000; stroke-width: 0.8"/>
      </g>
     </g>
     <g id="text_15">
      <!-- 12 -->
      <g transform="translate(23.781562 87.195106) scale(0.12 -0.12)">
       <use xlink:href="#DejaVuSans-31"/>
       <use xlink:href="#DejaVuSans-32" x="63.623047"/>
      </g>
     </g>
    </g>
    <g id="ytick_7">
     <g id="line2d_15">
      <g>
       <use xlink:href="#mf05c461c7c" x="46.051562" y="50.30686" style="stroke: #000000; stroke-width: 0.8"/>
      </g>
     </g>
     <g id="text_16">
      <!-- 14 -->
      <g transform="translate(23.781562 54.865922) scale(0.12 -0.12)">
       <use xlink:href="#DejaVuSans-31"/>
       <use xlink:href="#DejaVuSans-34" x="63.623047"/>
      </g>
     </g>
    </g>
    <g id="text_17">
     <!-- Utilization (%) -->
     <g transform="translate(17.077969 179.839844) rotate(-90) scale(0.13 -0.13)">
      <defs>
       <path id="DejaVuSans-55" d="M 556 4666 
L 1191 4666 
L 1191 1831 
Q 1191 1081 1462 751 
Q 1734 422 2344 422 
Q 2950 422 3222 751 
Q 3494 1081 3494 1831 
L 3494 4666 
L 4128 4666 
L 4128 1753 
Q 4128 841 3676 375 
Q 3225 -91 2344 -91 
Q 1459 -91 1007 375 
Q 556 841 556 1753 
L 556 4666 
z
" transform="scale(0.015625)"/>
       <path id="DejaVuSans-74" d="M 1172 4494 
L 1172 3500 
L 2356 3500 
L 2356 3053 
L 1172 3053 
L 1172 1153 
Q 1172 725 1289 603 
Q 1406 481 1766 481 
L 2356 481 
L 2356 0 
L 1766 0 
Q 1100 0 847 248 
Q 594 497 594 1153 
L 594 3053 
L 172 3053 
L 172 3500 
L 594 3500 
L 594 4494 
L 1172 4494 
z
" transform="scale(0.015625)"/>
       <path id="DejaVuSans-6c" d="M 603 4863 
L 1178 4863 
L 1178 0 
L 603 0 
L 603 4863 
z
" transform="scale(0.015625)"/>
       <path id="DejaVuSans-7a" d="M 353 3500 
L 3084 3500 
L 3084 2975 
L 922 459 
L 3084 459 
L 3084 0 
L 275 0 
L 275 525 
L 2438 3041 
L 353 3041 
L 353 3500 
z
" transform="scale(0.015625)"/>
       <path id="DejaVuSans-61" d="M 2194 1759 
Q 1497 1759 1228 1600 
Q 959 1441 959 1056 
Q 959 750 1161 570 
Q 1363 391 1709 391 
Q 2188 391 2477 730 
Q 2766 1069 2766 1631 
L 2766 1759 
L 2194 1759 
z
M 3341 1997 
L 3341 0 
L 2766 0 
L 2766 531 
Q 2569 213 2275 61 
Q 1981 -91 1556 -91 
Q 1019 -91 701 211 
Q 384 513 384 1019 
Q 384 1609 779 1909 
Q 1175 2209 1959 2209 
L 2766 2209 
L 2766 2266 
Q 2766 2663 2505 2880 
Q 2244 3097 1772 3097 
Q 1472 3097 1187 3025 
Q 903 2953 641 2809 
L 641 3341 
Q 956 3463 1253 3523 
Q 1550 3584 1831 3584 
Q 2591 3584 2966 3190 
Q 3341 2797 3341 1997 
z
" transform="scale(0.015625)"/>
       <path id="DejaVuSans-6f" d="M 1959 3097 
Q 1497 3097 1228 2736 
Q 959 2375 959 1747 
Q 959 1119 1226 758 
Q 1494 397 1959 397 
Q 2419 397 2687 759 
Q 2956 1122 2956 1747 
Q 2956 2369 2687 2733 
Q 2419 3097 1959 3097 
z
M 1959 3584 
Q 2709 3584 3137 3096 
Q 3566 2609 3566 1747 
Q 3566 888 3137 398 
Q 2709 -91 1959 -91 
Q 1206 -91 779 398 
Q 353 888 353 1747 
Q 353 2609 779 3096 
Q 1206 3584 1959 3584 
z
" transform="scale(0.015625)"/>
       <path id="DejaVuSans-6e" d="M 3513 2113 
L 3513 0 
L 2938 0 
L 2938 2094 
Q 2938 2591 2744 2837 
Q 2550 3084 2163 3084 
Q 1697 3084 1428 2787 
Q 1159 2491 1159 1978 
L 1159 0 
L 581 0 
L 581 3500 
L 1159 3500 
L 1159 2956 
Q 1366 3272 1645 3428 
Q 1925 3584 2291 3584 
Q 2894 3584 3203 3211 
Q 3513 2838 3513 2113 
z
" transform="scale(0.015625)"/>
       <path id="DejaVuSans-25" d="M 4653 2053 
Q 4381 2053 4226 1822 
Q 4072 1591 4072 1178 
Q 4072 772 4226 539 
Q 4381 306 4653 306 
Q 4919 306 5073 539 
Q 5228 772 5228 1178 
Q 5228 1588 5073 1820 
Q 4919 2053 4653 2053 
z
M 4653 2450 
Q 5147 2450 5437 2106 
Q 5728 1763 5728 1178 
Q 5728 594 5436 251 
Q 5144 -91 4653 -91 
Q 4153 -91 3862 251 
Q 3572 594 3572 1178 
Q 3572 1766 3864 2108 
Q 4156 2450 4653 2450 
z
M 1428 4353 
Q 1159 4353 1004 4120 
Q 850 3888 850 3481 
Q 850 3069 1003 2837 
Q 1156 2606 1428 2606 
Q 1700 2606 1854 2837 
Q 2009 3069 2009 3481 
Q 2009 3884 1853 4118 
Q 1697 4353 1428 4353 
z
M 4250 4750 
L 4750 4750 
L 1831 -91 
L 1331 -91 
L 4250 4750 
z
M 1428 4750 
Q 1922 4750 2215 4408 
Q 2509 4066 2509 3481 
Q 2509 2891 2217 2550 
Q 1925 2209 1428 2209 
Q 931 2209 642 2551 
Q 353 2894 353 3481 
Q 353 4063 643 4406 
Q 934 4750 1428 4750 
z
" transform="scale(0.015625)"/>
      </defs>
      <use xlink:href="#DejaVuSans-55"/>
      <use xlink:href="#DejaVuSans-74" x="73.193359"/>
      <use xlink:href="#DejaVuSans-69" x="112.402344"/>
      <use xlink:href="#DejaVuSans-6c" x="140.185547"/>
      <use xlink:href="#DejaVuSans-69" x="167.96875"/>
      <use xlink:href="#DejaVuSans-7a" x="195.751953"/>
      <use xlink:href="#DejaVuSans-61" x="248.242188"/>
      <use xlink:href="#DejaVuSans-74" x="309.521484"/>
      <use xlink:href="#DejaVuSans-69" x="348.730469"/>
      <use xlink:href="#DejaVuSans-6f" x="376.513672"/>
      <use xlink:href="#DejaVuSans-6e" x="437.695312"/>
      <use xlink:href="#DejaVuSans-20" x="501.074219"/>
      <use xlink:href="#DejaVuSans-28" x="532.861328"/>
      <use xlink:href="#DejaVuSans-25" x="571.875"/>
      <use xlink:href="#DejaVuSans-29" x="666.894531"/>
     </g>
    </g>
   </g>
   <g id="line2d_16">
    <path d="M 68.878835 206.861179 
L 69.016497 206.607519 
L 69.939243 206.358833 
L 70.294354 206.789557 
L 70.459691 206.595582 
L 70.51492 206.268808 
L 71.488583 206.152921 
L 71.692229 206.759217 
L 73.916183 207.081017 
L 74.440297 207.330698 
L 75.252102 206.678643 
L 79.36175 206.61299 
L 85.601504 207.497815 
L 88.251549 207.116828 
L 93.960744 207.052667 
L 95.73445 207.186957 
L 95.872112 207.59331 
L 96.794858 207.652 
L 97.149969 207.883776 
L 97.370535 206.134518 
L 98.547844 205.956956 
L 100.771798 206.334959 
L 101.295912 206.949711 
L 101.829265 206.592598 
L 102.107717 206.218077 
L 102.843413 206.217579 
L 103.165385 206.453334 
L 104.106258 206.684114 
L 106.217365 205.926119 
L 108.978834 205.497384 
L 115.107164 200.228722 
L 120.816359 194.568628 
L 122.590065 189.531244 
L 122.727727 184.125805 
L 123.650473 179.228182 
L 124.170921 166.822231 
L 124.22615 162.606008 
L 125.199813 157.135413 
L 125.403459 151.557883 
L 125.884927 144.160966 
L 127.627413 140.30484 
L 128.151527 136.127412 
L 128.68488 134.77655 
L 130.021 119.447543 
L 130.961873 112.016805 
L 133.07298 111.06384 
L 135.834449 107.342502 
L 141.962779 106.190589 
L 149.44568 104.399552 
L 149.583342 103.124787 
L 150.506088 101.693848 
L 151.026536 100.060478 
L 151.081764 98.295802 
L 152.055428 96.801696 
L 152.259074 94.976341 
L 152.740542 93.969163 
L 154.483028 92.335295 
L 155.540495 89.583336 
L 155.818947 88.050435 
L 156.876615 84.148551 
L 157.817488 82.935461 
L 159.928595 81.311044 
L 162.690064 77.228117 
L 164.289007 75.542025 
L 176.301295 72.763208 
L 176.438957 70.816991 
L 177.937379 69.351733 
L 178.911043 67.511456 
L 179.114689 66.59281 
L 179.596157 65.802983 
L 181.338643 63.583212 
L 182.674562 58.999431 
L 183.73223 56.919918 
L 184.673103 55.654604 
L 186.78421 54.399237 
L 187.955397 52.437104 
L 189.545679 50.785829 
L 190.78951 48.865475 
L 191.144622 47.679243 
L 191.309958 45.440572 
L 203.15691 38.706154 
L 203.294572 37.173253 
L 204.792994 34.90076 
L 206.451772 33.157969 
L 208.194258 36.350103 
L 208.718372 39.795399 
L 209.530177 41.978862 
L 210.265873 45.263507 
L 210.587845 48.276587 
L 211.528718 53.424885 
L 213.639825 56.873166 
L 214.811012 58.348371 
L 216.401294 61.920497 
L 217.645125 63.966188 
L 218.165573 70.486736 
L 219.194466 72.402613 
L 219.398112 72.173822 
L 222.529624 69.812797 
L 222.679532 75.936441 
L 230.012525 77.50565 
L 230.150187 83.105065 
L 231.648609 82.341101 
L 233.307387 83.942639 
L 235.049873 82.982711 
L 235.573987 83.220953 
L 236.385792 82.894676 
L 237.121488 82.971769 
L 237.44346 83.45422 
L 241.666627 79.428491 
L 243.256909 79.512049 
L 244.50074 80.032798 
L 245.021188 78.886852 
L 246.050081 79.326032 
L 246.253727 79.014677 
L 249.385239 80.538625 
L 249.535147 81.574154 
L 253.923247 81.444837 
L 256.86814 80.991731 
L 260.163002 84.56137 
L 262.429602 85.996289 
L 263.977103 87.203908 
L 264.299075 88.329461 
L 268.522242 89.3441 
L 270.112524 90.377639 
L 270.433609 91.826981 
L 271.356355 91.791668 
L 271.711467 92.761046 
L 271.876803 94.786345 
L 272.905696 96.336654 
L 273.109342 97.858612 
L 275.333296 98.941391 
L 276.390762 100.364372 
L 276.669215 102.084782 
L 280.778862 105.228174 
L 289.668662 106.559141 
L 297.151563 108.088063 
L 297.289224 108.383005 
L 298.21197 110.75348 
L 298.567082 113.046365 
L 298.787647 117.892758 
L 299.964957 122.009507 
L 300.446424 123.132075 
L 302.18891 124.3198 
L 302.713025 127.416438 
L 303.246377 128.374874 
L 303.52483 129.882906 
L 304.260526 132.357332 
L 304.582498 132.992476 
L 305.523371 135.86281 
L 307.634477 137.053022 
L 310.395946 140.33518 
L 316.524277 142.94887 
L 322.233472 145.811744 
L 324.007177 146.233018 
L 325.067585 147.887277 
L 325.643262 157.308499 
L 326.616926 159.766511 
L 326.820572 161.802752 
L 327.302039 164.105585 
L 329.044525 166.643675 
L 329.56864 167.890586 
L 330.380445 170.617677 
L 331.116141 172.029219 
L 331.438113 174.889108 
L 332.378986 176.30264 
L 337.251561 180.257245 
L 337.572647 182.22087 
L 343.379892 183.566759 
L 349.089087 185.210573 
L 350.862792 185.280205 
L 351.9232 186.46793 
L 352.498877 188.125173 
L 353.472541 189.577002 
L 353.676187 191.709236 
L 354.157654 192.019597 
L 357.23606 192.619925 
L 358.293728 194.233897 
L 359.234601 194.36968 
L 361.345707 195.383324 
L 364.428262 196.040352 
L 365.706119 196.968449 
L 365.871456 196.146293 
L 370.235507 196.90379 
L 375.944701 196.537724 
L 377.718407 195.643449 
L 378.778815 195.699652 
L 379.354492 195.928444 
L 380.531802 196.310923 
L 381.013269 197.591656 
L 383.813222 199.040003 
L 384.091675 199.849725 
L 384.827371 200.033255 
L 385.149343 199.291673 
L 386.090216 200.442095 
L 388.201322 201.414955 
L 390.962791 202.811078 
L 391.283877 203.262692 
L 392.561734 203.910768 
L 392.727071 203.858544 
L 404.574022 204.562822 
L 405.63443 204.379292 
L 406.210107 205.149721 
L 407.18377 205.208909 
L 407.387417 204.724468 
L 407.868884 204.234059 
L 409.61137 205.685391 
L 410.135485 205.796802 
L 410.668837 205.599843 
L 410.94729 206.090749 
L 411.682986 206.791049 
L 412.004958 206.912905 
L 412.945831 206.853718 
L 415.056937 207.157115 
L 416.228124 206.644324 
L 417.818406 206.896492 
L 418.139492 204.121156 
L 419.417349 204.600125 
L 419.582686 204.422066 
L 423.946737 207.224758 
L 431.429637 206.989003 
L 433.065722 207.058138 
L 434.039385 206.490636 
L 434.243032 203.688442 
L 434.724499 202.694693 
L 436.466985 201.714373 
L 437.802904 199.825851 
L 438.860573 199.766166 
L 439.801446 199.50057 
L 441.912552 199.447351 
L 444.674021 198.393419 
L 444.995107 197.256924 
L 445.917852 197.561813 
L 446.272964 196.906774 
L 446.438301 195.071472 
L 451.966408 193.925526 
L 458.285252 193.541555 
L 459.921337 192.970572 
L 465.716188 191.740571 
L 525.42429 190.50858 
L 525.42429 190.50858 
" clip-path="url(#p471b62be5e)" style="fill: none; stroke: #009384; stroke-width: 2.5; stroke-linecap: square"/>
   </g>
   <g id="line2d_17">
    <path d="M 68.878835 89.069749 
L 69.016497 89.27872 
L 70.294354 88.808306 
L 70.51492 88.851304 
L 71.692229 89.228138 
L 74.440297 89.303539 
L 74.97365 89.241542 
L 75.252102 89.432234 
L 85.601504 89.491944 
L 88.251549 89.658812 
L 93.960744 89.401646 
L 95.73445 89.067462 
L 95.872112 89.413359 
L 97.149969 89.183324 
L 97.370535 88.966594 
L 98.344198 89.24373 
L 98.547844 89.50112 
L 101.829265 89.383541 
L 102.107717 89.574259 
L 103.165385 89.62412 
L 104.106258 89.688555 
L 106.217365 89.641081 
L 108.978834 89.345244 
L 115.107164 89.573488 
L 120.816359 89.458968 
L 122.590065 89.130727 
L 122.727727 89.476276 
L 123.650473 89.378369 
L 124.170921 89.098473 
L 124.22615 88.850607 
L 125.884927 89.175068 
L 127.627413 89.145648 
L 128.151527 88.993278 
L 128.68488 89.002977 
L 128.963332 89.130429 
L 129.699028 89.16057 
L 130.021 89.00243 
L 135.834449 88.328491 
L 141.962779 88.714054 
L 149.44568 88.894923 
L 149.583342 89.272254 
L 151.026536 89.288146 
L 151.081764 89.340519 
L 152.055428 89.210431 
L 152.259074 89.447628 
L 155.007142 89.452975 
L 155.540495 89.156292 
L 155.818947 89.42077 
L 157.817488 89.440167 
L 159.928595 89.226596 
L 161.099782 88.995989 
L 162.690064 88.92576 
L 164.289007 88.968584 
L 168.818394 89.456655 
L 176.301295 89.40739 
L 176.438957 89.728096 
L 177.937379 89.75003 
L 178.911043 90.029056 
L 179.114689 90.204504 
L 179.596157 89.765722 
L 181.338643 89.907274 
L 181.862757 89.780842 
L 182.39611 89.48978 
L 182.674562 89.746747 
L 184.673103 89.748662 
L 189.545679 89.235101 
L 191.309958 89.179793 
L 195.674009 89.659334 
L 203.15691 89.794271 
L 203.294572 90.141089 
L 206.451772 90.144968 
L 208.194258 89.813196 
L 209.530177 89.910035 
L 210.265873 89.577168 
L 211.528718 89.881784 
L 214.811012 89.872583 
L 218.000237 89.40473 
L 218.165573 89.557671 
L 219.398112 90.218182 
L 222.679532 90.637615 
L 230.012525 90.816719 
L 230.150187 91.245603 
L 233.307387 91.36261 
L 236.385792 90.724457 
L 237.44346 90.67927 
L 241.666627 90.615855 
L 245.021188 90.074864 
L 246.050081 90.406536 
L 246.253727 90.624957 
L 251.812141 90.922709 
L 253.923247 90.876603 
L 260.163002 91.012161 
L 262.429602 90.948249 
L 264.299075 90.256902 
L 271.711467 89.492839 
L 271.876803 89.452751 
L 273.109342 89.86935 
L 276.390762 89.768582 
L 276.669215 89.919858 
L 280.778862 89.860521 
L 289.668662 90.23176 
L 295.377857 90.168718 
L 297.151563 90.28565 
L 297.289224 90.576513 
L 298.21197 90.41621 
L 298.787647 89.535936 
L 299.964957 89.915431 
L 300.446424 89.746897 
L 302.18891 89.795117 
L 302.713025 89.540089 
L 304.260526 89.543894 
L 304.582498 89.46143 
L 305.523371 89.512883 
L 310.395946 89.454168 
L 316.524277 89.848535 
L 322.233472 89.735358 
L 325.067585 89.338803 
L 325.422697 88.90022 
L 325.643262 88.928396 
L 326.616926 88.841157 
L 326.820572 89.01101 
L 331.438113 88.991264 
L 334.490092 89.100611 
L 337.251561 89.138611 
L 337.572647 89.391102 
L 343.379892 89.4908 
L 349.089087 89.269444 
L 350.862792 88.978382 
L 352.498877 88.932052 
L 353.676187 89.23249 
L 354.157654 89.151866 
L 356.957607 89.453074 
L 357.23606 89.664482 
L 358.293728 89.729315 
L 359.234601 89.512137 
L 364.107176 89.66861 
L 364.428262 89.964348 
L 365.871456 89.623722 
L 370.235507 89.97049 
L 377.718407 89.845625 
L 378.778815 89.772089 
L 379.354492 89.870568 
L 380.328156 89.78042 
L 380.531802 90.026047 
L 382.755755 89.762216 
L 383.813222 89.921325 
L 384.091675 90.038382 
L 384.827371 89.922668 
L 385.149343 89.702407 
L 386.090216 89.612954 
L 388.201322 89.698303 
L 390.962791 89.648815 
L 391.283877 90.080957 
L 392.727071 89.988868 
L 397.091122 90.460924 
L 406.210107 90.634681 
L 407.18377 90.961206 
L 407.387417 90.769966 
L 410.668837 90.795133 
L 410.94729 90.884212 
L 411.682986 90.768772 
L 412.004958 90.502231 
L 412.945831 90.35471 
L 415.056937 90.387885 
L 416.228124 90.28085 
L 417.818406 90.298607 
L 418.139492 90.56204 
L 419.417349 90.344042 
L 419.582686 90.466072 
L 423.946737 90.839797 
L 433.065722 90.928454 
L 434.039385 91.199795 
L 434.724499 90.629036 
L 436.466985 90.723909 
L 436.9911 90.608121 
L 437.802904 90.770613 
L 439.801446 90.368239 
L 441.912552 90.400245 
L 443.083739 90.293235 
L 444.674021 90.311165 
L 444.995107 90.574225 
L 446.272964 90.349314 
L 446.438301 90.417976 
L 451.966408 90.275951 
L 459.921337 90.435036 
L 465.716188 90.076978 
L 485.140867 90.211566 
L 525.42429 90.222509 
L 525.42429 90.222509 
" clip-path="url(#p471b62be5e)" style="fill: none; stroke: #b85741; stroke-width: 2.5; stroke-linecap: square"/>
   </g>
   <g id="line2d_18">
    <path d="M 68.878835 197.600364 
L 69.016497 203.735908 
L 69.939243 212.918354 
L 70.294354 212.876616 
L 70.51492 215.464396 
L 71.488583 214.58789 
L 71.692229 216.173949 
L 73.916183 216.132211 
L 74.440297 214.379198 
L 74.97365 219.51302 
L 75.252102 220.222573 
L 85.601504 220.30605 
L 88.251549 222.142539 
L 95.73445 222.059062 
L 95.872112 221.182556 
L 96.794858 220.848649 
L 97.149969 222.6434 
L 97.315306 222.309493 
L 97.370535 226.775501 
L 98.344198 227.06767 
L 98.547844 227.902438 
L 100.771798 227.985914 
L 101.295912 228.36156 
L 101.829265 223.238172 
L 102.107717 223.655556 
L 102.843413 225.283353 
L 103.165385 223.363387 
L 104.106258 230.709345 
L 106.217365 230.709345 
L 115.107164 229.832838 
L 120.816359 224.824231 
L 122.590065 234.757969 
L 122.727727 234.591015 
L 123.650473 230.83456 
L 124.005584 227.620703 
L 124.170921 227.578965 
L 124.22615 227.370273 
L 125.199813 227.20332 
L 125.403459 226.952889 
L 125.884927 223.238172 
L 127.627413 223.154695 
L 128.151527 216.100907 
L 128.963332 216.059168 
L 129.699028 211.801852 
L 130.021 211.426207 
L 130.961873 205.791524 
L 133.07298 205.958477 
L 135.834449 202.744621 
L 141.962779 200.073364 
L 149.44568 200.031625 
L 149.583342 197.777752 
L 150.506088 197.694275 
L 151.026536 196.233431 
L 151.081764 195.189972 
L 152.055428 196.27517 
L 152.259074 196.024739 
L 152.740542 193.186529 
L 154.483028 189.179643 
L 155.007142 198.111659 
L 155.540495 198.529043 
L 155.818947 193.103052 
L 156.554643 193.019575 
L 156.876615 189.930934 
L 157.817488 189.847457 
L 159.928595 188.803997 
L 161.099782 189.26312 
L 162.690064 189.137905 
L 164.289007 186.383171 
L 168.818394 186.341432 
L 176.438957 186.424909 
L 177.937379 182.334546 
L 178.911043 176.950294 
L 179.114689 169.562598 
L 179.596157 169.437383 
L 181.862757 169.52086 
L 182.39611 170.439104 
L 182.674562 169.186952 
L 183.73223 169.896505 
L 184.673103 169.813028 
L 187.955397 170.105197 
L 190.78951 169.854767 
L 191.144622 174.978155 
L 195.674009 172.724281 
L 203.15691 171.179961 
L 203.294572 170.92953 
L 204.792994 170.887792 
L 206.451772 164.71051 
L 208.194258 165.962661 
L 208.718372 171.263437 
L 209.530177 171.430391 
L 210.265873 171.138222 
L 210.587845 174.852939 
L 211.528718 178.192011 
L 213.639825 177.94158 
L 217.645125 178.317226 
L 218.000237 182.36585 
L 218.165573 182.407589 
L 219.194466 185.871875 
L 219.398112 183.367572 
L 222.529624 183.286182 
L 222.679532 187.460021 
L 230.012525 187.877405 
L 230.150187 190.840831 
L 231.648609 190.840831 
L 233.307387 194.012949 
L 235.049873 196.642468 
L 235.573987 196.600729 
L 236.385792 198.812864 
L 237.121488 198.812864 
L 237.44346 195.765961 
L 241.666627 196.684206 
L 244.50074 196.85116 
L 244.855852 199.021556 
L 245.021188 202.068459 
L 246.253727 196.016392 
L 249.385239 200.941522 
L 249.535147 197.018113 
L 251.812141 196.85116 
L 253.923247 191.508645 
L 256.86814 186.166131 
L 258.504224 186.249608 
L 260.163002 185.164409 
L 262.429602 183.119228 
L 263.977103 181.282739 
L 264.299075 181.449692 
L 268.522242 175.689794 
L 270.112524 173.936782 
L 270.433609 170.514233 
L 271.356355 177.401068 
L 271.711467 170.514233 
L 271.876803 170.59771 
L 272.905696 165.422149 
L 273.109342 165.505626 
L 275.333296 167.091685 
L 276.390762 167.091685 
L 276.669215 165.92301 
L 278.667756 162.917846 
L 280.778862 163.001322 
L 295.377857 163.168276 
L 297.151563 159.244867 
L 297.289224 159.286605 
L 298.21197 154.904074 
L 298.787647 158.201407 
L 299.761311 158.284884 
L 299.964957 163.919567 
L 300.446424 164.003044 
L 302.18891 158.535314 
L 302.713025 158.66053 
L 303.246377 159.119652 
L 303.52483 159.119652 
L 304.260526 159.286605 
L 304.582498 159.620513 
L 305.523371 159.745728 
L 307.634477 155.655365 
L 310.395946 155.78058 
L 322.233472 155.738842 
L 324.007177 155.53015 
L 325.067585 157.992715 
L 325.588033 158.19932 
L 325.643262 148.975135 
L 326.616926 151.729869 
L 326.820572 149.10035 
L 329.56864 149.309042 
L 330.101992 148.682967 
L 330.380445 148.808182 
L 331.116141 153.357667 
L 331.438113 153.441143 
L 334.490092 153.566359 
L 337.251561 152.731591 
L 337.572647 152.063776 
L 349.089087 161.997514 
L 350.862792 162.498375 
L 352.498877 168.466965 
L 353.472541 173.809479 
L 353.676187 181.155437 
L 354.157654 181.155437 
L 355.90014 182.449327 
L 356.424255 188.668348 
L 356.957607 190.546575 
L 357.23606 186.122306 
L 357.971756 191.423082 
L 358.293728 197.266457 
L 359.234601 205.989781 
L 361.345707 206.53238 
L 364.107176 213.54443 
L 364.428262 213.085308 
L 365.706119 218.21913 
L 365.871456 218.177392 
L 370.235507 218.260869 
L 375.944701 218.21913 
L 377.718407 218.970421 
L 378.778815 222.059062 
L 379.354492 222.142539 
L 380.328156 215.965257 
L 380.531802 215.965257 
L 381.013269 219.972143 
L 382.755755 220.013881 
L 383.27987 224.479889 
L 383.813222 224.229459 
L 384.091675 226.775501 
L 384.827371 226.775501 
L 385.149343 226.399855 
L 386.090216 226.358117 
L 388.201322 224.438151 
L 390.962791 230.031096 
L 391.283877 229.989357 
L 392.561734 229.989357 
L 392.727071 229.488497 
L 397.091122 222.6434 
L 405.63443 222.726877 
L 406.210107 226.900716 
L 407.387417 226.984193 
L 407.868884 226.650286 
L 409.61137 230.490218 
L 410.94729 230.531956 
L 411.682986 229.40502 
L 412.004958 229.363281 
L 412.945831 231.533678 
L 415.056937 231.491939 
L 416.228124 230.94934 
L 417.818406 230.740648 
L 418.139492 231.491939 
L 433.065722 231.491939 
L 434.039385 232.994522 
L 434.243032 233.871028 
L 434.724499 229.238066 
L 436.9911 228.778944 
L 437.524452 229.196328 
L 437.802904 229.738927 
L 438.860573 224.897273 
L 441.912552 224.855535 
L 443.083739 224.772058 
L 444.674021 225.022488 
L 444.995107 224.939012 
L 445.917852 229.321543 
L 446.272964 227.025931 
L 446.438301 227.025931 
L 451.966408 226.775501 
L 459.921337 226.858978 
L 485.140867 226.232902 
L 525.42429 223.311214 
L 525.42429 223.311214 
" clip-path="url(#p471b62be5e)" style="fill: none; stroke: #002f4a; stroke-width: 2.5; stroke-linecap: square"/>
   </g>
   <g id="patch_3">
    <path d="M 46.051562 244.837969 
L 46.051562 23.077969 
" style="fill: none; stroke: #000000; stroke-width: 0.8; stroke-linejoin: miter; stroke-linecap: square"/>
   </g>
   <g id="patch_4">
    <path d="M 548.251563 244.837969 
L 548.251563 23.077969 
" style="fill: none; stroke: #000000; stroke-width: 0.8; stroke-linejoin: miter; stroke-linecap: square"/>
   </g>
   <g id="patch_5">
    <path d="M 46.051563 244.837969 
L 548.251562 244.837969 
" style="fill: none; stroke: #000000; stroke-width: 0.8; stroke-linejoin: miter; stroke-linecap: square"/>
   </g>
   <g id="patch_6">
    <path d="M 46.051563 23.077969 
L 548.251562 23.077969 
" style="fill: none; stroke: #000000; stroke-width: 0.8; stroke-linejoin: miter; stroke-linecap: square"/>
   </g>
   <g id="text_18">
    <!-- Create VM Type 1 (KubeVirt) -->
    <g transform="translate(205.593984 17.077969) scale(0.13 -0.13)">
     <defs>
      <path id="DejaVuSans-43" d="M 4122 4306 
L 4122 3641 
Q 3803 3938 3442 4084 
Q 3081 4231 2675 4231 
Q 1875 4231 1450 3742 
Q 1025 3253 1025 2328 
Q 1025 1406 1450 917 
Q 1875 428 2675 428 
Q 3081 428 3442 575 
Q 3803 722 4122 1019 
L 4122 359 
Q 3791 134 3420 21 
Q 3050 -91 2638 -91 
Q 1578 -91 968 557 
Q 359 1206 359 2328 
Q 359 3453 968 4101 
Q 1578 4750 2638 4750 
Q 3056 4750 3426 4639 
Q 3797 4528 4122 4306 
z
" transform="scale(0.015625)"/>
      <path id="DejaVuSans-72" d="M 2631 2963 
Q 2534 3019 2420 3045 
Q 2306 3072 2169 3072 
Q 1681 3072 1420 2755 
Q 1159 2438 1159 1844 
L 1159 0 
L 581 0 
L 581 3500 
L 1159 3500 
L 1159 2956 
Q 1341 3275 1631 3429 
Q 1922 3584 2338 3584 
Q 2397 3584 2469 3576 
Q 2541 3569 2628 3553 
L 2631 2963 
z
" transform="scale(0.015625)"/>
      <path id="DejaVuSans-56" d="M 1831 0 
L 50 4666 
L 709 4666 
L 2188 738 
L 3669 4666 
L 4325 4666 
L 2547 0 
L 1831 0 
z
" transform="scale(0.015625)"/>
      <path id="DejaVuSans-4d" d="M 628 4666 
L 1569 4666 
L 2759 1491 
L 3956 4666 
L 4897 4666 
L 4897 0 
L 4281 0 
L 4281 4097 
L 3078 897 
L 2444 897 
L 1241 4097 
L 1241 0 
L 628 0 
L 628 4666 
z
" transform="scale(0.015625)"/>
      <path id="DejaVuSans-79" d="M 2059 -325 
Q 1816 -950 1584 -1140 
Q 1353 -1331 966 -1331 
L 506 -1331 
L 506 -850 
L 844 -850 
Q 1081 -850 1212 -737 
Q 1344 -625 1503 -206 
L 1606 56 
L 191 3500 
L 800 3500 
L 1894 763 
L 2988 3500 
L 3597 3500 
L 2059 -325 
z
" transform="scale(0.015625)"/>
      <path id="DejaVuSans-70" d="M 1159 525 
L 1159 -1331 
L 581 -1331 
L 581 3500 
L 1159 3500 
L 1159 2969 
Q 1341 3281 1617 3432 
Q 1894 3584 2278 3584 
Q 2916 3584 3314 3078 
Q 3713 2572 3713 1747 
Q 3713 922 3314 415 
Q 2916 -91 2278 -91 
Q 1894 -91 1617 61 
Q 1341 213 1159 525 
z
M 3116 1747 
Q 3116 2381 2855 2742 
Q 2594 3103 2138 3103 
Q 1681 3103 1420 2742 
Q 1159 2381 1159 1747 
Q 1159 1113 1420 752 
Q 1681 391 2138 391 
Q 2594 391 2855 752 
Q 3116 1113 3116 1747 
z
" transform="scale(0.015625)"/>
      <path id="DejaVuSans-4b" d="M 628 4666 
L 1259 4666 
L 1259 2694 
L 3353 4666 
L 4166 4666 
L 1850 2491 
L 4331 0 
L 3500 0 
L 1259 2247 
L 1259 0 
L 628 0 
L 628 4666 
z
" transform="scale(0.015625)"/>
      <path id="DejaVuSans-75" d="M 544 1381 
L 544 3500 
L 1119 3500 
L 1119 1403 
Q 1119 906 1312 657 
Q 1506 409 1894 409 
Q 2359 409 2629 706 
Q 2900 1003 2900 1516 
L 2900 3500 
L 3475 3500 
L 3475 0 
L 2900 0 
L 2900 538 
Q 2691 219 2414 64 
Q 2138 -91 1772 -91 
Q 1169 -91 856 284 
Q 544 659 544 1381 
z
M 1991 3584 
L 1991 3584 
z
" transform="scale(0.015625)"/>
      <path id="DejaVuSans-62" d="M 3116 1747 
Q 3116 2381 2855 2742 
Q 2594 3103 2138 3103 
Q 1681 3103 1420 2742 
Q 1159 2381 1159 1747 
Q 1159 1113 1420 752 
Q 1681 391 2138 391 
Q 2594 391 2855 752 
Q 3116 1113 3116 1747 
z
M 1159 2969 
Q 1341 3281 1617 3432 
Q 1894 3584 2278 3584 
Q 2916 3584 3314 3078 
Q 3713 2572 3713 1747 
Q 3713 922 3314 415 
Q 2916 -91 2278 -91 
Q 1894 -91 1617 61 
Q 1341 213 1159 525 
L 1159 0 
L 581 0 
L 581 4863 
L 1159 4863 
L 1159 2969 
z
" transform="scale(0.015625)"/>
     </defs>
     <use xlink:href="#DejaVuSans-43"/>
     <use xlink:href="#DejaVuSans-72" x="69.824219"/>
     <use xlink:href="#DejaVuSans-65" x="108.6875"/>
     <use xlink:href="#DejaVuSans-61" x="170.210938"/>
     <use xlink:href="#DejaVuSans-74" x="231.490234"/>
     <use xlink:href="#DejaVuSans-65" x="270.699219"/>
     <use xlink:href="#DejaVuSans-20" x="332.222656"/>
     <use xlink:href="#DejaVuSans-56" x="364.009766"/>
     <use xlink:href="#DejaVuSans-4d" x="432.417969"/>
     <use xlink:href="#DejaVuSans-20" x="518.697266"/>
     <use xlink:href="#DejaVuSans-54" x="550.484375"/>
     <use xlink:href="#DejaVuSans-79" x="595.943359"/>
     <use xlink:href="#DejaVuSans-70" x="655.123047"/>
     <use xlink:href="#DejaVuSans-65" x="718.599609"/>
     <use xlink:href="#DejaVuSans-20" x="780.123047"/>
     <use xlink:href="#DejaVuSans-31" x="811.910156"/>
     <use xlink:href="#DejaVuSans-20" x="875.533203"/>
     <use xlink:href="#DejaVuSans-28" x="907.320312"/>
     <use xlink:href="#DejaVuSans-4b" x="946.333984"/>
     <use xlink:href="#DejaVuSans-75" x="1006.910156"/>
     <use xlink:href="#DejaVuSans-62" x="1070.289062"/>
     <use xlink:href="#DejaVuSans-65" x="1133.765625"/>
     <use xlink:href="#DejaVuSans-56" x="1195.289062"/>
     <use xlink:href="#DejaVuSans-69" x="1261.447266"/>
     <use xlink:href="#DejaVuSans-72" x="1289.230469"/>
     <use xlink:href="#DejaVuSans-74" x="1330.34375"/>
     <use xlink:href="#DejaVuSans-29" x="1369.552734"/>
    </g>
   </g>
   <g id="legend_1">
    <g id="patch_7">
     <path d="M 471.217188 85.519219 
L 539.851563 85.519219 
Q 542.251563 85.519219 542.251563 83.119219 
L 542.251563 31.477969 
Q 542.251563 29.077969 539.851563 29.077969 
L 471.217188 29.077969 
Q 468.817188 29.077969 468.817188 31.477969 
L 468.817188 83.119219 
Q 468.817188 85.519219 471.217188 85.519219 
z
" style="fill: #ffffff; opacity: 0.8; stroke: #cccccc; stroke-linejoin: miter"/>
    </g>
    <g id="line2d_19">
     <path d="M 473.617188 38.796094 
L 485.617188 38.796094 
L 497.617188 38.796094 
" style="fill: none; stroke: #009384; stroke-width: 2.5; stroke-linecap: square"/>
    </g>
    <g id="text_19">
     <!--  CPU -->
     <g transform="translate(507.217188 42.996094) scale(0.12 -0.12)">
      <defs>
       <path id="DejaVuSans-50" d="M 1259 4147 
L 1259 2394 
L 2053 2394 
Q 2494 2394 2734 2622 
Q 2975 2850 2975 3272 
Q 2975 3691 2734 3919 
Q 2494 4147 2053 4147 
L 1259 4147 
z
M 628 4666 
L 2053 4666 
Q 2838 4666 3239 4311 
Q 3641 3956 3641 3272 
Q 3641 2581 3239 2228 
Q 2838 1875 2053 1875 
L 1259 1875 
L 1259 0 
L 628 0 
L 628 4666 
z
" transform="scale(0.015625)"/>
      </defs>
      <use xlink:href="#DejaVuSans-20"/>
      <use xlink:href="#DejaVuSans-43" x="31.787109"/>
      <use xlink:href="#DejaVuSans-50" x="101.611328"/>
      <use xlink:href="#DejaVuSans-55" x="161.914062"/>
     </g>
    </g>
    <g id="line2d_20">
     <path d="M 473.617188 56.409844 
L 485.617188 56.409844 
L 497.617188 56.409844 
" style="fill: none; stroke: #b85741; stroke-width: 2.5; stroke-linecap: square"/>
    </g>
    <g id="text_20">
     <!--  RAM -->
     <g transform="translate(507.217188 60.609844) scale(0.12 -0.12)">
      <defs>
       <path id="DejaVuSans-52" d="M 2841 2188 
Q 3044 2119 3236 1894 
Q 3428 1669 3622 1275 
L 4263 0 
L 3584 0 
L 2988 1197 
Q 2756 1666 2539 1819 
Q 2322 1972 1947 1972 
L 1259 1972 
L 1259 0 
L 628 0 
L 628 4666 
L 2053 4666 
Q 2853 4666 3247 4331 
Q 3641 3997 3641 3322 
Q 3641 2881 3436 2590 
Q 3231 2300 2841 2188 
z
M 1259 4147 
L 1259 2491 
L 2053 2491 
Q 2509 2491 2742 2702 
Q 2975 2913 2975 3322 
Q 2975 3731 2742 3939 
Q 2509 4147 2053 4147 
L 1259 4147 
z
" transform="scale(0.015625)"/>
       <path id="DejaVuSans-41" d="M 2188 4044 
L 1331 1722 
L 3047 1722 
L 2188 4044 
z
M 1831 4666 
L 2547 4666 
L 4325 0 
L 3669 0 
L 3244 1197 
L 1141 1197 
L 716 0 
L 50 0 
L 1831 4666 
z
" transform="scale(0.015625)"/>
      </defs>
      <use xlink:href="#DejaVuSans-20"/>
      <use xlink:href="#DejaVuSans-52" x="31.787109"/>
      <use xlink:href="#DejaVuSans-41" x="97.269531"/>
      <use xlink:href="#DejaVuSans-4d" x="165.677734"/>
     </g>
    </g>
    <g id="line2d_21">
     <path d="M 473.617188 74.023594 
L 485.617188 74.023594 
L 497.617188 74.023594 
" style="fill: none; stroke: #002f4a; stroke-width: 2.5; stroke-linecap: square"/>
    </g>
    <g id="text_21">
     <!--  Disk -->
     <g transform="translate(507.217188 78.223594) scale(0.12 -0.12)">
      <defs>
       <path id="DejaVuSans-44" d="M 1259 4147 
L 1259 519 
L 2022 519 
Q 2988 519 3436 956 
Q 3884 1394 3884 2338 
Q 3884 3275 3436 3711 
Q 2988 4147 2022 4147 
L 1259 4147 
z
M 628 4666 
L 1925 4666 
Q 3281 4666 3915 4102 
Q 4550 3538 4550 2338 
Q 4550 1131 3912 565 
Q 3275 0 1925 0 
L 628 0 
L 628 4666 
z
" transform="scale(0.015625)"/>
       <path id="DejaVuSans-6b" d="M 581 4863 
L 1159 4863 
L 1159 1991 
L 2875 3500 
L 3609 3500 
L 1753 1863 
L 3688 0 
L 2938 0 
L 1159 1709 
L 1159 0 
L 581 0 
L 581 4863 
z
" transform="scale(0.015625)"/>
      </defs>
      <use xlink:href="#DejaVuSans-20"/>
      <use xlink:href="#DejaVuSans-44" x="31.787109"/>
      <use xlink:href="#DejaVuSans-69" x="108.789062"/>
      <use xlink:href="#DejaVuSans-73" x="136.572266"/>
      <use xlink:href="#DejaVuSans-6b" x="188.671875"/>
     </g>
    </g>
   </g>
  </g>
 </g>
 <defs>
  <clipPath id="p471b62be5e">
   <rect x="46.051562" y="23.077969" width="502.2" height="221.76"/>
  </clipPath>
 </defs>
</svg>
