<?xml version="1.0" encoding="utf-8" standalone="no"?>
<!DOCTYPE svg PUBLIC "-//W3C//DTD SVG 1.1//EN"
  "http://www.w3.org/Graphics/SVG/1.1/DTD/svg11.dtd">
<svg xmlns:xlink="http://www.w3.org/1999/xlink" width="557.340517pt" height="287.233281pt" viewBox="0 0 557.340517 287.233281" xmlns="http://www.w3.org/2000/svg" version="1.1">
 <metadata>
  <rdf:RDF xmlns:dc="http://purl.org/dc/elements/1.1/" xmlns:cc="http://creativecommons.org/ns#" xmlns:rdf="http://www.w3.org/1999/02/22-rdf-syntax-ns#">
   <cc:Work>
    <dc:type rdf:resource="http://purl.org/dc/dcmitype/StillImage"/>
    <dc:date>2024-05-21T10:08:02.665945</dc:date>
    <dc:format>image/svg+xml</dc:format>
    <dc:creator>
     <cc:Agent>
      <dc:title>Matplotlib v3.8.4, https://matplotlib.org/</dc:title>
     </cc:Agent>
    </dc:creator>
   </cc:Work>
  </rdf:RDF>
 </metadata>
 <defs>
  <style type="text/css">*{stroke-linejoin: round; stroke-linecap: butt}</style>
 </defs>
 <g id="figure_1">
  <g id="patch_1">
   <path d="M 0 287.233281 
L 557.340517 287.233281 
L 557.340517 0 
L 0 0 
z
" style="fill: #f3f7f8"/>
  </g>
  <g id="axes_1">
   <g id="patch_2">
    <path d="M 46.051562 244.837969 
L 548.251563 244.837969 
L 548.251563 23.077969 
L 46.051562 23.077969 
z
" style="fill: #ffffff"/>
   </g>
   <g id="matplotlib.axis_1">
    <g id="xtick_1">
     <g id="line2d_1">
      <defs>
       <path id="m64316dc7be" d="M 0 0 
L 0 3.5 
" style="stroke: #000000; stroke-width: 0.8"/>
      </defs>
      <g>
       <use xlink:href="#m64316dc7be" x="66.114228" y="244.837969" style="stroke: #000000; stroke-width: 0.8"/>
      </g>
     </g>
     <g id="text_1">
      <!-- −5 -->
      <g transform="translate(57.268915 260.956094) scale(0.12 -0.12)">
       <defs>
        <path id="DejaVuSans-2212" d="M 678 2272 
L 4684 2272 
L 4684 1741 
L 678 1741 
L 678 2272 
z
" transform="scale(0.015625)"/>
        <path id="DejaVuSans-35" d="M 691 4666 
L 3169 4666 
L 3169 4134 
L 1269 4134 
L 1269 2991 
Q 1406 3038 1543 3061 
Q 1681 3084 1819 3084 
Q 2600 3084 3056 2656 
Q 3513 2228 3513 1497 
Q 3513 744 3044 326 
Q 2575 -91 1722 -91 
Q 1428 -91 1123 -41 
Q 819 9 494 109 
L 494 744 
Q 775 591 1075 516 
Q 1375 441 1709 441 
Q 2250 441 2565 725 
Q 2881 1009 2881 1497 
Q 2881 1984 2565 2268 
Q 2250 2553 1709 2553 
Q 1456 2553 1204 2497 
Q 953 2441 691 2322 
L 691 4666 
z
" transform="scale(0.015625)"/>
       </defs>
       <use xlink:href="#DejaVuSans-2212"/>
       <use xlink:href="#DejaVuSans-35" x="83.789062"/>
      </g>
     </g>
    </g>
    <g id="xtick_2">
     <g id="line2d_2">
      <g>
       <use xlink:href="#m64316dc7be" x="134.170126" y="244.837969" style="stroke: #000000; stroke-width: 0.8"/>
      </g>
     </g>
     <g id="text_2">
      <!-- 0 -->
      <g transform="translate(130.352626 260.956094) scale(0.12 -0.12)">
       <defs>
        <path id="DejaVuSans-30" d="M 2034 4250 
Q 1547 4250 1301 3770 
Q 1056 3291 1056 2328 
Q 1056 1369 1301 889 
Q 1547 409 2034 409 
Q 2525 409 2770 889 
Q 3016 1369 3016 2328 
Q 3016 3291 2770 3770 
Q 2525 4250 2034 4250 
z
M 2034 4750 
Q 2819 4750 3233 4129 
Q 3647 3509 3647 2328 
Q 3647 1150 3233 529 
Q 2819 -91 2034 -91 
Q 1250 -91 836 529 
Q 422 1150 422 2328 
Q 422 3509 836 4129 
Q 1250 4750 2034 4750 
z
" transform="scale(0.015625)"/>
       </defs>
       <use xlink:href="#DejaVuSans-30"/>
      </g>
     </g>
    </g>
    <g id="xtick_3">
     <g id="line2d_3">
      <g>
       <use xlink:href="#m64316dc7be" x="202.226025" y="244.837969" style="stroke: #000000; stroke-width: 0.8"/>
      </g>
     </g>
     <g id="text_3">
      <!-- 5 -->
      <g transform="translate(198.408525 260.956094) scale(0.12 -0.12)">
       <use xlink:href="#DejaVuSans-35"/>
      </g>
     </g>
    </g>
    <g id="xtick_4">
     <g id="line2d_4">
      <g>
       <use xlink:href="#m64316dc7be" x="270.281923" y="244.837969" style="stroke: #000000; stroke-width: 0.8"/>
      </g>
     </g>
     <g id="text_4">
      <!-- 10 -->
      <g transform="translate(262.646923 260.956094) scale(0.12 -0.12)">
       <defs>
        <path id="DejaVuSans-31" d="M 794 531 
L 1825 531 
L 1825 4091 
L 703 3866 
L 703 4441 
L 1819 4666 
L 2450 4666 
L 2450 531 
L 3481 531 
L 3481 0 
L 794 0 
L 794 531 
z
" transform="scale(0.015625)"/>
       </defs>
       <use xlink:href="#DejaVuSans-31"/>
       <use xlink:href="#DejaVuSans-30" x="63.623047"/>
      </g>
     </g>
    </g>
    <g id="xtick_5">
     <g id="line2d_5">
      <g>
       <use xlink:href="#m64316dc7be" x="338.337822" y="244.837969" style="stroke: #000000; stroke-width: 0.8"/>
      </g>
     </g>
     <g id="text_5">
      <!-- 15 -->
      <g transform="translate(330.702822 260.956094) scale(0.12 -0.12)">
       <use xlink:href="#DejaVuSans-31"/>
       <use xlink:href="#DejaVuSans-35" x="63.623047"/>
      </g>
     </g>
    </g>
    <g id="xtick_6">
     <g id="line2d_6">
      <g>
       <use xlink:href="#m64316dc7be" x="406.39372" y="244.837969" style="stroke: #000000; stroke-width: 0.8"/>
      </g>
     </g>
     <g id="text_6">
      <!-- 20 -->
      <g transform="translate(398.75872 260.956094) scale(0.12 -0.12)">
       <defs>
        <path id="DejaVuSans-32" d="M 1228 531 
L 3431 531 
L 3431 0 
L 469 0 
L 469 531 
Q 828 903 1448 1529 
Q 2069 2156 2228 2338 
Q 2531 2678 2651 2914 
Q 2772 3150 2772 3378 
Q 2772 3750 2511 3984 
Q 2250 4219 1831 4219 
Q 1534 4219 1204 4116 
Q 875 4013 500 3803 
L 500 4441 
Q 881 4594 1212 4672 
Q 1544 4750 1819 4750 
Q 2544 4750 2975 4387 
Q 3406 4025 3406 3419 
Q 3406 3131 3298 2873 
Q 3191 2616 2906 2266 
Q 2828 2175 2409 1742 
Q 1991 1309 1228 531 
z
" transform="scale(0.015625)"/>
       </defs>
       <use xlink:href="#DejaVuSans-32"/>
       <use xlink:href="#DejaVuSans-30" x="63.623047"/>
      </g>
     </g>
    </g>
    <g id="xtick_7">
     <g id="line2d_7">
      <g>
       <use xlink:href="#m64316dc7be" x="474.449619" y="244.837969" style="stroke: #000000; stroke-width: 0.8"/>
      </g>
     </g>
     <g id="text_7">
      <!-- 25 -->
      <g transform="translate(466.814619 260.956094) scale(0.12 -0.12)">
       <use xlink:href="#DejaVuSans-32"/>
       <use xlink:href="#DejaVuSans-35" x="63.623047"/>
      </g>
     </g>
    </g>
    <g id="xtick_8">
     <g id="line2d_8">
      <g>
       <use xlink:href="#m64316dc7be" x="542.505517" y="244.837969" style="stroke: #000000; stroke-width: 0.8"/>
      </g>
     </g>
     <g id="text_8">
      <!-- 30 -->
      <g transform="translate(534.870517 260.956094) scale(0.12 -0.12)">
       <defs>
        <path id="DejaVuSans-33" d="M 2597 2516 
Q 3050 2419 3304 2112 
Q 3559 1806 3559 1356 
Q 3559 666 3084 287 
Q 2609 -91 1734 -91 
Q 1441 -91 1130 -33 
Q 819 25 488 141 
L 488 750 
Q 750 597 1062 519 
Q 1375 441 1716 441 
Q 2309 441 2620 675 
Q 2931 909 2931 1356 
Q 2931 1769 2642 2001 
Q 2353 2234 1838 2234 
L 1294 2234 
L 1294 2753 
L 1863 2753 
Q 2328 2753 2575 2939 
Q 2822 3125 2822 3475 
Q 2822 3834 2567 4026 
Q 2313 4219 1838 4219 
Q 1578 4219 1281 4162 
Q 984 4106 628 3988 
L 628 4550 
Q 988 4650 1302 4700 
Q 1616 4750 1894 4750 
Q 2613 4750 3031 4423 
Q 3450 4097 3450 3541 
Q 3450 3153 3228 2886 
Q 3006 2619 2597 2516 
z
" transform="scale(0.015625)"/>
       </defs>
       <use xlink:href="#DejaVuSans-33"/>
       <use xlink:href="#DejaVuSans-30" x="63.623047"/>
      </g>
     </g>
    </g>
    <g id="text_9">
     <!-- Time (s) -->
     <g transform="translate(270.723984 277.329687) scale(0.13 -0.13)">
      <defs>
       <path id="DejaVuSans-54" d="M -19 4666 
L 3928 4666 
L 3928 4134 
L 2272 4134 
L 2272 0 
L 1638 0 
L 1638 4134 
L -19 4134 
L -19 4666 
z
" transform="scale(0.015625)"/>
       <path id="DejaVuSans-69" d="M 603 3500 
L 1178 3500 
L 1178 0 
L 603 0 
L 603 3500 
z
M 603 4863 
L 1178 4863 
L 1178 4134 
L 603 4134 
L 603 4863 
z
" transform="scale(0.015625)"/>
       <path id="DejaVuSans-6d" d="M 3328 2828 
Q 3544 3216 3844 3400 
Q 4144 3584 4550 3584 
Q 5097 3584 5394 3201 
Q 5691 2819 5691 2113 
L 5691 0 
L 5113 0 
L 5113 2094 
Q 5113 2597 4934 2840 
Q 4756 3084 4391 3084 
Q 3944 3084 3684 2787 
Q 3425 2491 3425 1978 
L 3425 0 
L 2847 0 
L 2847 2094 
Q 2847 2600 2669 2842 
Q 2491 3084 2119 3084 
Q 1678 3084 1418 2786 
Q 1159 2488 1159 1978 
L 1159 0 
L 581 0 
L 581 3500 
L 1159 3500 
L 1159 2956 
Q 1356 3278 1631 3431 
Q 1906 3584 2284 3584 
Q 2666 3584 2933 3390 
Q 3200 3197 3328 2828 
z
" transform="scale(0.015625)"/>
       <path id="DejaVuSans-65" d="M 3597 1894 
L 3597 1613 
L 953 1613 
Q 991 1019 1311 708 
Q 1631 397 2203 397 
Q 2534 397 2845 478 
Q 3156 559 3463 722 
L 3463 178 
Q 3153 47 2828 -22 
Q 2503 -91 2169 -91 
Q 1331 -91 842 396 
Q 353 884 353 1716 
Q 353 2575 817 3079 
Q 1281 3584 2069 3584 
Q 2775 3584 3186 3129 
Q 3597 2675 3597 1894 
z
M 3022 2063 
Q 3016 2534 2758 2815 
Q 2500 3097 2075 3097 
Q 1594 3097 1305 2825 
Q 1016 2553 972 2059 
L 3022 2063 
z
" transform="scale(0.015625)"/>
       <path id="DejaVuSans-20" transform="scale(0.015625)"/>
       <path id="DejaVuSans-28" d="M 1984 4856 
Q 1566 4138 1362 3434 
Q 1159 2731 1159 2009 
Q 1159 1288 1364 580 
Q 1569 -128 1984 -844 
L 1484 -844 
Q 1016 -109 783 600 
Q 550 1309 550 2009 
Q 550 2706 781 3412 
Q 1013 4119 1484 4856 
L 1984 4856 
z
" transform="scale(0.015625)"/>
       <path id="DejaVuSans-73" d="M 2834 3397 
L 2834 2853 
Q 2591 2978 2328 3040 
Q 2066 3103 1784 3103 
Q 1356 3103 1142 2972 
Q 928 2841 928 2578 
Q 928 2378 1081 2264 
Q 1234 2150 1697 2047 
L 1894 2003 
Q 2506 1872 2764 1633 
Q 3022 1394 3022 966 
Q 3022 478 2636 193 
Q 2250 -91 1575 -91 
Q 1294 -91 989 -36 
Q 684 19 347 128 
L 347 722 
Q 666 556 975 473 
Q 1284 391 1588 391 
Q 1994 391 2212 530 
Q 2431 669 2431 922 
Q 2431 1156 2273 1281 
Q 2116 1406 1581 1522 
L 1381 1569 
Q 847 1681 609 1914 
Q 372 2147 372 2553 
Q 372 3047 722 3315 
Q 1072 3584 1716 3584 
Q 2034 3584 2315 3537 
Q 2597 3491 2834 3397 
z
" transform="scale(0.015625)"/>
       <path id="DejaVuSans-29" d="M 513 4856 
L 1013 4856 
Q 1481 4119 1714 3412 
Q 1947 2706 1947 2009 
Q 1947 1309 1714 600 
Q 1481 -109 1013 -844 
L 513 -844 
Q 928 -128 1133 580 
Q 1338 1288 1338 2009 
Q 1338 2731 1133 3434 
Q 928 4138 513 4856 
z
" transform="scale(0.015625)"/>
      </defs>
      <use xlink:href="#DejaVuSans-54"/>
      <use xlink:href="#DejaVuSans-69" x="57.958984"/>
      <use xlink:href="#DejaVuSans-6d" x="85.742188"/>
      <use xlink:href="#DejaVuSans-65" x="183.154297"/>
      <use xlink:href="#DejaVuSans-20" x="244.677734"/>
      <use xlink:href="#DejaVuSans-28" x="276.464844"/>
      <use xlink:href="#DejaVuSans-73" x="315.478516"/>
      <use xlink:href="#DejaVuSans-29" x="367.578125"/>
     </g>
    </g>
   </g>
   <g id="matplotlib.axis_2">
    <g id="ytick_1">
     <g id="line2d_9">
      <defs>
       <path id="md820de54f8" d="M 0 0 
L -3.5 0 
" style="stroke: #000000; stroke-width: 0.8"/>
      </defs>
      <g>
       <use xlink:href="#md820de54f8" x="46.051562" y="236.793347" style="stroke: #000000; stroke-width: 0.8"/>
      </g>
     </g>
     <g id="text_10">
      <!-- 2 -->
      <g transform="translate(31.416562 241.352409) scale(0.12 -0.12)">
       <use xlink:href="#DejaVuSans-32"/>
      </g>
     </g>
    </g>
    <g id="ytick_2">
     <g id="line2d_10">
      <g>
       <use xlink:href="#md820de54f8" x="46.051562" y="203.164404" style="stroke: #000000; stroke-width: 0.8"/>
      </g>
     </g>
     <g id="text_11">
      <!-- 4 -->
      <g transform="translate(31.416562 207.723466) scale(0.12 -0.12)">
       <defs>
        <path id="DejaVuSans-34" d="M 2419 4116 
L 825 1625 
L 2419 1625 
L 2419 4116 
z
M 2253 4666 
L 3047 4666 
L 3047 1625 
L 3713 1625 
L 3713 1100 
L 3047 1100 
L 3047 0 
L 2419 0 
L 2419 1100 
L 313 1100 
L 313 1709 
L 2253 4666 
z
" transform="scale(0.015625)"/>
       </defs>
       <use xlink:href="#DejaVuSans-34"/>
      </g>
     </g>
    </g>
    <g id="ytick_3">
     <g id="line2d_11">
      <g>
       <use xlink:href="#md820de54f8" x="46.051562" y="169.535461" style="stroke: #000000; stroke-width: 0.8"/>
      </g>
     </g>
     <g id="text_12">
      <!-- 6 -->
      <g transform="translate(31.416562 174.094523) scale(0.12 -0.12)">
       <defs>
        <path id="DejaVuSans-36" d="M 2113 2584 
Q 1688 2584 1439 2293 
Q 1191 2003 1191 1497 
Q 1191 994 1439 701 
Q 1688 409 2113 409 
Q 2538 409 2786 701 
Q 3034 994 3034 1497 
Q 3034 2003 2786 2293 
Q 2538 2584 2113 2584 
z
M 3366 4563 
L 3366 3988 
Q 3128 4100 2886 4159 
Q 2644 4219 2406 4219 
Q 1781 4219 1451 3797 
Q 1122 3375 1075 2522 
Q 1259 2794 1537 2939 
Q 1816 3084 2150 3084 
Q 2853 3084 3261 2657 
Q 3669 2231 3669 1497 
Q 3669 778 3244 343 
Q 2819 -91 2113 -91 
Q 1303 -91 875 529 
Q 447 1150 447 2328 
Q 447 3434 972 4092 
Q 1497 4750 2381 4750 
Q 2619 4750 2861 4703 
Q 3103 4656 3366 4563 
z
" transform="scale(0.015625)"/>
       </defs>
       <use xlink:href="#DejaVuSans-36"/>
      </g>
     </g>
    </g>
    <g id="ytick_4">
     <g id="line2d_12">
      <g>
       <use xlink:href="#md820de54f8" x="46.051562" y="135.906518" style="stroke: #000000; stroke-width: 0.8"/>
      </g>
     </g>
     <g id="text_13">
      <!-- 8 -->
      <g transform="translate(31.416562 140.46558) scale(0.12 -0.12)">
       <defs>
        <path id="DejaVuSans-38" d="M 2034 2216 
Q 1584 2216 1326 1975 
Q 1069 1734 1069 1313 
Q 1069 891 1326 650 
Q 1584 409 2034 409 
Q 2484 409 2743 651 
Q 3003 894 3003 1313 
Q 3003 1734 2745 1975 
Q 2488 2216 2034 2216 
z
M 1403 2484 
Q 997 2584 770 2862 
Q 544 3141 544 3541 
Q 544 4100 942 4425 
Q 1341 4750 2034 4750 
Q 2731 4750 3128 4425 
Q 3525 4100 3525 3541 
Q 3525 3141 3298 2862 
Q 3072 2584 2669 2484 
Q 3125 2378 3379 2068 
Q 3634 1759 3634 1313 
Q 3634 634 3220 271 
Q 2806 -91 2034 -91 
Q 1263 -91 848 271 
Q 434 634 434 1313 
Q 434 1759 690 2068 
Q 947 2378 1403 2484 
z
M 1172 3481 
Q 1172 3119 1398 2916 
Q 1625 2713 2034 2713 
Q 2441 2713 2670 2916 
Q 2900 3119 2900 3481 
Q 2900 3844 2670 4047 
Q 2441 4250 2034 4250 
Q 1625 4250 1398 4047 
Q 1172 3844 1172 3481 
z
" transform="scale(0.015625)"/>
       </defs>
       <use xlink:href="#DejaVuSans-38"/>
      </g>
     </g>
    </g>
    <g id="ytick_5">
     <g id="line2d_13">
      <g>
       <use xlink:href="#md820de54f8" x="46.051562" y="102.277575" style="stroke: #000000; stroke-width: 0.8"/>
      </g>
     </g>
     <g id="text_14">
      <!-- 10 -->
      <g transform="translate(23.781562 106.836637) scale(0.12 -0.12)">
       <use xlink:href="#DejaVuSans-31"/>
       <use xlink:href="#DejaVuSans-30" x="63.623047"/>
      </g>
     </g>
    </g>
    <g id="ytick_6">
     <g id="line2d_14">
      <g>
       <use xlink:href="#md820de54f8" x="46.051562" y="68.648632" style="stroke: #000000; stroke-width: 0.8"/>
      </g>
     </g>
     <g id="text_15">
      <!-- 12 -->
      <g transform="translate(23.781562 73.207695) scale(0.12 -0.12)">
       <use xlink:href="#DejaVuSans-31"/>
       <use xlink:href="#DejaVuSans-32" x="63.623047"/>
      </g>
     </g>
    </g>
    <g id="ytick_7">
     <g id="line2d_15">
      <g>
       <use xlink:href="#md820de54f8" x="46.051562" y="35.019689" style="stroke: #000000; stroke-width: 0.8"/>
      </g>
     </g>
     <g id="text_16">
      <!-- 14 -->
      <g transform="translate(23.781562 39.578752) scale(0.12 -0.12)">
       <use xlink:href="#DejaVuSans-31"/>
       <use xlink:href="#DejaVuSans-34" x="63.623047"/>
      </g>
     </g>
    </g>
    <g id="text_17">
     <!-- Utilization (%) -->
     <g transform="translate(17.077969 179.839844) rotate(-90) scale(0.13 -0.13)">
      <defs>
       <path id="DejaVuSans-55" d="M 556 4666 
L 1191 4666 
L 1191 1831 
Q 1191 1081 1462 751 
Q 1734 422 2344 422 
Q 2950 422 3222 751 
Q 3494 1081 3494 1831 
L 3494 4666 
L 4128 4666 
L 4128 1753 
Q 4128 841 3676 375 
Q 3225 -91 2344 -91 
Q 1459 -91 1007 375 
Q 556 841 556 1753 
L 556 4666 
z
" transform="scale(0.015625)"/>
       <path id="DejaVuSans-74" d="M 1172 4494 
L 1172 3500 
L 2356 3500 
L 2356 3053 
L 1172 3053 
L 1172 1153 
Q 1172 725 1289 603 
Q 1406 481 1766 481 
L 2356 481 
L 2356 0 
L 1766 0 
Q 1100 0 847 248 
Q 594 497 594 1153 
L 594 3053 
L 172 3053 
L 172 3500 
L 594 3500 
L 594 4494 
L 1172 4494 
z
" transform="scale(0.015625)"/>
       <path id="DejaVuSans-6c" d="M 603 4863 
L 1178 4863 
L 1178 0 
L 603 0 
L 603 4863 
z
" transform="scale(0.015625)"/>
       <path id="DejaVuSans-7a" d="M 353 3500 
L 3084 3500 
L 3084 2975 
L 922 459 
L 3084 459 
L 3084 0 
L 275 0 
L 275 525 
L 2438 3041 
L 353 3041 
L 353 3500 
z
" transform="scale(0.015625)"/>
       <path id="DejaVuSans-61" d="M 2194 1759 
Q 1497 1759 1228 1600 
Q 959 1441 959 1056 
Q 959 750 1161 570 
Q 1363 391 1709 391 
Q 2188 391 2477 730 
Q 2766 1069 2766 1631 
L 2766 1759 
L 2194 1759 
z
M 3341 1997 
L 3341 0 
L 2766 0 
L 2766 531 
Q 2569 213 2275 61 
Q 1981 -91 1556 -91 
Q 1019 -91 701 211 
Q 384 513 384 1019 
Q 384 1609 779 1909 
Q 1175 2209 1959 2209 
L 2766 2209 
L 2766 2266 
Q 2766 2663 2505 2880 
Q 2244 3097 1772 3097 
Q 1472 3097 1187 3025 
Q 903 2953 641 2809 
L 641 3341 
Q 956 3463 1253 3523 
Q 1550 3584 1831 3584 
Q 2591 3584 2966 3190 
Q 3341 2797 3341 1997 
z
" transform="scale(0.015625)"/>
       <path id="DejaVuSans-6f" d="M 1959 3097 
Q 1497 3097 1228 2736 
Q 959 2375 959 1747 
Q 959 1119 1226 758 
Q 1494 397 1959 397 
Q 2419 397 2687 759 
Q 2956 1122 2956 1747 
Q 2956 2369 2687 2733 
Q 2419 3097 1959 3097 
z
M 1959 3584 
Q 2709 3584 3137 3096 
Q 3566 2609 3566 1747 
Q 3566 888 3137 398 
Q 2709 -91 1959 -91 
Q 1206 -91 779 398 
Q 353 888 353 1747 
Q 353 2609 779 3096 
Q 1206 3584 1959 3584 
z
" transform="scale(0.015625)"/>
       <path id="DejaVuSans-6e" d="M 3513 2113 
L 3513 0 
L 2938 0 
L 2938 2094 
Q 2938 2591 2744 2837 
Q 2550 3084 2163 3084 
Q 1697 3084 1428 2787 
Q 1159 2491 1159 1978 
L 1159 0 
L 581 0 
L 581 3500 
L 1159 3500 
L 1159 2956 
Q 1366 3272 1645 3428 
Q 1925 3584 2291 3584 
Q 2894 3584 3203 3211 
Q 3513 2838 3513 2113 
z
" transform="scale(0.015625)"/>
       <path id="DejaVuSans-25" d="M 4653 2053 
Q 4381 2053 4226 1822 
Q 4072 1591 4072 1178 
Q 4072 772 4226 539 
Q 4381 306 4653 306 
Q 4919 306 5073 539 
Q 5228 772 5228 1178 
Q 5228 1588 5073 1820 
Q 4919 2053 4653 2053 
z
M 4653 2450 
Q 5147 2450 5437 2106 
Q 5728 1763 5728 1178 
Q 5728 594 5436 251 
Q 5144 -91 4653 -91 
Q 4153 -91 3862 251 
Q 3572 594 3572 1178 
Q 3572 1766 3864 2108 
Q 4156 2450 4653 2450 
z
M 1428 4353 
Q 1159 4353 1004 4120 
Q 850 3888 850 3481 
Q 850 3069 1003 2837 
Q 1156 2606 1428 2606 
Q 1700 2606 1854 2837 
Q 2009 3069 2009 3481 
Q 2009 3884 1853 4118 
Q 1697 4353 1428 4353 
z
M 4250 4750 
L 4750 4750 
L 1831 -91 
L 1331 -91 
L 4250 4750 
z
M 1428 4750 
Q 1922 4750 2215 4408 
Q 2509 4066 2509 3481 
Q 2509 2891 2217 2550 
Q 1925 2209 1428 2209 
Q 931 2209 642 2551 
Q 353 2894 353 3481 
Q 353 4063 643 4406 
Q 934 4750 1428 4750 
z
" transform="scale(0.015625)"/>
      </defs>
      <use xlink:href="#DejaVuSans-55"/>
      <use xlink:href="#DejaVuSans-74" x="73.193359"/>
      <use xlink:href="#DejaVuSans-69" x="112.402344"/>
      <use xlink:href="#DejaVuSans-6c" x="140.185547"/>
      <use xlink:href="#DejaVuSans-69" x="167.96875"/>
      <use xlink:href="#DejaVuSans-7a" x="195.751953"/>
      <use xlink:href="#DejaVuSans-61" x="248.242188"/>
      <use xlink:href="#DejaVuSans-74" x="309.521484"/>
      <use xlink:href="#DejaVuSans-69" x="348.730469"/>
      <use xlink:href="#DejaVuSans-6f" x="376.513672"/>
      <use xlink:href="#DejaVuSans-6e" x="437.695312"/>
      <use xlink:href="#DejaVuSans-20" x="501.074219"/>
      <use xlink:href="#DejaVuSans-28" x="532.861328"/>
      <use xlink:href="#DejaVuSans-25" x="571.875"/>
      <use xlink:href="#DejaVuSans-29" x="666.894531"/>
     </g>
    </g>
   </g>
   <g id="line2d_16">
    <path d="M 68.878835 234.757969 
L 72.348039 234.340088 
L 76.564769 234.135558 
L 76.635602 233.931028 
L 77.34322 233.802576 
L 83.603859 233.261756 
L 87.799233 232.711014 
L 89.212481 232.642653 
L 89.506782 232.435918 
L 89.677643 232.640999 
L 90.15055 231.952984 
L 90.246114 231.881316 
L 91.93435 231.676234 
L 93.195426 231.393421 
L 94.22115 231.391767 
L 96.101195 231.115568 
L 104.565579 230.834408 
L 109.049102 230.420938 
L 109.562856 230.145291 
L 110.826218 229.933042 
L 115.021592 229.722448 
L 117.398308 229.367415 
L 117.469141 228.887789 
L 121.44351 228.479831 
L 123.323554 228.545986 
L 136.271461 224.454281 
L 136.785215 221.462408 
L 138.048577 220.347691 
L 139.93344 217.303996 
L 140.770419 210.868739 
L 142.243951 209.269986 
L 143.6572 206.786406 
L 143.951501 205.532212 
L 144.311258 201.62078 
L 144.595269 198.644343 
L 144.6915 191.59274 
L 147.640144 188.970233 
L 148.665869 189.03694 
L 150.545913 185.584736 
L 159.010298 182.748879 
L 163.49382 178.939988 
L 167.155799 176.989509 
L 167.992778 172.35092 
L 169.466311 168.765303 
L 170.87956 164.98563 
L 171.344722 162.054951 
L 171.533618 158.414204 
L 171.817628 155.423433 
L 171.913859 145.257018 
L 173.601428 141.190672 
L 174.862504 137.352562 
L 175.888229 133.593839 
L 177.618754 131.795517 
L 177.768273 129.791012 
L 178.882117 124.982624 
L 184.78504 120.828072 
L 194.378159 116.722033 
L 195.215137 111.219015 
L 196.68867 108.035291 
L 198.567081 104.86976 
L 199.039988 100.463817 
L 199.136219 92.934793 
L 199.843837 89.486448 
L 200.823787 86.518832 
L 203.110588 81.532376 
L 204.327359 79.456754 
L 204.841113 75.901458 
L 204.990632 72.659848 
L 206.104476 70.989978 
L 211.713099 68.917112 
L 212.0074 66.758244 
L 221.600518 64.238279 
L 222.071016 62.911314 
L 222.437497 60.981233 
L 223.91103 61.705634 
L 225.78944 61.213879 
L 225.978336 60.794344 
L 226.262347 60.543505 
L 226.358578 57.003094 
L 227.066196 55.999739 
L 228.046147 56.229629 
L 229.307223 55.398277 
L 231.549719 55.330468 
L 232.063473 56.551033 
L 232.212992 54.920856 
L 233.326835 53.275795 
L 238.935458 50.046314 
L 239.229759 48.023064 
L 243.944127 44.786416 
L 248.822878 45.311248 
L 249.293375 45.634307 
L 249.659856 46.816833 
L 253.484707 45.859786 
L 253.580271 42.299528 
L 253.580938 42.962184 
L 254.288556 42.81554 
L 255.268506 41.066835 
L 258.772078 39.903604 
L 259.285832 38.217195 
L 259.435351 38.391404 
L 260.549195 38.98184 
L 264.744569 38.98625 
L 266.157817 41.109836 
L 266.452118 41.120861 
L 266.622979 37.970215 
L 266.811875 37.361035 
L 271.166487 39.245359 
L 276.515735 39.576135 
L 276.882216 38.465277 
L 280.707066 38.520407 
L 280.803297 37.126184 
L 281.510915 35.628869 
L 282.490866 35.434262 
L 285.994438 36.769497 
L 286.508192 35.206578 
L 286.65771 35.163026 
L 287.771554 34.29143 
L 291.966928 35.159167 
L 293.380177 33.289728 
L 293.674478 33.157969 
L 293.845339 35.18177 
L 294.034235 35.371415 
L 294.41381 34.995432 
L 298.388846 34.761132 
L 307.929425 35.492699 
L 307.954824 34.505883 
L 308.025656 36.101328 
L 308.733274 37.608015 
L 310.974301 35.832848 
L 313.216797 33.743443 
L 313.730551 34.61118 
L 314.993914 35.810245 
L 317.349274 37.645503 
L 317.715755 39.167075 
L 319.189287 37.732608 
L 320.602536 37.894688 
L 321.067698 36.288217 
L 321.256594 34.45792 
L 321.636169 35.365902 
L 323.324405 35.461276 
L 325.611205 36.011467 
L 335.151785 40.043633 
L 335.248016 41.065181 
L 335.955634 40.147827 
L 340.439156 40.166571 
L 340.95291 38.925608 
L 342.216273 42.469327 
L 344.101135 40.887664 
L 344.571633 41.17544 
L 344.938114 41.971508 
L 346.411647 42.727884 
L 347.824896 41.534883 
L 348.119197 43.200343 
L 348.290058 42.532174 
L 348.478954 44.116043 
L 348.858529 46.119997 
L 350.546764 43.671148 
L 351.80784 44.677811 
L 352.833565 49.907388 
L 354.713609 48.475125 
L 363.177993 51.543629 
L 367.661516 52.759232 
L 368.17527 55.404341 
L 369.438632 55.625962 
L 371.323495 58.376368 
L 371.793993 61.339023 
L 372.160474 65.29511 
L 373.634006 66.520637 
L 375.047255 69.467304 
L 375.512417 67.839884 
L 375.701313 67.521235 
L 375.985324 71.013684 
L 376.081555 77.747742 
L 377.769123 79.211428 
L 379.030199 76.844171 
L 380.055924 80.030651 
L 381.935968 82.489974 
L 394.883875 85.205098 
L 395.397629 86.833621 
L 396.660992 90.129257 
L 398.545854 92.366409 
L 399.016352 94.573791 
L 399.382833 98.886013 
L 400.856366 102.582441 
L 402.269614 105.243537 
L 402.734777 109.983565 
L 402.923672 112.373976 
L 403.207683 114.523472 
L 403.303914 123.61762 
L 404.011532 127.205442 
L 404.991483 130.761841 
L 406.252559 133.231639 
L 407.278284 136.863565 
L 409.158328 140.992758 
L 422.619989 143.538634 
L 425.768214 146.093331 
L 426.238711 147.888896 
L 426.605192 151.37087 
L 428.078725 154.319742 
L 430.146032 160.20591 
L 430.430043 164.837332 
L 430.526274 175.219855 
L 431.233892 180.102667 
L 432.213842 182.789123 
L 433.474918 186.878623 
L 434.500643 188.740895 
L 436.380687 190.933943 
L 437.494531 195.161267 
L 443.397454 197.971213 
L 443.568316 197.761721 
L 452.990573 201.806015 
L 453.461071 201.808771 
L 453.827552 204.08727 
L 455.301084 205.533866 
L 457.368391 209.187292 
L 457.652402 209.1906 
L 457.748633 212.298245 
L 458.456251 212.157665 
L 459.436202 215.549778 
L 460.697277 218.169528 
L 461.723002 221.872019 
L 462.939774 221.937623 
L 463.603047 222.223194 
L 464.71689 225.656102 
L 470.325513 226.39649 
L 470.619814 230.231844 
L 470.790675 230.231844 
L 480.212932 230.09402 
L 480.68343 229.677242 
L 481.049911 229.611087 
L 482.523444 229.824989 
L 484.590751 229.960056 
L 484.874762 229.274246 
L 484.970993 227.822688 
L 485.678611 227.044812 
L 486.658561 226.969836 
L 487.919637 227.238868 
L 490.162133 227.157276 
L 490.825406 227.306677 
L 491.93925 227.37173 
L 498.013034 227.367319 
L 498.581505 227.023863 
L 507.435292 226.87777 
L 508.272271 225.488509 
L 512.193352 224.576668 
L 513.88092 222.129474 
L 515.141996 221.772786 
L 517.384493 221.784364 
L 517.898247 221.208813 
L 519.161609 220.515284 
L 523.356983 219.470582 
L 525.064533 218.572524 
L 525.42429 217.099466 
L 525.42429 217.099466 
" clip-path="url(#p78efc2ce50)" style="fill: none; stroke: #009384; stroke-width: 2.5; stroke-linecap: square"/>
   </g>
   <g id="line2d_17">
    <path d="M 68.878835 143.275744 
L 72.348039 143.344945 
L 76.564769 142.872831 
L 76.635602 142.416778 
L 77.34322 142.426004 
L 82.340496 142.243063 
L 83.603859 142.213987 
L 85.488721 142.675004 
L 86.3257 142.688486 
L 87.799233 142.237158 
L 89.506782 142.416596 
L 89.677643 142.028934 
L 89.866539 142.082165 
L 90.15055 142.277987 
L 90.246114 142.187666 
L 91.93435 142.117208 
L 93.195426 142.599866 
L 94.22115 142.71709 
L 96.101195 143.078568 
L 104.565579 142.918974 
L 109.049102 142.435392 
L 109.562856 142.005965 
L 110.826218 141.779623 
L 112.711081 142.251426 
L 113.181578 142.706671 
L 115.021592 142.731338 
L 116.434841 142.420174 
L 116.900003 142.456276 
L 117.088899 142.096454 
L 117.468474 142.340173 
L 117.469141 142.227392 
L 119.156709 142.156556 
L 120.417785 142.608121 
L 121.44351 142.726614 
L 123.323554 143.089368 
L 131.787938 142.926405 
L 138.048577 142.182495 
L 139.93344 142.585943 
L 140.403938 143.051891 
L 140.770419 142.565197 
L 142.243951 142.563251 
L 143.951501 142.696003 
L 144.122362 142.212422 
L 144.311258 142.230069 
L 144.595269 142.425149 
L 144.6915 142.206989 
L 146.379069 142.094505 
L 147.640144 142.465744 
L 150.545913 142.848593 
L 159.010298 142.482991 
L 163.49382 142.025039 
L 167.155799 142.457508 
L 167.626297 142.931064 
L 167.992778 142.905619 
L 171.344722 143.007261 
L 171.533618 142.579724 
L 171.843027 142.822506 
L 171.913859 142.730509 
L 173.601428 142.705323 
L 174.862504 143.157389 
L 177.618754 143.129555 
L 177.768273 143.530723 
L 178.882117 143.065265 
L 184.78504 142.965451 
L 194.378159 143.052222 
L 194.848656 143.514195 
L 196.68867 143.490746 
L 198.567081 143.529323 
L 198.755977 143.039057 
L 199.136219 142.642202 
L 200.823787 142.636915 
L 202.084863 143.096794 
L 204.327359 143.103451 
L 204.841113 143.150366 
L 204.990632 143.572423 
L 206.104476 143.567913 
L 212.0074 143.190723 
L 221.600518 143.296384 
L 222.071016 143.79318 
L 222.437497 143.857643 
L 225.78944 143.856607 
L 225.978336 143.496929 
L 226.262347 143.262913 
L 226.287746 143.308325 
L 226.357911 143.368273 
L 226.358578 143.236828 
L 228.046147 143.269095 
L 229.307223 143.707815 
L 231.549719 143.499398 
L 232.063473 143.583118 
L 232.212992 144.001564 
L 233.326835 143.9966 
L 238.935458 144.221621 
L 239.229759 143.859545 
L 248.822878 143.935604 
L 249.293375 144.270325 
L 249.659856 144.155496 
L 253.484707 143.885999 
L 253.580938 143.249147 
L 254.288556 143.061326 
L 255.268506 143.100452 
L 256.529582 143.541964 
L 259.285832 143.350282 
L 259.435351 143.634223 
L 260.549195 143.52459 
L 264.744569 143.567572 
L 266.452118 142.961556 
L 266.622979 142.877528 
L 266.811875 142.570641 
L 271.166487 142.738127 
L 276.515735 143.12768 
L 276.882216 142.661029 
L 281.510915 142.877792 
L 282.490866 142.603253 
L 283.751941 143.027918 
L 286.508192 142.984076 
L 286.65771 143.340642 
L 287.771554 143.309315 
L 293.380177 142.687701 
L 293.674478 142.667722 
L 293.845339 142.515989 
L 294.034235 142.058147 
L 294.41381 142.101912 
L 307.929425 142.049134 
L 308.025656 141.068734 
L 308.733274 141.006887 
L 310.974301 141.484986 
L 313.730551 141.463896 
L 314.993914 141.241816 
L 316.878776 141.63592 
L 317.349274 142.01094 
L 317.715755 141.929404 
L 319.189287 141.921628 
L 320.602536 142.049137 
L 320.896837 141.652232 
L 321.256594 141.57423 
L 321.636169 141.2047 
L 325.611205 141.225329 
L 327.49125 141.519285 
L 335.151785 141.591987 
L 335.248016 140.714431 
L 335.955634 140.835041 
L 340.439156 140.691456 
L 340.95291 140.843914 
L 342.216273 140.832984 
L 344.101135 141.322327 
L 344.571633 141.773936 
L 346.411647 141.209788 
L 348.119197 141.33279 
L 348.290058 141.003326 
L 348.478954 141.069702 
L 348.858529 140.972473 
L 350.546764 140.902304 
L 351.80784 141.372817 
L 352.833565 141.576509 
L 354.713609 141.8232 
L 363.177993 141.64001 
L 367.661516 141.032308 
L 368.17527 140.566616 
L 369.438632 140.521101 
L 371.323495 140.808127 
L 371.793993 141.220828 
L 373.634006 141.213262 
L 375.047255 141.44128 
L 375.341556 141.066449 
L 375.701313 141.012505 
L 376.010722 140.829329 
L 376.080888 140.929861 
L 376.081555 140.843555 
L 377.769123 140.785314 
L 379.030199 141.3315 
L 381.935968 141.894231 
L 396.660992 141.767083 
L 398.545854 142.215385 
L 399.016352 142.739448 
L 399.382833 142.266848 
L 400.856366 142.289002 
L 402.563915 142.448684 
L 402.923672 141.680765 
L 403.207683 141.947594 
L 403.233082 141.900497 
L 403.303914 141.829465 
L 404.011532 141.888509 
L 404.991483 141.837032 
L 406.252559 142.269285 
L 409.158328 142.679158 
L 422.106235 142.363755 
L 422.619989 142.204119 
L 425.768214 142.744001 
L 426.238711 143.210793 
L 428.078725 143.219443 
L 430.146032 143.402985 
L 430.430043 143.149498 
L 430.455441 142.78604 
L 430.526274 142.94389 
L 432.213842 142.776903 
L 433.474918 143.225367 
L 434.500643 143.404614 
L 436.380687 143.875671 
L 437.494531 143.882658 
L 443.397454 143.433687 
L 443.568316 143.296078 
L 452.990573 143.458887 
L 453.461071 143.94467 
L 453.827552 144.104623 
L 457.368391 144.223297 
L 457.652402 143.944103 
L 457.677801 143.536583 
L 457.748633 143.61917 
L 458.456251 143.484183 
L 459.436202 143.446822 
L 460.697277 143.937002 
L 461.723002 144.140912 
L 462.939774 143.948328 
L 463.453528 144.020498 
L 463.603047 144.363411 
L 464.71689 144.354031 
L 470.325513 144.551695 
L 470.790675 143.960622 
L 480.212932 144.032861 
L 480.68343 144.510913 
L 481.049911 144.460946 
L 482.523444 144.485115 
L 484.590751 144.057512 
L 484.970993 143.7856 
L 485.678611 143.650337 
L 486.658561 143.61423 
L 487.919637 144.072992 
L 488.945362 144.196391 
L 490.162133 144.011159 
L 490.675887 144.08111 
L 490.825406 144.424037 
L 491.93925 144.397699 
L 497.842173 144.55804 
L 498.013034 144.093856 
L 498.581505 143.969914 
L 507.435292 144.042558 
L 507.90579 144.488605 
L 508.272271 144.434716 
L 512.193352 143.97812 
L 513.88092 143.503299 
L 515.141996 143.965253 
L 517.898247 143.861604 
L 525.42429 143.619903 
L 525.42429 143.619903 
" clip-path="url(#p78efc2ce50)" style="fill: none; stroke: #b85741; stroke-width: 2.5; stroke-linecap: square"/>
   </g>
   <g id="line2d_18">
    <path d="M 68.878835 193.061939 
L 72.348039 197.141515 
L 76.635602 196.920998 
L 77.34322 196.038927 
L 81.826742 195.818409 
L 82.340496 195.487633 
L 83.603859 195.267115 
L 85.488721 195.597892 
L 86.3257 195.597892 
L 87.799233 169.907584 
L 89.506782 169.466549 
L 89.677643 169.246031 
L 89.866539 176.412855 
L 90.15055 176.302597 
L 90.246114 175.310267 
L 91.93435 186.005373 
L 93.195426 185.233562 
L 94.22115 185.013044 
L 96.101195 184.020715 
L 104.565579 184.020715 
L 109.049102 183.689938 
L 109.562856 183.138644 
L 110.826218 181.59502 
L 112.711081 178.948808 
L 113.181578 179.059067 
L 113.548059 179.282341 
L 115.021592 189.095377 
L 116.434841 185.897871 
L 116.729142 186.228648 
L 116.900003 186.890201 
L 117.088899 177.722179 
L 117.37291 175.958038 
L 117.469141 166.255261 
L 119.156709 165.152672 
L 120.417785 164.601378 
L 121.44351 164.711637 
L 123.323554 168.639608 
L 131.787938 165.993396 
L 136.271461 163.457443 
L 136.785215 169.441741 
L 138.048577 168.449411 
L 139.93344 164.149317 
L 140.770419 159.518446 
L 142.243951 158.746634 
L 143.6572 158.856893 
L 143.951501 156.651717 
L 144.122362 156.651717 
L 144.311258 159.408187 
L 144.595269 154.44654 
L 144.6915 148.492563 
L 146.379069 147.389975 
L 147.640144 144.412987 
L 148.665869 137.025645 
L 150.545913 137.135904 
L 163.49382 137.025645 
L 167.155799 125.338209 
L 167.626297 125.448468 
L 167.992778 126.22028 
L 170.87956 126.661315 
L 171.344722 126.110021 
L 171.817628 126.110021 
L 171.913859 152.020846 
L 173.601428 152.351622 
L 174.862504 152.792658 
L 175.888229 152.902916 
L 177.618754 154.115764 
L 177.768273 154.997834 
L 178.882117 155.549128 
L 184.78504 155.659387 
L 194.848656 155.769646 
L 195.215137 141.105222 
L 196.68867 141.325739 
L 198.567081 142.869363 
L 198.755977 145.405316 
L 199.065386 145.733336 
L 199.135552 145.071783 
L 199.136219 148.379548 
L 199.843837 148.489807 
L 200.823787 149.041101 
L 202.084863 158.209123 
L 203.110588 159.863005 
L 204.327359 169.676041 
L 204.841113 169.676041 
L 204.990632 169.124747 
L 206.104476 169.345264 
L 211.713099 152.475663 
L 212.0074 152.365405 
L 221.600518 152.365405 
L 222.437497 157.878346 
L 223.91103 160.604496 
L 225.78944 162.809672 
L 225.978336 167.220025 
L 226.262347 164.794331 
L 226.287746 164.90459 
L 226.358578 162.478896 
L 227.066196 164.684072 
L 228.046147 164.90459 
L 229.307223 167.440543 
L 231.549719 171.630379 
L 232.063473 174.276591 
L 232.212992 170.52779 
L 233.326835 171.630379 
L 238.935458 172.953485 
L 239.229759 176.261249 
L 243.944127 183.75885 
L 249.293375 183.979367 
L 249.659856 183.097297 
L 253.580938 192.800074 
L 259.285832 192.910333 
L 259.435351 174.276591 
L 260.549195 174.276591 
L 264.744569 173.284261 
L 266.157817 171.299602 
L 266.622979 171.409861 
L 266.811875 165.676402 
L 271.166487 163.802002 
L 276.045237 161.486566 
L 276.515735 159.832684 
L 276.882216 157.627507 
L 280.707066 176.371508 
L 280.732464 174.497108 
L 280.803297 159.391649 
L 281.510915 156.855695 
L 283.751941 151.342754 
L 285.994438 149.909389 
L 286.65771 146.270848 
L 287.771554 130.283318 
L 291.966928 127.526847 
L 293.380177 125.652447 
L 293.845339 121.131835 
L 294.034235 119.257435 
L 294.41381 120.139505 
L 298.388846 136.457812 
L 307.929425 132.709012 
L 308.025656 129.07047 
L 308.733274 125.32167 
L 310.974301 125.211411 
L 313.216797 124.329341 
L 313.730551 121.903647 
L 314.993914 124.108823 
L 316.878776 126.424259 
L 317.349274 129.842282 
L 317.715755 130.0628 
L 319.189287 126.975553 
L 320.896837 125.431929 
L 321.067698 126.424259 
L 321.256594 125.762706 
L 321.636169 119.257435 
L 323.324405 105.805858 
L 325.611205 103.821199 
L 327.49125 103.71094 
L 335.151785 91.141433 
L 335.177183 91.251692 
L 335.248016 89.59781 
L 335.955634 88.054186 
L 340.439156 74.712868 
L 340.95291 55.527831 
L 342.216273 52.440584 
L 344.101135 49.794372 
L 344.571633 49.573855 
L 344.938114 50.566184 
L 346.411647 49.132819 
L 347.824896 49.02256 
L 348.119197 47.809713 
L 348.290058 64.899832 
L 348.858529 60.158702 
L 350.546764 60.599737 
L 351.80784 58.835596 
L 352.833565 58.615079 
L 354.713609 64.348538 
L 363.177993 57.402231 
L 367.661516 55.307314 
L 368.17527 57.071455 
L 369.438632 58.835596 
L 371.323495 60.709996 
L 371.793993 63.466467 
L 372.160474 78.682185 
L 373.634006 81.328397 
L 375.047255 83.533574 
L 375.341556 85.077198 
L 375.512417 80.556586 
L 375.701313 79.343738 
L 375.985324 80.446327 
L 376.080888 99.300587 
L 376.081555 97.315928 
L 377.769123 99.851881 
L 379.030199 82.651503 
L 380.055924 85.187456 
L 381.935968 85.297715 
L 394.883875 86.510562 
L 395.397629 90.369621 
L 396.660992 91.692727 
L 398.545854 86.620821 
L 399.016352 90.259363 
L 400.856366 91.47221 
L 402.269614 92.574798 
L 402.563915 80.997621 
L 402.923672 80.666844 
L 403.207683 79.453997 
L 403.303914 82.541245 
L 404.011532 81.548915 
L 404.991483 69.861479 
L 406.252559 81.218139 
L 407.278284 96.103081 
L 409.158328 97.756963 
L 422.106235 97.756963 
L 422.619989 110.105952 
L 425.768214 109.885434 
L 426.238711 110.767505 
L 426.605192 113.08294 
L 428.078725 127.637106 
L 429.491974 146.822142 
L 430.146032 149.801887 
L 430.525607 148.809557 
L 430.526274 150.022405 
L 432.213842 150.242922 
L 433.474918 150.794216 
L 434.500643 152.558358 
L 436.380687 148.037746 
L 437.494531 137.783674 
L 443.397454 137.122122 
L 443.568316 136.791345 
L 452.990573 136.791345 
L 453.461071 145.72231 
L 453.827552 150.022405 
L 455.301084 149.030075 
L 457.368391 149.360852 
L 457.747966 149.140334 
L 457.748633 149.030075 
L 458.456251 149.140334 
L 459.436202 150.46344 
L 460.697277 157.189228 
L 461.723002 160.82777 
L 463.603047 160.938029 
L 464.71689 164.907346 
L 470.325513 164.686829 
L 470.619814 184.092383 
L 470.790675 184.202642 
L 480.212932 179.240994 
L 480.68343 179.130735 
L 481.049911 175.051159 
L 482.523444 175.161418 
L 484.590751 181.666689 
L 484.970993 181.446171 
L 485.678611 182.107724 
L 486.658561 196.882407 
L 487.919637 196.992666 
L 488.945362 195.008007 
L 490.162133 196.000336 
L 490.675887 197.54396 
L 490.825406 196.551631 
L 491.93925 196.551631 
L 497.547872 197.433701 
L 497.842173 206.805702 
L 498.013034 206.805702 
L 498.581505 207.136478 
L 507.435292 207.356996 
L 507.90579 207.136478 
L 512.193352 207.136478 
L 513.88092 207.798031 
L 515.141996 206.474925 
L 517.898247 207.246737 
L 519.161609 207.023463 
L 523.356983 210.441487 
L 525.064533 210.331228 
L 525.42429 210.551745 
L 525.42429 210.551745 
" clip-path="url(#p78efc2ce50)" style="fill: none; stroke: #002f4a; stroke-width: 2.5; stroke-linecap: square"/>
   </g>
   <g id="patch_3">
    <path d="M 46.051562 244.837969 
L 46.051562 23.077969 
" style="fill: none; stroke: #000000; stroke-width: 0.8; stroke-linejoin: miter; stroke-linecap: square"/>
   </g>
   <g id="patch_4">
    <path d="M 548.251563 244.837969 
L 548.251563 23.077969 
" style="fill: none; stroke: #000000; stroke-width: 0.8; stroke-linejoin: miter; stroke-linecap: square"/>
   </g>
   <g id="patch_5">
    <path d="M 46.051562 244.837969 
L 548.251563 244.837969 
" style="fill: none; stroke: #000000; stroke-width: 0.8; stroke-linejoin: miter; stroke-linecap: square"/>
   </g>
   <g id="patch_6">
    <path d="M 46.051562 23.077969 
L 548.251563 23.077969 
" style="fill: none; stroke: #000000; stroke-width: 0.8; stroke-linejoin: miter; stroke-linecap: square"/>
   </g>
   <g id="text_18">
    <!-- Create VM Type 3 (OpenNebula) -->
    <g transform="translate(192.843828 17.077969) scale(0.13 -0.13)">
     <defs>
      <path id="DejaVuSans-43" d="M 4122 4306 
L 4122 3641 
Q 3803 3938 3442 4084 
Q 3081 4231 2675 4231 
Q 1875 4231 1450 3742 
Q 1025 3253 1025 2328 
Q 1025 1406 1450 917 
Q 1875 428 2675 428 
Q 3081 428 3442 575 
Q 3803 722 4122 1019 
L 4122 359 
Q 3791 134 3420 21 
Q 3050 -91 2638 -91 
Q 1578 -91 968 557 
Q 359 1206 359 2328 
Q 359 3453 968 4101 
Q 1578 4750 2638 4750 
Q 3056 4750 3426 4639 
Q 3797 4528 4122 4306 
z
" transform="scale(0.015625)"/>
      <path id="DejaVuSans-72" d="M 2631 2963 
Q 2534 3019 2420 3045 
Q 2306 3072 2169 3072 
Q 1681 3072 1420 2755 
Q 1159 2438 1159 1844 
L 1159 0 
L 581 0 
L 581 3500 
L 1159 3500 
L 1159 2956 
Q 1341 3275 1631 3429 
Q 1922 3584 2338 3584 
Q 2397 3584 2469 3576 
Q 2541 3569 2628 3553 
L 2631 2963 
z
" transform="scale(0.015625)"/>
      <path id="DejaVuSans-56" d="M 1831 0 
L 50 4666 
L 709 4666 
L 2188 738 
L 3669 4666 
L 4325 4666 
L 2547 0 
L 1831 0 
z
" transform="scale(0.015625)"/>
      <path id="DejaVuSans-4d" d="M 628 4666 
L 1569 4666 
L 2759 1491 
L 3956 4666 
L 4897 4666 
L 4897 0 
L 4281 0 
L 4281 4097 
L 3078 897 
L 2444 897 
L 1241 4097 
L 1241 0 
L 628 0 
L 628 4666 
z
" transform="scale(0.015625)"/>
      <path id="DejaVuSans-79" d="M 2059 -325 
Q 1816 -950 1584 -1140 
Q 1353 -1331 966 -1331 
L 506 -1331 
L 506 -850 
L 844 -850 
Q 1081 -850 1212 -737 
Q 1344 -625 1503 -206 
L 1606 56 
L 191 3500 
L 800 3500 
L 1894 763 
L 2988 3500 
L 3597 3500 
L 2059 -325 
z
" transform="scale(0.015625)"/>
      <path id="DejaVuSans-70" d="M 1159 525 
L 1159 -1331 
L 581 -1331 
L 581 3500 
L 1159 3500 
L 1159 2969 
Q 1341 3281 1617 3432 
Q 1894 3584 2278 3584 
Q 2916 3584 3314 3078 
Q 3713 2572 3713 1747 
Q 3713 922 3314 415 
Q 2916 -91 2278 -91 
Q 1894 -91 1617 61 
Q 1341 213 1159 525 
z
M 3116 1747 
Q 3116 2381 2855 2742 
Q 2594 3103 2138 3103 
Q 1681 3103 1420 2742 
Q 1159 2381 1159 1747 
Q 1159 1113 1420 752 
Q 1681 391 2138 391 
Q 2594 391 2855 752 
Q 3116 1113 3116 1747 
z
" transform="scale(0.015625)"/>
      <path id="DejaVuSans-4f" d="M 2522 4238 
Q 1834 4238 1429 3725 
Q 1025 3213 1025 2328 
Q 1025 1447 1429 934 
Q 1834 422 2522 422 
Q 3209 422 3611 934 
Q 4013 1447 4013 2328 
Q 4013 3213 3611 3725 
Q 3209 4238 2522 4238 
z
M 2522 4750 
Q 3503 4750 4090 4092 
Q 4678 3434 4678 2328 
Q 4678 1225 4090 567 
Q 3503 -91 2522 -91 
Q 1538 -91 948 565 
Q 359 1222 359 2328 
Q 359 3434 948 4092 
Q 1538 4750 2522 4750 
z
" transform="scale(0.015625)"/>
      <path id="DejaVuSans-4e" d="M 628 4666 
L 1478 4666 
L 3547 763 
L 3547 4666 
L 4159 4666 
L 4159 0 
L 3309 0 
L 1241 3903 
L 1241 0 
L 628 0 
L 628 4666 
z
" transform="scale(0.015625)"/>
      <path id="DejaVuSans-62" d="M 3116 1747 
Q 3116 2381 2855 2742 
Q 2594 3103 2138 3103 
Q 1681 3103 1420 2742 
Q 1159 2381 1159 1747 
Q 1159 1113 1420 752 
Q 1681 391 2138 391 
Q 2594 391 2855 752 
Q 3116 1113 3116 1747 
z
M 1159 2969 
Q 1341 3281 1617 3432 
Q 1894 3584 2278 3584 
Q 2916 3584 3314 3078 
Q 3713 2572 3713 1747 
Q 3713 922 3314 415 
Q 2916 -91 2278 -91 
Q 1894 -91 1617 61 
Q 1341 213 1159 525 
L 1159 0 
L 581 0 
L 581 4863 
L 1159 4863 
L 1159 2969 
z
" transform="scale(0.015625)"/>
      <path id="DejaVuSans-75" d="M 544 1381 
L 544 3500 
L 1119 3500 
L 1119 1403 
Q 1119 906 1312 657 
Q 1506 409 1894 409 
Q 2359 409 2629 706 
Q 2900 1003 2900 1516 
L 2900 3500 
L 3475 3500 
L 3475 0 
L 2900 0 
L 2900 538 
Q 2691 219 2414 64 
Q 2138 -91 1772 -91 
Q 1169 -91 856 284 
Q 544 659 544 1381 
z
M 1991 3584 
L 1991 3584 
z
" transform="scale(0.015625)"/>
     </defs>
     <use xlink:href="#DejaVuSans-43"/>
     <use xlink:href="#DejaVuSans-72" x="69.824219"/>
     <use xlink:href="#DejaVuSans-65" x="108.6875"/>
     <use xlink:href="#DejaVuSans-61" x="170.210938"/>
     <use xlink:href="#DejaVuSans-74" x="231.490234"/>
     <use xlink:href="#DejaVuSans-65" x="270.699219"/>
     <use xlink:href="#DejaVuSans-20" x="332.222656"/>
     <use xlink:href="#DejaVuSans-56" x="364.009766"/>
     <use xlink:href="#DejaVuSans-4d" x="432.417969"/>
     <use xlink:href="#DejaVuSans-20" x="518.697266"/>
     <use xlink:href="#DejaVuSans-54" x="550.484375"/>
     <use xlink:href="#DejaVuSans-79" x="595.943359"/>
     <use xlink:href="#DejaVuSans-70" x="655.123047"/>
     <use xlink:href="#DejaVuSans-65" x="718.599609"/>
     <use xlink:href="#DejaVuSans-20" x="780.123047"/>
     <use xlink:href="#DejaVuSans-33" x="811.910156"/>
     <use xlink:href="#DejaVuSans-20" x="875.533203"/>
     <use xlink:href="#DejaVuSans-28" x="907.320312"/>
     <use xlink:href="#DejaVuSans-4f" x="946.333984"/>
     <use xlink:href="#DejaVuSans-70" x="1025.044922"/>
     <use xlink:href="#DejaVuSans-65" x="1088.521484"/>
     <use xlink:href="#DejaVuSans-6e" x="1150.044922"/>
     <use xlink:href="#DejaVuSans-4e" x="1213.423828"/>
     <use xlink:href="#DejaVuSans-65" x="1288.228516"/>
     <use xlink:href="#DejaVuSans-62" x="1349.751953"/>
     <use xlink:href="#DejaVuSans-75" x="1413.228516"/>
     <use xlink:href="#DejaVuSans-6c" x="1476.607422"/>
     <use xlink:href="#DejaVuSans-61" x="1504.390625"/>
     <use xlink:href="#DejaVuSans-29" x="1565.669922"/>
    </g>
   </g>
   <g id="legend_1">
    <g id="patch_7">
     <path d="M 471.217188 85.519219 
L 539.851563 85.519219 
Q 542.251563 85.519219 542.251563 83.119219 
L 542.251563 31.477969 
Q 542.251563 29.077969 539.851563 29.077969 
L 471.217188 29.077969 
Q 468.817188 29.077969 468.817188 31.477969 
L 468.817188 83.119219 
Q 468.817188 85.519219 471.217188 85.519219 
z
" style="fill: #ffffff; opacity: 0.8; stroke: #cccccc; stroke-linejoin: miter"/>
    </g>
    <g id="line2d_19">
     <path d="M 473.617188 38.796094 
L 485.617188 38.796094 
L 497.617188 38.796094 
" style="fill: none; stroke: #009384; stroke-width: 2.5; stroke-linecap: square"/>
    </g>
    <g id="text_19">
     <!--  CPU -->
     <g transform="translate(507.217188 42.996094) scale(0.12 -0.12)">
      <defs>
       <path id="DejaVuSans-50" d="M 1259 4147 
L 1259 2394 
L 2053 2394 
Q 2494 2394 2734 2622 
Q 2975 2850 2975 3272 
Q 2975 3691 2734 3919 
Q 2494 4147 2053 4147 
L 1259 4147 
z
M 628 4666 
L 2053 4666 
Q 2838 4666 3239 4311 
Q 3641 3956 3641 3272 
Q 3641 2581 3239 2228 
Q 2838 1875 2053 1875 
L 1259 1875 
L 1259 0 
L 628 0 
L 628 4666 
z
" transform="scale(0.015625)"/>
      </defs>
      <use xlink:href="#DejaVuSans-20"/>
      <use xlink:href="#DejaVuSans-43" x="31.787109"/>
      <use xlink:href="#DejaVuSans-50" x="101.611328"/>
      <use xlink:href="#DejaVuSans-55" x="161.914062"/>
     </g>
    </g>
    <g id="line2d_20">
     <path d="M 473.617188 56.409844 
L 485.617188 56.409844 
L 497.617188 56.409844 
" style="fill: none; stroke: #b85741; stroke-width: 2.5; stroke-linecap: square"/>
    </g>
    <g id="text_20">
     <!--  RAM -->
     <g transform="translate(507.217188 60.609844) scale(0.12 -0.12)">
      <defs>
       <path id="DejaVuSans-52" d="M 2841 2188 
Q 3044 2119 3236 1894 
Q 3428 1669 3622 1275 
L 4263 0 
L 3584 0 
L 2988 1197 
Q 2756 1666 2539 1819 
Q 2322 1972 1947 1972 
L 1259 1972 
L 1259 0 
L 628 0 
L 628 4666 
L 2053 4666 
Q 2853 4666 3247 4331 
Q 3641 3997 3641 3322 
Q 3641 2881 3436 2590 
Q 3231 2300 2841 2188 
z
M 1259 4147 
L 1259 2491 
L 2053 2491 
Q 2509 2491 2742 2702 
Q 2975 2913 2975 3322 
Q 2975 3731 2742 3939 
Q 2509 4147 2053 4147 
L 1259 4147 
z
" transform="scale(0.015625)"/>
       <path id="DejaVuSans-41" d="M 2188 4044 
L 1331 1722 
L 3047 1722 
L 2188 4044 
z
M 1831 4666 
L 2547 4666 
L 4325 0 
L 3669 0 
L 3244 1197 
L 1141 1197 
L 716 0 
L 50 0 
L 1831 4666 
z
" transform="scale(0.015625)"/>
      </defs>
      <use xlink:href="#DejaVuSans-20"/>
      <use xlink:href="#DejaVuSans-52" x="31.787109"/>
      <use xlink:href="#DejaVuSans-41" x="97.269531"/>
      <use xlink:href="#DejaVuSans-4d" x="165.677734"/>
     </g>
    </g>
    <g id="line2d_21">
     <path d="M 473.617188 74.023594 
L 485.617188 74.023594 
L 497.617188 74.023594 
" style="fill: none; stroke: #002f4a; stroke-width: 2.5; stroke-linecap: square"/>
    </g>
    <g id="text_21">
     <!--  Disk -->
     <g transform="translate(507.217188 78.223594) scale(0.12 -0.12)">
      <defs>
       <path id="DejaVuSans-44" d="M 1259 4147 
L 1259 519 
L 2022 519 
Q 2988 519 3436 956 
Q 3884 1394 3884 2338 
Q 3884 3275 3436 3711 
Q 2988 4147 2022 4147 
L 1259 4147 
z
M 628 4666 
L 1925 4666 
Q 3281 4666 3915 4102 
Q 4550 3538 4550 2338 
Q 4550 1131 3912 565 
Q 3275 0 1925 0 
L 628 0 
L 628 4666 
z
" transform="scale(0.015625)"/>
       <path id="DejaVuSans-6b" d="M 581 4863 
L 1159 4863 
L 1159 1991 
L 2875 3500 
L 3609 3500 
L 1753 1863 
L 3688 0 
L 2938 0 
L 1159 1709 
L 1159 0 
L 581 0 
L 581 4863 
z
" transform="scale(0.015625)"/>
      </defs>
      <use xlink:href="#DejaVuSans-20"/>
      <use xlink:href="#DejaVuSans-44" x="31.787109"/>
      <use xlink:href="#DejaVuSans-69" x="108.789062"/>
      <use xlink:href="#DejaVuSans-73" x="136.572266"/>
      <use xlink:href="#DejaVuSans-6b" x="188.671875"/>
     </g>
    </g>
   </g>
  </g>
 </g>
 <defs>
  <clipPath id="p78efc2ce50">
   <rect x="46.051562" y="23.077969" width="502.2" height="221.76"/>
  </clipPath>
 </defs>
</svg>
