<?xml version="1.0" encoding="utf-8" standalone="no"?>
<!DOCTYPE svg PUBLIC "-//W3C//DTD SVG 1.1//EN"
  "http://www.w3.org/Graphics/SVG/1.1/DTD/svg11.dtd">
<svg xmlns:xlink="http://www.w3.org/1999/xlink" width="555.451562pt" height="287.233281pt" viewBox="0 0 555.451562 287.233281" xmlns="http://www.w3.org/2000/svg" version="1.1">
 <metadata>
  <rdf:RDF xmlns:dc="http://purl.org/dc/elements/1.1/" xmlns:cc="http://creativecommons.org/ns#" xmlns:rdf="http://www.w3.org/1999/02/22-rdf-syntax-ns#">
   <cc:Work>
    <dc:type rdf:resource="http://purl.org/dc/dcmitype/StillImage"/>
    <dc:date>2024-05-21T10:08:03.389695</dc:date>
    <dc:format>image/svg+xml</dc:format>
    <dc:creator>
     <cc:Agent>
      <dc:title>Matplotlib v3.8.4, https://matplotlib.org/</dc:title>
     </cc:Agent>
    </dc:creator>
   </cc:Work>
  </rdf:RDF>
 </metadata>
 <defs>
  <style type="text/css">*{stroke-linejoin: round; stroke-linecap: butt}</style>
 </defs>
 <g id="figure_1">
  <g id="patch_1">
   <path d="M 0 287.233281 
L 555.451562 287.233281 
L 555.451562 0 
L 0 0 
z
" style="fill: #f3f7f8"/>
  </g>
  <g id="axes_1">
   <g id="patch_2">
    <path d="M 46.051562 244.837969 
L 548.251563 244.837969 
L 548.251563 23.077969 
L 46.051562 23.077969 
z
" style="fill: #ffffff"/>
   </g>
   <g id="matplotlib.axis_1">
    <g id="xtick_1">
     <g id="line2d_1">
      <defs>
       <path id="me37a0c2375" d="M 0 0 
L 0 3.5 
" style="stroke: #000000; stroke-width: 0.8"/>
      </defs>
      <g>
       <use xlink:href="#me37a0c2375" x="52.819019" y="244.837969" style="stroke: #000000; stroke-width: 0.8"/>
      </g>
     </g>
     <g id="text_1">
      <!-- −5 -->
      <g transform="translate(43.973707 260.956094) scale(0.12 -0.12)">
       <defs>
        <path id="DejaVuSans-2212" d="M 678 2272 
L 4684 2272 
L 4684 1741 
L 678 1741 
L 678 2272 
z
" transform="scale(0.015625)"/>
        <path id="DejaVuSans-35" d="M 691 4666 
L 3169 4666 
L 3169 4134 
L 1269 4134 
L 1269 2991 
Q 1406 3038 1543 3061 
Q 1681 3084 1819 3084 
Q 2600 3084 3056 2656 
Q 3513 2228 3513 1497 
Q 3513 744 3044 326 
Q 2575 -91 1722 -91 
Q 1428 -91 1123 -41 
Q 819 9 494 109 
L 494 744 
Q 775 591 1075 516 
Q 1375 441 1709 441 
Q 2250 441 2565 725 
Q 2881 1009 2881 1497 
Q 2881 1984 2565 2268 
Q 2250 2553 1709 2553 
Q 1456 2553 1204 2497 
Q 953 2441 691 2322 
L 691 4666 
z
" transform="scale(0.015625)"/>
       </defs>
       <use xlink:href="#DejaVuSans-2212"/>
       <use xlink:href="#DejaVuSans-35" x="83.789062"/>
      </g>
     </g>
    </g>
    <g id="xtick_2">
     <g id="line2d_2">
      <g>
       <use xlink:href="#me37a0c2375" x="128.929149" y="244.837969" style="stroke: #000000; stroke-width: 0.8"/>
      </g>
     </g>
     <g id="text_2">
      <!-- 0 -->
      <g transform="translate(125.111649 260.956094) scale(0.12 -0.12)">
       <defs>
        <path id="DejaVuSans-30" d="M 2034 4250 
Q 1547 4250 1301 3770 
Q 1056 3291 1056 2328 
Q 1056 1369 1301 889 
Q 1547 409 2034 409 
Q 2525 409 2770 889 
Q 3016 1369 3016 2328 
Q 3016 3291 2770 3770 
Q 2525 4250 2034 4250 
z
M 2034 4750 
Q 2819 4750 3233 4129 
Q 3647 3509 3647 2328 
Q 3647 1150 3233 529 
Q 2819 -91 2034 -91 
Q 1250 -91 836 529 
Q 422 1150 422 2328 
Q 422 3509 836 4129 
Q 1250 4750 2034 4750 
z
" transform="scale(0.015625)"/>
       </defs>
       <use xlink:href="#DejaVuSans-30"/>
      </g>
     </g>
    </g>
    <g id="xtick_3">
     <g id="line2d_3">
      <g>
       <use xlink:href="#me37a0c2375" x="205.039278" y="244.837969" style="stroke: #000000; stroke-width: 0.8"/>
      </g>
     </g>
     <g id="text_3">
      <!-- 5 -->
      <g transform="translate(201.221778 260.956094) scale(0.12 -0.12)">
       <use xlink:href="#DejaVuSans-35"/>
      </g>
     </g>
    </g>
    <g id="xtick_4">
     <g id="line2d_4">
      <g>
       <use xlink:href="#me37a0c2375" x="281.149408" y="244.837969" style="stroke: #000000; stroke-width: 0.8"/>
      </g>
     </g>
     <g id="text_4">
      <!-- 10 -->
      <g transform="translate(273.514408 260.956094) scale(0.12 -0.12)">
       <defs>
        <path id="DejaVuSans-31" d="M 794 531 
L 1825 531 
L 1825 4091 
L 703 3866 
L 703 4441 
L 1819 4666 
L 2450 4666 
L 2450 531 
L 3481 531 
L 3481 0 
L 794 0 
L 794 531 
z
" transform="scale(0.015625)"/>
       </defs>
       <use xlink:href="#DejaVuSans-31"/>
       <use xlink:href="#DejaVuSans-30" x="63.623047"/>
      </g>
     </g>
    </g>
    <g id="xtick_5">
     <g id="line2d_5">
      <g>
       <use xlink:href="#me37a0c2375" x="357.259537" y="244.837969" style="stroke: #000000; stroke-width: 0.8"/>
      </g>
     </g>
     <g id="text_5">
      <!-- 15 -->
      <g transform="translate(349.624537 260.956094) scale(0.12 -0.12)">
       <use xlink:href="#DejaVuSans-31"/>
       <use xlink:href="#DejaVuSans-35" x="63.623047"/>
      </g>
     </g>
    </g>
    <g id="xtick_6">
     <g id="line2d_6">
      <g>
       <use xlink:href="#me37a0c2375" x="433.369667" y="244.837969" style="stroke: #000000; stroke-width: 0.8"/>
      </g>
     </g>
     <g id="text_6">
      <!-- 20 -->
      <g transform="translate(425.734667 260.956094) scale(0.12 -0.12)">
       <defs>
        <path id="DejaVuSans-32" d="M 1228 531 
L 3431 531 
L 3431 0 
L 469 0 
L 469 531 
Q 828 903 1448 1529 
Q 2069 2156 2228 2338 
Q 2531 2678 2651 2914 
Q 2772 3150 2772 3378 
Q 2772 3750 2511 3984 
Q 2250 4219 1831 4219 
Q 1534 4219 1204 4116 
Q 875 4013 500 3803 
L 500 4441 
Q 881 4594 1212 4672 
Q 1544 4750 1819 4750 
Q 2544 4750 2975 4387 
Q 3406 4025 3406 3419 
Q 3406 3131 3298 2873 
Q 3191 2616 2906 2266 
Q 2828 2175 2409 1742 
Q 1991 1309 1228 531 
z
" transform="scale(0.015625)"/>
       </defs>
       <use xlink:href="#DejaVuSans-32"/>
       <use xlink:href="#DejaVuSans-30" x="63.623047"/>
      </g>
     </g>
    </g>
    <g id="xtick_7">
     <g id="line2d_7">
      <g>
       <use xlink:href="#me37a0c2375" x="509.479796" y="244.837969" style="stroke: #000000; stroke-width: 0.8"/>
      </g>
     </g>
     <g id="text_7">
      <!-- 25 -->
      <g transform="translate(501.844796 260.956094) scale(0.12 -0.12)">
       <use xlink:href="#DejaVuSans-32"/>
       <use xlink:href="#DejaVuSans-35" x="63.623047"/>
      </g>
     </g>
    </g>
    <g id="text_8">
     <!-- Time (s) -->
     <g transform="translate(270.723984 277.329687) scale(0.13 -0.13)">
      <defs>
       <path id="DejaVuSans-54" d="M -19 4666 
L 3928 4666 
L 3928 4134 
L 2272 4134 
L 2272 0 
L 1638 0 
L 1638 4134 
L -19 4134 
L -19 4666 
z
" transform="scale(0.015625)"/>
       <path id="DejaVuSans-69" d="M 603 3500 
L 1178 3500 
L 1178 0 
L 603 0 
L 603 3500 
z
M 603 4863 
L 1178 4863 
L 1178 4134 
L 603 4134 
L 603 4863 
z
" transform="scale(0.015625)"/>
       <path id="DejaVuSans-6d" d="M 3328 2828 
Q 3544 3216 3844 3400 
Q 4144 3584 4550 3584 
Q 5097 3584 5394 3201 
Q 5691 2819 5691 2113 
L 5691 0 
L 5113 0 
L 5113 2094 
Q 5113 2597 4934 2840 
Q 4756 3084 4391 3084 
Q 3944 3084 3684 2787 
Q 3425 2491 3425 1978 
L 3425 0 
L 2847 0 
L 2847 2094 
Q 2847 2600 2669 2842 
Q 2491 3084 2119 3084 
Q 1678 3084 1418 2786 
Q 1159 2488 1159 1978 
L 1159 0 
L 581 0 
L 581 3500 
L 1159 3500 
L 1159 2956 
Q 1356 3278 1631 3431 
Q 1906 3584 2284 3584 
Q 2666 3584 2933 3390 
Q 3200 3197 3328 2828 
z
" transform="scale(0.015625)"/>
       <path id="DejaVuSans-65" d="M 3597 1894 
L 3597 1613 
L 953 1613 
Q 991 1019 1311 708 
Q 1631 397 2203 397 
Q 2534 397 2845 478 
Q 3156 559 3463 722 
L 3463 178 
Q 3153 47 2828 -22 
Q 2503 -91 2169 -91 
Q 1331 -91 842 396 
Q 353 884 353 1716 
Q 353 2575 817 3079 
Q 1281 3584 2069 3584 
Q 2775 3584 3186 3129 
Q 3597 2675 3597 1894 
z
M 3022 2063 
Q 3016 2534 2758 2815 
Q 2500 3097 2075 3097 
Q 1594 3097 1305 2825 
Q 1016 2553 972 2059 
L 3022 2063 
z
" transform="scale(0.015625)"/>
       <path id="DejaVuSans-20" transform="scale(0.015625)"/>
       <path id="DejaVuSans-28" d="M 1984 4856 
Q 1566 4138 1362 3434 
Q 1159 2731 1159 2009 
Q 1159 1288 1364 580 
Q 1569 -128 1984 -844 
L 1484 -844 
Q 1016 -109 783 600 
Q 550 1309 550 2009 
Q 550 2706 781 3412 
Q 1013 4119 1484 4856 
L 1984 4856 
z
" transform="scale(0.015625)"/>
       <path id="DejaVuSans-73" d="M 2834 3397 
L 2834 2853 
Q 2591 2978 2328 3040 
Q 2066 3103 1784 3103 
Q 1356 3103 1142 2972 
Q 928 2841 928 2578 
Q 928 2378 1081 2264 
Q 1234 2150 1697 2047 
L 1894 2003 
Q 2506 1872 2764 1633 
Q 3022 1394 3022 966 
Q 3022 478 2636 193 
Q 2250 -91 1575 -91 
Q 1294 -91 989 -36 
Q 684 19 347 128 
L 347 722 
Q 666 556 975 473 
Q 1284 391 1588 391 
Q 1994 391 2212 530 
Q 2431 669 2431 922 
Q 2431 1156 2273 1281 
Q 2116 1406 1581 1522 
L 1381 1569 
Q 847 1681 609 1914 
Q 372 2147 372 2553 
Q 372 3047 722 3315 
Q 1072 3584 1716 3584 
Q 2034 3584 2315 3537 
Q 2597 3491 2834 3397 
z
" transform="scale(0.015625)"/>
       <path id="DejaVuSans-29" d="M 513 4856 
L 1013 4856 
Q 1481 4119 1714 3412 
Q 1947 2706 1947 2009 
Q 1947 1309 1714 600 
Q 1481 -109 1013 -844 
L 513 -844 
Q 928 -128 1133 580 
Q 1338 1288 1338 2009 
Q 1338 2731 1133 3434 
Q 928 4138 513 4856 
z
" transform="scale(0.015625)"/>
      </defs>
      <use xlink:href="#DejaVuSans-54"/>
      <use xlink:href="#DejaVuSans-69" x="57.958984"/>
      <use xlink:href="#DejaVuSans-6d" x="85.742188"/>
      <use xlink:href="#DejaVuSans-65" x="183.154297"/>
      <use xlink:href="#DejaVuSans-20" x="244.677734"/>
      <use xlink:href="#DejaVuSans-28" x="276.464844"/>
      <use xlink:href="#DejaVuSans-73" x="315.478516"/>
      <use xlink:href="#DejaVuSans-29" x="367.578125"/>
     </g>
    </g>
   </g>
   <g id="matplotlib.axis_2">
    <g id="ytick_1">
     <g id="line2d_8">
      <defs>
       <path id="m6b9104c4d0" d="M 0 0 
L -3.5 0 
" style="stroke: #000000; stroke-width: 0.8"/>
      </defs>
      <g>
       <use xlink:href="#m6b9104c4d0" x="46.051562" y="235.446098" style="stroke: #000000; stroke-width: 0.8"/>
      </g>
     </g>
     <g id="text_9">
      <!-- 2 -->
      <g transform="translate(31.416562 240.005161) scale(0.12 -0.12)">
       <use xlink:href="#DejaVuSans-32"/>
      </g>
     </g>
    </g>
    <g id="ytick_2">
     <g id="line2d_9">
      <g>
       <use xlink:href="#m6b9104c4d0" x="46.051562" y="204.82841" style="stroke: #000000; stroke-width: 0.8"/>
      </g>
     </g>
     <g id="text_10">
      <!-- 4 -->
      <g transform="translate(31.416562 209.387473) scale(0.12 -0.12)">
       <defs>
        <path id="DejaVuSans-34" d="M 2419 4116 
L 825 1625 
L 2419 1625 
L 2419 4116 
z
M 2253 4666 
L 3047 4666 
L 3047 1625 
L 3713 1625 
L 3713 1100 
L 3047 1100 
L 3047 0 
L 2419 0 
L 2419 1100 
L 313 1100 
L 313 1709 
L 2253 4666 
z
" transform="scale(0.015625)"/>
       </defs>
       <use xlink:href="#DejaVuSans-34"/>
      </g>
     </g>
    </g>
    <g id="ytick_3">
     <g id="line2d_10">
      <g>
       <use xlink:href="#m6b9104c4d0" x="46.051562" y="174.210722" style="stroke: #000000; stroke-width: 0.8"/>
      </g>
     </g>
     <g id="text_11">
      <!-- 6 -->
      <g transform="translate(31.416562 178.769785) scale(0.12 -0.12)">
       <defs>
        <path id="DejaVuSans-36" d="M 2113 2584 
Q 1688 2584 1439 2293 
Q 1191 2003 1191 1497 
Q 1191 994 1439 701 
Q 1688 409 2113 409 
Q 2538 409 2786 701 
Q 3034 994 3034 1497 
Q 3034 2003 2786 2293 
Q 2538 2584 2113 2584 
z
M 3366 4563 
L 3366 3988 
Q 3128 4100 2886 4159 
Q 2644 4219 2406 4219 
Q 1781 4219 1451 3797 
Q 1122 3375 1075 2522 
Q 1259 2794 1537 2939 
Q 1816 3084 2150 3084 
Q 2853 3084 3261 2657 
Q 3669 2231 3669 1497 
Q 3669 778 3244 343 
Q 2819 -91 2113 -91 
Q 1303 -91 875 529 
Q 447 1150 447 2328 
Q 447 3434 972 4092 
Q 1497 4750 2381 4750 
Q 2619 4750 2861 4703 
Q 3103 4656 3366 4563 
z
" transform="scale(0.015625)"/>
       </defs>
       <use xlink:href="#DejaVuSans-36"/>
      </g>
     </g>
    </g>
    <g id="ytick_4">
     <g id="line2d_11">
      <g>
       <use xlink:href="#m6b9104c4d0" x="46.051562" y="143.593034" style="stroke: #000000; stroke-width: 0.8"/>
      </g>
     </g>
     <g id="text_12">
      <!-- 8 -->
      <g transform="translate(31.416562 148.152096) scale(0.12 -0.12)">
       <defs>
        <path id="DejaVuSans-38" d="M 2034 2216 
Q 1584 2216 1326 1975 
Q 1069 1734 1069 1313 
Q 1069 891 1326 650 
Q 1584 409 2034 409 
Q 2484 409 2743 651 
Q 3003 894 3003 1313 
Q 3003 1734 2745 1975 
Q 2488 2216 2034 2216 
z
M 1403 2484 
Q 997 2584 770 2862 
Q 544 3141 544 3541 
Q 544 4100 942 4425 
Q 1341 4750 2034 4750 
Q 2731 4750 3128 4425 
Q 3525 4100 3525 3541 
Q 3525 3141 3298 2862 
Q 3072 2584 2669 2484 
Q 3125 2378 3379 2068 
Q 3634 1759 3634 1313 
Q 3634 634 3220 271 
Q 2806 -91 2034 -91 
Q 1263 -91 848 271 
Q 434 634 434 1313 
Q 434 1759 690 2068 
Q 947 2378 1403 2484 
z
M 1172 3481 
Q 1172 3119 1398 2916 
Q 1625 2713 2034 2713 
Q 2441 2713 2670 2916 
Q 2900 3119 2900 3481 
Q 2900 3844 2670 4047 
Q 2441 4250 2034 4250 
Q 1625 4250 1398 4047 
Q 1172 3844 1172 3481 
z
" transform="scale(0.015625)"/>
       </defs>
       <use xlink:href="#DejaVuSans-38"/>
      </g>
     </g>
    </g>
    <g id="ytick_5">
     <g id="line2d_12">
      <g>
       <use xlink:href="#m6b9104c4d0" x="46.051562" y="112.975346" style="stroke: #000000; stroke-width: 0.8"/>
      </g>
     </g>
     <g id="text_13">
      <!-- 10 -->
      <g transform="translate(23.781562 117.534408) scale(0.12 -0.12)">
       <use xlink:href="#DejaVuSans-31"/>
       <use xlink:href="#DejaVuSans-30" x="63.623047"/>
      </g>
     </g>
    </g>
    <g id="ytick_6">
     <g id="line2d_13">
      <g>
       <use xlink:href="#m6b9104c4d0" x="46.051562" y="82.357658" style="stroke: #000000; stroke-width: 0.8"/>
      </g>
     </g>
     <g id="text_14">
      <!-- 12 -->
      <g transform="translate(23.781562 86.91672) scale(0.12 -0.12)">
       <use xlink:href="#DejaVuSans-31"/>
       <use xlink:href="#DejaVuSans-32" x="63.623047"/>
      </g>
     </g>
    </g>
    <g id="ytick_7">
     <g id="line2d_14">
      <g>
       <use xlink:href="#m6b9104c4d0" x="46.051562" y="51.73997" style="stroke: #000000; stroke-width: 0.8"/>
      </g>
     </g>
     <g id="text_15">
      <!-- 14 -->
      <g transform="translate(23.781562 56.299032) scale(0.12 -0.12)">
       <use xlink:href="#DejaVuSans-31"/>
       <use xlink:href="#DejaVuSans-34" x="63.623047"/>
      </g>
     </g>
    </g>
    <g id="text_16">
     <!-- Utilization (%) -->
     <g transform="translate(17.077969 179.839844) rotate(-90) scale(0.13 -0.13)">
      <defs>
       <path id="DejaVuSans-55" d="M 556 4666 
L 1191 4666 
L 1191 1831 
Q 1191 1081 1462 751 
Q 1734 422 2344 422 
Q 2950 422 3222 751 
Q 3494 1081 3494 1831 
L 3494 4666 
L 4128 4666 
L 4128 1753 
Q 4128 841 3676 375 
Q 3225 -91 2344 -91 
Q 1459 -91 1007 375 
Q 556 841 556 1753 
L 556 4666 
z
" transform="scale(0.015625)"/>
       <path id="DejaVuSans-74" d="M 1172 4494 
L 1172 3500 
L 2356 3500 
L 2356 3053 
L 1172 3053 
L 1172 1153 
Q 1172 725 1289 603 
Q 1406 481 1766 481 
L 2356 481 
L 2356 0 
L 1766 0 
Q 1100 0 847 248 
Q 594 497 594 1153 
L 594 3053 
L 172 3053 
L 172 3500 
L 594 3500 
L 594 4494 
L 1172 4494 
z
" transform="scale(0.015625)"/>
       <path id="DejaVuSans-6c" d="M 603 4863 
L 1178 4863 
L 1178 0 
L 603 0 
L 603 4863 
z
" transform="scale(0.015625)"/>
       <path id="DejaVuSans-7a" d="M 353 3500 
L 3084 3500 
L 3084 2975 
L 922 459 
L 3084 459 
L 3084 0 
L 275 0 
L 275 525 
L 2438 3041 
L 353 3041 
L 353 3500 
z
" transform="scale(0.015625)"/>
       <path id="DejaVuSans-61" d="M 2194 1759 
Q 1497 1759 1228 1600 
Q 959 1441 959 1056 
Q 959 750 1161 570 
Q 1363 391 1709 391 
Q 2188 391 2477 730 
Q 2766 1069 2766 1631 
L 2766 1759 
L 2194 1759 
z
M 3341 1997 
L 3341 0 
L 2766 0 
L 2766 531 
Q 2569 213 2275 61 
Q 1981 -91 1556 -91 
Q 1019 -91 701 211 
Q 384 513 384 1019 
Q 384 1609 779 1909 
Q 1175 2209 1959 2209 
L 2766 2209 
L 2766 2266 
Q 2766 2663 2505 2880 
Q 2244 3097 1772 3097 
Q 1472 3097 1187 3025 
Q 903 2953 641 2809 
L 641 3341 
Q 956 3463 1253 3523 
Q 1550 3584 1831 3584 
Q 2591 3584 2966 3190 
Q 3341 2797 3341 1997 
z
" transform="scale(0.015625)"/>
       <path id="DejaVuSans-6f" d="M 1959 3097 
Q 1497 3097 1228 2736 
Q 959 2375 959 1747 
Q 959 1119 1226 758 
Q 1494 397 1959 397 
Q 2419 397 2687 759 
Q 2956 1122 2956 1747 
Q 2956 2369 2687 2733 
Q 2419 3097 1959 3097 
z
M 1959 3584 
Q 2709 3584 3137 3096 
Q 3566 2609 3566 1747 
Q 3566 888 3137 398 
Q 2709 -91 1959 -91 
Q 1206 -91 779 398 
Q 353 888 353 1747 
Q 353 2609 779 3096 
Q 1206 3584 1959 3584 
z
" transform="scale(0.015625)"/>
       <path id="DejaVuSans-6e" d="M 3513 2113 
L 3513 0 
L 2938 0 
L 2938 2094 
Q 2938 2591 2744 2837 
Q 2550 3084 2163 3084 
Q 1697 3084 1428 2787 
Q 1159 2491 1159 1978 
L 1159 0 
L 581 0 
L 581 3500 
L 1159 3500 
L 1159 2956 
Q 1366 3272 1645 3428 
Q 1925 3584 2291 3584 
Q 2894 3584 3203 3211 
Q 3513 2838 3513 2113 
z
" transform="scale(0.015625)"/>
       <path id="DejaVuSans-25" d="M 4653 2053 
Q 4381 2053 4226 1822 
Q 4072 1591 4072 1178 
Q 4072 772 4226 539 
Q 4381 306 4653 306 
Q 4919 306 5073 539 
Q 5228 772 5228 1178 
Q 5228 1588 5073 1820 
Q 4919 2053 4653 2053 
z
M 4653 2450 
Q 5147 2450 5437 2106 
Q 5728 1763 5728 1178 
Q 5728 594 5436 251 
Q 5144 -91 4653 -91 
Q 4153 -91 3862 251 
Q 3572 594 3572 1178 
Q 3572 1766 3864 2108 
Q 4156 2450 4653 2450 
z
M 1428 4353 
Q 1159 4353 1004 4120 
Q 850 3888 850 3481 
Q 850 3069 1003 2837 
Q 1156 2606 1428 2606 
Q 1700 2606 1854 2837 
Q 2009 3069 2009 3481 
Q 2009 3884 1853 4118 
Q 1697 4353 1428 4353 
z
M 4250 4750 
L 4750 4750 
L 1831 -91 
L 1331 -91 
L 4250 4750 
z
M 1428 4750 
Q 1922 4750 2215 4408 
Q 2509 4066 2509 3481 
Q 2509 2891 2217 2550 
Q 1925 2209 1428 2209 
Q 931 2209 642 2551 
Q 353 2894 353 3481 
Q 353 4063 643 4406 
Q 934 4750 1428 4750 
z
" transform="scale(0.015625)"/>
      </defs>
      <use xlink:href="#DejaVuSans-55"/>
      <use xlink:href="#DejaVuSans-74" x="73.193359"/>
      <use xlink:href="#DejaVuSans-69" x="112.402344"/>
      <use xlink:href="#DejaVuSans-6c" x="140.185547"/>
      <use xlink:href="#DejaVuSans-69" x="167.96875"/>
      <use xlink:href="#DejaVuSans-7a" x="195.751953"/>
      <use xlink:href="#DejaVuSans-61" x="248.242188"/>
      <use xlink:href="#DejaVuSans-74" x="309.521484"/>
      <use xlink:href="#DejaVuSans-69" x="348.730469"/>
      <use xlink:href="#DejaVuSans-6f" x="376.513672"/>
      <use xlink:href="#DejaVuSans-6e" x="437.695312"/>
      <use xlink:href="#DejaVuSans-20" x="501.074219"/>
      <use xlink:href="#DejaVuSans-28" x="532.861328"/>
      <use xlink:href="#DejaVuSans-25" x="571.875"/>
      <use xlink:href="#DejaVuSans-29" x="666.894531"/>
     </g>
    </g>
   </g>
   <g id="line2d_15">
    <path d="M 68.878835 203.953499 
L 69.308127 203.95308 
L 69.82152 203.727012 
L 70.784374 203.779859 
L 70.863513 203.62719 
L 71.369006 203.354148 
L 72.294262 203.464875 
L 72.928701 203.668294 
L 73.614636 204.240383 
L 80.032501 203.872132 
L 84.719499 203.933367 
L 91.568406 203.780279 
L 94.98531 203.833126 
L 99.207565 204.718522 
L 99.322887 204.255482 
L 100.265572 203.944692 
L 101.519943 203.886812 
L 101.813058 203.733723 
L 102.738314 203.517302 
L 103.372753 203.196446 
L 104.058688 203.040002 
L 104.594701 203.159117 
L 110.476552 203.163731 
L 116.450452 203.326046 
L 122.012458 198.650348 
L 125.429362 194.191909 
L 127.261804 189.681043 
L 128.627053 181.738899 
L 129.651617 176.827067 
L 129.766939 171.932431 
L 130.709624 166.582304 
L 131.751617 164.145052 
L 132.25711 155.989003 
L 133.182366 152.613508 
L 133.816804 146.574694 
L 134.502739 143.10399 
L 135.395785 134.556622 
L 135.965941 132.463714 
L 140.920604 128.33452 
L 141.815157 123.148387 
L 145.607603 119.920947 
L 146.894504 115.933518 
L 157.705856 115.552265 
L 159.071104 113.693394 
L 160.095668 112.01697 
L 160.210991 110.619462 
L 160.640282 107.481778 
L 162.195669 105.870364 
L 162.701162 104.950995 
L 163.626417 103.569844 
L 164.260856 101.098619 
L 164.946791 99.934308 
L 165.482804 98.623619 
L 165.839837 97.349001 
L 167.678536 95.764011 
L 171.095439 91.559741 
L 171.364656 89.692481 
L 172.259209 88.102039 
L 176.051655 86.313211 
L 176.375701 85.073824 
L 177.338555 84.210238 
L 177.630072 81.535174 
L 188.149908 80.763441 
L 189.515156 79.36719 
L 190.655042 76.83473 
L 191.084334 75.588213 
L 192.639721 74.027549 
L 193.145214 72.749156 
L 194.070469 69.807341 
L 194.704908 68.728173 
L 195.926856 66.177258 
L 196.283889 64.903059 
L 196.854045 63.313875 
L 198.122588 61.723433 
L 201.539491 61.277589 
L 201.808708 59.586906 
L 202.703261 57.670993 
L 205.761746 55.825543 
L 206.819753 52.671083 
L 207.782607 51.71816 
L 208.074124 49.863902 
L 218.59396 48.602705 
L 221.099094 44.223117 
L 221.528386 43.144788 
L 223.083772 41.769508 
L 223.589265 40.851816 
L 225.14896 39.158616 
L 225.834895 37.867221 
L 226.72794 35.614933 
L 227.298097 34.426715 
L 228.566639 33.370195 
L 231.983543 33.157969 
L 233.147312 35.563764 
L 235.181234 39.133032 
L 236.205798 46.009429 
L 236.939758 48.667715 
L 237.263805 51.271058 
L 238.518176 57.337973 
L 239.736547 58.011563 
L 251.543146 62.523268 
L 251.972437 66.909566 
L 253.527824 68.964726 
L 256.81496 72.272275 
L 257.171992 73.930663 
L 257.742148 74.307722 
L 259.010691 77.190818 
L 263.591364 82.591694 
L 264.260037 85.093537 
L 265.625286 84.233306 
L 266.64985 84.152777 
L 267.707857 83.480446 
L 268.670711 85.044465 
L 268.962228 84.471536 
L 269.255343 83.475413 
L 270.180599 84.687957 
L 270.815037 85.071308 
L 271.500972 84.094897 
L 277.918837 83.221664 
L 282.416489 83.479607 
L 283.971876 82.150045 
L 287.259011 78.970419 
L 287.616044 82.10978 
L 288.1862 83.974943 
L 289.454743 85.823328 
L 292.871646 86.769541 
L 294.704089 89.026022 
L 296.069337 89.828793 
L 297.093901 90.644146 
L 297.209224 91.773226 
L 297.827862 92.859105 
L 298.151908 93.835097 
L 299.406279 95.879351 
L 299.699395 97.174941 
L 300.62465 95.007796 
L 301.945024 96.880089 
L 308.362889 98.033075 
L 312.860541 99.240167 
L 314.415928 100.510172 
L 317.703063 101.281067 
L 318.060096 102.296903 
L 319.898795 105.045784 
L 323.315698 106.63371 
L 324.479468 107.943559 
L 325.148141 109.364556 
L 326.513389 111.159675 
L 327.537953 112.080722 
L 327.653275 115.56988 
L 328.59596 116.328192 
L 329.558814 117.26308 
L 329.850331 118.497015 
L 330.143447 120.562241 
L 332.389076 123.728865 
L 343.304593 125.218227 
L 343.49394 129.838142 
L 348.147115 131.835003 
L 348.504148 132.129855 
L 350.342847 135.654664 
L 354.923519 137.473691 
L 355.592193 137.943861 
L 356.957441 139.392119 
L 357.982005 141.599948 
L 358.097327 142.895957 
L 360.002866 146.949236 
L 360.082005 148.423918 
L 360.294383 147.860217 
L 360.587498 149.76103 
L 361.512754 151.559924 
L 362.833128 153.493033 
L 368.981776 154.52271 
L 369.250993 156.125735 
L 373.748645 157.414194 
L 373.937991 159.036512 
L 378.591167 161.227564 
L 378.948199 162.303797 
L 385.367571 164.659681 
L 386.036244 166.534071 
L 387.401493 168.702474 
L 388.426057 168.759096 
L 388.541379 170.527792 
L 390.446918 172.667255 
L 390.526057 174.788264 
L 390.738435 175.545737 
L 391.03155 177.481362 
L 391.956806 181.317801 
L 392.591245 182.328184 
L 394.740381 182.605841 
L 396.008924 183.074753 
L 399.425828 182.91747 
L 399.695044 183.187577 
L 404.192696 185.378209 
L 404.382043 186.001887 
L 404.70609 186.432632 
L 409.392251 188.153095 
L 416.480296 188.631234 
L 417.845544 189.003679 
L 418.870109 189.845875 
L 418.985431 191.230382 
L 421.182487 194.409588 
L 421.475602 194.678856 
L 422.400857 194.793778 
L 423.035296 195.444299 
L 423.721231 195.605356 
L 424.257244 195.441363 
L 426.452976 196.659359 
L 429.869879 196.313757 
L 430.139096 196.68075 
L 431.033649 196.5285 
L 434.826095 196.307885 
L 435.150141 196.578411 
L 446.924348 197.489392 
L 449.31416 198.467061 
L 449.429482 197.902941 
L 449.858774 197.842125 
L 451.414161 198.048899 
L 451.919654 198.463706 
L 453.479348 198.214151 
L 455.058329 199.533228 
L 455.628485 200.351937 
L 456.897028 200.57339 
L 460.313931 200.206398 
L 460.583148 200.415269 
L 461.477701 200.737384 
L 465.270147 200.114964 
L 465.594193 200.227369 
L 466.848564 201.090116 
L 477.3684 201.100602 
L 479.873534 201.215104 
L 480.302826 203.776504 
L 481.858212 203.821801 
L 482.363705 203.985795 
L 484.609335 204.419895 
L 485.145348 204.826313 
L 485.502381 204.341463 
L 486.072537 203.228741 
L 487.34108 203.448517 
L 490.757983 203.132694 
L 491.921752 202.388222 
L 493.955674 202.588286 
L 494.980238 202.109308 
L 495.714198 202.221293 
L 496.038245 202.101339 
L 497.001099 199.484156 
L 497.292616 199.58985 
L 510.746878 199.363782 
L 512.807757 198.864672 
L 515.5894 198.385274 
L 515.946432 195.966058 
L 517.785131 195.386419 
L 521.202035 193.822819 
L 524.399726 193.87273 
L 525.42429 193.291414 
L 525.42429 193.291414 
" clip-path="url(#p7b268f2873)" style="fill: none; stroke: #009384; stroke-width: 2.5; stroke-linecap: square"/>
   </g>
   <g id="line2d_16">
    <path d="M 68.878835 88.576425 
L 69.82152 88.346729 
L 70.784374 88.09384 
L 70.863513 88.298202 
L 71.369006 88.291198 
L 73.614636 88.523641 
L 80.032501 88.622372 
L 84.719499 88.507598 
L 89.729708 88.539495 
L 90.299864 88.320494 
L 99.207565 88.536475 
L 99.322887 88.652256 
L 99.752179 88.670207 
L 100.265572 88.529051 
L 101.307565 88.682601 
L 101.519943 88.448858 
L 101.813058 88.335132 
L 104.058688 88.654017 
L 104.594701 88.650264 
L 110.476552 88.742683 
L 125.429362 88.425727 
L 129.651617 88.674338 
L 129.766939 88.892458 
L 130.709624 88.623442 
L 131.751617 88.811258 
L 132.25711 88.501831 
L 134.502739 88.442755 
L 135.395785 88.522823 
L 141.815157 88.501999 
L 145.607603 88.315965 
L 146.894504 88.379947 
L 157.705856 88.220945 
L 159.071104 87.989383 
L 160.095668 88.275616 
L 160.210991 88.476015 
L 160.640282 88.207083 
L 162.195669 88.509296 
L 162.701162 88.365435 
L 165.839837 88.540648 
L 166.409993 88.495812 
L 171.364656 88.681385 
L 172.259209 88.614676 
L 177.338555 88.628999 
L 177.630072 88.436191 
L 189.515156 88.174326 
L 191.084334 88.541319 
L 198.122588 88.718336 
L 206.495707 89.042254 
L 206.819753 88.801255 
L 208.074124 88.558453 
L 221.528386 88.729178 
L 223.083772 89.065532 
L 223.589265 88.914205 
L 228.566639 88.978607 
L 233.147312 88.9776 
L 235.181234 88.843637 
L 236.205798 89.16355 
L 236.939758 88.985821 
L 237.263805 88.770197 
L 238.226659 88.936287 
L 238.518176 88.718944 
L 239.736547 88.892185 
L 251.972437 89.230574 
L 253.527824 89.474697 
L 263.591364 89.657942 
L 264.260037 89.757911 
L 265.625286 89.660857 
L 266.64985 89.978631 
L 267.38381 89.736541 
L 267.707857 89.512613 
L 268.670711 89.546586 
L 268.962228 89.295102 
L 271.500972 89.179279 
L 277.918837 89.151534 
L 282.416489 89.258864 
L 283.971876 89.519764 
L 287.616044 89.508377 
L 288.1862 89.404843 
L 289.454743 89.384186 
L 294.704089 89.500785 
L 296.069337 89.418474 
L 297.093901 89.56114 
L 297.209224 89.751557 
L 299.699395 88.864357 
L 301.945024 88.727773 
L 312.860541 88.850998 
L 314.415928 89.061233 
L 317.703063 89.03309 
L 318.060096 88.906194 
L 318.630252 88.872347 
L 319.898795 88.652046 
L 327.653275 88.701936 
L 328.59596 88.513826 
L 329.558814 88.192299 
L 329.850331 88.218449 
L 330.143447 88.076958 
L 348.504148 88.09428 
L 349.074304 87.866828 
L 358.097327 88.073435 
L 360.002866 87.747042 
L 360.082005 87.778477 
L 360.587498 87.682703 
L 362.833128 87.897677 
L 369.250993 87.912021 
L 373.748645 88.057769 
L 373.937991 87.815156 
L 378.948199 87.92301 
L 387.401493 87.919109 
L 388.541379 88.153418 
L 390.446918 88.094951 
L 390.526057 88.295224 
L 390.738435 88.22386 
L 391.03155 87.91028 
L 392.591245 88.006118 
L 393.277179 88.098642 
L 399.695044 88.18066 
L 404.192696 88.344485 
L 404.382043 88.115922 
L 404.70609 87.942785 
L 417.845544 88.080397 
L 418.870109 88.294302 
L 418.985431 88.5098 
L 421.182487 88.731254 
L 421.475602 88.647621 
L 423.035296 88.668844 
L 423.721231 88.500321 
L 431.033649 88.69078 
L 448.289596 88.429208 
L 449.31416 88.681133 
L 449.429482 88.855465 
L 449.858774 89.005492 
L 451.414161 89.185989 
L 451.919654 89.100176 
L 456.897028 89.242317 
L 465.270147 89.323308 
L 465.594193 89.064211 
L 466.557047 88.864483 
L 466.848564 88.941299 
L 477.3684 89.017508 
L 480.302826 88.963172 
L 481.858212 89.251419 
L 482.363705 89.124397 
L 485.502381 89.053432 
L 486.072537 88.950422 
L 491.921752 89.012265 
L 493.955674 88.872368 
L 494.980238 89.149311 
L 496.038245 88.711205 
L 497.001099 88.712317 
L 497.292616 88.494596 
L 510.746878 88.539201 
L 512.302264 88.826315 
L 512.807757 88.693086 
L 521.202035 88.640974 
L 524.399726 88.477421 
L 525.42429 88.615745 
L 525.42429 88.615745 
" clip-path="url(#p7b268f2873)" style="fill: none; stroke: #b85741; stroke-width: 2.5; stroke-linecap: square"/>
   </g>
   <g id="line2d_17">
    <path d="M 68.878835 172.846755 
L 69.308127 165.324832 
L 69.82152 165.324832 
L 70.784374 165.568457 
L 70.863513 166.238426 
L 71.369006 167.700176 
L 72.294262 171.080473 
L 72.928701 171.110927 
L 73.614636 175.52663 
L 89.729708 175.557084 
L 90.299864 175.831162 
L 91.568406 176.775209 
L 96.149079 176.714303 
L 96.817753 184.297132 
L 99.322887 184.266679 
L 99.752179 179.333272 
L 101.307565 179.363725 
L 101.519943 174.704396 
L 101.813058 175.648443 
L 102.738314 175.404818 
L 103.372753 178.328318 
L 104.058688 178.54149 
L 104.594701 181.373631 
L 110.476552 184.845288 
L 115.163551 187.281539 
L 116.450452 187.311992 
L 122.012458 187.09882 
L 125.429362 186.763836 
L 127.261804 186.885648 
L 128.627053 186.733382 
L 129.651617 191.392711 
L 129.766939 190.387758 
L 131.751617 190.11368 
L 131.963995 188.926008 
L 132.25711 188.591023 
L 133.816804 200.62001 
L 135.038753 200.560626 
L 135.965941 195.474953 
L 140.920604 197.454407 
L 141.815157 197.332594 
L 145.607603 196.114469 
L 146.894504 196.02311 
L 157.705856 192.064203 
L 159.071104 192.03375 
L 160.095668 192.490547 
L 160.210991 190.906984 
L 160.640282 190.450187 
L 163.626417 190.906984 
L 164.260856 192.886437 
L 164.946791 194.500453 
L 165.482804 194.47 
L 165.839837 201.991923 
L 166.409993 202.44872 
L 167.678536 201.870111 
L 171.095439 201.656939 
L 171.364656 207.321221 
L 172.259209 202.966423 
L 176.051655 202.875064 
L 176.375701 198.398454 
L 177.338555 199.129329 
L 177.630072 204.00183 
L 188.149908 201.017423 
L 189.515156 205.798565 
L 190.655042 200.804251 
L 191.084334 194.713625 
L 192.639721 191.181062 
L 193.145214 190.419734 
L 194.070469 190.48064 
L 194.704908 190.389281 
L 195.390843 190.450187 
L 195.926856 190.328374 
L 196.283889 190.632906 
L 198.122588 190.48064 
L 202.703261 190.176109 
L 205.761746 188.592546 
L 206.819753 188.409827 
L 207.782607 188.04439 
L 208.074124 192.91689 
L 218.59396 192.825531 
L 221.099094 190.419734 
L 221.528386 197.454407 
L 223.083772 197.363048 
L 223.589265 197.576219 
L 225.14896 197.545766 
L 225.834895 195.079063 
L 226.370908 191.911937 
L 226.72794 192.125109 
L 227.298097 192.03375 
L 228.566639 191.972843 
L 231.983543 191.241968 
L 233.147312 191.516047 
L 235.181234 191.637859 
L 236.205798 187.831218 
L 236.939758 187.983483 
L 237.263805 188.92753 
L 238.226659 189.01889 
L 238.518176 189.201609 
L 239.736547 191.424687 
L 247.474785 190.054296 
L 251.543146 184.968624 
L 251.972437 187.222155 
L 256.81496 187.251086 
L 257.742148 192.580383 
L 259.010691 191.453618 
L 262.427595 186.672476 
L 263.591364 187.890601 
L 264.260037 187.981961 
L 265.625286 190.083227 
L 266.64985 190.052774 
L 267.38381 187.190179 
L 267.707857 183.292179 
L 268.670711 183.748976 
L 269.255343 178.05424 
L 270.180599 177.810615 
L 271.500972 177.780162 
L 277.918837 177.749709 
L 282.416489 172.511771 
L 283.971876 171.080473 
L 287.259011 171.171833 
L 287.616044 164.746222 
L 288.1862 164.776676 
L 289.454743 169.161926 
L 292.871646 161.761816 
L 294.035416 166.542957 
L 294.704089 166.57341 
L 296.069337 165.172566 
L 297.093901 168.339692 
L 297.209224 164.106707 
L 297.827862 169.040114 
L 298.151908 175.13074 
L 299.406279 179.394178 
L 299.699395 177.780162 
L 300.62465 177.841068 
L 301.259089 176.836115 
L 301.945024 176.957928 
L 308.362889 176.714303 
L 314.415928 176.836115 
L 317.703063 179.394178 
L 318.630252 179.515991 
L 319.898795 181.038647 
L 323.315698 178.176053 
L 324.479468 178.267412 
L 325.148141 178.693756 
L 326.513389 178.663303 
L 327.537953 178.754662 
L 327.653275 175.222099 
L 329.558814 171.841802 
L 329.850331 171.933161 
L 330.143447 164.868035 
L 331.068702 167.487004 
L 331.703141 165.994801 
L 332.389076 166.116613 
L 343.304593 166.268879 
L 343.49394 167.243379 
L 348.504148 167.334738 
L 349.074304 171.080473 
L 350.342847 171.14138 
L 356.957441 170.897755 
L 357.982005 166.756129 
L 358.097327 168.522411 
L 359.040012 173.608083 
L 360.002866 172.846755 
L 360.082005 167.882895 
L 360.294383 167.578363 
L 360.587498 167.63927 
L 361.512754 167.700176 
L 362.147193 168.948754 
L 362.833128 173.912615 
L 369.250993 171.750442 
L 373.748645 173.943068 
L 373.937991 173.699443 
L 378.591167 172.907661 
L 378.948199 178.389225 
L 385.367571 178.419678 
L 386.036244 181.55635 
L 387.401493 184.114413 
L 388.541379 184.266679 
L 390.526057 184.449398 
L 390.738435 189.748242 
L 391.03155 191.240446 
L 391.956806 191.697243 
L 392.591245 198.305572 
L 393.277179 197.909681 
L 394.740381 197.818322 
L 396.008924 204.700729 
L 399.695044 203.939401 
L 404.192696 205.370698 
L 404.382043 205.309792 
L 404.70609 212.314012 
L 409.392251 212.070387 
L 417.845544 212.00948 
L 418.870109 209.664589 
L 418.985431 212.862168 
L 420.970109 212.862168 
L 421.182487 213.958481 
L 421.475602 213.958481 
L 422.400857 211.248152 
L 424.257244 211.278605 
L 426.452976 211.248152 
L 429.869879 211.309058 
L 430.139096 207.685136 
L 431.033649 207.350152 
L 434.826095 207.350152 
L 435.150141 207.13698 
L 436.112995 207.13698 
L 446.924348 212.648996 
L 448.289596 214.658903 
L 449.429482 213.471231 
L 449.858774 220.56681 
L 451.414161 220.536357 
L 451.919654 224.830248 
L 454.165283 224.860701 
L 454.701296 222.850795 
L 455.058329 222.789889 
L 455.628485 222.546264 
L 456.897028 222.789889 
L 460.313931 222.272185 
L 460.583148 222.424451 
L 461.477701 222.454904 
L 465.270147 221.267232 
L 465.594193 225.835202 
L 466.848564 225.774295 
L 477.3684 226.687889 
L 479.873534 231.56039 
L 480.302826 231.956281 
L 482.363705 231.986734 
L 483.9234 231.682203 
L 484.609335 228.758702 
L 485.145348 230.890421 
L 485.502381 230.920874 
L 486.072537 230.707702 
L 487.34108 231.042687 
L 490.757983 234.727516 
L 491.0272 234.757969 
L 491.921752 230.311812 
L 494.980238 230.433624 
L 495.714198 228.088733 
L 496.038245 228.149639 
L 497.001099 223.58167 
L 497.292616 223.551217 
L 510.746878 223.033514 
L 512.302264 222.820342 
L 512.807757 216.912434 
L 515.5894 216.912434 
L 515.946432 217.277872 
L 517.785131 217.338778 
L 521.202035 217.917388 
L 524.399726 214.415278 
L 525.42429 214.445731 
L 525.42429 214.445731 
" clip-path="url(#p7b268f2873)" style="fill: none; stroke: #002f4a; stroke-width: 2.5; stroke-linecap: square"/>
   </g>
   <g id="patch_3">
    <path d="M 46.051562 244.837969 
L 46.051562 23.077969 
" style="fill: none; stroke: #000000; stroke-width: 0.8; stroke-linejoin: miter; stroke-linecap: square"/>
   </g>
   <g id="patch_4">
    <path d="M 548.251563 244.837969 
L 548.251563 23.077969 
" style="fill: none; stroke: #000000; stroke-width: 0.8; stroke-linejoin: miter; stroke-linecap: square"/>
   </g>
   <g id="patch_5">
    <path d="M 46.051563 244.837969 
L 548.251563 244.837969 
" style="fill: none; stroke: #000000; stroke-width: 0.8; stroke-linejoin: miter; stroke-linecap: square"/>
   </g>
   <g id="patch_6">
    <path d="M 46.051563 23.077969 
L 548.251563 23.077969 
" style="fill: none; stroke: #000000; stroke-width: 0.8; stroke-linejoin: miter; stroke-linecap: square"/>
   </g>
   <g id="text_17">
    <!-- Create VM Type 4 (KubeVirt) -->
    <g transform="translate(205.593984 17.077969) scale(0.13 -0.13)">
     <defs>
      <path id="DejaVuSans-43" d="M 4122 4306 
L 4122 3641 
Q 3803 3938 3442 4084 
Q 3081 4231 2675 4231 
Q 1875 4231 1450 3742 
Q 1025 3253 1025 2328 
Q 1025 1406 1450 917 
Q 1875 428 2675 428 
Q 3081 428 3442 575 
Q 3803 722 4122 1019 
L 4122 359 
Q 3791 134 3420 21 
Q 3050 -91 2638 -91 
Q 1578 -91 968 557 
Q 359 1206 359 2328 
Q 359 3453 968 4101 
Q 1578 4750 2638 4750 
Q 3056 4750 3426 4639 
Q 3797 4528 4122 4306 
z
" transform="scale(0.015625)"/>
      <path id="DejaVuSans-72" d="M 2631 2963 
Q 2534 3019 2420 3045 
Q 2306 3072 2169 3072 
Q 1681 3072 1420 2755 
Q 1159 2438 1159 1844 
L 1159 0 
L 581 0 
L 581 3500 
L 1159 3500 
L 1159 2956 
Q 1341 3275 1631 3429 
Q 1922 3584 2338 3584 
Q 2397 3584 2469 3576 
Q 2541 3569 2628 3553 
L 2631 2963 
z
" transform="scale(0.015625)"/>
      <path id="DejaVuSans-56" d="M 1831 0 
L 50 4666 
L 709 4666 
L 2188 738 
L 3669 4666 
L 4325 4666 
L 2547 0 
L 1831 0 
z
" transform="scale(0.015625)"/>
      <path id="DejaVuSans-4d" d="M 628 4666 
L 1569 4666 
L 2759 1491 
L 3956 4666 
L 4897 4666 
L 4897 0 
L 4281 0 
L 4281 4097 
L 3078 897 
L 2444 897 
L 1241 4097 
L 1241 0 
L 628 0 
L 628 4666 
z
" transform="scale(0.015625)"/>
      <path id="DejaVuSans-79" d="M 2059 -325 
Q 1816 -950 1584 -1140 
Q 1353 -1331 966 -1331 
L 506 -1331 
L 506 -850 
L 844 -850 
Q 1081 -850 1212 -737 
Q 1344 -625 1503 -206 
L 1606 56 
L 191 3500 
L 800 3500 
L 1894 763 
L 2988 3500 
L 3597 3500 
L 2059 -325 
z
" transform="scale(0.015625)"/>
      <path id="DejaVuSans-70" d="M 1159 525 
L 1159 -1331 
L 581 -1331 
L 581 3500 
L 1159 3500 
L 1159 2969 
Q 1341 3281 1617 3432 
Q 1894 3584 2278 3584 
Q 2916 3584 3314 3078 
Q 3713 2572 3713 1747 
Q 3713 922 3314 415 
Q 2916 -91 2278 -91 
Q 1894 -91 1617 61 
Q 1341 213 1159 525 
z
M 3116 1747 
Q 3116 2381 2855 2742 
Q 2594 3103 2138 3103 
Q 1681 3103 1420 2742 
Q 1159 2381 1159 1747 
Q 1159 1113 1420 752 
Q 1681 391 2138 391 
Q 2594 391 2855 752 
Q 3116 1113 3116 1747 
z
" transform="scale(0.015625)"/>
      <path id="DejaVuSans-4b" d="M 628 4666 
L 1259 4666 
L 1259 2694 
L 3353 4666 
L 4166 4666 
L 1850 2491 
L 4331 0 
L 3500 0 
L 1259 2247 
L 1259 0 
L 628 0 
L 628 4666 
z
" transform="scale(0.015625)"/>
      <path id="DejaVuSans-75" d="M 544 1381 
L 544 3500 
L 1119 3500 
L 1119 1403 
Q 1119 906 1312 657 
Q 1506 409 1894 409 
Q 2359 409 2629 706 
Q 2900 1003 2900 1516 
L 2900 3500 
L 3475 3500 
L 3475 0 
L 2900 0 
L 2900 538 
Q 2691 219 2414 64 
Q 2138 -91 1772 -91 
Q 1169 -91 856 284 
Q 544 659 544 1381 
z
M 1991 3584 
L 1991 3584 
z
" transform="scale(0.015625)"/>
      <path id="DejaVuSans-62" d="M 3116 1747 
Q 3116 2381 2855 2742 
Q 2594 3103 2138 3103 
Q 1681 3103 1420 2742 
Q 1159 2381 1159 1747 
Q 1159 1113 1420 752 
Q 1681 391 2138 391 
Q 2594 391 2855 752 
Q 3116 1113 3116 1747 
z
M 1159 2969 
Q 1341 3281 1617 3432 
Q 1894 3584 2278 3584 
Q 2916 3584 3314 3078 
Q 3713 2572 3713 1747 
Q 3713 922 3314 415 
Q 2916 -91 2278 -91 
Q 1894 -91 1617 61 
Q 1341 213 1159 525 
L 1159 0 
L 581 0 
L 581 4863 
L 1159 4863 
L 1159 2969 
z
" transform="scale(0.015625)"/>
     </defs>
     <use xlink:href="#DejaVuSans-43"/>
     <use xlink:href="#DejaVuSans-72" x="69.824219"/>
     <use xlink:href="#DejaVuSans-65" x="108.6875"/>
     <use xlink:href="#DejaVuSans-61" x="170.210938"/>
     <use xlink:href="#DejaVuSans-74" x="231.490234"/>
     <use xlink:href="#DejaVuSans-65" x="270.699219"/>
     <use xlink:href="#DejaVuSans-20" x="332.222656"/>
     <use xlink:href="#DejaVuSans-56" x="364.009766"/>
     <use xlink:href="#DejaVuSans-4d" x="432.417969"/>
     <use xlink:href="#DejaVuSans-20" x="518.697266"/>
     <use xlink:href="#DejaVuSans-54" x="550.484375"/>
     <use xlink:href="#DejaVuSans-79" x="595.943359"/>
     <use xlink:href="#DejaVuSans-70" x="655.123047"/>
     <use xlink:href="#DejaVuSans-65" x="718.599609"/>
     <use xlink:href="#DejaVuSans-20" x="780.123047"/>
     <use xlink:href="#DejaVuSans-34" x="811.910156"/>
     <use xlink:href="#DejaVuSans-20" x="875.533203"/>
     <use xlink:href="#DejaVuSans-28" x="907.320312"/>
     <use xlink:href="#DejaVuSans-4b" x="946.333984"/>
     <use xlink:href="#DejaVuSans-75" x="1006.910156"/>
     <use xlink:href="#DejaVuSans-62" x="1070.289062"/>
     <use xlink:href="#DejaVuSans-65" x="1133.765625"/>
     <use xlink:href="#DejaVuSans-56" x="1195.289062"/>
     <use xlink:href="#DejaVuSans-69" x="1261.447266"/>
     <use xlink:href="#DejaVuSans-72" x="1289.230469"/>
     <use xlink:href="#DejaVuSans-74" x="1330.34375"/>
     <use xlink:href="#DejaVuSans-29" x="1369.552734"/>
    </g>
   </g>
   <g id="legend_1">
    <g id="patch_7">
     <path d="M 471.217188 85.519219 
L 539.851563 85.519219 
Q 542.251563 85.519219 542.251563 83.119219 
L 542.251563 31.477969 
Q 542.251563 29.077969 539.851563 29.077969 
L 471.217188 29.077969 
Q 468.817188 29.077969 468.817188 31.477969 
L 468.817188 83.119219 
Q 468.817188 85.519219 471.217188 85.519219 
z
" style="fill: #ffffff; opacity: 0.8; stroke: #cccccc; stroke-linejoin: miter"/>
    </g>
    <g id="line2d_18">
     <path d="M 473.617188 38.796094 
L 485.617188 38.796094 
L 497.617188 38.796094 
" style="fill: none; stroke: #009384; stroke-width: 2.5; stroke-linecap: square"/>
    </g>
    <g id="text_18">
     <!--  CPU -->
     <g transform="translate(507.217188 42.996094) scale(0.12 -0.12)">
      <defs>
       <path id="DejaVuSans-50" d="M 1259 4147 
L 1259 2394 
L 2053 2394 
Q 2494 2394 2734 2622 
Q 2975 2850 2975 3272 
Q 2975 3691 2734 3919 
Q 2494 4147 2053 4147 
L 1259 4147 
z
M 628 4666 
L 2053 4666 
Q 2838 4666 3239 4311 
Q 3641 3956 3641 3272 
Q 3641 2581 3239 2228 
Q 2838 1875 2053 1875 
L 1259 1875 
L 1259 0 
L 628 0 
L 628 4666 
z
" transform="scale(0.015625)"/>
      </defs>
      <use xlink:href="#DejaVuSans-20"/>
      <use xlink:href="#DejaVuSans-43" x="31.787109"/>
      <use xlink:href="#DejaVuSans-50" x="101.611328"/>
      <use xlink:href="#DejaVuSans-55" x="161.914062"/>
     </g>
    </g>
    <g id="line2d_19">
     <path d="M 473.617188 56.409844 
L 485.617188 56.409844 
L 497.617188 56.409844 
" style="fill: none; stroke: #b85741; stroke-width: 2.5; stroke-linecap: square"/>
    </g>
    <g id="text_19">
     <!--  RAM -->
     <g transform="translate(507.217188 60.609844) scale(0.12 -0.12)">
      <defs>
       <path id="DejaVuSans-52" d="M 2841 2188 
Q 3044 2119 3236 1894 
Q 3428 1669 3622 1275 
L 4263 0 
L 3584 0 
L 2988 1197 
Q 2756 1666 2539 1819 
Q 2322 1972 1947 1972 
L 1259 1972 
L 1259 0 
L 628 0 
L 628 4666 
L 2053 4666 
Q 2853 4666 3247 4331 
Q 3641 3997 3641 3322 
Q 3641 2881 3436 2590 
Q 3231 2300 2841 2188 
z
M 1259 4147 
L 1259 2491 
L 2053 2491 
Q 2509 2491 2742 2702 
Q 2975 2913 2975 3322 
Q 2975 3731 2742 3939 
Q 2509 4147 2053 4147 
L 1259 4147 
z
" transform="scale(0.015625)"/>
       <path id="DejaVuSans-41" d="M 2188 4044 
L 1331 1722 
L 3047 1722 
L 2188 4044 
z
M 1831 4666 
L 2547 4666 
L 4325 0 
L 3669 0 
L 3244 1197 
L 1141 1197 
L 716 0 
L 50 0 
L 1831 4666 
z
" transform="scale(0.015625)"/>
      </defs>
      <use xlink:href="#DejaVuSans-20"/>
      <use xlink:href="#DejaVuSans-52" x="31.787109"/>
      <use xlink:href="#DejaVuSans-41" x="97.269531"/>
      <use xlink:href="#DejaVuSans-4d" x="165.677734"/>
     </g>
    </g>
    <g id="line2d_20">
     <path d="M 473.617188 74.023594 
L 485.617188 74.023594 
L 497.617188 74.023594 
" style="fill: none; stroke: #002f4a; stroke-width: 2.5; stroke-linecap: square"/>
    </g>
    <g id="text_20">
     <!--  Disk -->
     <g transform="translate(507.217188 78.223594) scale(0.12 -0.12)">
      <defs>
       <path id="DejaVuSans-44" d="M 1259 4147 
L 1259 519 
L 2022 519 
Q 2988 519 3436 956 
Q 3884 1394 3884 2338 
Q 3884 3275 3436 3711 
Q 2988 4147 2022 4147 
L 1259 4147 
z
M 628 4666 
L 1925 4666 
Q 3281 4666 3915 4102 
Q 4550 3538 4550 2338 
Q 4550 1131 3912 565 
Q 3275 0 1925 0 
L 628 0 
L 628 4666 
z
" transform="scale(0.015625)"/>
       <path id="DejaVuSans-6b" d="M 581 4863 
L 1159 4863 
L 1159 1991 
L 2875 3500 
L 3609 3500 
L 1753 1863 
L 3688 0 
L 2938 0 
L 1159 1709 
L 1159 0 
L 581 0 
L 581 4863 
z
" transform="scale(0.015625)"/>
      </defs>
      <use xlink:href="#DejaVuSans-20"/>
      <use xlink:href="#DejaVuSans-44" x="31.787109"/>
      <use xlink:href="#DejaVuSans-69" x="108.789062"/>
      <use xlink:href="#DejaVuSans-73" x="136.572266"/>
      <use xlink:href="#DejaVuSans-6b" x="188.671875"/>
     </g>
    </g>
   </g>
  </g>
 </g>
 <defs>
  <clipPath id="p7b268f2873">
   <rect x="46.051562" y="23.077969" width="502.2" height="221.76"/>
  </clipPath>
 </defs>
</svg>
