<?xml version="1.0" encoding="utf-8" standalone="no"?>
<!DOCTYPE svg PUBLIC "-//W3C//DTD SVG 1.1//EN"
  "http://www.w3.org/Graphics/SVG/1.1/DTD/svg11.dtd">
<svg xmlns:xlink="http://www.w3.org/1999/xlink" width="566.900312pt" height="287.233281pt" viewBox="0 0 566.900312 287.233281" xmlns="http://www.w3.org/2000/svg" version="1.1">
 <metadata>
  <rdf:RDF xmlns:dc="http://purl.org/dc/elements/1.1/" xmlns:cc="http://creativecommons.org/ns#" xmlns:rdf="http://www.w3.org/1999/02/22-rdf-syntax-ns#">
   <cc:Work>
    <dc:type rdf:resource="http://purl.org/dc/dcmitype/StillImage"/>
    <dc:date>2024-05-21T10:08:07.257504</dc:date>
    <dc:format>image/svg+xml</dc:format>
    <dc:creator>
     <cc:Agent>
      <dc:title>Matplotlib v3.8.4, https://matplotlib.org/</dc:title>
     </cc:Agent>
    </dc:creator>
   </cc:Work>
  </rdf:RDF>
 </metadata>
 <defs>
  <style type="text/css">*{stroke-linejoin: round; stroke-linecap: butt}</style>
 </defs>
 <g id="figure_1">
  <g id="patch_1">
   <path d="M 0 287.233281 
L 566.900312 287.233281 
L 566.900312 0 
L 0 0 
z
" style="fill: #ffffff"/>
  </g>
  <g id="axes_1">
   <g id="patch_2">
    <path d="M 57.500313 244.837969 
L 559.700313 244.837969 
L 559.700313 23.077969 
L 57.500313 23.077969 
z
" style="fill: #ffffff"/>
   </g>
   <g id="PolyCollection_1">
    <defs>
     <path id="mab9eca0286" d="M 80.327585 -122.82891 
L 80.327585 -42.395313 
L 80.988429 -42.395313 
L 82.941573 -42.395313 
L 93.013417 -42.395313 
L 95.619357 -42.395313 
L 96.380554 -42.395313 
L 96.706894 -42.395313 
L 96.756684 -42.395313 
L 97.634747 -42.395313 
L 97.919827 -42.395313 
L 100.553055 -42.395313 
L 101.230119 -42.395313 
L 101.890963 -42.395313 
L 103.844106 -42.395313 
L 113.915951 -42.395313 
L 116.52189 -42.395313 
L 117.283088 -42.395313 
L 117.659218 -42.395313 
L 118.537281 -42.395313 
L 118.822361 -42.395313 
L 121.455589 -42.395313 
L 122.132653 -42.395313 
L 122.793497 -42.395313 
L 124.74664 -42.395313 
L 128.060695 -42.395313 
L 138.185622 -42.395313 
L 138.561752 -42.395313 
L 139.724895 -42.395313 
L 142.358123 -42.395313 
L 143.035187 -42.395313 
L 143.696031 -42.395313 
L 145.269752 -42.395313 
L 145.649174 -42.395313 
L 147.875691 -42.395313 
L 148.963229 -42.395313 
L 149.891082 -42.395313 
L 159.088156 -42.395313 
L 159.464286 -42.395313 
L 160.627429 -42.395313 
L 163.260657 -42.395313 
L 163.937721 -42.395313 
L 164.598565 -42.395313 
L 166.172286 -42.395313 
L 166.551708 -42.395313 
L 168.778225 -42.395313 
L 169.865763 -42.395313 
L 170.793616 -42.395313 
L 179.990689 -42.395313 
L 180.36682 -42.395313 
L 181.529963 -42.395313 
L 184.163191 -42.395313 
L 184.840255 -42.395313 
L 185.501099 -42.395313 
L 187.074819 -42.395313 
L 187.454242 -42.395313 
L 189.680759 -42.395313 
L 190.768297 -42.395313 
L 191.69615 -42.395313 
L 202.432496 -42.395313 
L 205.065725 -42.395313 
L 205.742789 -42.395313 
L 207.977353 -42.395313 
L 208.356776 -42.395313 
L 210.583293 -42.395313 
L 211.34449 -42.395313 
L 211.670831 -42.395313 
L 211.720621 -42.395313 
L 212.598684 -42.395313 
L 216.8549 -42.395313 
L 223.33503 -42.395313 
L 225.968258 -42.395313 
L 226.645323 -42.395313 
L 228.879887 -42.395313 
L 229.25931 -42.395313 
L 231.485827 -42.395313 
L 232.247024 -42.395313 
L 232.573365 -42.395313 
L 232.623155 -42.395313 
L 233.501218 -42.395313 
L 237.757434 -42.395313 
L 249.782421 -42.395313 
L 252.388361 -42.395313 
L 253.149558 -42.395313 
L 253.475899 -42.395313 
L 253.525689 -42.395313 
L 254.403752 -42.395313 
L 254.688831 -42.395313 
L 257.322059 -42.395313 
L 257.999124 -42.395313 
L 258.659968 -42.395313 
L 260.613111 -42.395313 
L 270.684955 -42.395313 
L 274.052092 -42.395313 
L 274.378433 -42.395313 
L 274.428223 -42.395313 
L 275.306286 -42.395313 
L 275.591365 -42.395313 
L 278.224593 -42.395313 
L 278.901658 -42.395313 
L 279.562502 -42.395313 
L 281.515645 -42.395313 
L 283.742162 -42.395313 
L 291.587489 -42.395313 
L 294.954626 -42.395313 
L 295.280967 -42.395313 
L 295.330757 -42.395313 
L 296.20882 -42.395313 
L 296.493899 -42.395313 
L 299.127127 -42.395313 
L 299.804192 -42.395313 
L 300.465036 -42.395313 
L 302.418179 -42.395313 
L 304.644696 -42.395313 
L 315.85716 -42.395313 
L 316.233291 -42.395313 
L 317.111354 -42.395313 
L 317.396433 -42.395313 
L 320.029661 -42.395313 
L 320.706726 -42.395313 
L 321.36757 -42.395313 
L 322.94129 -42.395313 
L 323.320713 -42.395313 
L 325.54723 -42.395313 
L 326.634768 -42.395313 
L 337.135825 -42.395313 
L 338.298967 -42.395313 
L 340.932195 -42.395313 
L 341.60926 -42.395313 
L 342.270104 -42.395313 
L 343.843824 -42.395313 
L 344.223247 -42.395313 
L 346.449764 -42.395313 
L 347.210961 -42.395313 
L 347.537302 -42.395313 
L 348.465155 -42.395313 
L 359.201501 -42.395313 
L 361.834729 -42.395313 
L 362.511794 -42.395313 
L 363.172638 -42.395313 
L 364.746358 -42.395313 
L 365.125781 -42.395313 
L 367.352298 -42.395313 
L 368.113495 -42.395313 
L 368.439836 -42.395313 
L 368.489626 -42.395313 
L 369.367689 -42.395313 
L 380.104035 -42.395313 
L 382.737263 -42.395313 
L 383.414328 -42.395313 
L 385.648892 -42.395313 
L 386.028315 -42.395313 
L 388.254832 -42.395313 
L 389.016029 -42.395313 
L 389.34237 -42.395313 
L 389.39216 -42.395313 
L 390.270223 -42.395313 
L 394.526439 -42.395313 
L 401.006569 -42.395313 
L 403.639797 -42.395313 
L 404.316862 -42.395313 
L 406.551426 -42.395313 
L 406.930849 -42.395313 
L 409.157366 -42.395313 
L 409.918563 -42.395313 
L 410.244904 -42.395313 
L 410.294694 -42.395313 
L 411.172757 -42.395313 
L 415.428973 -42.395313 
L 424.542331 -42.395313 
L 425.219396 -42.395313 
L 427.45396 -42.395313 
L 427.833383 -42.395313 
L 430.0599 -42.395313 
L 430.821097 -42.395313 
L 431.147438 -42.395313 
L 431.197228 -42.395313 
L 432.075291 -42.395313 
L 432.36037 -42.395313 
L 436.331507 -42.395313 
L 448.356494 -42.395313 
L 451.723631 -42.395313 
L 452.049972 -42.395313 
L 452.099762 -42.395313 
L 452.977825 -42.395313 
L 453.262904 -42.395313 
L 455.896132 -42.395313 
L 456.573196 -42.395313 
L 457.234041 -42.395313 
L 459.187184 -42.395313 
L 461.413701 -42.395313 
L 469.259028 -42.395313 
L 472.626165 -42.395313 
L 472.952506 -42.395313 
L 473.002295 -42.395313 
L 473.880359 -42.395313 
L 474.165438 -42.395313 
L 476.798666 -42.395313 
L 477.47573 -42.395313 
L 478.136574 -42.395313 
L 480.089718 -42.395313 
L 482.316235 -42.395313 
L 490.161562 -42.395313 
L 493.528699 -42.395313 
L 493.85504 -42.395313 
L 493.904829 -42.395313 
L 494.782893 -42.395313 
L 495.067972 -42.395313 
L 497.7012 -42.395313 
L 498.378264 -42.395313 
L 499.039108 -42.395313 
L 500.992252 -42.395313 
L 503.218769 -42.395313 
L 514.431233 -42.395313 
L 514.757574 -42.395313 
L 514.807363 -42.395313 
L 515.685427 -42.395313 
L 515.970506 -42.395313 
L 518.603734 -42.395313 
L 519.280798 -42.395313 
L 519.941642 -42.395313 
L 521.515363 -42.395313 
L 521.894786 -42.395313 
L 524.121303 -42.395313 
L 535.333767 -42.395313 
L 535.709897 -42.395313 
L 536.87304 -42.395313 
L 536.87304 -123.488601 
L 536.87304 -123.488601 
L 535.709897 -123.482314 
L 535.333767 -123.4878 
L 524.121303 -123.438138 
L 521.894786 -123.471157 
L 521.515363 -123.433357 
L 519.941642 -123.402105 
L 519.280798 -123.375281 
L 518.603734 -123.290814 
L 515.970506 -123.286594 
L 515.685427 -123.328141 
L 514.807363 -123.270542 
L 514.757574 -123.298616 
L 514.431233 -123.291218 
L 503.218769 -123.325357 
L 500.992252 -123.334993 
L 499.039108 -123.311417 
L 498.378264 -123.252514 
L 497.7012 -123.191361 
L 495.067972 -123.194101 
L 494.782893 -123.277208 
L 493.904829 -123.274762 
L 493.85504 -123.254727 
L 493.528699 -123.292338 
L 490.161562 -123.271309 
L 482.316235 -123.300718 
L 480.089718 -123.293395 
L 478.136574 -123.213634 
L 477.47573 -123.21043 
L 476.798666 -123.240101 
L 474.165438 -123.269964 
L 473.880359 -123.280812 
L 473.002295 -123.33504 
L 472.952506 -123.318569 
L 472.626165 -123.308841 
L 469.259028 -123.302646 
L 461.413701 -123.293386 
L 459.187184 -123.287213 
L 457.234041 -123.2701 
L 456.573196 -123.357471 
L 455.896132 -123.417185 
L 453.262904 -123.479581 
L 452.977825 -123.528154 
L 452.099762 -123.516596 
L 452.049972 -123.497754 
L 451.723631 -123.550146 
L 448.356494 -123.557543 
L 436.331507 -123.612009 
L 432.36037 -123.606028 
L 432.075291 -123.605895 
L 431.197228 -123.69278 
L 431.147438 -124.411362 
L 430.821097 -124.514239 
L 430.0599 -124.543515 
L 427.833383 -125.209506 
L 427.45396 -125.955114 
L 425.219396 -126.079963 
L 424.542331 -126.114917 
L 415.428973 -126.223904 
L 411.172757 -126.238817 
L 410.294694 -127.004939 
L 410.244904 -127.722363 
L 409.918563 -128.487904 
L 409.157366 -129.288741 
L 406.930849 -129.948019 
L 406.551426 -130.554521 
L 404.316862 -131.306037 
L 403.639797 -132.047595 
L 401.006569 -132.73423 
L 394.526439 -133.517926 
L 390.270223 -134.2281 
L 389.39216 -134.845408 
L 389.34237 -135.529859 
L 389.016029 -136.28247 
L 388.254832 -136.959101 
L 386.028315 -137.584142 
L 385.648892 -138.1992 
L 383.414328 -138.89091 
L 382.737263 -139.516036 
L 380.104035 -140.189618 
L 369.367689 -140.825891 
L 368.489626 -141.449142 
L 368.439836 -142.138448 
L 368.113495 -142.864948 
L 367.352298 -143.453271 
L 365.125781 -144.061521 
L 364.746358 -144.658772 
L 363.172638 -145.262752 
L 362.511794 -145.954803 
L 361.834729 -146.528863 
L 359.201501 -146.446426 
L 348.465155 -147.019204 
L 347.537302 -147.652924 
L 347.210961 -147.619211 
L 346.449764 -147.397414 
L 344.223247 -147.880553 
L 343.843824 -148.416064 
L 342.270104 -148.917429 
L 341.60926 -149.387261 
L 340.932195 -149.172488 
L 338.298967 -149.009521 
L 337.135825 -148.799261 
L 326.634768 -148.652325 
L 325.54723 -148.52584 
L 323.320713 -148.462885 
L 322.94129 -147.861244 
L 321.36757 -147.631712 
L 320.706726 -147.117732 
L 320.029661 -146.884359 
L 317.396433 -146.320613 
L 317.111354 -145.862948 
L 316.233291 -145.691037 
L 315.85716 -145.161015 
L 304.644696 -145.007264 
L 302.418179 -144.547229 
L 300.465036 -144.094398 
L 299.804192 -143.505596 
L 299.127127 -142.905034 
L 296.493899 -142.3716 
L 296.20882 -141.737728 
L 295.330757 -141.09519 
L 295.280967 -140.47893 
L 294.954626 -139.86705 
L 291.587489 -139.378256 
L 283.742162 -138.883058 
L 281.515645 -138.202403 
L 279.562502 -137.669316 
L 278.901658 -136.987187 
L 278.224593 -136.350914 
L 275.591365 -135.718166 
L 275.306286 -135.152833 
L 274.428223 -134.476303 
L 274.378433 -133.705999 
L 274.052092 -133.211388 
L 270.684955 -132.653917 
L 260.613111 -132.195093 
L 258.659968 -131.613995 
L 257.999124 -131.112361 
L 257.322059 -130.564507 
L 254.688831 -129.981016 
L 254.403752 -129.442336 
L 253.525689 -128.902482 
L 253.475899 -128.337424 
L 253.149558 -127.652 
L 252.388361 -127.532304 
L 249.782421 -127.052373 
L 237.757434 -126.936474 
L 233.501218 -126.394707 
L 232.623155 -126.254837 
L 232.573365 -126.059474 
L 232.247024 -125.61051 
L 231.485827 -125.301198 
L 229.25931 -124.771983 
L 228.879887 -124.618081 
L 226.645323 -124.383727 
L 225.968258 -124.31974 
L 223.33503 -124.233704 
L 216.8549 -124.068336 
L 212.598684 -124.011646 
L 211.720621 -123.983957 
L 211.670831 -123.898477 
L 211.34449 -123.847714 
L 210.583293 -123.598857 
L 208.356776 -123.489075 
L 207.977353 -123.517896 
L 205.742789 -123.373728 
L 205.065725 -123.397017 
L 202.432496 -123.358591 
L 191.69615 -123.348978 
L 190.768297 -123.221174 
L 189.680759 -123.212062 
L 187.454242 -123.362394 
L 187.074819 -123.442822 
L 185.501099 -123.287885 
L 184.840255 -123.186457 
L 184.163191 -123.164979 
L 181.529963 -123.102633 
L 180.36682 -123.133648 
L 179.990689 -123.148908 
L 170.793616 -123.126049 
L 169.865763 -122.997866 
L 168.778225 -123.001941 
L 166.551708 -123.220805 
L 166.172286 -123.18753 
L 164.598565 -123.118073 
L 163.937721 -123.106733 
L 163.260657 -123.095122 
L 160.627429 -123.081443 
L 159.464286 -123.091233 
L 159.088156 -122.994959 
L 149.891082 -123.078697 
L 148.963229 -122.950363 
L 147.875691 -122.945973 
L 145.649174 -122.986769 
L 145.269752 -122.959396 
L 143.696031 -123.00853 
L 143.035187 -123.000823 
L 142.358123 -122.998873 
L 139.724895 -123.015196 
L 138.561752 -122.988625 
L 138.185622 -123.048869 
L 128.060695 -123.133585 
L 124.74664 -122.98253 
L 122.793497 -122.951086 
L 122.132653 -122.992848 
L 121.455589 -122.951806 
L 118.822361 -123.006782 
L 118.537281 -123.00456 
L 117.659218 -123.041237 
L 117.283088 -123.047224 
L 116.52189 -123.10577 
L 113.915951 -122.977679 
L 103.844106 -122.964919 
L 101.890963 -122.944505 
L 101.230119 -122.934475 
L 100.553055 -123.010405 
L 97.919827 -122.968905 
L 97.634747 -123.025349 
L 96.756684 -123.050191 
L 96.706894 -123.087872 
L 96.380554 -123.092022 
L 95.619357 -123.065707 
L 93.013417 -123.04997 
L 82.941573 -122.885088 
L 80.988429 -122.832088 
L 80.327585 -122.82891 
z
" style="stroke: #009384; stroke-opacity: 0.7; stroke-width: 1.5"/>
    </defs>
    <g clip-path="url(#p0b67177e93)">
     <use xlink:href="#mab9eca0286" x="0" y="287.233281" style="fill: #009384; fill-opacity: 0.7; stroke: #009384; stroke-opacity: 0.7; stroke-width: 1.5"/>
    </g>
   </g>
   <g id="PolyCollection_2">
    <defs>
     <path id="meb7f528205" d="M 80.327585 -222.591922 
L 80.327585 -122.82891 
L 80.988429 -122.832088 
L 82.941573 -122.885088 
L 93.013417 -123.04997 
L 95.619357 -123.065707 
L 96.380554 -123.092022 
L 96.706894 -123.087872 
L 96.756684 -123.050191 
L 97.634747 -123.025349 
L 97.919827 -122.968905 
L 100.553055 -123.010405 
L 101.230119 -122.934475 
L 101.890963 -122.944505 
L 103.844106 -122.964919 
L 113.915951 -122.977679 
L 116.52189 -123.10577 
L 117.283088 -123.047224 
L 117.659218 -123.041237 
L 118.537281 -123.00456 
L 118.822361 -123.006782 
L 121.455589 -122.951806 
L 122.132653 -122.992848 
L 122.793497 -122.951086 
L 124.74664 -122.98253 
L 128.060695 -123.133585 
L 138.185622 -123.048869 
L 138.561752 -122.988625 
L 139.724895 -123.015196 
L 142.358123 -122.998873 
L 143.035187 -123.000823 
L 143.696031 -123.00853 
L 145.269752 -122.959396 
L 145.649174 -122.986769 
L 147.875691 -122.945973 
L 148.963229 -122.950363 
L 149.891082 -123.078697 
L 159.088156 -122.994959 
L 159.464286 -123.091233 
L 160.627429 -123.081443 
L 163.260657 -123.095122 
L 163.937721 -123.106733 
L 164.598565 -123.118073 
L 166.172286 -123.18753 
L 166.551708 -123.220805 
L 168.778225 -123.001941 
L 169.865763 -122.997866 
L 170.793616 -123.126049 
L 179.990689 -123.148908 
L 180.36682 -123.133648 
L 181.529963 -123.102633 
L 184.163191 -123.164979 
L 184.840255 -123.186457 
L 185.501099 -123.287885 
L 187.074819 -123.442822 
L 187.454242 -123.362394 
L 189.680759 -123.212062 
L 190.768297 -123.221174 
L 191.69615 -123.348978 
L 202.432496 -123.358591 
L 205.065725 -123.397017 
L 205.742789 -123.373728 
L 207.977353 -123.517896 
L 208.356776 -123.489075 
L 210.583293 -123.598857 
L 211.34449 -123.847714 
L 211.670831 -123.898477 
L 211.720621 -123.983957 
L 212.598684 -124.011646 
L 216.8549 -124.068336 
L 223.33503 -124.233704 
L 225.968258 -124.31974 
L 226.645323 -124.383727 
L 228.879887 -124.618081 
L 229.25931 -124.771983 
L 231.485827 -125.301198 
L 232.247024 -125.61051 
L 232.573365 -126.059474 
L 232.623155 -126.254837 
L 233.501218 -126.394707 
L 237.757434 -126.936474 
L 249.782421 -127.052373 
L 252.388361 -127.532304 
L 253.149558 -127.652 
L 253.475899 -128.337424 
L 253.525689 -128.902482 
L 254.403752 -129.442336 
L 254.688831 -129.981016 
L 257.322059 -130.564507 
L 257.999124 -131.112361 
L 258.659968 -131.613995 
L 260.613111 -132.195093 
L 270.684955 -132.653917 
L 274.052092 -133.211388 
L 274.378433 -133.705999 
L 274.428223 -134.476303 
L 275.306286 -135.152833 
L 275.591365 -135.718166 
L 278.224593 -136.350914 
L 278.901658 -136.987187 
L 279.562502 -137.669316 
L 281.515645 -138.202403 
L 283.742162 -138.883058 
L 291.587489 -139.378256 
L 294.954626 -139.86705 
L 295.280967 -140.47893 
L 295.330757 -141.09519 
L 296.20882 -141.737728 
L 296.493899 -142.3716 
L 299.127127 -142.905034 
L 299.804192 -143.505596 
L 300.465036 -144.094398 
L 302.418179 -144.547229 
L 304.644696 -145.007264 
L 315.85716 -145.161015 
L 316.233291 -145.691037 
L 317.111354 -145.862948 
L 317.396433 -146.320613 
L 320.029661 -146.884359 
L 320.706726 -147.117732 
L 321.36757 -147.631712 
L 322.94129 -147.861244 
L 323.320713 -148.462885 
L 325.54723 -148.52584 
L 326.634768 -148.652325 
L 337.135825 -148.799261 
L 338.298967 -149.009521 
L 340.932195 -149.172488 
L 341.60926 -149.387261 
L 342.270104 -148.917429 
L 343.843824 -148.416064 
L 344.223247 -147.880553 
L 346.449764 -147.397414 
L 347.210961 -147.619211 
L 347.537302 -147.652924 
L 348.465155 -147.019204 
L 359.201501 -146.446426 
L 361.834729 -146.528863 
L 362.511794 -145.954803 
L 363.172638 -145.262752 
L 364.746358 -144.658772 
L 365.125781 -144.061521 
L 367.352298 -143.453271 
L 368.113495 -142.864948 
L 368.439836 -142.138448 
L 368.489626 -141.449142 
L 369.367689 -140.825891 
L 380.104035 -140.189618 
L 382.737263 -139.516036 
L 383.414328 -138.89091 
L 385.648892 -138.1992 
L 386.028315 -137.584142 
L 388.254832 -136.959101 
L 389.016029 -136.28247 
L 389.34237 -135.529859 
L 389.39216 -134.845408 
L 390.270223 -134.2281 
L 394.526439 -133.517926 
L 401.006569 -132.73423 
L 403.639797 -132.047595 
L 404.316862 -131.306037 
L 406.551426 -130.554521 
L 406.930849 -129.948019 
L 409.157366 -129.288741 
L 409.918563 -128.487904 
L 410.244904 -127.722363 
L 410.294694 -127.004939 
L 411.172757 -126.238817 
L 415.428973 -126.223904 
L 424.542331 -126.114917 
L 425.219396 -126.079963 
L 427.45396 -125.955114 
L 427.833383 -125.209506 
L 430.0599 -124.543515 
L 430.821097 -124.514239 
L 431.147438 -124.411362 
L 431.197228 -123.69278 
L 432.075291 -123.605895 
L 432.36037 -123.606028 
L 436.331507 -123.612009 
L 448.356494 -123.557543 
L 451.723631 -123.550146 
L 452.049972 -123.497754 
L 452.099762 -123.516596 
L 452.977825 -123.528154 
L 453.262904 -123.479581 
L 455.896132 -123.417185 
L 456.573196 -123.357471 
L 457.234041 -123.2701 
L 459.187184 -123.287213 
L 461.413701 -123.293386 
L 469.259028 -123.302646 
L 472.626165 -123.308841 
L 472.952506 -123.318569 
L 473.002295 -123.33504 
L 473.880359 -123.280812 
L 474.165438 -123.269964 
L 476.798666 -123.240101 
L 477.47573 -123.21043 
L 478.136574 -123.213634 
L 480.089718 -123.293395 
L 482.316235 -123.300718 
L 490.161562 -123.271309 
L 493.528699 -123.292338 
L 493.85504 -123.254727 
L 493.904829 -123.274762 
L 494.782893 -123.277208 
L 495.067972 -123.194101 
L 497.7012 -123.191361 
L 498.378264 -123.252514 
L 499.039108 -123.311417 
L 500.992252 -123.334993 
L 503.218769 -123.325357 
L 514.431233 -123.291218 
L 514.757574 -123.298616 
L 514.807363 -123.270542 
L 515.685427 -123.328141 
L 515.970506 -123.286594 
L 518.603734 -123.290814 
L 519.280798 -123.375281 
L 519.941642 -123.402105 
L 521.515363 -123.433357 
L 521.894786 -123.471157 
L 524.121303 -123.438138 
L 535.333767 -123.4878 
L 535.709897 -123.482314 
L 536.87304 -123.488601 
L 536.87304 -223.155535 
L 536.87304 -223.155535 
L 535.709897 -223.030304 
L 535.333767 -223.238526 
L 524.121303 -223.184035 
L 521.894786 -223.189467 
L 521.515363 -223.058933 
L 519.941642 -222.847385 
L 519.280798 -222.83441 
L 518.603734 -222.789142 
L 515.970506 -222.79772 
L 515.685427 -222.848164 
L 514.807363 -222.802909 
L 514.757574 -223.000993 
L 514.431233 -223.033274 
L 503.218769 -223.01345 
L 500.992252 -223.014769 
L 499.039108 -222.97855 
L 498.378264 -222.79256 
L 497.7012 -222.73889 
L 495.067972 -222.713316 
L 494.782893 -222.835136 
L 493.904829 -222.829651 
L 493.85504 -222.82158 
L 493.528699 -223.052132 
L 490.161562 -223.045276 
L 482.316235 -223.012311 
L 480.089718 -223.021344 
L 478.136574 -222.944505 
L 477.47573 -222.806923 
L 476.798666 -222.891943 
L 474.165438 -222.900685 
L 473.880359 -223.050901 
L 473.002295 -223.656686 
L 472.952506 -223.701916 
L 472.626165 -223.910779 
L 469.259028 -223.92998 
L 461.413701 -223.901856 
L 459.187184 -223.89651 
L 457.234041 -223.878681 
L 456.573196 -224.472546 
L 455.896132 -225.177505 
L 453.262904 -225.748371 
L 452.977825 -226.406558 
L 452.099762 -226.747481 
L 452.049972 -227.269797 
L 451.723631 -228.029938 
L 448.356494 -228.560094 
L 436.331507 -229.150395 
L 432.36037 -229.612179 
L 432.075291 -230.11736 
L 431.197228 -230.625599 
L 431.147438 -231.918727 
L 430.821097 -232.290713 
L 430.0599 -232.881952 
L 427.833383 -234.090467 
L 427.45396 -235.414632 
L 425.219396 -236.134419 
L 424.542331 -236.695902 
L 415.428973 -237.278651 
L 411.172757 -237.749544 
L 410.294694 -239.048898 
L 410.244904 -239.977977 
L 409.918563 -240.711488 
L 409.157366 -241.682297 
L 406.930849 -242.652582 
L 406.551426 -243.434703 
L 404.316862 -244.28041 
L 403.639797 -245.286596 
L 401.006569 -246.075174 
L 394.526439 -246.866129 
L 390.270223 -247.566165 
L 389.39216 -247.818238 
L 389.34237 -248.591588 
L 389.016029 -249.075061 
L 388.254832 -249.792358 
L 386.028315 -250.461575 
L 385.648892 -251.172844 
L 383.414328 -251.933168 
L 382.737263 -252.145095 
L 380.104035 -252.272079 
L 369.367689 -252.424001 
L 368.489626 -252.515838 
L 368.439836 -252.842834 
L 368.113495 -252.792737 
L 367.352298 -252.873972 
L 365.125781 -253.019062 
L 364.746358 -253.100714 
L 363.172638 -253.2242 
L 362.511794 -253.407419 
L 361.834729 -253.595312 
L 359.201501 -252.996338 
L 348.465155 -253.310646 
L 347.537302 -253.320168 
L 347.210961 -252.806384 
L 346.449764 -251.730246 
L 344.223247 -251.760229 
L 343.843824 -251.808218 
L 342.270104 -251.877526 
L 341.60926 -251.894294 
L 340.932195 -251.150139 
L 338.298967 -250.759777 
L 337.135825 -250.570028 
L 326.634768 -250.266726 
L 325.54723 -249.780011 
L 323.320713 -249.551767 
L 322.94129 -248.558654 
L 321.36757 -248.181182 
L 320.706726 -247.548163 
L 320.029661 -247.320868 
L 317.396433 -246.65572 
L 317.111354 -246.057004 
L 316.233291 -245.740556 
L 315.85716 -245.460949 
L 304.644696 -245.262452 
L 302.418179 -244.654119 
L 300.465036 -244.108326 
L 299.804192 -243.143412 
L 299.127127 -242.427545 
L 296.493899 -241.823943 
L 296.20882 -241.15864 
L 295.330757 -240.464395 
L 295.280967 -239.902755 
L 294.954626 -239.552508 
L 291.587489 -239.063429 
L 283.742162 -238.497771 
L 281.515645 -237.684237 
L 279.562502 -237.129812 
L 278.901658 -236.143481 
L 278.224593 -235.443722 
L 275.591365 -234.788367 
L 275.306286 -234.252635 
L 274.428223 -233.653398 
L 274.378433 -232.822778 
L 274.052092 -232.605694 
L 270.684955 -232.042907 
L 260.613111 -231.458896 
L 258.659968 -230.807161 
L 257.999124 -230.278473 
L 257.322059 -229.716028 
L 254.688831 -229.178734 
L 254.403752 -228.632864 
L 253.525689 -228.081531 
L 253.475899 -227.276033 
L 253.149558 -226.58045 
L 252.388361 -226.666764 
L 249.782421 -226.177742 
L 237.757434 -226.100711 
L 233.501218 -225.535037 
L 232.623155 -225.340809 
L 232.573365 -225.147851 
L 232.247024 -224.719247 
L 231.485827 -224.405267 
L 229.25931 -223.556094 
L 228.879887 -223.458883 
L 226.645323 -223.19119 
L 225.968258 -223.371938 
L 223.33503 -223.279189 
L 216.8549 -223.154563 
L 212.598684 -223.066088 
L 211.720621 -223.013195 
L 211.670831 -222.918495 
L 211.34449 -222.599787 
L 210.583293 -222.302311 
L 208.356776 -222.188649 
L 207.977353 -222.318965 
L 205.742789 -222.115478 
L 205.065725 -222.467262 
L 202.432496 -222.495522 
L 191.69615 -222.44634 
L 190.768297 -222.254388 
L 189.680759 -222.217635 
L 187.454242 -222.410995 
L 187.074819 -222.318757 
L 185.501099 -222.177824 
L 184.840255 -222.15028 
L 184.163191 -222.152452 
L 181.529963 -222.004102 
L 180.36682 -222.078176 
L 179.990689 -222.111413 
L 170.793616 -222.078078 
L 169.865763 -221.958698 
L 168.778225 -222.256597 
L 166.551708 -222.499151 
L 166.172286 -222.356056 
L 164.598565 -222.304315 
L 163.937721 -222.251251 
L 163.260657 -222.228884 
L 160.627429 -222.264355 
L 159.464286 -222.282364 
L 159.088156 -222.212191 
L 149.891082 -222.259053 
L 148.963229 -222.433851 
L 147.875691 -222.366291 
L 145.649174 -222.239485 
L 145.269752 -222.275329 
L 143.696031 -222.36715 
L 143.035187 -222.384445 
L 142.358123 -222.409511 
L 139.724895 -222.44675 
L 138.561752 -222.409533 
L 138.185622 -222.761235 
L 128.060695 -222.861041 
L 124.74664 -222.632583 
L 122.793497 -222.59914 
L 122.132653 -222.526774 
L 121.455589 -222.465674 
L 118.822361 -222.503639 
L 118.537281 -222.575611 
L 117.659218 -222.639311 
L 117.283088 -222.677523 
L 116.52189 -222.725669 
L 113.915951 -222.769372 
L 103.844106 -222.73818 
L 101.890963 -222.641767 
L 101.230119 -222.610512 
L 100.553055 -222.607387 
L 97.919827 -222.531145 
L 97.634747 -222.558837 
L 96.756684 -222.659968 
L 96.706894 -222.717779 
L 96.380554 -222.740938 
L 95.619357 -222.693925 
L 93.013417 -222.91669 
L 82.941573 -222.73485 
L 80.988429 -222.575959 
L 80.327585 -222.591922 
z
" style="stroke: #009384; stroke-opacity: 0.7; stroke-width: 1.5"/>
    </defs>
    <g clip-path="url(#p0b67177e93)">
     <use xlink:href="#meb7f528205" x="0" y="287.233281" style="fill: #009384; fill-opacity: 0.7; stroke: #009384; stroke-opacity: 0.7; stroke-width: 1.5"/>
    </g>
   </g>
   <g id="PolyCollection_3">
    <defs>
     <path id="m34f75873ed" d="M 82.531653 -70.448776 
L 82.531653 -42.395313 
L 82.69648 -42.395313 
L 84.350811 -42.395313 
L 92.087685 -42.395313 
L 97.493216 -42.395313 
L 97.979378 -42.395313 
L 99.539773 -42.395313 
L 100.436032 -42.395313 
L 101.250604 -42.395313 
L 101.665707 -42.395313 
L 101.707261 -42.395313 
L 102.868784 -42.395313 
L 103.434187 -42.395313 
L 103.599014 -42.395313 
L 105.253345 -42.395313 
L 118.39575 -42.395313 
L 118.881912 -42.395313 
L 121.338566 -42.395313 
L 122.153138 -42.395313 
L 122.568241 -42.395313 
L 122.609795 -42.395313 
L 123.441486 -42.395313 
L 123.771318 -42.395313 
L 124.336721 -42.395313 
L 124.501548 -42.395313 
L 126.155879 -42.395313 
L 130.893574 -42.395313 
L 139.298284 -42.395313 
L 139.784446 -42.395313 
L 143.055672 -42.395313 
L 143.470775 -42.395313 
L 143.512329 -42.395313 
L 144.34402 -42.395313 
L 144.673852 -42.395313 
L 145.239255 -42.395313 
L 145.404082 -42.395313 
L 147.058413 -42.395313 
L 151.796108 -42.395313 
L 152.692367 -42.395313 
L 160.68698 -42.395313 
L 163.958206 -42.395313 
L 164.373309 -42.395313 
L 164.414863 -42.395313 
L 165.246554 -42.395313 
L 165.576386 -42.395313 
L 166.141789 -42.395313 
L 166.306616 -42.395313 
L 167.960947 -42.395313 
L 170.652085 -42.395313 
L 172.698642 -42.395313 
L 173.594901 -42.395313 
L 181.589514 -42.395313 
L 185.275843 -42.395313 
L 185.317397 -42.395313 
L 186.149088 -42.395313 
L 186.47892 -42.395313 
L 187.20915 -42.395313 
L 188.863481 -42.395313 
L 191.554619 -42.395313 
L 193.601176 -42.395313 
L 194.497435 -42.395313 
L 195.312006 -42.395313 
L 197.49559 -42.395313 
L 202.492048 -42.395313 
L 206.178377 -42.395313 
L 206.219931 -42.395313 
L 207.051622 -42.395313 
L 207.381454 -42.395313 
L 208.111684 -42.395313 
L 212.457153 -42.395313 
L 214.50371 -42.395313 
L 215.399969 -42.395313 
L 216.21454 -42.395313 
L 218.398124 -42.395313 
L 220.217282 -42.395313 
L 227.122465 -42.395313 
L 227.954156 -42.395313 
L 228.283988 -42.395313 
L 229.014218 -42.395313 
L 233.359687 -42.395313 
L 233.845849 -42.395313 
L 235.406244 -42.395313 
L 236.302503 -42.395313 
L 237.117074 -42.395313 
L 237.532178 -42.395313 
L 239.300658 -42.395313 
L 241.119816 -42.395313 
L 248.85669 -42.395313 
L 249.916752 -42.395313 
L 254.262221 -42.395313 
L 254.748383 -42.395313 
L 256.308778 -42.395313 
L 257.205037 -42.395313 
L 258.019608 -42.395313 
L 258.434712 -42.395313 
L 258.476266 -42.395313 
L 259.637788 -42.395313 
L 260.203192 -42.395313 
L 262.02235 -42.395313 
L 269.759224 -42.395313 
L 270.819285 -42.395313 
L 275.164755 -42.395313 
L 275.650917 -42.395313 
L 277.211312 -42.395313 
L 278.107571 -42.395313 
L 278.922142 -42.395313 
L 279.337246 -42.395313 
L 279.3788 -42.395313 
L 280.540322 -42.395313 
L 281.105726 -42.395313 
L 282.924883 -42.395313 
L 290.661758 -42.395313 
L 296.067289 -42.395313 
L 296.553451 -42.395313 
L 298.113846 -42.395313 
L 299.010105 -42.395313 
L 299.824676 -42.395313 
L 300.23978 -42.395313 
L 300.281334 -42.395313 
L 301.442856 -42.395313 
L 302.008259 -42.395313 
L 302.173086 -42.395313 
L 303.827417 -42.395313 
L 311.564292 -42.395313 
L 316.969823 -42.395313 
L 317.455985 -42.395313 
L 319.01638 -42.395313 
L 319.912638 -42.395313 
L 320.72721 -42.395313 
L 321.142314 -42.395313 
L 321.183868 -42.395313 
L 322.34539 -42.395313 
L 322.910793 -42.395313 
L 323.07562 -42.395313 
L 324.729951 -42.395313 
L 337.872357 -42.395313 
L 338.358519 -42.395313 
L 340.815172 -42.395313 
L 341.629744 -42.395313 
L 342.044848 -42.395313 
L 342.086402 -42.395313 
L 342.918093 -42.395313 
L 343.247924 -42.395313 
L 343.813327 -42.395313 
L 343.978154 -42.395313 
L 345.632485 -42.395313 
L 350.370181 -42.395313 
L 359.261052 -42.395313 
L 362.532278 -42.395313 
L 362.947382 -42.395313 
L 362.988936 -42.395313 
L 363.820627 -42.395313 
L 364.150458 -42.395313 
L 364.715861 -42.395313 
L 364.880688 -42.395313 
L 366.535019 -42.395313 
L 369.226158 -42.395313 
L 371.272715 -42.395313 
L 372.168973 -42.395313 
L 380.163586 -42.395313 
L 383.434812 -42.395313 
L 383.849916 -42.395313 
L 383.89147 -42.395313 
L 384.723161 -42.395313 
L 385.052992 -42.395313 
L 385.783222 -42.395313 
L 387.437553 -42.395313 
L 390.128692 -42.395313 
L 392.175248 -42.395313 
L 393.071507 -42.395313 
L 396.069662 -42.395313 
L 401.06612 -42.395313 
L 404.752449 -42.395313 
L 404.794004 -42.395313 
L 405.625695 -42.395313 
L 405.955526 -42.395313 
L 406.685756 -42.395313 
L 408.340087 -42.395313 
L 411.031226 -42.395313 
L 413.077782 -42.395313 
L 413.974041 -42.395313 
L 414.788613 -42.395313 
L 416.972196 -42.395313 
L 425.654983 -42.395313 
L 425.696538 -42.395313 
L 426.528229 -42.395313 
L 426.85806 -42.395313 
L 427.58829 -42.395313 
L 431.93376 -42.395313 
L 432.419921 -42.395313 
L 433.980316 -42.395313 
L 434.876575 -42.395313 
L 435.691147 -42.395313 
L 437.87473 -42.395313 
L 439.693888 -42.395313 
L 446.599072 -42.395313 
L 447.430763 -42.395313 
L 447.760594 -42.395313 
L 448.490824 -42.395313 
L 452.836294 -42.395313 
L 453.322455 -42.395313 
L 454.88285 -42.395313 
L 455.779109 -42.395313 
L 456.593681 -42.395313 
L 457.008784 -42.395313 
L 458.777264 -42.395313 
L 460.596422 -42.395313 
L 468.333296 -42.395313 
L 469.393358 -42.395313 
L 469.393358 -70.000672 
L 469.393358 -70.000672 
L 468.333296 -70.00578 
L 460.596422 -70.022198 
L 458.777264 -70.104905 
L 457.008784 -70.103466 
L 456.593681 -70.116419 
L 455.779109 -70.061372 
L 454.88285 -70.016513 
L 453.322455 -70.019938 
L 452.836294 -70.035893 
L 448.490824 -70.035919 
L 447.760594 -70.077441 
L 447.430763 -70.089973 
L 446.599072 -70.112422 
L 439.693888 -70.108445 
L 437.87473 -70.110523 
L 435.691147 -70.155362 
L 434.876575 -70.193447 
L 433.980316 -70.14216 
L 432.419921 -70.12185 
L 431.93376 -70.130648 
L 427.58829 -70.15021 
L 426.85806 -70.184215 
L 426.528229 -70.216438 
L 425.696538 -70.274723 
L 425.654983 -70.282996 
L 416.972196 -70.287905 
L 414.788613 -70.282454 
L 413.974041 -70.222164 
L 413.077782 -70.197719 
L 411.031226 -70.799341 
L 408.340087 -71.330662 
L 406.685756 -71.455512 
L 405.955526 -72.035341 
L 405.625695 -72.566378 
L 404.794004 -73.171352 
L 404.752449 -73.746797 
L 401.06612 -74.351019 
L 396.069662 -74.358539 
L 393.071507 -74.341125 
L 392.175248 -74.878837 
L 390.128692 -75.480436 
L 387.437553 -75.995702 
L 385.783222 -76.558308 
L 385.052992 -77.109932 
L 384.723161 -77.591373 
L 383.89147 -78.171395 
L 383.849916 -78.735607 
L 383.434812 -79.354321 
L 380.163586 -79.907592 
L 372.168973 -80.457675 
L 371.272715 -81.045628 
L 369.226158 -81.62954 
L 366.535019 -82.155756 
L 364.880688 -82.58809 
L 364.715861 -82.917747 
L 364.150458 -83.461321 
L 363.820627 -84.041924 
L 362.988936 -84.612563 
L 362.947382 -85.167124 
L 362.532278 -85.785761 
L 359.261052 -86.350741 
L 350.370181 -86.765338 
L 345.632485 -87.055502 
L 343.978154 -87.178948 
L 343.813327 -87.240006 
L 343.247924 -87.294235 
L 342.918093 -87.370509 
L 342.086402 -87.451115 
L 342.044848 -87.562589 
L 341.629744 -87.7838 
L 340.815172 -88.054469 
L 338.358519 -87.881415 
L 337.872357 -87.39988 
L 324.729951 -87.37667 
L 323.07562 -86.856702 
L 322.910793 -86.387081 
L 322.34539 -85.862612 
L 321.183868 -85.308503 
L 321.142314 -84.735265 
L 320.72721 -84.755064 
L 319.912638 -84.848365 
L 319.01638 -84.358827 
L 317.455985 -83.859612 
L 316.969823 -83.369016 
L 311.564292 -82.850394 
L 303.827417 -82.293964 
L 302.173086 -81.77353 
L 302.008259 -81.201294 
L 301.442856 -80.609458 
L 300.281334 -80.02164 
L 300.23978 -79.501072 
L 299.824676 -78.951217 
L 299.010105 -78.358865 
L 298.113846 -77.779426 
L 296.553451 -77.249658 
L 296.067289 -76.811105 
L 290.661758 -76.494689 
L 282.924883 -75.91825 
L 281.105726 -75.323369 
L 280.540322 -74.695485 
L 279.3788 -74.096 
L 279.337246 -73.470373 
L 278.922142 -72.901044 
L 278.107571 -72.474964 
L 277.211312 -72.207366 
L 275.650917 -72.048066 
L 275.164755 -72.000522 
L 270.819285 -71.875235 
L 269.759224 -71.775794 
L 262.02235 -71.716193 
L 260.203192 -71.606287 
L 259.637788 -71.357838 
L 258.476266 -71.062807 
L 258.434712 -70.618873 
L 258.019608 -70.543619 
L 257.205037 -70.433619 
L 256.308778 -70.34612 
L 254.748383 -70.256872 
L 254.262221 -70.170092 
L 249.916752 -70.14228 
L 248.85669 -70.105673 
L 241.119816 -70.073608 
L 239.300658 -69.975993 
L 237.532178 -69.912286 
L 237.117074 -69.799507 
L 236.302503 -69.775115 
L 235.406244 -69.712425 
L 233.845849 -69.698607 
L 233.359687 -69.645503 
L 229.014218 -69.638317 
L 228.283988 -69.630967 
L 227.954156 -69.599131 
L 227.122465 -69.585298 
L 220.217282 -69.59188 
L 218.398124 -69.584173 
L 216.21454 -69.616897 
L 215.399969 -69.577365 
L 214.50371 -69.571849 
L 212.457153 -69.554842 
L 208.111684 -69.575035 
L 207.381454 -69.579305 
L 207.051622 -69.582241 
L 206.219931 -69.596024 
L 206.178377 -69.624147 
L 202.492048 -69.63973 
L 197.49559 -69.623403 
L 195.312006 -69.585952 
L 194.497435 -69.625932 
L 193.601176 -69.601522 
L 191.554619 -69.623306 
L 188.863481 -69.632784 
L 187.20915 -69.658738 
L 186.47892 -69.649547 
L 186.149088 -69.646347 
L 185.317397 -69.703343 
L 185.275843 -69.745152 
L 181.589514 -69.723538 
L 173.594901 -69.755096 
L 172.698642 -69.797303 
L 170.652085 -69.816467 
L 167.960947 -69.829066 
L 166.306616 -69.88312 
L 166.141789 -69.910363 
L 165.576386 -69.877713 
L 165.246554 -69.872569 
L 164.414863 -69.873709 
L 164.373309 -69.939629 
L 163.958206 -69.935424 
L 160.68698 -69.968637 
L 152.692367 -69.980119 
L 151.796108 -70.047968 
L 147.058413 -70.052818 
L 145.404082 -70.100887 
L 145.239255 -70.122099 
L 144.673852 -70.117457 
L 144.34402 -70.106921 
L 143.512329 -70.121536 
L 143.470775 -70.102165 
L 143.055672 -70.143672 
L 139.784446 -70.164046 
L 139.298284 -70.142497 
L 130.893574 -70.19296 
L 126.155879 -70.218369 
L 124.501548 -70.251272 
L 124.336721 -70.281267 
L 123.771318 -70.285511 
L 123.441486 -70.281736 
L 122.609795 -70.285455 
L 122.568241 -70.288113 
L 122.153138 -70.27494 
L 121.338566 -70.273521 
L 118.881912 -70.283887 
L 118.39575 -70.328653 
L 105.253345 -70.298072 
L 103.599014 -70.349866 
L 103.434187 -70.368912 
L 102.868784 -70.348365 
L 101.707261 -70.34656 
L 101.665707 -70.375788 
L 101.250604 -70.367262 
L 100.436032 -70.349778 
L 99.539773 -70.354013 
L 97.979378 -70.363942 
L 97.493216 -70.362937 
L 92.087685 -70.373713 
L 84.350811 -70.39996 
L 82.69648 -70.440573 
L 82.531653 -70.448776 
z
" style="stroke: #b85741; stroke-opacity: 0.7; stroke-width: 1.5"/>
    </defs>
    <g clip-path="url(#p0b67177e93)">
     <use xlink:href="#m34f75873ed" x="0" y="287.233281" style="fill: #b85741; fill-opacity: 0.7; stroke: #b85741; stroke-opacity: 0.7; stroke-width: 1.5"/>
    </g>
   </g>
   <g id="PolyCollection_4">
    <defs>
     <path id="m794b2372c0" d="M 82.531653 -97.977065 
L 82.531653 -70.448776 
L 82.69648 -70.440573 
L 84.350811 -70.39996 
L 92.087685 -70.373713 
L 97.493216 -70.362937 
L 97.979378 -70.363942 
L 99.539773 -70.354013 
L 100.436032 -70.349778 
L 101.250604 -70.367262 
L 101.665707 -70.375788 
L 101.707261 -70.34656 
L 102.868784 -70.348365 
L 103.434187 -70.368912 
L 103.599014 -70.349866 
L 105.253345 -70.298072 
L 118.39575 -70.328653 
L 118.881912 -70.283887 
L 121.338566 -70.273521 
L 122.153138 -70.27494 
L 122.568241 -70.288113 
L 122.609795 -70.285455 
L 123.441486 -70.281736 
L 123.771318 -70.285511 
L 124.336721 -70.281267 
L 124.501548 -70.251272 
L 126.155879 -70.218369 
L 130.893574 -70.19296 
L 139.298284 -70.142497 
L 139.784446 -70.164046 
L 143.055672 -70.143672 
L 143.470775 -70.102165 
L 143.512329 -70.121536 
L 144.34402 -70.106921 
L 144.673852 -70.117457 
L 145.239255 -70.122099 
L 145.404082 -70.100887 
L 147.058413 -70.052818 
L 151.796108 -70.047968 
L 152.692367 -69.980119 
L 160.68698 -69.968637 
L 163.958206 -69.935424 
L 164.373309 -69.939629 
L 164.414863 -69.873709 
L 165.246554 -69.872569 
L 165.576386 -69.877713 
L 166.141789 -69.910363 
L 166.306616 -69.88312 
L 167.960947 -69.829066 
L 170.652085 -69.816467 
L 172.698642 -69.797303 
L 173.594901 -69.755096 
L 181.589514 -69.723538 
L 185.275843 -69.745152 
L 185.317397 -69.703343 
L 186.149088 -69.646347 
L 186.47892 -69.649547 
L 187.20915 -69.658738 
L 188.863481 -69.632784 
L 191.554619 -69.623306 
L 193.601176 -69.601522 
L 194.497435 -69.625932 
L 195.312006 -69.585952 
L 197.49559 -69.623403 
L 202.492048 -69.63973 
L 206.178377 -69.624147 
L 206.219931 -69.596024 
L 207.051622 -69.582241 
L 207.381454 -69.579305 
L 208.111684 -69.575035 
L 212.457153 -69.554842 
L 214.50371 -69.571849 
L 215.399969 -69.577365 
L 216.21454 -69.616897 
L 218.398124 -69.584173 
L 220.217282 -69.59188 
L 227.122465 -69.585298 
L 227.954156 -69.599131 
L 228.283988 -69.630967 
L 229.014218 -69.638317 
L 233.359687 -69.645503 
L 233.845849 -69.698607 
L 235.406244 -69.712425 
L 236.302503 -69.775115 
L 237.117074 -69.799507 
L 237.532178 -69.912286 
L 239.300658 -69.975993 
L 241.119816 -70.073608 
L 248.85669 -70.105673 
L 249.916752 -70.14228 
L 254.262221 -70.170092 
L 254.748383 -70.256872 
L 256.308778 -70.34612 
L 257.205037 -70.433619 
L 258.019608 -70.543619 
L 258.434712 -70.618873 
L 258.476266 -71.062807 
L 259.637788 -71.357838 
L 260.203192 -71.606287 
L 262.02235 -71.716193 
L 269.759224 -71.775794 
L 270.819285 -71.875235 
L 275.164755 -72.000522 
L 275.650917 -72.048066 
L 277.211312 -72.207366 
L 278.107571 -72.474964 
L 278.922142 -72.901044 
L 279.337246 -73.470373 
L 279.3788 -74.096 
L 280.540322 -74.695485 
L 281.105726 -75.323369 
L 282.924883 -75.91825 
L 290.661758 -76.494689 
L 296.067289 -76.811105 
L 296.553451 -77.249658 
L 298.113846 -77.779426 
L 299.010105 -78.358865 
L 299.824676 -78.951217 
L 300.23978 -79.501072 
L 300.281334 -80.02164 
L 301.442856 -80.609458 
L 302.008259 -81.201294 
L 302.173086 -81.77353 
L 303.827417 -82.293964 
L 311.564292 -82.850394 
L 316.969823 -83.369016 
L 317.455985 -83.859612 
L 319.01638 -84.358827 
L 319.912638 -84.848365 
L 320.72721 -84.755064 
L 321.142314 -84.735265 
L 321.183868 -85.308503 
L 322.34539 -85.862612 
L 322.910793 -86.387081 
L 323.07562 -86.856702 
L 324.729951 -87.37667 
L 337.872357 -87.39988 
L 338.358519 -87.881415 
L 340.815172 -88.054469 
L 341.629744 -87.7838 
L 342.044848 -87.562589 
L 342.086402 -87.451115 
L 342.918093 -87.370509 
L 343.247924 -87.294235 
L 343.813327 -87.240006 
L 343.978154 -87.178948 
L 345.632485 -87.055502 
L 350.370181 -86.765338 
L 359.261052 -86.350741 
L 362.532278 -85.785761 
L 362.947382 -85.167124 
L 362.988936 -84.612563 
L 363.820627 -84.041924 
L 364.150458 -83.461321 
L 364.715861 -82.917747 
L 364.880688 -82.58809 
L 366.535019 -82.155756 
L 369.226158 -81.62954 
L 371.272715 -81.045628 
L 372.168973 -80.457675 
L 380.163586 -79.907592 
L 383.434812 -79.354321 
L 383.849916 -78.735607 
L 383.89147 -78.171395 
L 384.723161 -77.591373 
L 385.052992 -77.109932 
L 385.783222 -76.558308 
L 387.437553 -75.995702 
L 390.128692 -75.480436 
L 392.175248 -74.878837 
L 393.071507 -74.341125 
L 396.069662 -74.358539 
L 401.06612 -74.351019 
L 404.752449 -73.746797 
L 404.794004 -73.171352 
L 405.625695 -72.566378 
L 405.955526 -72.035341 
L 406.685756 -71.455512 
L 408.340087 -71.330662 
L 411.031226 -70.799341 
L 413.077782 -70.197719 
L 413.974041 -70.222164 
L 414.788613 -70.282454 
L 416.972196 -70.287905 
L 425.654983 -70.282996 
L 425.696538 -70.274723 
L 426.528229 -70.216438 
L 426.85806 -70.184215 
L 427.58829 -70.15021 
L 431.93376 -70.130648 
L 432.419921 -70.12185 
L 433.980316 -70.14216 
L 434.876575 -70.193447 
L 435.691147 -70.155362 
L 437.87473 -70.110523 
L 439.693888 -70.108445 
L 446.599072 -70.112422 
L 447.430763 -70.089973 
L 447.760594 -70.077441 
L 448.490824 -70.035919 
L 452.836294 -70.035893 
L 453.322455 -70.019938 
L 454.88285 -70.016513 
L 455.779109 -70.061372 
L 456.593681 -70.116419 
L 457.008784 -70.103466 
L 458.777264 -70.104905 
L 460.596422 -70.022198 
L 468.333296 -70.00578 
L 468.333296 -97.071807 
L 468.333296 -97.071807 
L 460.596422 -97.124029 
L 458.777264 -97.222145 
L 457.008784 -97.226957 
L 456.593681 -97.239524 
L 455.779109 -97.174126 
L 454.88285 -97.118683 
L 453.322455 -97.096231 
L 452.836294 -97.118856 
L 448.490824 -97.067505 
L 447.760594 -97.132006 
L 447.430763 -97.199848 
L 446.599072 -97.264751 
L 439.693888 -97.309344 
L 437.87473 -97.331172 
L 435.691147 -97.385501 
L 434.876575 -97.42377 
L 433.980316 -97.344252 
L 432.419921 -97.321551 
L 431.93376 -97.329546 
L 427.58829 -97.317662 
L 426.85806 -97.406581 
L 426.528229 -97.442321 
L 425.696538 -97.470374 
L 425.654983 -97.51383 
L 416.972196 -97.530772 
L 414.788613 -97.564706 
L 413.974041 -97.556612 
L 413.077782 -97.525406 
L 411.031226 -98.112755 
L 408.340087 -98.625015 
L 406.685756 -98.81587 
L 405.955526 -99.388621 
L 405.625695 -99.912709 
L 404.794004 -100.518308 
L 404.752449 -101.064121 
L 401.06612 -101.652754 
L 396.069662 -101.706889 
L 393.071507 -101.71205 
L 392.175248 -102.306636 
L 390.128692 -102.878095 
L 387.437553 -103.36222 
L 385.783222 -103.958388 
L 385.052992 -104.488829 
L 384.723161 -104.961739 
L 383.89147 -105.53452 
L 383.849916 -106.15425 
L 383.434812 -106.792242 
L 380.163586 -107.385388 
L 372.168973 -107.964623 
L 371.272715 -108.550568 
L 369.226158 -109.102014 
L 366.535019 -109.662551 
L 364.880688 -110.10909 
L 364.715861 -110.478604 
L 364.150458 -111.750001 
L 363.820627 -113.095424 
L 362.988936 -114.403167 
L 362.947382 -115.743071 
L 362.532278 -116.443929 
L 359.261052 -117.820062 
L 350.370181 -118.273216 
L 345.632485 -118.564209 
L 343.978154 -118.644838 
L 343.813327 -119.4677 
L 343.247924 -120.279419 
L 342.918093 -121.057026 
L 342.086402 -121.9068 
L 342.044848 -122.761946 
L 341.629744 -123.749231 
L 340.815172 -124.782941 
L 338.358519 -125.40559 
L 337.872357 -125.673208 
L 324.729951 -126.401063 
L 323.07562 -126.674267 
L 322.910793 -126.960498 
L 322.34539 -127.12944 
L 321.183868 -127.293444 
L 321.142314 -127.439784 
L 320.72721 -128.122906 
L 319.912638 -128.938394 
L 319.01638 -129.151885 
L 317.455985 -129.454912 
L 316.969823 -129.710661 
L 311.564292 -129.894461 
L 303.827417 -130.053125 
L 302.173086 -130.23224 
L 302.008259 -130.395895 
L 301.442856 -130.37698 
L 300.281334 -130.293854 
L 300.23978 -130.295202 
L 299.824676 -130.324588 
L 299.010105 -130.367778 
L 298.113846 -130.496827 
L 296.553451 -130.602953 
L 296.067289 -130.64044 
L 290.661758 -130.807635 
L 282.924883 -129.98584 
L 281.105726 -129.261135 
L 280.540322 -128.513392 
L 279.3788 -127.246486 
L 279.337246 -126.630887 
L 278.922142 -125.41658 
L 278.107571 -125.474956 
L 277.211312 -125.431084 
L 275.650917 -125.35343 
L 275.164755 -124.640908 
L 270.819285 -123.841175 
L 269.759224 -123.163611 
L 262.02235 -122.417116 
L 260.203192 -121.609453 
L 259.637788 -120.707996 
L 258.476266 -119.691029 
L 258.434712 -118.552123 
L 258.019608 -117.762855 
L 257.205037 -116.901754 
L 256.308778 -116.106118 
L 254.748383 -115.286802 
L 254.262221 -114.50725 
L 249.916752 -113.799587 
L 248.85669 -113.044776 
L 241.119816 -112.317325 
L 239.300658 -111.539567 
L 237.532178 -110.785681 
L 237.117074 -109.889573 
L 236.302503 -109.133343 
L 235.406244 -108.316764 
L 233.845849 -107.57677 
L 233.359687 -106.854141 
L 229.014218 -106.101442 
L 228.283988 -105.469848 
L 227.954156 -104.899808 
L 227.122465 -104.41978 
L 220.217282 -103.831311 
L 218.398124 -103.195699 
L 216.21454 -102.528925 
L 215.399969 -101.798804 
L 214.50371 -101.288072 
L 212.457153 -100.715065 
L 208.111684 -100.278572 
L 207.381454 -99.666142 
L 207.051622 -99.0153 
L 206.219931 -98.926421 
L 206.178377 -98.926617 
L 202.492048 -98.798001 
L 197.49559 -98.271921 
L 195.312006 -98.022716 
L 194.497435 -97.97065 
L 193.601176 -97.876349 
L 191.554619 -97.842412 
L 188.863481 -97.695942 
L 187.20915 -97.667125 
L 186.47892 -97.572634 
L 186.149088 -97.427794 
L 185.317397 -97.509633 
L 185.275843 -97.45582 
L 181.589514 -97.40603 
L 173.594901 -97.40914 
L 172.698642 -97.376126 
L 170.652085 -97.38187 
L 167.960947 -97.402748 
L 166.306616 -97.446093 
L 166.141789 -97.459029 
L 165.576386 -97.44466 
L 165.246554 -97.38692 
L 164.414863 -97.316982 
L 164.373309 -97.441064 
L 163.958206 -97.431322 
L 160.68698 -97.485906 
L 152.692367 -97.500097 
L 151.796108 -97.526139 
L 147.058413 -97.553719 
L 145.404082 -97.617362 
L 145.239255 -97.638287 
L 144.673852 -97.564067 
L 144.34402 -97.535215 
L 143.512329 -97.525365 
L 143.470775 -97.519594 
L 143.055672 -97.58523 
L 139.784446 -97.578618 
L 139.298284 -97.575565 
L 130.893574 -97.555422 
L 126.155879 -97.58472 
L 124.501548 -97.654687 
L 124.336721 -97.693914 
L 123.771318 -97.649201 
L 123.441486 -97.643134 
L 122.609795 -97.623745 
L 122.568241 -97.639954 
L 122.153138 -97.67611 
L 121.338566 -97.64974 
L 118.881912 -97.671125 
L 118.39575 -97.733686 
L 105.253345 -97.708225 
L 103.599014 -97.795788 
L 103.434187 -97.831932 
L 102.868784 -97.772873 
L 101.707261 -97.792423 
L 101.665707 -97.786354 
L 101.250604 -97.769406 
L 100.436032 -97.78141 
L 99.539773 -97.801772 
L 97.979378 -97.835988 
L 97.493216 -97.824473 
L 92.087685 -97.849835 
L 84.350811 -97.890604 
L 82.69648 -97.93945 
L 82.531653 -97.977065 
z
" style="stroke: #b85741; stroke-opacity: 0.7; stroke-width: 1.5"/>
    </defs>
    <g clip-path="url(#p0b67177e93)">
     <use xlink:href="#m794b2372c0" x="0" y="287.233281" style="fill: #b85741; fill-opacity: 0.7; stroke: #b85741; stroke-opacity: 0.7; stroke-width: 1.5"/>
    </g>
   </g>
   <g id="matplotlib.axis_1">
    <g id="xtick_1">
     <g id="line2d_1">
      <defs>
       <path id="m5ebb377cb7" d="M 0 0 
L 0 3.5 
" style="stroke: #000000; stroke-width: 0.8"/>
      </defs>
      <g>
       <use xlink:href="#m5ebb377cb7" x="58.834231" y="244.837969" style="stroke: #000000; stroke-width: 0.8"/>
      </g>
     </g>
     <g id="text_1">
      <!-- −10 -->
      <g transform="translate(46.171418 260.956094) scale(0.12 -0.12)">
       <defs>
        <path id="DejaVuSans-2212" d="M 678 2272 
L 4684 2272 
L 4684 1741 
L 678 1741 
L 678 2272 
z
" transform="scale(0.015625)"/>
        <path id="DejaVuSans-31" d="M 794 531 
L 1825 531 
L 1825 4091 
L 703 3866 
L 703 4441 
L 1819 4666 
L 2450 4666 
L 2450 531 
L 3481 531 
L 3481 0 
L 794 0 
L 794 531 
z
" transform="scale(0.015625)"/>
        <path id="DejaVuSans-30" d="M 2034 4250 
Q 1547 4250 1301 3770 
Q 1056 3291 1056 2328 
Q 1056 1369 1301 889 
Q 1547 409 2034 409 
Q 2525 409 2770 889 
Q 3016 1369 3016 2328 
Q 3016 3291 2770 3770 
Q 2525 4250 2034 4250 
z
M 2034 4750 
Q 2819 4750 3233 4129 
Q 3647 3509 3647 2328 
Q 3647 1150 3233 529 
Q 2819 -91 2034 -91 
Q 1250 -91 836 529 
Q 422 1150 422 2328 
Q 422 3509 836 4129 
Q 1250 4750 2034 4750 
z
" transform="scale(0.015625)"/>
       </defs>
       <use xlink:href="#DejaVuSans-2212"/>
       <use xlink:href="#DejaVuSans-31" x="83.789062"/>
       <use xlink:href="#DejaVuSans-30" x="147.412109"/>
      </g>
     </g>
    </g>
    <g id="xtick_2">
     <g id="line2d_2">
      <g>
       <use xlink:href="#m5ebb377cb7" x="163.3469" y="244.837969" style="stroke: #000000; stroke-width: 0.8"/>
      </g>
     </g>
     <g id="text_2">
      <!-- 0 -->
      <g transform="translate(159.5294 260.956094) scale(0.12 -0.12)">
       <use xlink:href="#DejaVuSans-30"/>
      </g>
     </g>
    </g>
    <g id="xtick_3">
     <g id="line2d_3">
      <g>
       <use xlink:href="#m5ebb377cb7" x="267.85957" y="244.837969" style="stroke: #000000; stroke-width: 0.8"/>
      </g>
     </g>
     <g id="text_3">
      <!-- 10 -->
      <g transform="translate(260.22457 260.956094) scale(0.12 -0.12)">
       <use xlink:href="#DejaVuSans-31"/>
       <use xlink:href="#DejaVuSans-30" x="63.623047"/>
      </g>
     </g>
    </g>
    <g id="xtick_4">
     <g id="line2d_4">
      <g>
       <use xlink:href="#m5ebb377cb7" x="372.37224" y="244.837969" style="stroke: #000000; stroke-width: 0.8"/>
      </g>
     </g>
     <g id="text_4">
      <!-- 20 -->
      <g transform="translate(364.73724 260.956094) scale(0.12 -0.12)">
       <defs>
        <path id="DejaVuSans-32" d="M 1228 531 
L 3431 531 
L 3431 0 
L 469 0 
L 469 531 
Q 828 903 1448 1529 
Q 2069 2156 2228 2338 
Q 2531 2678 2651 2914 
Q 2772 3150 2772 3378 
Q 2772 3750 2511 3984 
Q 2250 4219 1831 4219 
Q 1534 4219 1204 4116 
Q 875 4013 500 3803 
L 500 4441 
Q 881 4594 1212 4672 
Q 1544 4750 1819 4750 
Q 2544 4750 2975 4387 
Q 3406 4025 3406 3419 
Q 3406 3131 3298 2873 
Q 3191 2616 2906 2266 
Q 2828 2175 2409 1742 
Q 1991 1309 1228 531 
z
" transform="scale(0.015625)"/>
       </defs>
       <use xlink:href="#DejaVuSans-32"/>
       <use xlink:href="#DejaVuSans-30" x="63.623047"/>
      </g>
     </g>
    </g>
    <g id="xtick_5">
     <g id="line2d_5">
      <g>
       <use xlink:href="#m5ebb377cb7" x="476.88491" y="244.837969" style="stroke: #000000; stroke-width: 0.8"/>
      </g>
     </g>
     <g id="text_5">
      <!-- 30 -->
      <g transform="translate(469.24991 260.956094) scale(0.12 -0.12)">
       <defs>
        <path id="DejaVuSans-33" d="M 2597 2516 
Q 3050 2419 3304 2112 
Q 3559 1806 3559 1356 
Q 3559 666 3084 287 
Q 2609 -91 1734 -91 
Q 1441 -91 1130 -33 
Q 819 25 488 141 
L 488 750 
Q 750 597 1062 519 
Q 1375 441 1716 441 
Q 2309 441 2620 675 
Q 2931 909 2931 1356 
Q 2931 1769 2642 2001 
Q 2353 2234 1838 2234 
L 1294 2234 
L 1294 2753 
L 1863 2753 
Q 2328 2753 2575 2939 
Q 2822 3125 2822 3475 
Q 2822 3834 2567 4026 
Q 2313 4219 1838 4219 
Q 1578 4219 1281 4162 
Q 984 4106 628 3988 
L 628 4550 
Q 988 4650 1302 4700 
Q 1616 4750 1894 4750 
Q 2613 4750 3031 4423 
Q 3450 4097 3450 3541 
Q 3450 3153 3228 2886 
Q 3006 2619 2597 2516 
z
" transform="scale(0.015625)"/>
       </defs>
       <use xlink:href="#DejaVuSans-33"/>
       <use xlink:href="#DejaVuSans-30" x="63.623047"/>
      </g>
     </g>
    </g>
    <g id="text_6">
     <!-- Time (s) -->
     <g transform="translate(282.172734 277.329687) scale(0.13 -0.13)">
      <defs>
       <path id="DejaVuSans-54" d="M -19 4666 
L 3928 4666 
L 3928 4134 
L 2272 4134 
L 2272 0 
L 1638 0 
L 1638 4134 
L -19 4134 
L -19 4666 
z
" transform="scale(0.015625)"/>
       <path id="DejaVuSans-69" d="M 603 3500 
L 1178 3500 
L 1178 0 
L 603 0 
L 603 3500 
z
M 603 4863 
L 1178 4863 
L 1178 4134 
L 603 4134 
L 603 4863 
z
" transform="scale(0.015625)"/>
       <path id="DejaVuSans-6d" d="M 3328 2828 
Q 3544 3216 3844 3400 
Q 4144 3584 4550 3584 
Q 5097 3584 5394 3201 
Q 5691 2819 5691 2113 
L 5691 0 
L 5113 0 
L 5113 2094 
Q 5113 2597 4934 2840 
Q 4756 3084 4391 3084 
Q 3944 3084 3684 2787 
Q 3425 2491 3425 1978 
L 3425 0 
L 2847 0 
L 2847 2094 
Q 2847 2600 2669 2842 
Q 2491 3084 2119 3084 
Q 1678 3084 1418 2786 
Q 1159 2488 1159 1978 
L 1159 0 
L 581 0 
L 581 3500 
L 1159 3500 
L 1159 2956 
Q 1356 3278 1631 3431 
Q 1906 3584 2284 3584 
Q 2666 3584 2933 3390 
Q 3200 3197 3328 2828 
z
" transform="scale(0.015625)"/>
       <path id="DejaVuSans-65" d="M 3597 1894 
L 3597 1613 
L 953 1613 
Q 991 1019 1311 708 
Q 1631 397 2203 397 
Q 2534 397 2845 478 
Q 3156 559 3463 722 
L 3463 178 
Q 3153 47 2828 -22 
Q 2503 -91 2169 -91 
Q 1331 -91 842 396 
Q 353 884 353 1716 
Q 353 2575 817 3079 
Q 1281 3584 2069 3584 
Q 2775 3584 3186 3129 
Q 3597 2675 3597 1894 
z
M 3022 2063 
Q 3016 2534 2758 2815 
Q 2500 3097 2075 3097 
Q 1594 3097 1305 2825 
Q 1016 2553 972 2059 
L 3022 2063 
z
" transform="scale(0.015625)"/>
       <path id="DejaVuSans-20" transform="scale(0.015625)"/>
       <path id="DejaVuSans-28" d="M 1984 4856 
Q 1566 4138 1362 3434 
Q 1159 2731 1159 2009 
Q 1159 1288 1364 580 
Q 1569 -128 1984 -844 
L 1484 -844 
Q 1016 -109 783 600 
Q 550 1309 550 2009 
Q 550 2706 781 3412 
Q 1013 4119 1484 4856 
L 1984 4856 
z
" transform="scale(0.015625)"/>
       <path id="DejaVuSans-73" d="M 2834 3397 
L 2834 2853 
Q 2591 2978 2328 3040 
Q 2066 3103 1784 3103 
Q 1356 3103 1142 2972 
Q 928 2841 928 2578 
Q 928 2378 1081 2264 
Q 1234 2150 1697 2047 
L 1894 2003 
Q 2506 1872 2764 1633 
Q 3022 1394 3022 966 
Q 3022 478 2636 193 
Q 2250 -91 1575 -91 
Q 1294 -91 989 -36 
Q 684 19 347 128 
L 347 722 
Q 666 556 975 473 
Q 1284 391 1588 391 
Q 1994 391 2212 530 
Q 2431 669 2431 922 
Q 2431 1156 2273 1281 
Q 2116 1406 1581 1522 
L 1381 1569 
Q 847 1681 609 1914 
Q 372 2147 372 2553 
Q 372 3047 722 3315 
Q 1072 3584 1716 3584 
Q 2034 3584 2315 3537 
Q 2597 3491 2834 3397 
z
" transform="scale(0.015625)"/>
       <path id="DejaVuSans-29" d="M 513 4856 
L 1013 4856 
Q 1481 4119 1714 3412 
Q 1947 2706 1947 2009 
Q 1947 1309 1714 600 
Q 1481 -109 1013 -844 
L 513 -844 
Q 928 -128 1133 580 
Q 1338 1288 1338 2009 
Q 1338 2731 1133 3434 
Q 928 4138 513 4856 
z
" transform="scale(0.015625)"/>
      </defs>
      <use xlink:href="#DejaVuSans-54"/>
      <use xlink:href="#DejaVuSans-69" x="57.958984"/>
      <use xlink:href="#DejaVuSans-6d" x="85.742188"/>
      <use xlink:href="#DejaVuSans-65" x="183.154297"/>
      <use xlink:href="#DejaVuSans-20" x="244.677734"/>
      <use xlink:href="#DejaVuSans-28" x="276.464844"/>
      <use xlink:href="#DejaVuSans-73" x="315.478516"/>
      <use xlink:href="#DejaVuSans-29" x="367.578125"/>
     </g>
    </g>
   </g>
   <g id="matplotlib.axis_2">
    <g id="ytick_1">
     <g id="line2d_6">
      <defs>
       <path id="mf3f7560a68" d="M 0 0 
L -3.5 0 
" style="stroke: #000000; stroke-width: 0.8"/>
      </defs>
      <g>
       <use xlink:href="#mf3f7560a68" x="57.500313" y="244.837969" style="stroke: #000000; stroke-width: 0.8"/>
      </g>
     </g>
     <g id="text_7">
      <!-- 0.0 -->
      <g transform="translate(31.416563 249.397031) scale(0.12 -0.12)">
       <defs>
        <path id="DejaVuSans-2e" d="M 684 794 
L 1344 794 
L 1344 0 
L 684 0 
L 684 794 
z
" transform="scale(0.015625)"/>
       </defs>
       <use xlink:href="#DejaVuSans-30"/>
       <use xlink:href="#DejaVuSans-2e" x="63.623047"/>
       <use xlink:href="#DejaVuSans-30" x="95.410156"/>
      </g>
     </g>
    </g>
    <g id="ytick_2">
     <g id="line2d_7">
      <g>
       <use xlink:href="#mf3f7560a68" x="57.500313" y="214.065821" style="stroke: #000000; stroke-width: 0.8"/>
      </g>
     </g>
     <g id="text_8">
      <!-- 2.5 -->
      <g transform="translate(31.416563 218.624883) scale(0.12 -0.12)">
       <defs>
        <path id="DejaVuSans-35" d="M 691 4666 
L 3169 4666 
L 3169 4134 
L 1269 4134 
L 1269 2991 
Q 1406 3038 1543 3061 
Q 1681 3084 1819 3084 
Q 2600 3084 3056 2656 
Q 3513 2228 3513 1497 
Q 3513 744 3044 326 
Q 2575 -91 1722 -91 
Q 1428 -91 1123 -41 
Q 819 9 494 109 
L 494 744 
Q 775 591 1075 516 
Q 1375 441 1709 441 
Q 2250 441 2565 725 
Q 2881 1009 2881 1497 
Q 2881 1984 2565 2268 
Q 2250 2553 1709 2553 
Q 1456 2553 1204 2497 
Q 953 2441 691 2322 
L 691 4666 
z
" transform="scale(0.015625)"/>
       </defs>
       <use xlink:href="#DejaVuSans-32"/>
       <use xlink:href="#DejaVuSans-2e" x="63.623047"/>
       <use xlink:href="#DejaVuSans-35" x="95.410156"/>
      </g>
     </g>
    </g>
    <g id="ytick_3">
     <g id="line2d_8">
      <g>
       <use xlink:href="#mf3f7560a68" x="57.500313" y="183.293673" style="stroke: #000000; stroke-width: 0.8"/>
      </g>
     </g>
     <g id="text_9">
      <!-- 5.0 -->
      <g transform="translate(31.416563 187.852736) scale(0.12 -0.12)">
       <use xlink:href="#DejaVuSans-35"/>
       <use xlink:href="#DejaVuSans-2e" x="63.623047"/>
       <use xlink:href="#DejaVuSans-30" x="95.410156"/>
      </g>
     </g>
    </g>
    <g id="ytick_4">
     <g id="line2d_9">
      <g>
       <use xlink:href="#mf3f7560a68" x="57.500313" y="152.521525" style="stroke: #000000; stroke-width: 0.8"/>
      </g>
     </g>
     <g id="text_10">
      <!-- 7.5 -->
      <g transform="translate(31.416563 157.080588) scale(0.12 -0.12)">
       <defs>
        <path id="DejaVuSans-37" d="M 525 4666 
L 3525 4666 
L 3525 4397 
L 1831 0 
L 1172 0 
L 2766 4134 
L 525 4134 
L 525 4666 
z
" transform="scale(0.015625)"/>
       </defs>
       <use xlink:href="#DejaVuSans-37"/>
       <use xlink:href="#DejaVuSans-2e" x="63.623047"/>
       <use xlink:href="#DejaVuSans-35" x="95.410156"/>
      </g>
     </g>
    </g>
    <g id="ytick_5">
     <g id="line2d_10">
      <g>
       <use xlink:href="#mf3f7560a68" x="57.500313" y="121.749378" style="stroke: #000000; stroke-width: 0.8"/>
      </g>
     </g>
     <g id="text_11">
      <!-- 10.0 -->
      <g transform="translate(23.781563 126.30844) scale(0.12 -0.12)">
       <use xlink:href="#DejaVuSans-31"/>
       <use xlink:href="#DejaVuSans-30" x="63.623047"/>
       <use xlink:href="#DejaVuSans-2e" x="127.246094"/>
       <use xlink:href="#DejaVuSans-30" x="159.033203"/>
      </g>
     </g>
    </g>
    <g id="ytick_6">
     <g id="line2d_11">
      <g>
       <use xlink:href="#mf3f7560a68" x="57.500313" y="90.97723" style="stroke: #000000; stroke-width: 0.8"/>
      </g>
     </g>
     <g id="text_12">
      <!-- 12.5 -->
      <g transform="translate(23.781563 95.536292) scale(0.12 -0.12)">
       <use xlink:href="#DejaVuSans-31"/>
       <use xlink:href="#DejaVuSans-32" x="63.623047"/>
       <use xlink:href="#DejaVuSans-2e" x="127.246094"/>
       <use xlink:href="#DejaVuSans-35" x="159.033203"/>
      </g>
     </g>
    </g>
    <g id="ytick_7">
     <g id="line2d_12">
      <g>
       <use xlink:href="#mf3f7560a68" x="57.500313" y="60.205082" style="stroke: #000000; stroke-width: 0.8"/>
      </g>
     </g>
     <g id="text_13">
      <!-- 15.0 -->
      <g transform="translate(23.781563 64.764145) scale(0.12 -0.12)">
       <use xlink:href="#DejaVuSans-31"/>
       <use xlink:href="#DejaVuSans-35" x="63.623047"/>
       <use xlink:href="#DejaVuSans-2e" x="127.246094"/>
       <use xlink:href="#DejaVuSans-30" x="159.033203"/>
      </g>
     </g>
    </g>
    <g id="ytick_8">
     <g id="line2d_13">
      <g>
       <use xlink:href="#mf3f7560a68" x="57.500313" y="29.432934" style="stroke: #000000; stroke-width: 0.8"/>
      </g>
     </g>
     <g id="text_14">
      <!-- 17.5 -->
      <g transform="translate(23.781563 33.991997) scale(0.12 -0.12)">
       <use xlink:href="#DejaVuSans-31"/>
       <use xlink:href="#DejaVuSans-37" x="63.623047"/>
       <use xlink:href="#DejaVuSans-2e" x="127.246094"/>
       <use xlink:href="#DejaVuSans-35" x="159.033203"/>
      </g>
     </g>
    </g>
    <g id="text_15">
     <!-- Utilization (%) -->
     <g transform="translate(17.077969 179.839844) rotate(-90) scale(0.13 -0.13)">
      <defs>
       <path id="DejaVuSans-55" d="M 556 4666 
L 1191 4666 
L 1191 1831 
Q 1191 1081 1462 751 
Q 1734 422 2344 422 
Q 2950 422 3222 751 
Q 3494 1081 3494 1831 
L 3494 4666 
L 4128 4666 
L 4128 1753 
Q 4128 841 3676 375 
Q 3225 -91 2344 -91 
Q 1459 -91 1007 375 
Q 556 841 556 1753 
L 556 4666 
z
" transform="scale(0.015625)"/>
       <path id="DejaVuSans-74" d="M 1172 4494 
L 1172 3500 
L 2356 3500 
L 2356 3053 
L 1172 3053 
L 1172 1153 
Q 1172 725 1289 603 
Q 1406 481 1766 481 
L 2356 481 
L 2356 0 
L 1766 0 
Q 1100 0 847 248 
Q 594 497 594 1153 
L 594 3053 
L 172 3053 
L 172 3500 
L 594 3500 
L 594 4494 
L 1172 4494 
z
" transform="scale(0.015625)"/>
       <path id="DejaVuSans-6c" d="M 603 4863 
L 1178 4863 
L 1178 0 
L 603 0 
L 603 4863 
z
" transform="scale(0.015625)"/>
       <path id="DejaVuSans-7a" d="M 353 3500 
L 3084 3500 
L 3084 2975 
L 922 459 
L 3084 459 
L 3084 0 
L 275 0 
L 275 525 
L 2438 3041 
L 353 3041 
L 353 3500 
z
" transform="scale(0.015625)"/>
       <path id="DejaVuSans-61" d="M 2194 1759 
Q 1497 1759 1228 1600 
Q 959 1441 959 1056 
Q 959 750 1161 570 
Q 1363 391 1709 391 
Q 2188 391 2477 730 
Q 2766 1069 2766 1631 
L 2766 1759 
L 2194 1759 
z
M 3341 1997 
L 3341 0 
L 2766 0 
L 2766 531 
Q 2569 213 2275 61 
Q 1981 -91 1556 -91 
Q 1019 -91 701 211 
Q 384 513 384 1019 
Q 384 1609 779 1909 
Q 1175 2209 1959 2209 
L 2766 2209 
L 2766 2266 
Q 2766 2663 2505 2880 
Q 2244 3097 1772 3097 
Q 1472 3097 1187 3025 
Q 903 2953 641 2809 
L 641 3341 
Q 956 3463 1253 3523 
Q 1550 3584 1831 3584 
Q 2591 3584 2966 3190 
Q 3341 2797 3341 1997 
z
" transform="scale(0.015625)"/>
       <path id="DejaVuSans-6f" d="M 1959 3097 
Q 1497 3097 1228 2736 
Q 959 2375 959 1747 
Q 959 1119 1226 758 
Q 1494 397 1959 397 
Q 2419 397 2687 759 
Q 2956 1122 2956 1747 
Q 2956 2369 2687 2733 
Q 2419 3097 1959 3097 
z
M 1959 3584 
Q 2709 3584 3137 3096 
Q 3566 2609 3566 1747 
Q 3566 888 3137 398 
Q 2709 -91 1959 -91 
Q 1206 -91 779 398 
Q 353 888 353 1747 
Q 353 2609 779 3096 
Q 1206 3584 1959 3584 
z
" transform="scale(0.015625)"/>
       <path id="DejaVuSans-6e" d="M 3513 2113 
L 3513 0 
L 2938 0 
L 2938 2094 
Q 2938 2591 2744 2837 
Q 2550 3084 2163 3084 
Q 1697 3084 1428 2787 
Q 1159 2491 1159 1978 
L 1159 0 
L 581 0 
L 581 3500 
L 1159 3500 
L 1159 2956 
Q 1366 3272 1645 3428 
Q 1925 3584 2291 3584 
Q 2894 3584 3203 3211 
Q 3513 2838 3513 2113 
z
" transform="scale(0.015625)"/>
       <path id="DejaVuSans-25" d="M 4653 2053 
Q 4381 2053 4226 1822 
Q 4072 1591 4072 1178 
Q 4072 772 4226 539 
Q 4381 306 4653 306 
Q 4919 306 5073 539 
Q 5228 772 5228 1178 
Q 5228 1588 5073 1820 
Q 4919 2053 4653 2053 
z
M 4653 2450 
Q 5147 2450 5437 2106 
Q 5728 1763 5728 1178 
Q 5728 594 5436 251 
Q 5144 -91 4653 -91 
Q 4153 -91 3862 251 
Q 3572 594 3572 1178 
Q 3572 1766 3864 2108 
Q 4156 2450 4653 2450 
z
M 1428 4353 
Q 1159 4353 1004 4120 
Q 850 3888 850 3481 
Q 850 3069 1003 2837 
Q 1156 2606 1428 2606 
Q 1700 2606 1854 2837 
Q 2009 3069 2009 3481 
Q 2009 3884 1853 4118 
Q 1697 4353 1428 4353 
z
M 4250 4750 
L 4750 4750 
L 1831 -91 
L 1331 -91 
L 4250 4750 
z
M 1428 4750 
Q 1922 4750 2215 4408 
Q 2509 4066 2509 3481 
Q 2509 2891 2217 2550 
Q 1925 2209 1428 2209 
Q 931 2209 642 2551 
Q 353 2894 353 3481 
Q 353 4063 643 4406 
Q 934 4750 1428 4750 
z
" transform="scale(0.015625)"/>
      </defs>
      <use xlink:href="#DejaVuSans-55"/>
      <use xlink:href="#DejaVuSans-74" x="73.193359"/>
      <use xlink:href="#DejaVuSans-69" x="112.402344"/>
      <use xlink:href="#DejaVuSans-6c" x="140.185547"/>
      <use xlink:href="#DejaVuSans-69" x="167.96875"/>
      <use xlink:href="#DejaVuSans-7a" x="195.751953"/>
      <use xlink:href="#DejaVuSans-61" x="248.242188"/>
      <use xlink:href="#DejaVuSans-74" x="309.521484"/>
      <use xlink:href="#DejaVuSans-69" x="348.730469"/>
      <use xlink:href="#DejaVuSans-6f" x="376.513672"/>
      <use xlink:href="#DejaVuSans-6e" x="437.695312"/>
      <use xlink:href="#DejaVuSans-20" x="501.074219"/>
      <use xlink:href="#DejaVuSans-28" x="532.861328"/>
      <use xlink:href="#DejaVuSans-25" x="571.875"/>
      <use xlink:href="#DejaVuSans-29" x="666.894531"/>
     </g>
    </g>
   </g>
   <g id="patch_3">
    <path d="M 57.500313 244.837969 
L 57.500313 23.077969 
" style="fill: none; stroke: #000000; stroke-width: 0.8; stroke-linejoin: miter; stroke-linecap: square"/>
   </g>
   <g id="patch_4">
    <path d="M 559.700313 244.837969 
L 559.700313 23.077969 
" style="fill: none; stroke: #000000; stroke-width: 0.8; stroke-linejoin: miter; stroke-linecap: square"/>
   </g>
   <g id="patch_5">
    <path d="M 57.500313 244.837969 
L 559.700313 244.837969 
" style="fill: none; stroke: #000000; stroke-width: 0.8; stroke-linejoin: miter; stroke-linecap: square"/>
   </g>
   <g id="patch_6">
    <path d="M 57.500313 23.077969 
L 559.700313 23.077969 
" style="fill: none; stroke: #000000; stroke-width: 0.8; stroke-linejoin: miter; stroke-linecap: square"/>
   </g>
   <g id="text_16">
    <!-- Live Migrate (RAM) -->
    <g transform="translate(247.067656 17.077969) scale(0.13 -0.13)">
     <defs>
      <path id="DejaVuSans-4c" d="M 628 4666 
L 1259 4666 
L 1259 531 
L 3531 531 
L 3531 0 
L 628 0 
L 628 4666 
z
" transform="scale(0.015625)"/>
      <path id="DejaVuSans-76" d="M 191 3500 
L 800 3500 
L 1894 563 
L 2988 3500 
L 3597 3500 
L 2284 0 
L 1503 0 
L 191 3500 
z
" transform="scale(0.015625)"/>
      <path id="DejaVuSans-4d" d="M 628 4666 
L 1569 4666 
L 2759 1491 
L 3956 4666 
L 4897 4666 
L 4897 0 
L 4281 0 
L 4281 4097 
L 3078 897 
L 2444 897 
L 1241 4097 
L 1241 0 
L 628 0 
L 628 4666 
z
" transform="scale(0.015625)"/>
      <path id="DejaVuSans-67" d="M 2906 1791 
Q 2906 2416 2648 2759 
Q 2391 3103 1925 3103 
Q 1463 3103 1205 2759 
Q 947 2416 947 1791 
Q 947 1169 1205 825 
Q 1463 481 1925 481 
Q 2391 481 2648 825 
Q 2906 1169 2906 1791 
z
M 3481 434 
Q 3481 -459 3084 -895 
Q 2688 -1331 1869 -1331 
Q 1566 -1331 1297 -1286 
Q 1028 -1241 775 -1147 
L 775 -588 
Q 1028 -725 1275 -790 
Q 1522 -856 1778 -856 
Q 2344 -856 2625 -561 
Q 2906 -266 2906 331 
L 2906 616 
Q 2728 306 2450 153 
Q 2172 0 1784 0 
Q 1141 0 747 490 
Q 353 981 353 1791 
Q 353 2603 747 3093 
Q 1141 3584 1784 3584 
Q 2172 3584 2450 3431 
Q 2728 3278 2906 2969 
L 2906 3500 
L 3481 3500 
L 3481 434 
z
" transform="scale(0.015625)"/>
      <path id="DejaVuSans-72" d="M 2631 2963 
Q 2534 3019 2420 3045 
Q 2306 3072 2169 3072 
Q 1681 3072 1420 2755 
Q 1159 2438 1159 1844 
L 1159 0 
L 581 0 
L 581 3500 
L 1159 3500 
L 1159 2956 
Q 1341 3275 1631 3429 
Q 1922 3584 2338 3584 
Q 2397 3584 2469 3576 
Q 2541 3569 2628 3553 
L 2631 2963 
z
" transform="scale(0.015625)"/>
      <path id="DejaVuSans-52" d="M 2841 2188 
Q 3044 2119 3236 1894 
Q 3428 1669 3622 1275 
L 4263 0 
L 3584 0 
L 2988 1197 
Q 2756 1666 2539 1819 
Q 2322 1972 1947 1972 
L 1259 1972 
L 1259 0 
L 628 0 
L 628 4666 
L 2053 4666 
Q 2853 4666 3247 4331 
Q 3641 3997 3641 3322 
Q 3641 2881 3436 2590 
Q 3231 2300 2841 2188 
z
M 1259 4147 
L 1259 2491 
L 2053 2491 
Q 2509 2491 2742 2702 
Q 2975 2913 2975 3322 
Q 2975 3731 2742 3939 
Q 2509 4147 2053 4147 
L 1259 4147 
z
" transform="scale(0.015625)"/>
      <path id="DejaVuSans-41" d="M 2188 4044 
L 1331 1722 
L 3047 1722 
L 2188 4044 
z
M 1831 4666 
L 2547 4666 
L 4325 0 
L 3669 0 
L 3244 1197 
L 1141 1197 
L 716 0 
L 50 0 
L 1831 4666 
z
" transform="scale(0.015625)"/>
     </defs>
     <use xlink:href="#DejaVuSans-4c"/>
     <use xlink:href="#DejaVuSans-69" x="55.712891"/>
     <use xlink:href="#DejaVuSans-76" x="83.496094"/>
     <use xlink:href="#DejaVuSans-65" x="142.675781"/>
     <use xlink:href="#DejaVuSans-20" x="204.199219"/>
     <use xlink:href="#DejaVuSans-4d" x="235.986328"/>
     <use xlink:href="#DejaVuSans-69" x="322.265625"/>
     <use xlink:href="#DejaVuSans-67" x="350.048828"/>
     <use xlink:href="#DejaVuSans-72" x="413.525391"/>
     <use xlink:href="#DejaVuSans-61" x="454.638672"/>
     <use xlink:href="#DejaVuSans-74" x="515.917969"/>
     <use xlink:href="#DejaVuSans-65" x="555.126953"/>
     <use xlink:href="#DejaVuSans-20" x="616.650391"/>
     <use xlink:href="#DejaVuSans-28" x="648.4375"/>
     <use xlink:href="#DejaVuSans-52" x="687.451172"/>
     <use xlink:href="#DejaVuSans-41" x="752.933594"/>
     <use xlink:href="#DejaVuSans-4d" x="821.341797"/>
     <use xlink:href="#DejaVuSans-29" x="907.621094"/>
    </g>
   </g>
   <g id="legend_1">
    <g id="patch_7">
     <path d="M 438.575313 67.905469 
L 551.300313 67.905469 
Q 553.700313 67.905469 553.700313 65.505469 
L 553.700313 31.477969 
Q 553.700313 29.077969 551.300313 29.077969 
L 438.575313 29.077969 
Q 436.175313 29.077969 436.175313 31.477969 
L 436.175313 65.505469 
Q 436.175313 67.905469 438.575313 67.905469 
z
" style="fill: #ffffff; opacity: 0.8; stroke: #cccccc; stroke-linejoin: miter"/>
    </g>
    <g id="patch_8">
     <path d="M 440.975313 42.996094 
L 464.975313 42.996094 
L 464.975313 34.596094 
L 440.975313 34.596094 
z
" style="fill: #009384; fill-opacity: 0.7; stroke: #009384; stroke-opacity: 0.7; stroke-width: 1.5; stroke-linejoin: miter"/>
    </g>
    <g id="text_17">
     <!-- KubeVirt -->
     <g transform="translate(474.575313 42.996094) scale(0.12 -0.12)">
      <defs>
       <path id="DejaVuSans-4b" d="M 628 4666 
L 1259 4666 
L 1259 2694 
L 3353 4666 
L 4166 4666 
L 1850 2491 
L 4331 0 
L 3500 0 
L 1259 2247 
L 1259 0 
L 628 0 
L 628 4666 
z
" transform="scale(0.015625)"/>
       <path id="DejaVuSans-75" d="M 544 1381 
L 544 3500 
L 1119 3500 
L 1119 1403 
Q 1119 906 1312 657 
Q 1506 409 1894 409 
Q 2359 409 2629 706 
Q 2900 1003 2900 1516 
L 2900 3500 
L 3475 3500 
L 3475 0 
L 2900 0 
L 2900 538 
Q 2691 219 2414 64 
Q 2138 -91 1772 -91 
Q 1169 -91 856 284 
Q 544 659 544 1381 
z
M 1991 3584 
L 1991 3584 
z
" transform="scale(0.015625)"/>
       <path id="DejaVuSans-62" d="M 3116 1747 
Q 3116 2381 2855 2742 
Q 2594 3103 2138 3103 
Q 1681 3103 1420 2742 
Q 1159 2381 1159 1747 
Q 1159 1113 1420 752 
Q 1681 391 2138 391 
Q 2594 391 2855 752 
Q 3116 1113 3116 1747 
z
M 1159 2969 
Q 1341 3281 1617 3432 
Q 1894 3584 2278 3584 
Q 2916 3584 3314 3078 
Q 3713 2572 3713 1747 
Q 3713 922 3314 415 
Q 2916 -91 2278 -91 
Q 1894 -91 1617 61 
Q 1341 213 1159 525 
L 1159 0 
L 581 0 
L 581 4863 
L 1159 4863 
L 1159 2969 
z
" transform="scale(0.015625)"/>
       <path id="DejaVuSans-56" d="M 1831 0 
L 50 4666 
L 709 4666 
L 2188 738 
L 3669 4666 
L 4325 4666 
L 2547 0 
L 1831 0 
z
" transform="scale(0.015625)"/>
      </defs>
      <use xlink:href="#DejaVuSans-4b"/>
      <use xlink:href="#DejaVuSans-75" x="60.576172"/>
      <use xlink:href="#DejaVuSans-62" x="123.955078"/>
      <use xlink:href="#DejaVuSans-65" x="187.431641"/>
      <use xlink:href="#DejaVuSans-56" x="248.955078"/>
      <use xlink:href="#DejaVuSans-69" x="315.113281"/>
      <use xlink:href="#DejaVuSans-72" x="342.896484"/>
      <use xlink:href="#DejaVuSans-74" x="384.009766"/>
     </g>
    </g>
    <g id="patch_9">
     <path d="M 440.975313 60.609844 
L 464.975313 60.609844 
L 464.975313 52.209844 
L 440.975313 52.209844 
z
" style="fill: #b85741; fill-opacity: 0.7; stroke: #b85741; stroke-opacity: 0.7; stroke-width: 1.5; stroke-linejoin: miter"/>
    </g>
    <g id="text_18">
     <!-- OpenNebula -->
     <g transform="translate(474.575313 60.609844) scale(0.12 -0.12)">
      <defs>
       <path id="DejaVuSans-4f" d="M 2522 4238 
Q 1834 4238 1429 3725 
Q 1025 3213 1025 2328 
Q 1025 1447 1429 934 
Q 1834 422 2522 422 
Q 3209 422 3611 934 
Q 4013 1447 4013 2328 
Q 4013 3213 3611 3725 
Q 3209 4238 2522 4238 
z
M 2522 4750 
Q 3503 4750 4090 4092 
Q 4678 3434 4678 2328 
Q 4678 1225 4090 567 
Q 3503 -91 2522 -91 
Q 1538 -91 948 565 
Q 359 1222 359 2328 
Q 359 3434 948 4092 
Q 1538 4750 2522 4750 
z
" transform="scale(0.015625)"/>
       <path id="DejaVuSans-70" d="M 1159 525 
L 1159 -1331 
L 581 -1331 
L 581 3500 
L 1159 3500 
L 1159 2969 
Q 1341 3281 1617 3432 
Q 1894 3584 2278 3584 
Q 2916 3584 3314 3078 
Q 3713 2572 3713 1747 
Q 3713 922 3314 415 
Q 2916 -91 2278 -91 
Q 1894 -91 1617 61 
Q 1341 213 1159 525 
z
M 3116 1747 
Q 3116 2381 2855 2742 
Q 2594 3103 2138 3103 
Q 1681 3103 1420 2742 
Q 1159 2381 1159 1747 
Q 1159 1113 1420 752 
Q 1681 391 2138 391 
Q 2594 391 2855 752 
Q 3116 1113 3116 1747 
z
" transform="scale(0.015625)"/>
       <path id="DejaVuSans-4e" d="M 628 4666 
L 1478 4666 
L 3547 763 
L 3547 4666 
L 4159 4666 
L 4159 0 
L 3309 0 
L 1241 3903 
L 1241 0 
L 628 0 
L 628 4666 
z
" transform="scale(0.015625)"/>
      </defs>
      <use xlink:href="#DejaVuSans-4f"/>
      <use xlink:href="#DejaVuSans-70" x="78.710938"/>
      <use xlink:href="#DejaVuSans-65" x="142.1875"/>
      <use xlink:href="#DejaVuSans-6e" x="203.710938"/>
      <use xlink:href="#DejaVuSans-4e" x="267.089844"/>
      <use xlink:href="#DejaVuSans-65" x="341.894531"/>
      <use xlink:href="#DejaVuSans-62" x="403.417969"/>
      <use xlink:href="#DejaVuSans-75" x="466.894531"/>
      <use xlink:href="#DejaVuSans-6c" x="530.273438"/>
      <use xlink:href="#DejaVuSans-61" x="558.056641"/>
     </g>
    </g>
   </g>
  </g>
 </g>
 <defs>
  <clipPath id="p0b67177e93">
   <rect x="57.500313" y="23.077969" width="502.2" height="221.76"/>
  </clipPath>
 </defs>
</svg>
