<?xml version="1.0" encoding="utf-8" standalone="no"?>
<!DOCTYPE svg PUBLIC "-//W3C//DTD SVG 1.1//EN"
  "http://www.w3.org/Graphics/SVG/1.1/DTD/svg11.dtd">
<svg xmlns:xlink="http://www.w3.org/1999/xlink" width="566.900312pt" height="287.233281pt" viewBox="0 0 566.900312 287.233281" xmlns="http://www.w3.org/2000/svg" version="1.1">
 <metadata>
  <rdf:RDF xmlns:dc="http://purl.org/dc/elements/1.1/" xmlns:cc="http://creativecommons.org/ns#" xmlns:rdf="http://www.w3.org/1999/02/22-rdf-syntax-ns#">
   <cc:Work>
    <dc:type rdf:resource="http://purl.org/dc/dcmitype/StillImage"/>
    <dc:date>2024-05-21T10:08:06.730414</dc:date>
    <dc:format>image/svg+xml</dc:format>
    <dc:creator>
     <cc:Agent>
      <dc:title>Matplotlib v3.8.4, https://matplotlib.org/</dc:title>
     </cc:Agent>
    </dc:creator>
   </cc:Work>
  </rdf:RDF>
 </metadata>
 <defs>
  <style type="text/css">*{stroke-linejoin: round; stroke-linecap: butt}</style>
 </defs>
 <g id="figure_1">
  <g id="patch_1">
   <path d="M 0 287.233281 
L 566.900312 287.233281 
L 566.900312 0 
L 0 0 
z
" style="fill: #ffffff"/>
  </g>
  <g id="axes_1">
   <g id="patch_2">
    <path d="M 57.500313 244.837969 
L 559.700313 244.837969 
L 559.700313 23.077969 
L 57.500313 23.077969 
z
" style="fill: #ffffff"/>
   </g>
   <g id="PolyCollection_1">
    <defs>
     <path id="m06388f8b34" d="M 80.327585 -69.662634 
L 80.327585 -42.395313 
L 80.988429 -42.395313 
L 82.941573 -42.395313 
L 93.013417 -42.395313 
L 95.619357 -42.395313 
L 96.380554 -42.395313 
L 96.706894 -42.395313 
L 96.756684 -42.395313 
L 97.634747 -42.395313 
L 97.919827 -42.395313 
L 100.553055 -42.395313 
L 101.230119 -42.395313 
L 101.890963 -42.395313 
L 103.844106 -42.395313 
L 113.915951 -42.395313 
L 116.52189 -42.395313 
L 117.283088 -42.395313 
L 117.659218 -42.395313 
L 118.537281 -42.395313 
L 118.822361 -42.395313 
L 121.455589 -42.395313 
L 122.132653 -42.395313 
L 122.793497 -42.395313 
L 124.74664 -42.395313 
L 128.060695 -42.395313 
L 138.185622 -42.395313 
L 138.561752 -42.395313 
L 139.724895 -42.395313 
L 142.358123 -42.395313 
L 143.035187 -42.395313 
L 143.696031 -42.395313 
L 145.269752 -42.395313 
L 145.649174 -42.395313 
L 147.875691 -42.395313 
L 148.963229 -42.395313 
L 149.891082 -42.395313 
L 159.088156 -42.395313 
L 159.464286 -42.395313 
L 160.627429 -42.395313 
L 163.260657 -42.395313 
L 163.937721 -42.395313 
L 164.598565 -42.395313 
L 166.172286 -42.395313 
L 166.551708 -42.395313 
L 168.778225 -42.395313 
L 169.865763 -42.395313 
L 170.793616 -42.395313 
L 179.990689 -42.395313 
L 180.36682 -42.395313 
L 181.529963 -42.395313 
L 184.163191 -42.395313 
L 184.840255 -42.395313 
L 185.501099 -42.395313 
L 187.074819 -42.395313 
L 187.454242 -42.395313 
L 189.680759 -42.395313 
L 190.768297 -42.395313 
L 191.69615 -42.395313 
L 202.432496 -42.395313 
L 205.065725 -42.395313 
L 205.742789 -42.395313 
L 207.977353 -42.395313 
L 208.356776 -42.395313 
L 210.583293 -42.395313 
L 211.34449 -42.395313 
L 211.670831 -42.395313 
L 211.720621 -42.395313 
L 212.598684 -42.395313 
L 216.8549 -42.395313 
L 223.33503 -42.395313 
L 225.968258 -42.395313 
L 226.645323 -42.395313 
L 228.879887 -42.395313 
L 229.25931 -42.395313 
L 231.485827 -42.395313 
L 232.247024 -42.395313 
L 232.573365 -42.395313 
L 232.623155 -42.395313 
L 233.501218 -42.395313 
L 237.757434 -42.395313 
L 249.782421 -42.395313 
L 252.388361 -42.395313 
L 253.149558 -42.395313 
L 253.475899 -42.395313 
L 253.525689 -42.395313 
L 254.403752 -42.395313 
L 254.688831 -42.395313 
L 257.322059 -42.395313 
L 257.999124 -42.395313 
L 258.659968 -42.395313 
L 260.613111 -42.395313 
L 270.684955 -42.395313 
L 274.052092 -42.395313 
L 274.378433 -42.395313 
L 274.428223 -42.395313 
L 275.306286 -42.395313 
L 275.591365 -42.395313 
L 278.224593 -42.395313 
L 278.901658 -42.395313 
L 279.562502 -42.395313 
L 281.515645 -42.395313 
L 283.742162 -42.395313 
L 291.587489 -42.395313 
L 294.954626 -42.395313 
L 295.280967 -42.395313 
L 295.330757 -42.395313 
L 296.20882 -42.395313 
L 296.493899 -42.395313 
L 299.127127 -42.395313 
L 299.804192 -42.395313 
L 300.465036 -42.395313 
L 302.418179 -42.395313 
L 304.644696 -42.395313 
L 315.85716 -42.395313 
L 316.233291 -42.395313 
L 317.111354 -42.395313 
L 317.396433 -42.395313 
L 320.029661 -42.395313 
L 320.706726 -42.395313 
L 321.36757 -42.395313 
L 322.94129 -42.395313 
L 323.320713 -42.395313 
L 325.54723 -42.395313 
L 326.634768 -42.395313 
L 337.135825 -42.395313 
L 338.298967 -42.395313 
L 340.932195 -42.395313 
L 341.60926 -42.395313 
L 342.270104 -42.395313 
L 343.843824 -42.395313 
L 344.223247 -42.395313 
L 346.449764 -42.395313 
L 347.210961 -42.395313 
L 347.537302 -42.395313 
L 348.465155 -42.395313 
L 359.201501 -42.395313 
L 361.834729 -42.395313 
L 362.511794 -42.395313 
L 363.172638 -42.395313 
L 364.746358 -42.395313 
L 365.125781 -42.395313 
L 367.352298 -42.395313 
L 368.113495 -42.395313 
L 368.439836 -42.395313 
L 368.489626 -42.395313 
L 369.367689 -42.395313 
L 380.104035 -42.395313 
L 382.737263 -42.395313 
L 383.414328 -42.395313 
L 385.648892 -42.395313 
L 386.028315 -42.395313 
L 388.254832 -42.395313 
L 389.016029 -42.395313 
L 389.34237 -42.395313 
L 389.39216 -42.395313 
L 390.270223 -42.395313 
L 394.526439 -42.395313 
L 401.006569 -42.395313 
L 403.639797 -42.395313 
L 404.316862 -42.395313 
L 406.551426 -42.395313 
L 406.930849 -42.395313 
L 409.157366 -42.395313 
L 409.918563 -42.395313 
L 410.244904 -42.395313 
L 410.294694 -42.395313 
L 411.172757 -42.395313 
L 415.428973 -42.395313 
L 424.542331 -42.395313 
L 425.219396 -42.395313 
L 427.45396 -42.395313 
L 427.833383 -42.395313 
L 430.0599 -42.395313 
L 430.821097 -42.395313 
L 431.147438 -42.395313 
L 431.197228 -42.395313 
L 432.075291 -42.395313 
L 432.36037 -42.395313 
L 436.331507 -42.395313 
L 448.356494 -42.395313 
L 451.723631 -42.395313 
L 452.049972 -42.395313 
L 452.099762 -42.395313 
L 452.977825 -42.395313 
L 453.262904 -42.395313 
L 455.896132 -42.395313 
L 456.573196 -42.395313 
L 457.234041 -42.395313 
L 459.187184 -42.395313 
L 461.413701 -42.395313 
L 469.259028 -42.395313 
L 472.626165 -42.395313 
L 472.952506 -42.395313 
L 473.002295 -42.395313 
L 473.880359 -42.395313 
L 474.165438 -42.395313 
L 476.798666 -42.395313 
L 477.47573 -42.395313 
L 478.136574 -42.395313 
L 480.089718 -42.395313 
L 482.316235 -42.395313 
L 490.161562 -42.395313 
L 493.528699 -42.395313 
L 493.85504 -42.395313 
L 493.904829 -42.395313 
L 494.782893 -42.395313 
L 495.067972 -42.395313 
L 497.7012 -42.395313 
L 498.378264 -42.395313 
L 499.039108 -42.395313 
L 500.992252 -42.395313 
L 503.218769 -42.395313 
L 514.431233 -42.395313 
L 514.757574 -42.395313 
L 514.807363 -42.395313 
L 515.685427 -42.395313 
L 515.970506 -42.395313 
L 518.603734 -42.395313 
L 519.280798 -42.395313 
L 519.941642 -42.395313 
L 521.515363 -42.395313 
L 521.894786 -42.395313 
L 524.121303 -42.395313 
L 535.333767 -42.395313 
L 535.709897 -42.395313 
L 536.87304 -42.395313 
L 536.87304 -89.620827 
L 536.87304 -89.620827 
L 535.709897 -89.764324 
L 535.333767 -86.705358 
L 524.121303 -85.979805 
L 521.894786 -82.566419 
L 521.515363 -78.891973 
L 519.941642 -76.642123 
L 519.280798 -75.333361 
L 518.603734 -74.233217 
L 515.970506 -72.850689 
L 515.685427 -72.783263 
L 514.807363 -72.412706 
L 514.757574 -72.137814 
L 514.431233 -72.568305 
L 503.218769 -73.220669 
L 500.992252 -72.992457 
L 499.039108 -72.783263 
L 498.378264 -73.507664 
L 497.7012 -74.244743 
L 495.067972 -74.687912 
L 494.782893 -74.900565 
L 493.904829 -74.753034 
L 493.85504 -75.048672 
L 493.528699 -75.117251 
L 490.161562 -75.620355 
L 482.316235 -75.336819 
L 480.089718 -75.192745 
L 478.136574 -75.544284 
L 477.47573 -76.288855 
L 476.798666 -77.31581 
L 474.165438 -77.311776 
L 473.880359 -77.74803 
L 473.002295 -77.963564 
L 472.952506 -77.966445 
L 472.626165 -77.89268 
L 469.259028 -78.183132 
L 461.413701 -78.119739 
L 459.187184 -77.976242 
L 457.234041 -77.687519 
L 456.573196 -78.507009 
L 455.896132 -79.01991 
L 453.262904 -80.03822 
L 452.977825 -81.193112 
L 452.099762 -81.548685 
L 452.049972 -82.129589 
L 451.723631 -82.651711 
L 448.356494 -84.258993 
L 436.331507 -84.95285 
L 432.36037 -86.203983 
L 432.075291 -86.638508 
L 431.197228 -86.942215 
L 431.147438 -88.841678 
L 430.821097 -89.727441 
L 430.0599 -90.01213 
L 427.833383 -91.172785 
L 427.45396 -93.058417 
L 425.219396 -92.701115 
L 424.542331 -92.267166 
L 415.428973 -93.212863 
L 411.172757 -93.734985 
L 410.294694 -95.531292 
L 410.244904 -95.762385 
L 409.918563 -97.745411 
L 409.157366 -100.5923 
L 406.930849 -103.254775 
L 406.551426 -104.9145 
L 404.316862 -107.291711 
L 403.639797 -109.271855 
L 401.006569 -111.162673 
L 394.526439 -113.807284 
L 390.270223 -115.869838 
L 389.39216 -116.461691 
L 389.34237 -116.76194 
L 389.016029 -117.415457 
L 388.254832 -118.996806 
L 386.028315 -119.201966 
L 385.648892 -120.428318 
L 383.414328 -121.752064 
L 382.737263 -121.756675 
L 380.104035 -121.707113 
L 369.367689 -121.545175 
L 368.489626 -120.604664 
L 368.439836 -121.945123 
L 368.113495 -121.938207 
L 367.352298 -121.200552 
L 365.125781 -119.974775 
L 364.746358 -119.513164 
L 363.172638 -118.687336 
L 362.511794 -118.274134 
L 361.834729 -117.90934 
L 359.201501 -116.527388 
L 348.465155 -115.66122 
L 347.537302 -115.158115 
L 347.210961 -114.226825 
L 346.449764 -115.494094 
L 344.223247 -116.785568 
L 343.843824 -119.43767 
L 342.270104 -119.222136 
L 341.60926 -121.252418 
L 340.932195 -121.684638 
L 338.298967 -123.108083 
L 337.135825 -123.108659 
L 326.634768 -121.970479 
L 325.54723 -122.3249 
L 323.320713 -122.87987 
L 322.94129 -121.990073 
L 321.36757 -121.839661 
L 320.706726 -120.668633 
L 320.029661 -119.801311 
L 317.396433 -120.002438 
L 317.111354 -121.483512 
L 316.233291 -123.49881 
L 315.85716 -125.900224 
L 304.644696 -126.500146 
L 302.418179 -128.787454 
L 300.465036 -129.91987 
L 299.804192 -133.304442 
L 299.127127 -135.198142 
L 296.493899 -139.293859 
L 296.20882 -141.816295 
L 295.330757 -144.431514 
L 295.280967 -146.609327 
L 294.954626 -149.27526 
L 291.587489 -152.641966 
L 283.742162 -155.575876 
L 281.515645 -158.088515 
L 279.562502 -160.857028 
L 278.901658 -162.517906 
L 278.224593 -162.968567 
L 275.591365 -162.745542 
L 275.306286 -163.101115 
L 274.428223 -163.98342 
L 274.378433 -164.571815 
L 274.052092 -162.36173 
L 270.684955 -161.270231 
L 260.613111 -159.030755 
L 258.659968 -159.197303 
L 257.999124 -157.16414 
L 257.322059 -155.230676 
L 254.688831 -154.000866 
L 254.403752 -152.09564 
L 253.525689 -151.125162 
L 253.475899 -148.829209 
L 253.149558 -147.054225 
L 252.388361 -145.649798 
L 249.782421 -143.798168 
L 237.757434 -142.901455 
L 233.501218 -140.769746 
L 232.623155 -139.026459 
L 232.573365 -137.317172 
L 232.247024 -135.80325 
L 231.485827 -135.070204 
L 229.25931 -133.759713 
L 228.879887 -132.723538 
L 226.645323 -131.465489 
L 225.968258 -128.084376 
L 223.33503 -126.463839 
L 216.8549 -123.09598 
L 212.598684 -121.49619 
L 211.720621 -119.61805 
L 211.670831 -116.248462 
L 211.34449 -113.865489 
L 210.583293 -110.721809 
L 208.356776 -107.916989 
L 207.977353 -105.245869 
L 205.742789 -102.565529 
L 205.065725 -100.885057 
L 202.432496 -100.440159 
L 191.69615 -100.796884 
L 190.768297 -101.230833 
L 189.680759 -100.804952 
L 187.454242 -100.288593 
L 187.074819 -99.41378 
L 185.501099 -98.991933 
L 184.840255 -98.36896 
L 184.163191 -97.45323 
L 181.529963 -97.078639 
L 180.36682 -96.998535 
L 179.990689 -96.704625 
L 170.793616 -96.340984 
L 169.865763 -95.169379 
L 168.778225 -94.593086 
L 166.551708 -93.876177 
L 166.172286 -93.731527 
L 164.598565 -93.075705 
L 163.937721 -92.37378 
L 163.260657 -92.292523 
L 160.627429 -91.261534 
L 159.464286 -90.75209 
L 159.088156 -89.737238 
L 149.891082 -87.274736 
L 148.963229 -86.258155 
L 147.875691 -84.503918 
L 145.649174 -83.396858 
L 145.269752 -82.225254 
L 143.696031 -81.47492 
L 143.035187 -79.849772 
L 142.358123 -78.291475 
L 139.724895 -77.641416 
L 138.561752 -77.278351 
L 138.185622 -76.638089 
L 128.060695 -76.197801 
L 124.74664 -76.261193 
L 122.793497 -76.051423 
L 122.132653 -75.469942 
L 121.455589 -75.10803 
L 118.822361 -75.526996 
L 118.537281 -74.659098 
L 117.659218 -73.561835 
L 117.283088 -73.253518 
L 116.52189 -72.955574 
L 113.915951 -72.881809 
L 103.844106 -72.451318 
L 101.890963 -72.005843 
L 101.230119 -71.509078 
L 100.553055 -71.150624 
L 97.919827 -70.791016 
L 97.634747 -70.438325 
L 96.756684 -70.221062 
L 96.706894 -70.295404 
L 96.380554 -70.366288 
L 95.619357 -70.367441 
L 93.013417 -70.221639 
L 82.941573 -70.305777 
L 80.988429 -70.159975 
L 80.327585 -69.662634 
z
" style="stroke: #009384; stroke-opacity: 0.7; stroke-width: 1.5"/>
    </defs>
    <g clip-path="url(#p00f3381a3a)">
     <use xlink:href="#m06388f8b34" x="0" y="287.233281" style="fill: #009384; fill-opacity: 0.7; stroke: #009384; stroke-opacity: 0.7; stroke-width: 1.5"/>
    </g>
   </g>
   <g id="PolyCollection_2">
    <defs>
     <path id="ma9a30afa68" d="M 80.327585 -101.060827 
L 80.327585 -69.662634 
L 80.988429 -70.159975 
L 82.941573 -70.305777 
L 93.013417 -70.221639 
L 95.619357 -70.367441 
L 96.380554 -70.366288 
L 96.706894 -70.295404 
L 96.756684 -70.221062 
L 97.634747 -70.438325 
L 97.919827 -70.791016 
L 100.553055 -71.150624 
L 101.230119 -71.509078 
L 101.890963 -72.005843 
L 103.844106 -72.451318 
L 113.915951 -72.881809 
L 116.52189 -72.955574 
L 117.283088 -73.253518 
L 117.659218 -73.561835 
L 118.537281 -74.659098 
L 118.822361 -75.526996 
L 121.455589 -75.10803 
L 122.132653 -75.469942 
L 122.793497 -76.051423 
L 124.74664 -76.261193 
L 128.060695 -76.197801 
L 138.185622 -76.638089 
L 138.561752 -77.278351 
L 139.724895 -77.641416 
L 142.358123 -78.291475 
L 143.035187 -79.849772 
L 143.696031 -81.47492 
L 145.269752 -82.225254 
L 145.649174 -83.396858 
L 147.875691 -84.503918 
L 148.963229 -86.258155 
L 149.891082 -87.274736 
L 159.088156 -89.737238 
L 159.464286 -90.75209 
L 160.627429 -91.261534 
L 163.260657 -92.292523 
L 163.937721 -92.37378 
L 164.598565 -93.075705 
L 166.172286 -93.731527 
L 166.551708 -93.876177 
L 168.778225 -94.593086 
L 169.865763 -95.169379 
L 170.793616 -96.340984 
L 179.990689 -96.704625 
L 180.36682 -96.998535 
L 181.529963 -97.078639 
L 184.163191 -97.45323 
L 184.840255 -98.36896 
L 185.501099 -98.991933 
L 187.074819 -99.41378 
L 187.454242 -100.288593 
L 189.680759 -100.804952 
L 190.768297 -101.230833 
L 191.69615 -100.796884 
L 202.432496 -100.440159 
L 205.065725 -100.885057 
L 205.742789 -102.565529 
L 207.977353 -105.245869 
L 208.356776 -107.916989 
L 210.583293 -110.721809 
L 211.34449 -113.865489 
L 211.670831 -116.248462 
L 211.720621 -119.61805 
L 212.598684 -121.49619 
L 216.8549 -123.09598 
L 223.33503 -126.463839 
L 225.968258 -128.084376 
L 226.645323 -131.465489 
L 228.879887 -132.723538 
L 229.25931 -133.759713 
L 231.485827 -135.070204 
L 232.247024 -135.80325 
L 232.573365 -137.317172 
L 232.623155 -139.026459 
L 233.501218 -140.769746 
L 237.757434 -142.901455 
L 249.782421 -143.798168 
L 252.388361 -145.649798 
L 253.149558 -147.054225 
L 253.475899 -148.829209 
L 253.525689 -151.125162 
L 254.403752 -152.09564 
L 254.688831 -154.000866 
L 257.322059 -155.230676 
L 257.999124 -157.16414 
L 258.659968 -159.197303 
L 260.613111 -159.030755 
L 270.684955 -161.270231 
L 274.052092 -162.36173 
L 274.378433 -164.571815 
L 274.428223 -163.98342 
L 275.306286 -163.101115 
L 275.591365 -162.745542 
L 278.224593 -162.968567 
L 278.901658 -162.517906 
L 279.562502 -160.857028 
L 281.515645 -158.088515 
L 283.742162 -155.575876 
L 291.587489 -152.641966 
L 294.954626 -149.27526 
L 295.280967 -146.609327 
L 295.330757 -144.431514 
L 296.20882 -141.816295 
L 296.493899 -139.293859 
L 299.127127 -135.198142 
L 299.804192 -133.304442 
L 300.465036 -129.91987 
L 302.418179 -128.787454 
L 304.644696 -126.500146 
L 315.85716 -125.900224 
L 316.233291 -123.49881 
L 317.111354 -121.483512 
L 317.396433 -120.002438 
L 320.029661 -119.801311 
L 320.706726 -120.668633 
L 321.36757 -121.839661 
L 322.94129 -121.990073 
L 323.320713 -122.87987 
L 325.54723 -122.3249 
L 326.634768 -121.970479 
L 337.135825 -123.108659 
L 338.298967 -123.108083 
L 340.932195 -121.684638 
L 341.60926 -121.252418 
L 342.270104 -119.222136 
L 343.843824 -119.43767 
L 344.223247 -116.785568 
L 346.449764 -115.494094 
L 347.210961 -114.226825 
L 347.537302 -115.158115 
L 348.465155 -115.66122 
L 359.201501 -116.527388 
L 361.834729 -117.90934 
L 362.511794 -118.274134 
L 363.172638 -118.687336 
L 364.746358 -119.513164 
L 365.125781 -119.974775 
L 367.352298 -121.200552 
L 368.113495 -121.938207 
L 368.439836 -121.945123 
L 368.489626 -120.604664 
L 369.367689 -121.545175 
L 380.104035 -121.707113 
L 382.737263 -121.756675 
L 383.414328 -121.752064 
L 385.648892 -120.428318 
L 386.028315 -119.201966 
L 388.254832 -118.996806 
L 389.016029 -117.415457 
L 389.34237 -116.76194 
L 389.39216 -116.461691 
L 390.270223 -115.869838 
L 394.526439 -113.807284 
L 401.006569 -111.162673 
L 403.639797 -109.271855 
L 404.316862 -107.291711 
L 406.551426 -104.9145 
L 406.930849 -103.254775 
L 409.157366 -100.5923 
L 409.918563 -97.745411 
L 410.244904 -95.762385 
L 410.294694 -95.531292 
L 411.172757 -93.734985 
L 415.428973 -93.212863 
L 424.542331 -92.267166 
L 425.219396 -92.701115 
L 427.45396 -93.058417 
L 427.833383 -91.172785 
L 430.0599 -90.01213 
L 430.821097 -89.727441 
L 431.147438 -88.841678 
L 431.197228 -86.942215 
L 432.075291 -86.638508 
L 432.36037 -86.203983 
L 436.331507 -84.95285 
L 448.356494 -84.258993 
L 451.723631 -82.651711 
L 452.049972 -82.129589 
L 452.099762 -81.548685 
L 452.977825 -81.193112 
L 453.262904 -80.03822 
L 455.896132 -79.01991 
L 456.573196 -78.507009 
L 457.234041 -77.687519 
L 459.187184 -77.976242 
L 461.413701 -78.119739 
L 469.259028 -78.183132 
L 472.626165 -77.89268 
L 472.952506 -77.966445 
L 473.002295 -77.963564 
L 473.880359 -77.74803 
L 474.165438 -77.311776 
L 476.798666 -77.31581 
L 477.47573 -76.288855 
L 478.136574 -75.544284 
L 480.089718 -75.192745 
L 482.316235 -75.336819 
L 490.161562 -75.620355 
L 493.528699 -75.117251 
L 493.85504 -75.048672 
L 493.904829 -74.753034 
L 494.782893 -74.900565 
L 495.067972 -74.687912 
L 497.7012 -74.244743 
L 498.378264 -73.507664 
L 499.039108 -72.783263 
L 500.992252 -72.992457 
L 503.218769 -73.220669 
L 514.431233 -72.568305 
L 514.757574 -72.137814 
L 514.807363 -72.412706 
L 515.685427 -72.783263 
L 515.970506 -72.850689 
L 518.603734 -74.233217 
L 519.280798 -75.333361 
L 519.941642 -76.642123 
L 521.515363 -78.891973 
L 521.894786 -82.566419 
L 524.121303 -85.979805 
L 535.333767 -86.705358 
L 535.709897 -89.764324 
L 536.87304 -89.620827 
L 536.87304 -139.418914 
L 536.87304 -139.418914 
L 535.709897 -138.97805 
L 535.333767 -132.716046 
L 524.121303 -129.800001 
L 521.894786 -126.458076 
L 521.515363 -121.860984 
L 519.941642 -116.086524 
L 519.280798 -111.460041 
L 518.603734 -110.943106 
L 515.970506 -109.343891 
L 515.685427 -106.084952 
L 514.807363 -104.607912 
L 514.757574 -103.975142 
L 514.431233 -104.624625 
L 503.218769 -105.207257 
L 500.992252 -105.045895 
L 499.039108 -104.905856 
L 498.378264 -106.205974 
L 497.7012 -106.074579 
L 495.067972 -107.820172 
L 494.782893 -108.915129 
L 493.904829 -109.557696 
L 493.85504 -110.294199 
L 493.528699 -110.508004 
L 490.161562 -111.803512 
L 482.316235 -112.608017 
L 480.089718 -113.491475 
L 478.136574 -114.723014 
L 477.47573 -115.267035 
L 476.798666 -116.367755 
L 474.165438 -116.369484 
L 473.880359 -117.446 
L 473.002295 -121.21323 
L 472.952506 -121.878273 
L 472.626165 -121.802778 
L 469.259028 -122.527179 
L 461.413701 -122.396937 
L 459.187184 -122.335273 
L 457.234041 -122.626878 
L 456.573196 -131.679294 
L 455.896132 -133.781612 
L 453.262904 -134.653544 
L 452.977825 -137.28951 
L 452.099762 -138.737159 
L 452.049972 -141.831278 
L 451.723631 -148.682831 
L 448.356494 -154.59733 
L 436.331507 -155.047991 
L 432.36037 -163.348921 
L 432.075291 -168.636989 
L 431.197228 -170.663813 
L 431.147438 -173.967703 
L 430.821097 -177.26583 
L 430.0599 -179.013728 
L 427.833383 -180.25103 
L 427.45396 -184.249929 
L 425.219396 -184.619333 
L 424.542331 -186.001861 
L 415.428973 -187.655823 
L 411.172757 -190.299857 
L 410.294694 -193.148476 
L 410.244904 -195.710676 
L 409.918563 -200.268004 
L 409.157366 -205.777369 
L 406.930849 -210.410768 
L 406.551426 -213.847781 
L 404.316862 -217.822477 
L 403.639797 -221.813885 
L 401.006569 -226.390231 
L 394.526439 -231.924952 
L 390.270223 -234.669838 
L 389.39216 -234.045712 
L 389.34237 -237.241259 
L 389.016029 -239.717591 
L 388.254832 -244.163695 
L 386.028315 -247.50562 
L 385.648892 -250.467192 
L 383.414328 -253.595312 
L 382.737263 -246.392798 
L 380.104035 -245.864913 
L 369.367689 -247.599556 
L 368.489626 -248.094016 
L 368.439836 -249.090427 
L 368.113495 -247.141403 
L 367.352298 -240.966419 
L 365.125781 -236.455771 
L 364.746358 -236.385463 
L 363.172638 -229.244612 
L 362.511794 -224.627349 
L 361.834729 -223.415404 
L 359.201501 -222.055352 
L 348.465155 -219.21192 
L 347.537302 -218.482909 
L 347.210961 -217.915836 
L 346.449764 -217.209877 
L 344.223247 -216.902713 
L 343.843824 -218.189576 
L 342.270104 -216.688908 
L 341.60926 -215.846367 
L 340.932195 -214.218338 
L 338.298967 -213.52621 
L 337.135825 -211.593898 
L 326.634768 -207.99898 
L 325.54723 -205.515732 
L 323.320713 -204.221377 
L 322.94129 -201.292077 
L 321.36757 -200.658731 
L 320.706726 -196.652916 
L 320.029661 -193.53344 
L 317.396433 -192.053518 
L 317.111354 -191.352745 
L 316.233291 -190.545935 
L 315.85716 -191.272064 
L 304.644696 -189.36972 
L 302.418179 -189.525895 
L 300.465036 -188.700067 
L 299.804192 -190.28084 
L 299.127127 -191.368882 
L 296.493899 -195.279609 
L 296.20882 -195.904311 
L 295.330757 -195.602333 
L 295.280967 -196.680578 
L 294.954626 -198.417526 
L 291.587489 -200.751514 
L 283.742162 -202.728201 
L 281.515645 -204.738888 
L 279.562502 -208.071016 
L 278.901658 -209.009222 
L 278.224593 -208.304415 
L 275.591365 -207.38177 
L 275.306286 -207.300512 
L 274.428223 -208.106747 
L 274.378433 -208.042778 
L 274.052092 -205.471933 
L 270.684955 -204.233479 
L 260.613111 -201.334147 
L 258.659968 -201.056373 
L 257.999124 -199.03877 
L 257.322059 -197.188292 
L 254.688831 -195.666301 
L 254.403752 -193.04359 
L 253.525689 -191.223656 
L 253.475899 -188.635522 
L 253.149558 -186.264075 
L 252.388361 -184.423394 
L 249.782421 -180.962176 
L 237.757434 -179.922542 
L 233.501218 -177.00765 
L 232.623155 -175.185411 
L 232.573365 -173.031802 
L 232.247024 -171.211292 
L 231.485827 -171.059726 
L 229.25931 -169.315863 
L 228.879887 -167.487284 
L 226.645323 -166.453413 
L 225.968258 -162.774356 
L 223.33503 -161.587768 
L 216.8549 -157.802097 
L 212.598684 -156.418993 
L 211.720621 -154.532208 
L 211.670831 -151.376426 
L 211.34449 -149.28621 
L 210.583293 -146.881914 
L 208.356776 -144.375037 
L 207.977353 -141.911383 
L 205.742789 -137.932077 
L 205.065725 -136.611789 
L 202.432496 -136.459648 
L 191.69615 -136.385306 
L 190.768297 -136.742032 
L 189.680759 -135.508764 
L 187.454242 -134.769379 
L 187.074819 -134.121049 
L 185.501099 -133.766053 
L 184.840255 -132.921783 
L 184.163191 -131.871776 
L 181.529963 -131.664311 
L 180.36682 -131.788214 
L 179.990689 -131.279923 
L 170.793616 -131.21192 
L 169.865763 -130.105437 
L 168.778225 -129.751593 
L 166.551708 -128.744808 
L 166.172286 -128.745385 
L 164.598565 -128.014645 
L 163.937721 -127.313872 
L 163.260657 -127.227428 
L 160.627429 -126.332444 
L 159.464286 -126.115758 
L 159.088156 -125.174094 
L 149.891082 -122.48972 
L 148.963229 -121.471409 
L 147.875691 -119.941927 
L 145.649174 -119.110912 
L 145.269752 -117.94507 
L 143.696031 -116.687022 
L 143.035187 -114.778338 
L 142.358123 -112.570558 
L 139.724895 -111.572418 
L 138.561752 -111.280237 
L 138.185622 -110.278639 
L 128.060695 -109.385961 
L 124.74664 -108.871907 
L 122.793497 -108.438535 
L 122.132653 -107.924481 
L 121.455589 -106.978207 
L 118.822361 -107.601757 
L 118.537281 -106.439373 
L 117.659218 -105.274108 
L 117.283088 -104.965214 
L 116.52189 -104.965791 
L 113.915951 -105.166917 
L 103.844106 -104.447703 
L 101.890963 -103.858731 
L 101.230119 -102.993715 
L 100.553055 -102.039373 
L 97.919827 -101.32304 
L 97.634747 -101.478639 
L 96.756684 -100.750204 
L 96.706894 -101.117303 
L 96.380554 -100.969196 
L 95.619357 -100.826275 
L 93.013417 -101.046996 
L 82.941573 -101.278089 
L 80.988429 -101.059098 
L 80.327585 -101.060827 
z
" style="stroke: #009384; stroke-opacity: 0.7; stroke-width: 1.5"/>
    </defs>
    <g clip-path="url(#p00f3381a3a)">
     <use xlink:href="#ma9a30afa68" x="0" y="287.233281" style="fill: #009384; fill-opacity: 0.7; stroke: #009384; stroke-opacity: 0.7; stroke-width: 1.5"/>
    </g>
   </g>
   <g id="PolyCollection_3">
    <defs>
     <path id="m17198f4526" d="M 82.531653 -74.668977 
L 82.531653 -42.395313 
L 82.69648 -42.395313 
L 84.350811 -42.395313 
L 92.087685 -42.395313 
L 97.493216 -42.395313 
L 97.979378 -42.395313 
L 99.539773 -42.395313 
L 100.436032 -42.395313 
L 101.250604 -42.395313 
L 101.665707 -42.395313 
L 101.707261 -42.395313 
L 102.868784 -42.395313 
L 103.434187 -42.395313 
L 103.599014 -42.395313 
L 105.253345 -42.395313 
L 118.39575 -42.395313 
L 118.881912 -42.395313 
L 121.338566 -42.395313 
L 122.153138 -42.395313 
L 122.568241 -42.395313 
L 122.609795 -42.395313 
L 123.441486 -42.395313 
L 123.771318 -42.395313 
L 124.336721 -42.395313 
L 124.501548 -42.395313 
L 126.155879 -42.395313 
L 130.893574 -42.395313 
L 139.298284 -42.395313 
L 139.784446 -42.395313 
L 143.055672 -42.395313 
L 143.470775 -42.395313 
L 143.512329 -42.395313 
L 144.34402 -42.395313 
L 144.673852 -42.395313 
L 145.239255 -42.395313 
L 145.404082 -42.395313 
L 147.058413 -42.395313 
L 151.796108 -42.395313 
L 152.692367 -42.395313 
L 160.68698 -42.395313 
L 163.958206 -42.395313 
L 164.373309 -42.395313 
L 164.414863 -42.395313 
L 165.246554 -42.395313 
L 165.576386 -42.395313 
L 166.141789 -42.395313 
L 166.306616 -42.395313 
L 167.960947 -42.395313 
L 170.652085 -42.395313 
L 172.698642 -42.395313 
L 173.594901 -42.395313 
L 181.589514 -42.395313 
L 185.275843 -42.395313 
L 185.317397 -42.395313 
L 186.149088 -42.395313 
L 186.47892 -42.395313 
L 187.20915 -42.395313 
L 188.863481 -42.395313 
L 191.554619 -42.395313 
L 193.601176 -42.395313 
L 194.497435 -42.395313 
L 195.312006 -42.395313 
L 197.49559 -42.395313 
L 202.492048 -42.395313 
L 206.178377 -42.395313 
L 206.219931 -42.395313 
L 207.051622 -42.395313 
L 207.381454 -42.395313 
L 208.111684 -42.395313 
L 212.457153 -42.395313 
L 214.50371 -42.395313 
L 215.399969 -42.395313 
L 216.21454 -42.395313 
L 218.398124 -42.395313 
L 220.217282 -42.395313 
L 227.122465 -42.395313 
L 227.954156 -42.395313 
L 228.283988 -42.395313 
L 229.014218 -42.395313 
L 233.359687 -42.395313 
L 233.845849 -42.395313 
L 235.406244 -42.395313 
L 236.302503 -42.395313 
L 237.117074 -42.395313 
L 237.532178 -42.395313 
L 239.300658 -42.395313 
L 241.119816 -42.395313 
L 248.85669 -42.395313 
L 249.916752 -42.395313 
L 254.262221 -42.395313 
L 254.748383 -42.395313 
L 256.308778 -42.395313 
L 257.205037 -42.395313 
L 258.019608 -42.395313 
L 258.434712 -42.395313 
L 258.476266 -42.395313 
L 259.637788 -42.395313 
L 260.203192 -42.395313 
L 262.02235 -42.395313 
L 269.759224 -42.395313 
L 270.819285 -42.395313 
L 275.164755 -42.395313 
L 275.650917 -42.395313 
L 277.211312 -42.395313 
L 278.107571 -42.395313 
L 278.922142 -42.395313 
L 279.337246 -42.395313 
L 279.3788 -42.395313 
L 280.540322 -42.395313 
L 281.105726 -42.395313 
L 282.924883 -42.395313 
L 290.661758 -42.395313 
L 296.067289 -42.395313 
L 296.553451 -42.395313 
L 298.113846 -42.395313 
L 299.010105 -42.395313 
L 299.824676 -42.395313 
L 300.23978 -42.395313 
L 300.281334 -42.395313 
L 301.442856 -42.395313 
L 302.008259 -42.395313 
L 302.173086 -42.395313 
L 303.827417 -42.395313 
L 311.564292 -42.395313 
L 316.969823 -42.395313 
L 317.455985 -42.395313 
L 319.01638 -42.395313 
L 319.912638 -42.395313 
L 320.72721 -42.395313 
L 321.142314 -42.395313 
L 321.183868 -42.395313 
L 322.34539 -42.395313 
L 322.910793 -42.395313 
L 323.07562 -42.395313 
L 324.729951 -42.395313 
L 337.872357 -42.395313 
L 338.358519 -42.395313 
L 340.815172 -42.395313 
L 341.629744 -42.395313 
L 342.044848 -42.395313 
L 342.086402 -42.395313 
L 342.918093 -42.395313 
L 343.247924 -42.395313 
L 343.813327 -42.395313 
L 343.978154 -42.395313 
L 345.632485 -42.395313 
L 350.370181 -42.395313 
L 359.261052 -42.395313 
L 362.532278 -42.395313 
L 362.947382 -42.395313 
L 362.988936 -42.395313 
L 363.820627 -42.395313 
L 364.150458 -42.395313 
L 364.715861 -42.395313 
L 364.880688 -42.395313 
L 366.535019 -42.395313 
L 369.226158 -42.395313 
L 371.272715 -42.395313 
L 372.168973 -42.395313 
L 380.163586 -42.395313 
L 383.434812 -42.395313 
L 383.849916 -42.395313 
L 383.89147 -42.395313 
L 384.723161 -42.395313 
L 385.052992 -42.395313 
L 385.783222 -42.395313 
L 387.437553 -42.395313 
L 390.128692 -42.395313 
L 392.175248 -42.395313 
L 393.071507 -42.395313 
L 396.069662 -42.395313 
L 401.06612 -42.395313 
L 404.752449 -42.395313 
L 404.794004 -42.395313 
L 405.625695 -42.395313 
L 405.955526 -42.395313 
L 406.685756 -42.395313 
L 408.340087 -42.395313 
L 411.031226 -42.395313 
L 413.077782 -42.395313 
L 413.974041 -42.395313 
L 414.788613 -42.395313 
L 416.972196 -42.395313 
L 425.654983 -42.395313 
L 425.696538 -42.395313 
L 426.528229 -42.395313 
L 426.85806 -42.395313 
L 427.58829 -42.395313 
L 431.93376 -42.395313 
L 432.419921 -42.395313 
L 433.980316 -42.395313 
L 434.876575 -42.395313 
L 435.691147 -42.395313 
L 437.87473 -42.395313 
L 439.693888 -42.395313 
L 446.599072 -42.395313 
L 447.430763 -42.395313 
L 447.760594 -42.395313 
L 448.490824 -42.395313 
L 452.836294 -42.395313 
L 453.322455 -42.395313 
L 454.88285 -42.395313 
L 455.779109 -42.395313 
L 456.593681 -42.395313 
L 457.008784 -42.395313 
L 458.777264 -42.395313 
L 460.596422 -42.395313 
L 468.333296 -42.395313 
L 469.393358 -42.395313 
L 469.393358 -94.822492 
L 469.393358 -94.822492 
L 468.333296 -93.557981 
L 460.596422 -93.287205 
L 458.777264 -92.486116 
L 457.008784 -89.002958 
L 456.593681 -88.305684 
L 455.779109 -87.826208 
L 454.88285 -84.929016 
L 453.322455 -82.997199 
L 452.836294 -82.045738 
L 448.490824 -82.831844 
L 447.760594 -82.89927 
L 447.430763 -82.834519 
L 446.599072 -83.23212 
L 439.693888 -84.098495 
L 437.87473 -84.343049 
L 435.691147 -85.483411 
L 434.876575 -83.26958 
L 433.980316 -82.400529 
L 432.419921 -82.268352 
L 431.93376 -83.197872 
L 427.58829 -82.324006 
L 426.85806 -81.919983 
L 426.528229 -82.803482 
L 425.696538 -83.802569 
L 425.654983 -84.824131 
L 416.972196 -84.823596 
L 414.788613 -84.76045 
L 413.974041 -84.422249 
L 413.077782 -84.286326 
L 411.031226 -86.18229 
L 408.340087 -86.849061 
L 406.685756 -88.248425 
L 405.955526 -90.99471 
L 405.625695 -93.38888 
L 404.794004 -94.860486 
L 404.752449 -93.941669 
L 401.06612 -95.044571 
L 396.069662 -94.244552 
L 393.071507 -90.051277 
L 392.175248 -91.192708 
L 390.128692 -91.528769 
L 387.437553 -92.822713 
L 385.783222 -92.945257 
L 385.052992 -92.861777 
L 384.723161 -92.740838 
L 383.89147 -93.206401 
L 383.849916 -92.200892 
L 383.434812 -94.014981 
L 380.163586 -95.485517 
L 372.168973 -96.887022 
L 371.272715 -96.558452 
L 369.226158 -95.711342 
L 366.535019 -95.974091 
L 364.880688 -96.587884 
L 364.715861 -96.494772 
L 364.150458 -95.976231 
L 363.820627 -95.105575 
L 362.988936 -94.165353 
L 362.947382 -95.653548 
L 362.532278 -96.46855 
L 359.261052 -96.928227 
L 350.370181 -96.640862 
L 345.632485 -97.173851 
L 343.978154 -98.344715 
L 343.813327 -99.610831 
L 343.247924 -98.668468 
L 342.918093 -98.633685 
L 342.086402 -98.848272 
L 342.044848 -98.98794 
L 341.629744 -101.529271 
L 340.815172 -102.098649 
L 338.358519 -100.964174 
L 337.872357 -100.903704 
L 324.729951 -100.78116 
L 323.07562 -98.034875 
L 322.910793 -96.843676 
L 322.34539 -96.473902 
L 321.183868 -100.531789 
L 321.142314 -102.584011 
L 320.72721 -106.211119 
L 319.912638 -105.82315 
L 319.01638 -104.880787 
L 317.455985 -105.087882 
L 316.969823 -105.598396 
L 311.564292 -109.760634 
L 303.827417 -115.367186 
L 302.173086 -116.993445 
L 302.008259 -121.184045 
L 301.442856 -122.012425 
L 300.281334 -120.943237 
L 300.23978 -119.7408 
L 299.824676 -121.042236 
L 299.010105 -125.276181 
L 298.113846 -129.288047 
L 296.553451 -133.835043 
L 296.067289 -134.702488 
L 290.661758 -134.663424 
L 282.924883 -135.454345 
L 281.105726 -138.687598 
L 280.540322 -138.682247 
L 279.3788 -137.264153 
L 279.337246 -136.512831 
L 278.922142 -136.316439 
L 278.107571 -135.607927 
L 277.211312 -135.801644 
L 275.650917 -135.032663 
L 275.164755 -132.759433 
L 270.819285 -132.432468 
L 269.759224 -131.580542 
L 262.02235 -131.362209 
L 260.203192 -130.954976 
L 259.637788 -128.686026 
L 258.476266 -128.126816 
L 258.434712 -127.231544 
L 258.019608 -126.507514 
L 257.205037 -126.03767 
L 256.308778 -126.034994 
L 254.748383 -125.164874 
L 254.262221 -123.999362 
L 249.916752 -120.004619 
L 248.85669 -115.648129 
L 241.119816 -112.154268 
L 239.300658 -112.418087 
L 237.532178 -113.753236 
L 237.117074 -114.339202 
L 236.302503 -112.607523 
L 235.406244 -108.253709 
L 233.845849 -102.731707 
L 233.359687 -101.225852 
L 229.014218 -97.500815 
L 228.283988 -96.477112 
L 227.954156 -95.796963 
L 227.122465 -95.535284 
L 220.217282 -92.899771 
L 218.398124 -89.599627 
L 216.21454 -86.381893 
L 215.399969 -81.368264 
L 214.50371 -80.016527 
L 212.457153 -80.272319 
L 208.111684 -79.26467 
L 207.381454 -75.903521 
L 207.051622 -75.77402 
L 206.219931 -76.516779 
L 206.178377 -76.520525 
L 202.492048 -77.192648 
L 197.49559 -77.192648 
L 195.312006 -76.530158 
L 194.497435 -76.259917 
L 193.601176 -76.317711 
L 191.554619 -77.583828 
L 188.863481 -77.583293 
L 187.20915 -78.049391 
L 186.47892 -78.117352 
L 186.149088 -78.10772 
L 185.317397 -78.702784 
L 185.275843 -78.973559 
L 181.589514 -78.224913 
L 173.594901 -77.215124 
L 172.698642 -77.01338 
L 170.652085 -77.146627 
L 167.960947 -77.211913 
L 166.306616 -77.076525 
L 166.141789 -77.346765 
L 165.576386 -78.68673 
L 165.246554 -78.74827 
L 164.414863 -76.946488 
L 164.373309 -76.155032 
L 163.958206 -75.947937 
L 160.68698 -76.012687 
L 152.692367 -76.009477 
L 151.796108 -75.876764 
L 147.058413 -74.948315 
L 145.404082 -74.748176 
L 145.239255 -74.478471 
L 144.673852 -75.217485 
L 144.34402 -75.551941 
L 143.512329 -76.08493 
L 143.470775 -75.352873 
L 143.055672 -76.357846 
L 139.784446 -77.032644 
L 139.298284 -76.377646 
L 130.893574 -76.383532 
L 126.155879 -76.57939 
L 124.501548 -76.712637 
L 124.336721 -76.305938 
L 123.771318 -76.240117 
L 123.441486 -76.243328 
L 122.609795 -76.110616 
L 122.568241 -76.782739 
L 122.153138 -77.049233 
L 121.338566 -77.050839 
L 118.881912 -76.052287 
L 118.39575 -76.985018 
L 105.253345 -76.525342 
L 103.599014 -76.852841 
L 103.434187 -76.861403 
L 102.868784 -76.060849 
L 101.707261 -75.591005 
L 101.665707 -76.195702 
L 101.250604 -76.199983 
L 100.436032 -76.00145 
L 99.539773 -75.736025 
L 97.979378 -75.405315 
L 97.493216 -75.337354 
L 92.087685 -76.012152 
L 84.350811 -74.47312 
L 82.69648 -74.276727 
L 82.531653 -74.668977 
z
" style="stroke: #b85741; stroke-opacity: 0.7; stroke-width: 1.5"/>
    </defs>
    <g clip-path="url(#p00f3381a3a)">
     <use xlink:href="#m17198f4526" x="0" y="287.233281" style="fill: #b85741; fill-opacity: 0.7; stroke: #b85741; stroke-opacity: 0.7; stroke-width: 1.5"/>
    </g>
   </g>
   <g id="PolyCollection_4">
    <defs>
     <path id="mb418633e36" d="M 82.531653 -108.620808 
L 82.531653 -74.668977 
L 82.69648 -74.276727 
L 84.350811 -74.47312 
L 92.087685 -76.012152 
L 97.493216 -75.337354 
L 97.979378 -75.405315 
L 99.539773 -75.736025 
L 100.436032 -76.00145 
L 101.250604 -76.199983 
L 101.665707 -76.195702 
L 101.707261 -75.591005 
L 102.868784 -76.060849 
L 103.434187 -76.861403 
L 103.599014 -76.852841 
L 105.253345 -76.525342 
L 118.39575 -76.985018 
L 118.881912 -76.052287 
L 121.338566 -77.050839 
L 122.153138 -77.049233 
L 122.568241 -76.782739 
L 122.609795 -76.110616 
L 123.441486 -76.243328 
L 123.771318 -76.240117 
L 124.336721 -76.305938 
L 124.501548 -76.712637 
L 126.155879 -76.57939 
L 130.893574 -76.383532 
L 139.298284 -76.377646 
L 139.784446 -77.032644 
L 143.055672 -76.357846 
L 143.470775 -75.352873 
L 143.512329 -76.08493 
L 144.34402 -75.551941 
L 144.673852 -75.217485 
L 145.239255 -74.478471 
L 145.404082 -74.748176 
L 147.058413 -74.948315 
L 151.796108 -75.876764 
L 152.692367 -76.009477 
L 160.68698 -76.012687 
L 163.958206 -75.947937 
L 164.373309 -76.155032 
L 164.414863 -76.946488 
L 165.246554 -78.74827 
L 165.576386 -78.68673 
L 166.141789 -77.346765 
L 166.306616 -77.076525 
L 167.960947 -77.211913 
L 170.652085 -77.146627 
L 172.698642 -77.01338 
L 173.594901 -77.215124 
L 181.589514 -78.224913 
L 185.275843 -78.973559 
L 185.317397 -78.702784 
L 186.149088 -78.10772 
L 186.47892 -78.117352 
L 187.20915 -78.049391 
L 188.863481 -77.583293 
L 191.554619 -77.583828 
L 193.601176 -76.317711 
L 194.497435 -76.259917 
L 195.312006 -76.530158 
L 197.49559 -77.192648 
L 202.492048 -77.192648 
L 206.178377 -76.520525 
L 206.219931 -76.516779 
L 207.051622 -75.77402 
L 207.381454 -75.903521 
L 208.111684 -79.26467 
L 212.457153 -80.272319 
L 214.50371 -80.016527 
L 215.399969 -81.368264 
L 216.21454 -86.381893 
L 218.398124 -89.599627 
L 220.217282 -92.899771 
L 227.122465 -95.535284 
L 227.954156 -95.796963 
L 228.283988 -96.477112 
L 229.014218 -97.500815 
L 233.359687 -101.225852 
L 233.845849 -102.731707 
L 235.406244 -108.253709 
L 236.302503 -112.607523 
L 237.117074 -114.339202 
L 237.532178 -113.753236 
L 239.300658 -112.418087 
L 241.119816 -112.154268 
L 248.85669 -115.648129 
L 249.916752 -120.004619 
L 254.262221 -123.999362 
L 254.748383 -125.164874 
L 256.308778 -126.034994 
L 257.205037 -126.03767 
L 258.019608 -126.507514 
L 258.434712 -127.231544 
L 258.476266 -128.126816 
L 259.637788 -128.686026 
L 260.203192 -130.954976 
L 262.02235 -131.362209 
L 269.759224 -131.580542 
L 270.819285 -132.432468 
L 275.164755 -132.759433 
L 275.650917 -135.032663 
L 277.211312 -135.801644 
L 278.107571 -135.607927 
L 278.922142 -136.316439 
L 279.337246 -136.512831 
L 279.3788 -137.264153 
L 280.540322 -138.682247 
L 281.105726 -138.687598 
L 282.924883 -135.454345 
L 290.661758 -134.663424 
L 296.067289 -134.702488 
L 296.553451 -133.835043 
L 298.113846 -129.288047 
L 299.010105 -125.276181 
L 299.824676 -121.042236 
L 300.23978 -119.7408 
L 300.281334 -120.943237 
L 301.442856 -122.012425 
L 302.008259 -121.184045 
L 302.173086 -116.993445 
L 303.827417 -115.367186 
L 311.564292 -109.760634 
L 316.969823 -105.598396 
L 317.455985 -105.087882 
L 319.01638 -104.880787 
L 319.912638 -105.82315 
L 320.72721 -106.211119 
L 321.142314 -102.584011 
L 321.183868 -100.531789 
L 322.34539 -96.473902 
L 322.910793 -96.843676 
L 323.07562 -98.034875 
L 324.729951 -100.78116 
L 337.872357 -100.903704 
L 338.358519 -100.964174 
L 340.815172 -102.098649 
L 341.629744 -101.529271 
L 342.044848 -98.98794 
L 342.086402 -98.848272 
L 342.918093 -98.633685 
L 343.247924 -98.668468 
L 343.813327 -99.610831 
L 343.978154 -98.344715 
L 345.632485 -97.173851 
L 350.370181 -96.640862 
L 359.261052 -96.928227 
L 362.532278 -96.46855 
L 362.947382 -95.653548 
L 362.988936 -94.165353 
L 363.820627 -95.105575 
L 364.150458 -95.976231 
L 364.715861 -96.494772 
L 364.880688 -96.587884 
L 366.535019 -95.974091 
L 369.226158 -95.711342 
L 371.272715 -96.558452 
L 372.168973 -96.887022 
L 380.163586 -95.485517 
L 383.434812 -94.014981 
L 383.849916 -92.200892 
L 383.89147 -93.206401 
L 384.723161 -92.740838 
L 385.052992 -92.861777 
L 385.783222 -92.945257 
L 387.437553 -92.822713 
L 390.128692 -91.528769 
L 392.175248 -91.192708 
L 393.071507 -90.051277 
L 396.069662 -94.244552 
L 401.06612 -95.044571 
L 404.752449 -93.941669 
L 404.794004 -94.860486 
L 405.625695 -93.38888 
L 405.955526 -90.99471 
L 406.685756 -88.248425 
L 408.340087 -86.849061 
L 411.031226 -86.18229 
L 413.077782 -84.286326 
L 413.974041 -84.422249 
L 414.788613 -84.76045 
L 416.972196 -84.823596 
L 425.654983 -84.824131 
L 425.696538 -83.802569 
L 426.528229 -82.803482 
L 426.85806 -81.919983 
L 427.58829 -82.324006 
L 431.93376 -83.197872 
L 432.419921 -82.268352 
L 433.980316 -82.400529 
L 434.876575 -83.26958 
L 435.691147 -85.483411 
L 437.87473 -84.343049 
L 439.693888 -84.098495 
L 446.599072 -83.23212 
L 447.430763 -82.834519 
L 447.760594 -82.89927 
L 448.490824 -82.831844 
L 452.836294 -82.045738 
L 453.322455 -82.997199 
L 454.88285 -84.929016 
L 455.779109 -87.826208 
L 456.593681 -88.305684 
L 457.008784 -89.002958 
L 458.777264 -92.486116 
L 460.596422 -93.287205 
L 468.333296 -93.557981 
L 468.333296 -140.703966 
L 468.333296 -140.703966 
L 460.596422 -139.095367 
L 458.777264 -136.61183 
L 457.008784 -131.84008 
L 456.593681 -130.118568 
L 455.779109 -127.846943 
L 454.88285 -123.265699 
L 453.322455 -121.255217 
L 452.836294 -118.965398 
L 448.490824 -117.9433 
L 447.760594 -119.287546 
L 447.430763 -119.225471 
L 446.599072 -120.418274 
L 439.693888 -120.562224 
L 437.87473 -120.929323 
L 435.691147 -121.402913 
L 434.876575 -118.325918 
L 433.980316 -117.131509 
L 432.419921 -115.217885 
L 431.93376 -116.014693 
L 427.58829 -114.304419 
L 426.85806 -114.8251 
L 426.528229 -115.708599 
L 425.696538 -117.844301 
L 425.654983 -118.734757 
L 416.972196 -118.667866 
L 414.788613 -119.006067 
L 413.974041 -118.671611 
L 413.077782 -118.60258 
L 411.031226 -120.23312 
L 408.340087 -120.899356 
L 406.685756 -122.562539 
L 405.955526 -125.573178 
L 405.625695 -127.967882 
L 404.794004 -129.241491 
L 404.752449 -128.385283 
L 401.06612 -130.164589 
L 396.069662 -129.971408 
L 393.071507 -126.98699 
L 392.175248 -127.990358 
L 390.128692 -128.132167 
L 387.437553 -129.220621 
L 385.783222 -129.141957 
L 385.052992 -128.789841 
L 384.723161 -128.400802 
L 383.89147 -128.799474 
L 383.849916 -128.460737 
L 383.434812 -130.477105 
L 380.163586 -132.285843 
L 372.168973 -132.888399 
L 371.272715 -132.485981 
L 369.226158 -131.642617 
L 366.535019 -131.503484 
L 364.880688 -133.109942 
L 364.715861 -132.957966 
L 364.150458 -133.377507 
L 363.820627 -133.660056 
L 362.988936 -134.60884 
L 362.947382 -137.288234 
L 362.532278 -137.897747 
L 359.261052 -138.814959 
L 350.370181 -139.855251 
L 345.632485 -139.442131 
L 343.978154 -139.689361 
L 343.813327 -142.087276 
L 343.247924 -141.676297 
L 342.918093 -141.840046 
L 342.086402 -143.057466 
L 342.044848 -143.066028 
L 341.629744 -146.556678 
L 340.815172 -147.389875 
L 338.358519 -147.256628 
L 337.872357 -149.092122 
L 324.729951 -150.774035 
L 323.07562 -149.067506 
L 322.910793 -148.421605 
L 322.34539 -147.990826 
L 321.183868 -152.176074 
L 321.142314 -153.961801 
L 320.72721 -157.596937 
L 319.912638 -156.336706 
L 319.01638 -156.550758 
L 317.455985 -158.385718 
L 316.969823 -159.028943 
L 311.564292 -164.92072 
L 303.827417 -171.885431 
L 302.173086 -174.951724 
L 302.008259 -179.680129 
L 301.442856 -180.551855 
L 300.281334 -181.368462 
L 300.23978 -182.002056 
L 299.824676 -184.532148 
L 299.010105 -190.971363 
L 298.113846 -195.395814 
L 296.553451 -199.825617 
L 296.067289 -203.284694 
L 290.661758 -204.484455 
L 282.924883 -206.162086 
L 281.105726 -209.068375 
L 280.540322 -208.593715 
L 279.3788 -206.524369 
L 279.337246 -205.806225 
L 278.922142 -205.074703 
L 278.107571 -205.64301 
L 277.211312 -207.509542 
L 275.650917 -207.785669 
L 275.164755 -205.426818 
L 270.819285 -204.311073 
L 269.759224 -203.988925 
L 262.02235 -205.598059 
L 260.203192 -205.961947 
L 259.637788 -203.553329 
L 258.476266 -206.561292 
L 258.434712 -206.88023 
L 258.019608 -208.943689 
L 257.205037 -208.603882 
L 256.308778 -208.635455 
L 254.748383 -212.29253 
L 254.262221 -212.464842 
L 249.916752 -212.387248 
L 248.85669 -209.113325 
L 241.119816 -207.91196 
L 239.300658 -212.284503 
L 237.532178 -216.598718 
L 237.117074 -215.619966 
L 236.302503 -214.552918 
L 235.406244 -210.192147 
L 233.845849 -203.512124 
L 233.359687 -201.044642 
L 229.014218 -198.188655 
L 228.283988 -196.791432 
L 227.954156 -194.961289 
L 227.122465 -193.916181 
L 220.217282 -189.649057 
L 218.398124 -184.208395 
L 216.21454 -180.439478 
L 215.399969 -176.141317 
L 214.50371 -171.809443 
L 212.457153 -170.834972 
L 208.111684 -169.536212 
L 207.381454 -165.352034 
L 207.051622 -164.664928 
L 206.219931 -164.734495 
L 206.178377 -163.978357 
L 202.492048 -164.120701 
L 197.49559 -161.771482 
L 195.312006 -159.770633 
L 194.497435 -158.52057 
L 193.601176 -157.604964 
L 191.554619 -157.530045 
L 188.863481 -156.599455 
L 187.20915 -154.309101 
L 186.47892 -153.732766 
L 186.149088 -152.913483 
L 185.317397 -149.671668 
L 185.275843 -147.65958 
L 181.589514 -143.161816 
L 173.594901 -140.876813 
L 172.698642 -140.409645 
L 170.652085 -135.870676 
L 167.960947 -135.127381 
L 166.306616 -130.816377 
L 166.141789 -129.79535 
L 165.576386 -127.691756 
L 165.246554 -124.254083 
L 164.414863 -118.517494 
L 164.373309 -117.726038 
L 163.958206 -116.989699 
L 160.68698 -115.332938 
L 152.692367 -115.395548 
L 151.796108 -115.054671 
L 147.058413 -113.115896 
L 145.404082 -113.583064 
L 145.239255 -112.440563 
L 144.673852 -113.005124 
L 144.34402 -113.742533 
L 143.512329 -115.344711 
L 143.470775 -114.681685 
L 143.055672 -114.545762 
L 139.784446 -114.340273 
L 139.298284 -112.880439 
L 130.893574 -111.284683 
L 126.155879 -111.41686 
L 124.501548 -110.621122 
L 124.336721 -111.074912 
L 123.771318 -111.211905 
L 123.441486 -112.501568 
L 122.609795 -112.042426 
L 122.568241 -112.715619 
L 122.153138 -112.786256 
L 121.338566 -113.25396 
L 118.881912 -112.049918 
L 118.39575 -113.318175 
L 105.253345 -112.588259 
L 103.599014 -112.652474 
L 103.434187 -113.466941 
L 102.868784 -112.402569 
L 101.707261 -112.135539 
L 101.665707 -111.606831 
L 101.250604 -110.623798 
L 100.436032 -110.686408 
L 99.539773 -110.151278 
L 97.979378 -109.220153 
L 97.493216 -109.015198 
L 92.087685 -109.490929 
L 84.350811 -109.030717 
L 82.69648 -108.491842 
L 82.531653 -108.620808 
z
" style="stroke: #b85741; stroke-opacity: 0.7; stroke-width: 1.5"/>
    </defs>
    <g clip-path="url(#p00f3381a3a)">
     <use xlink:href="#mb418633e36" x="0" y="287.233281" style="fill: #b85741; fill-opacity: 0.7; stroke: #b85741; stroke-opacity: 0.7; stroke-width: 1.5"/>
    </g>
   </g>
   <g id="matplotlib.axis_1">
    <g id="xtick_1">
     <g id="line2d_1">
      <defs>
       <path id="m2530b0daeb" d="M 0 0 
L 0 3.5 
" style="stroke: #000000; stroke-width: 0.8"/>
      </defs>
      <g>
       <use xlink:href="#m2530b0daeb" x="58.834231" y="244.837969" style="stroke: #000000; stroke-width: 0.8"/>
      </g>
     </g>
     <g id="text_1">
      <!-- −10 -->
      <g transform="translate(46.171418 260.956094) scale(0.12 -0.12)">
       <defs>
        <path id="DejaVuSans-2212" d="M 678 2272 
L 4684 2272 
L 4684 1741 
L 678 1741 
L 678 2272 
z
" transform="scale(0.015625)"/>
        <path id="DejaVuSans-31" d="M 794 531 
L 1825 531 
L 1825 4091 
L 703 3866 
L 703 4441 
L 1819 4666 
L 2450 4666 
L 2450 531 
L 3481 531 
L 3481 0 
L 794 0 
L 794 531 
z
" transform="scale(0.015625)"/>
        <path id="DejaVuSans-30" d="M 2034 4250 
Q 1547 4250 1301 3770 
Q 1056 3291 1056 2328 
Q 1056 1369 1301 889 
Q 1547 409 2034 409 
Q 2525 409 2770 889 
Q 3016 1369 3016 2328 
Q 3016 3291 2770 3770 
Q 2525 4250 2034 4250 
z
M 2034 4750 
Q 2819 4750 3233 4129 
Q 3647 3509 3647 2328 
Q 3647 1150 3233 529 
Q 2819 -91 2034 -91 
Q 1250 -91 836 529 
Q 422 1150 422 2328 
Q 422 3509 836 4129 
Q 1250 4750 2034 4750 
z
" transform="scale(0.015625)"/>
       </defs>
       <use xlink:href="#DejaVuSans-2212"/>
       <use xlink:href="#DejaVuSans-31" x="83.789062"/>
       <use xlink:href="#DejaVuSans-30" x="147.412109"/>
      </g>
     </g>
    </g>
    <g id="xtick_2">
     <g id="line2d_2">
      <g>
       <use xlink:href="#m2530b0daeb" x="163.3469" y="244.837969" style="stroke: #000000; stroke-width: 0.8"/>
      </g>
     </g>
     <g id="text_2">
      <!-- 0 -->
      <g transform="translate(159.5294 260.956094) scale(0.12 -0.12)">
       <use xlink:href="#DejaVuSans-30"/>
      </g>
     </g>
    </g>
    <g id="xtick_3">
     <g id="line2d_3">
      <g>
       <use xlink:href="#m2530b0daeb" x="267.85957" y="244.837969" style="stroke: #000000; stroke-width: 0.8"/>
      </g>
     </g>
     <g id="text_3">
      <!-- 10 -->
      <g transform="translate(260.22457 260.956094) scale(0.12 -0.12)">
       <use xlink:href="#DejaVuSans-31"/>
       <use xlink:href="#DejaVuSans-30" x="63.623047"/>
      </g>
     </g>
    </g>
    <g id="xtick_4">
     <g id="line2d_4">
      <g>
       <use xlink:href="#m2530b0daeb" x="372.37224" y="244.837969" style="stroke: #000000; stroke-width: 0.8"/>
      </g>
     </g>
     <g id="text_4">
      <!-- 20 -->
      <g transform="translate(364.73724 260.956094) scale(0.12 -0.12)">
       <defs>
        <path id="DejaVuSans-32" d="M 1228 531 
L 3431 531 
L 3431 0 
L 469 0 
L 469 531 
Q 828 903 1448 1529 
Q 2069 2156 2228 2338 
Q 2531 2678 2651 2914 
Q 2772 3150 2772 3378 
Q 2772 3750 2511 3984 
Q 2250 4219 1831 4219 
Q 1534 4219 1204 4116 
Q 875 4013 500 3803 
L 500 4441 
Q 881 4594 1212 4672 
Q 1544 4750 1819 4750 
Q 2544 4750 2975 4387 
Q 3406 4025 3406 3419 
Q 3406 3131 3298 2873 
Q 3191 2616 2906 2266 
Q 2828 2175 2409 1742 
Q 1991 1309 1228 531 
z
" transform="scale(0.015625)"/>
       </defs>
       <use xlink:href="#DejaVuSans-32"/>
       <use xlink:href="#DejaVuSans-30" x="63.623047"/>
      </g>
     </g>
    </g>
    <g id="xtick_5">
     <g id="line2d_5">
      <g>
       <use xlink:href="#m2530b0daeb" x="476.88491" y="244.837969" style="stroke: #000000; stroke-width: 0.8"/>
      </g>
     </g>
     <g id="text_5">
      <!-- 30 -->
      <g transform="translate(469.24991 260.956094) scale(0.12 -0.12)">
       <defs>
        <path id="DejaVuSans-33" d="M 2597 2516 
Q 3050 2419 3304 2112 
Q 3559 1806 3559 1356 
Q 3559 666 3084 287 
Q 2609 -91 1734 -91 
Q 1441 -91 1130 -33 
Q 819 25 488 141 
L 488 750 
Q 750 597 1062 519 
Q 1375 441 1716 441 
Q 2309 441 2620 675 
Q 2931 909 2931 1356 
Q 2931 1769 2642 2001 
Q 2353 2234 1838 2234 
L 1294 2234 
L 1294 2753 
L 1863 2753 
Q 2328 2753 2575 2939 
Q 2822 3125 2822 3475 
Q 2822 3834 2567 4026 
Q 2313 4219 1838 4219 
Q 1578 4219 1281 4162 
Q 984 4106 628 3988 
L 628 4550 
Q 988 4650 1302 4700 
Q 1616 4750 1894 4750 
Q 2613 4750 3031 4423 
Q 3450 4097 3450 3541 
Q 3450 3153 3228 2886 
Q 3006 2619 2597 2516 
z
" transform="scale(0.015625)"/>
       </defs>
       <use xlink:href="#DejaVuSans-33"/>
       <use xlink:href="#DejaVuSans-30" x="63.623047"/>
      </g>
     </g>
    </g>
    <g id="text_6">
     <!-- Time (s) -->
     <g transform="translate(282.172734 277.329687) scale(0.13 -0.13)">
      <defs>
       <path id="DejaVuSans-54" d="M -19 4666 
L 3928 4666 
L 3928 4134 
L 2272 4134 
L 2272 0 
L 1638 0 
L 1638 4134 
L -19 4134 
L -19 4666 
z
" transform="scale(0.015625)"/>
       <path id="DejaVuSans-69" d="M 603 3500 
L 1178 3500 
L 1178 0 
L 603 0 
L 603 3500 
z
M 603 4863 
L 1178 4863 
L 1178 4134 
L 603 4134 
L 603 4863 
z
" transform="scale(0.015625)"/>
       <path id="DejaVuSans-6d" d="M 3328 2828 
Q 3544 3216 3844 3400 
Q 4144 3584 4550 3584 
Q 5097 3584 5394 3201 
Q 5691 2819 5691 2113 
L 5691 0 
L 5113 0 
L 5113 2094 
Q 5113 2597 4934 2840 
Q 4756 3084 4391 3084 
Q 3944 3084 3684 2787 
Q 3425 2491 3425 1978 
L 3425 0 
L 2847 0 
L 2847 2094 
Q 2847 2600 2669 2842 
Q 2491 3084 2119 3084 
Q 1678 3084 1418 2786 
Q 1159 2488 1159 1978 
L 1159 0 
L 581 0 
L 581 3500 
L 1159 3500 
L 1159 2956 
Q 1356 3278 1631 3431 
Q 1906 3584 2284 3584 
Q 2666 3584 2933 3390 
Q 3200 3197 3328 2828 
z
" transform="scale(0.015625)"/>
       <path id="DejaVuSans-65" d="M 3597 1894 
L 3597 1613 
L 953 1613 
Q 991 1019 1311 708 
Q 1631 397 2203 397 
Q 2534 397 2845 478 
Q 3156 559 3463 722 
L 3463 178 
Q 3153 47 2828 -22 
Q 2503 -91 2169 -91 
Q 1331 -91 842 396 
Q 353 884 353 1716 
Q 353 2575 817 3079 
Q 1281 3584 2069 3584 
Q 2775 3584 3186 3129 
Q 3597 2675 3597 1894 
z
M 3022 2063 
Q 3016 2534 2758 2815 
Q 2500 3097 2075 3097 
Q 1594 3097 1305 2825 
Q 1016 2553 972 2059 
L 3022 2063 
z
" transform="scale(0.015625)"/>
       <path id="DejaVuSans-20" transform="scale(0.015625)"/>
       <path id="DejaVuSans-28" d="M 1984 4856 
Q 1566 4138 1362 3434 
Q 1159 2731 1159 2009 
Q 1159 1288 1364 580 
Q 1569 -128 1984 -844 
L 1484 -844 
Q 1016 -109 783 600 
Q 550 1309 550 2009 
Q 550 2706 781 3412 
Q 1013 4119 1484 4856 
L 1984 4856 
z
" transform="scale(0.015625)"/>
       <path id="DejaVuSans-73" d="M 2834 3397 
L 2834 2853 
Q 2591 2978 2328 3040 
Q 2066 3103 1784 3103 
Q 1356 3103 1142 2972 
Q 928 2841 928 2578 
Q 928 2378 1081 2264 
Q 1234 2150 1697 2047 
L 1894 2003 
Q 2506 1872 2764 1633 
Q 3022 1394 3022 966 
Q 3022 478 2636 193 
Q 2250 -91 1575 -91 
Q 1294 -91 989 -36 
Q 684 19 347 128 
L 347 722 
Q 666 556 975 473 
Q 1284 391 1588 391 
Q 1994 391 2212 530 
Q 2431 669 2431 922 
Q 2431 1156 2273 1281 
Q 2116 1406 1581 1522 
L 1381 1569 
Q 847 1681 609 1914 
Q 372 2147 372 2553 
Q 372 3047 722 3315 
Q 1072 3584 1716 3584 
Q 2034 3584 2315 3537 
Q 2597 3491 2834 3397 
z
" transform="scale(0.015625)"/>
       <path id="DejaVuSans-29" d="M 513 4856 
L 1013 4856 
Q 1481 4119 1714 3412 
Q 1947 2706 1947 2009 
Q 1947 1309 1714 600 
Q 1481 -109 1013 -844 
L 513 -844 
Q 928 -128 1133 580 
Q 1338 1288 1338 2009 
Q 1338 2731 1133 3434 
Q 928 4138 513 4856 
z
" transform="scale(0.015625)"/>
      </defs>
      <use xlink:href="#DejaVuSans-54"/>
      <use xlink:href="#DejaVuSans-69" x="57.958984"/>
      <use xlink:href="#DejaVuSans-6d" x="85.742188"/>
      <use xlink:href="#DejaVuSans-65" x="183.154297"/>
      <use xlink:href="#DejaVuSans-20" x="244.677734"/>
      <use xlink:href="#DejaVuSans-28" x="276.464844"/>
      <use xlink:href="#DejaVuSans-73" x="315.478516"/>
      <use xlink:href="#DejaVuSans-29" x="367.578125"/>
     </g>
    </g>
   </g>
   <g id="matplotlib.axis_2">
    <g id="ytick_1">
     <g id="line2d_6">
      <defs>
       <path id="m47cb70e3c0" d="M 0 0 
L -3.5 0 
" style="stroke: #000000; stroke-width: 0.8"/>
      </defs>
      <g>
       <use xlink:href="#m47cb70e3c0" x="57.500313" y="244.837969" style="stroke: #000000; stroke-width: 0.8"/>
      </g>
     </g>
     <g id="text_7">
      <!-- 0.0 -->
      <g transform="translate(31.416563 249.397031) scale(0.12 -0.12)">
       <defs>
        <path id="DejaVuSans-2e" d="M 684 794 
L 1344 794 
L 1344 0 
L 684 0 
L 684 794 
z
" transform="scale(0.015625)"/>
       </defs>
       <use xlink:href="#DejaVuSans-30"/>
       <use xlink:href="#DejaVuSans-2e" x="63.623047"/>
       <use xlink:href="#DejaVuSans-30" x="95.410156"/>
      </g>
     </g>
    </g>
    <g id="ytick_2">
     <g id="line2d_7">
      <g>
       <use xlink:href="#m47cb70e3c0" x="57.500313" y="216.743666" style="stroke: #000000; stroke-width: 0.8"/>
      </g>
     </g>
     <g id="text_8">
      <!-- 2.5 -->
      <g transform="translate(31.416563 221.302729) scale(0.12 -0.12)">
       <defs>
        <path id="DejaVuSans-35" d="M 691 4666 
L 3169 4666 
L 3169 4134 
L 1269 4134 
L 1269 2991 
Q 1406 3038 1543 3061 
Q 1681 3084 1819 3084 
Q 2600 3084 3056 2656 
Q 3513 2228 3513 1497 
Q 3513 744 3044 326 
Q 2575 -91 1722 -91 
Q 1428 -91 1123 -41 
Q 819 9 494 109 
L 494 744 
Q 775 591 1075 516 
Q 1375 441 1709 441 
Q 2250 441 2565 725 
Q 2881 1009 2881 1497 
Q 2881 1984 2565 2268 
Q 2250 2553 1709 2553 
Q 1456 2553 1204 2497 
Q 953 2441 691 2322 
L 691 4666 
z
" transform="scale(0.015625)"/>
       </defs>
       <use xlink:href="#DejaVuSans-32"/>
       <use xlink:href="#DejaVuSans-2e" x="63.623047"/>
       <use xlink:href="#DejaVuSans-35" x="95.410156"/>
      </g>
     </g>
    </g>
    <g id="ytick_3">
     <g id="line2d_8">
      <g>
       <use xlink:href="#m47cb70e3c0" x="57.500313" y="188.649364" style="stroke: #000000; stroke-width: 0.8"/>
      </g>
     </g>
     <g id="text_9">
      <!-- 5.0 -->
      <g transform="translate(31.416563 193.208426) scale(0.12 -0.12)">
       <use xlink:href="#DejaVuSans-35"/>
       <use xlink:href="#DejaVuSans-2e" x="63.623047"/>
       <use xlink:href="#DejaVuSans-30" x="95.410156"/>
      </g>
     </g>
    </g>
    <g id="ytick_4">
     <g id="line2d_9">
      <g>
       <use xlink:href="#m47cb70e3c0" x="57.500313" y="160.555061" style="stroke: #000000; stroke-width: 0.8"/>
      </g>
     </g>
     <g id="text_10">
      <!-- 7.5 -->
      <g transform="translate(31.416563 165.114124) scale(0.12 -0.12)">
       <defs>
        <path id="DejaVuSans-37" d="M 525 4666 
L 3525 4666 
L 3525 4397 
L 1831 0 
L 1172 0 
L 2766 4134 
L 525 4134 
L 525 4666 
z
" transform="scale(0.015625)"/>
       </defs>
       <use xlink:href="#DejaVuSans-37"/>
       <use xlink:href="#DejaVuSans-2e" x="63.623047"/>
       <use xlink:href="#DejaVuSans-35" x="95.410156"/>
      </g>
     </g>
    </g>
    <g id="ytick_5">
     <g id="line2d_10">
      <g>
       <use xlink:href="#m47cb70e3c0" x="57.500313" y="132.460759" style="stroke: #000000; stroke-width: 0.8"/>
      </g>
     </g>
     <g id="text_11">
      <!-- 10.0 -->
      <g transform="translate(23.781563 137.019821) scale(0.12 -0.12)">
       <use xlink:href="#DejaVuSans-31"/>
       <use xlink:href="#DejaVuSans-30" x="63.623047"/>
       <use xlink:href="#DejaVuSans-2e" x="127.246094"/>
       <use xlink:href="#DejaVuSans-30" x="159.033203"/>
      </g>
     </g>
    </g>
    <g id="ytick_6">
     <g id="line2d_11">
      <g>
       <use xlink:href="#m47cb70e3c0" x="57.500313" y="104.366456" style="stroke: #000000; stroke-width: 0.8"/>
      </g>
     </g>
     <g id="text_12">
      <!-- 12.5 -->
      <g transform="translate(23.781563 108.925518) scale(0.12 -0.12)">
       <use xlink:href="#DejaVuSans-31"/>
       <use xlink:href="#DejaVuSans-32" x="63.623047"/>
       <use xlink:href="#DejaVuSans-2e" x="127.246094"/>
       <use xlink:href="#DejaVuSans-35" x="159.033203"/>
      </g>
     </g>
    </g>
    <g id="ytick_7">
     <g id="line2d_12">
      <g>
       <use xlink:href="#m47cb70e3c0" x="57.500313" y="76.272153" style="stroke: #000000; stroke-width: 0.8"/>
      </g>
     </g>
     <g id="text_13">
      <!-- 15.0 -->
      <g transform="translate(23.781563 80.831216) scale(0.12 -0.12)">
       <use xlink:href="#DejaVuSans-31"/>
       <use xlink:href="#DejaVuSans-35" x="63.623047"/>
       <use xlink:href="#DejaVuSans-2e" x="127.246094"/>
       <use xlink:href="#DejaVuSans-30" x="159.033203"/>
      </g>
     </g>
    </g>
    <g id="ytick_8">
     <g id="line2d_13">
      <g>
       <use xlink:href="#m47cb70e3c0" x="57.500313" y="48.177851" style="stroke: #000000; stroke-width: 0.8"/>
      </g>
     </g>
     <g id="text_14">
      <!-- 17.5 -->
      <g transform="translate(23.781563 52.736913) scale(0.12 -0.12)">
       <use xlink:href="#DejaVuSans-31"/>
       <use xlink:href="#DejaVuSans-37" x="63.623047"/>
       <use xlink:href="#DejaVuSans-2e" x="127.246094"/>
       <use xlink:href="#DejaVuSans-35" x="159.033203"/>
      </g>
     </g>
    </g>
    <g id="text_15">
     <!-- Utilization (%) -->
     <g transform="translate(17.077969 179.839844) rotate(-90) scale(0.13 -0.13)">
      <defs>
       <path id="DejaVuSans-55" d="M 556 4666 
L 1191 4666 
L 1191 1831 
Q 1191 1081 1462 751 
Q 1734 422 2344 422 
Q 2950 422 3222 751 
Q 3494 1081 3494 1831 
L 3494 4666 
L 4128 4666 
L 4128 1753 
Q 4128 841 3676 375 
Q 3225 -91 2344 -91 
Q 1459 -91 1007 375 
Q 556 841 556 1753 
L 556 4666 
z
" transform="scale(0.015625)"/>
       <path id="DejaVuSans-74" d="M 1172 4494 
L 1172 3500 
L 2356 3500 
L 2356 3053 
L 1172 3053 
L 1172 1153 
Q 1172 725 1289 603 
Q 1406 481 1766 481 
L 2356 481 
L 2356 0 
L 1766 0 
Q 1100 0 847 248 
Q 594 497 594 1153 
L 594 3053 
L 172 3053 
L 172 3500 
L 594 3500 
L 594 4494 
L 1172 4494 
z
" transform="scale(0.015625)"/>
       <path id="DejaVuSans-6c" d="M 603 4863 
L 1178 4863 
L 1178 0 
L 603 0 
L 603 4863 
z
" transform="scale(0.015625)"/>
       <path id="DejaVuSans-7a" d="M 353 3500 
L 3084 3500 
L 3084 2975 
L 922 459 
L 3084 459 
L 3084 0 
L 275 0 
L 275 525 
L 2438 3041 
L 353 3041 
L 353 3500 
z
" transform="scale(0.015625)"/>
       <path id="DejaVuSans-61" d="M 2194 1759 
Q 1497 1759 1228 1600 
Q 959 1441 959 1056 
Q 959 750 1161 570 
Q 1363 391 1709 391 
Q 2188 391 2477 730 
Q 2766 1069 2766 1631 
L 2766 1759 
L 2194 1759 
z
M 3341 1997 
L 3341 0 
L 2766 0 
L 2766 531 
Q 2569 213 2275 61 
Q 1981 -91 1556 -91 
Q 1019 -91 701 211 
Q 384 513 384 1019 
Q 384 1609 779 1909 
Q 1175 2209 1959 2209 
L 2766 2209 
L 2766 2266 
Q 2766 2663 2505 2880 
Q 2244 3097 1772 3097 
Q 1472 3097 1187 3025 
Q 903 2953 641 2809 
L 641 3341 
Q 956 3463 1253 3523 
Q 1550 3584 1831 3584 
Q 2591 3584 2966 3190 
Q 3341 2797 3341 1997 
z
" transform="scale(0.015625)"/>
       <path id="DejaVuSans-6f" d="M 1959 3097 
Q 1497 3097 1228 2736 
Q 959 2375 959 1747 
Q 959 1119 1226 758 
Q 1494 397 1959 397 
Q 2419 397 2687 759 
Q 2956 1122 2956 1747 
Q 2956 2369 2687 2733 
Q 2419 3097 1959 3097 
z
M 1959 3584 
Q 2709 3584 3137 3096 
Q 3566 2609 3566 1747 
Q 3566 888 3137 398 
Q 2709 -91 1959 -91 
Q 1206 -91 779 398 
Q 353 888 353 1747 
Q 353 2609 779 3096 
Q 1206 3584 1959 3584 
z
" transform="scale(0.015625)"/>
       <path id="DejaVuSans-6e" d="M 3513 2113 
L 3513 0 
L 2938 0 
L 2938 2094 
Q 2938 2591 2744 2837 
Q 2550 3084 2163 3084 
Q 1697 3084 1428 2787 
Q 1159 2491 1159 1978 
L 1159 0 
L 581 0 
L 581 3500 
L 1159 3500 
L 1159 2956 
Q 1366 3272 1645 3428 
Q 1925 3584 2291 3584 
Q 2894 3584 3203 3211 
Q 3513 2838 3513 2113 
z
" transform="scale(0.015625)"/>
       <path id="DejaVuSans-25" d="M 4653 2053 
Q 4381 2053 4226 1822 
Q 4072 1591 4072 1178 
Q 4072 772 4226 539 
Q 4381 306 4653 306 
Q 4919 306 5073 539 
Q 5228 772 5228 1178 
Q 5228 1588 5073 1820 
Q 4919 2053 4653 2053 
z
M 4653 2450 
Q 5147 2450 5437 2106 
Q 5728 1763 5728 1178 
Q 5728 594 5436 251 
Q 5144 -91 4653 -91 
Q 4153 -91 3862 251 
Q 3572 594 3572 1178 
Q 3572 1766 3864 2108 
Q 4156 2450 4653 2450 
z
M 1428 4353 
Q 1159 4353 1004 4120 
Q 850 3888 850 3481 
Q 850 3069 1003 2837 
Q 1156 2606 1428 2606 
Q 1700 2606 1854 2837 
Q 2009 3069 2009 3481 
Q 2009 3884 1853 4118 
Q 1697 4353 1428 4353 
z
M 4250 4750 
L 4750 4750 
L 1831 -91 
L 1331 -91 
L 4250 4750 
z
M 1428 4750 
Q 1922 4750 2215 4408 
Q 2509 4066 2509 3481 
Q 2509 2891 2217 2550 
Q 1925 2209 1428 2209 
Q 931 2209 642 2551 
Q 353 2894 353 3481 
Q 353 4063 643 4406 
Q 934 4750 1428 4750 
z
" transform="scale(0.015625)"/>
      </defs>
      <use xlink:href="#DejaVuSans-55"/>
      <use xlink:href="#DejaVuSans-74" x="73.193359"/>
      <use xlink:href="#DejaVuSans-69" x="112.402344"/>
      <use xlink:href="#DejaVuSans-6c" x="140.185547"/>
      <use xlink:href="#DejaVuSans-69" x="167.96875"/>
      <use xlink:href="#DejaVuSans-7a" x="195.751953"/>
      <use xlink:href="#DejaVuSans-61" x="248.242188"/>
      <use xlink:href="#DejaVuSans-74" x="309.521484"/>
      <use xlink:href="#DejaVuSans-69" x="348.730469"/>
      <use xlink:href="#DejaVuSans-6f" x="376.513672"/>
      <use xlink:href="#DejaVuSans-6e" x="437.695312"/>
      <use xlink:href="#DejaVuSans-20" x="501.074219"/>
      <use xlink:href="#DejaVuSans-28" x="532.861328"/>
      <use xlink:href="#DejaVuSans-25" x="571.875"/>
      <use xlink:href="#DejaVuSans-29" x="666.894531"/>
     </g>
    </g>
   </g>
   <g id="patch_3">
    <path d="M 57.500313 244.837969 
L 57.500313 23.077969 
" style="fill: none; stroke: #000000; stroke-width: 0.8; stroke-linejoin: miter; stroke-linecap: square"/>
   </g>
   <g id="patch_4">
    <path d="M 559.700313 244.837969 
L 559.700313 23.077969 
" style="fill: none; stroke: #000000; stroke-width: 0.8; stroke-linejoin: miter; stroke-linecap: square"/>
   </g>
   <g id="patch_5">
    <path d="M 57.500313 244.837969 
L 559.700313 244.837969 
" style="fill: none; stroke: #000000; stroke-width: 0.8; stroke-linejoin: miter; stroke-linecap: square"/>
   </g>
   <g id="patch_6">
    <path d="M 57.500313 23.077969 
L 559.700313 23.077969 
" style="fill: none; stroke: #000000; stroke-width: 0.8; stroke-linejoin: miter; stroke-linecap: square"/>
   </g>
   <g id="text_16">
    <!-- Live Migrate (CPU) -->
    <g transform="translate(248.163516 17.077969) scale(0.13 -0.13)">
     <defs>
      <path id="DejaVuSans-4c" d="M 628 4666 
L 1259 4666 
L 1259 531 
L 3531 531 
L 3531 0 
L 628 0 
L 628 4666 
z
" transform="scale(0.015625)"/>
      <path id="DejaVuSans-76" d="M 191 3500 
L 800 3500 
L 1894 563 
L 2988 3500 
L 3597 3500 
L 2284 0 
L 1503 0 
L 191 3500 
z
" transform="scale(0.015625)"/>
      <path id="DejaVuSans-4d" d="M 628 4666 
L 1569 4666 
L 2759 1491 
L 3956 4666 
L 4897 4666 
L 4897 0 
L 4281 0 
L 4281 4097 
L 3078 897 
L 2444 897 
L 1241 4097 
L 1241 0 
L 628 0 
L 628 4666 
z
" transform="scale(0.015625)"/>
      <path id="DejaVuSans-67" d="M 2906 1791 
Q 2906 2416 2648 2759 
Q 2391 3103 1925 3103 
Q 1463 3103 1205 2759 
Q 947 2416 947 1791 
Q 947 1169 1205 825 
Q 1463 481 1925 481 
Q 2391 481 2648 825 
Q 2906 1169 2906 1791 
z
M 3481 434 
Q 3481 -459 3084 -895 
Q 2688 -1331 1869 -1331 
Q 1566 -1331 1297 -1286 
Q 1028 -1241 775 -1147 
L 775 -588 
Q 1028 -725 1275 -790 
Q 1522 -856 1778 -856 
Q 2344 -856 2625 -561 
Q 2906 -266 2906 331 
L 2906 616 
Q 2728 306 2450 153 
Q 2172 0 1784 0 
Q 1141 0 747 490 
Q 353 981 353 1791 
Q 353 2603 747 3093 
Q 1141 3584 1784 3584 
Q 2172 3584 2450 3431 
Q 2728 3278 2906 2969 
L 2906 3500 
L 3481 3500 
L 3481 434 
z
" transform="scale(0.015625)"/>
      <path id="DejaVuSans-72" d="M 2631 2963 
Q 2534 3019 2420 3045 
Q 2306 3072 2169 3072 
Q 1681 3072 1420 2755 
Q 1159 2438 1159 1844 
L 1159 0 
L 581 0 
L 581 3500 
L 1159 3500 
L 1159 2956 
Q 1341 3275 1631 3429 
Q 1922 3584 2338 3584 
Q 2397 3584 2469 3576 
Q 2541 3569 2628 3553 
L 2631 2963 
z
" transform="scale(0.015625)"/>
      <path id="DejaVuSans-43" d="M 4122 4306 
L 4122 3641 
Q 3803 3938 3442 4084 
Q 3081 4231 2675 4231 
Q 1875 4231 1450 3742 
Q 1025 3253 1025 2328 
Q 1025 1406 1450 917 
Q 1875 428 2675 428 
Q 3081 428 3442 575 
Q 3803 722 4122 1019 
L 4122 359 
Q 3791 134 3420 21 
Q 3050 -91 2638 -91 
Q 1578 -91 968 557 
Q 359 1206 359 2328 
Q 359 3453 968 4101 
Q 1578 4750 2638 4750 
Q 3056 4750 3426 4639 
Q 3797 4528 4122 4306 
z
" transform="scale(0.015625)"/>
      <path id="DejaVuSans-50" d="M 1259 4147 
L 1259 2394 
L 2053 2394 
Q 2494 2394 2734 2622 
Q 2975 2850 2975 3272 
Q 2975 3691 2734 3919 
Q 2494 4147 2053 4147 
L 1259 4147 
z
M 628 4666 
L 2053 4666 
Q 2838 4666 3239 4311 
Q 3641 3956 3641 3272 
Q 3641 2581 3239 2228 
Q 2838 1875 2053 1875 
L 1259 1875 
L 1259 0 
L 628 0 
L 628 4666 
z
" transform="scale(0.015625)"/>
     </defs>
     <use xlink:href="#DejaVuSans-4c"/>
     <use xlink:href="#DejaVuSans-69" x="55.712891"/>
     <use xlink:href="#DejaVuSans-76" x="83.496094"/>
     <use xlink:href="#DejaVuSans-65" x="142.675781"/>
     <use xlink:href="#DejaVuSans-20" x="204.199219"/>
     <use xlink:href="#DejaVuSans-4d" x="235.986328"/>
     <use xlink:href="#DejaVuSans-69" x="322.265625"/>
     <use xlink:href="#DejaVuSans-67" x="350.048828"/>
     <use xlink:href="#DejaVuSans-72" x="413.525391"/>
     <use xlink:href="#DejaVuSans-61" x="454.638672"/>
     <use xlink:href="#DejaVuSans-74" x="515.917969"/>
     <use xlink:href="#DejaVuSans-65" x="555.126953"/>
     <use xlink:href="#DejaVuSans-20" x="616.650391"/>
     <use xlink:href="#DejaVuSans-28" x="648.4375"/>
     <use xlink:href="#DejaVuSans-43" x="687.451172"/>
     <use xlink:href="#DejaVuSans-50" x="757.275391"/>
     <use xlink:href="#DejaVuSans-55" x="817.578125"/>
     <use xlink:href="#DejaVuSans-29" x="890.771484"/>
    </g>
   </g>
   <g id="legend_1">
    <g id="patch_7">
     <path d="M 438.575313 67.905469 
L 551.300313 67.905469 
Q 553.700313 67.905469 553.700313 65.505469 
L 553.700313 31.477969 
Q 553.700313 29.077969 551.300313 29.077969 
L 438.575313 29.077969 
Q 436.175313 29.077969 436.175313 31.477969 
L 436.175313 65.505469 
Q 436.175313 67.905469 438.575313 67.905469 
z
" style="fill: #ffffff; opacity: 0.8; stroke: #cccccc; stroke-linejoin: miter"/>
    </g>
    <g id="patch_8">
     <path d="M 440.975313 42.996094 
L 464.975313 42.996094 
L 464.975313 34.596094 
L 440.975313 34.596094 
z
" style="fill: #009384; fill-opacity: 0.7; stroke: #009384; stroke-opacity: 0.7; stroke-width: 1.5; stroke-linejoin: miter"/>
    </g>
    <g id="text_17">
     <!-- KubeVirt -->
     <g transform="translate(474.575313 42.996094) scale(0.12 -0.12)">
      <defs>
       <path id="DejaVuSans-4b" d="M 628 4666 
L 1259 4666 
L 1259 2694 
L 3353 4666 
L 4166 4666 
L 1850 2491 
L 4331 0 
L 3500 0 
L 1259 2247 
L 1259 0 
L 628 0 
L 628 4666 
z
" transform="scale(0.015625)"/>
       <path id="DejaVuSans-75" d="M 544 1381 
L 544 3500 
L 1119 3500 
L 1119 1403 
Q 1119 906 1312 657 
Q 1506 409 1894 409 
Q 2359 409 2629 706 
Q 2900 1003 2900 1516 
L 2900 3500 
L 3475 3500 
L 3475 0 
L 2900 0 
L 2900 538 
Q 2691 219 2414 64 
Q 2138 -91 1772 -91 
Q 1169 -91 856 284 
Q 544 659 544 1381 
z
M 1991 3584 
L 1991 3584 
z
" transform="scale(0.015625)"/>
       <path id="DejaVuSans-62" d="M 3116 1747 
Q 3116 2381 2855 2742 
Q 2594 3103 2138 3103 
Q 1681 3103 1420 2742 
Q 1159 2381 1159 1747 
Q 1159 1113 1420 752 
Q 1681 391 2138 391 
Q 2594 391 2855 752 
Q 3116 1113 3116 1747 
z
M 1159 2969 
Q 1341 3281 1617 3432 
Q 1894 3584 2278 3584 
Q 2916 3584 3314 3078 
Q 3713 2572 3713 1747 
Q 3713 922 3314 415 
Q 2916 -91 2278 -91 
Q 1894 -91 1617 61 
Q 1341 213 1159 525 
L 1159 0 
L 581 0 
L 581 4863 
L 1159 4863 
L 1159 2969 
z
" transform="scale(0.015625)"/>
       <path id="DejaVuSans-56" d="M 1831 0 
L 50 4666 
L 709 4666 
L 2188 738 
L 3669 4666 
L 4325 4666 
L 2547 0 
L 1831 0 
z
" transform="scale(0.015625)"/>
      </defs>
      <use xlink:href="#DejaVuSans-4b"/>
      <use xlink:href="#DejaVuSans-75" x="60.576172"/>
      <use xlink:href="#DejaVuSans-62" x="123.955078"/>
      <use xlink:href="#DejaVuSans-65" x="187.431641"/>
      <use xlink:href="#DejaVuSans-56" x="248.955078"/>
      <use xlink:href="#DejaVuSans-69" x="315.113281"/>
      <use xlink:href="#DejaVuSans-72" x="342.896484"/>
      <use xlink:href="#DejaVuSans-74" x="384.009766"/>
     </g>
    </g>
    <g id="patch_9">
     <path d="M 440.975313 60.609844 
L 464.975313 60.609844 
L 464.975313 52.209844 
L 440.975313 52.209844 
z
" style="fill: #b85741; fill-opacity: 0.7; stroke: #b85741; stroke-opacity: 0.7; stroke-width: 1.5; stroke-linejoin: miter"/>
    </g>
    <g id="text_18">
     <!-- OpenNebula -->
     <g transform="translate(474.575313 60.609844) scale(0.12 -0.12)">
      <defs>
       <path id="DejaVuSans-4f" d="M 2522 4238 
Q 1834 4238 1429 3725 
Q 1025 3213 1025 2328 
Q 1025 1447 1429 934 
Q 1834 422 2522 422 
Q 3209 422 3611 934 
Q 4013 1447 4013 2328 
Q 4013 3213 3611 3725 
Q 3209 4238 2522 4238 
z
M 2522 4750 
Q 3503 4750 4090 4092 
Q 4678 3434 4678 2328 
Q 4678 1225 4090 567 
Q 3503 -91 2522 -91 
Q 1538 -91 948 565 
Q 359 1222 359 2328 
Q 359 3434 948 4092 
Q 1538 4750 2522 4750 
z
" transform="scale(0.015625)"/>
       <path id="DejaVuSans-70" d="M 1159 525 
L 1159 -1331 
L 581 -1331 
L 581 3500 
L 1159 3500 
L 1159 2969 
Q 1341 3281 1617 3432 
Q 1894 3584 2278 3584 
Q 2916 3584 3314 3078 
Q 3713 2572 3713 1747 
Q 3713 922 3314 415 
Q 2916 -91 2278 -91 
Q 1894 -91 1617 61 
Q 1341 213 1159 525 
z
M 3116 1747 
Q 3116 2381 2855 2742 
Q 2594 3103 2138 3103 
Q 1681 3103 1420 2742 
Q 1159 2381 1159 1747 
Q 1159 1113 1420 752 
Q 1681 391 2138 391 
Q 2594 391 2855 752 
Q 3116 1113 3116 1747 
z
" transform="scale(0.015625)"/>
       <path id="DejaVuSans-4e" d="M 628 4666 
L 1478 4666 
L 3547 763 
L 3547 4666 
L 4159 4666 
L 4159 0 
L 3309 0 
L 1241 3903 
L 1241 0 
L 628 0 
L 628 4666 
z
" transform="scale(0.015625)"/>
      </defs>
      <use xlink:href="#DejaVuSans-4f"/>
      <use xlink:href="#DejaVuSans-70" x="78.710938"/>
      <use xlink:href="#DejaVuSans-65" x="142.1875"/>
      <use xlink:href="#DejaVuSans-6e" x="203.710938"/>
      <use xlink:href="#DejaVuSans-4e" x="267.089844"/>
      <use xlink:href="#DejaVuSans-65" x="341.894531"/>
      <use xlink:href="#DejaVuSans-62" x="403.417969"/>
      <use xlink:href="#DejaVuSans-75" x="466.894531"/>
      <use xlink:href="#DejaVuSans-6c" x="530.273438"/>
      <use xlink:href="#DejaVuSans-61" x="558.056641"/>
     </g>
    </g>
   </g>
  </g>
 </g>
 <defs>
  <clipPath id="p00f3381a3a">
   <rect x="57.500313" y="23.077969" width="502.2" height="221.76"/>
  </clipPath>
 </defs>
</svg>
