<?xml version="1.0" encoding="utf-8" standalone="no"?>
<!DOCTYPE svg PUBLIC "-//W3C//DTD SVG 1.1//EN"
  "http://www.w3.org/Graphics/SVG/1.1/DTD/svg11.dtd">
<svg xmlns:xlink="http://www.w3.org/1999/xlink" width="574.592812pt" height="298.015156pt" viewBox="0 0 574.592812 298.015156" xmlns="http://www.w3.org/2000/svg" version="1.1">
 <metadata>
  <rdf:RDF xmlns:dc="http://purl.org/dc/elements/1.1/" xmlns:cc="http://creativecommons.org/ns#" xmlns:rdf="http://www.w3.org/1999/02/22-rdf-syntax-ns#">
   <cc:Work>
    <dc:type rdf:resource="http://purl.org/dc/dcmitype/StillImage"/>
    <dc:date>2024-06-25T10:49:31.386318</dc:date>
    <dc:format>image/svg+xml</dc:format>
    <dc:creator>
     <cc:Agent>
      <dc:title>Matplotlib v3.8.4, https://matplotlib.org/</dc:title>
     </cc:Agent>
    </dc:creator>
   </cc:Work>
  </rdf:RDF>
 </metadata>
 <defs>
  <style type="text/css">*{stroke-linejoin: round; stroke-linecap: butt}</style>
 </defs>
 <g id="figure_1">
  <g id="patch_1">
   <path d="M 0 298.015156 
L 574.592812 298.015156 
L 574.592812 0 
L 0 0 
z
" style="fill: #f3f7f8"/>
  </g>
  <g id="axes_1">
   <g id="patch_2">
    <path d="M 65.192813 247.877344 
L 567.392813 247.877344 
L 567.392813 26.117344 
L 65.192813 26.117344 
z
" style="fill: #ffffff"/>
   </g>
   <g id="PolyCollection_1">
    <defs>
     <path id="mc2205ab1b0" d="M 88.020085 -103.633788 
L 88.020085 -60.217812 
L 92.06031 -60.217812 
L 96.100536 -60.217812 
L 100.140761 -60.217812 
L 104.180986 -60.217812 
L 108.221212 -60.217812 
L 112.261437 -60.217812 
L 116.301662 -60.217812 
L 120.341887 -60.217812 
L 124.382113 -60.217812 
L 128.422338 -60.217812 
L 132.462563 -60.217812 
L 136.502788 -60.217812 
L 140.543014 -60.217812 
L 144.583239 -60.217812 
L 148.623464 -60.217812 
L 152.663689 -60.217812 
L 156.703915 -60.217812 
L 160.74414 -60.217812 
L 164.784365 -60.217812 
L 168.82459 -60.217812 
L 172.864816 -60.217812 
L 176.905041 -60.217812 
L 180.945266 -60.217812 
L 184.985492 -60.217812 
L 189.025717 -60.217812 
L 193.065942 -60.217812 
L 197.106167 -60.217812 
L 201.146393 -60.217812 
L 205.186618 -60.217812 
L 209.226843 -60.217812 
L 213.267068 -60.217812 
L 217.307294 -60.217812 
L 221.347519 -60.217812 
L 225.387744 -60.217812 
L 229.427969 -60.217812 
L 233.468195 -60.217812 
L 237.50842 -60.217812 
L 241.548645 -60.217812 
L 245.58887 -60.217812 
L 249.629096 -60.217812 
L 253.669321 -60.217812 
L 257.709546 -60.217812 
L 261.749771 -60.217812 
L 265.789997 -60.217812 
L 269.830222 -60.365772 
L 273.870447 -65.56146 
L 277.910673 -69.222636 
L 281.950898 -74.041251 
L 285.991123 -81.557938 
L 290.031348 -86.175044 
L 294.071574 -92.791062 
L 298.111799 -96.507125 
L 302.152024 -101.198423 
L 306.192249 -103.508574 
L 310.232475 -106.22964 
L 314.2727 -107.938732 
L 318.312925 -106.652684 
L 322.35315 -107.030633 
L 326.393376 -105.691266 
L 330.433601 -101.799272 
L 334.473826 -100.442148 
L 338.514051 -98.02338 
L 342.554277 -97.077345 
L 346.594502 -94.524723 
L 350.634727 -93.072279 
L 354.674952 -90.51403 
L 358.715178 -87.469073 
L 362.755403 -85.621617 
L 366.795628 -82.572713 
L 370.835854 -80.342545 
L 374.876079 -76.832973 
L 378.916304 -74.006284 
L 382.956529 -69.196737 
L 386.996755 -67.423336 
L 391.03698 -64.377467 
L 395.077205 -63.544918 
L 399.11743 -61.760181 
L 403.157656 -60.217812 
L 407.197881 -60.217812 
L 411.238106 -60.217812 
L 415.278331 -60.217812 
L 419.318557 -60.217812 
L 423.358782 -60.217812 
L 427.399007 -60.217812 
L 431.439232 -60.217812 
L 435.479458 -60.217812 
L 439.519683 -60.217812 
L 443.559908 -60.217812 
L 447.600133 -60.217812 
L 451.640359 -60.217812 
L 455.680584 -60.217812 
L 459.720809 -60.217812 
L 463.761035 -60.217812 
L 467.80126 -60.217812 
L 471.841485 -60.217812 
L 475.88171 -60.217812 
L 479.921936 -60.217812 
L 483.962161 -60.217812 
L 488.002386 -60.217812 
L 492.042611 -60.217812 
L 496.082837 -60.217812 
L 500.123062 -60.217812 
L 504.163287 -60.217812 
L 508.203512 -60.217812 
L 512.243738 -60.217812 
L 516.283963 -60.217812 
L 520.324188 -60.217812 
L 524.364413 -60.217812 
L 528.404639 -60.217812 
L 532.444864 -60.217812 
L 536.485089 -60.217812 
L 544.56554 -60.217812 
L 544.56554 -101.694042 
L 544.56554 -101.694042 
L 536.485089 -104.005734 
L 532.444864 -101.501339 
L 528.404639 -105.785896 
L 524.364413 -108.883265 
L 520.324188 -112.322559 
L 516.283963 -115.63853 
L 512.243738 -120.600086 
L 508.203512 -115.835687 
L 504.163287 -115.543212 
L 500.123062 -110.589569 
L 496.082837 -110.67048 
L 492.042611 -111.564064 
L 488.002386 -112.115308 
L 483.962161 -114.833286 
L 479.921936 -115.907512 
L 475.88171 -119.191783 
L 471.841485 -120.726746 
L 467.80126 -122.56094 
L 463.761035 -125.806352 
L 459.720809 -129.810477 
L 455.680584 -133.969453 
L 451.640359 -137.739106 
L 447.600133 -142.88664 
L 443.559908 -145.244685 
L 439.519683 -146.679961 
L 435.479458 -148.890991 
L 431.439232 -149.592475 
L 427.399007 -150.653062 
L 423.358782 -150.610983 
L 419.318557 -150.577623 
L 415.278331 -150.044698 
L 411.238106 -150.768501 
L 407.197881 -150.306998 
L 403.157656 -150.625143 
L 399.11743 -150.420539 
L 395.077205 -150.411965 
L 391.03698 -149.937362 
L 386.996755 -150.896593 
L 382.956529 -150.875268 
L 378.916304 -152.533119 
L 374.876079 -153.264199 
L 370.835854 -154.692826 
L 366.795628 -154.853769 
L 362.755403 -157.244963 
L 358.715178 -158.575478 
L 354.674952 -161.045453 
L 350.634727 -163.115173 
L 346.594502 -166.099121 
L 342.554277 -168.415568 
L 338.514051 -171.360478 
L 334.473826 -173.009489 
L 330.433601 -175.403327 
L 326.393376 -176.211895 
L 322.35315 -177.958242 
L 318.312925 -178.561806 
L 314.2727 -179.086044 
L 310.232475 -178.642807 
L 306.192249 -178.538471 
L 302.152024 -176.72045 
L 298.111799 -175.458032 
L 294.071574 -172.897178 
L 290.031348 -170.351065 
L 285.991123 -168.093578 
L 281.950898 -165.158044 
L 277.910673 -162.418355 
L 273.870447 -158.693451 
L 269.830222 -154.894096 
L 265.789997 -151.151511 
L 261.749771 -147.518283 
L 257.709546 -144.624348 
L 253.669321 -142.139935 
L 249.629096 -140.119483 
L 245.58887 -138.251329 
L 241.548645 -136.708791 
L 237.50842 -136.713554 
L 233.468195 -136.232309 
L 229.427969 -137.202214 
L 225.387744 -138.672931 
L 221.347519 -140.287629 
L 217.307294 -141.669739 
L 213.267068 -143.702981 
L 209.226843 -143.71691 
L 205.186618 -145.228768 
L 201.146393 -148.542513 
L 197.106167 -151.320858 
L 193.065942 -153.735093 
L 189.025717 -156.064536 
L 184.985492 -157.855475 
L 180.945266 -159.662253 
L 176.905041 -161.056224 
L 172.864816 -162.953204 
L 168.82459 -164.240236 
L 164.784365 -167.07491 
L 160.74414 -168.612723 
L 156.703915 -169.045953 
L 152.663689 -169.132025 
L 148.623464 -168.268344 
L 144.583239 -166.359919 
L 140.543014 -160.071183 
L 136.502788 -152.879625 
L 132.462563 -145.829473 
L 128.422338 -139.247155 
L 124.382113 -132.679361 
L 120.341887 -127.132029 
L 116.301662 -120.819021 
L 112.261437 -114.738944 
L 108.221212 -109.304405 
L 104.180986 -105.522534 
L 100.140761 -101.252558 
L 96.100536 -102.170385 
L 92.06031 -102.942537 
L 88.020085 -103.633788 
z
" style="stroke: #009384; stroke-opacity: 0.15"/>
    </defs>
    <g clip-path="url(#pd267584034)">
     <use xlink:href="#mc2205ab1b0" x="0" y="298.015156" style="fill: #009384; fill-opacity: 0.15; stroke: #009384; stroke-opacity: 0.15"/>
    </g>
   </g>
   <g id="PolyCollection_2">
    <defs>
     <path id="mdf7bc65b9c" d="M 88.020085 -80.192676 
L 88.020085 -60.217812 
L 92.06031 -60.217812 
L 96.100536 -60.379492 
L 100.140761 -60.435493 
L 104.180986 -60.648227 
L 108.221212 -60.217812 
L 112.261437 -60.217812 
L 116.301662 -60.217812 
L 120.341887 -60.217812 
L 124.382113 -60.217812 
L 128.422338 -60.217812 
L 132.462563 -60.217812 
L 136.502788 -60.217812 
L 140.543014 -60.98817 
L 144.583239 -63.181821 
L 148.623464 -65.66406 
L 152.663689 -68.660511 
L 156.703915 -72.348949 
L 160.74414 -75.678252 
L 164.784365 -78.250477 
L 168.82459 -80.73975 
L 172.864816 -82.461413 
L 176.905041 -83.692209 
L 180.945266 -85.472016 
L 184.985492 -86.036085 
L 189.025717 -85.233005 
L 193.065942 -85.410059 
L 197.106167 -85.573891 
L 201.146393 -86.117635 
L 205.186618 -87.579129 
L 209.226843 -90.333931 
L 213.267068 -94.201274 
L 217.307294 -98.241169 
L 221.347519 -104.146152 
L 225.387744 -109.33791 
L 229.427969 -114.870347 
L 233.468195 -121.738152 
L 237.50842 -126.258941 
L 241.548645 -129.764627 
L 245.58887 -131.324634 
L 249.629096 -133.427322 
L 253.669321 -134.828371 
L 257.709546 -137.877721 
L 261.749771 -141.628536 
L 265.789997 -145.732453 
L 269.830222 -152.069171 
L 273.870447 -157.490861 
L 277.910673 -163.183898 
L 281.950898 -169.174882 
L 285.991123 -176.407685 
L 290.031348 -179.882972 
L 294.071574 -184.017049 
L 298.111799 -184.844113 
L 302.152024 -181.257067 
L 306.192249 -175.30036 
L 310.232475 -167.478075 
L 314.2727 -156.312121 
L 318.312925 -145.022074 
L 322.35315 -132.361999 
L 326.393376 -120.56232 
L 330.433601 -107.812543 
L 334.473826 -100.556542 
L 338.514051 -90.996505 
L 342.554277 -85.551895 
L 346.594502 -81.09535 
L 350.634727 -78.693418 
L 354.674952 -75.742021 
L 358.715178 -73.372124 
L 362.755403 -72.355525 
L 366.795628 -72.590408 
L 370.835854 -72.351617 
L 374.876079 -72.168937 
L 378.916304 -70.333619 
L 382.956529 -69.95514 
L 386.996755 -68.632208 
L 391.03698 -68.065447 
L 395.077205 -67.649099 
L 399.11743 -66.952306 
L 403.157656 -66.950835 
L 407.197881 -67.127843 
L 411.238106 -65.979087 
L 415.278331 -65.031525 
L 419.318557 -64.604279 
L 423.358782 -65.007316 
L 427.399007 -64.395207 
L 431.439232 -64.209326 
L 435.479458 -64.233736 
L 439.519683 -63.978781 
L 443.559908 -64.40212 
L 447.600133 -64.685483 
L 451.640359 -64.890031 
L 455.680584 -65.747983 
L 459.720809 -65.951211 
L 463.761035 -66.675692 
L 467.80126 -67.762948 
L 471.841485 -68.494514 
L 475.88171 -73.365971 
L 479.921936 -75.132376 
L 483.962161 -77.334722 
L 488.002386 -77.173031 
L 496.082837 -78.295997 
L 504.163287 -82.871893 
L 504.163287 -113.036727 
L 504.163287 -113.036727 
L 496.082837 -106.559198 
L 488.002386 -107.091719 
L 483.962161 -106.469593 
L 479.921936 -107.074929 
L 475.88171 -104.587288 
L 471.841485 -101.566805 
L 467.80126 -100.796984 
L 463.761035 -96.743281 
L 459.720809 -95.68839 
L 455.680584 -95.200654 
L 451.640359 -94.075415 
L 447.600133 -95.29675 
L 443.559908 -95.173088 
L 439.519683 -95.237957 
L 435.479458 -96.919359 
L 431.439232 -96.781098 
L 427.399007 -97.865145 
L 423.358782 -98.548012 
L 419.318557 -99.363231 
L 415.278331 -99.833657 
L 411.238106 -103.327967 
L 407.197881 -105.361039 
L 403.157656 -105.840006 
L 399.11743 -107.017765 
L 395.077205 -110.18202 
L 391.03698 -110.58475 
L 386.996755 -113.321185 
L 382.956529 -117.449665 
L 378.916304 -120.310499 
L 374.876079 -125.478974 
L 370.835854 -126.188588 
L 366.795628 -127.501631 
L 362.755403 -127.310319 
L 358.715178 -130.637447 
L 354.674952 -134.464513 
L 350.634727 -139.854256 
L 346.594502 -144.932337 
L 342.554277 -152.871293 
L 338.514051 -160.248546 
L 334.473826 -172.112242 
L 330.433601 -181.098227 
L 326.393376 -195.860749 
L 322.35315 -208.14718 
L 318.312925 -222.736646 
L 314.2727 -234.431834 
L 310.232475 -245.826603 
L 306.192249 -253.201808 
L 302.152024 -260.036612 
L 298.111799 -261.817813 
L 294.071574 -260.221302 
L 290.031348 -254.596349 
L 285.991123 -249.735448 
L 281.950898 -243.339462 
L 277.910673 -237.002221 
L 273.870447 -232.808664 
L 269.830222 -228.384064 
L 265.789997 -224.320411 
L 261.749771 -221.995301 
L 257.709546 -219.825625 
L 253.669321 -219.168055 
L 249.629096 -221.049445 
L 245.58887 -221.089257 
L 241.548645 -222.092587 
L 237.50842 -218.908322 
L 233.468195 -216.096663 
L 229.427969 -206.78387 
L 225.387744 -201.09586 
L 221.347519 -193.527497 
L 217.307294 -188.497897 
L 213.267068 -183.330968 
L 209.226843 -179.376211 
L 205.186618 -173.877754 
L 201.146393 -171.718904 
L 197.106167 -169.490102 
L 193.065942 -168.65469 
L 189.025717 -166.862333 
L 184.985492 -169.076738 
L 180.945266 -167.321958 
L 176.905041 -163.564744 
L 172.864816 -155.444094 
L 168.82459 -148.474408 
L 164.784365 -139.788187 
L 160.74414 -130.866242 
L 156.703915 -122.537435 
L 152.663689 -112.668999 
L 148.623464 -105.63125 
L 144.583239 -97.391877 
L 140.543014 -90.292405 
L 136.502788 -84.042921 
L 132.462563 -82.012633 
L 128.422338 -81.497693 
L 124.382113 -79.357931 
L 120.341887 -78.503429 
L 116.301662 -79.645816 
L 112.261437 -77.892266 
L 108.221212 -77.799429 
L 104.180986 -77.238833 
L 100.140761 -78.03598 
L 96.100536 -78.002717 
L 92.06031 -80.276857 
L 88.020085 -80.192676 
z
" style="stroke: #b85741; stroke-opacity: 0.15"/>
    </defs>
    <g clip-path="url(#pd267584034)">
     <use xlink:href="#mdf7bc65b9c" x="0" y="298.015156" style="fill: #b85741; fill-opacity: 0.15; stroke: #b85741; stroke-opacity: 0.15"/>
    </g>
   </g>
   <g id="matplotlib.axis_1">
    <g id="xtick_1">
     <g id="line2d_1">
      <defs>
       <path id="m9bc6861354" d="M 0 0 
L 0 3.5 
" style="stroke: #000000; stroke-width: 0.8"/>
      </defs>
      <g>
       <use xlink:href="#m9bc6861354" x="88.020085" y="247.877344" style="stroke: #000000; stroke-width: 0.8"/>
      </g>
     </g>
     <g id="text_1">
      <!-- 0 -->
      <g transform="translate(82.930085 267.034844) scale(0.16 -0.16)">
       <defs>
        <path id="DejaVuSans-30" d="M 2034 4250 
Q 1547 4250 1301 3770 
Q 1056 3291 1056 2328 
Q 1056 1369 1301 889 
Q 1547 409 2034 409 
Q 2525 409 2770 889 
Q 3016 1369 3016 2328 
Q 3016 3291 2770 3770 
Q 2525 4250 2034 4250 
z
M 2034 4750 
Q 2819 4750 3233 4129 
Q 3647 3509 3647 2328 
Q 3647 1150 3233 529 
Q 2819 -91 2034 -91 
Q 1250 -91 836 529 
Q 422 1150 422 2328 
Q 422 3509 836 4129 
Q 1250 4750 2034 4750 
z
" transform="scale(0.015625)"/>
       </defs>
       <use xlink:href="#DejaVuSans-30"/>
      </g>
     </g>
    </g>
    <g id="xtick_2">
     <g id="line2d_2">
      <g>
       <use xlink:href="#m9bc6861354" x="168.82459" y="247.877344" style="stroke: #000000; stroke-width: 0.8"/>
      </g>
     </g>
     <g id="text_2">
      <!-- 20 -->
      <g transform="translate(158.64459 267.034844) scale(0.16 -0.16)">
       <defs>
        <path id="DejaVuSans-32" d="M 1228 531 
L 3431 531 
L 3431 0 
L 469 0 
L 469 531 
Q 828 903 1448 1529 
Q 2069 2156 2228 2338 
Q 2531 2678 2651 2914 
Q 2772 3150 2772 3378 
Q 2772 3750 2511 3984 
Q 2250 4219 1831 4219 
Q 1534 4219 1204 4116 
Q 875 4013 500 3803 
L 500 4441 
Q 881 4594 1212 4672 
Q 1544 4750 1819 4750 
Q 2544 4750 2975 4387 
Q 3406 4025 3406 3419 
Q 3406 3131 3298 2873 
Q 3191 2616 2906 2266 
Q 2828 2175 2409 1742 
Q 1991 1309 1228 531 
z
" transform="scale(0.015625)"/>
       </defs>
       <use xlink:href="#DejaVuSans-32"/>
       <use xlink:href="#DejaVuSans-30" x="63.623047"/>
      </g>
     </g>
    </g>
    <g id="xtick_3">
     <g id="line2d_3">
      <g>
       <use xlink:href="#m9bc6861354" x="249.629096" y="247.877344" style="stroke: #000000; stroke-width: 0.8"/>
      </g>
     </g>
     <g id="text_3">
      <!-- 40 -->
      <g transform="translate(239.449096 267.034844) scale(0.16 -0.16)">
       <defs>
        <path id="DejaVuSans-34" d="M 2419 4116 
L 825 1625 
L 2419 1625 
L 2419 4116 
z
M 2253 4666 
L 3047 4666 
L 3047 1625 
L 3713 1625 
L 3713 1100 
L 3047 1100 
L 3047 0 
L 2419 0 
L 2419 1100 
L 313 1100 
L 313 1709 
L 2253 4666 
z
" transform="scale(0.015625)"/>
       </defs>
       <use xlink:href="#DejaVuSans-34"/>
       <use xlink:href="#DejaVuSans-30" x="63.623047"/>
      </g>
     </g>
    </g>
    <g id="xtick_4">
     <g id="line2d_4">
      <g>
       <use xlink:href="#m9bc6861354" x="330.433601" y="247.877344" style="stroke: #000000; stroke-width: 0.8"/>
      </g>
     </g>
     <g id="text_4">
      <!-- 60 -->
      <g transform="translate(320.253601 267.034844) scale(0.16 -0.16)">
       <defs>
        <path id="DejaVuSans-36" d="M 2113 2584 
Q 1688 2584 1439 2293 
Q 1191 2003 1191 1497 
Q 1191 994 1439 701 
Q 1688 409 2113 409 
Q 2538 409 2786 701 
Q 3034 994 3034 1497 
Q 3034 2003 2786 2293 
Q 2538 2584 2113 2584 
z
M 3366 4563 
L 3366 3988 
Q 3128 4100 2886 4159 
Q 2644 4219 2406 4219 
Q 1781 4219 1451 3797 
Q 1122 3375 1075 2522 
Q 1259 2794 1537 2939 
Q 1816 3084 2150 3084 
Q 2853 3084 3261 2657 
Q 3669 2231 3669 1497 
Q 3669 778 3244 343 
Q 2819 -91 2113 -91 
Q 1303 -91 875 529 
Q 447 1150 447 2328 
Q 447 3434 972 4092 
Q 1497 4750 2381 4750 
Q 2619 4750 2861 4703 
Q 3103 4656 3366 4563 
z
" transform="scale(0.015625)"/>
       </defs>
       <use xlink:href="#DejaVuSans-36"/>
       <use xlink:href="#DejaVuSans-30" x="63.623047"/>
      </g>
     </g>
    </g>
    <g id="xtick_5">
     <g id="line2d_5">
      <g>
       <use xlink:href="#m9bc6861354" x="411.238106" y="247.877344" style="stroke: #000000; stroke-width: 0.8"/>
      </g>
     </g>
     <g id="text_5">
      <!-- 80 -->
      <g transform="translate(401.058106 267.034844) scale(0.16 -0.16)">
       <defs>
        <path id="DejaVuSans-38" d="M 2034 2216 
Q 1584 2216 1326 1975 
Q 1069 1734 1069 1313 
Q 1069 891 1326 650 
Q 1584 409 2034 409 
Q 2484 409 2743 651 
Q 3003 894 3003 1313 
Q 3003 1734 2745 1975 
Q 2488 2216 2034 2216 
z
M 1403 2484 
Q 997 2584 770 2862 
Q 544 3141 544 3541 
Q 544 4100 942 4425 
Q 1341 4750 2034 4750 
Q 2731 4750 3128 4425 
Q 3525 4100 3525 3541 
Q 3525 3141 3298 2862 
Q 3072 2584 2669 2484 
Q 3125 2378 3379 2068 
Q 3634 1759 3634 1313 
Q 3634 634 3220 271 
Q 2806 -91 2034 -91 
Q 1263 -91 848 271 
Q 434 634 434 1313 
Q 434 1759 690 2068 
Q 947 2378 1403 2484 
z
M 1172 3481 
Q 1172 3119 1398 2916 
Q 1625 2713 2034 2713 
Q 2441 2713 2670 2916 
Q 2900 3119 2900 3481 
Q 2900 3844 2670 4047 
Q 2441 4250 2034 4250 
Q 1625 4250 1398 4047 
Q 1172 3844 1172 3481 
z
" transform="scale(0.015625)"/>
       </defs>
       <use xlink:href="#DejaVuSans-38"/>
       <use xlink:href="#DejaVuSans-30" x="63.623047"/>
      </g>
     </g>
    </g>
    <g id="xtick_6">
     <g id="line2d_6">
      <g>
       <use xlink:href="#m9bc6861354" x="492.042611" y="247.877344" style="stroke: #000000; stroke-width: 0.8"/>
      </g>
     </g>
     <g id="text_6">
      <!-- 100 -->
      <g transform="translate(476.772611 267.034844) scale(0.16 -0.16)">
       <defs>
        <path id="DejaVuSans-31" d="M 794 531 
L 1825 531 
L 1825 4091 
L 703 3866 
L 703 4441 
L 1819 4666 
L 2450 4666 
L 2450 531 
L 3481 531 
L 3481 0 
L 794 0 
L 794 531 
z
" transform="scale(0.015625)"/>
       </defs>
       <use xlink:href="#DejaVuSans-31"/>
       <use xlink:href="#DejaVuSans-30" x="63.623047"/>
       <use xlink:href="#DejaVuSans-30" x="127.246094"/>
      </g>
     </g>
    </g>
    <g id="text_7">
     <!-- Time (s) -->
     <g transform="translate(281.733672 287.279687) scale(0.17 -0.17)">
      <defs>
       <path id="DejaVuSans-54" d="M -19 4666 
L 3928 4666 
L 3928 4134 
L 2272 4134 
L 2272 0 
L 1638 0 
L 1638 4134 
L -19 4134 
L -19 4666 
z
" transform="scale(0.015625)"/>
       <path id="DejaVuSans-69" d="M 603 3500 
L 1178 3500 
L 1178 0 
L 603 0 
L 603 3500 
z
M 603 4863 
L 1178 4863 
L 1178 4134 
L 603 4134 
L 603 4863 
z
" transform="scale(0.015625)"/>
       <path id="DejaVuSans-6d" d="M 3328 2828 
Q 3544 3216 3844 3400 
Q 4144 3584 4550 3584 
Q 5097 3584 5394 3201 
Q 5691 2819 5691 2113 
L 5691 0 
L 5113 0 
L 5113 2094 
Q 5113 2597 4934 2840 
Q 4756 3084 4391 3084 
Q 3944 3084 3684 2787 
Q 3425 2491 3425 1978 
L 3425 0 
L 2847 0 
L 2847 2094 
Q 2847 2600 2669 2842 
Q 2491 3084 2119 3084 
Q 1678 3084 1418 2786 
Q 1159 2488 1159 1978 
L 1159 0 
L 581 0 
L 581 3500 
L 1159 3500 
L 1159 2956 
Q 1356 3278 1631 3431 
Q 1906 3584 2284 3584 
Q 2666 3584 2933 3390 
Q 3200 3197 3328 2828 
z
" transform="scale(0.015625)"/>
       <path id="DejaVuSans-65" d="M 3597 1894 
L 3597 1613 
L 953 1613 
Q 991 1019 1311 708 
Q 1631 397 2203 397 
Q 2534 397 2845 478 
Q 3156 559 3463 722 
L 3463 178 
Q 3153 47 2828 -22 
Q 2503 -91 2169 -91 
Q 1331 -91 842 396 
Q 353 884 353 1716 
Q 353 2575 817 3079 
Q 1281 3584 2069 3584 
Q 2775 3584 3186 3129 
Q 3597 2675 3597 1894 
z
M 3022 2063 
Q 3016 2534 2758 2815 
Q 2500 3097 2075 3097 
Q 1594 3097 1305 2825 
Q 1016 2553 972 2059 
L 3022 2063 
z
" transform="scale(0.015625)"/>
       <path id="DejaVuSans-20" transform="scale(0.015625)"/>
       <path id="DejaVuSans-28" d="M 1984 4856 
Q 1566 4138 1362 3434 
Q 1159 2731 1159 2009 
Q 1159 1288 1364 580 
Q 1569 -128 1984 -844 
L 1484 -844 
Q 1016 -109 783 600 
Q 550 1309 550 2009 
Q 550 2706 781 3412 
Q 1013 4119 1484 4856 
L 1984 4856 
z
" transform="scale(0.015625)"/>
       <path id="DejaVuSans-73" d="M 2834 3397 
L 2834 2853 
Q 2591 2978 2328 3040 
Q 2066 3103 1784 3103 
Q 1356 3103 1142 2972 
Q 928 2841 928 2578 
Q 928 2378 1081 2264 
Q 1234 2150 1697 2047 
L 1894 2003 
Q 2506 1872 2764 1633 
Q 3022 1394 3022 966 
Q 3022 478 2636 193 
Q 2250 -91 1575 -91 
Q 1294 -91 989 -36 
Q 684 19 347 128 
L 347 722 
Q 666 556 975 473 
Q 1284 391 1588 391 
Q 1994 391 2212 530 
Q 2431 669 2431 922 
Q 2431 1156 2273 1281 
Q 2116 1406 1581 1522 
L 1381 1569 
Q 847 1681 609 1914 
Q 372 2147 372 2553 
Q 372 3047 722 3315 
Q 1072 3584 1716 3584 
Q 2034 3584 2315 3537 
Q 2597 3491 2834 3397 
z
" transform="scale(0.015625)"/>
       <path id="DejaVuSans-29" d="M 513 4856 
L 1013 4856 
Q 1481 4119 1714 3412 
Q 1947 2706 1947 2009 
Q 1947 1309 1714 600 
Q 1481 -109 1013 -844 
L 513 -844 
Q 928 -128 1133 580 
Q 1338 1288 1338 2009 
Q 1338 2731 1133 3434 
Q 928 4138 513 4856 
z
" transform="scale(0.015625)"/>
      </defs>
      <use xlink:href="#DejaVuSans-54"/>
      <use xlink:href="#DejaVuSans-69" x="57.958984"/>
      <use xlink:href="#DejaVuSans-6d" x="85.742188"/>
      <use xlink:href="#DejaVuSans-65" x="183.154297"/>
      <use xlink:href="#DejaVuSans-20" x="244.677734"/>
      <use xlink:href="#DejaVuSans-28" x="276.464844"/>
      <use xlink:href="#DejaVuSans-73" x="315.478516"/>
      <use xlink:href="#DejaVuSans-29" x="367.578125"/>
     </g>
    </g>
   </g>
   <g id="matplotlib.axis_2">
    <g id="ytick_1">
     <g id="line2d_7">
      <defs>
       <path id="m33b29b7c86" d="M 0 0 
L -3.5 0 
" style="stroke: #000000; stroke-width: 0.8"/>
      </defs>
      <g>
       <use xlink:href="#m33b29b7c86" x="65.192813" y="237.797344" style="stroke: #000000; stroke-width: 0.8"/>
      </g>
     </g>
     <g id="text_8">
      <!-- 0 -->
      <g transform="translate(48.012813 243.876094) scale(0.16 -0.16)">
       <use xlink:href="#DejaVuSans-30"/>
      </g>
     </g>
    </g>
    <g id="ytick_2">
     <g id="line2d_8">
      <g>
       <use xlink:href="#m33b29b7c86" x="65.192813" y="171.924179" style="stroke: #000000; stroke-width: 0.8"/>
      </g>
     </g>
     <g id="text_9">
      <!-- 50 -->
      <g transform="translate(37.832813 178.002929) scale(0.16 -0.16)">
       <defs>
        <path id="DejaVuSans-35" d="M 691 4666 
L 3169 4666 
L 3169 4134 
L 1269 4134 
L 1269 2991 
Q 1406 3038 1543 3061 
Q 1681 3084 1819 3084 
Q 2600 3084 3056 2656 
Q 3513 2228 3513 1497 
Q 3513 744 3044 326 
Q 2575 -91 1722 -91 
Q 1428 -91 1123 -41 
Q 819 9 494 109 
L 494 744 
Q 775 591 1075 516 
Q 1375 441 1709 441 
Q 2250 441 2565 725 
Q 2881 1009 2881 1497 
Q 2881 1984 2565 2268 
Q 2250 2553 1709 2553 
Q 1456 2553 1204 2497 
Q 953 2441 691 2322 
L 691 4666 
z
" transform="scale(0.015625)"/>
       </defs>
       <use xlink:href="#DejaVuSans-35"/>
       <use xlink:href="#DejaVuSans-30" x="63.623047"/>
      </g>
     </g>
    </g>
    <g id="ytick_3">
     <g id="line2d_9">
      <g>
       <use xlink:href="#m33b29b7c86" x="65.192813" y="106.051013" style="stroke: #000000; stroke-width: 0.8"/>
      </g>
     </g>
     <g id="text_10">
      <!-- 100 -->
      <g transform="translate(27.652813 112.129763) scale(0.16 -0.16)">
       <use xlink:href="#DejaVuSans-31"/>
       <use xlink:href="#DejaVuSans-30" x="63.623047"/>
       <use xlink:href="#DejaVuSans-30" x="127.246094"/>
      </g>
     </g>
    </g>
    <g id="ytick_4">
     <g id="line2d_10">
      <g>
       <use xlink:href="#m33b29b7c86" x="65.192813" y="40.177848" style="stroke: #000000; stroke-width: 0.8"/>
      </g>
     </g>
     <g id="text_11">
      <!-- 150 -->
      <g transform="translate(27.652813 46.256598) scale(0.16 -0.16)">
       <use xlink:href="#DejaVuSans-31"/>
       <use xlink:href="#DejaVuSans-35" x="63.623047"/>
       <use xlink:href="#DejaVuSans-30" x="127.246094"/>
      </g>
     </g>
    </g>
    <g id="text_12">
     <!-- Utilization (%) -->
     <g transform="translate(20.117344 196.996719) rotate(-90) scale(0.17 -0.17)">
      <defs>
       <path id="DejaVuSans-55" d="M 556 4666 
L 1191 4666 
L 1191 1831 
Q 1191 1081 1462 751 
Q 1734 422 2344 422 
Q 2950 422 3222 751 
Q 3494 1081 3494 1831 
L 3494 4666 
L 4128 4666 
L 4128 1753 
Q 4128 841 3676 375 
Q 3225 -91 2344 -91 
Q 1459 -91 1007 375 
Q 556 841 556 1753 
L 556 4666 
z
" transform="scale(0.015625)"/>
       <path id="DejaVuSans-74" d="M 1172 4494 
L 1172 3500 
L 2356 3500 
L 2356 3053 
L 1172 3053 
L 1172 1153 
Q 1172 725 1289 603 
Q 1406 481 1766 481 
L 2356 481 
L 2356 0 
L 1766 0 
Q 1100 0 847 248 
Q 594 497 594 1153 
L 594 3053 
L 172 3053 
L 172 3500 
L 594 3500 
L 594 4494 
L 1172 4494 
z
" transform="scale(0.015625)"/>
       <path id="DejaVuSans-6c" d="M 603 4863 
L 1178 4863 
L 1178 0 
L 603 0 
L 603 4863 
z
" transform="scale(0.015625)"/>
       <path id="DejaVuSans-7a" d="M 353 3500 
L 3084 3500 
L 3084 2975 
L 922 459 
L 3084 459 
L 3084 0 
L 275 0 
L 275 525 
L 2438 3041 
L 353 3041 
L 353 3500 
z
" transform="scale(0.015625)"/>
       <path id="DejaVuSans-61" d="M 2194 1759 
Q 1497 1759 1228 1600 
Q 959 1441 959 1056 
Q 959 750 1161 570 
Q 1363 391 1709 391 
Q 2188 391 2477 730 
Q 2766 1069 2766 1631 
L 2766 1759 
L 2194 1759 
z
M 3341 1997 
L 3341 0 
L 2766 0 
L 2766 531 
Q 2569 213 2275 61 
Q 1981 -91 1556 -91 
Q 1019 -91 701 211 
Q 384 513 384 1019 
Q 384 1609 779 1909 
Q 1175 2209 1959 2209 
L 2766 2209 
L 2766 2266 
Q 2766 2663 2505 2880 
Q 2244 3097 1772 3097 
Q 1472 3097 1187 3025 
Q 903 2953 641 2809 
L 641 3341 
Q 956 3463 1253 3523 
Q 1550 3584 1831 3584 
Q 2591 3584 2966 3190 
Q 3341 2797 3341 1997 
z
" transform="scale(0.015625)"/>
       <path id="DejaVuSans-6f" d="M 1959 3097 
Q 1497 3097 1228 2736 
Q 959 2375 959 1747 
Q 959 1119 1226 758 
Q 1494 397 1959 397 
Q 2419 397 2687 759 
Q 2956 1122 2956 1747 
Q 2956 2369 2687 2733 
Q 2419 3097 1959 3097 
z
M 1959 3584 
Q 2709 3584 3137 3096 
Q 3566 2609 3566 1747 
Q 3566 888 3137 398 
Q 2709 -91 1959 -91 
Q 1206 -91 779 398 
Q 353 888 353 1747 
Q 353 2609 779 3096 
Q 1206 3584 1959 3584 
z
" transform="scale(0.015625)"/>
       <path id="DejaVuSans-6e" d="M 3513 2113 
L 3513 0 
L 2938 0 
L 2938 2094 
Q 2938 2591 2744 2837 
Q 2550 3084 2163 3084 
Q 1697 3084 1428 2787 
Q 1159 2491 1159 1978 
L 1159 0 
L 581 0 
L 581 3500 
L 1159 3500 
L 1159 2956 
Q 1366 3272 1645 3428 
Q 1925 3584 2291 3584 
Q 2894 3584 3203 3211 
Q 3513 2838 3513 2113 
z
" transform="scale(0.015625)"/>
       <path id="DejaVuSans-25" d="M 4653 2053 
Q 4381 2053 4226 1822 
Q 4072 1591 4072 1178 
Q 4072 772 4226 539 
Q 4381 306 4653 306 
Q 4919 306 5073 539 
Q 5228 772 5228 1178 
Q 5228 1588 5073 1820 
Q 4919 2053 4653 2053 
z
M 4653 2450 
Q 5147 2450 5437 2106 
Q 5728 1763 5728 1178 
Q 5728 594 5436 251 
Q 5144 -91 4653 -91 
Q 4153 -91 3862 251 
Q 3572 594 3572 1178 
Q 3572 1766 3864 2108 
Q 4156 2450 4653 2450 
z
M 1428 4353 
Q 1159 4353 1004 4120 
Q 850 3888 850 3481 
Q 850 3069 1003 2837 
Q 1156 2606 1428 2606 
Q 1700 2606 1854 2837 
Q 2009 3069 2009 3481 
Q 2009 3884 1853 4118 
Q 1697 4353 1428 4353 
z
M 4250 4750 
L 4750 4750 
L 1831 -91 
L 1331 -91 
L 4250 4750 
z
M 1428 4750 
Q 1922 4750 2215 4408 
Q 2509 4066 2509 3481 
Q 2509 2891 2217 2550 
Q 1925 2209 1428 2209 
Q 931 2209 642 2551 
Q 353 2894 353 3481 
Q 353 4063 643 4406 
Q 934 4750 1428 4750 
z
" transform="scale(0.015625)"/>
      </defs>
      <use xlink:href="#DejaVuSans-55"/>
      <use xlink:href="#DejaVuSans-74" x="73.193359"/>
      <use xlink:href="#DejaVuSans-69" x="112.402344"/>
      <use xlink:href="#DejaVuSans-6c" x="140.185547"/>
      <use xlink:href="#DejaVuSans-69" x="167.96875"/>
      <use xlink:href="#DejaVuSans-7a" x="195.751953"/>
      <use xlink:href="#DejaVuSans-61" x="248.242188"/>
      <use xlink:href="#DejaVuSans-74" x="309.521484"/>
      <use xlink:href="#DejaVuSans-69" x="348.730469"/>
      <use xlink:href="#DejaVuSans-6f" x="376.513672"/>
      <use xlink:href="#DejaVuSans-6e" x="437.695312"/>
      <use xlink:href="#DejaVuSans-20" x="501.074219"/>
      <use xlink:href="#DejaVuSans-28" x="532.861328"/>
      <use xlink:href="#DejaVuSans-25" x="571.875"/>
      <use xlink:href="#DejaVuSans-29" x="666.894531"/>
     </g>
    </g>
   </g>
   <g id="line2d_11">
    <path d="M 88.020085 225.494835 
L 92.06031 225.57347 
L 96.100536 225.717172 
L 100.140761 225.989911 
L 104.180986 223.851668 
L 108.221212 221.554038 
L 112.261437 218.666652 
L 116.301662 215.595047 
L 120.341887 212.307622 
L 124.382113 209.154652 
L 128.422338 205.841579 
L 132.462563 202.163166 
L 136.502788 198.767465 
L 140.543014 194.927964 
L 144.583239 191.789953 
L 148.623464 190.603819 
L 152.663689 190.113429 
L 156.703915 190.138473 
L 160.74414 190.336948 
L 164.784365 191.081302 
L 168.82459 192.386193 
L 172.864816 192.71832 
L 176.905041 193.759601 
L 180.945266 194.110043 
L 184.985492 195.118275 
L 189.025717 195.600528 
L 193.065942 196.930899 
L 197.106167 198.140042 
L 201.146393 199.587846 
L 205.186618 201.139747 
L 209.226843 201.855071 
L 213.267068 202.013962 
L 217.307294 203.284495 
L 221.347519 204.247969 
L 225.387744 205.094375 
L 229.427969 205.994512 
L 233.468195 206.462298 
L 237.50842 206.062403 
L 241.548645 205.909661 
L 245.58887 204.869172 
L 249.629096 203.767535 
L 253.669321 202.314548 
L 257.709546 200.197084 
L 261.749771 197.740785 
L 265.789997 194.196797 
L 269.830222 190.385222 
L 273.870447 185.887701 
L 277.910673 182.194661 
L 281.950898 178.415509 
L 285.991123 173.189398 
L 290.031348 169.752102 
L 294.071574 165.171036 
L 298.111799 162.032578 
L 302.152024 159.05572 
L 306.192249 156.991634 
L 310.232475 155.578933 
L 314.2727 154.502768 
L 318.312925 155.407911 
L 322.35315 155.520719 
L 326.393376 157.063576 
L 330.433601 159.413857 
L 334.473826 161.289338 
L 338.514051 163.323227 
L 342.554277 165.2687 
L 346.594502 167.703234 
L 350.634727 169.92143 
L 354.674952 172.235415 
L 358.715178 174.992881 
L 362.755403 176.581866 
L 366.795628 179.301915 
L 370.835854 180.497471 
L 374.876079 182.96657 
L 378.916304 184.745455 
L 382.956529 187.979154 
L 386.996755 188.855192 
L 391.03698 190.857742 
L 395.077205 191.036715 
L 399.11743 191.924797 
L 403.157656 192.709839 
L 407.197881 193.261537 
L 411.238106 193.338578 
L 415.278331 193.980452 
L 419.318557 193.61967 
L 423.358782 193.925932 
L 427.399007 193.538033 
L 431.439232 195.297623 
L 435.479458 196.39627 
L 439.519683 198.857822 
L 443.559908 200.587807 
L 447.600133 202.627176 
L 451.640359 205.882778 
L 455.680584 208.497357 
L 459.720809 211.310386 
L 463.761035 213.922218 
L 467.80126 216.114005 
L 471.841485 217.70256 
L 475.88171 218.764157 
L 479.921936 220.318453 
L 483.962161 220.827067 
L 488.002386 222.063463 
L 492.042611 222.543432 
L 496.082837 222.569617 
L 500.123062 222.72291 
L 504.163287 219.821379 
L 508.203512 219.957026 
L 512.243738 216.380891 
L 516.283963 217.853002 
L 520.324188 218.785852 
L 524.364413 219.62742 
L 528.404639 220.71561 
L 532.444864 222.066743 
L 536.485089 220.224882 
L 544.56554 221.020808 
" clip-path="url(#pd267584034)" style="fill: none; stroke: #009384; stroke-width: 2.5; stroke-linecap: square"/>
   </g>
   <g id="line2d_12">
    <path d="M 88.020085 227.881167 
L 92.06031 227.799673 
L 96.100536 228.824052 
L 100.140761 228.779419 
L 104.180986 229.071626 
L 108.221212 229.020505 
L 112.261437 229.211167 
L 116.301662 228.564898 
L 120.341887 229.101344 
L 124.382113 228.559201 
L 128.422338 227.54744 
L 132.462563 227.085262 
L 136.502788 225.974443 
L 140.543014 222.374869 
L 144.583239 217.728307 
L 148.623464 212.367501 
L 152.663689 207.350401 
L 156.703915 200.571964 
L 160.74414 194.742909 
L 164.784365 188.995824 
L 168.82459 183.408077 
L 172.864816 179.062403 
L 176.905041 174.38668 
L 180.945266 171.618169 
L 184.985492 170.458744 
L 189.025717 171.967488 
L 193.065942 170.982782 
L 197.106167 170.48316 
L 201.146393 169.096887 
L 205.186618 167.286715 
L 209.226843 163.160085 
L 213.267068 159.249035 
L 217.307294 154.645623 
L 221.347519 149.178332 
L 225.387744 142.798271 
L 229.427969 137.188047 
L 233.468195 129.097749 
L 237.50842 125.431524 
L 241.548645 122.086549 
L 245.58887 121.808211 
L 249.629096 120.776773 
L 253.669321 121.016943 
L 257.709546 119.163483 
L 261.749771 116.203238 
L 265.789997 112.988724 
L 269.830222 107.788539 
L 273.870447 102.865394 
L 277.910673 97.922097 
L 281.950898 91.757984 
L 285.991123 84.94359 
L 290.031348 80.775496 
L 294.071574 75.895981 
L 298.111799 74.684194 
L 302.152024 77.368317 
L 306.192249 83.764073 
L 310.232475 91.362817 
L 314.2727 102.643179 
L 318.312925 114.135796 
L 322.35315 127.760567 
L 326.393376 139.803622 
L 330.433601 153.559771 
L 334.473826 161.680765 
L 338.514051 172.392631 
L 342.554277 178.803562 
L 346.594502 185.001312 
L 350.634727 188.741319 
L 354.674952 192.911889 
L 358.715178 196.010371 
L 362.755403 198.182234 
L 366.795628 197.969136 
L 370.835854 198.745054 
L 374.876079 199.191201 
L 378.916304 202.693097 
L 382.956529 204.312754 
L 386.996755 207.03846 
L 391.03698 208.690058 
L 395.077205 209.099597 
L 399.11743 211.030121 
L 403.157656 211.619736 
L 407.197881 211.770715 
L 411.238106 213.36163 
L 415.278331 215.582565 
L 419.318557 216.031401 
L 423.358782 216.237492 
L 427.399007 216.88498 
L 431.439232 217.519944 
L 435.479458 217.438609 
L 439.519683 218.406787 
L 443.559908 218.227552 
L 447.600133 218.02404 
L 451.640359 218.532433 
L 455.680584 217.540838 
L 459.720809 217.195356 
L 463.761035 216.30567 
L 467.80126 213.73519 
L 471.841485 212.984497 
L 475.88171 209.038526 
L 479.921936 206.911504 
L 483.962161 206.112999 
L 488.002386 205.882781 
L 496.082837 205.587559 
L 504.163287 200.060846 
" clip-path="url(#pd267584034)" style="fill: none; stroke: #b85741; stroke-width: 2.5; stroke-linecap: square"/>
   </g>
   <g id="patch_3">
    <path d="M 65.192813 247.877344 
L 65.192813 26.117344 
" style="fill: none; stroke: #000000; stroke-width: 0.8; stroke-linejoin: miter; stroke-linecap: square"/>
   </g>
   <g id="patch_4">
    <path d="M 567.392813 247.877344 
L 567.392813 26.117344 
" style="fill: none; stroke: #000000; stroke-width: 0.8; stroke-linejoin: miter; stroke-linecap: square"/>
   </g>
   <g id="patch_5">
    <path d="M 65.192813 247.877344 
L 567.392813 247.877344 
" style="fill: none; stroke: #000000; stroke-width: 0.8; stroke-linejoin: miter; stroke-linecap: square"/>
   </g>
   <g id="patch_6">
    <path d="M 65.192813 26.117344 
L 567.392813 26.117344 
" style="fill: none; stroke: #000000; stroke-width: 0.8; stroke-linejoin: miter; stroke-linecap: square"/>
   </g>
   <g id="text_13">
    <!-- Live Migrate Many (Disk) -->
    <g transform="translate(210.623203 20.117344) scale(0.17 -0.17)">
     <defs>
      <path id="DejaVuSans-4c" d="M 628 4666 
L 1259 4666 
L 1259 531 
L 3531 531 
L 3531 0 
L 628 0 
L 628 4666 
z
" transform="scale(0.015625)"/>
      <path id="DejaVuSans-76" d="M 191 3500 
L 800 3500 
L 1894 563 
L 2988 3500 
L 3597 3500 
L 2284 0 
L 1503 0 
L 191 3500 
z
" transform="scale(0.015625)"/>
      <path id="DejaVuSans-4d" d="M 628 4666 
L 1569 4666 
L 2759 1491 
L 3956 4666 
L 4897 4666 
L 4897 0 
L 4281 0 
L 4281 4097 
L 3078 897 
L 2444 897 
L 1241 4097 
L 1241 0 
L 628 0 
L 628 4666 
z
" transform="scale(0.015625)"/>
      <path id="DejaVuSans-67" d="M 2906 1791 
Q 2906 2416 2648 2759 
Q 2391 3103 1925 3103 
Q 1463 3103 1205 2759 
Q 947 2416 947 1791 
Q 947 1169 1205 825 
Q 1463 481 1925 481 
Q 2391 481 2648 825 
Q 2906 1169 2906 1791 
z
M 3481 434 
Q 3481 -459 3084 -895 
Q 2688 -1331 1869 -1331 
Q 1566 -1331 1297 -1286 
Q 1028 -1241 775 -1147 
L 775 -588 
Q 1028 -725 1275 -790 
Q 1522 -856 1778 -856 
Q 2344 -856 2625 -561 
Q 2906 -266 2906 331 
L 2906 616 
Q 2728 306 2450 153 
Q 2172 0 1784 0 
Q 1141 0 747 490 
Q 353 981 353 1791 
Q 353 2603 747 3093 
Q 1141 3584 1784 3584 
Q 2172 3584 2450 3431 
Q 2728 3278 2906 2969 
L 2906 3500 
L 3481 3500 
L 3481 434 
z
" transform="scale(0.015625)"/>
      <path id="DejaVuSans-72" d="M 2631 2963 
Q 2534 3019 2420 3045 
Q 2306 3072 2169 3072 
Q 1681 3072 1420 2755 
Q 1159 2438 1159 1844 
L 1159 0 
L 581 0 
L 581 3500 
L 1159 3500 
L 1159 2956 
Q 1341 3275 1631 3429 
Q 1922 3584 2338 3584 
Q 2397 3584 2469 3576 
Q 2541 3569 2628 3553 
L 2631 2963 
z
" transform="scale(0.015625)"/>
      <path id="DejaVuSans-79" d="M 2059 -325 
Q 1816 -950 1584 -1140 
Q 1353 -1331 966 -1331 
L 506 -1331 
L 506 -850 
L 844 -850 
Q 1081 -850 1212 -737 
Q 1344 -625 1503 -206 
L 1606 56 
L 191 3500 
L 800 3500 
L 1894 763 
L 2988 3500 
L 3597 3500 
L 2059 -325 
z
" transform="scale(0.015625)"/>
      <path id="DejaVuSans-44" d="M 1259 4147 
L 1259 519 
L 2022 519 
Q 2988 519 3436 956 
Q 3884 1394 3884 2338 
Q 3884 3275 3436 3711 
Q 2988 4147 2022 4147 
L 1259 4147 
z
M 628 4666 
L 1925 4666 
Q 3281 4666 3915 4102 
Q 4550 3538 4550 2338 
Q 4550 1131 3912 565 
Q 3275 0 1925 0 
L 628 0 
L 628 4666 
z
" transform="scale(0.015625)"/>
      <path id="DejaVuSans-6b" d="M 581 4863 
L 1159 4863 
L 1159 1991 
L 2875 3500 
L 3609 3500 
L 1753 1863 
L 3688 0 
L 2938 0 
L 1159 1709 
L 1159 0 
L 581 0 
L 581 4863 
z
" transform="scale(0.015625)"/>
     </defs>
     <use xlink:href="#DejaVuSans-4c"/>
     <use xlink:href="#DejaVuSans-69" x="55.712891"/>
     <use xlink:href="#DejaVuSans-76" x="83.496094"/>
     <use xlink:href="#DejaVuSans-65" x="142.675781"/>
     <use xlink:href="#DejaVuSans-20" x="204.199219"/>
     <use xlink:href="#DejaVuSans-4d" x="235.986328"/>
     <use xlink:href="#DejaVuSans-69" x="322.265625"/>
     <use xlink:href="#DejaVuSans-67" x="350.048828"/>
     <use xlink:href="#DejaVuSans-72" x="413.525391"/>
     <use xlink:href="#DejaVuSans-61" x="454.638672"/>
     <use xlink:href="#DejaVuSans-74" x="515.917969"/>
     <use xlink:href="#DejaVuSans-65" x="555.126953"/>
     <use xlink:href="#DejaVuSans-20" x="616.650391"/>
     <use xlink:href="#DejaVuSans-4d" x="648.4375"/>
     <use xlink:href="#DejaVuSans-61" x="734.716797"/>
     <use xlink:href="#DejaVuSans-6e" x="795.996094"/>
     <use xlink:href="#DejaVuSans-79" x="859.375"/>
     <use xlink:href="#DejaVuSans-20" x="918.554688"/>
     <use xlink:href="#DejaVuSans-28" x="950.341797"/>
     <use xlink:href="#DejaVuSans-44" x="989.355469"/>
     <use xlink:href="#DejaVuSans-69" x="1066.357422"/>
     <use xlink:href="#DejaVuSans-73" x="1094.140625"/>
     <use xlink:href="#DejaVuSans-6b" x="1146.240234"/>
     <use xlink:href="#DejaVuSans-29" x="1204.150391"/>
    </g>
   </g>
   <g id="legend_1">
    <g id="patch_7">
     <path d="M 400.807813 85.887344 
L 556.192812 85.887344 
Q 559.392812 85.887344 559.392812 82.687344 
L 559.392812 37.317344 
Q 559.392812 34.117344 556.192812 34.117344 
L 400.807813 34.117344 
Q 397.607813 34.117344 397.607813 37.317344 
L 397.607813 82.687344 
Q 397.607813 85.887344 400.807813 85.887344 
z
" style="fill: #ffffff; opacity: 0.8; stroke: #cccccc; stroke-linejoin: miter"/>
    </g>
    <g id="line2d_13">
     <path d="M 404.007813 47.074844 
L 420.007813 47.074844 
L 436.007813 47.074844 
" style="fill: none; stroke: #009384; stroke-width: 2.5; stroke-linecap: square"/>
    </g>
    <g id="text_14">
     <!-- KubeVirt  -->
     <g transform="translate(448.807813 52.674844) scale(0.16 -0.16)">
      <defs>
       <path id="DejaVuSans-4b" d="M 628 4666 
L 1259 4666 
L 1259 2694 
L 3353 4666 
L 4166 4666 
L 1850 2491 
L 4331 0 
L 3500 0 
L 1259 2247 
L 1259 0 
L 628 0 
L 628 4666 
z
" transform="scale(0.015625)"/>
       <path id="DejaVuSans-75" d="M 544 1381 
L 544 3500 
L 1119 3500 
L 1119 1403 
Q 1119 906 1312 657 
Q 1506 409 1894 409 
Q 2359 409 2629 706 
Q 2900 1003 2900 1516 
L 2900 3500 
L 3475 3500 
L 3475 0 
L 2900 0 
L 2900 538 
Q 2691 219 2414 64 
Q 2138 -91 1772 -91 
Q 1169 -91 856 284 
Q 544 659 544 1381 
z
M 1991 3584 
L 1991 3584 
z
" transform="scale(0.015625)"/>
       <path id="DejaVuSans-62" d="M 3116 1747 
Q 3116 2381 2855 2742 
Q 2594 3103 2138 3103 
Q 1681 3103 1420 2742 
Q 1159 2381 1159 1747 
Q 1159 1113 1420 752 
Q 1681 391 2138 391 
Q 2594 391 2855 752 
Q 3116 1113 3116 1747 
z
M 1159 2969 
Q 1341 3281 1617 3432 
Q 1894 3584 2278 3584 
Q 2916 3584 3314 3078 
Q 3713 2572 3713 1747 
Q 3713 922 3314 415 
Q 2916 -91 2278 -91 
Q 1894 -91 1617 61 
Q 1341 213 1159 525 
L 1159 0 
L 581 0 
L 581 4863 
L 1159 4863 
L 1159 2969 
z
" transform="scale(0.015625)"/>
       <path id="DejaVuSans-56" d="M 1831 0 
L 50 4666 
L 709 4666 
L 2188 738 
L 3669 4666 
L 4325 4666 
L 2547 0 
L 1831 0 
z
" transform="scale(0.015625)"/>
      </defs>
      <use xlink:href="#DejaVuSans-4b"/>
      <use xlink:href="#DejaVuSans-75" x="60.576172"/>
      <use xlink:href="#DejaVuSans-62" x="123.955078"/>
      <use xlink:href="#DejaVuSans-65" x="187.431641"/>
      <use xlink:href="#DejaVuSans-56" x="248.955078"/>
      <use xlink:href="#DejaVuSans-69" x="315.113281"/>
      <use xlink:href="#DejaVuSans-72" x="342.896484"/>
      <use xlink:href="#DejaVuSans-74" x="384.009766"/>
      <use xlink:href="#DejaVuSans-20" x="423.21875"/>
     </g>
    </g>
    <g id="line2d_14">
     <path d="M 404.007813 70.559844 
L 420.007813 70.559844 
L 436.007813 70.559844 
" style="fill: none; stroke: #b85741; stroke-width: 2.5; stroke-linecap: square"/>
    </g>
    <g id="text_15">
     <!-- OpenNebula  -->
     <g transform="translate(448.807813 76.159844) scale(0.16 -0.16)">
      <defs>
       <path id="DejaVuSans-4f" d="M 2522 4238 
Q 1834 4238 1429 3725 
Q 1025 3213 1025 2328 
Q 1025 1447 1429 934 
Q 1834 422 2522 422 
Q 3209 422 3611 934 
Q 4013 1447 4013 2328 
Q 4013 3213 3611 3725 
Q 3209 4238 2522 4238 
z
M 2522 4750 
Q 3503 4750 4090 4092 
Q 4678 3434 4678 2328 
Q 4678 1225 4090 567 
Q 3503 -91 2522 -91 
Q 1538 -91 948 565 
Q 359 1222 359 2328 
Q 359 3434 948 4092 
Q 1538 4750 2522 4750 
z
" transform="scale(0.015625)"/>
       <path id="DejaVuSans-70" d="M 1159 525 
L 1159 -1331 
L 581 -1331 
L 581 3500 
L 1159 3500 
L 1159 2969 
Q 1341 3281 1617 3432 
Q 1894 3584 2278 3584 
Q 2916 3584 3314 3078 
Q 3713 2572 3713 1747 
Q 3713 922 3314 415 
Q 2916 -91 2278 -91 
Q 1894 -91 1617 61 
Q 1341 213 1159 525 
z
M 3116 1747 
Q 3116 2381 2855 2742 
Q 2594 3103 2138 3103 
Q 1681 3103 1420 2742 
Q 1159 2381 1159 1747 
Q 1159 1113 1420 752 
Q 1681 391 2138 391 
Q 2594 391 2855 752 
Q 3116 1113 3116 1747 
z
" transform="scale(0.015625)"/>
       <path id="DejaVuSans-4e" d="M 628 4666 
L 1478 4666 
L 3547 763 
L 3547 4666 
L 4159 4666 
L 4159 0 
L 3309 0 
L 1241 3903 
L 1241 0 
L 628 0 
L 628 4666 
z
" transform="scale(0.015625)"/>
      </defs>
      <use xlink:href="#DejaVuSans-4f"/>
      <use xlink:href="#DejaVuSans-70" x="78.710938"/>
      <use xlink:href="#DejaVuSans-65" x="142.1875"/>
      <use xlink:href="#DejaVuSans-6e" x="203.710938"/>
      <use xlink:href="#DejaVuSans-4e" x="267.089844"/>
      <use xlink:href="#DejaVuSans-65" x="341.894531"/>
      <use xlink:href="#DejaVuSans-62" x="403.417969"/>
      <use xlink:href="#DejaVuSans-75" x="466.894531"/>
      <use xlink:href="#DejaVuSans-6c" x="530.273438"/>
      <use xlink:href="#DejaVuSans-61" x="558.056641"/>
      <use xlink:href="#DejaVuSans-20" x="619.335938"/>
     </g>
    </g>
   </g>
  </g>
 </g>
 <defs>
  <clipPath id="pd267584034">
   <rect x="65.192813" y="26.117344" width="502.2" height="221.76"/>
  </clipPath>
 </defs>
</svg>
