<?xml version="1.0" encoding="utf-8" standalone="no"?>
<!DOCTYPE svg PUBLIC "-//W3C//DTD SVG 1.1//EN"
  "http://www.w3.org/Graphics/SVG/1.1/DTD/svg11.dtd">
<svg xmlns:xlink="http://www.w3.org/1999/xlink" width="564.412812pt" height="298.015156pt" viewBox="0 0 564.412812 298.015156" xmlns="http://www.w3.org/2000/svg" version="1.1">
 <metadata>
  <rdf:RDF xmlns:dc="http://purl.org/dc/elements/1.1/" xmlns:cc="http://creativecommons.org/ns#" xmlns:rdf="http://www.w3.org/1999/02/22-rdf-syntax-ns#">
   <cc:Work>
    <dc:type rdf:resource="http://purl.org/dc/dcmitype/StillImage"/>
    <dc:date>2024-06-25T10:49:20.330164</dc:date>
    <dc:format>image/svg+xml</dc:format>
    <dc:creator>
     <cc:Agent>
      <dc:title>Matplotlib v3.8.4, https://matplotlib.org/</dc:title>
     </cc:Agent>
    </dc:creator>
   </cc:Work>
  </rdf:RDF>
 </metadata>
 <defs>
  <style type="text/css">*{stroke-linejoin: round; stroke-linecap: butt}</style>
 </defs>
 <g id="figure_1">
  <g id="patch_1">
   <path d="M 0 298.015156 
L 564.412812 298.015156 
L 564.412812 0 
L 0 0 
z
" style="fill: #f3f7f8"/>
  </g>
  <g id="axes_1">
   <g id="patch_2">
    <path d="M 55.012813 247.877344 
L 557.212813 247.877344 
L 557.212813 26.117344 
L 55.012813 26.117344 
z
" style="fill: #ffffff"/>
   </g>
   <g id="PolyCollection_1">
    <defs>
     <path id="mae025ef90a" d="M 77.840085 -140.124637 
L 77.840085 -126.835025 
L 81.88031 -126.695806 
L 85.920536 -126.636801 
L 89.960761 -126.503912 
L 94.000986 -126.505259 
L 98.041212 -126.412946 
L 102.081437 -126.49054 
L 106.121662 -126.443671 
L 110.161887 -126.728312 
L 114.202113 -126.882066 
L 118.242338 -127.322215 
L 122.282563 -127.716799 
L 126.322788 -128.151452 
L 130.363014 -128.651984 
L 134.403239 -129.413932 
L 138.443464 -130.091641 
L 142.483689 -131.108606 
L 146.523915 -132.25748 
L 150.56414 -133.558308 
L 154.604365 -134.983926 
L 158.64459 -136.50048 
L 162.684816 -138.120342 
L 166.725041 -139.834284 
L 170.765266 -141.7917 
L 174.805492 -143.883227 
L 178.845717 -145.633166 
L 182.885942 -147.774867 
L 186.926167 -149.435724 
L 190.966393 -151.318654 
L 195.006618 -152.686961 
L 199.046843 -154.338752 
L 203.087068 -155.634747 
L 207.127294 -157.17785 
L 211.167519 -158.476363 
L 215.207744 -160.018471 
L 219.247969 -161.230079 
L 223.288195 -162.768403 
L 227.32842 -163.816615 
L 231.368645 -165.269374 
L 235.40887 -166.310713 
L 239.449096 -167.701295 
L 243.489321 -168.756937 
L 247.529546 -170.021946 
L 251.569771 -170.893656 
L 255.609997 -171.952246 
L 259.650222 -172.647061 
L 263.690447 -173.527594 
L 267.730673 -174.335977 
L 271.770898 -175.335379 
L 275.811123 -176.35093 
L 279.851348 -177.463367 
L 283.891574 -178.741045 
L 287.931799 -180.137543 
L 291.972024 -181.566368 
L 296.012249 -183.146805 
L 300.052475 -184.800632 
L 304.0927 -186.46672 
L 308.132925 -188.625696 
L 312.17315 -190.452784 
L 316.213376 -193.251512 
L 320.253601 -195.664977 
L 324.293826 -198.865667 
L 328.334051 -201.731844 
L 332.374277 -204.536316 
L 336.414502 -207.782782 
L 340.454727 -210.206752 
L 344.494952 -213.046251 
L 348.535178 -213.533975 
L 352.575403 -215.341695 
L 356.615628 -215.133643 
L 360.655854 -214.345285 
L 364.696079 -212.372942 
L 368.736304 -209.408103 
L 372.776529 -205.595634 
L 376.816755 -201.551813 
L 380.85698 -196.234703 
L 384.897205 -190.597264 
L 388.93743 -184.34793 
L 392.977656 -179.032193 
L 397.017881 -172.029648 
L 401.058106 -166.754069 
L 405.098331 -160.312413 
L 409.138557 -155.471253 
L 413.178782 -150.192894 
L 417.219007 -145.760881 
L 421.259232 -141.266866 
L 425.299458 -137.851929 
L 429.339683 -134.806909 
L 433.379908 -132.28161 
L 437.420133 -130.573957 
L 441.460359 -129.063515 
L 445.500584 -127.735447 
L 449.540809 -127.148349 
L 453.581035 -126.463161 
L 457.62126 -125.99929 
L 461.661485 -126.064042 
L 465.70171 -125.943847 
L 469.741936 -125.802496 
L 473.782161 -125.962616 
L 477.822386 -125.827913 
L 481.862611 -125.980715 
L 485.902837 -125.751098 
L 489.943062 -125.793696 
L 493.983287 -125.712077 
L 498.023512 -125.500293 
L 502.063738 -125.476357 
L 506.103963 -125.143581 
L 510.144188 -124.870173 
L 514.184413 -124.451209 
L 518.224639 -124.268142 
L 522.264864 -123.987652 
L 526.305089 -123.678334 
L 534.38554 -123.337803 
L 534.38554 -135.857354 
L 534.38554 -135.857354 
L 526.305089 -136.288437 
L 522.264864 -136.843871 
L 518.224639 -136.90576 
L 514.184413 -137.3435 
L 510.144188 -137.649119 
L 506.103963 -138.599638 
L 502.063738 -138.944814 
L 498.023512 -140.258384 
L 493.983287 -140.873494 
L 489.943062 -142.02429 
L 485.902837 -143.628922 
L 481.862611 -143.946139 
L 477.822386 -147.083171 
L 473.782161 -147.314762 
L 469.741936 -150.390845 
L 465.70171 -150.501127 
L 461.661485 -153.431664 
L 457.62126 -154.505069 
L 453.581035 -156.902338 
L 449.540809 -160.526429 
L 445.500584 -163.702031 
L 441.460359 -166.908374 
L 437.420133 -173.220532 
L 433.379908 -175.365508 
L 429.339683 -183.17643 
L 425.299458 -187.945741 
L 421.259232 -197.568934 
L 417.219007 -204.250152 
L 413.178782 -213.5369 
L 409.138557 -221.097063 
L 405.098331 -228.102062 
L 401.058106 -235.479569 
L 397.017881 -241.760904 
L 392.977656 -247.056773 
L 388.93743 -252.2149 
L 384.897205 -255.437479 
L 380.85698 -258.636567 
L 376.816755 -259.844212 
L 372.776529 -260.726351 
L 368.736304 -261.320822 
L 364.696079 -261.817813 
L 360.655854 -261.644454 
L 356.615628 -261.517393 
L 352.575403 -261.081361 
L 348.535178 -260.229838 
L 344.494952 -260.31255 
L 340.454727 -259.546546 
L 336.414502 -258.771531 
L 332.374277 -257.891805 
L 328.334051 -257.049842 
L 324.293826 -255.804199 
L 320.253601 -254.273139 
L 316.213376 -252.878813 
L 312.17315 -251.017613 
L 308.132925 -249.660124 
L 304.0927 -247.80537 
L 300.052475 -246.165012 
L 296.012249 -244.375165 
L 291.972024 -242.63092 
L 287.931799 -240.522761 
L 283.891574 -238.428269 
L 279.851348 -235.991988 
L 275.811123 -233.812721 
L 271.770898 -231.444821 
L 267.730673 -229.06868 
L 263.690447 -226.649323 
L 259.650222 -224.122564 
L 255.609997 -221.756401 
L 251.569771 -219.129088 
L 247.529546 -216.680079 
L 243.489321 -213.985698 
L 239.449096 -211.639916 
L 235.40887 -208.746075 
L 231.368645 -206.20419 
L 227.32842 -203.068789 
L 223.288195 -200.332868 
L 219.247969 -196.921004 
L 215.207744 -193.838116 
L 211.167519 -190.356871 
L 207.127294 -186.920816 
L 203.087068 -183.115612 
L 199.046843 -179.44865 
L 195.006618 -175.442662 
L 190.966393 -171.804919 
L 186.926167 -167.651256 
L 182.885942 -164.206895 
L 178.845717 -160.375267 
L 174.805492 -157.330877 
L 170.765266 -154.101342 
L 166.725041 -151.338994 
L 162.684816 -148.913839 
L 158.64459 -146.754494 
L 154.604365 -145.090703 
L 150.56414 -143.60658 
L 146.523915 -142.677586 
L 142.483689 -141.900475 
L 138.443464 -141.314044 
L 134.403239 -140.921464 
L 130.363014 -140.59102 
L 126.322788 -140.387926 
L 122.282563 -140.181442 
L 118.242338 -140.041063 
L 114.202113 -139.872789 
L 110.161887 -139.87343 
L 106.121662 -139.7597 
L 102.081437 -139.889761 
L 98.041212 -139.846985 
L 94.000986 -139.92493 
L 89.960761 -139.955794 
L 85.920536 -140.001687 
L 81.88031 -140.074342 
L 77.840085 -140.124637 
z
" style="stroke: #009384; stroke-opacity: 0.15"/>
    </defs>
    <g clip-path="url(#p82af54987f)">
     <use xlink:href="#mae025ef90a" x="0" y="298.015156" style="fill: #009384; fill-opacity: 0.15; stroke: #009384; stroke-opacity: 0.15"/>
    </g>
   </g>
   <g id="PolyCollection_2">
    <defs>
     <path id="m538470730b" d="M 77.840085 -87.800233 
L 77.840085 -61.7631 
L 81.88031 -60.909622 
L 85.920536 -61.057772 
L 89.960761 -60.500621 
L 94.000986 -60.520001 
L 98.041212 -60.217813 
L 102.081437 -60.307654 
L 106.121662 -60.607191 
L 110.161887 -60.404545 
L 114.202113 -61.136058 
L 118.242338 -60.807421 
L 122.282563 -60.926996 
L 126.322788 -61.78351 
L 130.363014 -61.655504 
L 134.403239 -62.309568 
L 138.443464 -62.477975 
L 142.483689 -62.274944 
L 146.523915 -62.815957 
L 150.56414 -62.910892 
L 154.604365 -63.543949 
L 158.64459 -63.603603 
L 162.684816 -64.652022 
L 166.725041 -64.653537 
L 170.765266 -65.514497 
L 174.805492 -66.559303 
L 178.845717 -67.61496 
L 182.885942 -68.823095 
L 186.926167 -70.969089 
L 190.966393 -72.326823 
L 195.006618 -74.204088 
L 199.046843 -75.660332 
L 203.087068 -77.801334 
L 207.127294 -79.173952 
L 211.167519 -82.022854 
L 215.207744 -83.589251 
L 219.247969 -85.934984 
L 223.288195 -87.782054 
L 227.32842 -90.448466 
L 231.368645 -92.550292 
L 235.40887 -95.120401 
L 239.449096 -98.431797 
L 243.489321 -100.916553 
L 247.529546 -105.128507 
L 251.569771 -108.385071 
L 255.609997 -112.669399 
L 259.650222 -117.528039 
L 263.690447 -121.77949 
L 267.730673 -126.666379 
L 271.770898 -130.950944 
L 275.811123 -135.565205 
L 279.851348 -139.208846 
L 283.891574 -142.934223 
L 287.931799 -145.815964 
L 291.972024 -148.376088 
L 296.012249 -149.313293 
L 300.052475 -149.584347 
L 304.0927 -148.364619 
L 308.132925 -147.347285 
L 312.17315 -144.0043 
L 316.213376 -140.300665 
L 320.253601 -135.777403 
L 324.293826 -130.605687 
L 328.334051 -123.602658 
L 332.374277 -118.547912 
L 336.414502 -110.252792 
L 340.454727 -105.006237 
L 344.494952 -97.476317 
L 348.535178 -92.507772 
L 352.575403 -85.483033 
L 356.615628 -81.545062 
L 360.655854 -76.631771 
L 364.696079 -72.795387 
L 368.736304 -69.531214 
L 372.776529 -67.563868 
L 376.816755 -64.923786 
L 380.85698 -63.944263 
L 384.897205 -62.823876 
L 388.93743 -62.707093 
L 392.977656 -61.689847 
L 397.017881 -61.845178 
L 401.058106 -61.690362 
L 405.098331 -61.633258 
L 409.138557 -61.806825 
L 413.178782 -61.705714 
L 417.219007 -62.107014 
L 421.259232 -62.027379 
L 425.299458 -62.573618 
L 429.339683 -62.194054 
L 433.379908 -62.522311 
L 437.420133 -62.191483 
L 441.460359 -62.799218 
L 445.500584 -62.327859 
L 449.540809 -62.764848 
L 453.581035 -62.510134 
L 457.62126 -63.618955 
L 461.661485 -63.066754 
L 465.70171 -62.869678 
L 469.741936 -62.483615 
L 473.782161 -60.741413 
L 477.822386 -60.636299 
L 485.902837 -61.876767 
L 493.983287 -62.509165 
L 493.983287 -87.321904 
L 493.983287 -87.321904 
L 485.902837 -86.311281 
L 477.822386 -84.720194 
L 473.782161 -84.477351 
L 469.741936 -88.601861 
L 465.70171 -88.859689 
L 461.661485 -91.222026 
L 457.62126 -91.524061 
L 453.581035 -90.035307 
L 449.540809 -90.240094 
L 445.500584 -89.362583 
L 441.460359 -89.732273 
L 437.420133 -88.751551 
L 433.379908 -89.095741 
L 429.339683 -88.397012 
L 425.299458 -89.283364 
L 421.259232 -88.113766 
L 417.219007 -89.273815 
L 413.178782 -88.392885 
L 409.138557 -89.728339 
L 405.098331 -90.133885 
L 401.058106 -90.77809 
L 397.017881 -93.344235 
L 392.977656 -95.203019 
L 388.93743 -99.531071 
L 384.897205 -102.688164 
L 380.85698 -107.401047 
L 376.816755 -112.933478 
L 372.776529 -119.740352 
L 368.736304 -126.040802 
L 364.696079 -133.307525 
L 360.655854 -140.762057 
L 356.615628 -149.531674 
L 352.575403 -154.846227 
L 348.535178 -162.983355 
L 344.494952 -167.489206 
L 340.454727 -174.4182 
L 336.414502 -178.405502 
L 332.374277 -183.406967 
L 328.334051 -185.087074 
L 324.293826 -188.814015 
L 320.253601 -190.016082 
L 316.213376 -191.17965 
L 312.17315 -191.584911 
L 308.132925 -192.347382 
L 304.0927 -191.720871 
L 300.052475 -191.480256 
L 296.012249 -190.729603 
L 291.972024 -188.802526 
L 287.931799 -187.278496 
L 283.891574 -184.76391 
L 279.851348 -182.05139 
L 275.811123 -179.214867 
L 271.770898 -175.032459 
L 267.730673 -171.656664 
L 263.690447 -166.268191 
L 259.650222 -162.488075 
L 255.609997 -157.15909 
L 251.569771 -152.581108 
L 247.529546 -148.694586 
L 243.489321 -143.698199 
L 239.449096 -140.054586 
L 235.40887 -135.727596 
L 231.368645 -132.003082 
L 227.32842 -129.094958 
L 223.288195 -125.246071 
L 219.247969 -122.773054 
L 215.207744 -119.221933 
L 211.167519 -116.808772 
L 207.127294 -112.616181 
L 203.087068 -110.320979 
L 199.046843 -107.097669 
L 195.006618 -104.826843 
L 190.966393 -102.093767 
L 186.926167 -100.083173 
L 182.885942 -97.241212 
L 178.845717 -95.396303 
L 174.805492 -94.134345 
L 170.765266 -92.556761 
L 166.725041 -91.499964 
L 162.684816 -91.556323 
L 158.64459 -90.177697 
L 154.604365 -90.277325 
L 150.56414 -89.437662 
L 146.523915 -89.449173 
L 142.483689 -88.806545 
L 138.443464 -88.910202 
L 134.403239 -88.772161 
L 130.363014 -86.953153 
L 126.322788 -87.259789 
L 122.282563 -85.24708 
L 118.242338 -85.094536 
L 114.202113 -85.556648 
L 110.161887 -84.248305 
L 106.121662 -84.602612 
L 102.081437 -84.16366 
L 98.041212 -84.086622 
L 94.000986 -84.594737 
L 89.960761 -84.554611 
L 85.920536 -86.141628 
L 81.88031 -85.946655 
L 77.840085 -87.800233 
z
" style="stroke: #b85741; stroke-opacity: 0.15"/>
    </defs>
    <g clip-path="url(#p82af54987f)">
     <use xlink:href="#m538470730b" x="0" y="298.015156" style="fill: #b85741; fill-opacity: 0.15; stroke: #b85741; stroke-opacity: 0.15"/>
    </g>
   </g>
   <g id="matplotlib.axis_1">
    <g id="xtick_1">
     <g id="line2d_1">
      <defs>
       <path id="ma8f1a42cbc" d="M 0 0 
L 0 3.5 
" style="stroke: #000000; stroke-width: 0.8"/>
      </defs>
      <g>
       <use xlink:href="#ma8f1a42cbc" x="77.840085" y="247.877344" style="stroke: #000000; stroke-width: 0.8"/>
      </g>
     </g>
     <g id="text_1">
      <!-- 0 -->
      <g transform="translate(72.750085 267.034844) scale(0.16 -0.16)">
       <defs>
        <path id="DejaVuSans-30" d="M 2034 4250 
Q 1547 4250 1301 3770 
Q 1056 3291 1056 2328 
Q 1056 1369 1301 889 
Q 1547 409 2034 409 
Q 2525 409 2770 889 
Q 3016 1369 3016 2328 
Q 3016 3291 2770 3770 
Q 2525 4250 2034 4250 
z
M 2034 4750 
Q 2819 4750 3233 4129 
Q 3647 3509 3647 2328 
Q 3647 1150 3233 529 
Q 2819 -91 2034 -91 
Q 1250 -91 836 529 
Q 422 1150 422 2328 
Q 422 3509 836 4129 
Q 1250 4750 2034 4750 
z
" transform="scale(0.015625)"/>
       </defs>
       <use xlink:href="#DejaVuSans-30"/>
      </g>
     </g>
    </g>
    <g id="xtick_2">
     <g id="line2d_2">
      <g>
       <use xlink:href="#ma8f1a42cbc" x="158.64459" y="247.877344" style="stroke: #000000; stroke-width: 0.8"/>
      </g>
     </g>
     <g id="text_2">
      <!-- 20 -->
      <g transform="translate(148.46459 267.034844) scale(0.16 -0.16)">
       <defs>
        <path id="DejaVuSans-32" d="M 1228 531 
L 3431 531 
L 3431 0 
L 469 0 
L 469 531 
Q 828 903 1448 1529 
Q 2069 2156 2228 2338 
Q 2531 2678 2651 2914 
Q 2772 3150 2772 3378 
Q 2772 3750 2511 3984 
Q 2250 4219 1831 4219 
Q 1534 4219 1204 4116 
Q 875 4013 500 3803 
L 500 4441 
Q 881 4594 1212 4672 
Q 1544 4750 1819 4750 
Q 2544 4750 2975 4387 
Q 3406 4025 3406 3419 
Q 3406 3131 3298 2873 
Q 3191 2616 2906 2266 
Q 2828 2175 2409 1742 
Q 1991 1309 1228 531 
z
" transform="scale(0.015625)"/>
       </defs>
       <use xlink:href="#DejaVuSans-32"/>
       <use xlink:href="#DejaVuSans-30" x="63.623047"/>
      </g>
     </g>
    </g>
    <g id="xtick_3">
     <g id="line2d_3">
      <g>
       <use xlink:href="#ma8f1a42cbc" x="239.449096" y="247.877344" style="stroke: #000000; stroke-width: 0.8"/>
      </g>
     </g>
     <g id="text_3">
      <!-- 40 -->
      <g transform="translate(229.269096 267.034844) scale(0.16 -0.16)">
       <defs>
        <path id="DejaVuSans-34" d="M 2419 4116 
L 825 1625 
L 2419 1625 
L 2419 4116 
z
M 2253 4666 
L 3047 4666 
L 3047 1625 
L 3713 1625 
L 3713 1100 
L 3047 1100 
L 3047 0 
L 2419 0 
L 2419 1100 
L 313 1100 
L 313 1709 
L 2253 4666 
z
" transform="scale(0.015625)"/>
       </defs>
       <use xlink:href="#DejaVuSans-34"/>
       <use xlink:href="#DejaVuSans-30" x="63.623047"/>
      </g>
     </g>
    </g>
    <g id="xtick_4">
     <g id="line2d_4">
      <g>
       <use xlink:href="#ma8f1a42cbc" x="320.253601" y="247.877344" style="stroke: #000000; stroke-width: 0.8"/>
      </g>
     </g>
     <g id="text_4">
      <!-- 60 -->
      <g transform="translate(310.073601 267.034844) scale(0.16 -0.16)">
       <defs>
        <path id="DejaVuSans-36" d="M 2113 2584 
Q 1688 2584 1439 2293 
Q 1191 2003 1191 1497 
Q 1191 994 1439 701 
Q 1688 409 2113 409 
Q 2538 409 2786 701 
Q 3034 994 3034 1497 
Q 3034 2003 2786 2293 
Q 2538 2584 2113 2584 
z
M 3366 4563 
L 3366 3988 
Q 3128 4100 2886 4159 
Q 2644 4219 2406 4219 
Q 1781 4219 1451 3797 
Q 1122 3375 1075 2522 
Q 1259 2794 1537 2939 
Q 1816 3084 2150 3084 
Q 2853 3084 3261 2657 
Q 3669 2231 3669 1497 
Q 3669 778 3244 343 
Q 2819 -91 2113 -91 
Q 1303 -91 875 529 
Q 447 1150 447 2328 
Q 447 3434 972 4092 
Q 1497 4750 2381 4750 
Q 2619 4750 2861 4703 
Q 3103 4656 3366 4563 
z
" transform="scale(0.015625)"/>
       </defs>
       <use xlink:href="#DejaVuSans-36"/>
       <use xlink:href="#DejaVuSans-30" x="63.623047"/>
      </g>
     </g>
    </g>
    <g id="xtick_5">
     <g id="line2d_5">
      <g>
       <use xlink:href="#ma8f1a42cbc" x="401.058106" y="247.877344" style="stroke: #000000; stroke-width: 0.8"/>
      </g>
     </g>
     <g id="text_5">
      <!-- 80 -->
      <g transform="translate(390.878106 267.034844) scale(0.16 -0.16)">
       <defs>
        <path id="DejaVuSans-38" d="M 2034 2216 
Q 1584 2216 1326 1975 
Q 1069 1734 1069 1313 
Q 1069 891 1326 650 
Q 1584 409 2034 409 
Q 2484 409 2743 651 
Q 3003 894 3003 1313 
Q 3003 1734 2745 1975 
Q 2488 2216 2034 2216 
z
M 1403 2484 
Q 997 2584 770 2862 
Q 544 3141 544 3541 
Q 544 4100 942 4425 
Q 1341 4750 2034 4750 
Q 2731 4750 3128 4425 
Q 3525 4100 3525 3541 
Q 3525 3141 3298 2862 
Q 3072 2584 2669 2484 
Q 3125 2378 3379 2068 
Q 3634 1759 3634 1313 
Q 3634 634 3220 271 
Q 2806 -91 2034 -91 
Q 1263 -91 848 271 
Q 434 634 434 1313 
Q 434 1759 690 2068 
Q 947 2378 1403 2484 
z
M 1172 3481 
Q 1172 3119 1398 2916 
Q 1625 2713 2034 2713 
Q 2441 2713 2670 2916 
Q 2900 3119 2900 3481 
Q 2900 3844 2670 4047 
Q 2441 4250 2034 4250 
Q 1625 4250 1398 4047 
Q 1172 3844 1172 3481 
z
" transform="scale(0.015625)"/>
       </defs>
       <use xlink:href="#DejaVuSans-38"/>
       <use xlink:href="#DejaVuSans-30" x="63.623047"/>
      </g>
     </g>
    </g>
    <g id="xtick_6">
     <g id="line2d_6">
      <g>
       <use xlink:href="#ma8f1a42cbc" x="481.862611" y="247.877344" style="stroke: #000000; stroke-width: 0.8"/>
      </g>
     </g>
     <g id="text_6">
      <!-- 100 -->
      <g transform="translate(466.592611 267.034844) scale(0.16 -0.16)">
       <defs>
        <path id="DejaVuSans-31" d="M 794 531 
L 1825 531 
L 1825 4091 
L 703 3866 
L 703 4441 
L 1819 4666 
L 2450 4666 
L 2450 531 
L 3481 531 
L 3481 0 
L 794 0 
L 794 531 
z
" transform="scale(0.015625)"/>
       </defs>
       <use xlink:href="#DejaVuSans-31"/>
       <use xlink:href="#DejaVuSans-30" x="63.623047"/>
       <use xlink:href="#DejaVuSans-30" x="127.246094"/>
      </g>
     </g>
    </g>
    <g id="text_7">
     <!-- Time (s) -->
     <g transform="translate(271.553672 287.279687) scale(0.17 -0.17)">
      <defs>
       <path id="DejaVuSans-54" d="M -19 4666 
L 3928 4666 
L 3928 4134 
L 2272 4134 
L 2272 0 
L 1638 0 
L 1638 4134 
L -19 4134 
L -19 4666 
z
" transform="scale(0.015625)"/>
       <path id="DejaVuSans-69" d="M 603 3500 
L 1178 3500 
L 1178 0 
L 603 0 
L 603 3500 
z
M 603 4863 
L 1178 4863 
L 1178 4134 
L 603 4134 
L 603 4863 
z
" transform="scale(0.015625)"/>
       <path id="DejaVuSans-6d" d="M 3328 2828 
Q 3544 3216 3844 3400 
Q 4144 3584 4550 3584 
Q 5097 3584 5394 3201 
Q 5691 2819 5691 2113 
L 5691 0 
L 5113 0 
L 5113 2094 
Q 5113 2597 4934 2840 
Q 4756 3084 4391 3084 
Q 3944 3084 3684 2787 
Q 3425 2491 3425 1978 
L 3425 0 
L 2847 0 
L 2847 2094 
Q 2847 2600 2669 2842 
Q 2491 3084 2119 3084 
Q 1678 3084 1418 2786 
Q 1159 2488 1159 1978 
L 1159 0 
L 581 0 
L 581 3500 
L 1159 3500 
L 1159 2956 
Q 1356 3278 1631 3431 
Q 1906 3584 2284 3584 
Q 2666 3584 2933 3390 
Q 3200 3197 3328 2828 
z
" transform="scale(0.015625)"/>
       <path id="DejaVuSans-65" d="M 3597 1894 
L 3597 1613 
L 953 1613 
Q 991 1019 1311 708 
Q 1631 397 2203 397 
Q 2534 397 2845 478 
Q 3156 559 3463 722 
L 3463 178 
Q 3153 47 2828 -22 
Q 2503 -91 2169 -91 
Q 1331 -91 842 396 
Q 353 884 353 1716 
Q 353 2575 817 3079 
Q 1281 3584 2069 3584 
Q 2775 3584 3186 3129 
Q 3597 2675 3597 1894 
z
M 3022 2063 
Q 3016 2534 2758 2815 
Q 2500 3097 2075 3097 
Q 1594 3097 1305 2825 
Q 1016 2553 972 2059 
L 3022 2063 
z
" transform="scale(0.015625)"/>
       <path id="DejaVuSans-20" transform="scale(0.015625)"/>
       <path id="DejaVuSans-28" d="M 1984 4856 
Q 1566 4138 1362 3434 
Q 1159 2731 1159 2009 
Q 1159 1288 1364 580 
Q 1569 -128 1984 -844 
L 1484 -844 
Q 1016 -109 783 600 
Q 550 1309 550 2009 
Q 550 2706 781 3412 
Q 1013 4119 1484 4856 
L 1984 4856 
z
" transform="scale(0.015625)"/>
       <path id="DejaVuSans-73" d="M 2834 3397 
L 2834 2853 
Q 2591 2978 2328 3040 
Q 2066 3103 1784 3103 
Q 1356 3103 1142 2972 
Q 928 2841 928 2578 
Q 928 2378 1081 2264 
Q 1234 2150 1697 2047 
L 1894 2003 
Q 2506 1872 2764 1633 
Q 3022 1394 3022 966 
Q 3022 478 2636 193 
Q 2250 -91 1575 -91 
Q 1294 -91 989 -36 
Q 684 19 347 128 
L 347 722 
Q 666 556 975 473 
Q 1284 391 1588 391 
Q 1994 391 2212 530 
Q 2431 669 2431 922 
Q 2431 1156 2273 1281 
Q 2116 1406 1581 1522 
L 1381 1569 
Q 847 1681 609 1914 
Q 372 2147 372 2553 
Q 372 3047 722 3315 
Q 1072 3584 1716 3584 
Q 2034 3584 2315 3537 
Q 2597 3491 2834 3397 
z
" transform="scale(0.015625)"/>
       <path id="DejaVuSans-29" d="M 513 4856 
L 1013 4856 
Q 1481 4119 1714 3412 
Q 1947 2706 1947 2009 
Q 1947 1309 1714 600 
Q 1481 -109 1013 -844 
L 513 -844 
Q 928 -128 1133 580 
Q 1338 1288 1338 2009 
Q 1338 2731 1133 3434 
Q 928 4138 513 4856 
z
" transform="scale(0.015625)"/>
      </defs>
      <use xlink:href="#DejaVuSans-54"/>
      <use xlink:href="#DejaVuSans-69" x="57.958984"/>
      <use xlink:href="#DejaVuSans-6d" x="85.742188"/>
      <use xlink:href="#DejaVuSans-65" x="183.154297"/>
      <use xlink:href="#DejaVuSans-20" x="244.677734"/>
      <use xlink:href="#DejaVuSans-28" x="276.464844"/>
      <use xlink:href="#DejaVuSans-73" x="315.478516"/>
      <use xlink:href="#DejaVuSans-29" x="367.578125"/>
     </g>
    </g>
   </g>
   <g id="matplotlib.axis_2">
    <g id="ytick_1">
     <g id="line2d_7">
      <defs>
       <path id="mc1f0bf0d5a" d="M 0 0 
L -3.5 0 
" style="stroke: #000000; stroke-width: 0.8"/>
      </defs>
      <g>
       <use xlink:href="#mc1f0bf0d5a" x="55.012813" y="201.828153" style="stroke: #000000; stroke-width: 0.8"/>
      </g>
     </g>
     <g id="text_8">
      <!-- 10 -->
      <g transform="translate(27.652813 207.906903) scale(0.16 -0.16)">
       <use xlink:href="#DejaVuSans-31"/>
       <use xlink:href="#DejaVuSans-30" x="63.623047"/>
      </g>
     </g>
    </g>
    <g id="ytick_2">
     <g id="line2d_8">
      <g>
       <use xlink:href="#mc1f0bf0d5a" x="55.012813" y="129.046951" style="stroke: #000000; stroke-width: 0.8"/>
      </g>
     </g>
     <g id="text_9">
      <!-- 20 -->
      <g transform="translate(27.652813 135.125701) scale(0.16 -0.16)">
       <use xlink:href="#DejaVuSans-32"/>
       <use xlink:href="#DejaVuSans-30" x="63.623047"/>
      </g>
     </g>
    </g>
    <g id="ytick_3">
     <g id="line2d_9">
      <g>
       <use xlink:href="#mc1f0bf0d5a" x="55.012813" y="56.265749" style="stroke: #000000; stroke-width: 0.8"/>
      </g>
     </g>
     <g id="text_10">
      <!-- 30 -->
      <g transform="translate(27.652813 62.344499) scale(0.16 -0.16)">
       <defs>
        <path id="DejaVuSans-33" d="M 2597 2516 
Q 3050 2419 3304 2112 
Q 3559 1806 3559 1356 
Q 3559 666 3084 287 
Q 2609 -91 1734 -91 
Q 1441 -91 1130 -33 
Q 819 25 488 141 
L 488 750 
Q 750 597 1062 519 
Q 1375 441 1716 441 
Q 2309 441 2620 675 
Q 2931 909 2931 1356 
Q 2931 1769 2642 2001 
Q 2353 2234 1838 2234 
L 1294 2234 
L 1294 2753 
L 1863 2753 
Q 2328 2753 2575 2939 
Q 2822 3125 2822 3475 
Q 2822 3834 2567 4026 
Q 2313 4219 1838 4219 
Q 1578 4219 1281 4162 
Q 984 4106 628 3988 
L 628 4550 
Q 988 4650 1302 4700 
Q 1616 4750 1894 4750 
Q 2613 4750 3031 4423 
Q 3450 4097 3450 3541 
Q 3450 3153 3228 2886 
Q 3006 2619 2597 2516 
z
" transform="scale(0.015625)"/>
       </defs>
       <use xlink:href="#DejaVuSans-33"/>
       <use xlink:href="#DejaVuSans-30" x="63.623047"/>
      </g>
     </g>
    </g>
    <g id="text_11">
     <!-- Utilization (%) -->
     <g transform="translate(20.117344 196.996719) rotate(-90) scale(0.17 -0.17)">
      <defs>
       <path id="DejaVuSans-55" d="M 556 4666 
L 1191 4666 
L 1191 1831 
Q 1191 1081 1462 751 
Q 1734 422 2344 422 
Q 2950 422 3222 751 
Q 3494 1081 3494 1831 
L 3494 4666 
L 4128 4666 
L 4128 1753 
Q 4128 841 3676 375 
Q 3225 -91 2344 -91 
Q 1459 -91 1007 375 
Q 556 841 556 1753 
L 556 4666 
z
" transform="scale(0.015625)"/>
       <path id="DejaVuSans-74" d="M 1172 4494 
L 1172 3500 
L 2356 3500 
L 2356 3053 
L 1172 3053 
L 1172 1153 
Q 1172 725 1289 603 
Q 1406 481 1766 481 
L 2356 481 
L 2356 0 
L 1766 0 
Q 1100 0 847 248 
Q 594 497 594 1153 
L 594 3053 
L 172 3053 
L 172 3500 
L 594 3500 
L 594 4494 
L 1172 4494 
z
" transform="scale(0.015625)"/>
       <path id="DejaVuSans-6c" d="M 603 4863 
L 1178 4863 
L 1178 0 
L 603 0 
L 603 4863 
z
" transform="scale(0.015625)"/>
       <path id="DejaVuSans-7a" d="M 353 3500 
L 3084 3500 
L 3084 2975 
L 922 459 
L 3084 459 
L 3084 0 
L 275 0 
L 275 525 
L 2438 3041 
L 353 3041 
L 353 3500 
z
" transform="scale(0.015625)"/>
       <path id="DejaVuSans-61" d="M 2194 1759 
Q 1497 1759 1228 1600 
Q 959 1441 959 1056 
Q 959 750 1161 570 
Q 1363 391 1709 391 
Q 2188 391 2477 730 
Q 2766 1069 2766 1631 
L 2766 1759 
L 2194 1759 
z
M 3341 1997 
L 3341 0 
L 2766 0 
L 2766 531 
Q 2569 213 2275 61 
Q 1981 -91 1556 -91 
Q 1019 -91 701 211 
Q 384 513 384 1019 
Q 384 1609 779 1909 
Q 1175 2209 1959 2209 
L 2766 2209 
L 2766 2266 
Q 2766 2663 2505 2880 
Q 2244 3097 1772 3097 
Q 1472 3097 1187 3025 
Q 903 2953 641 2809 
L 641 3341 
Q 956 3463 1253 3523 
Q 1550 3584 1831 3584 
Q 2591 3584 2966 3190 
Q 3341 2797 3341 1997 
z
" transform="scale(0.015625)"/>
       <path id="DejaVuSans-6f" d="M 1959 3097 
Q 1497 3097 1228 2736 
Q 959 2375 959 1747 
Q 959 1119 1226 758 
Q 1494 397 1959 397 
Q 2419 397 2687 759 
Q 2956 1122 2956 1747 
Q 2956 2369 2687 2733 
Q 2419 3097 1959 3097 
z
M 1959 3584 
Q 2709 3584 3137 3096 
Q 3566 2609 3566 1747 
Q 3566 888 3137 398 
Q 2709 -91 1959 -91 
Q 1206 -91 779 398 
Q 353 888 353 1747 
Q 353 2609 779 3096 
Q 1206 3584 1959 3584 
z
" transform="scale(0.015625)"/>
       <path id="DejaVuSans-6e" d="M 3513 2113 
L 3513 0 
L 2938 0 
L 2938 2094 
Q 2938 2591 2744 2837 
Q 2550 3084 2163 3084 
Q 1697 3084 1428 2787 
Q 1159 2491 1159 1978 
L 1159 0 
L 581 0 
L 581 3500 
L 1159 3500 
L 1159 2956 
Q 1366 3272 1645 3428 
Q 1925 3584 2291 3584 
Q 2894 3584 3203 3211 
Q 3513 2838 3513 2113 
z
" transform="scale(0.015625)"/>
       <path id="DejaVuSans-25" d="M 4653 2053 
Q 4381 2053 4226 1822 
Q 4072 1591 4072 1178 
Q 4072 772 4226 539 
Q 4381 306 4653 306 
Q 4919 306 5073 539 
Q 5228 772 5228 1178 
Q 5228 1588 5073 1820 
Q 4919 2053 4653 2053 
z
M 4653 2450 
Q 5147 2450 5437 2106 
Q 5728 1763 5728 1178 
Q 5728 594 5436 251 
Q 5144 -91 4653 -91 
Q 4153 -91 3862 251 
Q 3572 594 3572 1178 
Q 3572 1766 3864 2108 
Q 4156 2450 4653 2450 
z
M 1428 4353 
Q 1159 4353 1004 4120 
Q 850 3888 850 3481 
Q 850 3069 1003 2837 
Q 1156 2606 1428 2606 
Q 1700 2606 1854 2837 
Q 2009 3069 2009 3481 
Q 2009 3884 1853 4118 
Q 1697 4353 1428 4353 
z
M 4250 4750 
L 4750 4750 
L 1831 -91 
L 1331 -91 
L 4250 4750 
z
M 1428 4750 
Q 1922 4750 2215 4408 
Q 2509 4066 2509 3481 
Q 2509 2891 2217 2550 
Q 1925 2209 1428 2209 
Q 931 2209 642 2551 
Q 353 2894 353 3481 
Q 353 4063 643 4406 
Q 934 4750 1428 4750 
z
" transform="scale(0.015625)"/>
      </defs>
      <use xlink:href="#DejaVuSans-55"/>
      <use xlink:href="#DejaVuSans-74" x="73.193359"/>
      <use xlink:href="#DejaVuSans-69" x="112.402344"/>
      <use xlink:href="#DejaVuSans-6c" x="140.185547"/>
      <use xlink:href="#DejaVuSans-69" x="167.96875"/>
      <use xlink:href="#DejaVuSans-7a" x="195.751953"/>
      <use xlink:href="#DejaVuSans-61" x="248.242188"/>
      <use xlink:href="#DejaVuSans-74" x="309.521484"/>
      <use xlink:href="#DejaVuSans-69" x="348.730469"/>
      <use xlink:href="#DejaVuSans-6f" x="376.513672"/>
      <use xlink:href="#DejaVuSans-6e" x="437.695312"/>
      <use xlink:href="#DejaVuSans-20" x="501.074219"/>
      <use xlink:href="#DejaVuSans-28" x="532.861328"/>
      <use xlink:href="#DejaVuSans-25" x="571.875"/>
      <use xlink:href="#DejaVuSans-29" x="666.894531"/>
     </g>
    </g>
   </g>
   <g id="line2d_10">
    <path d="M 77.840085 164.535325 
L 81.88031 164.630083 
L 85.920536 164.695913 
L 89.960761 164.785304 
L 94.000986 164.800062 
L 98.041212 164.88519 
L 102.081437 164.825006 
L 106.121662 164.913471 
L 110.161887 164.714285 
L 114.202113 164.637729 
L 118.242338 164.333517 
L 122.282563 164.066036 
L 126.322788 163.745467 
L 130.363014 163.393654 
L 134.403239 162.847458 
L 138.443464 162.312314 
L 142.483689 161.510616 
L 146.523915 160.547624 
L 150.56414 159.432712 
L 154.604365 157.977842 
L 158.64459 156.387669 
L 162.684816 154.498066 
L 166.725041 152.428517 
L 170.765266 150.068635 
L 174.805492 147.408104 
L 178.845717 145.01094 
L 182.885942 142.024275 
L 186.926167 139.471666 
L 190.966393 136.45337 
L 195.006618 133.950345 
L 199.046843 131.121455 
L 203.087068 128.639977 
L 207.127294 125.965824 
L 211.167519 123.598539 
L 215.207744 121.086863 
L 219.247969 118.939615 
L 223.288195 116.464521 
L 227.32842 114.572454 
L 231.368645 112.278374 
L 235.40887 110.486762 
L 239.449096 108.344551 
L 243.489321 106.643839 
L 247.529546 104.664144 
L 251.569771 103.003784 
L 255.609997 101.160833 
L 259.650222 99.630344 
L 263.690447 97.926698 
L 267.730673 96.312828 
L 271.770898 94.625057 
L 275.811123 92.93333 
L 279.851348 91.287479 
L 283.891574 89.4305 
L 287.931799 87.685005 
L 291.972024 85.916512 
L 296.012249 84.254172 
L 300.052475 82.532334 
L 304.0927 80.879111 
L 308.132925 78.872246 
L 312.17315 77.279957 
L 316.213376 74.949993 
L 320.253601 73.046098 
L 324.293826 70.680223 
L 328.334051 68.624313 
L 332.374277 66.801096 
L 336.414502 64.738 
L 340.454727 63.138507 
L 344.494952 61.335756 
L 348.535178 61.13325 
L 352.575403 59.803628 
L 356.615628 59.689638 
L 360.655854 60.020287 
L 364.696079 60.919779 
L 368.736304 62.650694 
L 372.776529 64.854164 
L 376.816755 67.317144 
L 380.85698 70.579521 
L 384.897205 74.997785 
L 388.93743 79.733741 
L 392.977656 84.970673 
L 397.017881 91.11988 
L 401.058106 96.898338 
L 405.098331 103.807919 
L 409.138557 109.730998 
L 413.178782 116.150259 
L 417.219007 123.00964 
L 421.259232 128.597256 
L 425.299458 135.116321 
L 429.339683 139.023487 
L 433.379908 144.191597 
L 437.420133 146.117911 
L 441.460359 150.029212 
L 445.500584 152.296417 
L 449.540809 154.177767 
L 453.581035 156.332407 
L 457.62126 157.762977 
L 461.661485 158.267303 
L 465.70171 159.792669 
L 469.741936 159.918486 
L 473.782161 161.376467 
L 477.822386 161.559614 
L 481.862611 163.051729 
L 485.902837 163.325146 
L 489.943062 164.106163 
L 493.983287 164.72237 
L 498.023512 165.135818 
L 502.063738 165.804571 
L 506.103963 166.143547 
L 510.144188 166.75551 
L 514.184413 167.117801 
L 518.224639 167.428205 
L 522.264864 167.599395 
L 526.305089 168.031771 
L 534.38554 168.417577 
" clip-path="url(#p82af54987f)" style="fill: none; stroke: #009384; stroke-width: 2.5; stroke-linecap: square"/>
   </g>
   <g id="line2d_11">
    <path d="M 77.840085 223.23349 
L 81.88031 224.587018 
L 85.920536 224.415456 
L 89.960761 225.48754 
L 94.000986 225.457788 
L 98.041212 225.862939 
L 102.081437 225.779499 
L 106.121662 225.410255 
L 110.161887 225.688731 
L 114.202113 224.668803 
L 118.242338 225.064178 
L 122.282563 224.928119 
L 126.322788 223.493507 
L 130.363014 223.710828 
L 134.403239 222.474292 
L 138.443464 222.321067 
L 142.483689 222.474412 
L 146.523915 221.882591 
L 150.56414 221.840879 
L 154.604365 221.104519 
L 158.64459 221.124507 
L 162.684816 219.910984 
L 166.725041 219.938405 
L 170.765266 218.979527 
L 174.805492 217.668332 
L 178.845717 216.509524 
L 182.885942 214.983003 
L 186.926167 212.489025 
L 190.966393 210.804861 
L 195.006618 208.499691 
L 199.046843 206.636156 
L 203.087068 203.954 
L 207.127294 202.12009 
L 211.167519 198.599343 
L 215.207744 196.609564 
L 219.247969 193.661137 
L 223.288195 191.501094 
L 227.32842 188.243444 
L 231.368645 185.738469 
L 235.40887 182.591158 
L 239.449096 178.771964 
L 243.489321 175.70778 
L 247.529546 171.10361 
L 251.569771 167.532067 
L 255.609997 163.100912 
L 259.650222 158.007099 
L 263.690447 153.991316 
L 267.730673 148.853634 
L 271.770898 145.023455 
L 275.811123 140.62512 
L 279.851348 137.385038 
L 283.891574 134.16609 
L 287.931799 131.467926 
L 291.972024 129.425849 
L 296.012249 127.993708 
L 300.052475 127.482855 
L 304.0927 127.972412 
L 308.132925 128.167823 
L 312.17315 130.22055 
L 316.213376 132.274999 
L 320.253601 135.118414 
L 324.293826 138.305305 
L 328.334051 143.67029 
L 332.374277 147.037717 
L 336.414502 153.686009 
L 340.454727 158.302938 
L 344.494952 165.532395 
L 348.535178 170.269593 
L 352.575403 177.850526 
L 356.615628 182.476788 
L 360.655854 189.318242 
L 364.696079 194.9637 
L 368.736304 200.229148 
L 372.776529 204.363046 
L 376.816755 209.086524 
L 380.85698 212.342501 
L 384.897205 215.259136 
L 388.93743 216.896074 
L 392.977656 219.568723 
L 397.017881 220.42045 
L 401.058106 221.78093 
L 405.098331 222.131585 
L 409.138557 222.247574 
L 413.178782 222.965857 
L 417.219007 222.324742 
L 421.259232 222.944584 
L 425.299458 222.086665 
L 429.339683 222.719623 
L 433.379908 222.206131 
L 437.420133 222.543639 
L 441.460359 221.749411 
L 445.500584 222.169935 
L 449.540809 221.512685 
L 453.581035 221.742436 
L 457.62126 220.443649 
L 461.661485 220.870767 
L 465.70171 222.150473 
L 469.741936 222.472418 
L 473.782161 225.405774 
L 477.822386 225.33691 
L 485.902837 223.921132 
L 493.983287 223.099622 
" clip-path="url(#p82af54987f)" style="fill: none; stroke: #b85741; stroke-width: 2.5; stroke-linecap: square"/>
   </g>
   <g id="patch_3">
    <path d="M 55.012813 247.877344 
L 55.012813 26.117344 
" style="fill: none; stroke: #000000; stroke-width: 0.8; stroke-linejoin: miter; stroke-linecap: square"/>
   </g>
   <g id="patch_4">
    <path d="M 557.212813 247.877344 
L 557.212813 26.117344 
" style="fill: none; stroke: #000000; stroke-width: 0.8; stroke-linejoin: miter; stroke-linecap: square"/>
   </g>
   <g id="patch_5">
    <path d="M 55.012813 247.877344 
L 557.212813 247.877344 
" style="fill: none; stroke: #000000; stroke-width: 0.8; stroke-linejoin: miter; stroke-linecap: square"/>
   </g>
   <g id="patch_6">
    <path d="M 55.012813 26.117344 
L 557.212813 26.117344 
" style="fill: none; stroke: #000000; stroke-width: 0.8; stroke-linejoin: miter; stroke-linecap: square"/>
   </g>
   <g id="text_12">
    <!-- Live Migrate Many (RAM) -->
    <g transform="translate(199.985 20.117344) scale(0.17 -0.17)">
     <defs>
      <path id="DejaVuSans-4c" d="M 628 4666 
L 1259 4666 
L 1259 531 
L 3531 531 
L 3531 0 
L 628 0 
L 628 4666 
z
" transform="scale(0.015625)"/>
      <path id="DejaVuSans-76" d="M 191 3500 
L 800 3500 
L 1894 563 
L 2988 3500 
L 3597 3500 
L 2284 0 
L 1503 0 
L 191 3500 
z
" transform="scale(0.015625)"/>
      <path id="DejaVuSans-4d" d="M 628 4666 
L 1569 4666 
L 2759 1491 
L 3956 4666 
L 4897 4666 
L 4897 0 
L 4281 0 
L 4281 4097 
L 3078 897 
L 2444 897 
L 1241 4097 
L 1241 0 
L 628 0 
L 628 4666 
z
" transform="scale(0.015625)"/>
      <path id="DejaVuSans-67" d="M 2906 1791 
Q 2906 2416 2648 2759 
Q 2391 3103 1925 3103 
Q 1463 3103 1205 2759 
Q 947 2416 947 1791 
Q 947 1169 1205 825 
Q 1463 481 1925 481 
Q 2391 481 2648 825 
Q 2906 1169 2906 1791 
z
M 3481 434 
Q 3481 -459 3084 -895 
Q 2688 -1331 1869 -1331 
Q 1566 -1331 1297 -1286 
Q 1028 -1241 775 -1147 
L 775 -588 
Q 1028 -725 1275 -790 
Q 1522 -856 1778 -856 
Q 2344 -856 2625 -561 
Q 2906 -266 2906 331 
L 2906 616 
Q 2728 306 2450 153 
Q 2172 0 1784 0 
Q 1141 0 747 490 
Q 353 981 353 1791 
Q 353 2603 747 3093 
Q 1141 3584 1784 3584 
Q 2172 3584 2450 3431 
Q 2728 3278 2906 2969 
L 2906 3500 
L 3481 3500 
L 3481 434 
z
" transform="scale(0.015625)"/>
      <path id="DejaVuSans-72" d="M 2631 2963 
Q 2534 3019 2420 3045 
Q 2306 3072 2169 3072 
Q 1681 3072 1420 2755 
Q 1159 2438 1159 1844 
L 1159 0 
L 581 0 
L 581 3500 
L 1159 3500 
L 1159 2956 
Q 1341 3275 1631 3429 
Q 1922 3584 2338 3584 
Q 2397 3584 2469 3576 
Q 2541 3569 2628 3553 
L 2631 2963 
z
" transform="scale(0.015625)"/>
      <path id="DejaVuSans-79" d="M 2059 -325 
Q 1816 -950 1584 -1140 
Q 1353 -1331 966 -1331 
L 506 -1331 
L 506 -850 
L 844 -850 
Q 1081 -850 1212 -737 
Q 1344 -625 1503 -206 
L 1606 56 
L 191 3500 
L 800 3500 
L 1894 763 
L 2988 3500 
L 3597 3500 
L 2059 -325 
z
" transform="scale(0.015625)"/>
      <path id="DejaVuSans-52" d="M 2841 2188 
Q 3044 2119 3236 1894 
Q 3428 1669 3622 1275 
L 4263 0 
L 3584 0 
L 2988 1197 
Q 2756 1666 2539 1819 
Q 2322 1972 1947 1972 
L 1259 1972 
L 1259 0 
L 628 0 
L 628 4666 
L 2053 4666 
Q 2853 4666 3247 4331 
Q 3641 3997 3641 3322 
Q 3641 2881 3436 2590 
Q 3231 2300 2841 2188 
z
M 1259 4147 
L 1259 2491 
L 2053 2491 
Q 2509 2491 2742 2702 
Q 2975 2913 2975 3322 
Q 2975 3731 2742 3939 
Q 2509 4147 2053 4147 
L 1259 4147 
z
" transform="scale(0.015625)"/>
      <path id="DejaVuSans-41" d="M 2188 4044 
L 1331 1722 
L 3047 1722 
L 2188 4044 
z
M 1831 4666 
L 2547 4666 
L 4325 0 
L 3669 0 
L 3244 1197 
L 1141 1197 
L 716 0 
L 50 0 
L 1831 4666 
z
" transform="scale(0.015625)"/>
     </defs>
     <use xlink:href="#DejaVuSans-4c"/>
     <use xlink:href="#DejaVuSans-69" x="55.712891"/>
     <use xlink:href="#DejaVuSans-76" x="83.496094"/>
     <use xlink:href="#DejaVuSans-65" x="142.675781"/>
     <use xlink:href="#DejaVuSans-20" x="204.199219"/>
     <use xlink:href="#DejaVuSans-4d" x="235.986328"/>
     <use xlink:href="#DejaVuSans-69" x="322.265625"/>
     <use xlink:href="#DejaVuSans-67" x="350.048828"/>
     <use xlink:href="#DejaVuSans-72" x="413.525391"/>
     <use xlink:href="#DejaVuSans-61" x="454.638672"/>
     <use xlink:href="#DejaVuSans-74" x="515.917969"/>
     <use xlink:href="#DejaVuSans-65" x="555.126953"/>
     <use xlink:href="#DejaVuSans-20" x="616.650391"/>
     <use xlink:href="#DejaVuSans-4d" x="648.4375"/>
     <use xlink:href="#DejaVuSans-61" x="734.716797"/>
     <use xlink:href="#DejaVuSans-6e" x="795.996094"/>
     <use xlink:href="#DejaVuSans-79" x="859.375"/>
     <use xlink:href="#DejaVuSans-20" x="918.554688"/>
     <use xlink:href="#DejaVuSans-28" x="950.341797"/>
     <use xlink:href="#DejaVuSans-52" x="989.355469"/>
     <use xlink:href="#DejaVuSans-41" x="1054.837891"/>
     <use xlink:href="#DejaVuSans-4d" x="1123.246094"/>
     <use xlink:href="#DejaVuSans-29" x="1209.525391"/>
    </g>
   </g>
   <g id="legend_1">
    <g id="patch_7">
     <path d="M 66.212813 85.887344 
L 221.597813 85.887344 
Q 224.797813 85.887344 224.797813 82.687344 
L 224.797813 37.317344 
Q 224.797813 34.117344 221.597813 34.117344 
L 66.212813 34.117344 
Q 63.012813 34.117344 63.012813 37.317344 
L 63.012813 82.687344 
Q 63.012813 85.887344 66.212813 85.887344 
z
" style="fill: #ffffff; opacity: 0.8; stroke: #cccccc; stroke-linejoin: miter"/>
    </g>
    <g id="line2d_12">
     <path d="M 69.412813 47.074844 
L 85.412813 47.074844 
L 101.412813 47.074844 
" style="fill: none; stroke: #009384; stroke-width: 2.5; stroke-linecap: square"/>
    </g>
    <g id="text_13">
     <!-- KubeVirt  -->
     <g transform="translate(114.212813 52.674844) scale(0.16 -0.16)">
      <defs>
       <path id="DejaVuSans-4b" d="M 628 4666 
L 1259 4666 
L 1259 2694 
L 3353 4666 
L 4166 4666 
L 1850 2491 
L 4331 0 
L 3500 0 
L 1259 2247 
L 1259 0 
L 628 0 
L 628 4666 
z
" transform="scale(0.015625)"/>
       <path id="DejaVuSans-75" d="M 544 1381 
L 544 3500 
L 1119 3500 
L 1119 1403 
Q 1119 906 1312 657 
Q 1506 409 1894 409 
Q 2359 409 2629 706 
Q 2900 1003 2900 1516 
L 2900 3500 
L 3475 3500 
L 3475 0 
L 2900 0 
L 2900 538 
Q 2691 219 2414 64 
Q 2138 -91 1772 -91 
Q 1169 -91 856 284 
Q 544 659 544 1381 
z
M 1991 3584 
L 1991 3584 
z
" transform="scale(0.015625)"/>
       <path id="DejaVuSans-62" d="M 3116 1747 
Q 3116 2381 2855 2742 
Q 2594 3103 2138 3103 
Q 1681 3103 1420 2742 
Q 1159 2381 1159 1747 
Q 1159 1113 1420 752 
Q 1681 391 2138 391 
Q 2594 391 2855 752 
Q 3116 1113 3116 1747 
z
M 1159 2969 
Q 1341 3281 1617 3432 
Q 1894 3584 2278 3584 
Q 2916 3584 3314 3078 
Q 3713 2572 3713 1747 
Q 3713 922 3314 415 
Q 2916 -91 2278 -91 
Q 1894 -91 1617 61 
Q 1341 213 1159 525 
L 1159 0 
L 581 0 
L 581 4863 
L 1159 4863 
L 1159 2969 
z
" transform="scale(0.015625)"/>
       <path id="DejaVuSans-56" d="M 1831 0 
L 50 4666 
L 709 4666 
L 2188 738 
L 3669 4666 
L 4325 4666 
L 2547 0 
L 1831 0 
z
" transform="scale(0.015625)"/>
      </defs>
      <use xlink:href="#DejaVuSans-4b"/>
      <use xlink:href="#DejaVuSans-75" x="60.576172"/>
      <use xlink:href="#DejaVuSans-62" x="123.955078"/>
      <use xlink:href="#DejaVuSans-65" x="187.431641"/>
      <use xlink:href="#DejaVuSans-56" x="248.955078"/>
      <use xlink:href="#DejaVuSans-69" x="315.113281"/>
      <use xlink:href="#DejaVuSans-72" x="342.896484"/>
      <use xlink:href="#DejaVuSans-74" x="384.009766"/>
      <use xlink:href="#DejaVuSans-20" x="423.21875"/>
     </g>
    </g>
    <g id="line2d_13">
     <path d="M 69.412813 70.559844 
L 85.412813 70.559844 
L 101.412813 70.559844 
" style="fill: none; stroke: #b85741; stroke-width: 2.5; stroke-linecap: square"/>
    </g>
    <g id="text_14">
     <!-- OpenNebula  -->
     <g transform="translate(114.212813 76.159844) scale(0.16 -0.16)">
      <defs>
       <path id="DejaVuSans-4f" d="M 2522 4238 
Q 1834 4238 1429 3725 
Q 1025 3213 1025 2328 
Q 1025 1447 1429 934 
Q 1834 422 2522 422 
Q 3209 422 3611 934 
Q 4013 1447 4013 2328 
Q 4013 3213 3611 3725 
Q 3209 4238 2522 4238 
z
M 2522 4750 
Q 3503 4750 4090 4092 
Q 4678 3434 4678 2328 
Q 4678 1225 4090 567 
Q 3503 -91 2522 -91 
Q 1538 -91 948 565 
Q 359 1222 359 2328 
Q 359 3434 948 4092 
Q 1538 4750 2522 4750 
z
" transform="scale(0.015625)"/>
       <path id="DejaVuSans-70" d="M 1159 525 
L 1159 -1331 
L 581 -1331 
L 581 3500 
L 1159 3500 
L 1159 2969 
Q 1341 3281 1617 3432 
Q 1894 3584 2278 3584 
Q 2916 3584 3314 3078 
Q 3713 2572 3713 1747 
Q 3713 922 3314 415 
Q 2916 -91 2278 -91 
Q 1894 -91 1617 61 
Q 1341 213 1159 525 
z
M 3116 1747 
Q 3116 2381 2855 2742 
Q 2594 3103 2138 3103 
Q 1681 3103 1420 2742 
Q 1159 2381 1159 1747 
Q 1159 1113 1420 752 
Q 1681 391 2138 391 
Q 2594 391 2855 752 
Q 3116 1113 3116 1747 
z
" transform="scale(0.015625)"/>
       <path id="DejaVuSans-4e" d="M 628 4666 
L 1478 4666 
L 3547 763 
L 3547 4666 
L 4159 4666 
L 4159 0 
L 3309 0 
L 1241 3903 
L 1241 0 
L 628 0 
L 628 4666 
z
" transform="scale(0.015625)"/>
      </defs>
      <use xlink:href="#DejaVuSans-4f"/>
      <use xlink:href="#DejaVuSans-70" x="78.710938"/>
      <use xlink:href="#DejaVuSans-65" x="142.1875"/>
      <use xlink:href="#DejaVuSans-6e" x="203.710938"/>
      <use xlink:href="#DejaVuSans-4e" x="267.089844"/>
      <use xlink:href="#DejaVuSans-65" x="341.894531"/>
      <use xlink:href="#DejaVuSans-62" x="403.417969"/>
      <use xlink:href="#DejaVuSans-75" x="466.894531"/>
      <use xlink:href="#DejaVuSans-6c" x="530.273438"/>
      <use xlink:href="#DejaVuSans-61" x="558.056641"/>
      <use xlink:href="#DejaVuSans-20" x="619.335938"/>
     </g>
    </g>
   </g>
  </g>
 </g>
 <defs>
  <clipPath id="p82af54987f">
   <rect x="55.012813" y="26.117344" width="502.2" height="221.76"/>
  </clipPath>
 </defs>
</svg>
