<?xml version="1.0" encoding="utf-8" standalone="no"?>
<!DOCTYPE svg PUBLIC "-//W3C//DTD SVG 1.1//EN"
  "http://www.w3.org/Graphics/SVG/1.1/DTD/svg11.dtd">
<svg xmlns:xlink="http://www.w3.org/1999/xlink" width="555.451562pt" height="287.233281pt" viewBox="0 0 555.451562 287.233281" xmlns="http://www.w3.org/2000/svg" version="1.1">
 <metadata>
  <rdf:RDF xmlns:dc="http://purl.org/dc/elements/1.1/" xmlns:cc="http://creativecommons.org/ns#" xmlns:rdf="http://www.w3.org/1999/02/22-rdf-syntax-ns#">
   <cc:Work>
    <dc:type rdf:resource="http://purl.org/dc/dcmitype/StillImage"/>
    <dc:date>2024-05-21T10:08:15.284338</dc:date>
    <dc:format>image/svg+xml</dc:format>
    <dc:creator>
     <cc:Agent>
      <dc:title>Matplotlib v3.8.4, https://matplotlib.org/</dc:title>
     </cc:Agent>
    </dc:creator>
   </cc:Work>
  </rdf:RDF>
 </metadata>
 <defs>
  <style type="text/css">*{stroke-linejoin: round; stroke-linecap: butt}</style>
 </defs>
 <g id="figure_1">
  <g id="patch_1">
   <path d="M 0 287.233281 
L 555.451562 287.233281 
L 555.451562 0 
L 0 0 
z
" style="fill: #f3f7f8"/>
  </g>
  <g id="axes_1">
   <g id="patch_2">
    <path d="M 46.051562 244.837969 
L 548.251563 244.837969 
L 548.251563 23.077969 
L 46.051562 23.077969 
z
" style="fill: #ffffff"/>
   </g>
   <g id="matplotlib.axis_1">
    <g id="xtick_1">
     <g id="line2d_1">
      <defs>
       <path id="m2fbe1af432" d="M 0 0 
L 0 3.5 
" style="stroke: #000000; stroke-width: 0.8"/>
      </defs>
      <g>
       <use xlink:href="#m2fbe1af432" x="84.375994" y="244.837969" style="stroke: #000000; stroke-width: 0.8"/>
      </g>
     </g>
     <g id="text_1">
      <!-- 0 -->
      <g transform="translate(80.558494 260.956094) scale(0.12 -0.12)">
       <defs>
        <path id="DejaVuSans-30" d="M 2034 4250 
Q 1547 4250 1301 3770 
Q 1056 3291 1056 2328 
Q 1056 1369 1301 889 
Q 1547 409 2034 409 
Q 2525 409 2770 889 
Q 3016 1369 3016 2328 
Q 3016 3291 2770 3770 
Q 2525 4250 2034 4250 
z
M 2034 4750 
Q 2819 4750 3233 4129 
Q 3647 3509 3647 2328 
Q 3647 1150 3233 529 
Q 2819 -91 2034 -91 
Q 1250 -91 836 529 
Q 422 1150 422 2328 
Q 422 3509 836 4129 
Q 1250 4750 2034 4750 
z
" transform="scale(0.015625)"/>
       </defs>
       <use xlink:href="#DejaVuSans-30"/>
      </g>
     </g>
    </g>
    <g id="xtick_2">
     <g id="line2d_2">
      <g>
       <use xlink:href="#m2fbe1af432" x="162.417952" y="244.837969" style="stroke: #000000; stroke-width: 0.8"/>
      </g>
     </g>
     <g id="text_2">
      <!-- 20 -->
      <g transform="translate(154.782952 260.956094) scale(0.12 -0.12)">
       <defs>
        <path id="DejaVuSans-32" d="M 1228 531 
L 3431 531 
L 3431 0 
L 469 0 
L 469 531 
Q 828 903 1448 1529 
Q 2069 2156 2228 2338 
Q 2531 2678 2651 2914 
Q 2772 3150 2772 3378 
Q 2772 3750 2511 3984 
Q 2250 4219 1831 4219 
Q 1534 4219 1204 4116 
Q 875 4013 500 3803 
L 500 4441 
Q 881 4594 1212 4672 
Q 1544 4750 1819 4750 
Q 2544 4750 2975 4387 
Q 3406 4025 3406 3419 
Q 3406 3131 3298 2873 
Q 3191 2616 2906 2266 
Q 2828 2175 2409 1742 
Q 1991 1309 1228 531 
z
" transform="scale(0.015625)"/>
       </defs>
       <use xlink:href="#DejaVuSans-32"/>
       <use xlink:href="#DejaVuSans-30" x="63.623047"/>
      </g>
     </g>
    </g>
    <g id="xtick_3">
     <g id="line2d_3">
      <g>
       <use xlink:href="#m2fbe1af432" x="240.45991" y="244.837969" style="stroke: #000000; stroke-width: 0.8"/>
      </g>
     </g>
     <g id="text_3">
      <!-- 40 -->
      <g transform="translate(232.82491 260.956094) scale(0.12 -0.12)">
       <defs>
        <path id="DejaVuSans-34" d="M 2419 4116 
L 825 1625 
L 2419 1625 
L 2419 4116 
z
M 2253 4666 
L 3047 4666 
L 3047 1625 
L 3713 1625 
L 3713 1100 
L 3047 1100 
L 3047 0 
L 2419 0 
L 2419 1100 
L 313 1100 
L 313 1709 
L 2253 4666 
z
" transform="scale(0.015625)"/>
       </defs>
       <use xlink:href="#DejaVuSans-34"/>
       <use xlink:href="#DejaVuSans-30" x="63.623047"/>
      </g>
     </g>
    </g>
    <g id="xtick_4">
     <g id="line2d_4">
      <g>
       <use xlink:href="#m2fbe1af432" x="318.501868" y="244.837969" style="stroke: #000000; stroke-width: 0.8"/>
      </g>
     </g>
     <g id="text_4">
      <!-- 60 -->
      <g transform="translate(310.866868 260.956094) scale(0.12 -0.12)">
       <defs>
        <path id="DejaVuSans-36" d="M 2113 2584 
Q 1688 2584 1439 2293 
Q 1191 2003 1191 1497 
Q 1191 994 1439 701 
Q 1688 409 2113 409 
Q 2538 409 2786 701 
Q 3034 994 3034 1497 
Q 3034 2003 2786 2293 
Q 2538 2584 2113 2584 
z
M 3366 4563 
L 3366 3988 
Q 3128 4100 2886 4159 
Q 2644 4219 2406 4219 
Q 1781 4219 1451 3797 
Q 1122 3375 1075 2522 
Q 1259 2794 1537 2939 
Q 1816 3084 2150 3084 
Q 2853 3084 3261 2657 
Q 3669 2231 3669 1497 
Q 3669 778 3244 343 
Q 2819 -91 2113 -91 
Q 1303 -91 875 529 
Q 447 1150 447 2328 
Q 447 3434 972 4092 
Q 1497 4750 2381 4750 
Q 2619 4750 2861 4703 
Q 3103 4656 3366 4563 
z
" transform="scale(0.015625)"/>
       </defs>
       <use xlink:href="#DejaVuSans-36"/>
       <use xlink:href="#DejaVuSans-30" x="63.623047"/>
      </g>
     </g>
    </g>
    <g id="xtick_5">
     <g id="line2d_5">
      <g>
       <use xlink:href="#m2fbe1af432" x="396.543826" y="244.837969" style="stroke: #000000; stroke-width: 0.8"/>
      </g>
     </g>
     <g id="text_5">
      <!-- 80 -->
      <g transform="translate(388.908826 260.956094) scale(0.12 -0.12)">
       <defs>
        <path id="DejaVuSans-38" d="M 2034 2216 
Q 1584 2216 1326 1975 
Q 1069 1734 1069 1313 
Q 1069 891 1326 650 
Q 1584 409 2034 409 
Q 2484 409 2743 651 
Q 3003 894 3003 1313 
Q 3003 1734 2745 1975 
Q 2488 2216 2034 2216 
z
M 1403 2484 
Q 997 2584 770 2862 
Q 544 3141 544 3541 
Q 544 4100 942 4425 
Q 1341 4750 2034 4750 
Q 2731 4750 3128 4425 
Q 3525 4100 3525 3541 
Q 3525 3141 3298 2862 
Q 3072 2584 2669 2484 
Q 3125 2378 3379 2068 
Q 3634 1759 3634 1313 
Q 3634 634 3220 271 
Q 2806 -91 2034 -91 
Q 1263 -91 848 271 
Q 434 634 434 1313 
Q 434 1759 690 2068 
Q 947 2378 1403 2484 
z
M 1172 3481 
Q 1172 3119 1398 2916 
Q 1625 2713 2034 2713 
Q 2441 2713 2670 2916 
Q 2900 3119 2900 3481 
Q 2900 3844 2670 4047 
Q 2441 4250 2034 4250 
Q 1625 4250 1398 4047 
Q 1172 3844 1172 3481 
z
" transform="scale(0.015625)"/>
       </defs>
       <use xlink:href="#DejaVuSans-38"/>
       <use xlink:href="#DejaVuSans-30" x="63.623047"/>
      </g>
     </g>
    </g>
    <g id="xtick_6">
     <g id="line2d_6">
      <g>
       <use xlink:href="#m2fbe1af432" x="474.585784" y="244.837969" style="stroke: #000000; stroke-width: 0.8"/>
      </g>
     </g>
     <g id="text_6">
      <!-- 100 -->
      <g transform="translate(463.133284 260.956094) scale(0.12 -0.12)">
       <defs>
        <path id="DejaVuSans-31" d="M 794 531 
L 1825 531 
L 1825 4091 
L 703 3866 
L 703 4441 
L 1819 4666 
L 2450 4666 
L 2450 531 
L 3481 531 
L 3481 0 
L 794 0 
L 794 531 
z
" transform="scale(0.015625)"/>
       </defs>
       <use xlink:href="#DejaVuSans-31"/>
       <use xlink:href="#DejaVuSans-30" x="63.623047"/>
       <use xlink:href="#DejaVuSans-30" x="127.246094"/>
      </g>
     </g>
    </g>
    <g id="text_7">
     <!-- Time (s) -->
     <g transform="translate(270.723984 277.329687) scale(0.13 -0.13)">
      <defs>
       <path id="DejaVuSans-54" d="M -19 4666 
L 3928 4666 
L 3928 4134 
L 2272 4134 
L 2272 0 
L 1638 0 
L 1638 4134 
L -19 4134 
L -19 4666 
z
" transform="scale(0.015625)"/>
       <path id="DejaVuSans-69" d="M 603 3500 
L 1178 3500 
L 1178 0 
L 603 0 
L 603 3500 
z
M 603 4863 
L 1178 4863 
L 1178 4134 
L 603 4134 
L 603 4863 
z
" transform="scale(0.015625)"/>
       <path id="DejaVuSans-6d" d="M 3328 2828 
Q 3544 3216 3844 3400 
Q 4144 3584 4550 3584 
Q 5097 3584 5394 3201 
Q 5691 2819 5691 2113 
L 5691 0 
L 5113 0 
L 5113 2094 
Q 5113 2597 4934 2840 
Q 4756 3084 4391 3084 
Q 3944 3084 3684 2787 
Q 3425 2491 3425 1978 
L 3425 0 
L 2847 0 
L 2847 2094 
Q 2847 2600 2669 2842 
Q 2491 3084 2119 3084 
Q 1678 3084 1418 2786 
Q 1159 2488 1159 1978 
L 1159 0 
L 581 0 
L 581 3500 
L 1159 3500 
L 1159 2956 
Q 1356 3278 1631 3431 
Q 1906 3584 2284 3584 
Q 2666 3584 2933 3390 
Q 3200 3197 3328 2828 
z
" transform="scale(0.015625)"/>
       <path id="DejaVuSans-65" d="M 3597 1894 
L 3597 1613 
L 953 1613 
Q 991 1019 1311 708 
Q 1631 397 2203 397 
Q 2534 397 2845 478 
Q 3156 559 3463 722 
L 3463 178 
Q 3153 47 2828 -22 
Q 2503 -91 2169 -91 
Q 1331 -91 842 396 
Q 353 884 353 1716 
Q 353 2575 817 3079 
Q 1281 3584 2069 3584 
Q 2775 3584 3186 3129 
Q 3597 2675 3597 1894 
z
M 3022 2063 
Q 3016 2534 2758 2815 
Q 2500 3097 2075 3097 
Q 1594 3097 1305 2825 
Q 1016 2553 972 2059 
L 3022 2063 
z
" transform="scale(0.015625)"/>
       <path id="DejaVuSans-20" transform="scale(0.015625)"/>
       <path id="DejaVuSans-28" d="M 1984 4856 
Q 1566 4138 1362 3434 
Q 1159 2731 1159 2009 
Q 1159 1288 1364 580 
Q 1569 -128 1984 -844 
L 1484 -844 
Q 1016 -109 783 600 
Q 550 1309 550 2009 
Q 550 2706 781 3412 
Q 1013 4119 1484 4856 
L 1984 4856 
z
" transform="scale(0.015625)"/>
       <path id="DejaVuSans-73" d="M 2834 3397 
L 2834 2853 
Q 2591 2978 2328 3040 
Q 2066 3103 1784 3103 
Q 1356 3103 1142 2972 
Q 928 2841 928 2578 
Q 928 2378 1081 2264 
Q 1234 2150 1697 2047 
L 1894 2003 
Q 2506 1872 2764 1633 
Q 3022 1394 3022 966 
Q 3022 478 2636 193 
Q 2250 -91 1575 -91 
Q 1294 -91 989 -36 
Q 684 19 347 128 
L 347 722 
Q 666 556 975 473 
Q 1284 391 1588 391 
Q 1994 391 2212 530 
Q 2431 669 2431 922 
Q 2431 1156 2273 1281 
Q 2116 1406 1581 1522 
L 1381 1569 
Q 847 1681 609 1914 
Q 372 2147 372 2553 
Q 372 3047 722 3315 
Q 1072 3584 1716 3584 
Q 2034 3584 2315 3537 
Q 2597 3491 2834 3397 
z
" transform="scale(0.015625)"/>
       <path id="DejaVuSans-29" d="M 513 4856 
L 1013 4856 
Q 1481 4119 1714 3412 
Q 1947 2706 1947 2009 
Q 1947 1309 1714 600 
Q 1481 -109 1013 -844 
L 513 -844 
Q 928 -128 1133 580 
Q 1338 1288 1338 2009 
Q 1338 2731 1133 3434 
Q 928 4138 513 4856 
z
" transform="scale(0.015625)"/>
      </defs>
      <use xlink:href="#DejaVuSans-54"/>
      <use xlink:href="#DejaVuSans-69" x="57.958984"/>
      <use xlink:href="#DejaVuSans-6d" x="85.742188"/>
      <use xlink:href="#DejaVuSans-65" x="183.154297"/>
      <use xlink:href="#DejaVuSans-20" x="244.677734"/>
      <use xlink:href="#DejaVuSans-28" x="276.464844"/>
      <use xlink:href="#DejaVuSans-73" x="315.478516"/>
      <use xlink:href="#DejaVuSans-29" x="367.578125"/>
     </g>
    </g>
   </g>
   <g id="matplotlib.axis_2">
    <g id="ytick_1">
     <g id="line2d_7">
      <defs>
       <path id="m413e1deff5" d="M 0 0 
L -3.5 0 
" style="stroke: #000000; stroke-width: 0.8"/>
      </defs>
      <g>
       <use xlink:href="#m413e1deff5" x="46.051562" y="217.467225" style="stroke: #000000; stroke-width: 0.8"/>
      </g>
     </g>
     <g id="text_8">
      <!-- 9 -->
      <g transform="translate(31.416562 222.026287) scale(0.12 -0.12)">
       <defs>
        <path id="DejaVuSans-39" d="M 703 97 
L 703 672 
Q 941 559 1184 500 
Q 1428 441 1663 441 
Q 2288 441 2617 861 
Q 2947 1281 2994 2138 
Q 2813 1869 2534 1725 
Q 2256 1581 1919 1581 
Q 1219 1581 811 2004 
Q 403 2428 403 3163 
Q 403 3881 828 4315 
Q 1253 4750 1959 4750 
Q 2769 4750 3195 4129 
Q 3622 3509 3622 2328 
Q 3622 1225 3098 567 
Q 2575 -91 1691 -91 
Q 1453 -91 1209 -44 
Q 966 3 703 97 
z
M 1959 2075 
Q 2384 2075 2632 2365 
Q 2881 2656 2881 3163 
Q 2881 3666 2632 3958 
Q 2384 4250 1959 4250 
Q 1534 4250 1286 3958 
Q 1038 3666 1038 3163 
Q 1038 2656 1286 2365 
Q 1534 2075 1959 2075 
z
" transform="scale(0.015625)"/>
       </defs>
       <use xlink:href="#DejaVuSans-39"/>
      </g>
     </g>
    </g>
    <g id="ytick_2">
     <g id="line2d_8">
      <g>
       <use xlink:href="#m413e1deff5" x="46.051562" y="186.895063" style="stroke: #000000; stroke-width: 0.8"/>
      </g>
     </g>
     <g id="text_9">
      <!-- 10 -->
      <g transform="translate(23.781562 191.454126) scale(0.12 -0.12)">
       <use xlink:href="#DejaVuSans-31"/>
       <use xlink:href="#DejaVuSans-30" x="63.623047"/>
      </g>
     </g>
    </g>
    <g id="ytick_3">
     <g id="line2d_9">
      <g>
       <use xlink:href="#m413e1deff5" x="46.051562" y="156.322901" style="stroke: #000000; stroke-width: 0.8"/>
      </g>
     </g>
     <g id="text_10">
      <!-- 11 -->
      <g transform="translate(23.781562 160.881964) scale(0.12 -0.12)">
       <use xlink:href="#DejaVuSans-31"/>
       <use xlink:href="#DejaVuSans-31" x="63.623047"/>
      </g>
     </g>
    </g>
    <g id="ytick_4">
     <g id="line2d_10">
      <g>
       <use xlink:href="#m413e1deff5" x="46.051562" y="125.75074" style="stroke: #000000; stroke-width: 0.8"/>
      </g>
     </g>
     <g id="text_11">
      <!-- 12 -->
      <g transform="translate(23.781562 130.309802) scale(0.12 -0.12)">
       <use xlink:href="#DejaVuSans-31"/>
       <use xlink:href="#DejaVuSans-32" x="63.623047"/>
      </g>
     </g>
    </g>
    <g id="ytick_5">
     <g id="line2d_11">
      <g>
       <use xlink:href="#m413e1deff5" x="46.051562" y="95.178578" style="stroke: #000000; stroke-width: 0.8"/>
      </g>
     </g>
     <g id="text_12">
      <!-- 13 -->
      <g transform="translate(23.781562 99.73764) scale(0.12 -0.12)">
       <defs>
        <path id="DejaVuSans-33" d="M 2597 2516 
Q 3050 2419 3304 2112 
Q 3559 1806 3559 1356 
Q 3559 666 3084 287 
Q 2609 -91 1734 -91 
Q 1441 -91 1130 -33 
Q 819 25 488 141 
L 488 750 
Q 750 597 1062 519 
Q 1375 441 1716 441 
Q 2309 441 2620 675 
Q 2931 909 2931 1356 
Q 2931 1769 2642 2001 
Q 2353 2234 1838 2234 
L 1294 2234 
L 1294 2753 
L 1863 2753 
Q 2328 2753 2575 2939 
Q 2822 3125 2822 3475 
Q 2822 3834 2567 4026 
Q 2313 4219 1838 4219 
Q 1578 4219 1281 4162 
Q 984 4106 628 3988 
L 628 4550 
Q 988 4650 1302 4700 
Q 1616 4750 1894 4750 
Q 2613 4750 3031 4423 
Q 3450 4097 3450 3541 
Q 3450 3153 3228 2886 
Q 3006 2619 2597 2516 
z
" transform="scale(0.015625)"/>
       </defs>
       <use xlink:href="#DejaVuSans-31"/>
       <use xlink:href="#DejaVuSans-33" x="63.623047"/>
      </g>
     </g>
    </g>
    <g id="ytick_6">
     <g id="line2d_12">
      <g>
       <use xlink:href="#m413e1deff5" x="46.051562" y="64.606416" style="stroke: #000000; stroke-width: 0.8"/>
      </g>
     </g>
     <g id="text_13">
      <!-- 14 -->
      <g transform="translate(23.781562 69.165479) scale(0.12 -0.12)">
       <use xlink:href="#DejaVuSans-31"/>
       <use xlink:href="#DejaVuSans-34" x="63.623047"/>
      </g>
     </g>
    </g>
    <g id="ytick_7">
     <g id="line2d_13">
      <g>
       <use xlink:href="#m413e1deff5" x="46.051562" y="34.034254" style="stroke: #000000; stroke-width: 0.8"/>
      </g>
     </g>
     <g id="text_14">
      <!-- 15 -->
      <g transform="translate(23.781562 38.593317) scale(0.12 -0.12)">
       <defs>
        <path id="DejaVuSans-35" d="M 691 4666 
L 3169 4666 
L 3169 4134 
L 1269 4134 
L 1269 2991 
Q 1406 3038 1543 3061 
Q 1681 3084 1819 3084 
Q 2600 3084 3056 2656 
Q 3513 2228 3513 1497 
Q 3513 744 3044 326 
Q 2575 -91 1722 -91 
Q 1428 -91 1123 -41 
Q 819 9 494 109 
L 494 744 
Q 775 591 1075 516 
Q 1375 441 1709 441 
Q 2250 441 2565 725 
Q 2881 1009 2881 1497 
Q 2881 1984 2565 2268 
Q 2250 2553 1709 2553 
Q 1456 2553 1204 2497 
Q 953 2441 691 2322 
L 691 4666 
z
" transform="scale(0.015625)"/>
       </defs>
       <use xlink:href="#DejaVuSans-31"/>
       <use xlink:href="#DejaVuSans-35" x="63.623047"/>
      </g>
     </g>
    </g>
    <g id="text_15">
     <!-- Utilization (%) -->
     <g transform="translate(17.077969 179.839844) rotate(-90) scale(0.13 -0.13)">
      <defs>
       <path id="DejaVuSans-55" d="M 556 4666 
L 1191 4666 
L 1191 1831 
Q 1191 1081 1462 751 
Q 1734 422 2344 422 
Q 2950 422 3222 751 
Q 3494 1081 3494 1831 
L 3494 4666 
L 4128 4666 
L 4128 1753 
Q 4128 841 3676 375 
Q 3225 -91 2344 -91 
Q 1459 -91 1007 375 
Q 556 841 556 1753 
L 556 4666 
z
" transform="scale(0.015625)"/>
       <path id="DejaVuSans-74" d="M 1172 4494 
L 1172 3500 
L 2356 3500 
L 2356 3053 
L 1172 3053 
L 1172 1153 
Q 1172 725 1289 603 
Q 1406 481 1766 481 
L 2356 481 
L 2356 0 
L 1766 0 
Q 1100 0 847 248 
Q 594 497 594 1153 
L 594 3053 
L 172 3053 
L 172 3500 
L 594 3500 
L 594 4494 
L 1172 4494 
z
" transform="scale(0.015625)"/>
       <path id="DejaVuSans-6c" d="M 603 4863 
L 1178 4863 
L 1178 0 
L 603 0 
L 603 4863 
z
" transform="scale(0.015625)"/>
       <path id="DejaVuSans-7a" d="M 353 3500 
L 3084 3500 
L 3084 2975 
L 922 459 
L 3084 459 
L 3084 0 
L 275 0 
L 275 525 
L 2438 3041 
L 353 3041 
L 353 3500 
z
" transform="scale(0.015625)"/>
       <path id="DejaVuSans-61" d="M 2194 1759 
Q 1497 1759 1228 1600 
Q 959 1441 959 1056 
Q 959 750 1161 570 
Q 1363 391 1709 391 
Q 2188 391 2477 730 
Q 2766 1069 2766 1631 
L 2766 1759 
L 2194 1759 
z
M 3341 1997 
L 3341 0 
L 2766 0 
L 2766 531 
Q 2569 213 2275 61 
Q 1981 -91 1556 -91 
Q 1019 -91 701 211 
Q 384 513 384 1019 
Q 384 1609 779 1909 
Q 1175 2209 1959 2209 
L 2766 2209 
L 2766 2266 
Q 2766 2663 2505 2880 
Q 2244 3097 1772 3097 
Q 1472 3097 1187 3025 
Q 903 2953 641 2809 
L 641 3341 
Q 956 3463 1253 3523 
Q 1550 3584 1831 3584 
Q 2591 3584 2966 3190 
Q 3341 2797 3341 1997 
z
" transform="scale(0.015625)"/>
       <path id="DejaVuSans-6f" d="M 1959 3097 
Q 1497 3097 1228 2736 
Q 959 2375 959 1747 
Q 959 1119 1226 758 
Q 1494 397 1959 397 
Q 2419 397 2687 759 
Q 2956 1122 2956 1747 
Q 2956 2369 2687 2733 
Q 2419 3097 1959 3097 
z
M 1959 3584 
Q 2709 3584 3137 3096 
Q 3566 2609 3566 1747 
Q 3566 888 3137 398 
Q 2709 -91 1959 -91 
Q 1206 -91 779 398 
Q 353 888 353 1747 
Q 353 2609 779 3096 
Q 1206 3584 1959 3584 
z
" transform="scale(0.015625)"/>
       <path id="DejaVuSans-6e" d="M 3513 2113 
L 3513 0 
L 2938 0 
L 2938 2094 
Q 2938 2591 2744 2837 
Q 2550 3084 2163 3084 
Q 1697 3084 1428 2787 
Q 1159 2491 1159 1978 
L 1159 0 
L 581 0 
L 581 3500 
L 1159 3500 
L 1159 2956 
Q 1366 3272 1645 3428 
Q 1925 3584 2291 3584 
Q 2894 3584 3203 3211 
Q 3513 2838 3513 2113 
z
" transform="scale(0.015625)"/>
       <path id="DejaVuSans-25" d="M 4653 2053 
Q 4381 2053 4226 1822 
Q 4072 1591 4072 1178 
Q 4072 772 4226 539 
Q 4381 306 4653 306 
Q 4919 306 5073 539 
Q 5228 772 5228 1178 
Q 5228 1588 5073 1820 
Q 4919 2053 4653 2053 
z
M 4653 2450 
Q 5147 2450 5437 2106 
Q 5728 1763 5728 1178 
Q 5728 594 5436 251 
Q 5144 -91 4653 -91 
Q 4153 -91 3862 251 
Q 3572 594 3572 1178 
Q 3572 1766 3864 2108 
Q 4156 2450 4653 2450 
z
M 1428 4353 
Q 1159 4353 1004 4120 
Q 850 3888 850 3481 
Q 850 3069 1003 2837 
Q 1156 2606 1428 2606 
Q 1700 2606 1854 2837 
Q 2009 3069 2009 3481 
Q 2009 3884 1853 4118 
Q 1697 4353 1428 4353 
z
M 4250 4750 
L 4750 4750 
L 1831 -91 
L 1331 -91 
L 4250 4750 
z
M 1428 4750 
Q 1922 4750 2215 4408 
Q 2509 4066 2509 3481 
Q 2509 2891 2217 2550 
Q 1925 2209 1428 2209 
Q 931 2209 642 2551 
Q 353 2894 353 3481 
Q 353 4063 643 4406 
Q 934 4750 1428 4750 
z
" transform="scale(0.015625)"/>
      </defs>
      <use xlink:href="#DejaVuSans-55"/>
      <use xlink:href="#DejaVuSans-74" x="73.193359"/>
      <use xlink:href="#DejaVuSans-69" x="112.402344"/>
      <use xlink:href="#DejaVuSans-6c" x="140.185547"/>
      <use xlink:href="#DejaVuSans-69" x="167.96875"/>
      <use xlink:href="#DejaVuSans-7a" x="195.751953"/>
      <use xlink:href="#DejaVuSans-61" x="248.242188"/>
      <use xlink:href="#DejaVuSans-74" x="309.521484"/>
      <use xlink:href="#DejaVuSans-69" x="348.730469"/>
      <use xlink:href="#DejaVuSans-6f" x="376.513672"/>
      <use xlink:href="#DejaVuSans-6e" x="437.695312"/>
      <use xlink:href="#DejaVuSans-20" x="501.074219"/>
      <use xlink:href="#DejaVuSans-28" x="532.861328"/>
      <use xlink:href="#DejaVuSans-25" x="571.875"/>
      <use xlink:href="#DejaVuSans-29" x="666.894531"/>
     </g>
    </g>
   </g>
   <g id="line2d_14">
    <path d="M 68.878835 85.36404 
L 69.411081 85.819304 
L 70.255171 85.645566 
L 71.544112 86.712622 
L 74.185856 85.614907 
L 75.259003 86.15385 
L 75.306691 85.764274 
L 76.683031 85.639976 
L 77.182234 85.217556 
L 77.215277 85.771873 
L 78.059367 85.651331 
L 79.348308 86.725026 
L 83.063199 86.904441 
L 84.487227 86.630514 
L 85.019473 85.24577 
L 85.244542 85.403697 
L 85.863563 85.151258 
L 87.012985 84.921355 
L 87.141149 85.212402 
L 87.152504 84.018603 
L 92.790626 82.194231 
L 93.048738 81.053191 
L 93.667759 79.320448 
L 93.696346 77.457643 
L 94.769493 76.932238 
L 94.81718 75.971923 
L 94.945345 76.282099 
L 94.9567 73.674993 
L 96.193521 72.069343 
L 96.725767 70.430238 
L 100.594822 67.7688 
L 100.852934 65.038881 
L 101.471955 64.724774 
L 101.500541 61.99599 
L 102.573689 59.613545 
L 102.749541 54.117457 
L 103.997716 53.856633 
L 104.529963 54.038318 
L 106.662994 54.062602 
L 108.399017 52.828622 
L 108.65713 51.580142 
L 109.304737 50.030221 
L 110.377884 48.546073 
L 110.425572 47.481027 
L 111.801912 45.500125 
L 113.178248 44.030303 
L 114.455834 45.087838 
L 114.467189 43.651994 
L 116.236256 43.60535 
L 117.108933 42.571749 
L 118.18208 41.874704 
L 118.229768 41.323356 
L 119.606108 40.248963 
L 120.105311 39.020224 
L 120.363423 39.982461 
L 120.982444 40.726675 
L 122.26003 42.782085 
L 122.271385 43.225556 
L 124.040452 43.414492 
L 124.913129 43.789656 
L 127.909507 41.139836 
L 128.167619 42.098317 
L 128.78664 43.364354 
L 129.888374 44.352883 
L 130.064226 49.312648 
L 131.312402 49.250369 
L 131.844648 50.845973 
L 133.977679 52.733586 
L 135.713703 53.171816 
L 135.971815 55.121097 
L 136.590836 54.99348 
L 136.619423 54.213977 
L 137.69257 53.711284 
L 137.740257 53.456487 
L 137.868422 54.626614 
L 139.116597 55.170711 
L 141.781875 54.960724 
L 143.517899 54.055439 
L 143.550942 55.572604 
L 143.776011 55.564743 
L 144.423618 54.601807 
L 145.496766 56.012669 
L 145.544453 54.398371 
L 146.920793 55.207049 
L 148.29713 55.378689 
L 151.322094 57.696321 
L 151.355137 58.303572 
L 151.580206 57.829005 
L 152.227814 57.424404 
L 153.300961 57.085752 
L 153.348649 56.465661 
L 154.724989 56.554932 
L 156.101325 58.267671 
L 157.378911 60.044263 
L 157.390266 59.653464 
L 159.12629 58.355457 
L 159.159333 59.005159 
L 160.03201 58.045193 
L 161.105157 58.036983 
L 161.152845 57.545557 
L 163.2865 56.844319 
L 163.905521 57.186203 
L 165.183107 58.107561 
L 165.194462 57.941073 
L 166.431283 58.270292 
L 166.963529 58.029995 
L 170.832584 58.581254 
L 171.090696 57.917489 
L 171.709717 58.701359 
L 171.738304 58.977382 
L 172.811451 60.725498 
L 172.859138 59.867644 
L 174.235479 60.588448 
L 176.900756 61.344628 
L 178.63678 62.504187 
L 178.669823 62.682029 
L 178.894892 62.893414 
L 179.5425 62.479729 
L 180.615647 63.252419 
L 180.663334 64.374592 
L 182.039674 64.098394 
L 184.693597 65.534762 
L 184.704952 66.473589 
L 186.440975 67.308995 
L 186.474018 68.306958 
L 186.699088 69.179924 
L 187.346695 68.493448 
L 188.419842 67.972062 
L 188.46753 69.483287 
L 189.84387 69.895837 
L 191.220206 69.810933 
L 192.509147 70.42325 
L 194.245171 70.760243 
L 194.278214 72.094674 
L 195.150891 73.586945 
L 196.224038 73.648439 
L 196.39989 75.19705 
L 197.648066 76.415219 
L 199.024402 78.176525 
L 202.049367 78.355067 
L 202.08241 78.680704 
L 202.955087 79.074823 
L 204.204086 80.576352 
L 204.215441 79.733696 
L 206.828598 81.343277 
L 209.886606 81.422066 
L 210.759283 81.747004 
L 211.880117 81.633975 
L 212.008282 82.312677 
L 213.755661 81.884317 
L 214.013773 81.392542 
L 215.734528 81.139404 
L 215.921735 80.582205 
L 217.158556 80.863556 
L 217.690802 80.766337 
L 218.534892 80.36392 
L 218.563479 81.865799 
L 219.812478 83.112619 
L 221.559857 83.000987 
L 221.817969 83.698207 
L 223.538724 83.334398 
L 223.586411 83.63121 
L 224.962751 83.814905 
L 225.494997 83.670954 
L 226.339088 83.221543 
L 227.616673 83.92182 
L 227.628029 82.534893 
L 229.622164 82.386661 
L 230.269772 82.725838 
L 231.342919 82.592281 
L 231.390607 82.70269 
L 232.766947 82.501001 
L 234.143283 82.526856 
L 235.420869 83.443148 
L 235.432224 81.935766 
L 237.168248 82.869876 
L 237.201291 82.791437 
L 237.42636 82.780343 
L 238.073968 83.13402 
L 239.147115 83.182062 
L 239.194803 82.982993 
L 240.571143 83.31326 
L 241.947479 82.876777 
L 243.225065 82.042506 
L 245.005487 82.010798 
L 245.230556 79.454179 
L 246.951311 73.874236 
L 246.998999 73.437054 
L 247.138518 74.164933 
L 248.375339 74.246867 
L 248.874542 70.095517 
L 249.751675 65.983037 
L 252.809683 62.142737 
L 253.68236 59.95377 
L 254.755507 59.667178 
L 254.931359 54.932511 
L 254.942714 55.359123 
L 256.179535 51.369543 
L 256.93685 50.426436 
L 261.457969 49.913697 
L 262.559703 49.225387 
L 262.74691 47.770064 
L 264.515976 43.603341 
L 264.741046 42.259301 
L 265.388653 41.844917 
L 267.885828 41.515786 
L 268.385031 40.570146 
L 269.262165 39.52318 
L 270.53975 38.39236 
L 270.551105 38.626018 
L 272.320172 38.005753 
L 272.545241 36.939308 
L 273.192849 36.714123 
L 274.265996 37.898313 
L 274.313684 37.484454 
L 275.690024 39.736574 
L 276.189227 41.702539 
L 277.06636 44.474648 
L 278.343946 45.048705 
L 278.355301 41.467832 
L 280.124368 40.953521 
L 280.349437 44.465651 
L 282.070192 47.910172 
L 282.11788 51.167068 
L 283.49422 53.265105 
L 283.993423 52.916233 
L 284.870556 54.796858 
L 284.899143 55.407515 
L 287.928564 54.20533 
L 288.153633 56.453432 
L 289.874388 57.036225 
L 290.05024 57.557873 
L 290.061595 57.240883 
L 291.298416 58.008681 
L 291.797619 57.709249 
L 292.703339 57.618668 
L 296.57685 61.066509 
L 297.726271 61.38149 
L 297.865791 62.456407 
L 299.102611 63.30343 
L 299.634858 63.925094 
L 299.859927 64.918339 
L 301.580682 64.253701 
L 303.503913 64.158315 
L 304.381046 64.413025 
L 305.658631 65.003592 
L 307.664123 65.050324 
L 308.31173 65.448286 
L 309.432565 65.121164 
L 309.572085 68.214281 
L 310.808905 68.231226 
L 311.308108 67.327775 
L 312.185241 68.014513 
L 313.462827 67.642057 
L 315.243249 67.972586 
L 317.189073 68.666574 
L 317.37628 70.407527 
L 318.613101 71.749558 
L 319.112304 71.841711 
L 319.370416 72.3976 
L 319.989437 71.688763 
L 321.267023 72.743241 
L 323.047445 72.64209 
L 325.040957 72.315056 
L 325.180476 72.739572 
L 326.417297 73.836501 
L 326.9165 73.942543 
L 327.174612 74.45039 
L 327.82222 73.942805 
L 328.895367 73.325072 
L 331.695731 72.528362 
L 334.720696 73.41775 
L 334.753739 73.954335 
L 334.978808 73.994341 
L 336.699563 73.921142 
L 336.74725 74.132178 
L 338.12359 74.380161 
L 339.499927 74.9944 
L 342.557935 75.188402 
L 343.430611 76.305771 
L 344.503759 75.490804 
L 344.551446 75.681575 
L 344.690966 75.575533 
L 346.426989 75.991751 
L 347.304123 75.567584 
L 348.581708 75.804737 
L 350.36213 75.22404 
L 350.587199 74.980337 
L 352.307954 73.504662 
L 352.355642 73.625378 
L 352.495161 72.684367 
L 353.731982 72.563127 
L 354.231185 73.05036 
L 355.136905 72.430356 
L 356.385904 72.670566 
L 358.166326 72.204384 
L 359.010416 72.30073 
L 360.159838 71.639935 
L 360.299357 71.823717 
L 361.536178 71.201617 
L 362.035381 70.160068 
L 362.293493 70.492256 
L 366.814612 70.619786 
L 367.916346 69.778352 
L 367.964034 69.350517 
L 368.092198 69.252511 
L 368.103553 69.38074 
L 369.340374 68.960154 
L 369.87262 67.589036 
L 370.097689 67.688439 
L 370.745297 67.314149 
L 373.741675 66.629594 
L 374.618808 67.256673 
L 375.896394 68.031983 
L 377.676816 67.774478 
L 377.901885 65.984172 
L 378.549493 64.462465 
L 379.62264 64.731325 
L 379.670327 64.623886 
L 379.809847 64.976689 
L 381.046667 66.018763 
L 381.545871 65.311672 
L 382.423004 65.731122 
L 383.70059 64.963412 
L 385.481011 65.423654 
L 385.706081 64.063542 
L 387.426835 62.895423 
L 387.474523 60.664966 
L 387.614043 61.441149 
L 388.850863 59.750771 
L 389.350066 58.828452 
L 390.227199 57.609846 
L 390.255786 56.439805 
L 391.504785 55.109043 
L 393.285207 54.758948 
L 393.510276 53.294017 
L 395.231031 51.733003 
L 395.278719 49.943134 
L 395.418238 50.680709 
L 398.031395 49.637587 
L 398.059982 47.896196 
L 400.557157 45.190298 
L 401.05636 44.119224 
L 401.089403 42.288913 
L 401.314472 41.825002 
L 403.035227 40.593468 
L 403.082915 39.497762 
L 403.222434 39.292229 
L 405.864178 38.110484 
L 407.113177 38.857581 
L 408.361353 38.925975 
L 408.860556 37.825901 
L 408.893599 36.216408 
L 409.118668 36.165571 
L 409.737689 34.964958 
L 410.839423 34.800218 
L 410.88711 33.731066 
L 411.02663 34.070854 
L 413.668374 33.157969 
L 417.541885 34.149468 
L 418.691306 36.101282 
L 418.819471 38.053183 
L 420.067646 36.022231 
L 420.56685 36.472166 
L 420.599893 37.206509 
L 420.824962 38.956285 
L 421.472569 40.898141 
L 422.732924 40.472489 
L 425.346081 42.172214 
L 426.495502 44.188405 
L 426.623666 46.154282 
L 428.371045 45.561881 
L 428.404088 47.287548 
L 428.629157 49.224339 
L 429.276765 50.501731 
L 430.349912 51.893114 
L 430.537119 52.42009 
L 431.77394 52.257883 
L 433.150276 53.114428 
L 434.427862 55.354494 
L 436.175241 56.120807 
L 436.208284 55.972663 
L 436.433353 57.44563 
L 438.154108 60.140697 
L 438.201796 61.558896 
L 438.341315 61.990487 
L 439.578136 60.294606 
L 440.954472 61.445779 
L 443.979437 62.85795 
L 444.01248 63.938371 
L 444.237549 64.911089 
L 444.885157 65.729637 
L 446.005992 66.329026 
L 446.134156 66.315575 
L 446.145511 67.582922 
L 447.382332 67.080141 
L 451.783633 68.028489 
L 451.816676 67.903842 
L 452.660766 67.938607 
L 452.689353 69.619115 
L 453.7625 71.172792 
L 453.810187 71.031199 
L 453.938352 71.180217 
L 453.949707 70.885589 
L 455.186528 69.554127 
L 459.587829 69.408517 
L 459.620872 69.28649 
L 460.464962 69.325186 
L 461.566696 69.715024 
L 461.753903 71.432481 
L 466.892821 71.832452 
L 468.269158 71.761525 
L 469.558098 71.553023 
L 473.272989 72.101225 
L 474.697017 70.64765 
L 477.362294 70.628346 
L 482.501213 69.328417 
L 485.16649 69.443893 
L 490.305409 69.251026 
L 498.109604 70.473738 
L 505.9138 71.950985 
L 513.717996 71.639673 
L 525.42429 71.945831 
L 525.42429 71.945831 
" clip-path="url(#p8d2767d4fb)" style="fill: none; stroke: #009384; stroke-opacity: 0.4; stroke-width: 2.5; stroke-linecap: square"/>
   </g>
   <g id="line2d_15">
    <path d="M 68.9724 234.074088 
L 69.142301 234.175856 
L 69.547116 234.103771 
L 75.148734 234.299701 
L 77.351312 234.090727 
L 79.422994 234.283998 
L 80.324441 234.260087 
L 80.568412 234.371009 
L 84.580791 234.103354 
L 84.750693 233.344516 
L 85.155508 232.299328 
L 86.855028 232.188703 
L 86.922046 231.11045 
L 87.196707 230.153829 
L 87.22719 229.05703 
L 88.128637 227.942591 
L 88.372608 226.733897 
L 92.384987 225.067714 
L 92.959704 224.14651 
L 94.659223 222.542667 
L 94.726242 221.528144 
L 95.000903 220.789187 
L 95.031386 219.679704 
L 95.419742 217.656059 
L 95.932833 216.402665 
L 96.176804 214.579453 
L 96.456986 213.512836 
L 102.463419 212.335558 
L 102.530438 210.992597 
L 102.805099 209.780123 
L 102.835582 208.664703 
L 103.223938 207.432663 
L 103.737029 206.199836 
L 103.981 205.18888 
L 104.261182 202.915284 
L 104.665997 201.727787 
L 110.267615 200.511376 
L 110.609294 199.081433 
L 110.639778 197.302346 
L 111.028134 195.97771 
L 111.785196 194.279241 
L 112.065378 191.881225 
L 112.470193 191.291127 
L 114.236731 190.434606 
L 118.83233 187.92579 
L 119.699672 185.340561 
L 119.869574 182.504891 
L 120.274389 180.106274 
L 121.973909 177.442605 
L 122.040927 174.971262 
L 122.315588 172.025885 
L 122.346071 168.914231 
L 123.247518 166.216294 
L 123.491489 164.474144 
L 127.503868 161.105657 
L 128.078585 158.578729 
L 129.778105 155.364066 
L 129.845123 151.979246 
L 130.119784 148.659452 
L 130.150267 145.078757 
L 130.538623 141.753608 
L 131.051714 138.577642 
L 131.575867 131.239582 
L 137.5823 129.109323 
L 137.649319 126.693733 
L 137.954463 125.256768 
L 138.85591 123.238542 
L 139.784879 118.687366 
L 141.826078 117.37721 
L 145.386496 116.488949 
L 146.147015 114.986189 
L 147.184259 113.482224 
L 147.589074 113.748294 
L 149.355613 113.809438 
L 149.660757 115.547142 
L 150.562204 116.644034 
L 150.806175 117.202485 
L 154.818554 118.710805 
L 154.988455 121.756876 
L 157.09279 123.697282 
L 157.159808 127.553126 
L 157.434469 131.009012 
L 157.464952 134.380659 
L 158.61037 144.668136 
L 159.295368 147.799309 
L 162.622749 150.223866 
L 164.896986 153.832289 
L 164.964004 156.752116 
L 165.238665 157.32011 
L 165.269148 157.206159 
L 165.657505 158.953404 
L 166.170595 160.222056 
L 166.694749 162.190487 
L 167.099564 162.971466 
L 170.426945 164.863578 
L 172.701181 166.858254 
L 173.073344 168.679762 
L 173.4617 169.897182 
L 173.974791 172.1773 
L 174.90376 179.576301 
L 176.670298 182.125389 
L 176.944959 183.379941 
L 180.505377 185.787619 
L 181.265896 190.46805 
L 182.30314 191.617508 
L 182.707955 192.895081 
L 184.474494 192.99534 
L 184.749155 192.69173 
L 185.925056 193.165997 
L 188.309573 193.44954 
L 188.681736 194.569676 
L 189.070092 195.220891 
L 189.937435 195.558575 
L 190.107336 196.098062 
L 192.27869 196.921741 
L 192.55335 197.894232 
L 193.485281 199.690087 
L 193.729252 200.565146 
L 194.414249 201.352638 
L 197.741631 202.361158 
L 197.911532 203.7463 
L 200.015867 204.906587 
L 200.082885 205.952702 
L 200.357546 205.988462 
L 200.388029 205.837139 
L 200.776386 206.956682 
L 201.289476 207.697511 
L 201.533447 207.436054 
L 202.218445 207.614753 
L 205.545826 206.829058 
L 207.820063 208.188954 
L 208.192225 209.942517 
L 208.580581 209.115142 
L 209.093672 208.717982 
L 209.337643 209.984031 
L 209.617825 210.645381 
L 210.022641 210.926135 
L 211.789179 209.778317 
L 215.624258 209.281093 
L 215.965938 207.954799 
L 215.996421 207.248396 
L 216.384777 206.412841 
L 217.25212 205.860754 
L 217.422021 204.78113 
L 217.826837 204.952798 
L 219.593375 204.426641 
L 220.799966 203.563404 
L 221.043937 202.760542 
L 224.188973 201.866825 
L 225.056316 200.700127 
L 225.226217 200.190146 
L 225.631032 198.531412 
L 227.330552 197.45403 
L 227.397571 196.189149 
L 227.672232 194.964085 
L 227.702715 195.415052 
L 228.604162 195.242347 
L 228.848133 193.945022 
L 233.030413 193.638735 
L 235.201766 192.955346 
L 235.476427 190.938593 
L 235.506911 189.343745 
L 235.895267 188.930419 
L 236.408358 188.97183 
L 236.652328 189.127776 
L 237.337326 188.234921 
L 240.834609 186.906699 
L 242.938944 185.695875 
L 243.280623 186.131194 
L 243.311106 186.522416 
L 243.699463 187.069723 
L 244.212553 188.083514 
L 244.456524 188.047504 
L 244.566805 187.402376 
L 245.141522 187.385051 
L 246.90806 188.164586 
L 250.74314 188.516907 
L 251.084819 189.698604 
L 251.115302 190.323314 
L 251.503658 189.952761 
L 252.016749 190.379196 
L 252.371001 190.52333 
L 252.540902 191.379712 
L 252.945718 192.309903 
L 254.712256 192.799242 
L 256.162818 192.907579 
L 258.919498 192.10355 
L 259.307854 192.497829 
L 260.175197 192.101419 
L 260.345098 192.260635 
L 260.749914 192.205512 
L 262.449433 192.531949 
L 262.516452 192.956624 
L 263.723043 193.422201 
L 263.967014 193.153583 
L 267.979393 193.525016 
L 268.149294 192.317481 
L 268.554109 192.168863 
L 270.253629 192.510734 
L 270.320648 192.92356 
L 270.595308 193.071659 
L 270.625792 193.006577 
L 271.527239 192.921346 
L 271.77121 193.179532 
L 275.783589 193.351848 
L 278.057825 194.050172 
L 278.124843 192.445282 
L 278.429987 191.38805 
L 278.818344 190.817814 
L 279.331434 191.240498 
L 279.575405 191.704481 
L 279.855588 190.821566 
L 280.260403 191.087377 
L 285.862021 190.58353 
L 285.929039 191.884199 
L 286.2037 191.310415 
L 286.234183 191.658382 
L 286.62254 192.181527 
L 287.13563 192.636395 
L 287.379601 192.629873 
L 287.489882 192.773515 
L 287.659783 192.655766 
L 288.064599 192.527484 
L 294.038379 192.834613 
L 294.426735 193.10489 
L 294.939826 193.620577 
L 295.294078 193.090104 
L 295.463979 194.55351 
L 295.868795 194.68598 
L 297.635333 193.985118 
L 297.909994 194.033644 
L 299.085895 194.120219 
L 301.842575 194.149652 
L 302.230931 194.971552 
L 303.098274 195.262793 
L 303.67299 195.617153 
L 305.37251 195.300425 
L 305.439529 196.720567 
L 305.71419 197.954765 
L 306.64612 198.766882 
L 307.170273 200.118941 
L 310.035127 201.322835 
L 311.477186 202.254916 
L 313.176706 201.667031 
L 313.243725 202.335154 
L 313.518385 201.556054 
L 313.548869 202.318117 
L 314.450316 201.883436 
L 314.694286 200.918106 
L 314.974469 201.619598 
L 320.980902 201.445226 
L 321.04792 203.198363 
L 321.322581 202.987332 
L 321.353064 203.747254 
L 321.741421 203.313546 
L 322.254511 203.337596 
L 322.608763 202.885749 
L 322.778665 204.58281 
L 323.18348 203.922525 
L 326.40058 204.470619 
L 328.785098 205.244604 
L 328.852116 204.574444 
L 329.126777 204.544372 
L 329.15726 205.399707 
L 330.058707 201.292606 
L 330.412959 202.140363 
L 330.58286 201.90505 
L 330.987676 202.001028 
L 334.204776 202.105807 
L 336.961456 200.847457 
L 337.349812 197.867366 
L 338.217155 195.599347 
L 338.387056 194.425144 
L 338.791872 194.610699 
L 340.491391 194.753211 
L 340.55841 193.817722 
L 340.833071 194.889591 
L 341.765001 192.572981 
L 342.008972 192.740896 
L 345.154008 190.670605 
L 346.596067 191.193972 
L 348.295587 191.467778 
L 348.362606 188.76456 
L 348.637266 187.147237 
L 348.66775 187.657014 
L 349.569197 184.258325 
L 349.923449 181.78652 
L 350.09335 178.943976 
L 353.715265 179.769072 
L 354.400263 178.651076 
L 356.099783 178.97956 
L 356.166801 175.544574 
L 356.441462 175.093912 
L 356.471945 172.911245 
L 357.897546 165.681309 
L 361.519461 163.716927 
L 363.970997 161.768368 
L 364.245658 159.053264 
L 364.276141 156.211619 
L 364.664498 154.566605 
L 365.177588 154.957002 
L 365.53184 154.318785 
L 365.701742 152.737482 
L 366.106557 151.086038 
L 367.806077 150.650459 
L 369.323657 148.63177 
L 372.468693 143.917283 
L 373.336036 141.484082 
L 373.505937 142.308882 
L 373.910753 139.239381 
L 375.610272 136.192902 
L 375.677291 137.030024 
L 375.982435 134.940277 
L 376.883882 133.009266 
L 383.414468 132.180389 
L 383.481487 128.873843 
L 383.756148 125.670483 
L 383.786631 123.295424 
L 384.174987 126.627308 
L 384.688078 126.853542 
L 385.04233 127.899666 
L 385.212231 126.745984 
L 391.285683 128.932449 
L 391.560343 129.87296 
L 391.590827 128.606346 
L 393.016427 139.240252 
L 393.421242 138.596662 
L 395.120762 138.636869 
L 396.638342 137.463639 
L 399.364539 136.081407 
L 399.783379 137.658671 
L 400.296469 141.292218 
L 400.820623 147.786135 
L 401.225438 148.143922 
L 402.924958 147.780576 
L 402.991976 150.725454 
L 403.29712 152.525718 
L 407.587575 155.674308 
L 408.100665 159.473891 
L 408.344636 158.573402 
L 408.454917 163.116369 
L 409.029634 164.223081 
L 410.729154 163.756069 
L 410.796172 165.8246 
L 411.070833 168.71781 
L 411.101316 172.207289 
L 412.526916 173.128854 
L 415.39177 174.326588 
L 415.904861 177.170651 
L 416.148832 179.679144 
L 416.83383 180.934122 
L 418.533349 183.056821 
L 418.600368 185.766135 
L 418.905512 187.991964 
L 420.161211 187.914608 
L 420.331112 188.791677 
L 423.195966 190.118036 
L 423.709057 194.198225 
L 423.953028 197.68925 
L 424.638025 201.707748 
L 426.404564 205.453903 
L 426.679225 205.566242 
L 426.709708 205.443926 
L 427.965407 205.433985 
L 428.135308 207.04221 
L 430.239643 209.758501 
L 431.000162 213.306381 
L 431.757224 213.557888 
L 434.48342 214.897283 
L 434.513904 214.772613 
L 435.769603 218.701451 
L 435.939504 218.760288 
L 436.344319 221.751543 
L 438.043839 226.258704 
L 442.012955 227.672472 
L 442.318099 229.144327 
L 443.463517 229.133182 
L 443.7437 229.277862 
L 444.148515 229.259176 
L 445.848035 230.992905 
L 449.817151 231.789495 
L 451.267713 232.621086 
L 451.952711 232.754195 
L 453.65223 234.526556 
L 453.99391 234.597687 
L 469.260622 234.671598 
L 469.260622 234.671598 
" clip-path="url(#p8d2767d4fb)" style="fill: none; stroke: #b85741; stroke-opacity: 0.4; stroke-width: 2.5; stroke-linecap: square"/>
   </g>
   <g id="line2d_16">
    <path d="M 72.6697 82.949713 
L 72.6697 37.09147 
" clip-path="url(#p8d2767d4fb)" style="fill: none; stroke-dasharray: 14.8,6.4; stroke-dashoffset: 0; stroke: #009384; stroke-width: 4"/>
   </g>
   <g id="line2d_17">
    <path d="M 72.6697 229.69609 
L 72.6697 107.407443 
" clip-path="url(#p8d2767d4fb)" style="fill: none; stroke-dasharray: 14.8,6.4; stroke-dashoffset: 0; stroke: #b85741; stroke-width: 4"/>
   </g>
   <g id="patch_3">
    <path d="M 46.051562 244.837969 
L 46.051562 23.077969 
" style="fill: none; stroke: #000000; stroke-width: 0.8; stroke-linejoin: miter; stroke-linecap: square"/>
   </g>
   <g id="patch_4">
    <path d="M 548.251563 244.837969 
L 548.251563 23.077969 
" style="fill: none; stroke: #000000; stroke-width: 0.8; stroke-linejoin: miter; stroke-linecap: square"/>
   </g>
   <g id="patch_5">
    <path d="M 46.051562 244.837969 
L 548.251563 244.837969 
" style="fill: none; stroke: #000000; stroke-width: 0.8; stroke-linejoin: miter; stroke-linecap: square"/>
   </g>
   <g id="patch_6">
    <path d="M 46.051562 23.077969 
L 548.251563 23.077969 
" style="fill: none; stroke: #000000; stroke-width: 0.8; stroke-linejoin: miter; stroke-linecap: square"/>
   </g>
   <g id="text_16">
    <!-- Live Migrate Many (RAM) -->
    <g transform="translate(215.995 17.077969) scale(0.13 -0.13)">
     <defs>
      <path id="DejaVuSans-4c" d="M 628 4666 
L 1259 4666 
L 1259 531 
L 3531 531 
L 3531 0 
L 628 0 
L 628 4666 
z
" transform="scale(0.015625)"/>
      <path id="DejaVuSans-76" d="M 191 3500 
L 800 3500 
L 1894 563 
L 2988 3500 
L 3597 3500 
L 2284 0 
L 1503 0 
L 191 3500 
z
" transform="scale(0.015625)"/>
      <path id="DejaVuSans-4d" d="M 628 4666 
L 1569 4666 
L 2759 1491 
L 3956 4666 
L 4897 4666 
L 4897 0 
L 4281 0 
L 4281 4097 
L 3078 897 
L 2444 897 
L 1241 4097 
L 1241 0 
L 628 0 
L 628 4666 
z
" transform="scale(0.015625)"/>
      <path id="DejaVuSans-67" d="M 2906 1791 
Q 2906 2416 2648 2759 
Q 2391 3103 1925 3103 
Q 1463 3103 1205 2759 
Q 947 2416 947 1791 
Q 947 1169 1205 825 
Q 1463 481 1925 481 
Q 2391 481 2648 825 
Q 2906 1169 2906 1791 
z
M 3481 434 
Q 3481 -459 3084 -895 
Q 2688 -1331 1869 -1331 
Q 1566 -1331 1297 -1286 
Q 1028 -1241 775 -1147 
L 775 -588 
Q 1028 -725 1275 -790 
Q 1522 -856 1778 -856 
Q 2344 -856 2625 -561 
Q 2906 -266 2906 331 
L 2906 616 
Q 2728 306 2450 153 
Q 2172 0 1784 0 
Q 1141 0 747 490 
Q 353 981 353 1791 
Q 353 2603 747 3093 
Q 1141 3584 1784 3584 
Q 2172 3584 2450 3431 
Q 2728 3278 2906 2969 
L 2906 3500 
L 3481 3500 
L 3481 434 
z
" transform="scale(0.015625)"/>
      <path id="DejaVuSans-72" d="M 2631 2963 
Q 2534 3019 2420 3045 
Q 2306 3072 2169 3072 
Q 1681 3072 1420 2755 
Q 1159 2438 1159 1844 
L 1159 0 
L 581 0 
L 581 3500 
L 1159 3500 
L 1159 2956 
Q 1341 3275 1631 3429 
Q 1922 3584 2338 3584 
Q 2397 3584 2469 3576 
Q 2541 3569 2628 3553 
L 2631 2963 
z
" transform="scale(0.015625)"/>
      <path id="DejaVuSans-79" d="M 2059 -325 
Q 1816 -950 1584 -1140 
Q 1353 -1331 966 -1331 
L 506 -1331 
L 506 -850 
L 844 -850 
Q 1081 -850 1212 -737 
Q 1344 -625 1503 -206 
L 1606 56 
L 191 3500 
L 800 3500 
L 1894 763 
L 2988 3500 
L 3597 3500 
L 2059 -325 
z
" transform="scale(0.015625)"/>
      <path id="DejaVuSans-52" d="M 2841 2188 
Q 3044 2119 3236 1894 
Q 3428 1669 3622 1275 
L 4263 0 
L 3584 0 
L 2988 1197 
Q 2756 1666 2539 1819 
Q 2322 1972 1947 1972 
L 1259 1972 
L 1259 0 
L 628 0 
L 628 4666 
L 2053 4666 
Q 2853 4666 3247 4331 
Q 3641 3997 3641 3322 
Q 3641 2881 3436 2590 
Q 3231 2300 2841 2188 
z
M 1259 4147 
L 1259 2491 
L 2053 2491 
Q 2509 2491 2742 2702 
Q 2975 2913 2975 3322 
Q 2975 3731 2742 3939 
Q 2509 4147 2053 4147 
L 1259 4147 
z
" transform="scale(0.015625)"/>
      <path id="DejaVuSans-41" d="M 2188 4044 
L 1331 1722 
L 3047 1722 
L 2188 4044 
z
M 1831 4666 
L 2547 4666 
L 4325 0 
L 3669 0 
L 3244 1197 
L 1141 1197 
L 716 0 
L 50 0 
L 1831 4666 
z
" transform="scale(0.015625)"/>
     </defs>
     <use xlink:href="#DejaVuSans-4c"/>
     <use xlink:href="#DejaVuSans-69" x="55.712891"/>
     <use xlink:href="#DejaVuSans-76" x="83.496094"/>
     <use xlink:href="#DejaVuSans-65" x="142.675781"/>
     <use xlink:href="#DejaVuSans-20" x="204.199219"/>
     <use xlink:href="#DejaVuSans-4d" x="235.986328"/>
     <use xlink:href="#DejaVuSans-69" x="322.265625"/>
     <use xlink:href="#DejaVuSans-67" x="350.048828"/>
     <use xlink:href="#DejaVuSans-72" x="413.525391"/>
     <use xlink:href="#DejaVuSans-61" x="454.638672"/>
     <use xlink:href="#DejaVuSans-74" x="515.917969"/>
     <use xlink:href="#DejaVuSans-65" x="555.126953"/>
     <use xlink:href="#DejaVuSans-20" x="616.650391"/>
     <use xlink:href="#DejaVuSans-4d" x="648.4375"/>
     <use xlink:href="#DejaVuSans-61" x="734.716797"/>
     <use xlink:href="#DejaVuSans-6e" x="795.996094"/>
     <use xlink:href="#DejaVuSans-79" x="859.375"/>
     <use xlink:href="#DejaVuSans-20" x="918.554688"/>
     <use xlink:href="#DejaVuSans-28" x="950.341797"/>
     <use xlink:href="#DejaVuSans-52" x="989.355469"/>
     <use xlink:href="#DejaVuSans-41" x="1054.837891"/>
     <use xlink:href="#DejaVuSans-4d" x="1123.246094"/>
     <use xlink:href="#DejaVuSans-29" x="1209.525391"/>
    </g>
   </g>
   <g id="legend_1">
    <g id="patch_7">
     <path d="M 423.312813 153.371719 
L 539.851563 153.371719 
Q 542.251563 153.371719 542.251563 150.971719 
L 542.251563 116.944219 
Q 542.251563 114.544219 539.851563 114.544219 
L 423.312813 114.544219 
Q 420.912813 114.544219 420.912813 116.944219 
L 420.912813 150.971719 
Q 420.912813 153.371719 423.312813 153.371719 
z
" style="fill: #ffffff; opacity: 0.8; stroke: #cccccc; stroke-linejoin: miter"/>
    </g>
    <g id="line2d_18">
     <path d="M 425.712813 124.262344 
L 437.712813 124.262344 
L 449.712813 124.262344 
" style="fill: none; stroke: #009384; stroke-opacity: 0.4; stroke-width: 2.5; stroke-linecap: square"/>
    </g>
    <g id="text_17">
     <!-- KubeVirt  -->
     <g transform="translate(459.312813 128.462344) scale(0.12 -0.12)">
      <defs>
       <path id="DejaVuSans-4b" d="M 628 4666 
L 1259 4666 
L 1259 2694 
L 3353 4666 
L 4166 4666 
L 1850 2491 
L 4331 0 
L 3500 0 
L 1259 2247 
L 1259 0 
L 628 0 
L 628 4666 
z
" transform="scale(0.015625)"/>
       <path id="DejaVuSans-75" d="M 544 1381 
L 544 3500 
L 1119 3500 
L 1119 1403 
Q 1119 906 1312 657 
Q 1506 409 1894 409 
Q 2359 409 2629 706 
Q 2900 1003 2900 1516 
L 2900 3500 
L 3475 3500 
L 3475 0 
L 2900 0 
L 2900 538 
Q 2691 219 2414 64 
Q 2138 -91 1772 -91 
Q 1169 -91 856 284 
Q 544 659 544 1381 
z
M 1991 3584 
L 1991 3584 
z
" transform="scale(0.015625)"/>
       <path id="DejaVuSans-62" d="M 3116 1747 
Q 3116 2381 2855 2742 
Q 2594 3103 2138 3103 
Q 1681 3103 1420 2742 
Q 1159 2381 1159 1747 
Q 1159 1113 1420 752 
Q 1681 391 2138 391 
Q 2594 391 2855 752 
Q 3116 1113 3116 1747 
z
M 1159 2969 
Q 1341 3281 1617 3432 
Q 1894 3584 2278 3584 
Q 2916 3584 3314 3078 
Q 3713 2572 3713 1747 
Q 3713 922 3314 415 
Q 2916 -91 2278 -91 
Q 1894 -91 1617 61 
Q 1341 213 1159 525 
L 1159 0 
L 581 0 
L 581 4863 
L 1159 4863 
L 1159 2969 
z
" transform="scale(0.015625)"/>
       <path id="DejaVuSans-56" d="M 1831 0 
L 50 4666 
L 709 4666 
L 2188 738 
L 3669 4666 
L 4325 4666 
L 2547 0 
L 1831 0 
z
" transform="scale(0.015625)"/>
      </defs>
      <use xlink:href="#DejaVuSans-4b"/>
      <use xlink:href="#DejaVuSans-75" x="60.576172"/>
      <use xlink:href="#DejaVuSans-62" x="123.955078"/>
      <use xlink:href="#DejaVuSans-65" x="187.431641"/>
      <use xlink:href="#DejaVuSans-56" x="248.955078"/>
      <use xlink:href="#DejaVuSans-69" x="315.113281"/>
      <use xlink:href="#DejaVuSans-72" x="342.896484"/>
      <use xlink:href="#DejaVuSans-74" x="384.009766"/>
      <use xlink:href="#DejaVuSans-20" x="423.21875"/>
     </g>
    </g>
    <g id="line2d_19">
     <path d="M 425.712813 141.876094 
L 437.712813 141.876094 
L 449.712813 141.876094 
" style="fill: none; stroke: #b85741; stroke-opacity: 0.4; stroke-width: 2.5; stroke-linecap: square"/>
    </g>
    <g id="text_18">
     <!-- OpenNebula  -->
     <g transform="translate(459.312813 146.076094) scale(0.12 -0.12)">
      <defs>
       <path id="DejaVuSans-4f" d="M 2522 4238 
Q 1834 4238 1429 3725 
Q 1025 3213 1025 2328 
Q 1025 1447 1429 934 
Q 1834 422 2522 422 
Q 3209 422 3611 934 
Q 4013 1447 4013 2328 
Q 4013 3213 3611 3725 
Q 3209 4238 2522 4238 
z
M 2522 4750 
Q 3503 4750 4090 4092 
Q 4678 3434 4678 2328 
Q 4678 1225 4090 567 
Q 3503 -91 2522 -91 
Q 1538 -91 948 565 
Q 359 1222 359 2328 
Q 359 3434 948 4092 
Q 1538 4750 2522 4750 
z
" transform="scale(0.015625)"/>
       <path id="DejaVuSans-70" d="M 1159 525 
L 1159 -1331 
L 581 -1331 
L 581 3500 
L 1159 3500 
L 1159 2969 
Q 1341 3281 1617 3432 
Q 1894 3584 2278 3584 
Q 2916 3584 3314 3078 
Q 3713 2572 3713 1747 
Q 3713 922 3314 415 
Q 2916 -91 2278 -91 
Q 1894 -91 1617 61 
Q 1341 213 1159 525 
z
M 3116 1747 
Q 3116 2381 2855 2742 
Q 2594 3103 2138 3103 
Q 1681 3103 1420 2742 
Q 1159 2381 1159 1747 
Q 1159 1113 1420 752 
Q 1681 391 2138 391 
Q 2594 391 2855 752 
Q 3116 1113 3116 1747 
z
" transform="scale(0.015625)"/>
       <path id="DejaVuSans-4e" d="M 628 4666 
L 1478 4666 
L 3547 763 
L 3547 4666 
L 4159 4666 
L 4159 0 
L 3309 0 
L 1241 3903 
L 1241 0 
L 628 0 
L 628 4666 
z
" transform="scale(0.015625)"/>
      </defs>
      <use xlink:href="#DejaVuSans-4f"/>
      <use xlink:href="#DejaVuSans-70" x="78.710938"/>
      <use xlink:href="#DejaVuSans-65" x="142.1875"/>
      <use xlink:href="#DejaVuSans-6e" x="203.710938"/>
      <use xlink:href="#DejaVuSans-4e" x="267.089844"/>
      <use xlink:href="#DejaVuSans-65" x="341.894531"/>
      <use xlink:href="#DejaVuSans-62" x="403.417969"/>
      <use xlink:href="#DejaVuSans-75" x="466.894531"/>
      <use xlink:href="#DejaVuSans-6c" x="530.273438"/>
      <use xlink:href="#DejaVuSans-61" x="558.056641"/>
      <use xlink:href="#DejaVuSans-20" x="619.335938"/>
     </g>
    </g>
   </g>
  </g>
 </g>
 <defs>
  <clipPath id="p8d2767d4fb">
   <rect x="46.051562" y="23.077969" width="502.2" height="221.76"/>
  </clipPath>
 </defs>
</svg>
