<?xml version="1.0" encoding="utf-8" standalone="no"?>
<!DOCTYPE svg PUBLIC "-//W3C//DTD SVG 1.1//EN"
  "http://www.w3.org/Graphics/SVG/1.1/DTD/svg11.dtd">
<svg xmlns:xlink="http://www.w3.org/1999/xlink" width="564.412812pt" height="298.015156pt" viewBox="0 0 564.412812 298.015156" xmlns="http://www.w3.org/2000/svg" version="1.1">
 <metadata>
  <rdf:RDF xmlns:dc="http://purl.org/dc/elements/1.1/" xmlns:cc="http://creativecommons.org/ns#" xmlns:rdf="http://www.w3.org/1999/02/22-rdf-syntax-ns#">
   <cc:Work>
    <dc:type rdf:resource="http://purl.org/dc/dcmitype/StillImage"/>
    <dc:date>2024-06-25T10:49:08.923812</dc:date>
    <dc:format>image/svg+xml</dc:format>
    <dc:creator>
     <cc:Agent>
      <dc:title>Matplotlib v3.8.4, https://matplotlib.org/</dc:title>
     </cc:Agent>
    </dc:creator>
   </cc:Work>
  </rdf:RDF>
 </metadata>
 <defs>
  <style type="text/css">*{stroke-linejoin: round; stroke-linecap: butt}</style>
 </defs>
 <g id="figure_1">
  <g id="patch_1">
   <path d="M 0 298.015156 
L 564.412812 298.015156 
L 564.412812 0 
L 0 0 
z
" style="fill: #f3f7f8"/>
  </g>
  <g id="axes_1">
   <g id="patch_2">
    <path d="M 55.012813 247.877344 
L 557.212813 247.877344 
L 557.212813 26.117344 
L 55.012813 26.117344 
z
" style="fill: #ffffff"/>
   </g>
   <g id="PolyCollection_1">
    <defs>
     <path id="ma339fef3a7" d="M 77.840085 -76.753854 
L 77.840085 -63.880358 
L 81.88031 -64.731201 
L 85.920536 -65.639061 
L 89.960761 -66.446259 
L 94.000986 -68.435464 
L 98.041212 -70.57334 
L 102.081437 -73.456759 
L 106.121662 -75.887527 
L 110.161887 -78.676068 
L 114.202113 -80.641193 
L 118.242338 -82.98635 
L 122.282563 -84.337028 
L 126.322788 -85.122821 
L 130.363014 -86.17584 
L 134.403239 -86.699763 
L 138.443464 -86.431301 
L 142.483689 -85.308971 
L 146.523915 -85.595271 
L 150.56414 -86.828916 
L 154.604365 -90.245415 
L 158.64459 -95.16088 
L 162.684816 -99.965926 
L 166.725041 -103.612685 
L 170.765266 -107.451973 
L 174.805492 -109.544249 
L 178.845717 -112.60664 
L 182.885942 -114.425634 
L 186.926167 -116.985254 
L 190.966393 -117.76113 
L 195.006618 -117.824019 
L 199.046843 -116.119962 
L 203.087068 -112.66073 
L 207.127294 -110.083971 
L 211.167519 -108.609575 
L 215.207744 -107.703155 
L 219.247969 -107.940206 
L 223.288195 -107.233175 
L 227.32842 -107.564656 
L 231.368645 -107.910488 
L 235.40887 -107.949657 
L 239.449096 -108.099527 
L 243.489321 -108.763807 
L 247.529546 -110.448557 
L 251.569771 -111.812268 
L 255.609997 -113.829982 
L 259.650222 -115.879279 
L 263.690447 -117.931499 
L 267.730673 -121.308548 
L 271.770898 -122.507426 
L 275.811123 -124.39517 
L 279.851348 -125.235845 
L 283.891574 -125.359441 
L 287.931799 -125.530745 
L 291.972024 -124.056116 
L 296.012249 -122.808209 
L 300.052475 -121.861047 
L 304.0927 -120.021238 
L 308.132925 -120.334536 
L 312.17315 -119.013366 
L 316.213376 -122.224737 
L 320.253601 -124.83841 
L 324.293826 -128.746078 
L 328.334051 -134.325628 
L 332.374277 -139.075723 
L 336.414502 -144.789357 
L 340.454727 -149.324122 
L 344.494952 -152.402925 
L 348.535178 -154.72452 
L 352.575403 -154.326781 
L 356.615628 -155.542489 
L 360.655854 -151.698065 
L 364.696079 -147.930499 
L 368.736304 -143.258431 
L 372.776529 -137.162242 
L 376.816755 -133.03085 
L 380.85698 -126.519794 
L 384.897205 -124.416898 
L 388.93743 -120.931752 
L 392.977656 -118.933891 
L 397.017881 -115.615619 
L 401.058106 -112.564873 
L 405.098331 -109.462371 
L 409.138557 -107.932547 
L 413.178782 -105.295268 
L 417.219007 -104.014756 
L 421.259232 -98.251253 
L 425.299458 -96.178472 
L 429.339683 -89.85193 
L 433.379908 -85.307753 
L 437.420133 -79.913793 
L 441.460359 -77.22792 
L 445.500584 -72.656523 
L 449.540809 -69.629666 
L 453.581035 -65.889523 
L 457.62126 -65.410724 
L 461.661485 -63.759726 
L 465.70171 -63.162367 
L 469.741936 -63.044045 
L 473.782161 -63.692981 
L 477.822386 -65.470144 
L 481.862611 -66.566756 
L 485.902837 -66.564672 
L 489.943062 -67.235391 
L 493.983287 -69.522767 
L 498.023512 -70.175067 
L 502.063738 -70.071881 
L 506.103963 -69.465971 
L 510.144188 -71.11704 
L 514.184413 -71.267245 
L 518.224639 -71.768366 
L 522.264864 -74.091063 
L 526.305089 -74.819709 
L 534.38554 -75.852501 
L 534.38554 -87.648144 
L 534.38554 -87.648144 
L 526.305089 -86.266136 
L 522.264864 -87.460778 
L 518.224639 -87.621367 
L 514.184413 -89.452087 
L 510.144188 -90.554364 
L 506.103963 -98.364829 
L 502.063738 -100.740597 
L 498.023512 -102.489234 
L 493.983287 -107.136627 
L 489.943062 -109.170063 
L 485.902837 -115.972971 
L 481.862611 -117.021973 
L 477.822386 -122.988138 
L 473.782161 -120.099711 
L 469.741936 -120.343466 
L 465.70171 -120.362832 
L 461.661485 -120.532072 
L 457.62126 -123.393138 
L 453.581035 -129.287783 
L 449.540809 -136.530458 
L 445.500584 -142.406494 
L 441.460359 -145.480781 
L 437.420133 -160.099403 
L 433.379908 -167.002562 
L 429.339683 -184.607279 
L 425.299458 -201.975052 
L 421.259232 -214.081946 
L 417.219007 -224.092379 
L 413.178782 -228.487817 
L 409.138557 -232.234182 
L 405.098331 -228.030966 
L 401.058106 -227.568465 
L 397.017881 -230.914466 
L 392.977656 -229.229214 
L 388.93743 -227.366903 
L 384.897205 -224.965607 
L 380.85698 -221.013943 
L 376.816755 -224.825288 
L 372.776529 -224.75407 
L 368.736304 -234.974573 
L 364.696079 -241.507924 
L 360.655854 -250.459674 
L 356.615628 -258.574984 
L 352.575403 -259.285365 
L 348.535178 -261.051825 
L 344.494952 -254.889007 
L 340.454727 -248.006463 
L 336.414502 -239.548208 
L 332.374277 -227.997535 
L 328.334051 -218.223078 
L 324.293826 -205.771928 
L 320.253601 -196.039886 
L 316.213376 -187.540267 
L 312.17315 -178.802501 
L 308.132925 -176.580074 
L 304.0927 -171.998977 
L 300.052475 -176.670207 
L 296.012249 -177.305979 
L 291.972024 -180.431551 
L 287.931799 -183.426604 
L 283.891574 -184.91696 
L 279.851348 -187.144199 
L 275.811123 -188.412666 
L 271.770898 -189.65884 
L 267.730673 -189.669206 
L 263.690447 -187.962524 
L 259.650222 -188.491997 
L 255.609997 -187.221095 
L 251.569771 -187.644774 
L 247.529546 -187.894174 
L 243.489321 -188.572518 
L 239.449096 -189.881738 
L 235.40887 -192.860481 
L 231.368645 -193.685953 
L 227.32842 -196.443064 
L 223.288195 -196.91555 
L 219.247969 -199.105318 
L 215.207744 -200.138478 
L 211.167519 -203.900426 
L 207.127294 -208.19864 
L 203.087068 -214.392384 
L 199.046843 -224.629838 
L 195.006618 -231.253514 
L 190.966393 -231.577909 
L 186.926167 -230.198966 
L 182.885942 -226.136014 
L 178.845717 -220.94056 
L 174.805492 -213.140126 
L 170.765266 -205.059578 
L 166.725041 -194.477571 
L 162.684816 -182.108984 
L 158.64459 -167.808918 
L 154.604365 -151.293493 
L 150.56414 -138.774952 
L 146.523915 -131.848228 
L 142.483689 -127.941139 
L 138.443464 -125.646525 
L 134.403239 -124.743434 
L 130.363014 -122.464631 
L 126.322788 -119.083116 
L 122.282563 -115.910573 
L 118.242338 -113.202815 
L 114.202113 -111.052639 
L 110.161887 -106.800116 
L 106.121662 -102.619744 
L 102.081437 -97.008924 
L 98.041212 -91.107262 
L 94.000986 -85.454836 
L 89.960761 -80.955055 
L 85.920536 -78.83639 
L 81.88031 -77.624737 
L 77.840085 -76.753854 
z
" style="stroke: #009384; stroke-opacity: 0.15"/>
    </defs>
    <g clip-path="url(#p307e4583ea)">
     <use xlink:href="#ma339fef3a7" x="0" y="298.015156" style="fill: #009384; fill-opacity: 0.15; stroke: #009384; stroke-opacity: 0.15"/>
    </g>
   </g>
   <g id="PolyCollection_2">
    <defs>
     <path id="m27022b6aac" d="M 77.840085 -76.530648 
L 77.840085 -64.248288 
L 81.88031 -64.921703 
L 85.920536 -65.320611 
L 89.960761 -65.632378 
L 94.000986 -66.466874 
L 98.041212 -67.322426 
L 102.081437 -68.305231 
L 106.121662 -69.270289 
L 110.161887 -69.294488 
L 114.202113 -69.308203 
L 118.242338 -68.952657 
L 122.282563 -69.214582 
L 126.322788 -70.004484 
L 130.363014 -70.636307 
L 134.403239 -72.670575 
L 138.443464 -73.914432 
L 142.483689 -75.571922 
L 146.523915 -77.709244 
L 150.56414 -79.646351 
L 154.604365 -83.382837 
L 158.64459 -86.862563 
L 162.684816 -90.913925 
L 166.725041 -95.800089 
L 170.765266 -100.263609 
L 174.805492 -104.800063 
L 178.845717 -107.659387 
L 182.885942 -109.338796 
L 186.926167 -109.873242 
L 190.966393 -108.103533 
L 195.006618 -108.743434 
L 199.046843 -106.646461 
L 203.087068 -106.650355 
L 207.127294 -107.86632 
L 211.167519 -109.174957 
L 215.207744 -111.660562 
L 219.247969 -116.333775 
L 223.288195 -121.945999 
L 227.32842 -129.602277 
L 231.368645 -139.301237 
L 235.40887 -149.033015 
L 239.449096 -156.460272 
L 243.489321 -165.382769 
L 247.529546 -170.508693 
L 251.569771 -171.272553 
L 255.609997 -170.386152 
L 259.650222 -165.876514 
L 263.690447 -158.952161 
L 267.730673 -150.402377 
L 271.770898 -140.873035 
L 275.811123 -129.762619 
L 279.851348 -120.000536 
L 283.891574 -110.988225 
L 287.931799 -102.687436 
L 291.972024 -95.658902 
L 296.012249 -90.701911 
L 300.052475 -87.433134 
L 304.0927 -85.441395 
L 308.132925 -83.739186 
L 312.17315 -82.640253 
L 316.213376 -81.296465 
L 320.253601 -80.586143 
L 324.293826 -79.210243 
L 328.334051 -77.840282 
L 332.374277 -75.81372 
L 336.414502 -74.347689 
L 340.454727 -73.753554 
L 344.494952 -70.632691 
L 348.535178 -68.868506 
L 352.575403 -66.836841 
L 356.615628 -65.275464 
L 360.655854 -63.976605 
L 364.696079 -62.526984 
L 368.736304 -62.170706 
L 372.776529 -61.550712 
L 376.816755 -61.136781 
L 380.85698 -61.144681 
L 384.897205 -60.217812 
L 388.93743 -60.985273 
L 392.977656 -61.278125 
L 397.017881 -62.128829 
L 401.058106 -62.589828 
L 405.098331 -63.537198 
L 409.138557 -63.768081 
L 413.178782 -64.096481 
L 417.219007 -64.286636 
L 421.259232 -64.317598 
L 425.299458 -64.223996 
L 429.339683 -64.99817 
L 433.379908 -65.34772 
L 437.420133 -65.68476 
L 441.460359 -65.9158 
L 445.500584 -66.204115 
L 449.540809 -66.248019 
L 453.581035 -66.802612 
L 457.62126 -67.326612 
L 461.661485 -67.645798 
L 465.70171 -70.246325 
L 469.741936 -71.163414 
L 473.782161 -73.360594 
L 477.822386 -73.300838 
L 485.902837 -75.158913 
L 493.983287 -77.998209 
L 493.983287 -95.770689 
L 493.983287 -95.770689 
L 485.902837 -91.852623 
L 477.822386 -90.357278 
L 473.782161 -90.4051 
L 469.741936 -90.213304 
L 465.70171 -87.589705 
L 461.661485 -84.541355 
L 457.62126 -83.722621 
L 453.581035 -82.676285 
L 449.540809 -81.306429 
L 445.500584 -81.022039 
L 441.460359 -80.148372 
L 437.420133 -79.718255 
L 433.379908 -78.921418 
L 429.339683 -78.005184 
L 425.299458 -78.443814 
L 421.259232 -78.574179 
L 417.219007 -79.381039 
L 413.178782 -81.33681 
L 409.138557 -81.812132 
L 405.098331 -84.835401 
L 401.058106 -87.104395 
L 397.017881 -93.01251 
L 392.977656 -96.628904 
L 388.93743 -102.935277 
L 384.897205 -109.86853 
L 380.85698 -112.888301 
L 376.816755 -120.748756 
L 372.776529 -128.133575 
L 368.736304 -134.363271 
L 364.696079 -140.238841 
L 360.655854 -144.710826 
L 356.615628 -151.624684 
L 352.575403 -148.843675 
L 348.535178 -151.62758 
L 344.494952 -150.060873 
L 340.454727 -148.043395 
L 336.414502 -146.732472 
L 332.374277 -142.659099 
L 328.334051 -139.73634 
L 324.293826 -134.870895 
L 320.253601 -132.14184 
L 316.213376 -128.822408 
L 312.17315 -125.981109 
L 308.132925 -131.502181 
L 304.0927 -136.210524 
L 300.052475 -140.401383 
L 296.012249 -148.341213 
L 291.972024 -158.427459 
L 287.931799 -171.976791 
L 283.891574 -184.173985 
L 279.851348 -198.963373 
L 275.811123 -213.094787 
L 271.770898 -227.532977 
L 267.730673 -238.659557 
L 263.690447 -248.796413 
L 259.650222 -254.236278 
L 255.609997 -261.267254 
L 251.569771 -261.817813 
L 247.529546 -260.253701 
L 243.489321 -250.673676 
L 239.449096 -240.129905 
L 235.40887 -233.627648 
L 231.368645 -224.929353 
L 227.32842 -216.306436 
L 223.288195 -211.146414 
L 219.247969 -204.694658 
L 215.207744 -201.740785 
L 211.167519 -200.412032 
L 207.127294 -199.834682 
L 203.087068 -199.214881 
L 199.046843 -203.160992 
L 195.006618 -208.367691 
L 190.966393 -207.770162 
L 186.926167 -209.274282 
L 182.885942 -209.708002 
L 178.845717 -206.118153 
L 174.805492 -200.910887 
L 170.765266 -190.470568 
L 166.725041 -180.938498 
L 162.684816 -171.405742 
L 158.64459 -161.572709 
L 154.604365 -149.478868 
L 150.56414 -137.600763 
L 146.523915 -128.28427 
L 142.483689 -120.055852 
L 138.443464 -111.720127 
L 134.403239 -105.443491 
L 130.363014 -98.693707 
L 126.322788 -95.728946 
L 122.282563 -91.090181 
L 118.242338 -88.213403 
L 114.202113 -87.173549 
L 110.161887 -87.137591 
L 106.121662 -86.962062 
L 102.081437 -84.555944 
L 98.041212 -82.638832 
L 94.000986 -81.627488 
L 89.960761 -78.86779 
L 85.920536 -78.009351 
L 81.88031 -77.429842 
L 77.840085 -76.530648 
z
" style="stroke: #b85741; stroke-opacity: 0.15"/>
    </defs>
    <g clip-path="url(#p307e4583ea)">
     <use xlink:href="#m27022b6aac" x="0" y="298.015156" style="fill: #b85741; fill-opacity: 0.15; stroke: #b85741; stroke-opacity: 0.15"/>
    </g>
   </g>
   <g id="matplotlib.axis_1">
    <g id="xtick_1">
     <g id="line2d_1">
      <defs>
       <path id="m1deaad71f9" d="M 0 0 
L 0 3.5 
" style="stroke: #000000; stroke-width: 0.8"/>
      </defs>
      <g>
       <use xlink:href="#m1deaad71f9" x="77.840085" y="247.877344" style="stroke: #000000; stroke-width: 0.8"/>
      </g>
     </g>
     <g id="text_1">
      <!-- 0 -->
      <g transform="translate(72.750085 267.034844) scale(0.16 -0.16)">
       <defs>
        <path id="DejaVuSans-30" d="M 2034 4250 
Q 1547 4250 1301 3770 
Q 1056 3291 1056 2328 
Q 1056 1369 1301 889 
Q 1547 409 2034 409 
Q 2525 409 2770 889 
Q 3016 1369 3016 2328 
Q 3016 3291 2770 3770 
Q 2525 4250 2034 4250 
z
M 2034 4750 
Q 2819 4750 3233 4129 
Q 3647 3509 3647 2328 
Q 3647 1150 3233 529 
Q 2819 -91 2034 -91 
Q 1250 -91 836 529 
Q 422 1150 422 2328 
Q 422 3509 836 4129 
Q 1250 4750 2034 4750 
z
" transform="scale(0.015625)"/>
       </defs>
       <use xlink:href="#DejaVuSans-30"/>
      </g>
     </g>
    </g>
    <g id="xtick_2">
     <g id="line2d_2">
      <g>
       <use xlink:href="#m1deaad71f9" x="158.64459" y="247.877344" style="stroke: #000000; stroke-width: 0.8"/>
      </g>
     </g>
     <g id="text_2">
      <!-- 20 -->
      <g transform="translate(148.46459 267.034844) scale(0.16 -0.16)">
       <defs>
        <path id="DejaVuSans-32" d="M 1228 531 
L 3431 531 
L 3431 0 
L 469 0 
L 469 531 
Q 828 903 1448 1529 
Q 2069 2156 2228 2338 
Q 2531 2678 2651 2914 
Q 2772 3150 2772 3378 
Q 2772 3750 2511 3984 
Q 2250 4219 1831 4219 
Q 1534 4219 1204 4116 
Q 875 4013 500 3803 
L 500 4441 
Q 881 4594 1212 4672 
Q 1544 4750 1819 4750 
Q 2544 4750 2975 4387 
Q 3406 4025 3406 3419 
Q 3406 3131 3298 2873 
Q 3191 2616 2906 2266 
Q 2828 2175 2409 1742 
Q 1991 1309 1228 531 
z
" transform="scale(0.015625)"/>
       </defs>
       <use xlink:href="#DejaVuSans-32"/>
       <use xlink:href="#DejaVuSans-30" x="63.623047"/>
      </g>
     </g>
    </g>
    <g id="xtick_3">
     <g id="line2d_3">
      <g>
       <use xlink:href="#m1deaad71f9" x="239.449096" y="247.877344" style="stroke: #000000; stroke-width: 0.8"/>
      </g>
     </g>
     <g id="text_3">
      <!-- 40 -->
      <g transform="translate(229.269096 267.034844) scale(0.16 -0.16)">
       <defs>
        <path id="DejaVuSans-34" d="M 2419 4116 
L 825 1625 
L 2419 1625 
L 2419 4116 
z
M 2253 4666 
L 3047 4666 
L 3047 1625 
L 3713 1625 
L 3713 1100 
L 3047 1100 
L 3047 0 
L 2419 0 
L 2419 1100 
L 313 1100 
L 313 1709 
L 2253 4666 
z
" transform="scale(0.015625)"/>
       </defs>
       <use xlink:href="#DejaVuSans-34"/>
       <use xlink:href="#DejaVuSans-30" x="63.623047"/>
      </g>
     </g>
    </g>
    <g id="xtick_4">
     <g id="line2d_4">
      <g>
       <use xlink:href="#m1deaad71f9" x="320.253601" y="247.877344" style="stroke: #000000; stroke-width: 0.8"/>
      </g>
     </g>
     <g id="text_4">
      <!-- 60 -->
      <g transform="translate(310.073601 267.034844) scale(0.16 -0.16)">
       <defs>
        <path id="DejaVuSans-36" d="M 2113 2584 
Q 1688 2584 1439 2293 
Q 1191 2003 1191 1497 
Q 1191 994 1439 701 
Q 1688 409 2113 409 
Q 2538 409 2786 701 
Q 3034 994 3034 1497 
Q 3034 2003 2786 2293 
Q 2538 2584 2113 2584 
z
M 3366 4563 
L 3366 3988 
Q 3128 4100 2886 4159 
Q 2644 4219 2406 4219 
Q 1781 4219 1451 3797 
Q 1122 3375 1075 2522 
Q 1259 2794 1537 2939 
Q 1816 3084 2150 3084 
Q 2853 3084 3261 2657 
Q 3669 2231 3669 1497 
Q 3669 778 3244 343 
Q 2819 -91 2113 -91 
Q 1303 -91 875 529 
Q 447 1150 447 2328 
Q 447 3434 972 4092 
Q 1497 4750 2381 4750 
Q 2619 4750 2861 4703 
Q 3103 4656 3366 4563 
z
" transform="scale(0.015625)"/>
       </defs>
       <use xlink:href="#DejaVuSans-36"/>
       <use xlink:href="#DejaVuSans-30" x="63.623047"/>
      </g>
     </g>
    </g>
    <g id="xtick_5">
     <g id="line2d_5">
      <g>
       <use xlink:href="#m1deaad71f9" x="401.058106" y="247.877344" style="stroke: #000000; stroke-width: 0.8"/>
      </g>
     </g>
     <g id="text_5">
      <!-- 80 -->
      <g transform="translate(390.878106 267.034844) scale(0.16 -0.16)">
       <defs>
        <path id="DejaVuSans-38" d="M 2034 2216 
Q 1584 2216 1326 1975 
Q 1069 1734 1069 1313 
Q 1069 891 1326 650 
Q 1584 409 2034 409 
Q 2484 409 2743 651 
Q 3003 894 3003 1313 
Q 3003 1734 2745 1975 
Q 2488 2216 2034 2216 
z
M 1403 2484 
Q 997 2584 770 2862 
Q 544 3141 544 3541 
Q 544 4100 942 4425 
Q 1341 4750 2034 4750 
Q 2731 4750 3128 4425 
Q 3525 4100 3525 3541 
Q 3525 3141 3298 2862 
Q 3072 2584 2669 2484 
Q 3125 2378 3379 2068 
Q 3634 1759 3634 1313 
Q 3634 634 3220 271 
Q 2806 -91 2034 -91 
Q 1263 -91 848 271 
Q 434 634 434 1313 
Q 434 1759 690 2068 
Q 947 2378 1403 2484 
z
M 1172 3481 
Q 1172 3119 1398 2916 
Q 1625 2713 2034 2713 
Q 2441 2713 2670 2916 
Q 2900 3119 2900 3481 
Q 2900 3844 2670 4047 
Q 2441 4250 2034 4250 
Q 1625 4250 1398 4047 
Q 1172 3844 1172 3481 
z
" transform="scale(0.015625)"/>
       </defs>
       <use xlink:href="#DejaVuSans-38"/>
       <use xlink:href="#DejaVuSans-30" x="63.623047"/>
      </g>
     </g>
    </g>
    <g id="xtick_6">
     <g id="line2d_6">
      <g>
       <use xlink:href="#m1deaad71f9" x="481.862611" y="247.877344" style="stroke: #000000; stroke-width: 0.8"/>
      </g>
     </g>
     <g id="text_6">
      <!-- 100 -->
      <g transform="translate(466.592611 267.034844) scale(0.16 -0.16)">
       <defs>
        <path id="DejaVuSans-31" d="M 794 531 
L 1825 531 
L 1825 4091 
L 703 3866 
L 703 4441 
L 1819 4666 
L 2450 4666 
L 2450 531 
L 3481 531 
L 3481 0 
L 794 0 
L 794 531 
z
" transform="scale(0.015625)"/>
       </defs>
       <use xlink:href="#DejaVuSans-31"/>
       <use xlink:href="#DejaVuSans-30" x="63.623047"/>
       <use xlink:href="#DejaVuSans-30" x="127.246094"/>
      </g>
     </g>
    </g>
    <g id="text_7">
     <!-- Time (s) -->
     <g transform="translate(271.553672 287.279687) scale(0.17 -0.17)">
      <defs>
       <path id="DejaVuSans-54" d="M -19 4666 
L 3928 4666 
L 3928 4134 
L 2272 4134 
L 2272 0 
L 1638 0 
L 1638 4134 
L -19 4134 
L -19 4666 
z
" transform="scale(0.015625)"/>
       <path id="DejaVuSans-69" d="M 603 3500 
L 1178 3500 
L 1178 0 
L 603 0 
L 603 3500 
z
M 603 4863 
L 1178 4863 
L 1178 4134 
L 603 4134 
L 603 4863 
z
" transform="scale(0.015625)"/>
       <path id="DejaVuSans-6d" d="M 3328 2828 
Q 3544 3216 3844 3400 
Q 4144 3584 4550 3584 
Q 5097 3584 5394 3201 
Q 5691 2819 5691 2113 
L 5691 0 
L 5113 0 
L 5113 2094 
Q 5113 2597 4934 2840 
Q 4756 3084 4391 3084 
Q 3944 3084 3684 2787 
Q 3425 2491 3425 1978 
L 3425 0 
L 2847 0 
L 2847 2094 
Q 2847 2600 2669 2842 
Q 2491 3084 2119 3084 
Q 1678 3084 1418 2786 
Q 1159 2488 1159 1978 
L 1159 0 
L 581 0 
L 581 3500 
L 1159 3500 
L 1159 2956 
Q 1356 3278 1631 3431 
Q 1906 3584 2284 3584 
Q 2666 3584 2933 3390 
Q 3200 3197 3328 2828 
z
" transform="scale(0.015625)"/>
       <path id="DejaVuSans-65" d="M 3597 1894 
L 3597 1613 
L 953 1613 
Q 991 1019 1311 708 
Q 1631 397 2203 397 
Q 2534 397 2845 478 
Q 3156 559 3463 722 
L 3463 178 
Q 3153 47 2828 -22 
Q 2503 -91 2169 -91 
Q 1331 -91 842 396 
Q 353 884 353 1716 
Q 353 2575 817 3079 
Q 1281 3584 2069 3584 
Q 2775 3584 3186 3129 
Q 3597 2675 3597 1894 
z
M 3022 2063 
Q 3016 2534 2758 2815 
Q 2500 3097 2075 3097 
Q 1594 3097 1305 2825 
Q 1016 2553 972 2059 
L 3022 2063 
z
" transform="scale(0.015625)"/>
       <path id="DejaVuSans-20" transform="scale(0.015625)"/>
       <path id="DejaVuSans-28" d="M 1984 4856 
Q 1566 4138 1362 3434 
Q 1159 2731 1159 2009 
Q 1159 1288 1364 580 
Q 1569 -128 1984 -844 
L 1484 -844 
Q 1016 -109 783 600 
Q 550 1309 550 2009 
Q 550 2706 781 3412 
Q 1013 4119 1484 4856 
L 1984 4856 
z
" transform="scale(0.015625)"/>
       <path id="DejaVuSans-73" d="M 2834 3397 
L 2834 2853 
Q 2591 2978 2328 3040 
Q 2066 3103 1784 3103 
Q 1356 3103 1142 2972 
Q 928 2841 928 2578 
Q 928 2378 1081 2264 
Q 1234 2150 1697 2047 
L 1894 2003 
Q 2506 1872 2764 1633 
Q 3022 1394 3022 966 
Q 3022 478 2636 193 
Q 2250 -91 1575 -91 
Q 1294 -91 989 -36 
Q 684 19 347 128 
L 347 722 
Q 666 556 975 473 
Q 1284 391 1588 391 
Q 1994 391 2212 530 
Q 2431 669 2431 922 
Q 2431 1156 2273 1281 
Q 2116 1406 1581 1522 
L 1381 1569 
Q 847 1681 609 1914 
Q 372 2147 372 2553 
Q 372 3047 722 3315 
Q 1072 3584 1716 3584 
Q 2034 3584 2315 3537 
Q 2597 3491 2834 3397 
z
" transform="scale(0.015625)"/>
       <path id="DejaVuSans-29" d="M 513 4856 
L 1013 4856 
Q 1481 4119 1714 3412 
Q 1947 2706 1947 2009 
Q 1947 1309 1714 600 
Q 1481 -109 1013 -844 
L 513 -844 
Q 928 -128 1133 580 
Q 1338 1288 1338 2009 
Q 1338 2731 1133 3434 
Q 928 4138 513 4856 
z
" transform="scale(0.015625)"/>
      </defs>
      <use xlink:href="#DejaVuSans-54"/>
      <use xlink:href="#DejaVuSans-69" x="57.958984"/>
      <use xlink:href="#DejaVuSans-6d" x="85.742188"/>
      <use xlink:href="#DejaVuSans-65" x="183.154297"/>
      <use xlink:href="#DejaVuSans-20" x="244.677734"/>
      <use xlink:href="#DejaVuSans-28" x="276.464844"/>
      <use xlink:href="#DejaVuSans-73" x="315.478516"/>
      <use xlink:href="#DejaVuSans-29" x="367.578125"/>
     </g>
    </g>
   </g>
   <g id="matplotlib.axis_2">
    <g id="ytick_1">
     <g id="line2d_7">
      <defs>
       <path id="m1e6c6abc8e" d="M 0 0 
L -3.5 0 
" style="stroke: #000000; stroke-width: 0.8"/>
      </defs>
      <g>
       <use xlink:href="#m1e6c6abc8e" x="55.012813" y="177.673145" style="stroke: #000000; stroke-width: 0.8"/>
      </g>
     </g>
     <g id="text_8">
      <!-- 20 -->
      <g transform="translate(27.652813 183.751895) scale(0.16 -0.16)">
       <use xlink:href="#DejaVuSans-32"/>
       <use xlink:href="#DejaVuSans-30" x="63.623047"/>
      </g>
     </g>
    </g>
    <g id="ytick_2">
     <g id="line2d_8">
      <g>
       <use xlink:href="#m1e6c6abc8e" x="55.012813" y="105.755445" style="stroke: #000000; stroke-width: 0.8"/>
      </g>
     </g>
     <g id="text_9">
      <!-- 40 -->
      <g transform="translate(27.652813 111.834195) scale(0.16 -0.16)">
       <use xlink:href="#DejaVuSans-34"/>
       <use xlink:href="#DejaVuSans-30" x="63.623047"/>
      </g>
     </g>
    </g>
    <g id="ytick_3">
     <g id="line2d_9">
      <g>
       <use xlink:href="#m1e6c6abc8e" x="55.012813" y="33.837744" style="stroke: #000000; stroke-width: 0.8"/>
      </g>
     </g>
     <g id="text_10">
      <!-- 60 -->
      <g transform="translate(27.652813 39.916494) scale(0.16 -0.16)">
       <use xlink:href="#DejaVuSans-36"/>
       <use xlink:href="#DejaVuSans-30" x="63.623047"/>
      </g>
     </g>
    </g>
    <g id="text_11">
     <!-- Utilization (%) -->
     <g transform="translate(20.117344 196.996719) rotate(-90) scale(0.17 -0.17)">
      <defs>
       <path id="DejaVuSans-55" d="M 556 4666 
L 1191 4666 
L 1191 1831 
Q 1191 1081 1462 751 
Q 1734 422 2344 422 
Q 2950 422 3222 751 
Q 3494 1081 3494 1831 
L 3494 4666 
L 4128 4666 
L 4128 1753 
Q 4128 841 3676 375 
Q 3225 -91 2344 -91 
Q 1459 -91 1007 375 
Q 556 841 556 1753 
L 556 4666 
z
" transform="scale(0.015625)"/>
       <path id="DejaVuSans-74" d="M 1172 4494 
L 1172 3500 
L 2356 3500 
L 2356 3053 
L 1172 3053 
L 1172 1153 
Q 1172 725 1289 603 
Q 1406 481 1766 481 
L 2356 481 
L 2356 0 
L 1766 0 
Q 1100 0 847 248 
Q 594 497 594 1153 
L 594 3053 
L 172 3053 
L 172 3500 
L 594 3500 
L 594 4494 
L 1172 4494 
z
" transform="scale(0.015625)"/>
       <path id="DejaVuSans-6c" d="M 603 4863 
L 1178 4863 
L 1178 0 
L 603 0 
L 603 4863 
z
" transform="scale(0.015625)"/>
       <path id="DejaVuSans-7a" d="M 353 3500 
L 3084 3500 
L 3084 2975 
L 922 459 
L 3084 459 
L 3084 0 
L 275 0 
L 275 525 
L 2438 3041 
L 353 3041 
L 353 3500 
z
" transform="scale(0.015625)"/>
       <path id="DejaVuSans-61" d="M 2194 1759 
Q 1497 1759 1228 1600 
Q 959 1441 959 1056 
Q 959 750 1161 570 
Q 1363 391 1709 391 
Q 2188 391 2477 730 
Q 2766 1069 2766 1631 
L 2766 1759 
L 2194 1759 
z
M 3341 1997 
L 3341 0 
L 2766 0 
L 2766 531 
Q 2569 213 2275 61 
Q 1981 -91 1556 -91 
Q 1019 -91 701 211 
Q 384 513 384 1019 
Q 384 1609 779 1909 
Q 1175 2209 1959 2209 
L 2766 2209 
L 2766 2266 
Q 2766 2663 2505 2880 
Q 2244 3097 1772 3097 
Q 1472 3097 1187 3025 
Q 903 2953 641 2809 
L 641 3341 
Q 956 3463 1253 3523 
Q 1550 3584 1831 3584 
Q 2591 3584 2966 3190 
Q 3341 2797 3341 1997 
z
" transform="scale(0.015625)"/>
       <path id="DejaVuSans-6f" d="M 1959 3097 
Q 1497 3097 1228 2736 
Q 959 2375 959 1747 
Q 959 1119 1226 758 
Q 1494 397 1959 397 
Q 2419 397 2687 759 
Q 2956 1122 2956 1747 
Q 2956 2369 2687 2733 
Q 2419 3097 1959 3097 
z
M 1959 3584 
Q 2709 3584 3137 3096 
Q 3566 2609 3566 1747 
Q 3566 888 3137 398 
Q 2709 -91 1959 -91 
Q 1206 -91 779 398 
Q 353 888 353 1747 
Q 353 2609 779 3096 
Q 1206 3584 1959 3584 
z
" transform="scale(0.015625)"/>
       <path id="DejaVuSans-6e" d="M 3513 2113 
L 3513 0 
L 2938 0 
L 2938 2094 
Q 2938 2591 2744 2837 
Q 2550 3084 2163 3084 
Q 1697 3084 1428 2787 
Q 1159 2491 1159 1978 
L 1159 0 
L 581 0 
L 581 3500 
L 1159 3500 
L 1159 2956 
Q 1366 3272 1645 3428 
Q 1925 3584 2291 3584 
Q 2894 3584 3203 3211 
Q 3513 2838 3513 2113 
z
" transform="scale(0.015625)"/>
       <path id="DejaVuSans-25" d="M 4653 2053 
Q 4381 2053 4226 1822 
Q 4072 1591 4072 1178 
Q 4072 772 4226 539 
Q 4381 306 4653 306 
Q 4919 306 5073 539 
Q 5228 772 5228 1178 
Q 5228 1588 5073 1820 
Q 4919 2053 4653 2053 
z
M 4653 2450 
Q 5147 2450 5437 2106 
Q 5728 1763 5728 1178 
Q 5728 594 5436 251 
Q 5144 -91 4653 -91 
Q 4153 -91 3862 251 
Q 3572 594 3572 1178 
Q 3572 1766 3864 2108 
Q 4156 2450 4653 2450 
z
M 1428 4353 
Q 1159 4353 1004 4120 
Q 850 3888 850 3481 
Q 850 3069 1003 2837 
Q 1156 2606 1428 2606 
Q 1700 2606 1854 2837 
Q 2009 3069 2009 3481 
Q 2009 3884 1853 4118 
Q 1697 4353 1428 4353 
z
M 4250 4750 
L 4750 4750 
L 1831 -91 
L 1331 -91 
L 4250 4750 
z
M 1428 4750 
Q 1922 4750 2215 4408 
Q 2509 4066 2509 3481 
Q 2509 2891 2217 2550 
Q 1925 2209 1428 2209 
Q 931 2209 642 2551 
Q 353 2894 353 3481 
Q 353 4063 643 4406 
Q 934 4750 1428 4750 
z
" transform="scale(0.015625)"/>
      </defs>
      <use xlink:href="#DejaVuSans-55"/>
      <use xlink:href="#DejaVuSans-74" x="73.193359"/>
      <use xlink:href="#DejaVuSans-69" x="112.402344"/>
      <use xlink:href="#DejaVuSans-6c" x="140.185547"/>
      <use xlink:href="#DejaVuSans-69" x="167.96875"/>
      <use xlink:href="#DejaVuSans-7a" x="195.751953"/>
      <use xlink:href="#DejaVuSans-61" x="248.242188"/>
      <use xlink:href="#DejaVuSans-74" x="309.521484"/>
      <use xlink:href="#DejaVuSans-69" x="348.730469"/>
      <use xlink:href="#DejaVuSans-6f" x="376.513672"/>
      <use xlink:href="#DejaVuSans-6e" x="437.695312"/>
      <use xlink:href="#DejaVuSans-20" x="501.074219"/>
      <use xlink:href="#DejaVuSans-28" x="532.861328"/>
      <use xlink:href="#DejaVuSans-25" x="571.875"/>
      <use xlink:href="#DejaVuSans-29" x="666.894531"/>
     </g>
    </g>
   </g>
   <g id="line2d_10">
    <path d="M 77.840085 227.69805 
L 81.88031 226.837187 
L 85.920536 225.777431 
L 89.960761 224.3145 
L 94.000986 221.070006 
L 98.041212 217.174855 
L 102.081437 212.782315 
L 106.121662 208.761521 
L 110.161887 205.277064 
L 114.202113 202.168241 
L 118.242338 199.920574 
L 122.282563 197.891356 
L 126.322788 195.912188 
L 130.363014 193.694921 
L 134.403239 192.293558 
L 138.443464 191.976243 
L 142.483689 191.390101 
L 146.523915 189.293407 
L 150.56414 185.213222 
L 154.604365 177.245702 
L 158.64459 166.530257 
L 162.684816 156.977701 
L 166.725041 148.970028 
L 170.765266 141.759381 
L 174.805492 136.672969 
L 178.845717 131.241556 
L 182.885942 127.734332 
L 186.926167 124.423047 
L 190.966393 123.345637 
L 195.006618 123.47639 
L 199.046843 127.640256 
L 203.087068 134.488599 
L 207.127294 138.873851 
L 211.167519 141.760156 
L 215.207744 144.09434 
L 219.247969 144.492394 
L 223.288195 145.940793 
L 227.32842 146.011296 
L 231.368645 147.216936 
L 235.40887 147.610087 
L 239.449096 149.024524 
L 243.489321 149.346994 
L 247.529546 148.843791 
L 251.569771 148.286635 
L 255.609997 147.489618 
L 259.650222 145.829518 
L 263.690447 145.068144 
L 267.730673 142.526279 
L 271.770898 141.932023 
L 275.811123 141.611238 
L 279.851348 141.825134 
L 283.891574 142.876956 
L 287.931799 143.536482 
L 291.972024 145.771322 
L 296.012249 147.958062 
L 300.052475 148.749529 
L 304.0927 152.005049 
L 308.132925 149.557851 
L 312.17315 149.107223 
L 316.213376 143.132654 
L 320.253601 137.576008 
L 324.293826 130.756153 
L 328.334051 121.740803 
L 332.374277 114.478527 
L 336.414502 105.846374 
L 340.454727 99.349864 
L 344.494952 94.36919 
L 348.535178 90.126984 
L 352.575403 91.209083 
L 356.615628 90.95642 
L 360.655854 96.936287 
L 364.696079 103.295945 
L 368.736304 108.898654 
L 372.776529 117.057 
L 376.816755 119.087087 
L 380.85698 124.248288 
L 384.897205 123.323904 
L 388.93743 123.865829 
L 392.977656 123.933604 
L 397.017881 124.750114 
L 401.058106 127.948487 
L 405.098331 129.268488 
L 409.138557 127.931792 
L 413.178782 131.123614 
L 417.219007 133.961588 
L 421.259232 141.848557 
L 425.299458 148.938394 
L 429.339683 160.785552 
L 433.379908 171.859999 
L 437.420133 178.008558 
L 441.460359 186.660806 
L 445.500584 190.483648 
L 449.540809 194.935094 
L 453.581035 200.426503 
L 457.62126 203.613225 
L 461.661485 205.869257 
L 465.70171 206.252557 
L 469.741936 206.321401 
L 473.782161 206.11881 
L 477.822386 203.786016 
L 481.862611 206.220792 
L 485.902837 206.746335 
L 489.943062 209.812429 
L 493.983287 209.685459 
L 498.023512 211.683006 
L 502.063738 212.608917 
L 506.103963 214.099756 
L 510.144188 217.179454 
L 514.184413 217.65549 
L 518.224639 218.32029 
L 522.264864 217.239236 
L 526.305089 217.472234 
L 534.38554 216.264834 
" clip-path="url(#p307e4583ea)" style="fill: none; stroke: #009384; stroke-width: 2.5; stroke-linecap: square"/>
   </g>
   <g id="line2d_11">
    <path d="M 77.840085 227.625688 
L 81.88031 226.839384 
L 85.920536 226.350175 
L 89.960761 225.765073 
L 94.000986 223.967975 
L 98.041212 223.034527 
L 102.081437 221.584568 
L 106.121662 219.898981 
L 110.161887 219.799117 
L 114.202113 219.77428 
L 118.242338 219.432126 
L 122.282563 217.862775 
L 126.322788 215.148441 
L 130.363014 213.350149 
L 134.403239 208.958123 
L 138.443464 205.197877 
L 142.483689 200.201269 
L 146.523915 195.018399 
L 150.56414 189.391599 
L 154.604365 181.584303 
L 158.64459 173.79752 
L 162.684816 166.855323 
L 166.725041 159.645863 
L 170.765266 152.648068 
L 174.805492 145.159681 
L 178.845717 141.126387 
L 182.885942 138.491757 
L 186.926167 138.441394 
L 190.966393 140.078308 
L 195.006618 139.459594 
L 199.046843 143.11143 
L 203.087068 145.082538 
L 207.127294 144.164655 
L 211.167519 143.221662 
L 215.207744 141.314483 
L 219.247969 137.500939 
L 223.288195 131.46895 
L 227.32842 125.0608 
L 231.368645 115.899861 
L 235.40887 106.684825 
L 239.449096 99.720067 
L 243.489321 89.986934 
L 247.529546 82.633959 
L 251.569771 81.469974 
L 255.609997 82.188453 
L 259.650222 87.95876 
L 263.690447 94.140869 
L 267.730673 103.484189 
L 271.770898 113.81215 
L 275.811123 126.586454 
L 279.851348 138.533202 
L 283.891574 150.434051 
L 287.931799 160.683043 
L 291.972024 170.971976 
L 296.012249 178.493594 
L 300.052475 184.097898 
L 304.0927 187.189197 
L 308.132925 190.394473 
L 312.17315 193.704475 
L 316.213376 192.955719 
L 320.253601 191.651165 
L 324.293826 190.974587 
L 328.334051 189.226845 
L 332.374277 188.778747 
L 336.414502 187.475076 
L 340.454727 187.116682 
L 344.494952 187.668375 
L 348.535178 187.767113 
L 352.575403 190.174898 
L 356.615628 189.565082 
L 360.655854 193.671441 
L 364.696079 196.632244 
L 368.736304 199.748168 
L 372.776529 203.173013 
L 376.816755 207.072387 
L 380.85698 210.998665 
L 384.897205 212.971985 
L 388.93743 216.054882 
L 392.977656 219.061642 
L 397.017881 220.444487 
L 401.058106 223.168045 
L 405.098331 223.828857 
L 409.138557 225.22505 
L 413.178782 225.298511 
L 417.219007 226.181319 
L 421.259232 226.569268 
L 425.299458 226.681251 
L 429.339683 226.513479 
L 433.379908 225.880587 
L 437.420133 225.313649 
L 441.460359 224.98307 
L 445.500584 224.402079 
L 449.540809 224.237933 
L 453.581035 223.275708 
L 457.62126 222.49054 
L 461.661485 221.92158 
L 465.70171 219.097141 
L 469.741936 217.326797 
L 473.782161 216.13231 
L 477.822386 216.186098 
L 485.902837 214.509388 
L 493.983287 211.130707 
" clip-path="url(#p307e4583ea)" style="fill: none; stroke: #b85741; stroke-width: 2.5; stroke-linecap: square"/>
   </g>
   <g id="patch_3">
    <path d="M 55.012813 247.877344 
L 55.012813 26.117344 
" style="fill: none; stroke: #000000; stroke-width: 0.8; stroke-linejoin: miter; stroke-linecap: square"/>
   </g>
   <g id="patch_4">
    <path d="M 557.212813 247.877344 
L 557.212813 26.117344 
" style="fill: none; stroke: #000000; stroke-width: 0.8; stroke-linejoin: miter; stroke-linecap: square"/>
   </g>
   <g id="patch_5">
    <path d="M 55.012813 247.877344 
L 557.212813 247.877344 
" style="fill: none; stroke: #000000; stroke-width: 0.8; stroke-linejoin: miter; stroke-linecap: square"/>
   </g>
   <g id="patch_6">
    <path d="M 55.012813 26.117344 
L 557.212813 26.117344 
" style="fill: none; stroke: #000000; stroke-width: 0.8; stroke-linejoin: miter; stroke-linecap: square"/>
   </g>
   <g id="text_12">
    <!-- Live Migrate Many (CPU) -->
    <g transform="translate(201.418047 20.117344) scale(0.17 -0.17)">
     <defs>
      <path id="DejaVuSans-4c" d="M 628 4666 
L 1259 4666 
L 1259 531 
L 3531 531 
L 3531 0 
L 628 0 
L 628 4666 
z
" transform="scale(0.015625)"/>
      <path id="DejaVuSans-76" d="M 191 3500 
L 800 3500 
L 1894 563 
L 2988 3500 
L 3597 3500 
L 2284 0 
L 1503 0 
L 191 3500 
z
" transform="scale(0.015625)"/>
      <path id="DejaVuSans-4d" d="M 628 4666 
L 1569 4666 
L 2759 1491 
L 3956 4666 
L 4897 4666 
L 4897 0 
L 4281 0 
L 4281 4097 
L 3078 897 
L 2444 897 
L 1241 4097 
L 1241 0 
L 628 0 
L 628 4666 
z
" transform="scale(0.015625)"/>
      <path id="DejaVuSans-67" d="M 2906 1791 
Q 2906 2416 2648 2759 
Q 2391 3103 1925 3103 
Q 1463 3103 1205 2759 
Q 947 2416 947 1791 
Q 947 1169 1205 825 
Q 1463 481 1925 481 
Q 2391 481 2648 825 
Q 2906 1169 2906 1791 
z
M 3481 434 
Q 3481 -459 3084 -895 
Q 2688 -1331 1869 -1331 
Q 1566 -1331 1297 -1286 
Q 1028 -1241 775 -1147 
L 775 -588 
Q 1028 -725 1275 -790 
Q 1522 -856 1778 -856 
Q 2344 -856 2625 -561 
Q 2906 -266 2906 331 
L 2906 616 
Q 2728 306 2450 153 
Q 2172 0 1784 0 
Q 1141 0 747 490 
Q 353 981 353 1791 
Q 353 2603 747 3093 
Q 1141 3584 1784 3584 
Q 2172 3584 2450 3431 
Q 2728 3278 2906 2969 
L 2906 3500 
L 3481 3500 
L 3481 434 
z
" transform="scale(0.015625)"/>
      <path id="DejaVuSans-72" d="M 2631 2963 
Q 2534 3019 2420 3045 
Q 2306 3072 2169 3072 
Q 1681 3072 1420 2755 
Q 1159 2438 1159 1844 
L 1159 0 
L 581 0 
L 581 3500 
L 1159 3500 
L 1159 2956 
Q 1341 3275 1631 3429 
Q 1922 3584 2338 3584 
Q 2397 3584 2469 3576 
Q 2541 3569 2628 3553 
L 2631 2963 
z
" transform="scale(0.015625)"/>
      <path id="DejaVuSans-79" d="M 2059 -325 
Q 1816 -950 1584 -1140 
Q 1353 -1331 966 -1331 
L 506 -1331 
L 506 -850 
L 844 -850 
Q 1081 -850 1212 -737 
Q 1344 -625 1503 -206 
L 1606 56 
L 191 3500 
L 800 3500 
L 1894 763 
L 2988 3500 
L 3597 3500 
L 2059 -325 
z
" transform="scale(0.015625)"/>
      <path id="DejaVuSans-43" d="M 4122 4306 
L 4122 3641 
Q 3803 3938 3442 4084 
Q 3081 4231 2675 4231 
Q 1875 4231 1450 3742 
Q 1025 3253 1025 2328 
Q 1025 1406 1450 917 
Q 1875 428 2675 428 
Q 3081 428 3442 575 
Q 3803 722 4122 1019 
L 4122 359 
Q 3791 134 3420 21 
Q 3050 -91 2638 -91 
Q 1578 -91 968 557 
Q 359 1206 359 2328 
Q 359 3453 968 4101 
Q 1578 4750 2638 4750 
Q 3056 4750 3426 4639 
Q 3797 4528 4122 4306 
z
" transform="scale(0.015625)"/>
      <path id="DejaVuSans-50" d="M 1259 4147 
L 1259 2394 
L 2053 2394 
Q 2494 2394 2734 2622 
Q 2975 2850 2975 3272 
Q 2975 3691 2734 3919 
Q 2494 4147 2053 4147 
L 1259 4147 
z
M 628 4666 
L 2053 4666 
Q 2838 4666 3239 4311 
Q 3641 3956 3641 3272 
Q 3641 2581 3239 2228 
Q 2838 1875 2053 1875 
L 1259 1875 
L 1259 0 
L 628 0 
L 628 4666 
z
" transform="scale(0.015625)"/>
     </defs>
     <use xlink:href="#DejaVuSans-4c"/>
     <use xlink:href="#DejaVuSans-69" x="55.712891"/>
     <use xlink:href="#DejaVuSans-76" x="83.496094"/>
     <use xlink:href="#DejaVuSans-65" x="142.675781"/>
     <use xlink:href="#DejaVuSans-20" x="204.199219"/>
     <use xlink:href="#DejaVuSans-4d" x="235.986328"/>
     <use xlink:href="#DejaVuSans-69" x="322.265625"/>
     <use xlink:href="#DejaVuSans-67" x="350.048828"/>
     <use xlink:href="#DejaVuSans-72" x="413.525391"/>
     <use xlink:href="#DejaVuSans-61" x="454.638672"/>
     <use xlink:href="#DejaVuSans-74" x="515.917969"/>
     <use xlink:href="#DejaVuSans-65" x="555.126953"/>
     <use xlink:href="#DejaVuSans-20" x="616.650391"/>
     <use xlink:href="#DejaVuSans-4d" x="648.4375"/>
     <use xlink:href="#DejaVuSans-61" x="734.716797"/>
     <use xlink:href="#DejaVuSans-6e" x="795.996094"/>
     <use xlink:href="#DejaVuSans-79" x="859.375"/>
     <use xlink:href="#DejaVuSans-20" x="918.554688"/>
     <use xlink:href="#DejaVuSans-28" x="950.341797"/>
     <use xlink:href="#DejaVuSans-43" x="989.355469"/>
     <use xlink:href="#DejaVuSans-50" x="1059.179688"/>
     <use xlink:href="#DejaVuSans-55" x="1119.482422"/>
     <use xlink:href="#DejaVuSans-29" x="1192.675781"/>
    </g>
   </g>
   <g id="legend_1">
    <g id="patch_7">
     <path d="M 390.627813 85.887344 
L 546.012812 85.887344 
Q 549.212813 85.887344 549.212813 82.687344 
L 549.212813 37.317344 
Q 549.212813 34.117344 546.012812 34.117344 
L 390.627813 34.117344 
Q 387.427813 34.117344 387.427813 37.317344 
L 387.427813 82.687344 
Q 387.427813 85.887344 390.627813 85.887344 
z
" style="fill: #ffffff; opacity: 0.8; stroke: #cccccc; stroke-linejoin: miter"/>
    </g>
    <g id="line2d_12">
     <path d="M 393.827813 47.074844 
L 409.827813 47.074844 
L 425.827813 47.074844 
" style="fill: none; stroke: #009384; stroke-width: 2.5; stroke-linecap: square"/>
    </g>
    <g id="text_13">
     <!-- KubeVirt  -->
     <g transform="translate(438.627813 52.674844) scale(0.16 -0.16)">
      <defs>
       <path id="DejaVuSans-4b" d="M 628 4666 
L 1259 4666 
L 1259 2694 
L 3353 4666 
L 4166 4666 
L 1850 2491 
L 4331 0 
L 3500 0 
L 1259 2247 
L 1259 0 
L 628 0 
L 628 4666 
z
" transform="scale(0.015625)"/>
       <path id="DejaVuSans-75" d="M 544 1381 
L 544 3500 
L 1119 3500 
L 1119 1403 
Q 1119 906 1312 657 
Q 1506 409 1894 409 
Q 2359 409 2629 706 
Q 2900 1003 2900 1516 
L 2900 3500 
L 3475 3500 
L 3475 0 
L 2900 0 
L 2900 538 
Q 2691 219 2414 64 
Q 2138 -91 1772 -91 
Q 1169 -91 856 284 
Q 544 659 544 1381 
z
M 1991 3584 
L 1991 3584 
z
" transform="scale(0.015625)"/>
       <path id="DejaVuSans-62" d="M 3116 1747 
Q 3116 2381 2855 2742 
Q 2594 3103 2138 3103 
Q 1681 3103 1420 2742 
Q 1159 2381 1159 1747 
Q 1159 1113 1420 752 
Q 1681 391 2138 391 
Q 2594 391 2855 752 
Q 3116 1113 3116 1747 
z
M 1159 2969 
Q 1341 3281 1617 3432 
Q 1894 3584 2278 3584 
Q 2916 3584 3314 3078 
Q 3713 2572 3713 1747 
Q 3713 922 3314 415 
Q 2916 -91 2278 -91 
Q 1894 -91 1617 61 
Q 1341 213 1159 525 
L 1159 0 
L 581 0 
L 581 4863 
L 1159 4863 
L 1159 2969 
z
" transform="scale(0.015625)"/>
       <path id="DejaVuSans-56" d="M 1831 0 
L 50 4666 
L 709 4666 
L 2188 738 
L 3669 4666 
L 4325 4666 
L 2547 0 
L 1831 0 
z
" transform="scale(0.015625)"/>
      </defs>
      <use xlink:href="#DejaVuSans-4b"/>
      <use xlink:href="#DejaVuSans-75" x="60.576172"/>
      <use xlink:href="#DejaVuSans-62" x="123.955078"/>
      <use xlink:href="#DejaVuSans-65" x="187.431641"/>
      <use xlink:href="#DejaVuSans-56" x="248.955078"/>
      <use xlink:href="#DejaVuSans-69" x="315.113281"/>
      <use xlink:href="#DejaVuSans-72" x="342.896484"/>
      <use xlink:href="#DejaVuSans-74" x="384.009766"/>
      <use xlink:href="#DejaVuSans-20" x="423.21875"/>
     </g>
    </g>
    <g id="line2d_13">
     <path d="M 393.827813 70.559844 
L 409.827813 70.559844 
L 425.827813 70.559844 
" style="fill: none; stroke: #b85741; stroke-width: 2.5; stroke-linecap: square"/>
    </g>
    <g id="text_14">
     <!-- OpenNebula  -->
     <g transform="translate(438.627813 76.159844) scale(0.16 -0.16)">
      <defs>
       <path id="DejaVuSans-4f" d="M 2522 4238 
Q 1834 4238 1429 3725 
Q 1025 3213 1025 2328 
Q 1025 1447 1429 934 
Q 1834 422 2522 422 
Q 3209 422 3611 934 
Q 4013 1447 4013 2328 
Q 4013 3213 3611 3725 
Q 3209 4238 2522 4238 
z
M 2522 4750 
Q 3503 4750 4090 4092 
Q 4678 3434 4678 2328 
Q 4678 1225 4090 567 
Q 3503 -91 2522 -91 
Q 1538 -91 948 565 
Q 359 1222 359 2328 
Q 359 3434 948 4092 
Q 1538 4750 2522 4750 
z
" transform="scale(0.015625)"/>
       <path id="DejaVuSans-70" d="M 1159 525 
L 1159 -1331 
L 581 -1331 
L 581 3500 
L 1159 3500 
L 1159 2969 
Q 1341 3281 1617 3432 
Q 1894 3584 2278 3584 
Q 2916 3584 3314 3078 
Q 3713 2572 3713 1747 
Q 3713 922 3314 415 
Q 2916 -91 2278 -91 
Q 1894 -91 1617 61 
Q 1341 213 1159 525 
z
M 3116 1747 
Q 3116 2381 2855 2742 
Q 2594 3103 2138 3103 
Q 1681 3103 1420 2742 
Q 1159 2381 1159 1747 
Q 1159 1113 1420 752 
Q 1681 391 2138 391 
Q 2594 391 2855 752 
Q 3116 1113 3116 1747 
z
" transform="scale(0.015625)"/>
       <path id="DejaVuSans-4e" d="M 628 4666 
L 1478 4666 
L 3547 763 
L 3547 4666 
L 4159 4666 
L 4159 0 
L 3309 0 
L 1241 3903 
L 1241 0 
L 628 0 
L 628 4666 
z
" transform="scale(0.015625)"/>
      </defs>
      <use xlink:href="#DejaVuSans-4f"/>
      <use xlink:href="#DejaVuSans-70" x="78.710938"/>
      <use xlink:href="#DejaVuSans-65" x="142.1875"/>
      <use xlink:href="#DejaVuSans-6e" x="203.710938"/>
      <use xlink:href="#DejaVuSans-4e" x="267.089844"/>
      <use xlink:href="#DejaVuSans-65" x="341.894531"/>
      <use xlink:href="#DejaVuSans-62" x="403.417969"/>
      <use xlink:href="#DejaVuSans-75" x="466.894531"/>
      <use xlink:href="#DejaVuSans-6c" x="530.273438"/>
      <use xlink:href="#DejaVuSans-61" x="558.056641"/>
      <use xlink:href="#DejaVuSans-20" x="619.335938"/>
     </g>
    </g>
   </g>
  </g>
 </g>
 <defs>
  <clipPath id="p307e4583ea">
   <rect x="55.012813" y="26.117344" width="502.2" height="221.76"/>
  </clipPath>
 </defs>
</svg>
