<?xml version="1.0" encoding="utf-8" standalone="no"?>
<!DOCTYPE svg PUBLIC "-//W3C//DTD SVG 1.1//EN"
  "http://www.w3.org/Graphics/SVG/1.1/DTD/svg11.dtd">
<svg xmlns:xlink="http://www.w3.org/1999/xlink" width="555.451562pt" height="287.233281pt" viewBox="0 0 555.451562 287.233281" xmlns="http://www.w3.org/2000/svg" version="1.1">
 <metadata>
  <rdf:RDF xmlns:dc="http://purl.org/dc/elements/1.1/" xmlns:cc="http://creativecommons.org/ns#" xmlns:rdf="http://www.w3.org/1999/02/22-rdf-syntax-ns#">
   <cc:Work>
    <dc:type rdf:resource="http://purl.org/dc/dcmitype/StillImage"/>
    <dc:date>2024-05-21T10:08:08.116423</dc:date>
    <dc:format>image/svg+xml</dc:format>
    <dc:creator>
     <cc:Agent>
      <dc:title>Matplotlib v3.8.4, https://matplotlib.org/</dc:title>
     </cc:Agent>
    </dc:creator>
   </cc:Work>
  </rdf:RDF>
 </metadata>
 <defs>
  <style type="text/css">*{stroke-linejoin: round; stroke-linecap: butt}</style>
 </defs>
 <g id="figure_1">
  <g id="patch_1">
   <path d="M 0 287.233281 
L 555.451562 287.233281 
L 555.451562 0 
L 0 0 
z
" style="fill: #f3f7f8"/>
  </g>
  <g id="axes_1">
   <g id="patch_2">
    <path d="M 46.051562 244.837969 
L 548.251563 244.837969 
L 548.251563 23.077969 
L 46.051562 23.077969 
z
" style="fill: #ffffff"/>
   </g>
   <g id="matplotlib.axis_1">
    <g id="xtick_1">
     <g id="line2d_1">
      <defs>
       <path id="m0dfeebeab7" d="M 0 0 
L 0 3.5 
" style="stroke: #000000; stroke-width: 0.8"/>
      </defs>
      <g>
       <use xlink:href="#m0dfeebeab7" x="84.375994" y="244.837969" style="stroke: #000000; stroke-width: 0.8"/>
      </g>
     </g>
     <g id="text_1">
      <!-- 0 -->
      <g transform="translate(80.558494 260.956094) scale(0.12 -0.12)">
       <defs>
        <path id="DejaVuSans-30" d="M 2034 4250 
Q 1547 4250 1301 3770 
Q 1056 3291 1056 2328 
Q 1056 1369 1301 889 
Q 1547 409 2034 409 
Q 2525 409 2770 889 
Q 3016 1369 3016 2328 
Q 3016 3291 2770 3770 
Q 2525 4250 2034 4250 
z
M 2034 4750 
Q 2819 4750 3233 4129 
Q 3647 3509 3647 2328 
Q 3647 1150 3233 529 
Q 2819 -91 2034 -91 
Q 1250 -91 836 529 
Q 422 1150 422 2328 
Q 422 3509 836 4129 
Q 1250 4750 2034 4750 
z
" transform="scale(0.015625)"/>
       </defs>
       <use xlink:href="#DejaVuSans-30"/>
      </g>
     </g>
    </g>
    <g id="xtick_2">
     <g id="line2d_2">
      <g>
       <use xlink:href="#m0dfeebeab7" x="162.417952" y="244.837969" style="stroke: #000000; stroke-width: 0.8"/>
      </g>
     </g>
     <g id="text_2">
      <!-- 20 -->
      <g transform="translate(154.782952 260.956094) scale(0.12 -0.12)">
       <defs>
        <path id="DejaVuSans-32" d="M 1228 531 
L 3431 531 
L 3431 0 
L 469 0 
L 469 531 
Q 828 903 1448 1529 
Q 2069 2156 2228 2338 
Q 2531 2678 2651 2914 
Q 2772 3150 2772 3378 
Q 2772 3750 2511 3984 
Q 2250 4219 1831 4219 
Q 1534 4219 1204 4116 
Q 875 4013 500 3803 
L 500 4441 
Q 881 4594 1212 4672 
Q 1544 4750 1819 4750 
Q 2544 4750 2975 4387 
Q 3406 4025 3406 3419 
Q 3406 3131 3298 2873 
Q 3191 2616 2906 2266 
Q 2828 2175 2409 1742 
Q 1991 1309 1228 531 
z
" transform="scale(0.015625)"/>
       </defs>
       <use xlink:href="#DejaVuSans-32"/>
       <use xlink:href="#DejaVuSans-30" x="63.623047"/>
      </g>
     </g>
    </g>
    <g id="xtick_3">
     <g id="line2d_3">
      <g>
       <use xlink:href="#m0dfeebeab7" x="240.45991" y="244.837969" style="stroke: #000000; stroke-width: 0.8"/>
      </g>
     </g>
     <g id="text_3">
      <!-- 40 -->
      <g transform="translate(232.82491 260.956094) scale(0.12 -0.12)">
       <defs>
        <path id="DejaVuSans-34" d="M 2419 4116 
L 825 1625 
L 2419 1625 
L 2419 4116 
z
M 2253 4666 
L 3047 4666 
L 3047 1625 
L 3713 1625 
L 3713 1100 
L 3047 1100 
L 3047 0 
L 2419 0 
L 2419 1100 
L 313 1100 
L 313 1709 
L 2253 4666 
z
" transform="scale(0.015625)"/>
       </defs>
       <use xlink:href="#DejaVuSans-34"/>
       <use xlink:href="#DejaVuSans-30" x="63.623047"/>
      </g>
     </g>
    </g>
    <g id="xtick_4">
     <g id="line2d_4">
      <g>
       <use xlink:href="#m0dfeebeab7" x="318.501868" y="244.837969" style="stroke: #000000; stroke-width: 0.8"/>
      </g>
     </g>
     <g id="text_4">
      <!-- 60 -->
      <g transform="translate(310.866868 260.956094) scale(0.12 -0.12)">
       <defs>
        <path id="DejaVuSans-36" d="M 2113 2584 
Q 1688 2584 1439 2293 
Q 1191 2003 1191 1497 
Q 1191 994 1439 701 
Q 1688 409 2113 409 
Q 2538 409 2786 701 
Q 3034 994 3034 1497 
Q 3034 2003 2786 2293 
Q 2538 2584 2113 2584 
z
M 3366 4563 
L 3366 3988 
Q 3128 4100 2886 4159 
Q 2644 4219 2406 4219 
Q 1781 4219 1451 3797 
Q 1122 3375 1075 2522 
Q 1259 2794 1537 2939 
Q 1816 3084 2150 3084 
Q 2853 3084 3261 2657 
Q 3669 2231 3669 1497 
Q 3669 778 3244 343 
Q 2819 -91 2113 -91 
Q 1303 -91 875 529 
Q 447 1150 447 2328 
Q 447 3434 972 4092 
Q 1497 4750 2381 4750 
Q 2619 4750 2861 4703 
Q 3103 4656 3366 4563 
z
" transform="scale(0.015625)"/>
       </defs>
       <use xlink:href="#DejaVuSans-36"/>
       <use xlink:href="#DejaVuSans-30" x="63.623047"/>
      </g>
     </g>
    </g>
    <g id="xtick_5">
     <g id="line2d_5">
      <g>
       <use xlink:href="#m0dfeebeab7" x="396.543826" y="244.837969" style="stroke: #000000; stroke-width: 0.8"/>
      </g>
     </g>
     <g id="text_5">
      <!-- 80 -->
      <g transform="translate(388.908826 260.956094) scale(0.12 -0.12)">
       <defs>
        <path id="DejaVuSans-38" d="M 2034 2216 
Q 1584 2216 1326 1975 
Q 1069 1734 1069 1313 
Q 1069 891 1326 650 
Q 1584 409 2034 409 
Q 2484 409 2743 651 
Q 3003 894 3003 1313 
Q 3003 1734 2745 1975 
Q 2488 2216 2034 2216 
z
M 1403 2484 
Q 997 2584 770 2862 
Q 544 3141 544 3541 
Q 544 4100 942 4425 
Q 1341 4750 2034 4750 
Q 2731 4750 3128 4425 
Q 3525 4100 3525 3541 
Q 3525 3141 3298 2862 
Q 3072 2584 2669 2484 
Q 3125 2378 3379 2068 
Q 3634 1759 3634 1313 
Q 3634 634 3220 271 
Q 2806 -91 2034 -91 
Q 1263 -91 848 271 
Q 434 634 434 1313 
Q 434 1759 690 2068 
Q 947 2378 1403 2484 
z
M 1172 3481 
Q 1172 3119 1398 2916 
Q 1625 2713 2034 2713 
Q 2441 2713 2670 2916 
Q 2900 3119 2900 3481 
Q 2900 3844 2670 4047 
Q 2441 4250 2034 4250 
Q 1625 4250 1398 4047 
Q 1172 3844 1172 3481 
z
" transform="scale(0.015625)"/>
       </defs>
       <use xlink:href="#DejaVuSans-38"/>
       <use xlink:href="#DejaVuSans-30" x="63.623047"/>
      </g>
     </g>
    </g>
    <g id="xtick_6">
     <g id="line2d_6">
      <g>
       <use xlink:href="#m0dfeebeab7" x="474.585784" y="244.837969" style="stroke: #000000; stroke-width: 0.8"/>
      </g>
     </g>
     <g id="text_6">
      <!-- 100 -->
      <g transform="translate(463.133284 260.956094) scale(0.12 -0.12)">
       <defs>
        <path id="DejaVuSans-31" d="M 794 531 
L 1825 531 
L 1825 4091 
L 703 3866 
L 703 4441 
L 1819 4666 
L 2450 4666 
L 2450 531 
L 3481 531 
L 3481 0 
L 794 0 
L 794 531 
z
" transform="scale(0.015625)"/>
       </defs>
       <use xlink:href="#DejaVuSans-31"/>
       <use xlink:href="#DejaVuSans-30" x="63.623047"/>
       <use xlink:href="#DejaVuSans-30" x="127.246094"/>
      </g>
     </g>
    </g>
    <g id="text_7">
     <!-- Time (s) -->
     <g transform="translate(270.723984 277.329687) scale(0.13 -0.13)">
      <defs>
       <path id="DejaVuSans-54" d="M -19 4666 
L 3928 4666 
L 3928 4134 
L 2272 4134 
L 2272 0 
L 1638 0 
L 1638 4134 
L -19 4134 
L -19 4666 
z
" transform="scale(0.015625)"/>
       <path id="DejaVuSans-69" d="M 603 3500 
L 1178 3500 
L 1178 0 
L 603 0 
L 603 3500 
z
M 603 4863 
L 1178 4863 
L 1178 4134 
L 603 4134 
L 603 4863 
z
" transform="scale(0.015625)"/>
       <path id="DejaVuSans-6d" d="M 3328 2828 
Q 3544 3216 3844 3400 
Q 4144 3584 4550 3584 
Q 5097 3584 5394 3201 
Q 5691 2819 5691 2113 
L 5691 0 
L 5113 0 
L 5113 2094 
Q 5113 2597 4934 2840 
Q 4756 3084 4391 3084 
Q 3944 3084 3684 2787 
Q 3425 2491 3425 1978 
L 3425 0 
L 2847 0 
L 2847 2094 
Q 2847 2600 2669 2842 
Q 2491 3084 2119 3084 
Q 1678 3084 1418 2786 
Q 1159 2488 1159 1978 
L 1159 0 
L 581 0 
L 581 3500 
L 1159 3500 
L 1159 2956 
Q 1356 3278 1631 3431 
Q 1906 3584 2284 3584 
Q 2666 3584 2933 3390 
Q 3200 3197 3328 2828 
z
" transform="scale(0.015625)"/>
       <path id="DejaVuSans-65" d="M 3597 1894 
L 3597 1613 
L 953 1613 
Q 991 1019 1311 708 
Q 1631 397 2203 397 
Q 2534 397 2845 478 
Q 3156 559 3463 722 
L 3463 178 
Q 3153 47 2828 -22 
Q 2503 -91 2169 -91 
Q 1331 -91 842 396 
Q 353 884 353 1716 
Q 353 2575 817 3079 
Q 1281 3584 2069 3584 
Q 2775 3584 3186 3129 
Q 3597 2675 3597 1894 
z
M 3022 2063 
Q 3016 2534 2758 2815 
Q 2500 3097 2075 3097 
Q 1594 3097 1305 2825 
Q 1016 2553 972 2059 
L 3022 2063 
z
" transform="scale(0.015625)"/>
       <path id="DejaVuSans-20" transform="scale(0.015625)"/>
       <path id="DejaVuSans-28" d="M 1984 4856 
Q 1566 4138 1362 3434 
Q 1159 2731 1159 2009 
Q 1159 1288 1364 580 
Q 1569 -128 1984 -844 
L 1484 -844 
Q 1016 -109 783 600 
Q 550 1309 550 2009 
Q 550 2706 781 3412 
Q 1013 4119 1484 4856 
L 1984 4856 
z
" transform="scale(0.015625)"/>
       <path id="DejaVuSans-73" d="M 2834 3397 
L 2834 2853 
Q 2591 2978 2328 3040 
Q 2066 3103 1784 3103 
Q 1356 3103 1142 2972 
Q 928 2841 928 2578 
Q 928 2378 1081 2264 
Q 1234 2150 1697 2047 
L 1894 2003 
Q 2506 1872 2764 1633 
Q 3022 1394 3022 966 
Q 3022 478 2636 193 
Q 2250 -91 1575 -91 
Q 1294 -91 989 -36 
Q 684 19 347 128 
L 347 722 
Q 666 556 975 473 
Q 1284 391 1588 391 
Q 1994 391 2212 530 
Q 2431 669 2431 922 
Q 2431 1156 2273 1281 
Q 2116 1406 1581 1522 
L 1381 1569 
Q 847 1681 609 1914 
Q 372 2147 372 2553 
Q 372 3047 722 3315 
Q 1072 3584 1716 3584 
Q 2034 3584 2315 3537 
Q 2597 3491 2834 3397 
z
" transform="scale(0.015625)"/>
       <path id="DejaVuSans-29" d="M 513 4856 
L 1013 4856 
Q 1481 4119 1714 3412 
Q 1947 2706 1947 2009 
Q 1947 1309 1714 600 
Q 1481 -109 1013 -844 
L 513 -844 
Q 928 -128 1133 580 
Q 1338 1288 1338 2009 
Q 1338 2731 1133 3434 
Q 928 4138 513 4856 
z
" transform="scale(0.015625)"/>
      </defs>
      <use xlink:href="#DejaVuSans-54"/>
      <use xlink:href="#DejaVuSans-69" x="57.958984"/>
      <use xlink:href="#DejaVuSans-6d" x="85.742188"/>
      <use xlink:href="#DejaVuSans-65" x="183.154297"/>
      <use xlink:href="#DejaVuSans-20" x="244.677734"/>
      <use xlink:href="#DejaVuSans-28" x="276.464844"/>
      <use xlink:href="#DejaVuSans-73" x="315.478516"/>
      <use xlink:href="#DejaVuSans-29" x="367.578125"/>
     </g>
    </g>
   </g>
   <g id="matplotlib.axis_2">
    <g id="ytick_1">
     <g id="line2d_7">
      <defs>
       <path id="mec522d826c" d="M 0 0 
L -3.5 0 
" style="stroke: #000000; stroke-width: 0.8"/>
      </defs>
      <g>
       <use xlink:href="#mec522d826c" x="46.051562" y="239.717925" style="stroke: #000000; stroke-width: 0.8"/>
      </g>
     </g>
     <g id="text_8">
      <!-- 0 -->
      <g transform="translate(31.416562 244.276988) scale(0.12 -0.12)">
       <use xlink:href="#DejaVuSans-30"/>
      </g>
     </g>
    </g>
    <g id="ytick_2">
     <g id="line2d_8">
      <g>
       <use xlink:href="#mec522d826c" x="46.051562" y="191.217701" style="stroke: #000000; stroke-width: 0.8"/>
      </g>
     </g>
     <g id="text_9">
      <!-- 20 -->
      <g transform="translate(23.781562 195.776763) scale(0.12 -0.12)">
       <use xlink:href="#DejaVuSans-32"/>
       <use xlink:href="#DejaVuSans-30" x="63.623047"/>
      </g>
     </g>
    </g>
    <g id="ytick_3">
     <g id="line2d_9">
      <g>
       <use xlink:href="#mec522d826c" x="46.051562" y="142.717477" style="stroke: #000000; stroke-width: 0.8"/>
      </g>
     </g>
     <g id="text_10">
      <!-- 40 -->
      <g transform="translate(23.781562 147.276539) scale(0.12 -0.12)">
       <use xlink:href="#DejaVuSans-34"/>
       <use xlink:href="#DejaVuSans-30" x="63.623047"/>
      </g>
     </g>
    </g>
    <g id="ytick_4">
     <g id="line2d_10">
      <g>
       <use xlink:href="#mec522d826c" x="46.051562" y="94.217252" style="stroke: #000000; stroke-width: 0.8"/>
      </g>
     </g>
     <g id="text_11">
      <!-- 60 -->
      <g transform="translate(23.781562 98.776315) scale(0.12 -0.12)">
       <use xlink:href="#DejaVuSans-36"/>
       <use xlink:href="#DejaVuSans-30" x="63.623047"/>
      </g>
     </g>
    </g>
    <g id="ytick_5">
     <g id="line2d_11">
      <g>
       <use xlink:href="#mec522d826c" x="46.051562" y="45.717028" style="stroke: #000000; stroke-width: 0.8"/>
      </g>
     </g>
     <g id="text_12">
      <!-- 80 -->
      <g transform="translate(23.781562 50.276091) scale(0.12 -0.12)">
       <use xlink:href="#DejaVuSans-38"/>
       <use xlink:href="#DejaVuSans-30" x="63.623047"/>
      </g>
     </g>
    </g>
    <g id="text_13">
     <!-- Utilization (%) -->
     <g transform="translate(17.077969 179.839844) rotate(-90) scale(0.13 -0.13)">
      <defs>
       <path id="DejaVuSans-55" d="M 556 4666 
L 1191 4666 
L 1191 1831 
Q 1191 1081 1462 751 
Q 1734 422 2344 422 
Q 2950 422 3222 751 
Q 3494 1081 3494 1831 
L 3494 4666 
L 4128 4666 
L 4128 1753 
Q 4128 841 3676 375 
Q 3225 -91 2344 -91 
Q 1459 -91 1007 375 
Q 556 841 556 1753 
L 556 4666 
z
" transform="scale(0.015625)"/>
       <path id="DejaVuSans-74" d="M 1172 4494 
L 1172 3500 
L 2356 3500 
L 2356 3053 
L 1172 3053 
L 1172 1153 
Q 1172 725 1289 603 
Q 1406 481 1766 481 
L 2356 481 
L 2356 0 
L 1766 0 
Q 1100 0 847 248 
Q 594 497 594 1153 
L 594 3053 
L 172 3053 
L 172 3500 
L 594 3500 
L 594 4494 
L 1172 4494 
z
" transform="scale(0.015625)"/>
       <path id="DejaVuSans-6c" d="M 603 4863 
L 1178 4863 
L 1178 0 
L 603 0 
L 603 4863 
z
" transform="scale(0.015625)"/>
       <path id="DejaVuSans-7a" d="M 353 3500 
L 3084 3500 
L 3084 2975 
L 922 459 
L 3084 459 
L 3084 0 
L 275 0 
L 275 525 
L 2438 3041 
L 353 3041 
L 353 3500 
z
" transform="scale(0.015625)"/>
       <path id="DejaVuSans-61" d="M 2194 1759 
Q 1497 1759 1228 1600 
Q 959 1441 959 1056 
Q 959 750 1161 570 
Q 1363 391 1709 391 
Q 2188 391 2477 730 
Q 2766 1069 2766 1631 
L 2766 1759 
L 2194 1759 
z
M 3341 1997 
L 3341 0 
L 2766 0 
L 2766 531 
Q 2569 213 2275 61 
Q 1981 -91 1556 -91 
Q 1019 -91 701 211 
Q 384 513 384 1019 
Q 384 1609 779 1909 
Q 1175 2209 1959 2209 
L 2766 2209 
L 2766 2266 
Q 2766 2663 2505 2880 
Q 2244 3097 1772 3097 
Q 1472 3097 1187 3025 
Q 903 2953 641 2809 
L 641 3341 
Q 956 3463 1253 3523 
Q 1550 3584 1831 3584 
Q 2591 3584 2966 3190 
Q 3341 2797 3341 1997 
z
" transform="scale(0.015625)"/>
       <path id="DejaVuSans-6f" d="M 1959 3097 
Q 1497 3097 1228 2736 
Q 959 2375 959 1747 
Q 959 1119 1226 758 
Q 1494 397 1959 397 
Q 2419 397 2687 759 
Q 2956 1122 2956 1747 
Q 2956 2369 2687 2733 
Q 2419 3097 1959 3097 
z
M 1959 3584 
Q 2709 3584 3137 3096 
Q 3566 2609 3566 1747 
Q 3566 888 3137 398 
Q 2709 -91 1959 -91 
Q 1206 -91 779 398 
Q 353 888 353 1747 
Q 353 2609 779 3096 
Q 1206 3584 1959 3584 
z
" transform="scale(0.015625)"/>
       <path id="DejaVuSans-6e" d="M 3513 2113 
L 3513 0 
L 2938 0 
L 2938 2094 
Q 2938 2591 2744 2837 
Q 2550 3084 2163 3084 
Q 1697 3084 1428 2787 
Q 1159 2491 1159 1978 
L 1159 0 
L 581 0 
L 581 3500 
L 1159 3500 
L 1159 2956 
Q 1366 3272 1645 3428 
Q 1925 3584 2291 3584 
Q 2894 3584 3203 3211 
Q 3513 2838 3513 2113 
z
" transform="scale(0.015625)"/>
       <path id="DejaVuSans-25" d="M 4653 2053 
Q 4381 2053 4226 1822 
Q 4072 1591 4072 1178 
Q 4072 772 4226 539 
Q 4381 306 4653 306 
Q 4919 306 5073 539 
Q 5228 772 5228 1178 
Q 5228 1588 5073 1820 
Q 4919 2053 4653 2053 
z
M 4653 2450 
Q 5147 2450 5437 2106 
Q 5728 1763 5728 1178 
Q 5728 594 5436 251 
Q 5144 -91 4653 -91 
Q 4153 -91 3862 251 
Q 3572 594 3572 1178 
Q 3572 1766 3864 2108 
Q 4156 2450 4653 2450 
z
M 1428 4353 
Q 1159 4353 1004 4120 
Q 850 3888 850 3481 
Q 850 3069 1003 2837 
Q 1156 2606 1428 2606 
Q 1700 2606 1854 2837 
Q 2009 3069 2009 3481 
Q 2009 3884 1853 4118 
Q 1697 4353 1428 4353 
z
M 4250 4750 
L 4750 4750 
L 1831 -91 
L 1331 -91 
L 4250 4750 
z
M 1428 4750 
Q 1922 4750 2215 4408 
Q 2509 4066 2509 3481 
Q 2509 2891 2217 2550 
Q 1925 2209 1428 2209 
Q 931 2209 642 2551 
Q 353 2894 353 3481 
Q 353 4063 643 4406 
Q 934 4750 1428 4750 
z
" transform="scale(0.015625)"/>
      </defs>
      <use xlink:href="#DejaVuSans-55"/>
      <use xlink:href="#DejaVuSans-74" x="73.193359"/>
      <use xlink:href="#DejaVuSans-69" x="112.402344"/>
      <use xlink:href="#DejaVuSans-6c" x="140.185547"/>
      <use xlink:href="#DejaVuSans-69" x="167.96875"/>
      <use xlink:href="#DejaVuSans-7a" x="195.751953"/>
      <use xlink:href="#DejaVuSans-61" x="248.242188"/>
      <use xlink:href="#DejaVuSans-74" x="309.521484"/>
      <use xlink:href="#DejaVuSans-69" x="348.730469"/>
      <use xlink:href="#DejaVuSans-6f" x="376.513672"/>
      <use xlink:href="#DejaVuSans-6e" x="437.695312"/>
      <use xlink:href="#DejaVuSans-20" x="501.074219"/>
      <use xlink:href="#DejaVuSans-28" x="532.861328"/>
      <use xlink:href="#DejaVuSans-25" x="571.875"/>
      <use xlink:href="#DejaVuSans-29" x="666.894531"/>
     </g>
    </g>
   </g>
   <g id="line2d_12">
    <path d="M 68.878835 226.97553 
L 75.306691 226.760051 
L 76.683031 226.862456 
L 77.182234 226.780421 
L 77.215277 226.903611 
L 77.440346 226.869384 
L 78.059367 226.902226 
L 79.336953 226.779589 
L 79.348308 226.278374 
L 81.990052 223.193621 
L 83.063199 219.560539 
L 84.487227 214.242004 
L 84.98643 211.244829 
L 85.019473 205.53857 
L 85.244542 201.797817 
L 85.863563 196.484825 
L 87.012985 191.676374 
L 87.141149 186.341488 
L 87.152504 181.015471 
L 92.790626 175.738646 
L 93.048738 170.845667 
L 93.667759 166.896086 
L 93.696346 161.904858 
L 94.769493 156.38484 
L 94.9567 143.608079 
L 96.193521 138.191297 
L 96.725767 133.045701 
L 100.594822 131.508659 
L 100.852934 126.526439 
L 101.471955 122.188302 
L 101.500541 117.424333 
L 102.573689 115.218681 
L 102.749541 110.464135 
L 103.997716 106.316811 
L 104.529963 101.81599 
L 106.662994 97.813198 
L 108.399017 93.417276 
L 108.65713 89.230182 
L 109.304737 87.388975 
L 110.377884 82.088316 
L 110.425572 78.325669 
L 111.801912 79.857999 
L 113.178248 79.498682 
L 114.455834 80.209695 
L 114.467189 79.418864 
L 116.236256 81.563267 
L 117.108933 82.144022 
L 118.18208 83.493991 
L 118.229768 84.68197 
L 119.606108 87.497754 
L 120.363423 91.651175 
L 120.982444 93.428223 
L 122.26003 93.612801 
L 122.271385 94.951546 
L 124.040452 96.197863 
L 124.913129 96.53099 
L 127.909507 99.510013 
L 128.167619 98.086739 
L 128.78664 99.061455 
L 129.888374 100.327311 
L 129.936061 97.62086 
L 130.064226 98.470168 
L 131.312402 98.615946 
L 131.844648 99.060623 
L 133.977679 96.982874 
L 135.713703 97.088743 
L 135.971815 95.00157 
L 136.590836 95.264719 
L 136.619423 96.066497 
L 137.69257 96.514777 
L 137.868422 98.264527 
L 139.116597 96.341424 
L 141.781875 97.626957 
L 143.517899 99.629462 
L 143.550942 96.809243 
L 144.423618 97.329997 
L 145.496766 96.903333 
L 145.544453 97.749177 
L 146.920793 96.960425 
L 148.29713 96.820745 
L 149.574715 96.454914 
L 149.586071 94.979537 
L 151.322094 92.944191 
L 151.355137 93.286602 
L 151.580206 92.789544 
L 152.227814 94.169999 
L 153.300961 93.839228 
L 153.348649 95.046191 
L 154.724989 95.565004 
L 156.101325 92.869223 
L 157.378911 93.103133 
L 157.390266 93.488779 
L 159.159333 93.854748 
L 161.152845 93.401617 
L 163.2865 93.34605 
L 163.905521 92.667324 
L 165.183107 94.920367 
L 165.194462 94.313837 
L 166.431283 95.370311 
L 166.963529 95.335529 
L 170.832584 94.805075 
L 171.090696 94.582944 
L 171.709717 94.21947 
L 171.738304 94.959444 
L 172.811451 93.605734 
L 172.859138 95.825658 
L 174.235479 94.704888 
L 176.889401 94.948359 
L 176.900756 95.120742 
L 178.63678 94.651814 
L 178.669823 95.802656 
L 178.894892 96.341701 
L 179.5425 96.315372 
L 180.615647 96.486093 
L 180.663334 98.039624 
L 183.416011 99.707339 
L 184.693597 98.277137 
L 184.704952 99.829283 
L 186.440975 99.958709 
L 186.474018 101.383507 
L 186.699088 103.176491 
L 187.346695 104.42849 
L 188.419842 107.067456 
L 188.46753 108.364629 
L 189.84387 109.571453 
L 191.220206 111.236674 
L 192.509147 112.498373 
L 194.245171 115.130133 
L 194.278214 117.251256 
L 195.150891 119.145121 
L 196.224038 118.813102 
L 196.271726 120.90748 
L 196.39989 120.775698 
L 197.648066 121.187119 
L 199.024402 124.705879 
L 202.049367 127.109827 
L 202.08241 128.443445 
L 202.955087 130.133054 
L 204.028234 130.262342 
L 204.215441 138.678378 
L 205.452262 138.505579 
L 206.209577 139.393687 
L 206.828598 140.298285 
L 209.886606 142.160833 
L 210.759283 144.171098 
L 211.880117 144.808668 
L 212.008282 145.974613 
L 213.755661 147.300055 
L 214.013773 148.979964 
L 215.734528 149.874447 
L 215.921735 152.201488 
L 217.690802 154.484324 
L 218.534892 155.396544 
L 218.563479 155.096535 
L 219.812478 155.794384 
L 221.559857 157.721367 
L 221.817969 158.417692 
L 223.586411 159.576016 
L 224.962751 160.371974 
L 225.494997 161.210889 
L 227.616673 161.872709 
L 227.628029 163.945748 
L 229.364052 166.324476 
L 229.622164 165.96308 
L 230.269772 167.750382 
L 231.342919 168.186469 
L 231.390607 168.928938 
L 232.766947 169.171578 
L 234.143283 170.134653 
L 235.420869 171.416168 
L 235.432224 173.289662 
L 237.168248 169.62554 
L 237.201291 171.549474 
L 237.42636 170.87061 
L 238.073968 172.496753 
L 239.147115 172.208662 
L 239.194803 172.859257 
L 240.571143 173.441122 
L 241.947479 173.800439 
L 243.225065 172.885309 
L 245.005487 174.519489 
L 245.230556 170.870194 
L 245.878164 167.020246 
L 246.951311 164.187002 
L 246.998999 160.567776 
L 247.138518 159.276007 
L 248.375339 159.755605 
L 248.874542 156.601705 
L 249.751675 153.460969 
L 252.809683 155.202404 
L 253.68236 152.311237 
L 254.755507 149.829411 
L 254.942714 142.761958 
L 256.179535 139.278949 
L 256.678738 135.222945 
L 256.93685 131.238859 
L 261.457969 128.438041 
L 262.559703 123.985443 
L 262.74691 117.277446 
L 264.515976 114.974656 
L 264.741046 112.657315 
L 265.388653 110.349951 
L 267.885828 109.724991 
L 268.385031 107.171524 
L 269.262165 105.563395 
L 270.53975 103.977992 
L 270.551105 102.109209 
L 272.320172 98.283234 
L 272.545241 96.666375 
L 273.192849 94.224043 
L 274.265996 92.917446 
L 274.313684 89.668901 
L 276.189227 90.949307 
L 277.06636 90.485922 
L 278.343946 91.660182 
L 278.355301 91.043675 
L 280.124368 88.14932 
L 280.349437 89.449958 
L 282.070192 89.845165 
L 282.11788 85.632436 
L 283.49422 85.787636 
L 283.993423 85.705325 
L 284.870556 86.498234 
L 284.899143 86.293286 
L 287.928564 86.26571 
L 288.153633 88.878764 
L 289.874388 90.718308 
L 290.05024 93.214545 
L 290.061595 92.994077 
L 291.298416 93.696914 
L 291.797619 92.872549 
L 292.703339 91.112961 
L 296.57685 90.915912 
L 297.726271 90.075333 
L 297.854436 88.081143 
L 297.865791 89.071379 
L 299.102611 88.646794 
L 299.634858 88.589009 
L 299.859927 87.183473 
L 300.507534 87.078574 
L 301.580682 87.967929 
L 303.503913 87.284353 
L 304.381046 87.587688 
L 305.658631 87.376365 
L 307.439053 87.692309 
L 307.664123 87.069567 
L 309.432565 87.83878 
L 309.572085 87.40602 
L 310.808905 87.908066 
L 311.308108 86.153051 
L 312.185241 86.462344 
L 313.462827 87.838642 
L 315.243249 88.251725 
L 316.115926 87.958645 
L 317.189073 86.458602 
L 317.37628 84.228285 
L 318.613101 82.423799 
L 319.370416 80.511366 
L 319.989437 79.431751 
L 321.267023 79.535542 
L 323.047445 79.20768 
L 325.040957 81.04085 
L 325.180476 81.441878 
L 326.9165 81.720962 
L 327.174612 82.158711 
L 327.82222 81.449222 
L 328.895367 81.239285 
L 331.695731 82.253217 
L 332.973317 82.296036 
L 332.984672 81.350974 
L 334.720696 81.132723 
L 334.753739 79.657762 
L 334.978808 79.714993 
L 335.626416 80.547256 
L 336.699563 79.9938 
L 336.74725 80.800843 
L 338.12359 81.159606 
L 339.499927 81.105425 
L 340.777513 80.756639 
L 342.557935 80.597558 
L 342.783004 79.083381 
L 343.430611 80.94288 
L 344.503759 80.890222 
L 344.690966 79.987564 
L 345.927786 80.291591 
L 346.426989 81.765166 
L 347.304123 83.302208 
L 348.581708 83.712935 
L 350.587199 84.840496 
L 352.355642 83.949755 
L 352.495161 86.271391 
L 353.731982 85.948241 
L 354.231185 83.903749 
L 355.136905 84.137797 
L 356.385904 83.617598 
L 358.166326 83.901116 
L 359.010416 84.148467 
L 360.11215 85.658071 
L 360.299357 84.801419 
L 361.536178 84.536331 
L 362.293493 90.533453 
L 362.941101 94.675372 
L 366.814612 94.985496 
L 367.916346 95.76441 
L 368.092198 100.857626 
L 368.103553 99.993491 
L 369.340374 99.268759 
L 369.87262 100.619421 
L 370.097689 100.110445 
L 370.745297 100.416274 
L 373.741675 102.049623 
L 374.618808 105.209066 
L 375.896394 103.517933 
L 377.676816 103.377836 
L 377.901885 105.869639 
L 378.549493 107.987436 
L 379.62264 107.697405 
L 379.809847 104.712147 
L 381.545871 106.628044 
L 382.423004 106.446653 
L 383.70059 108.208181 
L 385.481011 109.910955 
L 385.706081 114.159159 
L 387.426835 113.446206 
L 387.474523 115.386769 
L 387.614043 115.145792 
L 388.850863 116.832907 
L 389.350066 119.188771 
L 390.227199 121.575259 
L 390.255786 125.118131 
L 391.504785 128.754955 
L 393.285207 124.993139 
L 393.510276 127.396256 
L 395.231031 128.52548 
L 395.278719 131.146293 
L 395.418238 130.020118 
L 398.031395 131.146709 
L 398.059982 130.421561 
L 399.308981 133.843599 
L 400.557157 138.793947 
L 401.05636 141.707979 
L 401.089403 146.332406 
L 401.314472 150.340188 
L 403.082915 151.597452 
L 403.222434 154.710196 
L 405.864178 158.406191 
L 407.113177 159.004268 
L 408.361353 160.497797 
L 408.860556 163.549432 
L 408.893599 168.670778 
L 409.118668 173.772032 
L 410.839423 180.078724 
L 410.88711 184.004747 
L 411.02663 180.915976 
L 413.668374 182.023028 
L 417.541885 182.148713 
L 418.691306 186.312527 
L 418.819471 188.020705 
L 420.067646 192.217637 
L 420.56685 192.98103 
L 420.599893 192.205581 
L 420.824962 194.449063 
L 421.472569 194.995868 
L 422.545717 195.346456 
L 422.732924 199.643853 
L 426.495502 200.017027 
L 426.623666 200.639632 
L 428.371045 204.194559 
L 428.404088 204.788202 
L 428.629157 206.771307 
L 429.276765 207.792722 
L 430.537119 207.015471 
L 431.77394 207.280837 
L 434.427862 209.002872 
L 436.175241 209.456972 
L 436.208284 211.374671 
L 436.433353 212.282734 
L 437.080961 213.683559 
L 438.154108 213.80966 
L 438.201796 214.573192 
L 438.341315 213.528081 
L 439.578136 212.181161 
L 440.954472 212.675586 
L 443.979437 213.214215 
L 444.01248 213.452282 
L 444.237549 217.124719 
L 444.885157 218.613122 
L 446.005992 219.429588 
L 446.134156 218.476628 
L 446.145511 217.181811 
L 447.382332 218.171908 
L 452.660766 218.552566 
L 452.689353 218.682269 
L 453.949707 219.182376 
L 455.186528 217.044347 
L 460.464962 216.760413 
L 461.566696 217.457985 
L 461.753903 217.735406 
L 466.892821 217.305417 
L 468.269158 216.976586 
L 469.558098 216.977001 
L 473.272989 216.649971 
L 474.697017 216.646784 
L 477.362294 216.959541 
L 485.16649 216.088893 
L 490.305409 215.496497 
L 505.9138 218.063268 
L 513.717996 217.83116 
L 525.42429 217.711295 
L 525.42429 217.711295 
" clip-path="url(#pe2e0dd06b9)" style="fill: none; stroke: #009384; stroke-width: 2.5; stroke-linecap: square"/>
   </g>
   <g id="line2d_13">
    <path d="M 68.9724 234.757969 
L 69.547116 234.611439 
L 71.618799 234.391866 
L 72.764217 234.245483 
L 79.422994 234.02297 
L 80.324441 233.80222 
L 80.568412 233.436411 
L 83.713449 227.682374 
L 84.580791 221.964491 
L 84.750693 215.350384 
L 85.155508 208.737598 
L 86.855028 202.914044 
L 86.922046 196.42927 
L 87.196707 189.960663 
L 87.22719 183.400934 
L 88.128637 176.80799 
L 88.372608 170.377155 
L 92.384987 167.610731 
L 92.959704 162.540988 
L 94.659223 159.498554 
L 94.726242 155.035946 
L 95.000903 150.084367 
L 95.031386 145.516674 
L 95.419742 144.577828 
L 96.176804 136.726817 
L 96.456986 132.068003 
L 102.463419 128.408735 
L 102.530438 125.146874 
L 102.805099 122.603552 
L 102.835582 119.119913 
L 103.223938 114.037824 
L 103.737029 111.222313 
L 103.981 106.462677 
L 104.261182 98.13901 
L 104.665997 95.019858 
L 110.267615 93.48387 
L 110.609294 91.154096 
L 110.639778 89.054624 
L 111.028134 93.746359 
L 111.541225 96.855077 
L 111.785196 101.233618 
L 112.065378 108.43017 
L 112.470193 112.252134 
L 114.236731 115.827189 
L 118.83233 118.917241 
L 119.699672 121.911762 
L 119.869574 124.838824 
L 120.274389 124.078694 
L 121.973909 125.541196 
L 122.040927 125.266361 
L 122.315588 126.227107 
L 122.346071 127.884491 
L 123.247518 128.978245 
L 123.491489 126.411407 
L 127.503868 128.169761 
L 128.078585 127.838784 
L 129.778105 128.603764 
L 129.845123 129.985727 
L 130.119784 130.277904 
L 130.150267 129.733379 
L 130.538623 129.324654 
L 131.051714 131.806249 
L 131.295685 131.636204 
L 131.575867 133.981264 
L 135.308064 135.528274 
L 137.5823 135.612047 
L 137.954463 132.895593 
L 138.342819 131.799635 
L 138.85591 130.76173 
L 139.099881 128.240601 
L 139.380063 126.899349 
L 139.784879 125.590431 
L 141.826078 124.484479 
L 145.386496 122.951137 
L 146.147015 121.526994 
L 147.014358 120.724683 
L 147.184259 119.792449 
L 147.589074 118.99102 
L 149.355613 119.562882 
L 149.660757 117.07776 
L 150.806175 114.60366 
L 154.818554 113.618224 
L 154.988455 111.360171 
L 157.09279 110.009954 
L 157.159808 108.009247 
L 157.464952 103.923176 
L 157.853309 102.012267 
L 158.61037 97.182674 
L 159.295368 94.971504 
L 162.622749 91.324875 
L 164.896986 88.014368 
L 164.964004 85.621984 
L 165.238665 83.578067 
L 165.269148 81.02284 
L 165.657505 79.614423 
L 166.170595 77.215278 
L 166.694749 72.993554 
L 167.099564 71.252837 
L 170.426945 68.775064 
L 172.701181 66.201612 
L 173.073344 63.483689 
L 173.4617 61.67272 
L 173.974791 60.022243 
L 174.218762 57.508609 
L 174.90376 55.567571 
L 176.670298 53.026747 
L 176.944959 51.975321 
L 180.505377 50.733568 
L 180.87754 50.062501 
L 181.265896 48.737417 
L 182.133239 47.455835 
L 182.30314 47.797835 
L 182.707955 46.799612 
L 184.474494 47.178649 
L 184.749155 46.994789 
L 185.681085 47.148373 
L 185.925056 44.944699 
L 188.309573 45.944098 
L 188.681736 49.00505 
L 189.070092 50.89744 
L 189.937435 51.045292 
L 190.107336 52.047777 
L 192.27869 52.768079 
L 192.55335 52.008536 
L 193.485281 52.727956 
L 193.729252 51.952393 
L 194.414249 52.064532 
L 197.911532 55.985702 
L 200.015867 56.456448 
L 200.082885 58.720526 
L 200.388029 59.260055 
L 200.776386 63.538803 
L 201.289476 63.974864 
L 201.533447 63.864636 
L 202.218445 63.677984 
L 205.545826 65.42943 
L 207.820063 67.064328 
L 208.161742 68.982145 
L 208.192225 71.862911 
L 208.580581 72.535742 
L 209.093672 75.210015 
L 209.337643 74.813195 
L 209.617825 77.370185 
L 210.022641 76.978656 
L 211.789179 79.955835 
L 215.624258 84.085556 
L 215.965938 86.58802 
L 215.996421 87.755847 
L 216.384777 88.340789 
L 217.25212 87.274519 
L 217.422021 87.708081 
L 217.826837 91.454062 
L 219.593375 92.076482 
L 220.799966 90.380738 
L 221.043937 94.613044 
L 224.188973 93.818816 
L 225.056316 94.503845 
L 225.226217 96.209436 
L 225.631032 93.461237 
L 227.330552 94.104967 
L 227.397571 93.500478 
L 227.672232 93.528402 
L 227.702715 93.283256 
L 228.604162 93.499155 
L 228.848133 90.372654 
L 232.860512 90.127361 
L 233.030413 90.445405 
L 235.134748 89.914107 
L 235.201766 87.22499 
L 235.476427 85.705169 
L 235.506911 83.946081 
L 235.895267 80.386017 
L 236.408358 80.323555 
L 236.652328 77.231592 
L 237.337326 77.2773 
L 240.834609 73.880668 
L 242.938944 73.792926 
L 243.280623 69.560473 
L 243.311106 65.389013 
L 243.699463 61.591299 
L 244.212553 60.889515 
L 244.456524 59.355732 
L 244.566805 56.087111 
L 245.141522 53.507781 
L 246.90806 49.727262 
L 250.74314 48.280192 
L 251.084819 47.908798 
L 251.115302 43.897976 
L 251.503658 43.793921 
L 252.016749 42.934438 
L 252.540902 39.881129 
L 252.945718 38.26078 
L 254.712256 38.109548 
L 256.162818 35.964368 
L 258.919498 35.949524 
L 259.307854 34.706008 
L 260.175197 34.207484 
L 260.345098 33.981297 
L 262.449433 34.402955 
L 262.516452 33.407965 
L 263.967014 33.89429 
L 267.11205 33.177075 
L 267.979393 33.157969 
L 268.149294 39.089546 
L 270.253629 39.34645 
L 270.320648 39.987829 
L 270.595308 39.9674 
L 270.625792 39.507089 
L 271.77121 39.420817 
L 278.057825 39.704911 
L 278.124843 45.8227 
L 278.399504 48.17599 
L 278.429987 48.139247 
L 278.818344 47.836782 
L 279.575405 48.125726 
L 279.855588 50.629072 
L 280.260403 50.865401 
L 285.862021 50.966663 
L 285.929039 51.86862 
L 286.2037 51.936815 
L 286.234183 52.075849 
L 286.62254 52.204448 
L 287.13563 53.040268 
L 287.379601 52.781306 
L 287.489882 53.144029 
L 287.659783 52.791741 
L 288.064599 52.890211 
L 294.038379 53.001321 
L 294.426735 54.626666 
L 295.294078 57.013759 
L 295.463979 50.746208 
L 295.868795 50.665668 
L 297.635333 50.893325 
L 297.909994 50.786478 
L 301.842575 51.481206 
L 302.230931 52.829219 
L 303.67299 52.768079 
L 305.37251 52.857878 
L 305.439529 48.110882 
L 305.71419 45.595778 
L 306.890091 51.07307 
L 307.170273 52.11215 
L 310.035127 53.424155 
L 311.477186 51.459602 
L 313.176706 51.390085 
L 313.243725 52.23296 
L 313.518385 51.426093 
L 313.548869 52.91843 
L 314.450316 52.580545 
L 314.804568 58.008602 
L 314.974469 59.312082 
L 320.980902 59.803551 
L 321.04792 61.070877 
L 321.353064 62.888018 
L 321.741421 65.386956 
L 322.254511 64.080242 
L 322.608763 61.969159 
L 322.778665 63.538215 
L 323.18348 64.91327 
L 328.785098 64.746459 
L 328.852116 67.172646 
L 329.126777 67.00554 
L 329.15726 70.369692 
L 329.545616 70.354113 
L 330.058707 73.352897 
L 330.412959 73.544105 
L 330.58286 75.711184 
L 330.987676 74.438126 
L 334.204776 77.487762 
L 336.961456 72.986353 
L 337.349812 74.788798 
L 338.217155 76.271141 
L 338.387056 75.338761 
L 338.791872 75.645635 
L 340.491391 75.551574 
L 340.55841 76.963812 
L 340.833071 79.132654 
L 341.765001 80.215385 
L 342.008972 79.831204 
L 345.154008 77.781702 
L 346.596067 75.692812 
L 348.295587 75.420623 
L 348.362606 77.387675 
L 348.637266 78.552709 
L 348.66775 78.268762 
L 349.569197 80.54842 
L 349.923449 80.556503 
L 350.09335 83.20535 
L 353.715265 83.970037 
L 354.400263 83.600113 
L 356.099783 84.552628 
L 356.166801 87.108736 
L 356.441462 86.834049 
L 356.471945 86.895335 
L 356.860302 89.40603 
L 357.373393 88.625324 
L 357.727644 89.549032 
L 357.897546 89.359147 
L 361.519461 90.803572 
L 363.970997 91.47214 
L 364.245658 93.898621 
L 364.276141 93.837628 
L 364.664498 96.40035 
L 365.177588 96.105822 
L 365.53184 96.096269 
L 365.701742 98.273047 
L 366.106557 99.641194 
L 367.806077 101.004197 
L 369.323657 101.000082 
L 372.049854 100.428955 
L 372.468693 99.896188 
L 373.336036 103.137326 
L 373.505937 103.146732 
L 373.910753 106.307917 
L 375.677291 108.685604 
L 375.982435 108.73337 
L 376.883882 108.440017 
L 381.029951 108.635781 
L 381.714948 108.366825 
L 383.414468 108.065242 
L 383.481487 109.362697 
L 383.756148 109.478068 
L 383.786631 110.092846 
L 384.174987 107.722801 
L 384.688078 107.605813 
L 385.04233 105.838347 
L 385.212231 106.114945 
L 388.834147 106.315119 
L 391.285683 108.371675 
L 391.590827 108.419735 
L 392.492274 114.966971 
L 393.016427 110.137231 
L 395.120762 110.234231 
L 396.638342 110.39193 
L 399.364539 111.069611 
L 399.783379 115.840857 
L 400.296469 119.441631 
L 400.650721 123.338698 
L 400.820623 121.594453 
L 401.225438 121.276997 
L 402.924958 121.235405 
L 402.991976 118.651225 
L 403.29712 116.422125 
L 407.587575 119.575227 
L 408.344636 125.126298 
L 408.454917 128.473843 
L 409.029634 127.704894 
L 410.729154 127.566301 
L 410.796172 128.157709 
L 411.070833 127.240026 
L 411.101316 130.619757 
L 412.526916 136.720497 
L 415.39177 143.16897 
L 415.904861 148.402879 
L 416.148832 145.702592 
L 416.83383 142.620329 
L 418.533349 138.309247 
L 418.600368 141.745856 
L 418.875029 140.807891 
L 418.905512 141.067146 
L 420.161211 141.104624 
L 420.331112 147.316915 
L 423.195966 152.708817 
L 423.709057 156.38337 
L 423.953028 159.651109 
L 424.638025 163.112115 
L 426.404564 166.448783 
L 427.965407 166.465391 
L 428.135308 172.361695 
L 430.239643 175.683667 
L 431.000162 179.08074 
L 431.757224 184.751004 
L 434.208759 190.14761 
L 434.513904 190.165099 
L 435.769603 193.360823 
L 435.939504 193.361558 
L 436.344319 197.647361 
L 438.043839 201.259599 
L 442.012955 205.110811 
L 442.287616 209.894255 
L 442.318099 209.820917 
L 444.148515 209.746403 
L 445.848035 215.981768 
L 449.817151 221.954938 
L 451.267713 228.057442 
L 451.952711 228.002769 
L 453.65223 233.134975 
L 453.99391 233.152905 
L 461.798106 233.019456 
L 469.260622 232.685686 
L 469.260622 232.685686 
" clip-path="url(#pe2e0dd06b9)" style="fill: none; stroke: #b85741; stroke-width: 2.5; stroke-linecap: square"/>
   </g>
   <g id="patch_3">
    <path d="M 46.051562 244.837969 
L 46.051562 23.077969 
" style="fill: none; stroke: #000000; stroke-width: 0.8; stroke-linejoin: miter; stroke-linecap: square"/>
   </g>
   <g id="patch_4">
    <path d="M 548.251563 244.837969 
L 548.251563 23.077969 
" style="fill: none; stroke: #000000; stroke-width: 0.8; stroke-linejoin: miter; stroke-linecap: square"/>
   </g>
   <g id="patch_5">
    <path d="M 46.051562 244.837969 
L 548.251563 244.837969 
" style="fill: none; stroke: #000000; stroke-width: 0.8; stroke-linejoin: miter; stroke-linecap: square"/>
   </g>
   <g id="patch_6">
    <path d="M 46.051562 23.077969 
L 548.251563 23.077969 
" style="fill: none; stroke: #000000; stroke-width: 0.8; stroke-linejoin: miter; stroke-linecap: square"/>
   </g>
   <g id="text_14">
    <!-- Live Migrate Many (CPU) -->
    <g transform="translate(217.090859 17.077969) scale(0.13 -0.13)">
     <defs>
      <path id="DejaVuSans-4c" d="M 628 4666 
L 1259 4666 
L 1259 531 
L 3531 531 
L 3531 0 
L 628 0 
L 628 4666 
z
" transform="scale(0.015625)"/>
      <path id="DejaVuSans-76" d="M 191 3500 
L 800 3500 
L 1894 563 
L 2988 3500 
L 3597 3500 
L 2284 0 
L 1503 0 
L 191 3500 
z
" transform="scale(0.015625)"/>
      <path id="DejaVuSans-4d" d="M 628 4666 
L 1569 4666 
L 2759 1491 
L 3956 4666 
L 4897 4666 
L 4897 0 
L 4281 0 
L 4281 4097 
L 3078 897 
L 2444 897 
L 1241 4097 
L 1241 0 
L 628 0 
L 628 4666 
z
" transform="scale(0.015625)"/>
      <path id="DejaVuSans-67" d="M 2906 1791 
Q 2906 2416 2648 2759 
Q 2391 3103 1925 3103 
Q 1463 3103 1205 2759 
Q 947 2416 947 1791 
Q 947 1169 1205 825 
Q 1463 481 1925 481 
Q 2391 481 2648 825 
Q 2906 1169 2906 1791 
z
M 3481 434 
Q 3481 -459 3084 -895 
Q 2688 -1331 1869 -1331 
Q 1566 -1331 1297 -1286 
Q 1028 -1241 775 -1147 
L 775 -588 
Q 1028 -725 1275 -790 
Q 1522 -856 1778 -856 
Q 2344 -856 2625 -561 
Q 2906 -266 2906 331 
L 2906 616 
Q 2728 306 2450 153 
Q 2172 0 1784 0 
Q 1141 0 747 490 
Q 353 981 353 1791 
Q 353 2603 747 3093 
Q 1141 3584 1784 3584 
Q 2172 3584 2450 3431 
Q 2728 3278 2906 2969 
L 2906 3500 
L 3481 3500 
L 3481 434 
z
" transform="scale(0.015625)"/>
      <path id="DejaVuSans-72" d="M 2631 2963 
Q 2534 3019 2420 3045 
Q 2306 3072 2169 3072 
Q 1681 3072 1420 2755 
Q 1159 2438 1159 1844 
L 1159 0 
L 581 0 
L 581 3500 
L 1159 3500 
L 1159 2956 
Q 1341 3275 1631 3429 
Q 1922 3584 2338 3584 
Q 2397 3584 2469 3576 
Q 2541 3569 2628 3553 
L 2631 2963 
z
" transform="scale(0.015625)"/>
      <path id="DejaVuSans-79" d="M 2059 -325 
Q 1816 -950 1584 -1140 
Q 1353 -1331 966 -1331 
L 506 -1331 
L 506 -850 
L 844 -850 
Q 1081 -850 1212 -737 
Q 1344 -625 1503 -206 
L 1606 56 
L 191 3500 
L 800 3500 
L 1894 763 
L 2988 3500 
L 3597 3500 
L 2059 -325 
z
" transform="scale(0.015625)"/>
      <path id="DejaVuSans-43" d="M 4122 4306 
L 4122 3641 
Q 3803 3938 3442 4084 
Q 3081 4231 2675 4231 
Q 1875 4231 1450 3742 
Q 1025 3253 1025 2328 
Q 1025 1406 1450 917 
Q 1875 428 2675 428 
Q 3081 428 3442 575 
Q 3803 722 4122 1019 
L 4122 359 
Q 3791 134 3420 21 
Q 3050 -91 2638 -91 
Q 1578 -91 968 557 
Q 359 1206 359 2328 
Q 359 3453 968 4101 
Q 1578 4750 2638 4750 
Q 3056 4750 3426 4639 
Q 3797 4528 4122 4306 
z
" transform="scale(0.015625)"/>
      <path id="DejaVuSans-50" d="M 1259 4147 
L 1259 2394 
L 2053 2394 
Q 2494 2394 2734 2622 
Q 2975 2850 2975 3272 
Q 2975 3691 2734 3919 
Q 2494 4147 2053 4147 
L 1259 4147 
z
M 628 4666 
L 2053 4666 
Q 2838 4666 3239 4311 
Q 3641 3956 3641 3272 
Q 3641 2581 3239 2228 
Q 2838 1875 2053 1875 
L 1259 1875 
L 1259 0 
L 628 0 
L 628 4666 
z
" transform="scale(0.015625)"/>
     </defs>
     <use xlink:href="#DejaVuSans-4c"/>
     <use xlink:href="#DejaVuSans-69" x="55.712891"/>
     <use xlink:href="#DejaVuSans-76" x="83.496094"/>
     <use xlink:href="#DejaVuSans-65" x="142.675781"/>
     <use xlink:href="#DejaVuSans-20" x="204.199219"/>
     <use xlink:href="#DejaVuSans-4d" x="235.986328"/>
     <use xlink:href="#DejaVuSans-69" x="322.265625"/>
     <use xlink:href="#DejaVuSans-67" x="350.048828"/>
     <use xlink:href="#DejaVuSans-72" x="413.525391"/>
     <use xlink:href="#DejaVuSans-61" x="454.638672"/>
     <use xlink:href="#DejaVuSans-74" x="515.917969"/>
     <use xlink:href="#DejaVuSans-65" x="555.126953"/>
     <use xlink:href="#DejaVuSans-20" x="616.650391"/>
     <use xlink:href="#DejaVuSans-4d" x="648.4375"/>
     <use xlink:href="#DejaVuSans-61" x="734.716797"/>
     <use xlink:href="#DejaVuSans-6e" x="795.996094"/>
     <use xlink:href="#DejaVuSans-79" x="859.375"/>
     <use xlink:href="#DejaVuSans-20" x="918.554688"/>
     <use xlink:href="#DejaVuSans-28" x="950.341797"/>
     <use xlink:href="#DejaVuSans-43" x="989.355469"/>
     <use xlink:href="#DejaVuSans-50" x="1059.179688"/>
     <use xlink:href="#DejaVuSans-55" x="1119.482422"/>
     <use xlink:href="#DejaVuSans-29" x="1192.675781"/>
    </g>
   </g>
   <g id="legend_1">
    <g id="patch_7">
     <path d="M 423.312813 67.905469 
L 539.851563 67.905469 
Q 542.251563 67.905469 542.251563 65.505469 
L 542.251563 31.477969 
Q 542.251563 29.077969 539.851563 29.077969 
L 423.312813 29.077969 
Q 420.912813 29.077969 420.912813 31.477969 
L 420.912813 65.505469 
Q 420.912813 67.905469 423.312813 67.905469 
z
" style="fill: #ffffff; opacity: 0.8; stroke: #cccccc; stroke-linejoin: miter"/>
    </g>
    <g id="line2d_14">
     <path d="M 425.712813 38.796094 
L 437.712813 38.796094 
L 449.712813 38.796094 
" style="fill: none; stroke: #009384; stroke-width: 2.5; stroke-linecap: square"/>
    </g>
    <g id="text_15">
     <!-- KubeVirt  -->
     <g transform="translate(459.312813 42.996094) scale(0.12 -0.12)">
      <defs>
       <path id="DejaVuSans-4b" d="M 628 4666 
L 1259 4666 
L 1259 2694 
L 3353 4666 
L 4166 4666 
L 1850 2491 
L 4331 0 
L 3500 0 
L 1259 2247 
L 1259 0 
L 628 0 
L 628 4666 
z
" transform="scale(0.015625)"/>
       <path id="DejaVuSans-75" d="M 544 1381 
L 544 3500 
L 1119 3500 
L 1119 1403 
Q 1119 906 1312 657 
Q 1506 409 1894 409 
Q 2359 409 2629 706 
Q 2900 1003 2900 1516 
L 2900 3500 
L 3475 3500 
L 3475 0 
L 2900 0 
L 2900 538 
Q 2691 219 2414 64 
Q 2138 -91 1772 -91 
Q 1169 -91 856 284 
Q 544 659 544 1381 
z
M 1991 3584 
L 1991 3584 
z
" transform="scale(0.015625)"/>
       <path id="DejaVuSans-62" d="M 3116 1747 
Q 3116 2381 2855 2742 
Q 2594 3103 2138 3103 
Q 1681 3103 1420 2742 
Q 1159 2381 1159 1747 
Q 1159 1113 1420 752 
Q 1681 391 2138 391 
Q 2594 391 2855 752 
Q 3116 1113 3116 1747 
z
M 1159 2969 
Q 1341 3281 1617 3432 
Q 1894 3584 2278 3584 
Q 2916 3584 3314 3078 
Q 3713 2572 3713 1747 
Q 3713 922 3314 415 
Q 2916 -91 2278 -91 
Q 1894 -91 1617 61 
Q 1341 213 1159 525 
L 1159 0 
L 581 0 
L 581 4863 
L 1159 4863 
L 1159 2969 
z
" transform="scale(0.015625)"/>
       <path id="DejaVuSans-56" d="M 1831 0 
L 50 4666 
L 709 4666 
L 2188 738 
L 3669 4666 
L 4325 4666 
L 2547 0 
L 1831 0 
z
" transform="scale(0.015625)"/>
      </defs>
      <use xlink:href="#DejaVuSans-4b"/>
      <use xlink:href="#DejaVuSans-75" x="60.576172"/>
      <use xlink:href="#DejaVuSans-62" x="123.955078"/>
      <use xlink:href="#DejaVuSans-65" x="187.431641"/>
      <use xlink:href="#DejaVuSans-56" x="248.955078"/>
      <use xlink:href="#DejaVuSans-69" x="315.113281"/>
      <use xlink:href="#DejaVuSans-72" x="342.896484"/>
      <use xlink:href="#DejaVuSans-74" x="384.009766"/>
      <use xlink:href="#DejaVuSans-20" x="423.21875"/>
     </g>
    </g>
    <g id="line2d_15">
     <path d="M 425.712813 56.409844 
L 437.712813 56.409844 
L 449.712813 56.409844 
" style="fill: none; stroke: #b85741; stroke-width: 2.5; stroke-linecap: square"/>
    </g>
    <g id="text_16">
     <!-- OpenNebula  -->
     <g transform="translate(459.312813 60.609844) scale(0.12 -0.12)">
      <defs>
       <path id="DejaVuSans-4f" d="M 2522 4238 
Q 1834 4238 1429 3725 
Q 1025 3213 1025 2328 
Q 1025 1447 1429 934 
Q 1834 422 2522 422 
Q 3209 422 3611 934 
Q 4013 1447 4013 2328 
Q 4013 3213 3611 3725 
Q 3209 4238 2522 4238 
z
M 2522 4750 
Q 3503 4750 4090 4092 
Q 4678 3434 4678 2328 
Q 4678 1225 4090 567 
Q 3503 -91 2522 -91 
Q 1538 -91 948 565 
Q 359 1222 359 2328 
Q 359 3434 948 4092 
Q 1538 4750 2522 4750 
z
" transform="scale(0.015625)"/>
       <path id="DejaVuSans-70" d="M 1159 525 
L 1159 -1331 
L 581 -1331 
L 581 3500 
L 1159 3500 
L 1159 2969 
Q 1341 3281 1617 3432 
Q 1894 3584 2278 3584 
Q 2916 3584 3314 3078 
Q 3713 2572 3713 1747 
Q 3713 922 3314 415 
Q 2916 -91 2278 -91 
Q 1894 -91 1617 61 
Q 1341 213 1159 525 
z
M 3116 1747 
Q 3116 2381 2855 2742 
Q 2594 3103 2138 3103 
Q 1681 3103 1420 2742 
Q 1159 2381 1159 1747 
Q 1159 1113 1420 752 
Q 1681 391 2138 391 
Q 2594 391 2855 752 
Q 3116 1113 3116 1747 
z
" transform="scale(0.015625)"/>
       <path id="DejaVuSans-4e" d="M 628 4666 
L 1478 4666 
L 3547 763 
L 3547 4666 
L 4159 4666 
L 4159 0 
L 3309 0 
L 1241 3903 
L 1241 0 
L 628 0 
L 628 4666 
z
" transform="scale(0.015625)"/>
      </defs>
      <use xlink:href="#DejaVuSans-4f"/>
      <use xlink:href="#DejaVuSans-70" x="78.710938"/>
      <use xlink:href="#DejaVuSans-65" x="142.1875"/>
      <use xlink:href="#DejaVuSans-6e" x="203.710938"/>
      <use xlink:href="#DejaVuSans-4e" x="267.089844"/>
      <use xlink:href="#DejaVuSans-65" x="341.894531"/>
      <use xlink:href="#DejaVuSans-62" x="403.417969"/>
      <use xlink:href="#DejaVuSans-75" x="466.894531"/>
      <use xlink:href="#DejaVuSans-6c" x="530.273438"/>
      <use xlink:href="#DejaVuSans-61" x="558.056641"/>
      <use xlink:href="#DejaVuSans-20" x="619.335938"/>
     </g>
    </g>
   </g>
  </g>
 </g>
 <defs>
  <clipPath id="pe2e0dd06b9">
   <rect x="46.051562" y="23.077969" width="502.2" height="221.76"/>
  </clipPath>
 </defs>
</svg>
