<?xml version="1.0" encoding="utf-8" standalone="no"?>
<!DOCTYPE svg PUBLIC "-//W3C//DTD SVG 1.1//EN"
  "http://www.w3.org/Graphics/SVG/1.1/DTD/svg11.dtd">
<svg xmlns:xlink="http://www.w3.org/1999/xlink" width="555.451562pt" height="287.233281pt" viewBox="0 0 555.451562 287.233281" xmlns="http://www.w3.org/2000/svg" version="1.1">
 <metadata>
  <rdf:RDF xmlns:dc="http://purl.org/dc/elements/1.1/" xmlns:cc="http://creativecommons.org/ns#" xmlns:rdf="http://www.w3.org/1999/02/22-rdf-syntax-ns#">
   <cc:Work>
    <dc:type rdf:resource="http://purl.org/dc/dcmitype/StillImage"/>
    <dc:date>2024-05-21T10:08:09.390393</dc:date>
    <dc:format>image/svg+xml</dc:format>
    <dc:creator>
     <cc:Agent>
      <dc:title>Matplotlib v3.8.4, https://matplotlib.org/</dc:title>
     </cc:Agent>
    </dc:creator>
   </cc:Work>
  </rdf:RDF>
 </metadata>
 <defs>
  <style type="text/css">*{stroke-linejoin: round; stroke-linecap: butt}</style>
 </defs>
 <g id="figure_1">
  <g id="patch_1">
   <path d="M 0 287.233281 
L 555.451562 287.233281 
L 555.451562 0 
L 0 0 
z
" style="fill: #f3f7f8"/>
  </g>
  <g id="axes_1">
   <g id="patch_2">
    <path d="M 46.051562 244.837969 
L 548.251563 244.837969 
L 548.251563 23.077969 
L 46.051562 23.077969 
z
" style="fill: #ffffff"/>
   </g>
   <g id="matplotlib.axis_1">
    <g id="xtick_1">
     <g id="line2d_1">
      <defs>
       <path id="m09681a5a5f" d="M 0 0 
L 0 3.5 
" style="stroke: #000000; stroke-width: 0.8"/>
      </defs>
      <g>
       <use xlink:href="#m09681a5a5f" x="84.375994" y="244.837969" style="stroke: #000000; stroke-width: 0.8"/>
      </g>
     </g>
     <g id="text_1">
      <!-- 0 -->
      <g transform="translate(80.558494 260.956094) scale(0.12 -0.12)">
       <defs>
        <path id="DejaVuSans-30" d="M 2034 4250 
Q 1547 4250 1301 3770 
Q 1056 3291 1056 2328 
Q 1056 1369 1301 889 
Q 1547 409 2034 409 
Q 2525 409 2770 889 
Q 3016 1369 3016 2328 
Q 3016 3291 2770 3770 
Q 2525 4250 2034 4250 
z
M 2034 4750 
Q 2819 4750 3233 4129 
Q 3647 3509 3647 2328 
Q 3647 1150 3233 529 
Q 2819 -91 2034 -91 
Q 1250 -91 836 529 
Q 422 1150 422 2328 
Q 422 3509 836 4129 
Q 1250 4750 2034 4750 
z
" transform="scale(0.015625)"/>
       </defs>
       <use xlink:href="#DejaVuSans-30"/>
      </g>
     </g>
    </g>
    <g id="xtick_2">
     <g id="line2d_2">
      <g>
       <use xlink:href="#m09681a5a5f" x="162.417952" y="244.837969" style="stroke: #000000; stroke-width: 0.8"/>
      </g>
     </g>
     <g id="text_2">
      <!-- 20 -->
      <g transform="translate(154.782952 260.956094) scale(0.12 -0.12)">
       <defs>
        <path id="DejaVuSans-32" d="M 1228 531 
L 3431 531 
L 3431 0 
L 469 0 
L 469 531 
Q 828 903 1448 1529 
Q 2069 2156 2228 2338 
Q 2531 2678 2651 2914 
Q 2772 3150 2772 3378 
Q 2772 3750 2511 3984 
Q 2250 4219 1831 4219 
Q 1534 4219 1204 4116 
Q 875 4013 500 3803 
L 500 4441 
Q 881 4594 1212 4672 
Q 1544 4750 1819 4750 
Q 2544 4750 2975 4387 
Q 3406 4025 3406 3419 
Q 3406 3131 3298 2873 
Q 3191 2616 2906 2266 
Q 2828 2175 2409 1742 
Q 1991 1309 1228 531 
z
" transform="scale(0.015625)"/>
       </defs>
       <use xlink:href="#DejaVuSans-32"/>
       <use xlink:href="#DejaVuSans-30" x="63.623047"/>
      </g>
     </g>
    </g>
    <g id="xtick_3">
     <g id="line2d_3">
      <g>
       <use xlink:href="#m09681a5a5f" x="240.45991" y="244.837969" style="stroke: #000000; stroke-width: 0.8"/>
      </g>
     </g>
     <g id="text_3">
      <!-- 40 -->
      <g transform="translate(232.82491 260.956094) scale(0.12 -0.12)">
       <defs>
        <path id="DejaVuSans-34" d="M 2419 4116 
L 825 1625 
L 2419 1625 
L 2419 4116 
z
M 2253 4666 
L 3047 4666 
L 3047 1625 
L 3713 1625 
L 3713 1100 
L 3047 1100 
L 3047 0 
L 2419 0 
L 2419 1100 
L 313 1100 
L 313 1709 
L 2253 4666 
z
" transform="scale(0.015625)"/>
       </defs>
       <use xlink:href="#DejaVuSans-34"/>
       <use xlink:href="#DejaVuSans-30" x="63.623047"/>
      </g>
     </g>
    </g>
    <g id="xtick_4">
     <g id="line2d_4">
      <g>
       <use xlink:href="#m09681a5a5f" x="318.501868" y="244.837969" style="stroke: #000000; stroke-width: 0.8"/>
      </g>
     </g>
     <g id="text_4">
      <!-- 60 -->
      <g transform="translate(310.866868 260.956094) scale(0.12 -0.12)">
       <defs>
        <path id="DejaVuSans-36" d="M 2113 2584 
Q 1688 2584 1439 2293 
Q 1191 2003 1191 1497 
Q 1191 994 1439 701 
Q 1688 409 2113 409 
Q 2538 409 2786 701 
Q 3034 994 3034 1497 
Q 3034 2003 2786 2293 
Q 2538 2584 2113 2584 
z
M 3366 4563 
L 3366 3988 
Q 3128 4100 2886 4159 
Q 2644 4219 2406 4219 
Q 1781 4219 1451 3797 
Q 1122 3375 1075 2522 
Q 1259 2794 1537 2939 
Q 1816 3084 2150 3084 
Q 2853 3084 3261 2657 
Q 3669 2231 3669 1497 
Q 3669 778 3244 343 
Q 2819 -91 2113 -91 
Q 1303 -91 875 529 
Q 447 1150 447 2328 
Q 447 3434 972 4092 
Q 1497 4750 2381 4750 
Q 2619 4750 2861 4703 
Q 3103 4656 3366 4563 
z
" transform="scale(0.015625)"/>
       </defs>
       <use xlink:href="#DejaVuSans-36"/>
       <use xlink:href="#DejaVuSans-30" x="63.623047"/>
      </g>
     </g>
    </g>
    <g id="xtick_5">
     <g id="line2d_5">
      <g>
       <use xlink:href="#m09681a5a5f" x="396.543826" y="244.837969" style="stroke: #000000; stroke-width: 0.8"/>
      </g>
     </g>
     <g id="text_5">
      <!-- 80 -->
      <g transform="translate(388.908826 260.956094) scale(0.12 -0.12)">
       <defs>
        <path id="DejaVuSans-38" d="M 2034 2216 
Q 1584 2216 1326 1975 
Q 1069 1734 1069 1313 
Q 1069 891 1326 650 
Q 1584 409 2034 409 
Q 2484 409 2743 651 
Q 3003 894 3003 1313 
Q 3003 1734 2745 1975 
Q 2488 2216 2034 2216 
z
M 1403 2484 
Q 997 2584 770 2862 
Q 544 3141 544 3541 
Q 544 4100 942 4425 
Q 1341 4750 2034 4750 
Q 2731 4750 3128 4425 
Q 3525 4100 3525 3541 
Q 3525 3141 3298 2862 
Q 3072 2584 2669 2484 
Q 3125 2378 3379 2068 
Q 3634 1759 3634 1313 
Q 3634 634 3220 271 
Q 2806 -91 2034 -91 
Q 1263 -91 848 271 
Q 434 634 434 1313 
Q 434 1759 690 2068 
Q 947 2378 1403 2484 
z
M 1172 3481 
Q 1172 3119 1398 2916 
Q 1625 2713 2034 2713 
Q 2441 2713 2670 2916 
Q 2900 3119 2900 3481 
Q 2900 3844 2670 4047 
Q 2441 4250 2034 4250 
Q 1625 4250 1398 4047 
Q 1172 3844 1172 3481 
z
" transform="scale(0.015625)"/>
       </defs>
       <use xlink:href="#DejaVuSans-38"/>
       <use xlink:href="#DejaVuSans-30" x="63.623047"/>
      </g>
     </g>
    </g>
    <g id="xtick_6">
     <g id="line2d_6">
      <g>
       <use xlink:href="#m09681a5a5f" x="474.585784" y="244.837969" style="stroke: #000000; stroke-width: 0.8"/>
      </g>
     </g>
     <g id="text_6">
      <!-- 100 -->
      <g transform="translate(463.133284 260.956094) scale(0.12 -0.12)">
       <defs>
        <path id="DejaVuSans-31" d="M 794 531 
L 1825 531 
L 1825 4091 
L 703 3866 
L 703 4441 
L 1819 4666 
L 2450 4666 
L 2450 531 
L 3481 531 
L 3481 0 
L 794 0 
L 794 531 
z
" transform="scale(0.015625)"/>
       </defs>
       <use xlink:href="#DejaVuSans-31"/>
       <use xlink:href="#DejaVuSans-30" x="63.623047"/>
       <use xlink:href="#DejaVuSans-30" x="127.246094"/>
      </g>
     </g>
    </g>
    <g id="text_7">
     <!-- Time (s) -->
     <g transform="translate(270.723984 277.329687) scale(0.13 -0.13)">
      <defs>
       <path id="DejaVuSans-54" d="M -19 4666 
L 3928 4666 
L 3928 4134 
L 2272 4134 
L 2272 0 
L 1638 0 
L 1638 4134 
L -19 4134 
L -19 4666 
z
" transform="scale(0.015625)"/>
       <path id="DejaVuSans-69" d="M 603 3500 
L 1178 3500 
L 1178 0 
L 603 0 
L 603 3500 
z
M 603 4863 
L 1178 4863 
L 1178 4134 
L 603 4134 
L 603 4863 
z
" transform="scale(0.015625)"/>
       <path id="DejaVuSans-6d" d="M 3328 2828 
Q 3544 3216 3844 3400 
Q 4144 3584 4550 3584 
Q 5097 3584 5394 3201 
Q 5691 2819 5691 2113 
L 5691 0 
L 5113 0 
L 5113 2094 
Q 5113 2597 4934 2840 
Q 4756 3084 4391 3084 
Q 3944 3084 3684 2787 
Q 3425 2491 3425 1978 
L 3425 0 
L 2847 0 
L 2847 2094 
Q 2847 2600 2669 2842 
Q 2491 3084 2119 3084 
Q 1678 3084 1418 2786 
Q 1159 2488 1159 1978 
L 1159 0 
L 581 0 
L 581 3500 
L 1159 3500 
L 1159 2956 
Q 1356 3278 1631 3431 
Q 1906 3584 2284 3584 
Q 2666 3584 2933 3390 
Q 3200 3197 3328 2828 
z
" transform="scale(0.015625)"/>
       <path id="DejaVuSans-65" d="M 3597 1894 
L 3597 1613 
L 953 1613 
Q 991 1019 1311 708 
Q 1631 397 2203 397 
Q 2534 397 2845 478 
Q 3156 559 3463 722 
L 3463 178 
Q 3153 47 2828 -22 
Q 2503 -91 2169 -91 
Q 1331 -91 842 396 
Q 353 884 353 1716 
Q 353 2575 817 3079 
Q 1281 3584 2069 3584 
Q 2775 3584 3186 3129 
Q 3597 2675 3597 1894 
z
M 3022 2063 
Q 3016 2534 2758 2815 
Q 2500 3097 2075 3097 
Q 1594 3097 1305 2825 
Q 1016 2553 972 2059 
L 3022 2063 
z
" transform="scale(0.015625)"/>
       <path id="DejaVuSans-20" transform="scale(0.015625)"/>
       <path id="DejaVuSans-28" d="M 1984 4856 
Q 1566 4138 1362 3434 
Q 1159 2731 1159 2009 
Q 1159 1288 1364 580 
Q 1569 -128 1984 -844 
L 1484 -844 
Q 1016 -109 783 600 
Q 550 1309 550 2009 
Q 550 2706 781 3412 
Q 1013 4119 1484 4856 
L 1984 4856 
z
" transform="scale(0.015625)"/>
       <path id="DejaVuSans-73" d="M 2834 3397 
L 2834 2853 
Q 2591 2978 2328 3040 
Q 2066 3103 1784 3103 
Q 1356 3103 1142 2972 
Q 928 2841 928 2578 
Q 928 2378 1081 2264 
Q 1234 2150 1697 2047 
L 1894 2003 
Q 2506 1872 2764 1633 
Q 3022 1394 3022 966 
Q 3022 478 2636 193 
Q 2250 -91 1575 -91 
Q 1294 -91 989 -36 
Q 684 19 347 128 
L 347 722 
Q 666 556 975 473 
Q 1284 391 1588 391 
Q 1994 391 2212 530 
Q 2431 669 2431 922 
Q 2431 1156 2273 1281 
Q 2116 1406 1581 1522 
L 1381 1569 
Q 847 1681 609 1914 
Q 372 2147 372 2553 
Q 372 3047 722 3315 
Q 1072 3584 1716 3584 
Q 2034 3584 2315 3537 
Q 2597 3491 2834 3397 
z
" transform="scale(0.015625)"/>
       <path id="DejaVuSans-29" d="M 513 4856 
L 1013 4856 
Q 1481 4119 1714 3412 
Q 1947 2706 1947 2009 
Q 1947 1309 1714 600 
Q 1481 -109 1013 -844 
L 513 -844 
Q 928 -128 1133 580 
Q 1338 1288 1338 2009 
Q 1338 2731 1133 3434 
Q 928 4138 513 4856 
z
" transform="scale(0.015625)"/>
      </defs>
      <use xlink:href="#DejaVuSans-54"/>
      <use xlink:href="#DejaVuSans-69" x="57.958984"/>
      <use xlink:href="#DejaVuSans-6d" x="85.742188"/>
      <use xlink:href="#DejaVuSans-65" x="183.154297"/>
      <use xlink:href="#DejaVuSans-20" x="244.677734"/>
      <use xlink:href="#DejaVuSans-28" x="276.464844"/>
      <use xlink:href="#DejaVuSans-73" x="315.478516"/>
      <use xlink:href="#DejaVuSans-29" x="367.578125"/>
     </g>
    </g>
   </g>
   <g id="matplotlib.axis_2">
    <g id="ytick_1">
     <g id="line2d_7">
      <defs>
       <path id="m7ae13c5938" d="M 0 0 
L -3.5 0 
" style="stroke: #000000; stroke-width: 0.8"/>
      </defs>
      <g>
       <use xlink:href="#m7ae13c5938" x="46.051562" y="199.69072" style="stroke: #000000; stroke-width: 0.8"/>
      </g>
     </g>
     <g id="text_8">
      <!-- 10 -->
      <g transform="translate(23.781562 204.249782) scale(0.12 -0.12)">
       <use xlink:href="#DejaVuSans-31"/>
       <use xlink:href="#DejaVuSans-30" x="63.623047"/>
      </g>
     </g>
    </g>
    <g id="ytick_2">
     <g id="line2d_8">
      <g>
       <use xlink:href="#m7ae13c5938" x="46.051562" y="150.515903" style="stroke: #000000; stroke-width: 0.8"/>
      </g>
     </g>
     <g id="text_9">
      <!-- 20 -->
      <g transform="translate(23.781562 155.074966) scale(0.12 -0.12)">
       <use xlink:href="#DejaVuSans-32"/>
       <use xlink:href="#DejaVuSans-30" x="63.623047"/>
      </g>
     </g>
    </g>
    <g id="ytick_3">
     <g id="line2d_9">
      <g>
       <use xlink:href="#m7ae13c5938" x="46.051562" y="101.341087" style="stroke: #000000; stroke-width: 0.8"/>
      </g>
     </g>
     <g id="text_10">
      <!-- 30 -->
      <g transform="translate(23.781562 105.900149) scale(0.12 -0.12)">
       <defs>
        <path id="DejaVuSans-33" d="M 2597 2516 
Q 3050 2419 3304 2112 
Q 3559 1806 3559 1356 
Q 3559 666 3084 287 
Q 2609 -91 1734 -91 
Q 1441 -91 1130 -33 
Q 819 25 488 141 
L 488 750 
Q 750 597 1062 519 
Q 1375 441 1716 441 
Q 2309 441 2620 675 
Q 2931 909 2931 1356 
Q 2931 1769 2642 2001 
Q 2353 2234 1838 2234 
L 1294 2234 
L 1294 2753 
L 1863 2753 
Q 2328 2753 2575 2939 
Q 2822 3125 2822 3475 
Q 2822 3834 2567 4026 
Q 2313 4219 1838 4219 
Q 1578 4219 1281 4162 
Q 984 4106 628 3988 
L 628 4550 
Q 988 4650 1302 4700 
Q 1616 4750 1894 4750 
Q 2613 4750 3031 4423 
Q 3450 4097 3450 3541 
Q 3450 3153 3228 2886 
Q 3006 2619 2597 2516 
z
" transform="scale(0.015625)"/>
       </defs>
       <use xlink:href="#DejaVuSans-33"/>
       <use xlink:href="#DejaVuSans-30" x="63.623047"/>
      </g>
     </g>
    </g>
    <g id="ytick_4">
     <g id="line2d_10">
      <g>
       <use xlink:href="#m7ae13c5938" x="46.051562" y="52.166271" style="stroke: #000000; stroke-width: 0.8"/>
      </g>
     </g>
     <g id="text_11">
      <!-- 40 -->
      <g transform="translate(23.781562 56.725333) scale(0.12 -0.12)">
       <use xlink:href="#DejaVuSans-34"/>
       <use xlink:href="#DejaVuSans-30" x="63.623047"/>
      </g>
     </g>
    </g>
    <g id="text_12">
     <!-- Utilization (%) -->
     <g transform="translate(17.077969 179.839844) rotate(-90) scale(0.13 -0.13)">
      <defs>
       <path id="DejaVuSans-55" d="M 556 4666 
L 1191 4666 
L 1191 1831 
Q 1191 1081 1462 751 
Q 1734 422 2344 422 
Q 2950 422 3222 751 
Q 3494 1081 3494 1831 
L 3494 4666 
L 4128 4666 
L 4128 1753 
Q 4128 841 3676 375 
Q 3225 -91 2344 -91 
Q 1459 -91 1007 375 
Q 556 841 556 1753 
L 556 4666 
z
" transform="scale(0.015625)"/>
       <path id="DejaVuSans-74" d="M 1172 4494 
L 1172 3500 
L 2356 3500 
L 2356 3053 
L 1172 3053 
L 1172 1153 
Q 1172 725 1289 603 
Q 1406 481 1766 481 
L 2356 481 
L 2356 0 
L 1766 0 
Q 1100 0 847 248 
Q 594 497 594 1153 
L 594 3053 
L 172 3053 
L 172 3500 
L 594 3500 
L 594 4494 
L 1172 4494 
z
" transform="scale(0.015625)"/>
       <path id="DejaVuSans-6c" d="M 603 4863 
L 1178 4863 
L 1178 0 
L 603 0 
L 603 4863 
z
" transform="scale(0.015625)"/>
       <path id="DejaVuSans-7a" d="M 353 3500 
L 3084 3500 
L 3084 2975 
L 922 459 
L 3084 459 
L 3084 0 
L 275 0 
L 275 525 
L 2438 3041 
L 353 3041 
L 353 3500 
z
" transform="scale(0.015625)"/>
       <path id="DejaVuSans-61" d="M 2194 1759 
Q 1497 1759 1228 1600 
Q 959 1441 959 1056 
Q 959 750 1161 570 
Q 1363 391 1709 391 
Q 2188 391 2477 730 
Q 2766 1069 2766 1631 
L 2766 1759 
L 2194 1759 
z
M 3341 1997 
L 3341 0 
L 2766 0 
L 2766 531 
Q 2569 213 2275 61 
Q 1981 -91 1556 -91 
Q 1019 -91 701 211 
Q 384 513 384 1019 
Q 384 1609 779 1909 
Q 1175 2209 1959 2209 
L 2766 2209 
L 2766 2266 
Q 2766 2663 2505 2880 
Q 2244 3097 1772 3097 
Q 1472 3097 1187 3025 
Q 903 2953 641 2809 
L 641 3341 
Q 956 3463 1253 3523 
Q 1550 3584 1831 3584 
Q 2591 3584 2966 3190 
Q 3341 2797 3341 1997 
z
" transform="scale(0.015625)"/>
       <path id="DejaVuSans-6f" d="M 1959 3097 
Q 1497 3097 1228 2736 
Q 959 2375 959 1747 
Q 959 1119 1226 758 
Q 1494 397 1959 397 
Q 2419 397 2687 759 
Q 2956 1122 2956 1747 
Q 2956 2369 2687 2733 
Q 2419 3097 1959 3097 
z
M 1959 3584 
Q 2709 3584 3137 3096 
Q 3566 2609 3566 1747 
Q 3566 888 3137 398 
Q 2709 -91 1959 -91 
Q 1206 -91 779 398 
Q 353 888 353 1747 
Q 353 2609 779 3096 
Q 1206 3584 1959 3584 
z
" transform="scale(0.015625)"/>
       <path id="DejaVuSans-6e" d="M 3513 2113 
L 3513 0 
L 2938 0 
L 2938 2094 
Q 2938 2591 2744 2837 
Q 2550 3084 2163 3084 
Q 1697 3084 1428 2787 
Q 1159 2491 1159 1978 
L 1159 0 
L 581 0 
L 581 3500 
L 1159 3500 
L 1159 2956 
Q 1366 3272 1645 3428 
Q 1925 3584 2291 3584 
Q 2894 3584 3203 3211 
Q 3513 2838 3513 2113 
z
" transform="scale(0.015625)"/>
       <path id="DejaVuSans-25" d="M 4653 2053 
Q 4381 2053 4226 1822 
Q 4072 1591 4072 1178 
Q 4072 772 4226 539 
Q 4381 306 4653 306 
Q 4919 306 5073 539 
Q 5228 772 5228 1178 
Q 5228 1588 5073 1820 
Q 4919 2053 4653 2053 
z
M 4653 2450 
Q 5147 2450 5437 2106 
Q 5728 1763 5728 1178 
Q 5728 594 5436 251 
Q 5144 -91 4653 -91 
Q 4153 -91 3862 251 
Q 3572 594 3572 1178 
Q 3572 1766 3864 2108 
Q 4156 2450 4653 2450 
z
M 1428 4353 
Q 1159 4353 1004 4120 
Q 850 3888 850 3481 
Q 850 3069 1003 2837 
Q 1156 2606 1428 2606 
Q 1700 2606 1854 2837 
Q 2009 3069 2009 3481 
Q 2009 3884 1853 4118 
Q 1697 4353 1428 4353 
z
M 4250 4750 
L 4750 4750 
L 1831 -91 
L 1331 -91 
L 4250 4750 
z
M 1428 4750 
Q 1922 4750 2215 4408 
Q 2509 4066 2509 3481 
Q 2509 2891 2217 2550 
Q 1925 2209 1428 2209 
Q 931 2209 642 2551 
Q 353 2894 353 3481 
Q 353 4063 643 4406 
Q 934 4750 1428 4750 
z
" transform="scale(0.015625)"/>
      </defs>
      <use xlink:href="#DejaVuSans-55"/>
      <use xlink:href="#DejaVuSans-74" x="73.193359"/>
      <use xlink:href="#DejaVuSans-69" x="112.402344"/>
      <use xlink:href="#DejaVuSans-6c" x="140.185547"/>
      <use xlink:href="#DejaVuSans-69" x="167.96875"/>
      <use xlink:href="#DejaVuSans-7a" x="195.751953"/>
      <use xlink:href="#DejaVuSans-61" x="248.242188"/>
      <use xlink:href="#DejaVuSans-74" x="309.521484"/>
      <use xlink:href="#DejaVuSans-69" x="348.730469"/>
      <use xlink:href="#DejaVuSans-6f" x="376.513672"/>
      <use xlink:href="#DejaVuSans-6e" x="437.695312"/>
      <use xlink:href="#DejaVuSans-20" x="501.074219"/>
      <use xlink:href="#DejaVuSans-28" x="532.861328"/>
      <use xlink:href="#DejaVuSans-25" x="571.875"/>
      <use xlink:href="#DejaVuSans-29" x="666.894531"/>
     </g>
    </g>
   </g>
   <g id="line2d_11">
    <path d="M 68.878835 233.854528 
L 69.411081 233.854528 
L 69.63615 233.715538 
L 70.255171 234.317831 
L 75.259003 234.410492 
L 75.306691 234.734804 
L 76.683031 234.757969 
L 77.182234 232.047648 
L 77.215277 232.070813 
L 79.336953 232.117143 
L 79.348308 231.908657 
L 81.990052 231.769666 
L 83.063199 229.105676 
L 84.487227 228.341226 
L 84.98643 228.410722 
L 85.019473 227.854758 
L 85.244542 227.692602 
L 85.863563 226.812327 
L 87.152504 223.546043 
L 92.790626 223.08969 
L 93.048738 223.668818 
L 93.696346 218.364002 
L 94.769493 219.295241 
L 94.9567 217.835837 
L 96.193521 213.20281 
L 96.725767 210.446159 
L 100.594822 204.747536 
L 100.852934 200.39249 
L 101.471955 197.797995 
L 101.500541 194.439051 
L 102.573689 188.972079 
L 102.749541 178.269786 
L 103.997716 173.86841 
L 104.529963 169.328044 
L 106.662994 166.664053 
L 108.399017 161.405568 
L 108.65713 157.421164 
L 109.304737 151.977358 
L 110.377884 147.923459 
L 110.425572 144.911991 
L 111.801912 139.306028 
L 113.178248 139.120707 
L 114.455834 134.371855 
L 114.467189 129.947314 
L 116.236256 127.700296 
L 117.108933 127.468644 
L 118.18208 126.959011 
L 118.229768 125.939745 
L 119.606108 125.893415 
L 120.105311 122.557636 
L 120.363423 122.272704 
L 120.982444 124.705044 
L 122.26003 126.766741 
L 122.271385 128.573621 
L 124.040452 128.684814 
L 124.913129 128.615318 
L 127.909507 125.812337 
L 128.167619 129.889401 
L 128.78664 134.012795 
L 129.888374 136.398804 
L 130.064226 145.670649 
L 131.312402 147.825007 
L 131.844648 150.512163 
L 133.977679 155.608492 
L 135.713703 160.843813 
L 135.971815 163.212448 
L 136.590836 164.834008 
L 136.619423 166.038595 
L 137.69257 168.609925 
L 137.868422 173.939064 
L 139.116597 178.502596 
L 141.781875 177.205348 
L 143.517899 179.823008 
L 143.550942 185.127824 
L 143.776011 187.490668 
L 144.423618 191.405576 
L 145.496766 195.413145 
L 145.544453 196.872548 
L 146.920793 197.081034 
L 148.29713 197.891814 
L 149.574715 201.297089 
L 149.586071 200.995942 
L 151.322094 204.401217 
L 151.355137 202.548006 
L 151.580206 199.212227 
L 152.227814 197.335851 
L 153.300961 195.459475 
L 153.348649 194.556035 
L 154.724989 194.648695 
L 156.101325 197.335851 
L 157.378911 193.420943 
L 157.390266 189.737686 
L 159.12629 188.046632 
L 159.159333 187.623868 
L 161.152845 187.878684 
L 163.2865 187.716528 
L 163.905521 183.940611 
L 165.183107 181.062343 
L 165.194462 183.564178 
L 166.431283 184.513948 
L 166.963529 186.969453 
L 170.832584 188.914166 
L 171.090696 190.141918 
L 171.709717 190.51256 
L 171.738304 195.469899 
L 172.811451 195.701551 
L 172.859138 195.400404 
L 174.235479 195.446734 
L 178.63678 197.32311 
L 178.669823 195.006596 
L 178.894892 192.898569 
L 179.5425 192.620588 
L 180.615647 191.879303 
L 180.663334 192.018294 
L 182.039674 194.612789 
L 183.416011 197.879073 
L 184.693597 202.442605 
L 184.704952 200.149257 
L 186.440975 196.836642 
L 186.474018 197.207284 
L 186.699088 197.438936 
L 187.346695 196.975633 
L 188.419842 196.581826 
L 188.46753 197.84143 
L 189.84387 198.559549 
L 191.220206 198.629045 
L 192.509147 194.806797 
L 194.245171 195.061614 
L 194.278214 195.31643 
L 195.150891 199.231338 
L 196.271726 204.953126 
L 196.39989 204.003356 
L 197.648066 200.41276 
L 198.405381 200.435925 
L 199.024402 195.31643 
L 202.049367 195.571247 
L 202.08241 195.339595 
L 202.955087 195.548081 
L 204.028234 196.057714 
L 204.075922 195.779733 
L 204.204086 196.057714 
L 204.215441 191.563678 
L 205.452262 191.88799 
L 206.828598 196.17354 
L 209.886606 196.660008 
L 210.759283 197.656109 
L 212.008282 197.679274 
L 214.013773 197.424457 
L 215.734528 202.590283 
L 215.921735 201.36253 
L 217.690802 201.408861 
L 218.534892 206.088218 
L 218.563479 210.535924 
L 219.812478 210.782054 
L 221.817969 210.897879 
L 223.538724 214.882283 
L 223.586411 211.199026 
L 225.494997 211.129531 
L 226.339088 207.60843 
L 227.616673 207.701091 
L 227.628029 205.291917 
L 229.364052 209.067834 
L 229.622164 209.22999 
L 230.269772 214.164163 
L 231.342919 213.978842 
L 231.390607 214.41898 
L 232.766947 211.152696 
L 234.143283 211.291687 
L 235.420869 211.986641 
L 235.432224 206.450173 
L 237.168248 211.338017 
L 237.201291 209.021503 
L 237.42636 207.816916 
L 238.073968 208.466698 
L 239.147115 208.675185 
L 239.194803 208.837341 
L 240.571143 207.84124 
L 241.947479 207.957065 
L 243.225065 205.455231 
L 245.005487 200.011424 
L 245.230556 196.002118 
L 245.878164 199.013586 
L 247.138518 193.083311 
L 248.375339 191.925054 
L 248.874542 187.454183 
L 249.751675 186.504413 
L 252.809683 180.967945 
L 253.68236 176.867716 
L 254.755507 176.404414 
L 254.931359 167.346846 
L 254.942714 170.775286 
L 256.179535 169.176891 
L 256.678738 169.663359 
L 256.93685 164.481898 
L 261.457969 160.65965 
L 262.559703 156.976394 
L 262.735555 148.56745 
L 262.74691 150.189009 
L 264.515976 147.571349 
L 264.741046 143.725936 
L 265.388653 144.953688 
L 267.885828 140.436487 
L 268.385031 141.339927 
L 269.262165 141.965386 
L 270.53975 138.072485 
L 270.551105 138.118815 
L 272.320172 133.323632 
L 272.545241 134.111247 
L 273.192849 130.173174 
L 274.265996 131.655743 
L 274.313684 136.42776 
L 275.690024 135.572388 
L 277.06636 142.475598 
L 278.343946 142.429268 
L 278.355301 141.386837 
L 280.124368 140.622387 
L 280.349437 145.301745 
L 282.070192 145.932415 
L 282.11788 151.121406 
L 283.49422 155.013149 
L 283.993423 157.810339 
L 284.870556 157.486027 
L 284.899143 162.188549 
L 287.928564 161.933733 
L 288.153633 162.536026 
L 289.874388 162.258045 
L 290.061595 165.47047 
L 291.298416 169.269552 
L 291.797619 173.717258 
L 292.703339 171.678726 
L 296.57685 173.99524 
L 297.726271 176.983542 
L 297.854436 176.983542 
L 297.865791 181.222762 
L 299.102611 178.211294 
L 299.634858 178.512441 
L 299.859927 182.242028 
L 300.507534 181.778725 
L 301.580682 185.23033 
L 303.503913 181.84822 
L 304.381046 183.678266 
L 305.658631 184.975514 
L 307.439053 181.384918 
L 307.664123 181.80189 
L 308.31173 178.859918 
L 309.384877 178.164964 
L 309.432565 176.126432 
L 309.572085 178.164964 
L 310.808905 179.786523 
L 311.308108 178.396615 
L 312.185241 178.576724 
L 313.462827 176.793009 
L 315.243249 177.02466 
L 316.115926 178.374029 
L 317.189073 179.485956 
L 317.236761 174.644442 
L 317.37628 172.119443 
L 318.613101 170.914856 
L 319.370416 173.37036 
L 319.989437 170.735905 
L 321.267023 171.430859 
L 323.047445 167.122144 
L 325.040957 163.647374 
L 325.180476 161.747832 
L 326.417297 157.300126 
L 327.174612 158.484444 
L 327.82222 153.133298 
L 328.895367 156.492242 
L 331.695731 151.280087 
L 332.973317 148.45394 
L 332.984672 148.060133 
L 334.720696 145.419308 
L 334.978808 141.805547 
L 335.626416 141.45807 
L 336.699563 145.78995 
L 336.74725 150.353482 
L 338.12359 151.442243 
L 339.499927 150.724124 
L 340.777513 152.531004 
L 342.783004 151.975041 
L 343.430611 151.419078 
L 344.503759 147.573665 
L 344.551446 144.469537 
L 344.690966 144.330546 
L 345.927786 139.651189 
L 346.426989 139.929171 
L 347.304123 144.562198 
L 348.581708 142.593161 
L 350.36213 144.631693 
L 350.587199 143.149124 
L 352.307954 143.056464 
L 352.355642 145.06546 
L 352.495161 142.285644 
L 353.731982 142.772112 
L 354.231185 142.262479 
L 355.136905 143.884038 
L 356.385904 148.053763 
L 358.166326 144.205455 
L 359.010416 142.885042 
L 360.11215 146.406142 
L 360.299357 152.822885 
L 361.536178 152.151096 
L 362.035381 147.240087 
L 362.293493 147.518069 
L 362.941101 146.521968 
L 366.814612 151.527954 
L 367.916346 148.609147 
L 368.092198 140.733001 
L 368.103553 141.613276 
L 369.340374 137.744698 
L 369.87262 133.065341 
L 370.097689 133.505479 
L 370.745297 133.598139 
L 373.741675 132.555708 
L 374.618808 131.791259 
L 375.896394 136.794928 
L 377.901885 132.810525 
L 378.549493 131.188965 
L 379.62264 131.652268 
L 379.670327 135.937818 
L 381.046667 137.744698 
L 381.545871 137.652038 
L 382.423004 140.431854 
L 383.70059 140.339194 
L 385.481011 139.945386 
L 385.706081 144.346762 
L 387.426835 143.883459 
L 387.474523 139.366258 
L 387.614043 139.412588 
L 388.850863 138.995616 
L 390.227199 130.285525 
L 390.255786 125.073369 
L 391.504785 124.725892 
L 393.285207 124.795388 
L 393.510276 128.571305 
L 395.278719 133.364171 
L 395.418238 134.591923 
L 398.031395 136.56096 
L 398.059982 140.475868 
L 399.308981 141.796281 
L 400.557157 141.70362 
L 401.05636 146.915775 
L 401.089403 142.120592 
L 401.314472 139.827244 
L 403.035227 143.209354 
L 403.082915 148.097197 
L 403.222434 148.46784 
L 405.864178 150.761188 
L 407.113177 153.355683 
L 408.361353 152.637564 
L 408.860556 149.602931 
L 408.893599 150.089399 
L 409.118668 150.205225 
L 409.737689 153.84273 
L 410.839423 156.668877 
L 410.88711 153.170941 
L 411.02663 153.680574 
L 413.668374 156.344565 
L 417.541885 150.784932 
L 418.691306 153.379427 
L 418.819471 158.545253 
L 420.067646 156.831033 
L 420.56685 160.977592 
L 420.599893 163.664747 
L 420.824962 169.386536 
L 421.472569 174.946168 
L 422.545717 173.417269 
L 422.732924 174.691352 
L 425.346081 174.714517 
L 426.623666 175.525297 
L 428.371045 177.864975 
L 428.404088 180.343645 
L 428.629157 180.36681 
L 429.276765 179.625526 
L 430.349912 182.104195 
L 430.537119 180.667957 
L 431.77394 180.111994 
L 433.150276 182.822314 
L 434.427862 182.683324 
L 436.208284 182.775984 
L 436.433353 182.243186 
L 437.080961 185.208323 
L 438.154108 190.930112 
L 438.201796 194.150066 
L 438.341315 194.428047 
L 439.578136 192.783323 
L 440.954472 189.516459 
L 443.979437 190.4199 
L 444.01248 194.103156 
L 444.237549 198.643523 
L 444.885157 200.357743 
L 445.958304 205.94054 
L 446.005992 203.878843 
L 446.134156 203.878843 
L 446.145511 206.728155 
L 447.382332 208.048568 
L 451.816676 210.782054 
L 452.660766 210.805219 
L 452.689353 215.530906 
L 453.810187 219.955447 
L 453.938352 219.932282 
L 453.949707 218.055906 
L 455.186528 212.70476 
L 459.620872 212.588934 
L 460.464962 213.376549 
L 461.566696 216.619668 
L 461.753903 218.032741 
L 466.892821 223.80086 
L 468.269158 223.80086 
L 469.558098 223.916685 
L 473.272989 223.592374 
L 474.697017 223.592374 
L 477.362294 225.60774 
L 482.501213 220.604071 
L 485.16649 220.46508 
L 490.305409 219.6543 
L 498.109604 219.56164 
L 505.9138 221.252695 
L 513.717996 224.240997 
L 525.42429 224.264162 
L 525.42429 224.264162 
" clip-path="url(#p582152296b)" style="fill: none; stroke: #009384; stroke-width: 2.5; stroke-linecap: square"/>
   </g>
   <g id="line2d_12">
    <path d="M 68.9724 231.162602 
L 69.142301 231.102996 
L 69.547116 231.162602 
L 71.588315 231.162602 
L 71.618799 230.983785 
L 72.520246 230.983785 
L 72.764217 224.024803 
L 75.148734 224.799679 
L 75.909253 224.740073 
L 76.776596 222.236628 
L 76.946497 222.117416 
L 77.351312 208.706103 
L 79.11785 208.706103 
L 79.392511 204.295271 
L 79.422994 204.354877 
L 80.568412 204.354877 
L 84.750693 204.414482 
L 85.155508 210.673095 
L 86.855028 210.911519 
L 86.922046 210.673095 
L 87.22719 210.732701 
L 88.128637 210.792307 
L 88.372608 210.61349 
L 92.384987 199.824833 
L 92.959704 193.804643 
L 94.659223 183.96968 
L 94.726242 178.366731 
L 95.000903 176.220921 
L 95.031386 170.439155 
L 95.419742 155.776119 
L 95.932833 145.58352 
L 96.456986 125.317535 
L 102.463419 117.926411 
L 102.530438 105.111156 
L 102.805099 99.195277 
L 102.835582 91.029277 
L 103.223938 83.359496 
L 103.737029 75.431919 
L 103.981 66.133409 
L 104.091281 70.399696 
L 104.261182 59.909069 
L 104.665997 55.975084 
L 110.609294 55.916968 
L 110.639778 56.03618 
L 111.028134 53.353917 
L 111.541225 47.929786 
L 111.895477 48.048997 
L 112.065378 34.995319 
L 112.470193 35.352954 
L 114.236731 35.472165 
L 119.699672 35.650983 
L 119.869574 35.890896 
L 120.274389 46.619947 
L 121.973909 54.070677 
L 122.040927 64.024852 
L 122.315588 69.687407 
L 122.346071 75.588385 
L 123.247518 81.431247 
L 123.491489 96.153889 
L 127.503868 105.810035 
L 128.078585 117.254356 
L 129.778105 125.181932 
L 129.845123 132.932181 
L 130.119784 143.422809 
L 130.150267 156.238064 
L 130.538623 163.86165 
L 131.051714 171.650643 
L 131.575867 191.082147 
L 135.308064 200.286778 
L 137.5823 208.333566 
L 137.649319 210.837011 
L 138.342819 208.451288 
L 138.85591 208.452778 
L 139.099881 211.075435 
L 139.380063 202.5518 
L 139.784879 194.645086 
L 141.826078 179.803232 
L 145.386496 192.85691 
L 146.147015 190.472677 
L 147.014358 187.13475 
L 147.184259 187.015538 
L 147.589074 186.896327 
L 149.355613 174.079581 
L 149.660757 174.139187 
L 150.562204 174.079581 
L 150.806175 173.543129 
L 154.818554 169.251508 
L 154.988455 168.773172 
L 157.09279 163.229829 
L 157.464952 154.288953 
L 158.3664 151.247565 
L 158.61037 143.698486 
L 159.295368 142.750753 
L 162.622749 142.750753 
L 164.964004 143.287205 
L 165.238665 143.346811 
L 165.269148 145.790651 
L 165.657505 150.618723 
L 166.170595 149.128577 
L 166.414566 150.3803 
L 166.694749 148.590635 
L 167.099564 133.808387 
L 170.426945 147.815759 
L 172.701181 155.603262 
L 173.073344 170.445115 
L 173.4617 170.445115 
L 173.974791 170.683539 
L 174.218762 168.358911 
L 174.498944 168.418517 
L 174.90376 168.120488 
L 176.670298 176.405699 
L 176.944959 173.902254 
L 180.505377 173.902254 
L 180.87754 168.299305 
L 181.265896 167.882064 
L 182.30314 170.623933 
L 182.707955 176.167276 
L 184.474494 178.551509 
L 184.749155 185.346575 
L 185.681085 186.359874 
L 185.925056 174.736736 
L 188.309573 178.491903 
L 188.681736 186.458224 
L 189.070092 178.828676 
L 189.937435 170.722282 
L 190.107336 170.603071 
L 192.27869 164.225246 
L 192.55335 164.16564 
L 193.485281 157.01294 
L 193.729252 152.602108 
L 194.414249 154.807524 
L 197.741631 154.807524 
L 197.911532 146.879947 
L 200.082885 148.906546 
L 200.388029 132.574546 
L 200.776386 132.634152 
L 201.289476 134.779962 
L 201.533447 140.442517 
L 202.218445 140.382911 
L 207.820063 115.706094 
L 208.161742 118.209539 
L 208.192225 106.88443 
L 208.580581 105.334678 
L 209.093672 93.353905 
L 209.337643 95.440109 
L 210.022641 95.380503 
L 211.789179 81.492343 
L 215.624258 67.842606 
L 215.965938 56.279073 
L 215.996421 69.273146 
L 216.384777 65.279555 
L 217.826837 45.31756 
L 219.593375 45.377166 
L 220.799966 47.165341 
L 221.043937 33.157969 
L 224.188973 40.312159 
L 225.226217 46.213137 
L 225.631032 43.054028 
L 227.330552 52.173721 
L 227.397571 64.929371 
L 227.672232 64.988976 
L 227.702715 78.638713 
L 228.604162 81.201764 
L 228.848133 74.356034 
L 232.860512 74.296428 
L 233.030413 74.177216 
L 235.134748 74.177216 
L 235.201766 89.01907 
L 235.476427 103.801318 
L 235.506911 100.821026 
L 235.895267 111.609683 
L 236.408358 118.166325 
L 236.652328 131.041186 
L 237.337326 131.100792 
L 240.834609 130.564339 
L 242.938944 130.564339 
L 243.280623 143.916047 
L 243.311106 157.565784 
L 243.699463 169.129316 
L 244.212553 169.069711 
L 244.456524 173.420937 
L 244.566805 185.932202 
L 245.141522 195.647954 
L 246.90806 209.834143 
L 250.74314 209.834143 
L 251.084819 214.304581 
L 251.115302 228.311953 
L 251.503658 228.310463 
L 252.016749 227.833616 
L 252.371001 223.661208 
L 252.540902 226.879923 
L 252.945718 227.535587 
L 254.712256 224.91293 
L 256.162818 224.853324 
L 258.889015 222.647908 
L 258.919498 222.707514 
L 259.307854 229.553245 
L 260.175197 229.016792 
L 260.345098 224.546354 
L 260.749914 224.069508 
L 262.449433 224.129113 
L 262.516452 222.877391 
L 263.723043 219.241435 
L 263.967014 213.519274 
L 267.11205 214.055727 
L 267.979393 213.996121 
L 268.149294 199.154267 
L 268.554109 196.82964 
L 270.253629 196.82964 
L 270.320648 182.941479 
L 270.625792 168.159231 
L 271.527239 165.238545 
L 271.77121 165.298151 
L 275.783589 162.556283 
L 278.057825 163.271553 
L 278.124843 148.489305 
L 278.399504 148.429699 
L 278.429987 148.072064 
L 279.331434 148.13167 
L 279.575405 148.608517 
L 279.855588 152.780925 
L 280.260403 152.721319 
L 285.862021 152.602108 
L 285.929039 155.165159 
L 286.2037 155.224765 
L 286.234183 155.761217 
L 287.13563 153.019349 
L 287.379601 153.555801 
L 287.489882 152.184867 
L 287.659783 152.780925 
L 288.064599 152.304078 
L 293.666216 153.436589 
L 294.038379 160.052837 
L 294.426735 161.721801 
L 294.939826 161.721801 
L 295.294078 155.403582 
L 295.463979 170.18583 
L 295.868795 158.264662 
L 297.635333 156.536093 
L 297.909994 169.410954 
L 299.085895 184.133596 
L 301.842575 182.941479 
L 302.230931 185.862165 
L 303.098274 183.35872 
L 303.67299 173.821786 
L 305.37251 173.881392 
L 305.439529 183.775961 
L 306.64612 184.372019 
L 306.890091 177.874983 
L 307.170273 174.656268 
L 311.477186 174.656268 
L 313.176706 170.483859 
L 313.243725 170.543465 
L 313.548869 169.112925 
L 314.450316 168.75529 
L 314.694286 157.847421 
L 314.804568 159.218356 
L 314.974469 159.218356 
L 321.04792 165.000122 
L 321.353064 155.99964 
L 321.741421 149.264181 
L 322.254511 151.648414 
L 322.608763 151.767626 
L 322.778665 158.085845 
L 323.18348 158.085845 
L 326.40058 172.868093 
L 328.785098 171.854793 
L 328.852116 166.192239 
L 329.126777 166.31145 
L 329.15726 167.563173 
L 329.545616 161.900618 
L 330.058707 164.344458 
L 330.412959 175.609961 
L 330.58286 167.801596 
L 330.987676 172.689275 
L 334.204776 172.689275 
L 336.961456 169.172531 
L 337.349812 175.550355 
L 338.217155 177.874983 
L 338.387056 172.033611 
L 338.791872 171.199129 
L 340.491391 160.648896 
L 340.55841 151.409991 
L 340.833071 149.383392 
L 341.765001 141.276998 
L 342.008972 135.197203 
L 345.154008 147.41789 
L 346.596067 147.477496 
L 348.295587 146.344985 
L 348.362606 146.464197 
L 348.637266 138.357803 
L 348.66775 144.497204 
L 349.569197 144.25878 
L 350.09335 153.14005 
L 353.715265 150.636605 
L 354.400263 146.404591 
L 356.166801 140.920854 
L 356.441462 142.709029 
L 356.471945 149.921335 
L 356.860302 149.802123 
L 357.373393 149.802123 
L 357.727644 155.466168 
L 357.897546 147.41938 
L 361.519461 141.518402 
L 363.970997 145.631205 
L 364.276141 145.571599 
L 364.664498 149.088344 
L 365.177588 146.346475 
L 365.53184 145.333176 
L 365.701742 151.234154 
L 366.106557 147.359774 
L 367.806077 154.989321 
L 369.323657 160.413453 
L 372.049854 163.870591 
L 372.468693 165.062708 
L 373.336036 169.551028 
L 373.505937 169.609143 
L 373.910753 169.609143 
L 375.677291 170.80126 
L 375.982435 175.808151 
L 376.883882 165.734764 
L 381.029951 166.211611 
L 381.714948 166.152005 
L 383.414468 166.271217 
L 383.481487 159.297333 
L 383.756148 163.64856 
L 383.786631 169.132297 
L 384.174987 165.675158 
L 384.688078 166.569246 
L 385.04233 158.582063 
L 385.212231 143.919027 
L 388.834147 143.382575 
L 391.285683 128.598837 
L 391.590827 137.953973 
L 391.979183 141.589929 
L 392.492274 141.470717 
L 392.846526 140.874659 
L 393.016427 127.999798 
L 393.421242 130.860878 
L 395.120762 132.351024 
L 396.638342 132.351024 
L 399.364539 122.277638 
L 399.783379 129.370732 
L 400.296469 133.1259 
L 400.650721 133.006688 
L 400.820623 139.980571 
L 401.225438 139.7645 
L 403.29712 138.935979 
L 407.587575 138.876373 
L 408.100665 141.975877 
L 408.344636 154.016256 
L 408.454917 153.658621 
L 409.029634 145.492621 
L 410.729154 142.2143 
L 410.796172 151.691629 
L 411.070833 137.445833 
L 411.101316 137.505439 
L 412.526916 137.267016 
L 415.39177 137.267016 
L 415.904861 145.254198 
L 416.148832 159.857628 
L 416.83383 160.453687 
L 418.533349 172.672884 
L 418.600368 169.036927 
L 418.905512 174.523645 
L 420.161211 174.642856 
L 420.331112 175.238915 
L 423.195966 188.05417 
L 423.709057 184.537426 
L 423.953028 184.895061 
L 424.638025 171.424141 
L 426.404564 186.146783 
L 426.679225 186.146783 
L 426.709708 181.139893 
L 428.135308 181.139893 
L 430.239643 185.152856 
L 431.000162 185.623742 
L 431.757224 185.206501 
L 434.208759 185.146895 
L 434.513904 184.968078 
L 435.939504 185.683348 
L 436.344319 191.465114 
L 438.043839 194.624224 
L 442.012955 194.564618 
L 442.287616 208.750807 
L 442.318099 208.691201 
L 443.463517 210.240953 
L 444.148515 210.360165 
L 445.848035 210.538982 
L 449.817151 210.300559 
L 451.267713 212.804004 
L 451.952711 216.43996 
L 453.65223 216.43996 
L 453.99391 216.082325 
L 461.456426 215.367055 
L 461.798106 218.824194 
L 469.260622 204.101552 
L 469.260622 204.101552 
" clip-path="url(#p582152296b)" style="fill: none; stroke: #b85741; stroke-width: 2.5; stroke-linecap: square"/>
   </g>
   <g id="patch_3">
    <path d="M 46.051562 244.837969 
L 46.051562 23.077969 
" style="fill: none; stroke: #000000; stroke-width: 0.8; stroke-linejoin: miter; stroke-linecap: square"/>
   </g>
   <g id="patch_4">
    <path d="M 548.251563 244.837969 
L 548.251563 23.077969 
" style="fill: none; stroke: #000000; stroke-width: 0.8; stroke-linejoin: miter; stroke-linecap: square"/>
   </g>
   <g id="patch_5">
    <path d="M 46.051562 244.837969 
L 548.251563 244.837969 
" style="fill: none; stroke: #000000; stroke-width: 0.8; stroke-linejoin: miter; stroke-linecap: square"/>
   </g>
   <g id="patch_6">
    <path d="M 46.051562 23.077969 
L 548.251563 23.077969 
" style="fill: none; stroke: #000000; stroke-width: 0.8; stroke-linejoin: miter; stroke-linecap: square"/>
   </g>
   <g id="text_13">
    <!-- Live Migrate Many (Disk) -->
    <g transform="translate(216.345391 17.077969) scale(0.13 -0.13)">
     <defs>
      <path id="DejaVuSans-4c" d="M 628 4666 
L 1259 4666 
L 1259 531 
L 3531 531 
L 3531 0 
L 628 0 
L 628 4666 
z
" transform="scale(0.015625)"/>
      <path id="DejaVuSans-76" d="M 191 3500 
L 800 3500 
L 1894 563 
L 2988 3500 
L 3597 3500 
L 2284 0 
L 1503 0 
L 191 3500 
z
" transform="scale(0.015625)"/>
      <path id="DejaVuSans-4d" d="M 628 4666 
L 1569 4666 
L 2759 1491 
L 3956 4666 
L 4897 4666 
L 4897 0 
L 4281 0 
L 4281 4097 
L 3078 897 
L 2444 897 
L 1241 4097 
L 1241 0 
L 628 0 
L 628 4666 
z
" transform="scale(0.015625)"/>
      <path id="DejaVuSans-67" d="M 2906 1791 
Q 2906 2416 2648 2759 
Q 2391 3103 1925 3103 
Q 1463 3103 1205 2759 
Q 947 2416 947 1791 
Q 947 1169 1205 825 
Q 1463 481 1925 481 
Q 2391 481 2648 825 
Q 2906 1169 2906 1791 
z
M 3481 434 
Q 3481 -459 3084 -895 
Q 2688 -1331 1869 -1331 
Q 1566 -1331 1297 -1286 
Q 1028 -1241 775 -1147 
L 775 -588 
Q 1028 -725 1275 -790 
Q 1522 -856 1778 -856 
Q 2344 -856 2625 -561 
Q 2906 -266 2906 331 
L 2906 616 
Q 2728 306 2450 153 
Q 2172 0 1784 0 
Q 1141 0 747 490 
Q 353 981 353 1791 
Q 353 2603 747 3093 
Q 1141 3584 1784 3584 
Q 2172 3584 2450 3431 
Q 2728 3278 2906 2969 
L 2906 3500 
L 3481 3500 
L 3481 434 
z
" transform="scale(0.015625)"/>
      <path id="DejaVuSans-72" d="M 2631 2963 
Q 2534 3019 2420 3045 
Q 2306 3072 2169 3072 
Q 1681 3072 1420 2755 
Q 1159 2438 1159 1844 
L 1159 0 
L 581 0 
L 581 3500 
L 1159 3500 
L 1159 2956 
Q 1341 3275 1631 3429 
Q 1922 3584 2338 3584 
Q 2397 3584 2469 3576 
Q 2541 3569 2628 3553 
L 2631 2963 
z
" transform="scale(0.015625)"/>
      <path id="DejaVuSans-79" d="M 2059 -325 
Q 1816 -950 1584 -1140 
Q 1353 -1331 966 -1331 
L 506 -1331 
L 506 -850 
L 844 -850 
Q 1081 -850 1212 -737 
Q 1344 -625 1503 -206 
L 1606 56 
L 191 3500 
L 800 3500 
L 1894 763 
L 2988 3500 
L 3597 3500 
L 2059 -325 
z
" transform="scale(0.015625)"/>
      <path id="DejaVuSans-44" d="M 1259 4147 
L 1259 519 
L 2022 519 
Q 2988 519 3436 956 
Q 3884 1394 3884 2338 
Q 3884 3275 3436 3711 
Q 2988 4147 2022 4147 
L 1259 4147 
z
M 628 4666 
L 1925 4666 
Q 3281 4666 3915 4102 
Q 4550 3538 4550 2338 
Q 4550 1131 3912 565 
Q 3275 0 1925 0 
L 628 0 
L 628 4666 
z
" transform="scale(0.015625)"/>
      <path id="DejaVuSans-6b" d="M 581 4863 
L 1159 4863 
L 1159 1991 
L 2875 3500 
L 3609 3500 
L 1753 1863 
L 3688 0 
L 2938 0 
L 1159 1709 
L 1159 0 
L 581 0 
L 581 4863 
z
" transform="scale(0.015625)"/>
     </defs>
     <use xlink:href="#DejaVuSans-4c"/>
     <use xlink:href="#DejaVuSans-69" x="55.712891"/>
     <use xlink:href="#DejaVuSans-76" x="83.496094"/>
     <use xlink:href="#DejaVuSans-65" x="142.675781"/>
     <use xlink:href="#DejaVuSans-20" x="204.199219"/>
     <use xlink:href="#DejaVuSans-4d" x="235.986328"/>
     <use xlink:href="#DejaVuSans-69" x="322.265625"/>
     <use xlink:href="#DejaVuSans-67" x="350.048828"/>
     <use xlink:href="#DejaVuSans-72" x="413.525391"/>
     <use xlink:href="#DejaVuSans-61" x="454.638672"/>
     <use xlink:href="#DejaVuSans-74" x="515.917969"/>
     <use xlink:href="#DejaVuSans-65" x="555.126953"/>
     <use xlink:href="#DejaVuSans-20" x="616.650391"/>
     <use xlink:href="#DejaVuSans-4d" x="648.4375"/>
     <use xlink:href="#DejaVuSans-61" x="734.716797"/>
     <use xlink:href="#DejaVuSans-6e" x="795.996094"/>
     <use xlink:href="#DejaVuSans-79" x="859.375"/>
     <use xlink:href="#DejaVuSans-20" x="918.554688"/>
     <use xlink:href="#DejaVuSans-28" x="950.341797"/>
     <use xlink:href="#DejaVuSans-44" x="989.355469"/>
     <use xlink:href="#DejaVuSans-69" x="1066.357422"/>
     <use xlink:href="#DejaVuSans-73" x="1094.140625"/>
     <use xlink:href="#DejaVuSans-6b" x="1146.240234"/>
     <use xlink:href="#DejaVuSans-29" x="1204.150391"/>
    </g>
   </g>
   <g id="legend_1">
    <g id="patch_7">
     <path d="M 423.312813 67.905469 
L 539.851563 67.905469 
Q 542.251563 67.905469 542.251563 65.505469 
L 542.251563 31.477969 
Q 542.251563 29.077969 539.851563 29.077969 
L 423.312813 29.077969 
Q 420.912813 29.077969 420.912813 31.477969 
L 420.912813 65.505469 
Q 420.912813 67.905469 423.312813 67.905469 
z
" style="fill: #ffffff; opacity: 0.8; stroke: #cccccc; stroke-linejoin: miter"/>
    </g>
    <g id="line2d_13">
     <path d="M 425.712813 38.796094 
L 437.712813 38.796094 
L 449.712813 38.796094 
" style="fill: none; stroke: #009384; stroke-width: 2.5; stroke-linecap: square"/>
    </g>
    <g id="text_14">
     <!-- KubeVirt  -->
     <g transform="translate(459.312813 42.996094) scale(0.12 -0.12)">
      <defs>
       <path id="DejaVuSans-4b" d="M 628 4666 
L 1259 4666 
L 1259 2694 
L 3353 4666 
L 4166 4666 
L 1850 2491 
L 4331 0 
L 3500 0 
L 1259 2247 
L 1259 0 
L 628 0 
L 628 4666 
z
" transform="scale(0.015625)"/>
       <path id="DejaVuSans-75" d="M 544 1381 
L 544 3500 
L 1119 3500 
L 1119 1403 
Q 1119 906 1312 657 
Q 1506 409 1894 409 
Q 2359 409 2629 706 
Q 2900 1003 2900 1516 
L 2900 3500 
L 3475 3500 
L 3475 0 
L 2900 0 
L 2900 538 
Q 2691 219 2414 64 
Q 2138 -91 1772 -91 
Q 1169 -91 856 284 
Q 544 659 544 1381 
z
M 1991 3584 
L 1991 3584 
z
" transform="scale(0.015625)"/>
       <path id="DejaVuSans-62" d="M 3116 1747 
Q 3116 2381 2855 2742 
Q 2594 3103 2138 3103 
Q 1681 3103 1420 2742 
Q 1159 2381 1159 1747 
Q 1159 1113 1420 752 
Q 1681 391 2138 391 
Q 2594 391 2855 752 
Q 3116 1113 3116 1747 
z
M 1159 2969 
Q 1341 3281 1617 3432 
Q 1894 3584 2278 3584 
Q 2916 3584 3314 3078 
Q 3713 2572 3713 1747 
Q 3713 922 3314 415 
Q 2916 -91 2278 -91 
Q 1894 -91 1617 61 
Q 1341 213 1159 525 
L 1159 0 
L 581 0 
L 581 4863 
L 1159 4863 
L 1159 2969 
z
" transform="scale(0.015625)"/>
       <path id="DejaVuSans-56" d="M 1831 0 
L 50 4666 
L 709 4666 
L 2188 738 
L 3669 4666 
L 4325 4666 
L 2547 0 
L 1831 0 
z
" transform="scale(0.015625)"/>
      </defs>
      <use xlink:href="#DejaVuSans-4b"/>
      <use xlink:href="#DejaVuSans-75" x="60.576172"/>
      <use xlink:href="#DejaVuSans-62" x="123.955078"/>
      <use xlink:href="#DejaVuSans-65" x="187.431641"/>
      <use xlink:href="#DejaVuSans-56" x="248.955078"/>
      <use xlink:href="#DejaVuSans-69" x="315.113281"/>
      <use xlink:href="#DejaVuSans-72" x="342.896484"/>
      <use xlink:href="#DejaVuSans-74" x="384.009766"/>
      <use xlink:href="#DejaVuSans-20" x="423.21875"/>
     </g>
    </g>
    <g id="line2d_14">
     <path d="M 425.712813 56.409844 
L 437.712813 56.409844 
L 449.712813 56.409844 
" style="fill: none; stroke: #b85741; stroke-width: 2.5; stroke-linecap: square"/>
    </g>
    <g id="text_15">
     <!-- OpenNebula  -->
     <g transform="translate(459.312813 60.609844) scale(0.12 -0.12)">
      <defs>
       <path id="DejaVuSans-4f" d="M 2522 4238 
Q 1834 4238 1429 3725 
Q 1025 3213 1025 2328 
Q 1025 1447 1429 934 
Q 1834 422 2522 422 
Q 3209 422 3611 934 
Q 4013 1447 4013 2328 
Q 4013 3213 3611 3725 
Q 3209 4238 2522 4238 
z
M 2522 4750 
Q 3503 4750 4090 4092 
Q 4678 3434 4678 2328 
Q 4678 1225 4090 567 
Q 3503 -91 2522 -91 
Q 1538 -91 948 565 
Q 359 1222 359 2328 
Q 359 3434 948 4092 
Q 1538 4750 2522 4750 
z
" transform="scale(0.015625)"/>
       <path id="DejaVuSans-70" d="M 1159 525 
L 1159 -1331 
L 581 -1331 
L 581 3500 
L 1159 3500 
L 1159 2969 
Q 1341 3281 1617 3432 
Q 1894 3584 2278 3584 
Q 2916 3584 3314 3078 
Q 3713 2572 3713 1747 
Q 3713 922 3314 415 
Q 2916 -91 2278 -91 
Q 1894 -91 1617 61 
Q 1341 213 1159 525 
z
M 3116 1747 
Q 3116 2381 2855 2742 
Q 2594 3103 2138 3103 
Q 1681 3103 1420 2742 
Q 1159 2381 1159 1747 
Q 1159 1113 1420 752 
Q 1681 391 2138 391 
Q 2594 391 2855 752 
Q 3116 1113 3116 1747 
z
" transform="scale(0.015625)"/>
       <path id="DejaVuSans-4e" d="M 628 4666 
L 1478 4666 
L 3547 763 
L 3547 4666 
L 4159 4666 
L 4159 0 
L 3309 0 
L 1241 3903 
L 1241 0 
L 628 0 
L 628 4666 
z
" transform="scale(0.015625)"/>
      </defs>
      <use xlink:href="#DejaVuSans-4f"/>
      <use xlink:href="#DejaVuSans-70" x="78.710938"/>
      <use xlink:href="#DejaVuSans-65" x="142.1875"/>
      <use xlink:href="#DejaVuSans-6e" x="203.710938"/>
      <use xlink:href="#DejaVuSans-4e" x="267.089844"/>
      <use xlink:href="#DejaVuSans-65" x="341.894531"/>
      <use xlink:href="#DejaVuSans-62" x="403.417969"/>
      <use xlink:href="#DejaVuSans-75" x="466.894531"/>
      <use xlink:href="#DejaVuSans-6c" x="530.273438"/>
      <use xlink:href="#DejaVuSans-61" x="558.056641"/>
      <use xlink:href="#DejaVuSans-20" x="619.335938"/>
     </g>
    </g>
   </g>
  </g>
 </g>
 <defs>
  <clipPath id="p582152296b">
   <rect x="46.051562" y="23.077969" width="502.2" height="221.76"/>
  </clipPath>
 </defs>
</svg>
