<?xml version="1.0" encoding="utf-8" standalone="no"?>
<!DOCTYPE svg PUBLIC "-//W3C//DTD SVG 1.1//EN"
  "http://www.w3.org/Graphics/SVG/1.1/DTD/svg11.dtd">
<svg xmlns:xlink="http://www.w3.org/1999/xlink" width="555.451562pt" height="287.233281pt" viewBox="0 0 555.451562 287.233281" xmlns="http://www.w3.org/2000/svg" version="1.1">
 <metadata>
  <rdf:RDF xmlns:dc="http://purl.org/dc/elements/1.1/" xmlns:cc="http://creativecommons.org/ns#" xmlns:rdf="http://www.w3.org/1999/02/22-rdf-syntax-ns#">
   <cc:Work>
    <dc:type rdf:resource="http://purl.org/dc/dcmitype/StillImage"/>
    <dc:date>2024-05-21T10:08:06.471572</dc:date>
    <dc:format>image/svg+xml</dc:format>
    <dc:creator>
     <cc:Agent>
      <dc:title>Matplotlib v3.8.4, https://matplotlib.org/</dc:title>
     </cc:Agent>
    </dc:creator>
   </cc:Work>
  </rdf:RDF>
 </metadata>
 <defs>
  <style type="text/css">*{stroke-linejoin: round; stroke-linecap: butt}</style>
 </defs>
 <g id="figure_1">
  <g id="patch_1">
   <path d="M 0 287.233281 
L 555.451562 287.233281 
L 555.451562 0 
L 0 0 
z
" style="fill: #f3f7f8"/>
  </g>
  <g id="axes_1">
   <g id="patch_2">
    <path d="M 46.051562 244.837969 
L 548.251563 244.837969 
L 548.251563 23.077969 
L 46.051562 23.077969 
z
" style="fill: #ffffff"/>
   </g>
   <g id="matplotlib.axis_1">
    <g id="xtick_1">
     <g id="line2d_1">
      <defs>
       <path id="m37bd4fa622" d="M 0 0 
L 0 3.5 
" style="stroke: #000000; stroke-width: 0.8"/>
      </defs>
      <g>
       <use xlink:href="#m37bd4fa622" x="112.238329" y="244.837969" style="stroke: #000000; stroke-width: 0.8"/>
      </g>
     </g>
     <g id="text_1">
      <!-- 0 -->
      <g transform="translate(108.420829 260.956094) scale(0.12 -0.12)">
       <defs>
        <path id="DejaVuSans-30" d="M 2034 4250 
Q 1547 4250 1301 3770 
Q 1056 3291 1056 2328 
Q 1056 1369 1301 889 
Q 1547 409 2034 409 
Q 2525 409 2770 889 
Q 3016 1369 3016 2328 
Q 3016 3291 2770 3770 
Q 2525 4250 2034 4250 
z
M 2034 4750 
Q 2819 4750 3233 4129 
Q 3647 3509 3647 2328 
Q 3647 1150 3233 529 
Q 2819 -91 2034 -91 
Q 1250 -91 836 529 
Q 422 1150 422 2328 
Q 422 3509 836 4129 
Q 1250 4750 2034 4750 
z
" transform="scale(0.015625)"/>
       </defs>
       <use xlink:href="#DejaVuSans-30"/>
      </g>
     </g>
    </g>
    <g id="xtick_2">
     <g id="line2d_2">
      <g>
       <use xlink:href="#m37bd4fa622" x="217.859105" y="244.837969" style="stroke: #000000; stroke-width: 0.8"/>
      </g>
     </g>
     <g id="text_2">
      <!-- 10 -->
      <g transform="translate(210.224105 260.956094) scale(0.12 -0.12)">
       <defs>
        <path id="DejaVuSans-31" d="M 794 531 
L 1825 531 
L 1825 4091 
L 703 3866 
L 703 4441 
L 1819 4666 
L 2450 4666 
L 2450 531 
L 3481 531 
L 3481 0 
L 794 0 
L 794 531 
z
" transform="scale(0.015625)"/>
       </defs>
       <use xlink:href="#DejaVuSans-31"/>
       <use xlink:href="#DejaVuSans-30" x="63.623047"/>
      </g>
     </g>
    </g>
    <g id="xtick_3">
     <g id="line2d_3">
      <g>
       <use xlink:href="#m37bd4fa622" x="323.47988" y="244.837969" style="stroke: #000000; stroke-width: 0.8"/>
      </g>
     </g>
     <g id="text_3">
      <!-- 20 -->
      <g transform="translate(315.84488 260.956094) scale(0.12 -0.12)">
       <defs>
        <path id="DejaVuSans-32" d="M 1228 531 
L 3431 531 
L 3431 0 
L 469 0 
L 469 531 
Q 828 903 1448 1529 
Q 2069 2156 2228 2338 
Q 2531 2678 2651 2914 
Q 2772 3150 2772 3378 
Q 2772 3750 2511 3984 
Q 2250 4219 1831 4219 
Q 1534 4219 1204 4116 
Q 875 4013 500 3803 
L 500 4441 
Q 881 4594 1212 4672 
Q 1544 4750 1819 4750 
Q 2544 4750 2975 4387 
Q 3406 4025 3406 3419 
Q 3406 3131 3298 2873 
Q 3191 2616 2906 2266 
Q 2828 2175 2409 1742 
Q 1991 1309 1228 531 
z
" transform="scale(0.015625)"/>
       </defs>
       <use xlink:href="#DejaVuSans-32"/>
       <use xlink:href="#DejaVuSans-30" x="63.623047"/>
      </g>
     </g>
    </g>
    <g id="xtick_4">
     <g id="line2d_4">
      <g>
       <use xlink:href="#m37bd4fa622" x="429.100656" y="244.837969" style="stroke: #000000; stroke-width: 0.8"/>
      </g>
     </g>
     <g id="text_4">
      <!-- 30 -->
      <g transform="translate(421.465656 260.956094) scale(0.12 -0.12)">
       <defs>
        <path id="DejaVuSans-33" d="M 2597 2516 
Q 3050 2419 3304 2112 
Q 3559 1806 3559 1356 
Q 3559 666 3084 287 
Q 2609 -91 1734 -91 
Q 1441 -91 1130 -33 
Q 819 25 488 141 
L 488 750 
Q 750 597 1062 519 
Q 1375 441 1716 441 
Q 2309 441 2620 675 
Q 2931 909 2931 1356 
Q 2931 1769 2642 2001 
Q 2353 2234 1838 2234 
L 1294 2234 
L 1294 2753 
L 1863 2753 
Q 2328 2753 2575 2939 
Q 2822 3125 2822 3475 
Q 2822 3834 2567 4026 
Q 2313 4219 1838 4219 
Q 1578 4219 1281 4162 
Q 984 4106 628 3988 
L 628 4550 
Q 988 4650 1302 4700 
Q 1616 4750 1894 4750 
Q 2613 4750 3031 4423 
Q 3450 4097 3450 3541 
Q 3450 3153 3228 2886 
Q 3006 2619 2597 2516 
z
" transform="scale(0.015625)"/>
       </defs>
       <use xlink:href="#DejaVuSans-33"/>
       <use xlink:href="#DejaVuSans-30" x="63.623047"/>
      </g>
     </g>
    </g>
    <g id="xtick_5">
     <g id="line2d_5">
      <g>
       <use xlink:href="#m37bd4fa622" x="534.721432" y="244.837969" style="stroke: #000000; stroke-width: 0.8"/>
      </g>
     </g>
     <g id="text_5">
      <!-- 40 -->
      <g transform="translate(527.086432 260.956094) scale(0.12 -0.12)">
       <defs>
        <path id="DejaVuSans-34" d="M 2419 4116 
L 825 1625 
L 2419 1625 
L 2419 4116 
z
M 2253 4666 
L 3047 4666 
L 3047 1625 
L 3713 1625 
L 3713 1100 
L 3047 1100 
L 3047 0 
L 2419 0 
L 2419 1100 
L 313 1100 
L 313 1709 
L 2253 4666 
z
" transform="scale(0.015625)"/>
       </defs>
       <use xlink:href="#DejaVuSans-34"/>
       <use xlink:href="#DejaVuSans-30" x="63.623047"/>
      </g>
     </g>
    </g>
    <g id="text_6">
     <!-- Time (s) -->
     <g transform="translate(270.723984 277.329687) scale(0.13 -0.13)">
      <defs>
       <path id="DejaVuSans-54" d="M -19 4666 
L 3928 4666 
L 3928 4134 
L 2272 4134 
L 2272 0 
L 1638 0 
L 1638 4134 
L -19 4134 
L -19 4666 
z
" transform="scale(0.015625)"/>
       <path id="DejaVuSans-69" d="M 603 3500 
L 1178 3500 
L 1178 0 
L 603 0 
L 603 3500 
z
M 603 4863 
L 1178 4863 
L 1178 4134 
L 603 4134 
L 603 4863 
z
" transform="scale(0.015625)"/>
       <path id="DejaVuSans-6d" d="M 3328 2828 
Q 3544 3216 3844 3400 
Q 4144 3584 4550 3584 
Q 5097 3584 5394 3201 
Q 5691 2819 5691 2113 
L 5691 0 
L 5113 0 
L 5113 2094 
Q 5113 2597 4934 2840 
Q 4756 3084 4391 3084 
Q 3944 3084 3684 2787 
Q 3425 2491 3425 1978 
L 3425 0 
L 2847 0 
L 2847 2094 
Q 2847 2600 2669 2842 
Q 2491 3084 2119 3084 
Q 1678 3084 1418 2786 
Q 1159 2488 1159 1978 
L 1159 0 
L 581 0 
L 581 3500 
L 1159 3500 
L 1159 2956 
Q 1356 3278 1631 3431 
Q 1906 3584 2284 3584 
Q 2666 3584 2933 3390 
Q 3200 3197 3328 2828 
z
" transform="scale(0.015625)"/>
       <path id="DejaVuSans-65" d="M 3597 1894 
L 3597 1613 
L 953 1613 
Q 991 1019 1311 708 
Q 1631 397 2203 397 
Q 2534 397 2845 478 
Q 3156 559 3463 722 
L 3463 178 
Q 3153 47 2828 -22 
Q 2503 -91 2169 -91 
Q 1331 -91 842 396 
Q 353 884 353 1716 
Q 353 2575 817 3079 
Q 1281 3584 2069 3584 
Q 2775 3584 3186 3129 
Q 3597 2675 3597 1894 
z
M 3022 2063 
Q 3016 2534 2758 2815 
Q 2500 3097 2075 3097 
Q 1594 3097 1305 2825 
Q 1016 2553 972 2059 
L 3022 2063 
z
" transform="scale(0.015625)"/>
       <path id="DejaVuSans-20" transform="scale(0.015625)"/>
       <path id="DejaVuSans-28" d="M 1984 4856 
Q 1566 4138 1362 3434 
Q 1159 2731 1159 2009 
Q 1159 1288 1364 580 
Q 1569 -128 1984 -844 
L 1484 -844 
Q 1016 -109 783 600 
Q 550 1309 550 2009 
Q 550 2706 781 3412 
Q 1013 4119 1484 4856 
L 1984 4856 
z
" transform="scale(0.015625)"/>
       <path id="DejaVuSans-73" d="M 2834 3397 
L 2834 2853 
Q 2591 2978 2328 3040 
Q 2066 3103 1784 3103 
Q 1356 3103 1142 2972 
Q 928 2841 928 2578 
Q 928 2378 1081 2264 
Q 1234 2150 1697 2047 
L 1894 2003 
Q 2506 1872 2764 1633 
Q 3022 1394 3022 966 
Q 3022 478 2636 193 
Q 2250 -91 1575 -91 
Q 1294 -91 989 -36 
Q 684 19 347 128 
L 347 722 
Q 666 556 975 473 
Q 1284 391 1588 391 
Q 1994 391 2212 530 
Q 2431 669 2431 922 
Q 2431 1156 2273 1281 
Q 2116 1406 1581 1522 
L 1381 1569 
Q 847 1681 609 1914 
Q 372 2147 372 2553 
Q 372 3047 722 3315 
Q 1072 3584 1716 3584 
Q 2034 3584 2315 3537 
Q 2597 3491 2834 3397 
z
" transform="scale(0.015625)"/>
       <path id="DejaVuSans-29" d="M 513 4856 
L 1013 4856 
Q 1481 4119 1714 3412 
Q 1947 2706 1947 2009 
Q 1947 1309 1714 600 
Q 1481 -109 1013 -844 
L 513 -844 
Q 928 -128 1133 580 
Q 1338 1288 1338 2009 
Q 1338 2731 1133 3434 
Q 928 4138 513 4856 
z
" transform="scale(0.015625)"/>
      </defs>
      <use xlink:href="#DejaVuSans-54"/>
      <use xlink:href="#DejaVuSans-69" x="57.958984"/>
      <use xlink:href="#DejaVuSans-6d" x="85.742188"/>
      <use xlink:href="#DejaVuSans-65" x="183.154297"/>
      <use xlink:href="#DejaVuSans-20" x="244.677734"/>
      <use xlink:href="#DejaVuSans-28" x="276.464844"/>
      <use xlink:href="#DejaVuSans-73" x="315.478516"/>
      <use xlink:href="#DejaVuSans-29" x="367.578125"/>
     </g>
    </g>
   </g>
   <g id="matplotlib.axis_2">
    <g id="ytick_1">
     <g id="line2d_6">
      <defs>
       <path id="m72c2c9ed53" d="M 0 0 
L -3.5 0 
" style="stroke: #000000; stroke-width: 0.8"/>
      </defs>
      <g>
       <use xlink:href="#m72c2c9ed53" x="46.051562" y="238.417195" style="stroke: #000000; stroke-width: 0.8"/>
      </g>
     </g>
     <g id="text_7">
      <!-- 2 -->
      <g transform="translate(31.416562 242.976258) scale(0.12 -0.12)">
       <use xlink:href="#DejaVuSans-32"/>
      </g>
     </g>
    </g>
    <g id="ytick_2">
     <g id="line2d_7">
      <g>
       <use xlink:href="#m72c2c9ed53" x="46.051562" y="209.685599" style="stroke: #000000; stroke-width: 0.8"/>
      </g>
     </g>
     <g id="text_8">
      <!-- 4 -->
      <g transform="translate(31.416562 214.244661) scale(0.12 -0.12)">
       <use xlink:href="#DejaVuSans-34"/>
      </g>
     </g>
    </g>
    <g id="ytick_3">
     <g id="line2d_8">
      <g>
       <use xlink:href="#m72c2c9ed53" x="46.051562" y="180.954002" style="stroke: #000000; stroke-width: 0.8"/>
      </g>
     </g>
     <g id="text_9">
      <!-- 6 -->
      <g transform="translate(31.416562 185.513065) scale(0.12 -0.12)">
       <defs>
        <path id="DejaVuSans-36" d="M 2113 2584 
Q 1688 2584 1439 2293 
Q 1191 2003 1191 1497 
Q 1191 994 1439 701 
Q 1688 409 2113 409 
Q 2538 409 2786 701 
Q 3034 994 3034 1497 
Q 3034 2003 2786 2293 
Q 2538 2584 2113 2584 
z
M 3366 4563 
L 3366 3988 
Q 3128 4100 2886 4159 
Q 2644 4219 2406 4219 
Q 1781 4219 1451 3797 
Q 1122 3375 1075 2522 
Q 1259 2794 1537 2939 
Q 1816 3084 2150 3084 
Q 2853 3084 3261 2657 
Q 3669 2231 3669 1497 
Q 3669 778 3244 343 
Q 2819 -91 2113 -91 
Q 1303 -91 875 529 
Q 447 1150 447 2328 
Q 447 3434 972 4092 
Q 1497 4750 2381 4750 
Q 2619 4750 2861 4703 
Q 3103 4656 3366 4563 
z
" transform="scale(0.015625)"/>
       </defs>
       <use xlink:href="#DejaVuSans-36"/>
      </g>
     </g>
    </g>
    <g id="ytick_4">
     <g id="line2d_9">
      <g>
       <use xlink:href="#m72c2c9ed53" x="46.051562" y="152.222406" style="stroke: #000000; stroke-width: 0.8"/>
      </g>
     </g>
     <g id="text_10">
      <!-- 8 -->
      <g transform="translate(31.416562 156.781468) scale(0.12 -0.12)">
       <defs>
        <path id="DejaVuSans-38" d="M 2034 2216 
Q 1584 2216 1326 1975 
Q 1069 1734 1069 1313 
Q 1069 891 1326 650 
Q 1584 409 2034 409 
Q 2484 409 2743 651 
Q 3003 894 3003 1313 
Q 3003 1734 2745 1975 
Q 2488 2216 2034 2216 
z
M 1403 2484 
Q 997 2584 770 2862 
Q 544 3141 544 3541 
Q 544 4100 942 4425 
Q 1341 4750 2034 4750 
Q 2731 4750 3128 4425 
Q 3525 4100 3525 3541 
Q 3525 3141 3298 2862 
Q 3072 2584 2669 2484 
Q 3125 2378 3379 2068 
Q 3634 1759 3634 1313 
Q 3634 634 3220 271 
Q 2806 -91 2034 -91 
Q 1263 -91 848 271 
Q 434 634 434 1313 
Q 434 1759 690 2068 
Q 947 2378 1403 2484 
z
M 1172 3481 
Q 1172 3119 1398 2916 
Q 1625 2713 2034 2713 
Q 2441 2713 2670 2916 
Q 2900 3119 2900 3481 
Q 2900 3844 2670 4047 
Q 2441 4250 2034 4250 
Q 1625 4250 1398 4047 
Q 1172 3844 1172 3481 
z
" transform="scale(0.015625)"/>
       </defs>
       <use xlink:href="#DejaVuSans-38"/>
      </g>
     </g>
    </g>
    <g id="ytick_5">
     <g id="line2d_10">
      <g>
       <use xlink:href="#m72c2c9ed53" x="46.051562" y="123.490809" style="stroke: #000000; stroke-width: 0.8"/>
      </g>
     </g>
     <g id="text_11">
      <!-- 10 -->
      <g transform="translate(23.781562 128.049872) scale(0.12 -0.12)">
       <use xlink:href="#DejaVuSans-31"/>
       <use xlink:href="#DejaVuSans-30" x="63.623047"/>
      </g>
     </g>
    </g>
    <g id="ytick_6">
     <g id="line2d_11">
      <g>
       <use xlink:href="#m72c2c9ed53" x="46.051562" y="94.759213" style="stroke: #000000; stroke-width: 0.8"/>
      </g>
     </g>
     <g id="text_12">
      <!-- 12 -->
      <g transform="translate(23.781562 99.318275) scale(0.12 -0.12)">
       <use xlink:href="#DejaVuSans-31"/>
       <use xlink:href="#DejaVuSans-32" x="63.623047"/>
      </g>
     </g>
    </g>
    <g id="ytick_7">
     <g id="line2d_12">
      <g>
       <use xlink:href="#m72c2c9ed53" x="46.051562" y="66.027616" style="stroke: #000000; stroke-width: 0.8"/>
      </g>
     </g>
     <g id="text_13">
      <!-- 14 -->
      <g transform="translate(23.781562 70.586678) scale(0.12 -0.12)">
       <use xlink:href="#DejaVuSans-31"/>
       <use xlink:href="#DejaVuSans-34" x="63.623047"/>
      </g>
     </g>
    </g>
    <g id="ytick_8">
     <g id="line2d_13">
      <g>
       <use xlink:href="#m72c2c9ed53" x="46.051562" y="37.296019" style="stroke: #000000; stroke-width: 0.8"/>
      </g>
     </g>
     <g id="text_14">
      <!-- 16 -->
      <g transform="translate(23.781562 41.855082) scale(0.12 -0.12)">
       <use xlink:href="#DejaVuSans-31"/>
       <use xlink:href="#DejaVuSans-36" x="63.623047"/>
      </g>
     </g>
    </g>
    <g id="text_15">
     <!-- Utilization (%) -->
     <g transform="translate(17.077969 179.839844) rotate(-90) scale(0.13 -0.13)">
      <defs>
       <path id="DejaVuSans-55" d="M 556 4666 
L 1191 4666 
L 1191 1831 
Q 1191 1081 1462 751 
Q 1734 422 2344 422 
Q 2950 422 3222 751 
Q 3494 1081 3494 1831 
L 3494 4666 
L 4128 4666 
L 4128 1753 
Q 4128 841 3676 375 
Q 3225 -91 2344 -91 
Q 1459 -91 1007 375 
Q 556 841 556 1753 
L 556 4666 
z
" transform="scale(0.015625)"/>
       <path id="DejaVuSans-74" d="M 1172 4494 
L 1172 3500 
L 2356 3500 
L 2356 3053 
L 1172 3053 
L 1172 1153 
Q 1172 725 1289 603 
Q 1406 481 1766 481 
L 2356 481 
L 2356 0 
L 1766 0 
Q 1100 0 847 248 
Q 594 497 594 1153 
L 594 3053 
L 172 3053 
L 172 3500 
L 594 3500 
L 594 4494 
L 1172 4494 
z
" transform="scale(0.015625)"/>
       <path id="DejaVuSans-6c" d="M 603 4863 
L 1178 4863 
L 1178 0 
L 603 0 
L 603 4863 
z
" transform="scale(0.015625)"/>
       <path id="DejaVuSans-7a" d="M 353 3500 
L 3084 3500 
L 3084 2975 
L 922 459 
L 3084 459 
L 3084 0 
L 275 0 
L 275 525 
L 2438 3041 
L 353 3041 
L 353 3500 
z
" transform="scale(0.015625)"/>
       <path id="DejaVuSans-61" d="M 2194 1759 
Q 1497 1759 1228 1600 
Q 959 1441 959 1056 
Q 959 750 1161 570 
Q 1363 391 1709 391 
Q 2188 391 2477 730 
Q 2766 1069 2766 1631 
L 2766 1759 
L 2194 1759 
z
M 3341 1997 
L 3341 0 
L 2766 0 
L 2766 531 
Q 2569 213 2275 61 
Q 1981 -91 1556 -91 
Q 1019 -91 701 211 
Q 384 513 384 1019 
Q 384 1609 779 1909 
Q 1175 2209 1959 2209 
L 2766 2209 
L 2766 2266 
Q 2766 2663 2505 2880 
Q 2244 3097 1772 3097 
Q 1472 3097 1187 3025 
Q 903 2953 641 2809 
L 641 3341 
Q 956 3463 1253 3523 
Q 1550 3584 1831 3584 
Q 2591 3584 2966 3190 
Q 3341 2797 3341 1997 
z
" transform="scale(0.015625)"/>
       <path id="DejaVuSans-6f" d="M 1959 3097 
Q 1497 3097 1228 2736 
Q 959 2375 959 1747 
Q 959 1119 1226 758 
Q 1494 397 1959 397 
Q 2419 397 2687 759 
Q 2956 1122 2956 1747 
Q 2956 2369 2687 2733 
Q 2419 3097 1959 3097 
z
M 1959 3584 
Q 2709 3584 3137 3096 
Q 3566 2609 3566 1747 
Q 3566 888 3137 398 
Q 2709 -91 1959 -91 
Q 1206 -91 779 398 
Q 353 888 353 1747 
Q 353 2609 779 3096 
Q 1206 3584 1959 3584 
z
" transform="scale(0.015625)"/>
       <path id="DejaVuSans-6e" d="M 3513 2113 
L 3513 0 
L 2938 0 
L 2938 2094 
Q 2938 2591 2744 2837 
Q 2550 3084 2163 3084 
Q 1697 3084 1428 2787 
Q 1159 2491 1159 1978 
L 1159 0 
L 581 0 
L 581 3500 
L 1159 3500 
L 1159 2956 
Q 1366 3272 1645 3428 
Q 1925 3584 2291 3584 
Q 2894 3584 3203 3211 
Q 3513 2838 3513 2113 
z
" transform="scale(0.015625)"/>
       <path id="DejaVuSans-25" d="M 4653 2053 
Q 4381 2053 4226 1822 
Q 4072 1591 4072 1178 
Q 4072 772 4226 539 
Q 4381 306 4653 306 
Q 4919 306 5073 539 
Q 5228 772 5228 1178 
Q 5228 1588 5073 1820 
Q 4919 2053 4653 2053 
z
M 4653 2450 
Q 5147 2450 5437 2106 
Q 5728 1763 5728 1178 
Q 5728 594 5436 251 
Q 5144 -91 4653 -91 
Q 4153 -91 3862 251 
Q 3572 594 3572 1178 
Q 3572 1766 3864 2108 
Q 4156 2450 4653 2450 
z
M 1428 4353 
Q 1159 4353 1004 4120 
Q 850 3888 850 3481 
Q 850 3069 1003 2837 
Q 1156 2606 1428 2606 
Q 1700 2606 1854 2837 
Q 2009 3069 2009 3481 
Q 2009 3884 1853 4118 
Q 1697 4353 1428 4353 
z
M 4250 4750 
L 4750 4750 
L 1831 -91 
L 1331 -91 
L 4250 4750 
z
M 1428 4750 
Q 1922 4750 2215 4408 
Q 2509 4066 2509 3481 
Q 2509 2891 2217 2550 
Q 1925 2209 1428 2209 
Q 931 2209 642 2551 
Q 353 2894 353 3481 
Q 353 4063 643 4406 
Q 934 4750 1428 4750 
z
" transform="scale(0.015625)"/>
      </defs>
      <use xlink:href="#DejaVuSans-55"/>
      <use xlink:href="#DejaVuSans-74" x="73.193359"/>
      <use xlink:href="#DejaVuSans-69" x="112.402344"/>
      <use xlink:href="#DejaVuSans-6c" x="140.185547"/>
      <use xlink:href="#DejaVuSans-69" x="167.96875"/>
      <use xlink:href="#DejaVuSans-7a" x="195.751953"/>
      <use xlink:href="#DejaVuSans-61" x="248.242188"/>
      <use xlink:href="#DejaVuSans-74" x="309.521484"/>
      <use xlink:href="#DejaVuSans-69" x="348.730469"/>
      <use xlink:href="#DejaVuSans-6f" x="376.513672"/>
      <use xlink:href="#DejaVuSans-6e" x="437.695312"/>
      <use xlink:href="#DejaVuSans-20" x="501.074219"/>
      <use xlink:href="#DejaVuSans-28" x="532.861328"/>
      <use xlink:href="#DejaVuSans-25" x="571.875"/>
      <use xlink:href="#DejaVuSans-29" x="666.894531"/>
     </g>
    </g>
   </g>
   <g id="line2d_14">
    <path d="M 70.587103 178.113078 
L 73.228806 178.202777 
L 76.577998 178.560871 
L 76.628316 178.399693 
L 81.817032 179.26024 
L 83.407438 185.373062 
L 88.077767 185.203475 
L 88.365868 185.035991 
L 91.027015 185.044401 
L 91.711259 184.785816 
L 94.352961 184.304387 
L 96.603085 177.797031 
L 97.372353 177.77881 
L 97.702153 176.469771 
L 97.752471 177.244823 
L 109.490023 173.548959 
L 112.151171 174.687711 
L 113.503264 168.233613 
L 117.72724 155.158635 
L 118.496508 150.168447 
L 118.826309 144.356956 
L 118.876626 140.704539 
L 119.763999 135.910567 
L 126.039194 134.957519 
L 130.614179 131.452965 
L 133.275326 130.22101 
L 133.959569 128.176862 
L 134.62742 123.732575 
L 136.217826 120.27287 
L 138.851395 113.62536 
L 139.620663 111.154443 
L 139.950464 108.231528 
L 140.000781 103.844704 
L 140.888154 100.659001 
L 147.163349 103.408825 
L 155.083724 100.591727 
L 155.751575 98.823682 
L 157.341981 97.383599 
L 159.97555 88.649193 
L 160.744818 86.517449 
L 161.124937 77.462091 
L 162.01231 74.979961 
L 162.300411 71.56861 
L 164.961558 67.839809 
L 168.287504 61.635186 
L 176.207879 59.474009 
L 178.466136 58.007997 
L 181.868973 54.930913 
L 182.198774 53.389918 
L 182.249092 58.39272 
L 183.136465 55.553898 
L 183.424567 53.481719 
L 186.085714 50.759225 
L 187.437807 50.939323 
L 189.411659 49.84542 
L 191.661783 46.632387 
L 197.332034 48.142548 
L 202.993128 50.45439 
L 203.373247 58.309328 
L 204.26062 61.736097 
L 204.548722 60.579124 
L 207.209869 62.127827 
L 208.561963 64.628177 
L 210.152369 65.231541 
L 210.535814 64.371695 
L 212.785938 58.149552 
L 218.456189 58.971556 
L 224.117283 56.05565 
L 224.447084 58.312131 
L 225.384775 54.424956 
L 225.672877 49.769036 
L 228.334024 47.123627 
L 229.686118 46.038133 
L 231.276524 42.219634 
L 231.659969 42.524469 
L 233.910093 34.806882 
L 235.05948 33.157969 
L 246.797032 38.76974 
L 249.458179 43.502745 
L 250.142422 41.488029 
L 250.810273 41.640097 
L 252.400679 40.810384 
L 255.034248 36.191605 
L 256.133317 40.717883 
L 256.183635 40.380812 
L 257.071008 39.985577 
L 263.346202 40.735402 
L 266.365594 40.161471 
L 267.921187 38.818093 
L 270.582334 39.194407 
L 271.266577 39.920406 
L 271.934428 41.040938 
L 273.524834 41.534981 
L 276.158404 37.570722 
L 277.257472 42.504848 
L 277.30779 44.563011 
L 278.195163 45.614167 
L 284.470357 44.761329 
L 289.045342 44.27079 
L 292.390732 43.767636 
L 293.058583 44.821595 
L 294.648989 43.745212 
L 298.051826 42.412346 
L 298.381627 42.893775 
L 298.431945 43.715779 
L 299.319318 49.260277 
L 302.268567 51.49994 
L 305.594512 55.745909 
L 307.844636 50.79076 
L 310.169497 55.572118 
L 313.514888 61.277092 
L 314.182738 65.928807 
L 315.773144 67.0136 
L 319.175982 72.075967 
L 319.505782 72.261672 
L 319.5561 80.468397 
L 320.443473 82.348564 
L 323.392722 83.237142 
L 326.718668 82.224528 
L 328.968791 76.538475 
L 331.293653 74.70596 
L 334.639043 71.712968 
L 336.897299 69.432661 
L 340.300137 73.35137 
L 340.629938 72.110305 
L 340.680255 71.42355 
L 341.567628 69.278491 
L 344.516877 69.006592 
L 345.868971 67.270082 
L 347.842823 67.52236 
L 350.092947 60.686342 
L 355.763198 61.33035 
L 358.021455 58.061956 
L 361.424292 59.550393 
L 361.804411 66.498534 
L 362.691783 66.448078 
L 362.979885 63.161464 
L 365.641032 64.355577 
L 366.993126 64.634484 
L 368.966978 61.518157 
L 371.217102 56.363288 
L 376.887353 59.721381 
L 379.14561 63.926005 
L 382.548447 65.450882 
L 382.878248 67.788653 
L 382.928566 70.415141 
L 383.815939 70.425653 
L 384.10404 71.464895 
L 386.765188 78.95263 
L 390.091133 82.322636 
L 392.341257 79.528663 
L 403.672602 82.439665 
L 404.052721 83.409531 
L 404.940094 84.460687 
L 405.228196 85.319131 
L 408.573586 86.325438 
L 409.241436 87.527259 
L 410.831842 90.001681 
L 411.215288 98.398315 
L 413.465412 97.937908 
L 414.564481 102.862224 
L 418.45142 108.959629 
L 426.064249 113.48941 
L 426.352351 117.129213 
L 429.697741 120.576304 
L 430.365592 125.202091 
L 431.955998 127.481698 
L 435.358835 131.505523 
L 435.688636 134.298094 
L 435.738954 143.334532 
L 439.575575 145.267257 
L 442.901521 150.228012 
L 445.151645 145.939296 
L 450.821896 148.719954 
L 451.489747 149.417922 
L 453.080153 154.394094 
L 456.48299 156.265152 
L 456.812791 158.687716 
L 456.863109 164.51112 
L 457.750482 172.529338 
L 460.699731 173.654775 
L 464.025676 173.839779 
L 466.2758 169.980635 
L 468.600661 169.458561 
L 471.946051 169.3128 
L 472.613902 169.708035 
L 474.204308 171.762694 
L 477.607145 173.794229 
L 477.936946 173.417214 
L 477.987264 172.904951 
L 478.874637 176.93228 
L 481.823886 176.436835 
L 485.149831 176.951901 
L 487.399955 175.328216 
L 489.724816 177.223099 
L 493.070206 177.406 
L 493.738057 178.649868 
L 495.328463 178.319805 
L 498.7313 177.968719 
L 499.111419 183.932278 
L 499.998792 184.539145 
L 502.948041 182.818753 
L 506.273986 182.799832 
L 508.52411 175.619736 
L 514.194361 175.809645 
L 520.185256 175.064025 
L 521.122947 173.38638 
L 521.411049 171.093458 
L 525.42429 167.110278 
L 525.42429 167.110278 
" clip-path="url(#pd3ab14f028)" style="fill: none; stroke: #009384; stroke-width: 2.5; stroke-linecap: square"/>
   </g>
   <g id="line2d_15">
    <path d="M 68.878835 234.577475 
L 69.784597 234.757969 
L 71.069304 234.48023 
L 71.909814 234.290159 
L 72.243142 234.371934 
L 72.81454 233.818667 
L 72.981114 233.907071 
L 74.652986 233.629333 
L 81.169883 233.356751 
L 87.934735 233.265399 
L 88.426051 232.97661 
L 90.00299 232.888205 
L 90.908752 232.710658 
L 92.151465 232.710658 
L 92.19346 233.169627 
L 93.033969 232.707711 
L 93.367297 232.707711 
L 93.938695 233.073118 
L 94.10527 232.796853 
L 95.777141 233.076802 
L 102.294038 232.971453 
L 109.05889 229.592175 
L 109.550206 225.991885 
L 111.127146 221.290954 
L 113.27562 218.795725 
L 113.317615 214.360745 
L 114.158124 210.020801 
L 114.491452 207.171953 
L 115.06285 204.566218 
L 115.229425 200.966664 
L 116.901296 197.420154 
L 122.594985 194.64203 
L 123.418193 192.24331 
L 130.183045 192.516628 
L 130.674361 189.247856 
L 132.251301 187.305159 
L 134.44177 185.710923 
L 135.282279 181.854996 
L 135.615608 176.108676 
L 136.187005 170.226066 
L 136.35358 166.312675 
L 138.025451 161.050373 
L 143.71914 154.706584 
L 144.542348 148.551392 
L 144.961853 141.865033 
L 153.375456 134.511218 
L 155.565925 129.012433 
L 156.406434 124.29161 
L 156.739763 121.310891 
L 157.311161 117.346668 
L 157.477735 113.931291 
L 159.149606 110.899739 
L 161.869278 107.063703 
L 162.360594 101.410946 
L 164.843295 98.268888 
L 165.666503 93.612159 
L 166.086008 90.414111 
L 174.499611 87.946141 
L 176.69008 84.616222 
L 177.530589 80.054529 
L 178.60189 79.671441 
L 180.273761 78.407251 
L 182.993433 78.272433 
L 183.484749 76.023265 
L 185.96745 78.278327 
L 186.790658 81.069712 
L 187.210163 81.706227 
L 188.997393 78.891267 
L 195.623766 79.006194 
L 197.814235 76.182394 
L 198.654744 76.633995 
L 199.726045 73.318811 
L 201.397917 72.400873 
L 204.117588 69.042224 
L 204.608904 68.621563 
L 207.091605 68.176592 
L 208.334318 69.861442 
L 209.550151 68.905196 
L 210.121548 68.616407 
L 216.747921 70.407343 
L 218.938391 72.27416 
L 219.7789 74.784123 
L 222.522072 78.981146 
L 225.241743 81.968495 
L 225.73306 82.148252 
L 228.21576 82.735408 
L 229.458473 84.138099 
L 230.674306 83.932558 
L 231.245704 84.102 
L 231.412278 84.874807 
L 237.872076 85.213692 
L 240.062546 87.208696 
L 240.903055 85.309464 
L 243.646227 82.545337 
L 246.365899 80.703568 
L 246.857215 81.365132 
L 249.339915 80.550333 
L 250.582628 80.352895 
L 251.798461 79.658917 
L 252.369859 80.000749 
L 252.536433 77.500364 
L 258.996232 74.098985 
L 260.725201 72.605678 
L 267.98137 73.262821 
L 270.464071 72.201226 
L 271.706784 72.453916 
L 271.748778 69.578547 
L 272.589287 70.47954 
L 272.922616 71.731206 
L 273.494014 72.467914 
L 273.660588 71.529348 
L 275.33246 72.761124 
L 281.849357 72.87826 
L 288.614209 74.988191 
L 289.105525 76.913944 
L 290.682464 78.474291 
L 292.830939 79.751005 
L 292.872934 80.635791 
L 293.713443 80.450141 
L 294.046771 78.797706 
L 294.618169 76.796808 
L 294.784744 76.949306 
L 296.456615 74.97272 
L 302.150303 72.789118 
L 302.973512 71.393057 
L 313.955094 70.274735 
L 313.997089 70.564261 
L 314.837598 70.066984 
L 315.170926 69.608015 
L 315.742324 72.355934 
L 315.908899 72.188702 
L 317.58077 71.115319 
L 320.791758 70.074351 
L 323.274459 74.394404 
L 324.097667 75.590081 
L 330.862519 75.928229 
L 332.930775 75.301291 
L 335.121244 75.603341 
L 335.961753 75.853822 
L 336.295081 79.685438 
L 336.866479 79.516732 
L 337.033054 82.256548 
L 338.704925 85.947453 
L 341.915913 90.948961 
L 344.398614 93.089833 
L 345.221822 96.209053 
L 345.641327 100.864308 
L 354.05493 103.722734 
L 356.245399 106.71524 
L 357.085908 111.254833 
L 357.419237 114.163354 
L 357.990634 117.656822 
L 358.157209 121.647567 
L 359.82908 124.742475 
L 362.548752 128.42896 
L 363.040068 133.068008 
L 365.522769 137.692322 
L 366.345977 142.284957 
L 366.765482 146.578489 
L 375.179085 151.127658 
L 377.369554 156.780416 
L 378.210063 161.060687 
L 378.543392 165.239292 
L 379.281364 169.250665 
L 380.953235 173.873505 
L 383.672907 176.65605 
L 384.164223 179.726647 
L 386.646924 185.004421 
L 387.470132 187.588791 
L 387.889637 192.836359 
L 389.676867 197.907118 
L 396.30324 203.52525 
L 398.493709 204.355519 
L 399.334218 208.696937 
L 400.405519 212.7643 
L 402.07739 218.257929 
L 404.797062 222.820359 
L 405.288378 226.27036 
L 407.771079 226.357292 
L 409.013792 231.239453 
L 410.229624 233.001658 
L 410.801022 234.474336 
L 420.458373 234.399929 
L 423.201546 234.315944 
L 426.412533 234.396982 
L 428.895234 231.043489 
L 430.137947 227.429938 
L 431.35378 227.253128 
L 431.925177 227.345954 
L 432.091752 226.795633 
L 438.55155 225.775293 
L 440.28052 224.396176 
L 440.74202 221.427245 
L 441.582529 221.609211 
L 447.045372 221.248225 
L 447.536689 220.412798 
L 452.477935 219.109563 
L 453.049333 217.97577 
L 453.215907 216.769042 
L 454.887778 216.489094 
L 454.887778 216.489094 
" clip-path="url(#pd3ab14f028)" style="fill: none; stroke: #b85741; stroke-width: 2.5; stroke-linecap: square"/>
   </g>
   <g id="patch_3">
    <path d="M 46.051562 244.837969 
L 46.051562 23.077969 
" style="fill: none; stroke: #000000; stroke-width: 0.8; stroke-linejoin: miter; stroke-linecap: square"/>
   </g>
   <g id="patch_4">
    <path d="M 548.251563 244.837969 
L 548.251563 23.077969 
" style="fill: none; stroke: #000000; stroke-width: 0.8; stroke-linejoin: miter; stroke-linecap: square"/>
   </g>
   <g id="patch_5">
    <path d="M 46.051562 244.837969 
L 548.251563 244.837969 
" style="fill: none; stroke: #000000; stroke-width: 0.8; stroke-linejoin: miter; stroke-linecap: square"/>
   </g>
   <g id="patch_6">
    <path d="M 46.051562 23.077969 
L 548.251563 23.077969 
" style="fill: none; stroke: #000000; stroke-width: 0.8; stroke-linejoin: miter; stroke-linecap: square"/>
   </g>
   <g id="text_16">
    <!-- Live Migrate (CPU) -->
    <g transform="translate(236.714766 17.077969) scale(0.13 -0.13)">
     <defs>
      <path id="DejaVuSans-4c" d="M 628 4666 
L 1259 4666 
L 1259 531 
L 3531 531 
L 3531 0 
L 628 0 
L 628 4666 
z
" transform="scale(0.015625)"/>
      <path id="DejaVuSans-76" d="M 191 3500 
L 800 3500 
L 1894 563 
L 2988 3500 
L 3597 3500 
L 2284 0 
L 1503 0 
L 191 3500 
z
" transform="scale(0.015625)"/>
      <path id="DejaVuSans-4d" d="M 628 4666 
L 1569 4666 
L 2759 1491 
L 3956 4666 
L 4897 4666 
L 4897 0 
L 4281 0 
L 4281 4097 
L 3078 897 
L 2444 897 
L 1241 4097 
L 1241 0 
L 628 0 
L 628 4666 
z
" transform="scale(0.015625)"/>
      <path id="DejaVuSans-67" d="M 2906 1791 
Q 2906 2416 2648 2759 
Q 2391 3103 1925 3103 
Q 1463 3103 1205 2759 
Q 947 2416 947 1791 
Q 947 1169 1205 825 
Q 1463 481 1925 481 
Q 2391 481 2648 825 
Q 2906 1169 2906 1791 
z
M 3481 434 
Q 3481 -459 3084 -895 
Q 2688 -1331 1869 -1331 
Q 1566 -1331 1297 -1286 
Q 1028 -1241 775 -1147 
L 775 -588 
Q 1028 -725 1275 -790 
Q 1522 -856 1778 -856 
Q 2344 -856 2625 -561 
Q 2906 -266 2906 331 
L 2906 616 
Q 2728 306 2450 153 
Q 2172 0 1784 0 
Q 1141 0 747 490 
Q 353 981 353 1791 
Q 353 2603 747 3093 
Q 1141 3584 1784 3584 
Q 2172 3584 2450 3431 
Q 2728 3278 2906 2969 
L 2906 3500 
L 3481 3500 
L 3481 434 
z
" transform="scale(0.015625)"/>
      <path id="DejaVuSans-72" d="M 2631 2963 
Q 2534 3019 2420 3045 
Q 2306 3072 2169 3072 
Q 1681 3072 1420 2755 
Q 1159 2438 1159 1844 
L 1159 0 
L 581 0 
L 581 3500 
L 1159 3500 
L 1159 2956 
Q 1341 3275 1631 3429 
Q 1922 3584 2338 3584 
Q 2397 3584 2469 3576 
Q 2541 3569 2628 3553 
L 2631 2963 
z
" transform="scale(0.015625)"/>
      <path id="DejaVuSans-43" d="M 4122 4306 
L 4122 3641 
Q 3803 3938 3442 4084 
Q 3081 4231 2675 4231 
Q 1875 4231 1450 3742 
Q 1025 3253 1025 2328 
Q 1025 1406 1450 917 
Q 1875 428 2675 428 
Q 3081 428 3442 575 
Q 3803 722 4122 1019 
L 4122 359 
Q 3791 134 3420 21 
Q 3050 -91 2638 -91 
Q 1578 -91 968 557 
Q 359 1206 359 2328 
Q 359 3453 968 4101 
Q 1578 4750 2638 4750 
Q 3056 4750 3426 4639 
Q 3797 4528 4122 4306 
z
" transform="scale(0.015625)"/>
      <path id="DejaVuSans-50" d="M 1259 4147 
L 1259 2394 
L 2053 2394 
Q 2494 2394 2734 2622 
Q 2975 2850 2975 3272 
Q 2975 3691 2734 3919 
Q 2494 4147 2053 4147 
L 1259 4147 
z
M 628 4666 
L 2053 4666 
Q 2838 4666 3239 4311 
Q 3641 3956 3641 3272 
Q 3641 2581 3239 2228 
Q 2838 1875 2053 1875 
L 1259 1875 
L 1259 0 
L 628 0 
L 628 4666 
z
" transform="scale(0.015625)"/>
     </defs>
     <use xlink:href="#DejaVuSans-4c"/>
     <use xlink:href="#DejaVuSans-69" x="55.712891"/>
     <use xlink:href="#DejaVuSans-76" x="83.496094"/>
     <use xlink:href="#DejaVuSans-65" x="142.675781"/>
     <use xlink:href="#DejaVuSans-20" x="204.199219"/>
     <use xlink:href="#DejaVuSans-4d" x="235.986328"/>
     <use xlink:href="#DejaVuSans-69" x="322.265625"/>
     <use xlink:href="#DejaVuSans-67" x="350.048828"/>
     <use xlink:href="#DejaVuSans-72" x="413.525391"/>
     <use xlink:href="#DejaVuSans-61" x="454.638672"/>
     <use xlink:href="#DejaVuSans-74" x="515.917969"/>
     <use xlink:href="#DejaVuSans-65" x="555.126953"/>
     <use xlink:href="#DejaVuSans-20" x="616.650391"/>
     <use xlink:href="#DejaVuSans-28" x="648.4375"/>
     <use xlink:href="#DejaVuSans-43" x="687.451172"/>
     <use xlink:href="#DejaVuSans-50" x="757.275391"/>
     <use xlink:href="#DejaVuSans-55" x="817.578125"/>
     <use xlink:href="#DejaVuSans-29" x="890.771484"/>
    </g>
   </g>
   <g id="legend_1">
    <g id="patch_7">
     <path d="M 423.312813 67.905469 
L 539.851563 67.905469 
Q 542.251563 67.905469 542.251563 65.505469 
L 542.251563 31.477969 
Q 542.251563 29.077969 539.851563 29.077969 
L 423.312813 29.077969 
Q 420.912813 29.077969 420.912813 31.477969 
L 420.912813 65.505469 
Q 420.912813 67.905469 423.312813 67.905469 
z
" style="fill: #ffffff; opacity: 0.8; stroke: #cccccc; stroke-linejoin: miter"/>
    </g>
    <g id="line2d_16">
     <path d="M 425.712813 38.796094 
L 437.712813 38.796094 
L 449.712813 38.796094 
" style="fill: none; stroke: #009384; stroke-width: 2.5; stroke-linecap: square"/>
    </g>
    <g id="text_17">
     <!-- KubeVirt  -->
     <g transform="translate(459.312813 42.996094) scale(0.12 -0.12)">
      <defs>
       <path id="DejaVuSans-4b" d="M 628 4666 
L 1259 4666 
L 1259 2694 
L 3353 4666 
L 4166 4666 
L 1850 2491 
L 4331 0 
L 3500 0 
L 1259 2247 
L 1259 0 
L 628 0 
L 628 4666 
z
" transform="scale(0.015625)"/>
       <path id="DejaVuSans-75" d="M 544 1381 
L 544 3500 
L 1119 3500 
L 1119 1403 
Q 1119 906 1312 657 
Q 1506 409 1894 409 
Q 2359 409 2629 706 
Q 2900 1003 2900 1516 
L 2900 3500 
L 3475 3500 
L 3475 0 
L 2900 0 
L 2900 538 
Q 2691 219 2414 64 
Q 2138 -91 1772 -91 
Q 1169 -91 856 284 
Q 544 659 544 1381 
z
M 1991 3584 
L 1991 3584 
z
" transform="scale(0.015625)"/>
       <path id="DejaVuSans-62" d="M 3116 1747 
Q 3116 2381 2855 2742 
Q 2594 3103 2138 3103 
Q 1681 3103 1420 2742 
Q 1159 2381 1159 1747 
Q 1159 1113 1420 752 
Q 1681 391 2138 391 
Q 2594 391 2855 752 
Q 3116 1113 3116 1747 
z
M 1159 2969 
Q 1341 3281 1617 3432 
Q 1894 3584 2278 3584 
Q 2916 3584 3314 3078 
Q 3713 2572 3713 1747 
Q 3713 922 3314 415 
Q 2916 -91 2278 -91 
Q 1894 -91 1617 61 
Q 1341 213 1159 525 
L 1159 0 
L 581 0 
L 581 4863 
L 1159 4863 
L 1159 2969 
z
" transform="scale(0.015625)"/>
       <path id="DejaVuSans-56" d="M 1831 0 
L 50 4666 
L 709 4666 
L 2188 738 
L 3669 4666 
L 4325 4666 
L 2547 0 
L 1831 0 
z
" transform="scale(0.015625)"/>
      </defs>
      <use xlink:href="#DejaVuSans-4b"/>
      <use xlink:href="#DejaVuSans-75" x="60.576172"/>
      <use xlink:href="#DejaVuSans-62" x="123.955078"/>
      <use xlink:href="#DejaVuSans-65" x="187.431641"/>
      <use xlink:href="#DejaVuSans-56" x="248.955078"/>
      <use xlink:href="#DejaVuSans-69" x="315.113281"/>
      <use xlink:href="#DejaVuSans-72" x="342.896484"/>
      <use xlink:href="#DejaVuSans-74" x="384.009766"/>
      <use xlink:href="#DejaVuSans-20" x="423.21875"/>
     </g>
    </g>
    <g id="line2d_17">
     <path d="M 425.712813 56.409844 
L 437.712813 56.409844 
L 449.712813 56.409844 
" style="fill: none; stroke: #b85741; stroke-width: 2.5; stroke-linecap: square"/>
    </g>
    <g id="text_18">
     <!-- OpenNebula  -->
     <g transform="translate(459.312813 60.609844) scale(0.12 -0.12)">
      <defs>
       <path id="DejaVuSans-4f" d="M 2522 4238 
Q 1834 4238 1429 3725 
Q 1025 3213 1025 2328 
Q 1025 1447 1429 934 
Q 1834 422 2522 422 
Q 3209 422 3611 934 
Q 4013 1447 4013 2328 
Q 4013 3213 3611 3725 
Q 3209 4238 2522 4238 
z
M 2522 4750 
Q 3503 4750 4090 4092 
Q 4678 3434 4678 2328 
Q 4678 1225 4090 567 
Q 3503 -91 2522 -91 
Q 1538 -91 948 565 
Q 359 1222 359 2328 
Q 359 3434 948 4092 
Q 1538 4750 2522 4750 
z
" transform="scale(0.015625)"/>
       <path id="DejaVuSans-70" d="M 1159 525 
L 1159 -1331 
L 581 -1331 
L 581 3500 
L 1159 3500 
L 1159 2969 
Q 1341 3281 1617 3432 
Q 1894 3584 2278 3584 
Q 2916 3584 3314 3078 
Q 3713 2572 3713 1747 
Q 3713 922 3314 415 
Q 2916 -91 2278 -91 
Q 1894 -91 1617 61 
Q 1341 213 1159 525 
z
M 3116 1747 
Q 3116 2381 2855 2742 
Q 2594 3103 2138 3103 
Q 1681 3103 1420 2742 
Q 1159 2381 1159 1747 
Q 1159 1113 1420 752 
Q 1681 391 2138 391 
Q 2594 391 2855 752 
Q 3116 1113 3116 1747 
z
" transform="scale(0.015625)"/>
       <path id="DejaVuSans-4e" d="M 628 4666 
L 1478 4666 
L 3547 763 
L 3547 4666 
L 4159 4666 
L 4159 0 
L 3309 0 
L 1241 3903 
L 1241 0 
L 628 0 
L 628 4666 
z
" transform="scale(0.015625)"/>
      </defs>
      <use xlink:href="#DejaVuSans-4f"/>
      <use xlink:href="#DejaVuSans-70" x="78.710938"/>
      <use xlink:href="#DejaVuSans-65" x="142.1875"/>
      <use xlink:href="#DejaVuSans-6e" x="203.710938"/>
      <use xlink:href="#DejaVuSans-4e" x="267.089844"/>
      <use xlink:href="#DejaVuSans-65" x="341.894531"/>
      <use xlink:href="#DejaVuSans-62" x="403.417969"/>
      <use xlink:href="#DejaVuSans-75" x="466.894531"/>
      <use xlink:href="#DejaVuSans-6c" x="530.273438"/>
      <use xlink:href="#DejaVuSans-61" x="558.056641"/>
      <use xlink:href="#DejaVuSans-20" x="619.335938"/>
     </g>
    </g>
   </g>
  </g>
 </g>
 <defs>
  <clipPath id="pd3ab14f028">
   <rect x="46.051562" y="23.077969" width="502.2" height="221.76"/>
  </clipPath>
 </defs>
</svg>
