<?xml version="1.0" encoding="utf-8" standalone="no"?>
<!DOCTYPE svg PUBLIC "-//W3C//DTD SVG 1.1//EN"
  "http://www.w3.org/Graphics/SVG/1.1/DTD/svg11.dtd">
<svg xmlns:xlink="http://www.w3.org/1999/xlink" width="555.451562pt" height="287.233281pt" viewBox="0 0 555.451562 287.233281" xmlns="http://www.w3.org/2000/svg" version="1.1">
 <metadata>
  <rdf:RDF xmlns:dc="http://purl.org/dc/elements/1.1/" xmlns:cc="http://creativecommons.org/ns#" xmlns:rdf="http://www.w3.org/1999/02/22-rdf-syntax-ns#">
   <cc:Work>
    <dc:type rdf:resource="http://purl.org/dc/dcmitype/StillImage"/>
    <dc:date>2024-05-21T10:08:07.862575</dc:date>
    <dc:format>image/svg+xml</dc:format>
    <dc:creator>
     <cc:Agent>
      <dc:title>Matplotlib v3.8.4, https://matplotlib.org/</dc:title>
     </cc:Agent>
    </dc:creator>
   </cc:Work>
  </rdf:RDF>
 </metadata>
 <defs>
  <style type="text/css">*{stroke-linejoin: round; stroke-linecap: butt}</style>
 </defs>
 <g id="figure_1">
  <g id="patch_1">
   <path d="M 0 287.233281 
L 555.451562 287.233281 
L 555.451562 0 
L 0 0 
z
" style="fill: #ffffff"/>
  </g>
  <g id="axes_1">
   <g id="patch_2">
    <path d="M 46.051562 244.837969 
L 548.251563 244.837969 
L 548.251563 23.077969 
L 46.051562 23.077969 
z
" style="fill: #ffffff"/>
   </g>
   <g id="PolyCollection_1">
    <defs>
     <path id="mac6fc65105" d="M 68.878835 -62.94488 
L 68.878835 -42.395313 
L 69.539679 -42.395313 
L 71.492823 -42.395313 
L 81.564667 -42.395313 
L 84.170607 -42.395313 
L 84.931804 -42.395313 
L 85.258144 -42.395313 
L 85.307934 -42.395313 
L 86.185997 -42.395313 
L 86.471077 -42.395313 
L 89.104305 -42.395313 
L 89.781369 -42.395313 
L 90.442213 -42.395313 
L 92.395356 -42.395313 
L 102.467201 -42.395313 
L 105.07314 -42.395313 
L 105.834338 -42.395313 
L 106.210468 -42.395313 
L 107.088531 -42.395313 
L 107.373611 -42.395313 
L 110.006839 -42.395313 
L 110.683903 -42.395313 
L 111.344747 -42.395313 
L 113.29789 -42.395313 
L 116.611945 -42.395313 
L 126.736872 -42.395313 
L 127.113002 -42.395313 
L 128.276145 -42.395313 
L 130.909373 -42.395313 
L 131.586437 -42.395313 
L 132.247281 -42.395313 
L 133.821002 -42.395313 
L 134.200424 -42.395313 
L 136.426941 -42.395313 
L 137.514479 -42.395313 
L 138.442332 -42.395313 
L 147.639406 -42.395313 
L 148.015536 -42.395313 
L 149.178679 -42.395313 
L 151.811907 -42.395313 
L 152.488971 -42.395313 
L 153.149815 -42.395313 
L 154.723536 -42.395313 
L 155.102958 -42.395313 
L 157.329475 -42.395313 
L 158.417013 -42.395313 
L 159.344866 -42.395313 
L 168.541939 -42.395313 
L 168.91807 -42.395313 
L 170.081213 -42.395313 
L 172.714441 -42.395313 
L 173.391505 -42.395313 
L 174.052349 -42.395313 
L 175.626069 -42.395313 
L 176.005492 -42.395313 
L 178.232009 -42.395313 
L 179.319547 -42.395313 
L 180.2474 -42.395313 
L 190.983746 -42.395313 
L 193.616975 -42.395313 
L 194.294039 -42.395313 
L 196.528603 -42.395313 
L 196.908026 -42.395313 
L 199.134543 -42.395313 
L 199.89574 -42.395313 
L 200.222081 -42.395313 
L 200.271871 -42.395313 
L 201.149934 -42.395313 
L 205.40615 -42.395313 
L 211.88628 -42.395313 
L 214.519508 -42.395313 
L 215.196573 -42.395313 
L 217.431137 -42.395313 
L 217.81056 -42.395313 
L 220.037077 -42.395313 
L 220.798274 -42.395313 
L 221.124615 -42.395313 
L 221.174405 -42.395313 
L 222.052468 -42.395313 
L 226.308684 -42.395313 
L 238.333671 -42.395313 
L 240.939611 -42.395313 
L 241.700808 -42.395313 
L 242.027149 -42.395313 
L 242.076939 -42.395313 
L 242.955002 -42.395313 
L 243.240081 -42.395313 
L 245.873309 -42.395313 
L 246.550374 -42.395313 
L 247.211218 -42.395313 
L 249.164361 -42.395313 
L 259.236205 -42.395313 
L 262.603342 -42.395313 
L 262.929683 -42.395313 
L 262.979473 -42.395313 
L 263.857536 -42.395313 
L 264.142615 -42.395313 
L 266.775843 -42.395313 
L 267.452908 -42.395313 
L 268.113752 -42.395313 
L 270.066895 -42.395313 
L 272.293412 -42.395313 
L 280.138739 -42.395313 
L 283.505876 -42.395313 
L 283.832217 -42.395313 
L 283.882007 -42.395313 
L 284.76007 -42.395313 
L 285.045149 -42.395313 
L 287.678377 -42.395313 
L 288.355442 -42.395313 
L 289.016286 -42.395313 
L 290.969429 -42.395313 
L 293.195946 -42.395313 
L 304.40841 -42.395313 
L 304.784541 -42.395313 
L 305.662604 -42.395313 
L 305.947683 -42.395313 
L 308.580911 -42.395313 
L 309.257976 -42.395313 
L 309.91882 -42.395313 
L 311.49254 -42.395313 
L 311.871963 -42.395313 
L 314.09848 -42.395313 
L 315.186018 -42.395313 
L 325.687075 -42.395313 
L 326.850217 -42.395313 
L 329.483445 -42.395313 
L 330.16051 -42.395313 
L 330.821354 -42.395313 
L 332.395074 -42.395313 
L 332.774497 -42.395313 
L 335.001014 -42.395313 
L 335.762211 -42.395313 
L 336.088552 -42.395313 
L 337.016405 -42.395313 
L 347.752751 -42.395313 
L 350.385979 -42.395313 
L 351.063044 -42.395313 
L 351.723888 -42.395313 
L 353.297608 -42.395313 
L 353.677031 -42.395313 
L 355.903548 -42.395313 
L 356.664745 -42.395313 
L 356.991086 -42.395313 
L 357.040876 -42.395313 
L 357.918939 -42.395313 
L 368.655285 -42.395313 
L 371.288513 -42.395313 
L 371.965578 -42.395313 
L 374.200142 -42.395313 
L 374.579565 -42.395313 
L 376.806082 -42.395313 
L 377.567279 -42.395313 
L 377.89362 -42.395313 
L 377.94341 -42.395313 
L 378.821473 -42.395313 
L 383.077689 -42.395313 
L 389.557819 -42.395313 
L 392.191047 -42.395313 
L 392.868112 -42.395313 
L 395.102676 -42.395313 
L 395.482099 -42.395313 
L 397.708616 -42.395313 
L 398.469813 -42.395313 
L 398.796154 -42.395313 
L 398.845944 -42.395313 
L 399.724007 -42.395313 
L 403.980223 -42.395313 
L 413.093581 -42.395313 
L 413.770646 -42.395313 
L 416.00521 -42.395313 
L 416.384633 -42.395313 
L 418.61115 -42.395313 
L 419.372347 -42.395313 
L 419.698688 -42.395313 
L 419.748478 -42.395313 
L 420.626541 -42.395313 
L 420.91162 -42.395313 
L 424.882757 -42.395313 
L 436.907744 -42.395313 
L 440.274881 -42.395313 
L 440.601222 -42.395313 
L 440.651012 -42.395313 
L 441.529075 -42.395313 
L 441.814154 -42.395313 
L 444.447382 -42.395313 
L 445.124446 -42.395313 
L 445.785291 -42.395313 
L 447.738434 -42.395313 
L 449.964951 -42.395313 
L 457.810278 -42.395313 
L 461.177415 -42.395313 
L 461.503756 -42.395313 
L 461.553545 -42.395313 
L 462.431609 -42.395313 
L 462.716688 -42.395313 
L 465.349916 -42.395313 
L 466.02698 -42.395313 
L 466.687824 -42.395313 
L 468.640968 -42.395313 
L 470.867485 -42.395313 
L 478.712812 -42.395313 
L 482.079949 -42.395313 
L 482.40629 -42.395313 
L 482.456079 -42.395313 
L 483.334143 -42.395313 
L 483.619222 -42.395313 
L 486.25245 -42.395313 
L 486.929514 -42.395313 
L 487.590358 -42.395313 
L 489.543502 -42.395313 
L 491.770019 -42.395313 
L 502.982483 -42.395313 
L 503.308824 -42.395313 
L 503.358613 -42.395313 
L 504.236677 -42.395313 
L 504.521756 -42.395313 
L 507.154984 -42.395313 
L 507.832048 -42.395313 
L 508.492892 -42.395313 
L 510.066613 -42.395313 
L 510.446036 -42.395313 
L 512.672553 -42.395313 
L 523.885017 -42.395313 
L 524.261147 -42.395313 
L 525.42429 -42.395313 
L 525.42429 -45.048471 
L 525.42429 -45.048471 
L 524.261147 -45.048471 
L 523.885017 -44.844275 
L 512.672553 -44.844275 
L 510.446036 -44.825712 
L 510.066613 -44.825712 
L 508.492892 -45.141288 
L 507.832048 -46.310775 
L 507.154984 -47.51739 
L 504.521756 -47.424573 
L 504.236677 -47.443136 
L 503.358613 -48.612624 
L 503.308824 -48.76113 
L 502.982483 -50.821656 
L 491.770019 -50.803093 
L 489.543502 -52.232466 
L 487.590358 -52.25103 
L 486.929514 -52.25103 
L 486.25245 -52.232466 
L 483.619222 -52.270057 
L 483.334143 -52.140114 
L 482.456079 -52.140114 
L 482.40629 -52.214367 
L 482.079949 -52.23293 
L 478.712812 -52.251494 
L 470.867485 -53.365291 
L 468.640968 -53.216785 
L 466.687824 -53.180587 
L 466.02698 -53.750016 
L 465.349916 -54.399731 
L 462.716688 -54.90094 
L 462.431609 -57.759687 
L 461.553545 -57.741124 
L 461.503756 -58.019573 
L 461.177415 -58.353713 
L 457.810278 -58.799232 
L 449.964951 -59.151934 
L 447.738434 -58.817795 
L 445.785291 -59.151934 
L 445.124446 -60.061536 
L 444.447382 -61.249587 
L 441.814154 -64.683796 
L 441.529075 -65.370638 
L 440.651012 -65.760467 
L 440.601222 -66.725759 
L 440.274881 -68.600651 
L 436.907744 -68.229386 
L 424.882757 -68.656341 
L 420.91162 -70.048588 
L 420.626541 -71.255203 
L 419.748478 -72.406127 
L 419.698688 -74.243893 
L 419.372347 -75.450507 
L 418.61115 -75.58045 
L 416.384633 -75.69183 
L 416.00521 -77.770919 
L 413.770646 -78.90328 
L 413.093581 -79.144603 
L 403.980223 -80.53685 
L 399.724007 -82.615939 
L 398.845944 -84.657901 
L 398.796154 -85.734572 
L 398.469813 -85.808826 
L 397.708616 -85.938769 
L 395.482099 -84.992041 
L 395.102676 -85.957332 
L 392.868112 -85.938769 
L 392.191047 -85.499283 
L 389.557819 -85.870548 
L 383.077689 -85.592099 
L 378.821473 -82.863295 
L 377.94341 -83.717206 
L 377.89362 -83.420194 
L 377.567279 -83.253124 
L 376.806082 -83.40163 
L 374.579565 -83.086054 
L 374.200142 -83.253124 
L 371.965578 -83.141744 
L 371.288513 -82.436339 
L 368.655285 -81.471048 
L 357.918939 -78.185345 
L 357.040876 -77.498503 
L 356.991086 -77.387123 
L 356.664745 -80.821332 
L 355.903548 -83.086054 
L 353.677031 -85.666352 
L 353.297608 -88.580789 
L 351.723888 -91.755113 
L 351.063044 -92.627588 
L 350.385979 -94.688113 
L 347.752751 -96.822892 
L 337.016405 -97.249848 
L 336.088552 -101.537969 
L 335.762211 -104.600913 
L 335.001014 -102.50326 
L 332.774497 -101.408026 
L 332.395074 -101.166703 
L 330.821354 -100.646931 
L 330.16051 -98.530715 
L 329.483445 -96.52588 
L 326.850217 -95.449208 
L 325.687075 -95.337829 
L 315.186018 -95.226449 
L 314.09848 -94.929436 
L 311.871963 -93.945582 
L 311.49254 -93.964145 
L 309.91882 -93.834202 
L 309.257976 -94.50248 
L 308.580911 -94.279721 
L 305.947683 -94.61386 
L 305.662604 -93.759949 
L 304.784541 -93.741385 
L 304.40841 -93.834202 
L 293.195946 -93.221613 
L 290.969429 -93.388683 
L 289.016286 -93.351556 
L 288.355442 -93.759949 
L 287.678377 -94.094088 
L 285.045149 -94.762367 
L 284.76007 -94.985126 
L 283.882007 -95.374955 
L 283.832217 -95.783348 
L 283.505876 -91.829366 
L 280.138739 -89.081998 
L 272.293412 -86.111871 
L 270.066895 -81.87944 
L 268.113752 -77.665572 
L 267.452908 -77.554192 
L 266.775843 -75.233781 
L 264.142615 -73.173255 
L 263.857536 -71.038476 
L 262.979473 -68.086912 
L 262.929683 -65.191038 
L 262.603342 -66.249146 
L 259.236205 -68.012659 
L 249.164361 -68.049786 
L 247.211218 -68.959387 
L 246.550374 -70.685773 
L 245.873309 -71.836698 
L 243.240081 -74.491249 
L 242.955002 -76.273325 
L 242.076939 -78.742243 
L 242.027149 -80.35725 
L 241.700808 -81.898003 
L 240.939611 -83.698643 
L 238.333671 -85.072327 
L 226.308684 -84.905257 
L 222.052468 -86.056181 
L 221.174405 -88.395157 
L 221.124615 -91.495227 
L 220.798274 -95.579152 
L 220.037077 -97.973817 
L 217.81056 -101.779292 
L 217.431137 -104.229647 
L 215.196573 -106.809945 
L 214.519508 -110.095648 
L 211.88628 -113.121465 
L 205.40615 -116.184409 
L 201.149934 -118.950339 
L 200.271871 -122.811505 
L 200.222081 -122.143226 
L 199.89574 -121.66058 
L 199.134543 -119.952757 
L 196.908026 -119.562928 
L 196.528603 -119.247352 
L 194.294039 -118.857523 
L 193.616975 -116.92694 
L 190.983746 -114.866415 
L 180.2474 -112.731636 
L 179.319547 -111.599275 
L 178.232009 -110.151338 
L 176.005492 -108.480641 
L 175.626069 -107.441097 
L 174.052349 -105.621894 
L 173.391505 -105.93747 
L 172.714441 -104.13683 
L 170.081213 -102.55895 
L 168.91807 -101.389463 
L 168.541939 -98.660658 
L 159.344866 -96.952835 
L 158.417013 -94.465354 
L 157.329475 -92.831784 
L 155.102958 -91.420974 
L 154.723536 -89.620334 
L 153.149815 -88.24665 
L 152.488971 -87.040036 
L 151.811907 -85.963365 
L 149.178679 -83.197434 
L 148.015536 -80.115927 
L 147.639406 -76.032002 
L 138.442332 -73.396014 
L 137.514479 -69.720482 
L 136.426941 -67.40007 
L 134.200424 -64.726956 
L 133.821002 -60.828664 
L 132.247281 -57.301638 
L 131.586437 -53.36622 
L 130.909373 -50.247586 
L 128.276145 -46.033718 
L 127.113002 -46.033718 
L 126.736872 -46.052282 
L 116.611945 -46.070845 
L 113.29789 -46.070845 
L 111.344747 -46.070845 
L 110.683903 -49.040972 
L 110.006839 -49.003845 
L 107.373611 -52.029662 
L 107.088531 -52.159605 
L 106.210468 -54.702777 
L 105.834338 -58.04417 
L 105.07314 -60.995734 
L 102.467201 -60.995734 
L 92.395356 -61.03286 
L 90.442213 -60.735848 
L 89.781369 -63.483215 
L 89.104305 -63.334709 
L 86.471077 -63.297582 
L 86.185997 -63.279019 
L 85.307934 -63.223329 
L 85.258144 -63.204766 
L 84.931804 -63.204766 
L 84.170607 -63.093386 
L 81.564667 -63.074823 
L 71.492823 -63.056259 
L 69.539679 -62.88919 
L 68.878835 -62.94488 
z
" style="stroke: #009384; stroke-opacity: 0.7; stroke-width: 1.5"/>
    </defs>
    <g clip-path="url(#p9826451220)">
     <use xlink:href="#mac6fc65105" x="0" y="287.233281" style="fill: #009384; fill-opacity: 0.7; stroke: #009384; stroke-opacity: 0.7; stroke-width: 1.5"/>
    </g>
   </g>
   <g id="PolyCollection_2">
    <defs>
     <path id="m172452401d" d="M 68.878835 -68.711756 
L 68.878835 -62.94488 
L 69.539679 -62.88919 
L 71.492823 -63.056259 
L 81.564667 -63.074823 
L 84.170607 -63.093386 
L 84.931804 -63.204766 
L 85.258144 -63.204766 
L 85.307934 -63.223329 
L 86.185997 -63.279019 
L 86.471077 -63.297582 
L 89.104305 -63.334709 
L 89.781369 -63.483215 
L 90.442213 -60.735848 
L 92.395356 -61.03286 
L 102.467201 -60.995734 
L 105.07314 -60.995734 
L 105.834338 -58.04417 
L 106.210468 -54.702777 
L 107.088531 -52.159605 
L 107.373611 -52.029662 
L 110.006839 -49.003845 
L 110.683903 -49.040972 
L 111.344747 -46.070845 
L 113.29789 -46.070845 
L 116.611945 -46.070845 
L 126.736872 -46.052282 
L 127.113002 -46.033718 
L 128.276145 -46.033718 
L 130.909373 -50.247586 
L 131.586437 -53.36622 
L 132.247281 -57.301638 
L 133.821002 -60.828664 
L 134.200424 -64.726956 
L 136.426941 -67.40007 
L 137.514479 -69.720482 
L 138.442332 -73.396014 
L 147.639406 -76.032002 
L 148.015536 -80.115927 
L 149.178679 -83.197434 
L 151.811907 -85.963365 
L 152.488971 -87.040036 
L 153.149815 -88.24665 
L 154.723536 -89.620334 
L 155.102958 -91.420974 
L 157.329475 -92.831784 
L 158.417013 -94.465354 
L 159.344866 -96.952835 
L 168.541939 -98.660658 
L 168.91807 -101.389463 
L 170.081213 -102.55895 
L 172.714441 -104.13683 
L 173.391505 -105.93747 
L 174.052349 -105.621894 
L 175.626069 -107.441097 
L 176.005492 -108.480641 
L 178.232009 -110.151338 
L 179.319547 -111.599275 
L 180.2474 -112.731636 
L 190.983746 -114.866415 
L 193.616975 -116.92694 
L 194.294039 -118.857523 
L 196.528603 -119.247352 
L 196.908026 -119.562928 
L 199.134543 -119.952757 
L 199.89574 -121.66058 
L 200.222081 -122.143226 
L 200.271871 -122.811505 
L 201.149934 -118.950339 
L 205.40615 -116.184409 
L 211.88628 -113.121465 
L 214.519508 -110.095648 
L 215.196573 -106.809945 
L 217.431137 -104.229647 
L 217.81056 -101.779292 
L 220.037077 -97.973817 
L 220.798274 -95.579152 
L 221.124615 -91.495227 
L 221.174405 -88.395157 
L 222.052468 -86.056181 
L 226.308684 -84.905257 
L 238.333671 -85.072327 
L 240.939611 -83.698643 
L 241.700808 -81.898003 
L 242.027149 -80.35725 
L 242.076939 -78.742243 
L 242.955002 -76.273325 
L 243.240081 -74.491249 
L 245.873309 -71.836698 
L 246.550374 -70.685773 
L 247.211218 -68.959387 
L 249.164361 -68.049786 
L 259.236205 -68.012659 
L 262.603342 -66.249146 
L 262.929683 -65.191038 
L 262.979473 -68.086912 
L 263.857536 -71.038476 
L 264.142615 -73.173255 
L 266.775843 -75.233781 
L 267.452908 -77.554192 
L 268.113752 -77.665572 
L 270.066895 -81.87944 
L 272.293412 -86.111871 
L 280.138739 -89.081998 
L 283.505876 -91.829366 
L 283.832217 -95.783348 
L 283.882007 -95.374955 
L 284.76007 -94.985126 
L 285.045149 -94.762367 
L 287.678377 -94.094088 
L 288.355442 -93.759949 
L 289.016286 -93.351556 
L 290.969429 -93.388683 
L 293.195946 -93.221613 
L 304.40841 -93.834202 
L 304.784541 -93.741385 
L 305.662604 -93.759949 
L 305.947683 -94.61386 
L 308.580911 -94.279721 
L 309.257976 -94.50248 
L 309.91882 -93.834202 
L 311.49254 -93.964145 
L 311.871963 -93.945582 
L 314.09848 -94.929436 
L 315.186018 -95.226449 
L 325.687075 -95.337829 
L 326.850217 -95.449208 
L 329.483445 -96.52588 
L 330.16051 -98.530715 
L 330.821354 -100.646931 
L 332.395074 -101.166703 
L 332.774497 -101.408026 
L 335.001014 -102.50326 
L 335.762211 -104.600913 
L 336.088552 -101.537969 
L 337.016405 -97.249848 
L 347.752751 -96.822892 
L 350.385979 -94.688113 
L 351.063044 -92.627588 
L 351.723888 -91.755113 
L 353.297608 -88.580789 
L 353.677031 -85.666352 
L 355.903548 -83.086054 
L 356.664745 -80.821332 
L 356.991086 -77.387123 
L 357.040876 -77.498503 
L 357.918939 -78.185345 
L 368.655285 -81.471048 
L 371.288513 -82.436339 
L 371.965578 -83.141744 
L 374.200142 -83.253124 
L 374.579565 -83.086054 
L 376.806082 -83.40163 
L 377.567279 -83.253124 
L 377.89362 -83.420194 
L 377.94341 -83.717206 
L 378.821473 -82.863295 
L 383.077689 -85.592099 
L 389.557819 -85.870548 
L 392.191047 -85.499283 
L 392.868112 -85.938769 
L 395.102676 -85.957332 
L 395.482099 -84.992041 
L 397.708616 -85.938769 
L 398.469813 -85.808826 
L 398.796154 -85.734572 
L 398.845944 -84.657901 
L 399.724007 -82.615939 
L 403.980223 -80.53685 
L 413.093581 -79.144603 
L 413.770646 -78.90328 
L 416.00521 -77.770919 
L 416.384633 -75.69183 
L 418.61115 -75.58045 
L 419.372347 -75.450507 
L 419.698688 -74.243893 
L 419.748478 -72.406127 
L 420.626541 -71.255203 
L 420.91162 -70.048588 
L 424.882757 -68.656341 
L 436.907744 -68.229386 
L 440.274881 -68.600651 
L 440.601222 -66.725759 
L 440.651012 -65.760467 
L 441.529075 -65.370638 
L 441.814154 -64.683796 
L 444.447382 -61.249587 
L 445.124446 -60.061536 
L 445.785291 -59.151934 
L 447.738434 -58.817795 
L 449.964951 -59.151934 
L 457.810278 -58.799232 
L 461.177415 -58.353713 
L 461.503756 -58.019573 
L 461.553545 -57.741124 
L 462.431609 -57.759687 
L 462.716688 -54.90094 
L 465.349916 -54.399731 
L 466.02698 -53.750016 
L 466.687824 -53.180587 
L 468.640968 -53.216785 
L 470.867485 -53.365291 
L 478.712812 -52.251494 
L 482.079949 -52.23293 
L 482.40629 -52.214367 
L 482.456079 -52.140114 
L 483.334143 -52.140114 
L 483.619222 -52.270057 
L 486.25245 -52.232466 
L 486.929514 -52.25103 
L 487.590358 -52.25103 
L 489.543502 -52.232466 
L 491.770019 -50.803093 
L 502.982483 -50.821656 
L 503.308824 -48.76113 
L 503.358613 -48.612624 
L 504.236677 -47.443136 
L 504.521756 -47.424573 
L 507.154984 -47.51739 
L 507.832048 -46.310775 
L 508.492892 -45.141288 
L 510.066613 -44.825712 
L 510.446036 -44.825712 
L 512.672553 -44.844275 
L 523.885017 -44.844275 
L 524.261147 -45.048471 
L 525.42429 -45.048471 
L 525.42429 -49.332437 
L 525.42429 -49.332437 
L 524.261147 -49.314129 
L 523.885017 -49.823927 
L 512.672553 -49.769005 
L 510.446036 -49.933517 
L 510.066613 -49.860287 
L 508.492892 -49.754789 
L 507.832048 -50.942584 
L 507.154984 -52.057661 
L 504.521756 -51.946537 
L 504.236677 -51.946793 
L 503.358613 -52.786744 
L 503.308824 -52.953558 
L 502.982483 -55.014084 
L 491.770019 -54.995521 
L 489.543502 -56.443202 
L 487.590358 -56.461765 
L 486.929514 -56.846224 
L 486.25245 -56.864275 
L 483.619222 -57.377862 
L 483.334143 -58.566062 
L 482.456079 -59.719438 
L 482.40629 -60.39784 
L 482.079949 -60.398096 
L 478.712812 -60.910963 
L 470.867485 -62.500757 
L 468.640968 -63.17609 
L 466.687824 -63.67081 
L 466.02698 -64.221932 
L 465.349916 -65.402566 
L 462.716688 -65.922082 
L 462.431609 -69.806052 
L 461.553545 -71.032402 
L 461.503756 -72.66561 
L 461.177415 -73.018057 
L 457.810278 -72.731274 
L 449.964951 -73.102284 
L 447.738434 -72.713222 
L 445.785291 -73.047361 
L 445.124446 -76.922785 
L 444.447382 -78.348834 
L 441.814154 -80.959204 
L 441.529075 -84.593561 
L 440.651012 -85.148158 
L 440.601222 -87.248517 
L 440.274881 -92.254 
L 436.907744 -93.47549 
L 424.882757 -93.939061 
L 420.91162 -98.516821 
L 420.626541 -101.847111 
L 419.748478 -103.675414 
L 419.698688 -106.025791 
L 419.372347 -108.074553 
L 418.61115 -108.735415 
L 416.384633 -109.432636 
L 416.00521 -112.024336 
L 413.770646 -113.596078 
L 413.093581 -114.240167 
L 403.980223 -115.870412 
L 399.724007 -117.162277 
L 398.845944 -118.288862 
L 398.796154 -119.566916 
L 398.469813 -121.215618 
L 397.708616 -121.144178 
L 395.482099 -119.721454 
L 395.102676 -121.583815 
L 392.868112 -122.77355 
L 392.191047 -124.274663 
L 389.557819 -125.817612 
L 383.077689 -126.765768 
L 378.821473 -124.714343 
L 377.94341 -126.025943 
L 377.89362 -124.905091 
L 377.567279 -125.177403 
L 376.806082 -125.61883 
L 374.579565 -125.541252 
L 374.200142 -125.781551 
L 371.965578 -126.05463 
L 371.288513 -121.980637 
L 368.655285 -120.83227 
L 357.918939 -117.96764 
L 357.040876 -114.790972 
L 356.991086 -114.716208 
L 356.664745 -117.564576 
L 355.903548 -118.236541 
L 353.677031 -120.597149 
L 353.297608 -125.031112 
L 351.723888 -126.283143 
L 351.063044 -125.654399 
L 350.385979 -127.952923 
L 347.752751 -131.003079 
L 337.016405 -131.063884 
L 336.088552 -136.688456 
L 335.762211 -139.916167 
L 335.001014 -139.283119 
L 332.774497 -138.627266 
L 332.395074 -141.095459 
L 330.821354 -140.081383 
L 330.16051 -138.972083 
L 329.483445 -138.578311 
L 326.850217 -137.538255 
L 325.687075 -136.914264 
L 315.186018 -138.194258 
L 314.09848 -139.490001 
L 311.871963 -139.604599 
L 311.49254 -137.993791 
L 309.91882 -137.131546 
L 309.257976 -136.115531 
L 308.580911 -134.812626 
L 305.947683 -133.444164 
L 305.662604 -131.180571 
L 304.784541 -130.759242 
L 304.40841 -130.68729 
L 293.195946 -130.202854 
L 290.969429 -131.248686 
L 289.016286 -130.790486 
L 288.355442 -130.81442 
L 287.678377 -132.082244 
L 285.045149 -132.713908 
L 284.76007 -132.533901 
L 283.882007 -132.484349 
L 283.832217 -132.727974 
L 283.505876 -128.188151 
L 280.138739 -123.902949 
L 272.293412 -119.559756 
L 270.066895 -113.789491 
L 268.113752 -108.403941 
L 267.452908 -107.798257 
L 266.775843 -104.562468 
L 264.142615 -101.073954 
L 263.857536 -98.463179 
L 262.979473 -93.662553 
L 262.929683 -89.997762 
L 262.603342 -90.909409 
L 259.236205 -91.263241 
L 249.164361 -88.15147 
L 247.211218 -88.713228 
L 246.550374 -89.231317 
L 245.873309 -88.533179 
L 243.240081 -91.04127 
L 242.955002 -91.889661 
L 242.076939 -92.63767 
L 242.027149 -92.65992 
L 241.700808 -91.710848 
L 240.939611 -93.401642 
L 238.333671 -93.54872 
L 226.308684 -93.345036 
L 222.052468 -94.367807 
L 221.174405 -96.761705 
L 221.124615 -99.550547 
L 220.798274 -103.524626 
L 220.037077 -105.772831 
L 217.81056 -109.907842 
L 217.431137 -111.241437 
L 215.196573 -113.821735 
L 214.519508 -117.363743 
L 211.88628 -119.602336 
L 205.40615 -122.66528 
L 201.149934 -125.43121 
L 200.271871 -129.292376 
L 200.222081 -128.404407 
L 199.89574 -127.940068 
L 199.134543 -126.250553 
L 196.908026 -126.19026 
L 196.528603 -126.002836 
L 194.294039 -125.539777 
L 193.616975 -123.481042 
L 190.983746 -121.457131 
L 180.2474 -119.304045 
L 179.319547 -118.171684 
L 178.232009 -116.723747 
L 176.005492 -115.034742 
L 175.626069 -112.201059 
L 174.052349 -110.363548 
L 173.391505 -110.679124 
L 172.714441 -108.896792 
L 170.081213 -107.007684 
L 168.91807 -105.838196 
L 168.541939 -102.395398 
L 159.344866 -100.559422 
L 158.417013 -98.07194 
L 157.329475 -96.43837 
L 155.102958 -94.716332 
L 154.723536 -93.062152 
L 153.149815 -91.725084 
L 152.488971 -90.51847 
L 151.811907 -89.423491 
L 149.178679 -86.602637 
L 148.015536 -83.704206 
L 147.639406 -79.620281 
L 138.442332 -77.149061 
L 137.514479 -72.741227 
L 136.426941 -70.420815 
L 134.200424 -67.766008 
L 133.821002 -63.757871 
L 132.247281 -61.23776 
L 131.586437 -58.382487 
L 130.909373 -55.318776 
L 128.276145 -51.123216 
L 127.113002 -51.141523 
L 126.736872 -51.196702 
L 116.611945 -51.892644 
L 113.29789 -51.563108 
L 111.344747 -51.471571 
L 110.683903 -54.460005 
L 110.006839 -54.422879 
L 107.373611 -57.430388 
L 107.088531 -57.578639 
L 106.210468 -60.12181 
L 105.834338 -63.481511 
L 105.07314 -66.46969 
L 102.467201 -66.433075 
L 92.395356 -66.470201 
L 90.442213 -66.356264 
L 89.781369 -69.085324 
L 89.104305 -68.91851 
L 86.471077 -68.954614 
L 86.185997 -69.045896 
L 85.307934 -68.990206 
L 85.258144 -69.081488 
L 84.931804 -69.06318 
L 84.170607 -69.043338 
L 81.564667 -68.860007 
L 71.492823 -68.804829 
L 69.539679 -68.637759 
L 68.878835 -68.711756 
z
" style="stroke: #009384; stroke-opacity: 0.7; stroke-width: 1.5"/>
    </defs>
    <g clip-path="url(#p9826451220)">
     <use xlink:href="#m172452401d" x="0" y="287.233281" style="fill: #009384; fill-opacity: 0.7; stroke: #009384; stroke-opacity: 0.7; stroke-width: 1.5"/>
    </g>
   </g>
   <g id="PolyCollection_3">
    <defs>
     <path id="m0fb0f8093f" d="M 71.082903 -58.254607 
L 71.082903 -42.395313 
L 71.24773 -42.395313 
L 72.902061 -42.395313 
L 80.638935 -42.395313 
L 86.044466 -42.395313 
L 86.530628 -42.395313 
L 88.091023 -42.395313 
L 88.987282 -42.395313 
L 89.801854 -42.395313 
L 90.216957 -42.395313 
L 90.258511 -42.395313 
L 91.420034 -42.395313 
L 91.985437 -42.395313 
L 92.150264 -42.395313 
L 93.804595 -42.395313 
L 106.947 -42.395313 
L 107.433162 -42.395313 
L 109.889816 -42.395313 
L 110.704388 -42.395313 
L 111.119491 -42.395313 
L 111.161045 -42.395313 
L 111.992736 -42.395313 
L 112.322568 -42.395313 
L 112.887971 -42.395313 
L 113.052798 -42.395313 
L 114.707129 -42.395313 
L 119.444824 -42.395313 
L 127.849534 -42.395313 
L 128.335696 -42.395313 
L 131.606922 -42.395313 
L 132.022025 -42.395313 
L 132.063579 -42.395313 
L 132.89527 -42.395313 
L 133.225102 -42.395313 
L 133.790505 -42.395313 
L 133.955332 -42.395313 
L 135.609663 -42.395313 
L 140.347358 -42.395313 
L 141.243617 -42.395313 
L 149.23823 -42.395313 
L 152.509456 -42.395313 
L 152.924559 -42.395313 
L 152.966113 -42.395313 
L 153.797804 -42.395313 
L 154.127636 -42.395313 
L 154.693039 -42.395313 
L 154.857866 -42.395313 
L 156.512197 -42.395313 
L 159.203335 -42.395313 
L 161.249892 -42.395313 
L 162.146151 -42.395313 
L 170.140764 -42.395313 
L 173.827093 -42.395313 
L 173.868647 -42.395313 
L 174.700338 -42.395313 
L 175.03017 -42.395313 
L 175.7604 -42.395313 
L 177.414731 -42.395313 
L 180.105869 -42.395313 
L 182.152426 -42.395313 
L 183.048685 -42.395313 
L 183.863256 -42.395313 
L 186.04684 -42.395313 
L 191.043298 -42.395313 
L 194.729627 -42.395313 
L 194.771181 -42.395313 
L 195.602872 -42.395313 
L 195.932704 -42.395313 
L 196.662934 -42.395313 
L 201.008403 -42.395313 
L 203.05496 -42.395313 
L 203.951219 -42.395313 
L 204.76579 -42.395313 
L 206.949374 -42.395313 
L 208.768532 -42.395313 
L 215.673715 -42.395313 
L 216.505406 -42.395313 
L 216.835238 -42.395313 
L 217.565468 -42.395313 
L 221.910937 -42.395313 
L 222.397099 -42.395313 
L 223.957494 -42.395313 
L 224.853753 -42.395313 
L 225.668324 -42.395313 
L 226.083428 -42.395313 
L 227.851908 -42.395313 
L 229.671066 -42.395313 
L 237.40794 -42.395313 
L 238.468002 -42.395313 
L 242.813471 -42.395313 
L 243.299633 -42.395313 
L 244.860028 -42.395313 
L 245.756287 -42.395313 
L 246.570858 -42.395313 
L 246.985962 -42.395313 
L 247.027516 -42.395313 
L 248.189038 -42.395313 
L 248.754442 -42.395313 
L 250.5736 -42.395313 
L 258.310474 -42.395313 
L 259.370535 -42.395313 
L 263.716005 -42.395313 
L 264.202167 -42.395313 
L 265.762562 -42.395313 
L 266.658821 -42.395313 
L 267.473392 -42.395313 
L 267.888496 -42.395313 
L 267.93005 -42.395313 
L 269.091572 -42.395313 
L 269.656976 -42.395313 
L 271.476133 -42.395313 
L 279.213008 -42.395313 
L 284.618539 -42.395313 
L 285.104701 -42.395313 
L 286.665096 -42.395313 
L 287.561355 -42.395313 
L 288.375926 -42.395313 
L 288.79103 -42.395313 
L 288.832584 -42.395313 
L 289.994106 -42.395313 
L 290.559509 -42.395313 
L 290.724336 -42.395313 
L 292.378667 -42.395313 
L 300.115542 -42.395313 
L 305.521073 -42.395313 
L 306.007235 -42.395313 
L 307.56763 -42.395313 
L 308.463888 -42.395313 
L 309.27846 -42.395313 
L 309.693564 -42.395313 
L 309.735118 -42.395313 
L 310.89664 -42.395313 
L 311.462043 -42.395313 
L 311.62687 -42.395313 
L 313.281201 -42.395313 
L 326.423607 -42.395313 
L 326.909769 -42.395313 
L 329.366422 -42.395313 
L 330.180994 -42.395313 
L 330.596098 -42.395313 
L 330.637652 -42.395313 
L 331.469343 -42.395313 
L 331.799174 -42.395313 
L 332.364577 -42.395313 
L 332.529404 -42.395313 
L 334.183735 -42.395313 
L 338.921431 -42.395313 
L 347.812302 -42.395313 
L 351.083528 -42.395313 
L 351.498632 -42.395313 
L 351.540186 -42.395313 
L 352.371877 -42.395313 
L 352.701708 -42.395313 
L 353.267111 -42.395313 
L 353.431938 -42.395313 
L 355.086269 -42.395313 
L 357.777408 -42.395313 
L 359.823965 -42.395313 
L 360.720223 -42.395313 
L 368.714836 -42.395313 
L 371.986062 -42.395313 
L 372.401166 -42.395313 
L 372.44272 -42.395313 
L 373.274411 -42.395313 
L 373.604242 -42.395313 
L 374.334472 -42.395313 
L 375.988803 -42.395313 
L 378.679942 -42.395313 
L 380.726498 -42.395313 
L 381.622757 -42.395313 
L 384.620912 -42.395313 
L 389.61737 -42.395313 
L 393.303699 -42.395313 
L 393.345254 -42.395313 
L 394.176945 -42.395313 
L 394.506776 -42.395313 
L 395.237006 -42.395313 
L 396.891337 -42.395313 
L 399.582476 -42.395313 
L 401.629032 -42.395313 
L 402.525291 -42.395313 
L 403.339863 -42.395313 
L 405.523446 -42.395313 
L 414.206233 -42.395313 
L 414.247788 -42.395313 
L 415.079479 -42.395313 
L 415.40931 -42.395313 
L 416.13954 -42.395313 
L 420.48501 -42.395313 
L 420.971171 -42.395313 
L 422.531566 -42.395313 
L 423.427825 -42.395313 
L 424.242397 -42.395313 
L 426.42598 -42.395313 
L 428.245138 -42.395313 
L 435.150322 -42.395313 
L 435.982013 -42.395313 
L 436.311844 -42.395313 
L 437.042074 -42.395313 
L 441.387544 -42.395313 
L 441.873705 -42.395313 
L 443.4341 -42.395313 
L 444.330359 -42.395313 
L 445.144931 -42.395313 
L 445.560034 -42.395313 
L 447.328514 -42.395313 
L 449.147672 -42.395313 
L 456.884546 -42.395313 
L 457.944608 -42.395313 
L 457.944608 -86.123854 
L 457.944608 -86.123854 
L 456.884546 -85.546452 
L 449.147672 -85.623439 
L 447.328514 -83.814248 
L 445.560034 -78.502154 
L 445.144931 -79.041062 
L 444.330359 -78.001739 
L 443.4341 -72.959099 
L 441.873705 -71.534842 
L 441.387544 -69.725651 
L 437.042074 -71.149908 
L 436.311844 -71.149908 
L 435.982013 -71.226895 
L 435.150322 -73.805955 
L 428.245138 -74.460343 
L 426.42598 -73.267047 
L 424.242397 -72.150737 
L 423.427825 -66.871363 
L 422.531566 -66.370948 
L 420.971171 -66.370948 
L 420.48501 -69.75837 
L 416.13954 -69.219462 
L 415.40931 -69.257955 
L 415.079479 -72.067976 
L 414.247788 -71.875509 
L 414.206233 -74.91649 
L 405.523446 -74.954984 
L 403.339863 -74.993477 
L 402.525291 -75.031971 
L 401.629032 -75.301425 
L 399.582476 -75.91732 
L 396.891337 -75.91732 
L 395.237006 -76.879655 
L 394.506776 -78.573367 
L 394.176945 -79.266248 
L 393.345254 -79.651183 
L 393.303699 -79.420222 
L 389.61737 -79.612689 
L 384.620912 -79.343235 
L 381.622757 -77.49555 
L 380.726498 -75.455398 
L 378.679942 -75.840333 
L 375.988803 -76.105937 
L 374.334472 -76.105937 
L 373.604242 -76.375391 
L 373.274411 -76.798819 
L 372.44272 -77.337727 
L 372.401166 -74.45072 
L 371.986062 -75.105108 
L 368.714836 -75.528536 
L 360.720223 -75.836483 
L 359.823965 -76.182924 
L 357.777408 -75.220588 
L 355.086269 -75.336069 
L 353.431938 -75.336069 
L 353.267111 -72.833995 
L 352.701708 -74.874147 
L 352.371877 -74.412226 
L 351.540186 -71.833166 
L 351.498632 -71.72346 
L 351.083528 -72.108394 
L 347.812302 -72.223875 
L 338.921431 -68.913439 
L 334.183735 -68.913439 
L 332.529404 -68.874946 
L 332.364577 -71.492499 
L 331.799174 -80.038042 
L 331.469343 -84.464787 
L 330.637652 -92.163473 
L 330.596098 -99.669693 
L 330.180994 -99.939147 
L 329.366422 -99.74668 
L 326.909769 -99.246265 
L 326.423607 -104.096438 
L 313.281201 -111.641151 
L 311.62687 -116.45283 
L 311.462043 -122.996714 
L 310.89664 -123.689596 
L 309.735118 -124.690425 
L 309.693564 -125.768241 
L 309.27846 -127.115512 
L 308.463888 -131.272802 
L 307.56763 -137.393258 
L 306.007235 -144.899478 
L 305.521073 -147.559374 
L 300.115542 -148.906645 
L 292.378667 -150.369395 
L 290.724336 -152.563521 
L 290.559509 -153.371883 
L 289.994106 -153.872298 
L 288.832584 -153.410376 
L 288.79103 -152.948455 
L 288.375926 -156.25889 
L 287.561355 -157.3752 
L 286.665096 -158.106575 
L 285.104701 -159.030418 
L 284.618539 -159.415352 
L 279.213008 -159.415352 
L 271.476133 -159.299872 
L 269.656976 -163.64963 
L 269.091572 -163.842097 
L 267.93005 -163.611136 
L 267.888496 -163.187709 
L 267.473392 -163.187709 
L 266.658821 -163.149215 
L 265.762562 -163.033735 
L 264.202167 -163.033735 
L 263.716005 -157.606161 
L 259.370535 -148.136776 
L 258.310474 -140.707543 
L 250.5736 -132.970363 
L 248.754442 -125.42565 
L 248.189038 -125.271676 
L 247.027516 -125.194689 
L 246.985962 -125.117702 
L 246.570858 -120.26753 
L 245.756287 -112.222402 
L 244.860028 -104.061794 
L 243.299633 -96.825028 
L 242.813471 -95.708719 
L 238.468002 -94.784876 
L 237.40794 -93.014178 
L 229.671066 -91.666908 
L 227.851908 -87.086189 
L 226.083428 -80.965733 
L 225.668324 -73.382527 
L 224.853753 -70.495519 
L 223.957494 -69.109756 
L 222.397099 -67.223577 
L 221.910937 -65.491373 
L 217.565468 -64.105609 
L 216.835238 -63.643688 
L 216.505406 -63.451221 
L 215.673715 -63.412727 
L 208.768532 -59.794345 
L 206.949374 -58.601048 
L 204.76579 -57.407752 
L 203.951219 -56.368429 
L 203.05496 -56.137468 
L 201.008403 -56.406922 
L 196.662934 -54.058823 
L 195.932704 -49.593585 
L 195.602872 -49.401117 
L 194.771181 -49.632078 
L 194.729627 -49.670572 
L 191.043298 -49.632078 
L 186.04684 -49.670572 
L 183.863256 -49.786052 
L 183.048685 -49.786052 
L 182.152426 -54.02033 
L 180.105869 -53.981836 
L 177.414731 -53.904849 
L 175.7604 -54.328277 
L 175.03017 -54.405264 
L 174.700338 -54.25129 
L 173.868647 -54.828692 
L 173.827093 -54.751705 
L 170.140764 -54.520744 
L 162.146151 -54.02033 
L 161.249892 -54.02033 
L 159.203335 -54.02033 
L 156.512197 -54.058823 
L 154.857866 -54.097316 
L 154.693039 -54.13581 
L 154.127636 -54.36677 
L 153.797804 -54.36677 
L 152.966113 -54.02033 
L 152.924559 -54.13581 
L 152.509456 -55.521574 
L 149.23823 -56.098975 
L 141.243617 -56.098975 
L 140.347358 -55.290613 
L 135.609663 -55.252119 
L 133.955332 -55.213626 
L 133.790505 -55.290613 
L 133.225102 -55.521574 
L 132.89527 -56.329936 
L 132.063579 -56.329936 
L 132.022025 -56.406922 
L 131.606922 -56.791857 
L 128.335696 -57.061311 
L 127.849534 -56.791857 
L 119.444824 -59.986812 
L 114.707129 -60.063799 
L 113.052798 -60.140786 
L 112.887971 -59.794345 
L 112.322568 -59.755851 
L 111.992736 -60.063799 
L 111.161045 -60.025305 
L 111.119491 -60.294759 
L 110.704388 -60.294759 
L 109.889816 -56.098975 
L 107.433162 -56.098975 
L 106.947 -56.59939 
L 93.804595 -56.291442 
L 92.150264 -57.215285 
L 91.985437 -58.17762 
L 91.420034 -57.638712 
L 90.258511 -57.677206 
L 90.216957 -58.023647 
L 89.801854 -58.023647 
L 88.987282 -58.023647 
L 88.091023 -58.023647 
L 86.530628 -58.139127 
L 86.044466 -58.06214 
L 80.638935 -58.447075 
L 72.902061 -58.254607 
L 71.24773 -58.216114 
L 71.082903 -58.254607 
z
" style="stroke: #b85741; stroke-opacity: 0.7; stroke-width: 1.5"/>
    </defs>
    <g clip-path="url(#p9826451220)">
     <use xlink:href="#m0fb0f8093f" x="0" y="287.233281" style="fill: #b85741; fill-opacity: 0.7; stroke: #b85741; stroke-opacity: 0.7; stroke-width: 1.5"/>
    </g>
   </g>
   <g id="PolyCollection_4">
    <defs>
     <path id="m4d6df1fb32" d="M 71.082903 -77.732285 
L 71.082903 -58.254607 
L 71.24773 -58.216114 
L 72.902061 -58.254607 
L 80.638935 -58.447075 
L 86.044466 -58.06214 
L 86.530628 -58.139127 
L 88.091023 -58.023647 
L 88.987282 -58.023647 
L 89.801854 -58.023647 
L 90.216957 -58.023647 
L 90.258511 -57.677206 
L 91.420034 -57.638712 
L 91.985437 -58.17762 
L 92.150264 -57.215285 
L 93.804595 -56.291442 
L 106.947 -56.59939 
L 107.433162 -56.098975 
L 109.889816 -56.098975 
L 110.704388 -60.294759 
L 111.119491 -60.294759 
L 111.161045 -60.025305 
L 111.992736 -60.063799 
L 112.322568 -59.755851 
L 112.887971 -59.794345 
L 113.052798 -60.140786 
L 114.707129 -60.063799 
L 119.444824 -59.986812 
L 127.849534 -56.791857 
L 128.335696 -57.061311 
L 131.606922 -56.791857 
L 132.022025 -56.406922 
L 132.063579 -56.329936 
L 132.89527 -56.329936 
L 133.225102 -55.521574 
L 133.790505 -55.290613 
L 133.955332 -55.213626 
L 135.609663 -55.252119 
L 140.347358 -55.290613 
L 141.243617 -56.098975 
L 149.23823 -56.098975 
L 152.509456 -55.521574 
L 152.924559 -54.13581 
L 152.966113 -54.02033 
L 153.797804 -54.36677 
L 154.127636 -54.36677 
L 154.693039 -54.13581 
L 154.857866 -54.097316 
L 156.512197 -54.058823 
L 159.203335 -54.02033 
L 161.249892 -54.02033 
L 162.146151 -54.02033 
L 170.140764 -54.520744 
L 173.827093 -54.751705 
L 173.868647 -54.828692 
L 174.700338 -54.25129 
L 175.03017 -54.405264 
L 175.7604 -54.328277 
L 177.414731 -53.904849 
L 180.105869 -53.981836 
L 182.152426 -54.02033 
L 183.048685 -49.786052 
L 183.863256 -49.786052 
L 186.04684 -49.670572 
L 191.043298 -49.632078 
L 194.729627 -49.670572 
L 194.771181 -49.632078 
L 195.602872 -49.401117 
L 195.932704 -49.593585 
L 196.662934 -54.058823 
L 201.008403 -56.406922 
L 203.05496 -56.137468 
L 203.951219 -56.368429 
L 204.76579 -57.407752 
L 206.949374 -58.601048 
L 208.768532 -59.794345 
L 215.673715 -63.412727 
L 216.505406 -63.451221 
L 216.835238 -63.643688 
L 217.565468 -64.105609 
L 221.910937 -65.491373 
L 222.397099 -67.223577 
L 223.957494 -69.109756 
L 224.853753 -70.495519 
L 225.668324 -73.382527 
L 226.083428 -80.965733 
L 227.851908 -87.086189 
L 229.671066 -91.666908 
L 237.40794 -93.014178 
L 238.468002 -94.784876 
L 242.813471 -95.708719 
L 243.299633 -96.825028 
L 244.860028 -104.061794 
L 245.756287 -112.222402 
L 246.570858 -120.26753 
L 246.985962 -125.117702 
L 247.027516 -125.194689 
L 248.189038 -125.271676 
L 248.754442 -125.42565 
L 250.5736 -132.970363 
L 258.310474 -140.707543 
L 259.370535 -148.136776 
L 263.716005 -157.606161 
L 264.202167 -163.033735 
L 265.762562 -163.033735 
L 266.658821 -163.149215 
L 267.473392 -163.187709 
L 267.888496 -163.187709 
L 267.93005 -163.611136 
L 269.091572 -163.842097 
L 269.656976 -163.64963 
L 271.476133 -159.299872 
L 279.213008 -159.415352 
L 284.618539 -159.415352 
L 285.104701 -159.030418 
L 286.665096 -158.106575 
L 287.561355 -157.3752 
L 288.375926 -156.25889 
L 288.79103 -152.948455 
L 288.832584 -153.410376 
L 289.994106 -153.872298 
L 290.559509 -153.371883 
L 290.724336 -152.563521 
L 292.378667 -150.369395 
L 300.115542 -148.906645 
L 305.521073 -147.559374 
L 306.007235 -144.899478 
L 307.56763 -137.393258 
L 308.463888 -131.272802 
L 309.27846 -127.115512 
L 309.693564 -125.768241 
L 309.735118 -124.690425 
L 310.89664 -123.689596 
L 311.462043 -122.996714 
L 311.62687 -116.45283 
L 313.281201 -111.641151 
L 326.423607 -104.096438 
L 326.909769 -99.246265 
L 329.366422 -99.74668 
L 330.180994 -99.939147 
L 330.596098 -99.669693 
L 330.637652 -92.163473 
L 331.469343 -84.464787 
L 331.799174 -80.038042 
L 332.364577 -71.492499 
L 332.529404 -68.874946 
L 334.183735 -68.913439 
L 338.921431 -68.913439 
L 347.812302 -72.223875 
L 351.083528 -72.108394 
L 351.498632 -71.72346 
L 351.540186 -71.833166 
L 352.371877 -74.412226 
L 352.701708 -74.874147 
L 353.267111 -72.833995 
L 353.431938 -75.336069 
L 355.086269 -75.336069 
L 357.777408 -75.220588 
L 359.823965 -76.182924 
L 360.720223 -75.836483 
L 368.714836 -75.528536 
L 371.986062 -75.105108 
L 372.401166 -74.45072 
L 372.44272 -77.337727 
L 373.274411 -76.798819 
L 373.604242 -76.375391 
L 374.334472 -76.105937 
L 375.988803 -76.105937 
L 378.679942 -75.840333 
L 380.726498 -75.455398 
L 381.622757 -77.49555 
L 384.620912 -79.343235 
L 389.61737 -79.612689 
L 393.303699 -79.420222 
L 393.345254 -79.651183 
L 394.176945 -79.266248 
L 394.506776 -78.573367 
L 395.237006 -76.879655 
L 396.891337 -75.91732 
L 399.582476 -75.91732 
L 401.629032 -75.301425 
L 402.525291 -75.031971 
L 403.339863 -74.993477 
L 405.523446 -74.954984 
L 414.206233 -74.91649 
L 414.247788 -71.875509 
L 415.079479 -72.067976 
L 415.40931 -69.257955 
L 416.13954 -69.219462 
L 420.48501 -69.75837 
L 420.971171 -66.370948 
L 422.531566 -66.370948 
L 423.427825 -66.871363 
L 424.242397 -72.150737 
L 426.42598 -73.267047 
L 428.245138 -74.460343 
L 435.150322 -73.805955 
L 435.982013 -71.226895 
L 436.311844 -71.149908 
L 437.042074 -71.149908 
L 441.387544 -69.725651 
L 441.873705 -71.534842 
L 443.4341 -72.959099 
L 444.330359 -78.001739 
L 445.144931 -79.041062 
L 445.560034 -78.502154 
L 447.328514 -83.814248 
L 449.147672 -85.623439 
L 456.884546 -85.546452 
L 456.884546 -113.800633 
L 456.884546 -113.800633 
L 449.147672 -112.64583 
L 447.328514 -110.259237 
L 445.560034 -99.250115 
L 445.144931 -98.056818 
L 444.330359 -95.285291 
L 443.4341 -88.779901 
L 441.873705 -86.008373 
L 441.387544 -83.313833 
L 437.042074 -84.006715 
L 436.311844 -84.468636 
L 435.982013 -84.545623 
L 435.150322 -87.586604 
L 428.245138 -88.202499 
L 426.42598 -87.009203 
L 424.242397 -85.507959 
L 423.427825 -78.919807 
L 422.531566 -78.149939 
L 420.971171 -74.454569 
L 420.48501 -77.880485 
L 416.13954 -77.38007 
L 415.40931 -77.803498 
L 415.079479 -80.613519 
L 414.247788 -80.421051 
L 414.206233 -83.539019 
L 405.523446 -83.539019 
L 403.339863 -83.577513 
L 402.525291 -83.6545 
L 401.629032 -83.923954 
L 399.582476 -84.539849 
L 396.891337 -84.539849 
L 395.237006 -85.579172 
L 394.506776 -87.311376 
L 394.176945 -88.042751 
L 393.345254 -88.427686 
L 393.303699 -87.811791 
L 389.61737 -88.9281 
L 384.620912 -90.698798 
L 381.622757 -91.584147 
L 380.726498 -90.198384 
L 378.679942 -90.621811 
L 375.988803 -90.810429 
L 374.334472 -90.848923 
L 373.604242 -91.04139 
L 373.274411 -92.38866 
L 372.44272 -92.927568 
L 372.401166 -92.812088 
L 371.986062 -93.543463 
L 368.714836 -94.043878 
L 360.720223 -94.313332 
L 359.823965 -96.238003 
L 357.777408 -95.352654 
L 355.086269 -95.275668 
L 353.431938 -97.585274 
L 353.267111 -94.96772 
L 352.701708 -97.238833 
L 352.371877 -97.161846 
L 351.540186 -94.698266 
L 351.498632 -103.519036 
L 351.083528 -104.250412 
L 347.812302 -111.872112 
L 338.921431 -108.869624 
L 334.183735 -108.561676 
L 332.529404 -108.138249 
L 332.364577 -110.945382 
L 331.799174 -120.068326 
L 331.469343 -124.225617 
L 330.637652 -132.193758 
L 330.596098 -140.585326 
L 330.180994 -145.858927 
L 329.366422 -145.66646 
L 326.909769 -145.166045 
L 326.423607 -150.016218 
L 313.281201 -157.560931 
L 311.62687 -162.37261 
L 311.462043 -168.954987 
L 310.89664 -170.186777 
L 309.735118 -179.617669 
L 309.693564 -185.23771 
L 309.27846 -186.161552 
L 308.463888 -188.432665 
L 307.56763 -194.245174 
L 306.007235 -202.94469 
L 305.521073 -206.143494 
L 300.115542 -213.033819 
L 292.378667 -219.77017 
L 290.724336 -226.083093 
L 290.559509 -227.843205 
L 289.994106 -227.265804 
L 288.832584 -226.919363 
L 288.79103 -226.765389 
L 288.375926 -230.614732 
L 287.561355 -232.770365 
L 286.665096 -242.278243 
L 285.104701 -248.706646 
L 284.618539 -247.243896 
L 279.213008 -247.282389 
L 271.476133 -247.320883 
L 269.656976 -252.55599 
L 269.091572 -253.595312 
L 267.93005 -245.473198 
L 267.888496 -249.053087 
L 267.473392 -242.509203 
L 266.658821 -242.624684 
L 265.762562 -242.663177 
L 264.202167 -248.398699 
L 263.716005 -247.978158 
L 259.370535 -243.050999 
L 258.310474 -237.700411 
L 250.5736 -233.504627 
L 248.754442 -230.925567 
L 248.189038 -229.424323 
L 247.027516 -230.117205 
L 246.985962 -232.696265 
L 246.570858 -228.692948 
L 245.756287 -223.996749 
L 244.860028 -219.339043 
L 243.299633 -213.295574 
L 242.813471 -215.374219 
L 238.468002 -207.714026 
L 237.40794 -202.82536 
L 229.671066 -202.517413 
L 227.851908 -198.475602 
L 226.083428 -193.548442 
L 225.668324 -184.771939 
L 224.853753 -181.961919 
L 223.957494 -175.110087 
L 222.397099 -167.988802 
L 221.910937 -160.020661 
L 217.565468 -157.837121 
L 216.835238 -155.527515 
L 216.505406 -155.219568 
L 215.673715 -155.373541 
L 208.768532 -151.216251 
L 206.949374 -147.482387 
L 204.76579 -137.474095 
L 203.951219 -130.737744 
L 203.05496 -130.044862 
L 201.008403 -129.929382 
L 196.662934 -127.350321 
L 195.932704 -121.6148 
L 195.602872 -120.729451 
L 194.771181 -119.921089 
L 194.729627 -115.301877 
L 191.043298 -113.87762 
L 186.04684 -113.454192 
L 183.863256 -113.377205 
L 183.048685 -107.680177 
L 182.152426 -106.794828 
L 180.105869 -101.136293 
L 177.414731 -98.980661 
L 175.7604 -99.250115 
L 175.03017 -93.4761 
L 174.700338 -89.66525 
L 173.868647 -89.511276 
L 173.827093 -86.816735 
L 170.140764 -85.96988 
L 162.146151 -82.351497 
L 161.249892 -78.964075 
L 159.203335 -77.770778 
L 156.512197 -77.501324 
L 154.857866 -75.8846 
L 154.693039 -73.998422 
L 154.127636 -73.613488 
L 153.797804 -72.612658 
L 152.966113 -70.687987 
L 152.924559 -70.880454 
L 152.509456 -72.612658 
L 149.23823 -79.387503 
L 141.243617 -84.314662 
L 140.347358 -83.544794 
L 135.609663 -83.352326 
L 133.955332 -83.544794 
L 133.790505 -83.583287 
L 133.225102 -83.429313 
L 132.89527 -84.276169 
L 132.063579 -84.699597 
L 132.022025 -84.815077 
L 131.606922 -85.200011 
L 128.335696 -85.507959 
L 127.849534 -85.238505 
L 119.444824 -88.356473 
L 114.707129 -88.510447 
L 113.052798 -88.356473 
L 112.887971 -88.43346 
L 112.322568 -88.356473 
L 111.992736 -88.856887 
L 111.161045 -88.741407 
L 111.119491 -89.010861 
L 110.704388 -89.010861 
L 109.889816 -84.815077 
L 107.433162 -84.73809 
L 106.947 -85.276998 
L 93.804595 -81.273681 
L 92.150264 -82.15903 
L 91.985437 -83.583287 
L 91.420034 -82.967392 
L 90.258511 -82.928899 
L 90.216957 -83.005885 
L 89.801854 -82.697938 
L 88.987282 -82.697938 
L 88.091023 -82.697938 
L 86.530628 -79.349009 
L 86.044466 -79.195035 
L 80.638935 -80.272852 
L 72.902061 -78.117219 
L 71.24773 -77.693792 
L 71.082903 -77.732285 
z
" style="stroke: #b85741; stroke-opacity: 0.7; stroke-width: 1.5"/>
    </defs>
    <g clip-path="url(#p9826451220)">
     <use xlink:href="#m4d6df1fb32" x="0" y="287.233281" style="fill: #b85741; fill-opacity: 0.7; stroke: #b85741; stroke-opacity: 0.7; stroke-width: 1.5"/>
    </g>
   </g>
   <g id="matplotlib.axis_1">
    <g id="xtick_1">
     <g id="line2d_1">
      <defs>
       <path id="m68e3989481" d="M 0 0 
L 0 3.5 
" style="stroke: #000000; stroke-width: 0.8"/>
      </defs>
      <g>
       <use xlink:href="#m68e3989481" x="47.385481" y="244.837969" style="stroke: #000000; stroke-width: 0.8"/>
      </g>
     </g>
     <g id="text_1">
      <!-- −10 -->
      <g transform="translate(34.722668 260.956094) scale(0.12 -0.12)">
       <defs>
        <path id="DejaVuSans-2212" d="M 678 2272 
L 4684 2272 
L 4684 1741 
L 678 1741 
L 678 2272 
z
" transform="scale(0.015625)"/>
        <path id="DejaVuSans-31" d="M 794 531 
L 1825 531 
L 1825 4091 
L 703 3866 
L 703 4441 
L 1819 4666 
L 2450 4666 
L 2450 531 
L 3481 531 
L 3481 0 
L 794 0 
L 794 531 
z
" transform="scale(0.015625)"/>
        <path id="DejaVuSans-30" d="M 2034 4250 
Q 1547 4250 1301 3770 
Q 1056 3291 1056 2328 
Q 1056 1369 1301 889 
Q 1547 409 2034 409 
Q 2525 409 2770 889 
Q 3016 1369 3016 2328 
Q 3016 3291 2770 3770 
Q 2525 4250 2034 4250 
z
M 2034 4750 
Q 2819 4750 3233 4129 
Q 3647 3509 3647 2328 
Q 3647 1150 3233 529 
Q 2819 -91 2034 -91 
Q 1250 -91 836 529 
Q 422 1150 422 2328 
Q 422 3509 836 4129 
Q 1250 4750 2034 4750 
z
" transform="scale(0.015625)"/>
       </defs>
       <use xlink:href="#DejaVuSans-2212"/>
       <use xlink:href="#DejaVuSans-31" x="83.789062"/>
       <use xlink:href="#DejaVuSans-30" x="147.412109"/>
      </g>
     </g>
    </g>
    <g id="xtick_2">
     <g id="line2d_2">
      <g>
       <use xlink:href="#m68e3989481" x="151.89815" y="244.837969" style="stroke: #000000; stroke-width: 0.8"/>
      </g>
     </g>
     <g id="text_2">
      <!-- 0 -->
      <g transform="translate(148.08065 260.956094) scale(0.12 -0.12)">
       <use xlink:href="#DejaVuSans-30"/>
      </g>
     </g>
    </g>
    <g id="xtick_3">
     <g id="line2d_3">
      <g>
       <use xlink:href="#m68e3989481" x="256.41082" y="244.837969" style="stroke: #000000; stroke-width: 0.8"/>
      </g>
     </g>
     <g id="text_3">
      <!-- 10 -->
      <g transform="translate(248.77582 260.956094) scale(0.12 -0.12)">
       <use xlink:href="#DejaVuSans-31"/>
       <use xlink:href="#DejaVuSans-30" x="63.623047"/>
      </g>
     </g>
    </g>
    <g id="xtick_4">
     <g id="line2d_4">
      <g>
       <use xlink:href="#m68e3989481" x="360.92349" y="244.837969" style="stroke: #000000; stroke-width: 0.8"/>
      </g>
     </g>
     <g id="text_4">
      <!-- 20 -->
      <g transform="translate(353.28849 260.956094) scale(0.12 -0.12)">
       <defs>
        <path id="DejaVuSans-32" d="M 1228 531 
L 3431 531 
L 3431 0 
L 469 0 
L 469 531 
Q 828 903 1448 1529 
Q 2069 2156 2228 2338 
Q 2531 2678 2651 2914 
Q 2772 3150 2772 3378 
Q 2772 3750 2511 3984 
Q 2250 4219 1831 4219 
Q 1534 4219 1204 4116 
Q 875 4013 500 3803 
L 500 4441 
Q 881 4594 1212 4672 
Q 1544 4750 1819 4750 
Q 2544 4750 2975 4387 
Q 3406 4025 3406 3419 
Q 3406 3131 3298 2873 
Q 3191 2616 2906 2266 
Q 2828 2175 2409 1742 
Q 1991 1309 1228 531 
z
" transform="scale(0.015625)"/>
       </defs>
       <use xlink:href="#DejaVuSans-32"/>
       <use xlink:href="#DejaVuSans-30" x="63.623047"/>
      </g>
     </g>
    </g>
    <g id="xtick_5">
     <g id="line2d_5">
      <g>
       <use xlink:href="#m68e3989481" x="465.43616" y="244.837969" style="stroke: #000000; stroke-width: 0.8"/>
      </g>
     </g>
     <g id="text_5">
      <!-- 30 -->
      <g transform="translate(457.80116 260.956094) scale(0.12 -0.12)">
       <defs>
        <path id="DejaVuSans-33" d="M 2597 2516 
Q 3050 2419 3304 2112 
Q 3559 1806 3559 1356 
Q 3559 666 3084 287 
Q 2609 -91 1734 -91 
Q 1441 -91 1130 -33 
Q 819 25 488 141 
L 488 750 
Q 750 597 1062 519 
Q 1375 441 1716 441 
Q 2309 441 2620 675 
Q 2931 909 2931 1356 
Q 2931 1769 2642 2001 
Q 2353 2234 1838 2234 
L 1294 2234 
L 1294 2753 
L 1863 2753 
Q 2328 2753 2575 2939 
Q 2822 3125 2822 3475 
Q 2822 3834 2567 4026 
Q 2313 4219 1838 4219 
Q 1578 4219 1281 4162 
Q 984 4106 628 3988 
L 628 4550 
Q 988 4650 1302 4700 
Q 1616 4750 1894 4750 
Q 2613 4750 3031 4423 
Q 3450 4097 3450 3541 
Q 3450 3153 3228 2886 
Q 3006 2619 2597 2516 
z
" transform="scale(0.015625)"/>
       </defs>
       <use xlink:href="#DejaVuSans-33"/>
       <use xlink:href="#DejaVuSans-30" x="63.623047"/>
      </g>
     </g>
    </g>
    <g id="text_6">
     <!-- Time (s) -->
     <g transform="translate(270.723984 277.329687) scale(0.13 -0.13)">
      <defs>
       <path id="DejaVuSans-54" d="M -19 4666 
L 3928 4666 
L 3928 4134 
L 2272 4134 
L 2272 0 
L 1638 0 
L 1638 4134 
L -19 4134 
L -19 4666 
z
" transform="scale(0.015625)"/>
       <path id="DejaVuSans-69" d="M 603 3500 
L 1178 3500 
L 1178 0 
L 603 0 
L 603 3500 
z
M 603 4863 
L 1178 4863 
L 1178 4134 
L 603 4134 
L 603 4863 
z
" transform="scale(0.015625)"/>
       <path id="DejaVuSans-6d" d="M 3328 2828 
Q 3544 3216 3844 3400 
Q 4144 3584 4550 3584 
Q 5097 3584 5394 3201 
Q 5691 2819 5691 2113 
L 5691 0 
L 5113 0 
L 5113 2094 
Q 5113 2597 4934 2840 
Q 4756 3084 4391 3084 
Q 3944 3084 3684 2787 
Q 3425 2491 3425 1978 
L 3425 0 
L 2847 0 
L 2847 2094 
Q 2847 2600 2669 2842 
Q 2491 3084 2119 3084 
Q 1678 3084 1418 2786 
Q 1159 2488 1159 1978 
L 1159 0 
L 581 0 
L 581 3500 
L 1159 3500 
L 1159 2956 
Q 1356 3278 1631 3431 
Q 1906 3584 2284 3584 
Q 2666 3584 2933 3390 
Q 3200 3197 3328 2828 
z
" transform="scale(0.015625)"/>
       <path id="DejaVuSans-65" d="M 3597 1894 
L 3597 1613 
L 953 1613 
Q 991 1019 1311 708 
Q 1631 397 2203 397 
Q 2534 397 2845 478 
Q 3156 559 3463 722 
L 3463 178 
Q 3153 47 2828 -22 
Q 2503 -91 2169 -91 
Q 1331 -91 842 396 
Q 353 884 353 1716 
Q 353 2575 817 3079 
Q 1281 3584 2069 3584 
Q 2775 3584 3186 3129 
Q 3597 2675 3597 1894 
z
M 3022 2063 
Q 3016 2534 2758 2815 
Q 2500 3097 2075 3097 
Q 1594 3097 1305 2825 
Q 1016 2553 972 2059 
L 3022 2063 
z
" transform="scale(0.015625)"/>
       <path id="DejaVuSans-20" transform="scale(0.015625)"/>
       <path id="DejaVuSans-28" d="M 1984 4856 
Q 1566 4138 1362 3434 
Q 1159 2731 1159 2009 
Q 1159 1288 1364 580 
Q 1569 -128 1984 -844 
L 1484 -844 
Q 1016 -109 783 600 
Q 550 1309 550 2009 
Q 550 2706 781 3412 
Q 1013 4119 1484 4856 
L 1984 4856 
z
" transform="scale(0.015625)"/>
       <path id="DejaVuSans-73" d="M 2834 3397 
L 2834 2853 
Q 2591 2978 2328 3040 
Q 2066 3103 1784 3103 
Q 1356 3103 1142 2972 
Q 928 2841 928 2578 
Q 928 2378 1081 2264 
Q 1234 2150 1697 2047 
L 1894 2003 
Q 2506 1872 2764 1633 
Q 3022 1394 3022 966 
Q 3022 478 2636 193 
Q 2250 -91 1575 -91 
Q 1294 -91 989 -36 
Q 684 19 347 128 
L 347 722 
Q 666 556 975 473 
Q 1284 391 1588 391 
Q 1994 391 2212 530 
Q 2431 669 2431 922 
Q 2431 1156 2273 1281 
Q 2116 1406 1581 1522 
L 1381 1569 
Q 847 1681 609 1914 
Q 372 2147 372 2553 
Q 372 3047 722 3315 
Q 1072 3584 1716 3584 
Q 2034 3584 2315 3537 
Q 2597 3491 2834 3397 
z
" transform="scale(0.015625)"/>
       <path id="DejaVuSans-29" d="M 513 4856 
L 1013 4856 
Q 1481 4119 1714 3412 
Q 1947 2706 1947 2009 
Q 1947 1309 1714 600 
Q 1481 -109 1013 -844 
L 513 -844 
Q 928 -128 1133 580 
Q 1338 1288 1338 2009 
Q 1338 2731 1133 3434 
Q 928 4138 513 4856 
z
" transform="scale(0.015625)"/>
      </defs>
      <use xlink:href="#DejaVuSans-54"/>
      <use xlink:href="#DejaVuSans-69" x="57.958984"/>
      <use xlink:href="#DejaVuSans-6d" x="85.742188"/>
      <use xlink:href="#DejaVuSans-65" x="183.154297"/>
      <use xlink:href="#DejaVuSans-20" x="244.677734"/>
      <use xlink:href="#DejaVuSans-28" x="276.464844"/>
      <use xlink:href="#DejaVuSans-73" x="315.478516"/>
      <use xlink:href="#DejaVuSans-29" x="367.578125"/>
     </g>
    </g>
   </g>
   <g id="matplotlib.axis_2">
    <g id="ytick_1">
     <g id="line2d_6">
      <defs>
       <path id="m814967c846" d="M 0 0 
L -3.5 0 
" style="stroke: #000000; stroke-width: 0.8"/>
      </defs>
      <g>
       <use xlink:href="#m814967c846" x="46.051562" y="244.837969" style="stroke: #000000; stroke-width: 0.8"/>
      </g>
     </g>
     <g id="text_7">
      <!-- 0 -->
      <g transform="translate(31.416562 249.397031) scale(0.12 -0.12)">
       <use xlink:href="#DejaVuSans-30"/>
      </g>
     </g>
    </g>
    <g id="ytick_2">
     <g id="line2d_7">
      <g>
       <use xlink:href="#m814967c846" x="46.051562" y="204.419863" style="stroke: #000000; stroke-width: 0.8"/>
      </g>
     </g>
     <g id="text_8">
      <!-- 10 -->
      <g transform="translate(23.781562 208.978925) scale(0.12 -0.12)">
       <use xlink:href="#DejaVuSans-31"/>
       <use xlink:href="#DejaVuSans-30" x="63.623047"/>
      </g>
     </g>
    </g>
    <g id="ytick_3">
     <g id="line2d_8">
      <g>
       <use xlink:href="#m814967c846" x="46.051562" y="164.001757" style="stroke: #000000; stroke-width: 0.8"/>
      </g>
     </g>
     <g id="text_9">
      <!-- 20 -->
      <g transform="translate(23.781562 168.56082) scale(0.12 -0.12)">
       <use xlink:href="#DejaVuSans-32"/>
       <use xlink:href="#DejaVuSans-30" x="63.623047"/>
      </g>
     </g>
    </g>
    <g id="ytick_4">
     <g id="line2d_9">
      <g>
       <use xlink:href="#m814967c846" x="46.051562" y="123.583651" style="stroke: #000000; stroke-width: 0.8"/>
      </g>
     </g>
     <g id="text_10">
      <!-- 30 -->
      <g transform="translate(23.781562 128.142714) scale(0.12 -0.12)">
       <use xlink:href="#DejaVuSans-33"/>
       <use xlink:href="#DejaVuSans-30" x="63.623047"/>
      </g>
     </g>
    </g>
    <g id="ytick_5">
     <g id="line2d_10">
      <g>
       <use xlink:href="#m814967c846" x="46.051562" y="83.165546" style="stroke: #000000; stroke-width: 0.8"/>
      </g>
     </g>
     <g id="text_11">
      <!-- 40 -->
      <g transform="translate(23.781562 87.724608) scale(0.12 -0.12)">
       <defs>
        <path id="DejaVuSans-34" d="M 2419 4116 
L 825 1625 
L 2419 1625 
L 2419 4116 
z
M 2253 4666 
L 3047 4666 
L 3047 1625 
L 3713 1625 
L 3713 1100 
L 3047 1100 
L 3047 0 
L 2419 0 
L 2419 1100 
L 313 1100 
L 313 1709 
L 2253 4666 
z
" transform="scale(0.015625)"/>
       </defs>
       <use xlink:href="#DejaVuSans-34"/>
       <use xlink:href="#DejaVuSans-30" x="63.623047"/>
      </g>
     </g>
    </g>
    <g id="ytick_6">
     <g id="line2d_11">
      <g>
       <use xlink:href="#m814967c846" x="46.051562" y="42.74744" style="stroke: #000000; stroke-width: 0.8"/>
      </g>
     </g>
     <g id="text_12">
      <!-- 50 -->
      <g transform="translate(23.781562 47.306502) scale(0.12 -0.12)">
       <defs>
        <path id="DejaVuSans-35" d="M 691 4666 
L 3169 4666 
L 3169 4134 
L 1269 4134 
L 1269 2991 
Q 1406 3038 1543 3061 
Q 1681 3084 1819 3084 
Q 2600 3084 3056 2656 
Q 3513 2228 3513 1497 
Q 3513 744 3044 326 
Q 2575 -91 1722 -91 
Q 1428 -91 1123 -41 
Q 819 9 494 109 
L 494 744 
Q 775 591 1075 516 
Q 1375 441 1709 441 
Q 2250 441 2565 725 
Q 2881 1009 2881 1497 
Q 2881 1984 2565 2268 
Q 2250 2553 1709 2553 
Q 1456 2553 1204 2497 
Q 953 2441 691 2322 
L 691 4666 
z
" transform="scale(0.015625)"/>
       </defs>
       <use xlink:href="#DejaVuSans-35"/>
       <use xlink:href="#DejaVuSans-30" x="63.623047"/>
      </g>
     </g>
    </g>
    <g id="text_13">
     <!-- Utilization (%) -->
     <g transform="translate(17.077969 179.839844) rotate(-90) scale(0.13 -0.13)">
      <defs>
       <path id="DejaVuSans-55" d="M 556 4666 
L 1191 4666 
L 1191 1831 
Q 1191 1081 1462 751 
Q 1734 422 2344 422 
Q 2950 422 3222 751 
Q 3494 1081 3494 1831 
L 3494 4666 
L 4128 4666 
L 4128 1753 
Q 4128 841 3676 375 
Q 3225 -91 2344 -91 
Q 1459 -91 1007 375 
Q 556 841 556 1753 
L 556 4666 
z
" transform="scale(0.015625)"/>
       <path id="DejaVuSans-74" d="M 1172 4494 
L 1172 3500 
L 2356 3500 
L 2356 3053 
L 1172 3053 
L 1172 1153 
Q 1172 725 1289 603 
Q 1406 481 1766 481 
L 2356 481 
L 2356 0 
L 1766 0 
Q 1100 0 847 248 
Q 594 497 594 1153 
L 594 3053 
L 172 3053 
L 172 3500 
L 594 3500 
L 594 4494 
L 1172 4494 
z
" transform="scale(0.015625)"/>
       <path id="DejaVuSans-6c" d="M 603 4863 
L 1178 4863 
L 1178 0 
L 603 0 
L 603 4863 
z
" transform="scale(0.015625)"/>
       <path id="DejaVuSans-7a" d="M 353 3500 
L 3084 3500 
L 3084 2975 
L 922 459 
L 3084 459 
L 3084 0 
L 275 0 
L 275 525 
L 2438 3041 
L 353 3041 
L 353 3500 
z
" transform="scale(0.015625)"/>
       <path id="DejaVuSans-61" d="M 2194 1759 
Q 1497 1759 1228 1600 
Q 959 1441 959 1056 
Q 959 750 1161 570 
Q 1363 391 1709 391 
Q 2188 391 2477 730 
Q 2766 1069 2766 1631 
L 2766 1759 
L 2194 1759 
z
M 3341 1997 
L 3341 0 
L 2766 0 
L 2766 531 
Q 2569 213 2275 61 
Q 1981 -91 1556 -91 
Q 1019 -91 701 211 
Q 384 513 384 1019 
Q 384 1609 779 1909 
Q 1175 2209 1959 2209 
L 2766 2209 
L 2766 2266 
Q 2766 2663 2505 2880 
Q 2244 3097 1772 3097 
Q 1472 3097 1187 3025 
Q 903 2953 641 2809 
L 641 3341 
Q 956 3463 1253 3523 
Q 1550 3584 1831 3584 
Q 2591 3584 2966 3190 
Q 3341 2797 3341 1997 
z
" transform="scale(0.015625)"/>
       <path id="DejaVuSans-6f" d="M 1959 3097 
Q 1497 3097 1228 2736 
Q 959 2375 959 1747 
Q 959 1119 1226 758 
Q 1494 397 1959 397 
Q 2419 397 2687 759 
Q 2956 1122 2956 1747 
Q 2956 2369 2687 2733 
Q 2419 3097 1959 3097 
z
M 1959 3584 
Q 2709 3584 3137 3096 
Q 3566 2609 3566 1747 
Q 3566 888 3137 398 
Q 2709 -91 1959 -91 
Q 1206 -91 779 398 
Q 353 888 353 1747 
Q 353 2609 779 3096 
Q 1206 3584 1959 3584 
z
" transform="scale(0.015625)"/>
       <path id="DejaVuSans-6e" d="M 3513 2113 
L 3513 0 
L 2938 0 
L 2938 2094 
Q 2938 2591 2744 2837 
Q 2550 3084 2163 3084 
Q 1697 3084 1428 2787 
Q 1159 2491 1159 1978 
L 1159 0 
L 581 0 
L 581 3500 
L 1159 3500 
L 1159 2956 
Q 1366 3272 1645 3428 
Q 1925 3584 2291 3584 
Q 2894 3584 3203 3211 
Q 3513 2838 3513 2113 
z
" transform="scale(0.015625)"/>
       <path id="DejaVuSans-25" d="M 4653 2053 
Q 4381 2053 4226 1822 
Q 4072 1591 4072 1178 
Q 4072 772 4226 539 
Q 4381 306 4653 306 
Q 4919 306 5073 539 
Q 5228 772 5228 1178 
Q 5228 1588 5073 1820 
Q 4919 2053 4653 2053 
z
M 4653 2450 
Q 5147 2450 5437 2106 
Q 5728 1763 5728 1178 
Q 5728 594 5436 251 
Q 5144 -91 4653 -91 
Q 4153 -91 3862 251 
Q 3572 594 3572 1178 
Q 3572 1766 3864 2108 
Q 4156 2450 4653 2450 
z
M 1428 4353 
Q 1159 4353 1004 4120 
Q 850 3888 850 3481 
Q 850 3069 1003 2837 
Q 1156 2606 1428 2606 
Q 1700 2606 1854 2837 
Q 2009 3069 2009 3481 
Q 2009 3884 1853 4118 
Q 1697 4353 1428 4353 
z
M 4250 4750 
L 4750 4750 
L 1831 -91 
L 1331 -91 
L 4250 4750 
z
M 1428 4750 
Q 1922 4750 2215 4408 
Q 2509 4066 2509 3481 
Q 2509 2891 2217 2550 
Q 1925 2209 1428 2209 
Q 931 2209 642 2551 
Q 353 2894 353 3481 
Q 353 4063 643 4406 
Q 934 4750 1428 4750 
z
" transform="scale(0.015625)"/>
      </defs>
      <use xlink:href="#DejaVuSans-55"/>
      <use xlink:href="#DejaVuSans-74" x="73.193359"/>
      <use xlink:href="#DejaVuSans-69" x="112.402344"/>
      <use xlink:href="#DejaVuSans-6c" x="140.185547"/>
      <use xlink:href="#DejaVuSans-69" x="167.96875"/>
      <use xlink:href="#DejaVuSans-7a" x="195.751953"/>
      <use xlink:href="#DejaVuSans-61" x="248.242188"/>
      <use xlink:href="#DejaVuSans-74" x="309.521484"/>
      <use xlink:href="#DejaVuSans-69" x="348.730469"/>
      <use xlink:href="#DejaVuSans-6f" x="376.513672"/>
      <use xlink:href="#DejaVuSans-6e" x="437.695312"/>
      <use xlink:href="#DejaVuSans-20" x="501.074219"/>
      <use xlink:href="#DejaVuSans-28" x="532.861328"/>
      <use xlink:href="#DejaVuSans-25" x="571.875"/>
      <use xlink:href="#DejaVuSans-29" x="666.894531"/>
     </g>
    </g>
   </g>
   <g id="patch_3">
    <path d="M 46.051562 244.837969 
L 46.051562 23.077969 
" style="fill: none; stroke: #000000; stroke-width: 0.8; stroke-linejoin: miter; stroke-linecap: square"/>
   </g>
   <g id="patch_4">
    <path d="M 548.251563 244.837969 
L 548.251563 23.077969 
" style="fill: none; stroke: #000000; stroke-width: 0.8; stroke-linejoin: miter; stroke-linecap: square"/>
   </g>
   <g id="patch_5">
    <path d="M 46.051563 244.837969 
L 548.251563 244.837969 
" style="fill: none; stroke: #000000; stroke-width: 0.8; stroke-linejoin: miter; stroke-linecap: square"/>
   </g>
   <g id="patch_6">
    <path d="M 46.051563 23.077969 
L 548.251563 23.077969 
" style="fill: none; stroke: #000000; stroke-width: 0.8; stroke-linejoin: miter; stroke-linecap: square"/>
   </g>
   <g id="text_14">
    <!-- Live Migrate (Disk) -->
    <g transform="translate(235.969297 17.077969) scale(0.13 -0.13)">
     <defs>
      <path id="DejaVuSans-4c" d="M 628 4666 
L 1259 4666 
L 1259 531 
L 3531 531 
L 3531 0 
L 628 0 
L 628 4666 
z
" transform="scale(0.015625)"/>
      <path id="DejaVuSans-76" d="M 191 3500 
L 800 3500 
L 1894 563 
L 2988 3500 
L 3597 3500 
L 2284 0 
L 1503 0 
L 191 3500 
z
" transform="scale(0.015625)"/>
      <path id="DejaVuSans-4d" d="M 628 4666 
L 1569 4666 
L 2759 1491 
L 3956 4666 
L 4897 4666 
L 4897 0 
L 4281 0 
L 4281 4097 
L 3078 897 
L 2444 897 
L 1241 4097 
L 1241 0 
L 628 0 
L 628 4666 
z
" transform="scale(0.015625)"/>
      <path id="DejaVuSans-67" d="M 2906 1791 
Q 2906 2416 2648 2759 
Q 2391 3103 1925 3103 
Q 1463 3103 1205 2759 
Q 947 2416 947 1791 
Q 947 1169 1205 825 
Q 1463 481 1925 481 
Q 2391 481 2648 825 
Q 2906 1169 2906 1791 
z
M 3481 434 
Q 3481 -459 3084 -895 
Q 2688 -1331 1869 -1331 
Q 1566 -1331 1297 -1286 
Q 1028 -1241 775 -1147 
L 775 -588 
Q 1028 -725 1275 -790 
Q 1522 -856 1778 -856 
Q 2344 -856 2625 -561 
Q 2906 -266 2906 331 
L 2906 616 
Q 2728 306 2450 153 
Q 2172 0 1784 0 
Q 1141 0 747 490 
Q 353 981 353 1791 
Q 353 2603 747 3093 
Q 1141 3584 1784 3584 
Q 2172 3584 2450 3431 
Q 2728 3278 2906 2969 
L 2906 3500 
L 3481 3500 
L 3481 434 
z
" transform="scale(0.015625)"/>
      <path id="DejaVuSans-72" d="M 2631 2963 
Q 2534 3019 2420 3045 
Q 2306 3072 2169 3072 
Q 1681 3072 1420 2755 
Q 1159 2438 1159 1844 
L 1159 0 
L 581 0 
L 581 3500 
L 1159 3500 
L 1159 2956 
Q 1341 3275 1631 3429 
Q 1922 3584 2338 3584 
Q 2397 3584 2469 3576 
Q 2541 3569 2628 3553 
L 2631 2963 
z
" transform="scale(0.015625)"/>
      <path id="DejaVuSans-44" d="M 1259 4147 
L 1259 519 
L 2022 519 
Q 2988 519 3436 956 
Q 3884 1394 3884 2338 
Q 3884 3275 3436 3711 
Q 2988 4147 2022 4147 
L 1259 4147 
z
M 628 4666 
L 1925 4666 
Q 3281 4666 3915 4102 
Q 4550 3538 4550 2338 
Q 4550 1131 3912 565 
Q 3275 0 1925 0 
L 628 0 
L 628 4666 
z
" transform="scale(0.015625)"/>
      <path id="DejaVuSans-6b" d="M 581 4863 
L 1159 4863 
L 1159 1991 
L 2875 3500 
L 3609 3500 
L 1753 1863 
L 3688 0 
L 2938 0 
L 1159 1709 
L 1159 0 
L 581 0 
L 581 4863 
z
" transform="scale(0.015625)"/>
     </defs>
     <use xlink:href="#DejaVuSans-4c"/>
     <use xlink:href="#DejaVuSans-69" x="55.712891"/>
     <use xlink:href="#DejaVuSans-76" x="83.496094"/>
     <use xlink:href="#DejaVuSans-65" x="142.675781"/>
     <use xlink:href="#DejaVuSans-20" x="204.199219"/>
     <use xlink:href="#DejaVuSans-4d" x="235.986328"/>
     <use xlink:href="#DejaVuSans-69" x="322.265625"/>
     <use xlink:href="#DejaVuSans-67" x="350.048828"/>
     <use xlink:href="#DejaVuSans-72" x="413.525391"/>
     <use xlink:href="#DejaVuSans-61" x="454.638672"/>
     <use xlink:href="#DejaVuSans-74" x="515.917969"/>
     <use xlink:href="#DejaVuSans-65" x="555.126953"/>
     <use xlink:href="#DejaVuSans-20" x="616.650391"/>
     <use xlink:href="#DejaVuSans-28" x="648.4375"/>
     <use xlink:href="#DejaVuSans-44" x="687.451172"/>
     <use xlink:href="#DejaVuSans-69" x="764.453125"/>
     <use xlink:href="#DejaVuSans-73" x="792.236328"/>
     <use xlink:href="#DejaVuSans-6b" x="844.335938"/>
     <use xlink:href="#DejaVuSans-29" x="902.246094"/>
    </g>
   </g>
   <g id="legend_1">
    <g id="patch_7">
     <path d="M 427.126563 67.905469 
L 539.851563 67.905469 
Q 542.251563 67.905469 542.251563 65.505469 
L 542.251563 31.477969 
Q 542.251563 29.077969 539.851563 29.077969 
L 427.126563 29.077969 
Q 424.726563 29.077969 424.726563 31.477969 
L 424.726563 65.505469 
Q 424.726563 67.905469 427.126563 67.905469 
z
" style="fill: #ffffff; opacity: 0.8; stroke: #cccccc; stroke-linejoin: miter"/>
    </g>
    <g id="patch_8">
     <path d="M 429.526563 42.996094 
L 453.526563 42.996094 
L 453.526563 34.596094 
L 429.526563 34.596094 
z
" style="fill: #009384; fill-opacity: 0.7; stroke: #009384; stroke-opacity: 0.7; stroke-width: 1.5; stroke-linejoin: miter"/>
    </g>
    <g id="text_15">
     <!-- KubeVirt -->
     <g transform="translate(463.126563 42.996094) scale(0.12 -0.12)">
      <defs>
       <path id="DejaVuSans-4b" d="M 628 4666 
L 1259 4666 
L 1259 2694 
L 3353 4666 
L 4166 4666 
L 1850 2491 
L 4331 0 
L 3500 0 
L 1259 2247 
L 1259 0 
L 628 0 
L 628 4666 
z
" transform="scale(0.015625)"/>
       <path id="DejaVuSans-75" d="M 544 1381 
L 544 3500 
L 1119 3500 
L 1119 1403 
Q 1119 906 1312 657 
Q 1506 409 1894 409 
Q 2359 409 2629 706 
Q 2900 1003 2900 1516 
L 2900 3500 
L 3475 3500 
L 3475 0 
L 2900 0 
L 2900 538 
Q 2691 219 2414 64 
Q 2138 -91 1772 -91 
Q 1169 -91 856 284 
Q 544 659 544 1381 
z
M 1991 3584 
L 1991 3584 
z
" transform="scale(0.015625)"/>
       <path id="DejaVuSans-62" d="M 3116 1747 
Q 3116 2381 2855 2742 
Q 2594 3103 2138 3103 
Q 1681 3103 1420 2742 
Q 1159 2381 1159 1747 
Q 1159 1113 1420 752 
Q 1681 391 2138 391 
Q 2594 391 2855 752 
Q 3116 1113 3116 1747 
z
M 1159 2969 
Q 1341 3281 1617 3432 
Q 1894 3584 2278 3584 
Q 2916 3584 3314 3078 
Q 3713 2572 3713 1747 
Q 3713 922 3314 415 
Q 2916 -91 2278 -91 
Q 1894 -91 1617 61 
Q 1341 213 1159 525 
L 1159 0 
L 581 0 
L 581 4863 
L 1159 4863 
L 1159 2969 
z
" transform="scale(0.015625)"/>
       <path id="DejaVuSans-56" d="M 1831 0 
L 50 4666 
L 709 4666 
L 2188 738 
L 3669 4666 
L 4325 4666 
L 2547 0 
L 1831 0 
z
" transform="scale(0.015625)"/>
      </defs>
      <use xlink:href="#DejaVuSans-4b"/>
      <use xlink:href="#DejaVuSans-75" x="60.576172"/>
      <use xlink:href="#DejaVuSans-62" x="123.955078"/>
      <use xlink:href="#DejaVuSans-65" x="187.431641"/>
      <use xlink:href="#DejaVuSans-56" x="248.955078"/>
      <use xlink:href="#DejaVuSans-69" x="315.113281"/>
      <use xlink:href="#DejaVuSans-72" x="342.896484"/>
      <use xlink:href="#DejaVuSans-74" x="384.009766"/>
     </g>
    </g>
    <g id="patch_9">
     <path d="M 429.526563 60.609844 
L 453.526563 60.609844 
L 453.526563 52.209844 
L 429.526563 52.209844 
z
" style="fill: #b85741; fill-opacity: 0.7; stroke: #b85741; stroke-opacity: 0.7; stroke-width: 1.5; stroke-linejoin: miter"/>
    </g>
    <g id="text_16">
     <!-- OpenNebula -->
     <g transform="translate(463.126563 60.609844) scale(0.12 -0.12)">
      <defs>
       <path id="DejaVuSans-4f" d="M 2522 4238 
Q 1834 4238 1429 3725 
Q 1025 3213 1025 2328 
Q 1025 1447 1429 934 
Q 1834 422 2522 422 
Q 3209 422 3611 934 
Q 4013 1447 4013 2328 
Q 4013 3213 3611 3725 
Q 3209 4238 2522 4238 
z
M 2522 4750 
Q 3503 4750 4090 4092 
Q 4678 3434 4678 2328 
Q 4678 1225 4090 567 
Q 3503 -91 2522 -91 
Q 1538 -91 948 565 
Q 359 1222 359 2328 
Q 359 3434 948 4092 
Q 1538 4750 2522 4750 
z
" transform="scale(0.015625)"/>
       <path id="DejaVuSans-70" d="M 1159 525 
L 1159 -1331 
L 581 -1331 
L 581 3500 
L 1159 3500 
L 1159 2969 
Q 1341 3281 1617 3432 
Q 1894 3584 2278 3584 
Q 2916 3584 3314 3078 
Q 3713 2572 3713 1747 
Q 3713 922 3314 415 
Q 2916 -91 2278 -91 
Q 1894 -91 1617 61 
Q 1341 213 1159 525 
z
M 3116 1747 
Q 3116 2381 2855 2742 
Q 2594 3103 2138 3103 
Q 1681 3103 1420 2742 
Q 1159 2381 1159 1747 
Q 1159 1113 1420 752 
Q 1681 391 2138 391 
Q 2594 391 2855 752 
Q 3116 1113 3116 1747 
z
" transform="scale(0.015625)"/>
       <path id="DejaVuSans-4e" d="M 628 4666 
L 1478 4666 
L 3547 763 
L 3547 4666 
L 4159 4666 
L 4159 0 
L 3309 0 
L 1241 3903 
L 1241 0 
L 628 0 
L 628 4666 
z
" transform="scale(0.015625)"/>
      </defs>
      <use xlink:href="#DejaVuSans-4f"/>
      <use xlink:href="#DejaVuSans-70" x="78.710938"/>
      <use xlink:href="#DejaVuSans-65" x="142.1875"/>
      <use xlink:href="#DejaVuSans-6e" x="203.710938"/>
      <use xlink:href="#DejaVuSans-4e" x="267.089844"/>
      <use xlink:href="#DejaVuSans-65" x="341.894531"/>
      <use xlink:href="#DejaVuSans-62" x="403.417969"/>
      <use xlink:href="#DejaVuSans-75" x="466.894531"/>
      <use xlink:href="#DejaVuSans-6c" x="530.273438"/>
      <use xlink:href="#DejaVuSans-61" x="558.056641"/>
     </g>
    </g>
   </g>
  </g>
 </g>
 <defs>
  <clipPath id="p9826451220">
   <rect x="46.051562" y="23.077969" width="502.2" height="221.76"/>
  </clipPath>
 </defs>
</svg>
