<?xml version="1.0" encoding="utf-8" standalone="no"?>
<!DOCTYPE svg PUBLIC "-//W3C//DTD SVG 1.1//EN"
  "http://www.w3.org/Graphics/SVG/1.1/DTD/svg11.dtd">
<svg xmlns:xlink="http://www.w3.org/1999/xlink" width="564.412812pt" height="298.015156pt" viewBox="0 0 564.412812 298.015156" xmlns="http://www.w3.org/2000/svg" version="1.1">
 <metadata>
  <rdf:RDF xmlns:dc="http://purl.org/dc/elements/1.1/" xmlns:cc="http://creativecommons.org/ns#" xmlns:rdf="http://www.w3.org/1999/02/22-rdf-syntax-ns#">
   <cc:Work>
    <dc:type rdf:resource="http://purl.org/dc/dcmitype/StillImage"/>
    <dc:date>2024-06-25T10:50:29.549929</dc:date>
    <dc:format>image/svg+xml</dc:format>
    <dc:creator>
     <cc:Agent>
      <dc:title>Matplotlib v3.8.4, https://matplotlib.org/</dc:title>
     </cc:Agent>
    </dc:creator>
   </cc:Work>
  </rdf:RDF>
 </metadata>
 <defs>
  <style type="text/css">*{stroke-linejoin: round; stroke-linecap: butt}</style>
 </defs>
 <g id="figure_1">
  <g id="patch_1">
   <path d="M 0 298.015156 
L 564.412812 298.015156 
L 564.412812 0 
L 0 0 
z
" style="fill: #f3f7f8"/>
  </g>
  <g id="axes_1">
   <g id="patch_2">
    <path d="M 55.012813 247.877344 
L 557.212813 247.877344 
L 557.212813 26.117344 
L 55.012813 26.117344 
z
" style="fill: #ffffff"/>
   </g>
   <g id="matplotlib.axis_1">
    <g id="xtick_1">
     <g id="line2d_1">
      <defs>
       <path id="m0b536a3961" d="M 0 0 
L 0 3.5 
" style="stroke: #000000; stroke-width: 0.8"/>
      </defs>
      <g>
       <use xlink:href="#m0b536a3961" x="89.644394" y="247.877344" style="stroke: #000000; stroke-width: 0.8"/>
      </g>
     </g>
     <g id="text_1">
      <!-- 0 -->
      <g transform="translate(84.554394 267.034844) scale(0.16 -0.16)">
       <defs>
        <path id="DejaVuSans-30" d="M 2034 4250 
Q 1547 4250 1301 3770 
Q 1056 3291 1056 2328 
Q 1056 1369 1301 889 
Q 1547 409 2034 409 
Q 2525 409 2770 889 
Q 3016 1369 3016 2328 
Q 3016 3291 2770 3770 
Q 2525 4250 2034 4250 
z
M 2034 4750 
Q 2819 4750 3233 4129 
Q 3647 3509 3647 2328 
Q 3647 1150 3233 529 
Q 2819 -91 2034 -91 
Q 1250 -91 836 529 
Q 422 1150 422 2328 
Q 422 3509 836 4129 
Q 1250 4750 2034 4750 
z
" transform="scale(0.015625)"/>
       </defs>
       <use xlink:href="#DejaVuSans-30"/>
      </g>
     </g>
    </g>
    <g id="xtick_2">
     <g id="line2d_2">
      <g>
       <use xlink:href="#m0b536a3961" x="168.339789" y="247.877344" style="stroke: #000000; stroke-width: 0.8"/>
      </g>
     </g>
     <g id="text_2">
      <!-- 20 -->
      <g transform="translate(158.159789 267.034844) scale(0.16 -0.16)">
       <defs>
        <path id="DejaVuSans-32" d="M 1228 531 
L 3431 531 
L 3431 0 
L 469 0 
L 469 531 
Q 828 903 1448 1529 
Q 2069 2156 2228 2338 
Q 2531 2678 2651 2914 
Q 2772 3150 2772 3378 
Q 2772 3750 2511 3984 
Q 2250 4219 1831 4219 
Q 1534 4219 1204 4116 
Q 875 4013 500 3803 
L 500 4441 
Q 881 4594 1212 4672 
Q 1544 4750 1819 4750 
Q 2544 4750 2975 4387 
Q 3406 4025 3406 3419 
Q 3406 3131 3298 2873 
Q 3191 2616 2906 2266 
Q 2828 2175 2409 1742 
Q 1991 1309 1228 531 
z
" transform="scale(0.015625)"/>
       </defs>
       <use xlink:href="#DejaVuSans-32"/>
       <use xlink:href="#DejaVuSans-30" x="63.623047"/>
      </g>
     </g>
    </g>
    <g id="xtick_3">
     <g id="line2d_3">
      <g>
       <use xlink:href="#m0b536a3961" x="247.035184" y="247.877344" style="stroke: #000000; stroke-width: 0.8"/>
      </g>
     </g>
     <g id="text_3">
      <!-- 40 -->
      <g transform="translate(236.855184 267.034844) scale(0.16 -0.16)">
       <defs>
        <path id="DejaVuSans-34" d="M 2419 4116 
L 825 1625 
L 2419 1625 
L 2419 4116 
z
M 2253 4666 
L 3047 4666 
L 3047 1625 
L 3713 1625 
L 3713 1100 
L 3047 1100 
L 3047 0 
L 2419 0 
L 2419 1100 
L 313 1100 
L 313 1709 
L 2253 4666 
z
" transform="scale(0.015625)"/>
       </defs>
       <use xlink:href="#DejaVuSans-34"/>
       <use xlink:href="#DejaVuSans-30" x="63.623047"/>
      </g>
     </g>
    </g>
    <g id="xtick_4">
     <g id="line2d_4">
      <g>
       <use xlink:href="#m0b536a3961" x="325.730579" y="247.877344" style="stroke: #000000; stroke-width: 0.8"/>
      </g>
     </g>
     <g id="text_4">
      <!-- 60 -->
      <g transform="translate(315.550579 267.034844) scale(0.16 -0.16)">
       <defs>
        <path id="DejaVuSans-36" d="M 2113 2584 
Q 1688 2584 1439 2293 
Q 1191 2003 1191 1497 
Q 1191 994 1439 701 
Q 1688 409 2113 409 
Q 2538 409 2786 701 
Q 3034 994 3034 1497 
Q 3034 2003 2786 2293 
Q 2538 2584 2113 2584 
z
M 3366 4563 
L 3366 3988 
Q 3128 4100 2886 4159 
Q 2644 4219 2406 4219 
Q 1781 4219 1451 3797 
Q 1122 3375 1075 2522 
Q 1259 2794 1537 2939 
Q 1816 3084 2150 3084 
Q 2853 3084 3261 2657 
Q 3669 2231 3669 1497 
Q 3669 778 3244 343 
Q 2819 -91 2113 -91 
Q 1303 -91 875 529 
Q 447 1150 447 2328 
Q 447 3434 972 4092 
Q 1497 4750 2381 4750 
Q 2619 4750 2861 4703 
Q 3103 4656 3366 4563 
z
" transform="scale(0.015625)"/>
       </defs>
       <use xlink:href="#DejaVuSans-36"/>
       <use xlink:href="#DejaVuSans-30" x="63.623047"/>
      </g>
     </g>
    </g>
    <g id="xtick_5">
     <g id="line2d_5">
      <g>
       <use xlink:href="#m0b536a3961" x="404.425974" y="247.877344" style="stroke: #000000; stroke-width: 0.8"/>
      </g>
     </g>
     <g id="text_5">
      <!-- 80 -->
      <g transform="translate(394.245974 267.034844) scale(0.16 -0.16)">
       <defs>
        <path id="DejaVuSans-38" d="M 2034 2216 
Q 1584 2216 1326 1975 
Q 1069 1734 1069 1313 
Q 1069 891 1326 650 
Q 1584 409 2034 409 
Q 2484 409 2743 651 
Q 3003 894 3003 1313 
Q 3003 1734 2745 1975 
Q 2488 2216 2034 2216 
z
M 1403 2484 
Q 997 2584 770 2862 
Q 544 3141 544 3541 
Q 544 4100 942 4425 
Q 1341 4750 2034 4750 
Q 2731 4750 3128 4425 
Q 3525 4100 3525 3541 
Q 3525 3141 3298 2862 
Q 3072 2584 2669 2484 
Q 3125 2378 3379 2068 
Q 3634 1759 3634 1313 
Q 3634 634 3220 271 
Q 2806 -91 2034 -91 
Q 1263 -91 848 271 
Q 434 634 434 1313 
Q 434 1759 690 2068 
Q 947 2378 1403 2484 
z
M 1172 3481 
Q 1172 3119 1398 2916 
Q 1625 2713 2034 2713 
Q 2441 2713 2670 2916 
Q 2900 3119 2900 3481 
Q 2900 3844 2670 4047 
Q 2441 4250 2034 4250 
Q 1625 4250 1398 4047 
Q 1172 3844 1172 3481 
z
" transform="scale(0.015625)"/>
       </defs>
       <use xlink:href="#DejaVuSans-38"/>
       <use xlink:href="#DejaVuSans-30" x="63.623047"/>
      </g>
     </g>
    </g>
    <g id="xtick_6">
     <g id="line2d_6">
      <g>
       <use xlink:href="#m0b536a3961" x="483.121369" y="247.877344" style="stroke: #000000; stroke-width: 0.8"/>
      </g>
     </g>
     <g id="text_6">
      <!-- 100 -->
      <g transform="translate(467.851369 267.034844) scale(0.16 -0.16)">
       <defs>
        <path id="DejaVuSans-31" d="M 794 531 
L 1825 531 
L 1825 4091 
L 703 3866 
L 703 4441 
L 1819 4666 
L 2450 4666 
L 2450 531 
L 3481 531 
L 3481 0 
L 794 0 
L 794 531 
z
" transform="scale(0.015625)"/>
       </defs>
       <use xlink:href="#DejaVuSans-31"/>
       <use xlink:href="#DejaVuSans-30" x="63.623047"/>
       <use xlink:href="#DejaVuSans-30" x="127.246094"/>
      </g>
     </g>
    </g>
    <g id="text_7">
     <!-- Time (s) -->
     <g transform="translate(271.553672 287.279687) scale(0.17 -0.17)">
      <defs>
       <path id="DejaVuSans-54" d="M -19 4666 
L 3928 4666 
L 3928 4134 
L 2272 4134 
L 2272 0 
L 1638 0 
L 1638 4134 
L -19 4134 
L -19 4666 
z
" transform="scale(0.015625)"/>
       <path id="DejaVuSans-69" d="M 603 3500 
L 1178 3500 
L 1178 0 
L 603 0 
L 603 3500 
z
M 603 4863 
L 1178 4863 
L 1178 4134 
L 603 4134 
L 603 4863 
z
" transform="scale(0.015625)"/>
       <path id="DejaVuSans-6d" d="M 3328 2828 
Q 3544 3216 3844 3400 
Q 4144 3584 4550 3584 
Q 5097 3584 5394 3201 
Q 5691 2819 5691 2113 
L 5691 0 
L 5113 0 
L 5113 2094 
Q 5113 2597 4934 2840 
Q 4756 3084 4391 3084 
Q 3944 3084 3684 2787 
Q 3425 2491 3425 1978 
L 3425 0 
L 2847 0 
L 2847 2094 
Q 2847 2600 2669 2842 
Q 2491 3084 2119 3084 
Q 1678 3084 1418 2786 
Q 1159 2488 1159 1978 
L 1159 0 
L 581 0 
L 581 3500 
L 1159 3500 
L 1159 2956 
Q 1356 3278 1631 3431 
Q 1906 3584 2284 3584 
Q 2666 3584 2933 3390 
Q 3200 3197 3328 2828 
z
" transform="scale(0.015625)"/>
       <path id="DejaVuSans-65" d="M 3597 1894 
L 3597 1613 
L 953 1613 
Q 991 1019 1311 708 
Q 1631 397 2203 397 
Q 2534 397 2845 478 
Q 3156 559 3463 722 
L 3463 178 
Q 3153 47 2828 -22 
Q 2503 -91 2169 -91 
Q 1331 -91 842 396 
Q 353 884 353 1716 
Q 353 2575 817 3079 
Q 1281 3584 2069 3584 
Q 2775 3584 3186 3129 
Q 3597 2675 3597 1894 
z
M 3022 2063 
Q 3016 2534 2758 2815 
Q 2500 3097 2075 3097 
Q 1594 3097 1305 2825 
Q 1016 2553 972 2059 
L 3022 2063 
z
" transform="scale(0.015625)"/>
       <path id="DejaVuSans-20" transform="scale(0.015625)"/>
       <path id="DejaVuSans-28" d="M 1984 4856 
Q 1566 4138 1362 3434 
Q 1159 2731 1159 2009 
Q 1159 1288 1364 580 
Q 1569 -128 1984 -844 
L 1484 -844 
Q 1016 -109 783 600 
Q 550 1309 550 2009 
Q 550 2706 781 3412 
Q 1013 4119 1484 4856 
L 1984 4856 
z
" transform="scale(0.015625)"/>
       <path id="DejaVuSans-73" d="M 2834 3397 
L 2834 2853 
Q 2591 2978 2328 3040 
Q 2066 3103 1784 3103 
Q 1356 3103 1142 2972 
Q 928 2841 928 2578 
Q 928 2378 1081 2264 
Q 1234 2150 1697 2047 
L 1894 2003 
Q 2506 1872 2764 1633 
Q 3022 1394 3022 966 
Q 3022 478 2636 193 
Q 2250 -91 1575 -91 
Q 1294 -91 989 -36 
Q 684 19 347 128 
L 347 722 
Q 666 556 975 473 
Q 1284 391 1588 391 
Q 1994 391 2212 530 
Q 2431 669 2431 922 
Q 2431 1156 2273 1281 
Q 2116 1406 1581 1522 
L 1381 1569 
Q 847 1681 609 1914 
Q 372 2147 372 2553 
Q 372 3047 722 3315 
Q 1072 3584 1716 3584 
Q 2034 3584 2315 3537 
Q 2597 3491 2834 3397 
z
" transform="scale(0.015625)"/>
       <path id="DejaVuSans-29" d="M 513 4856 
L 1013 4856 
Q 1481 4119 1714 3412 
Q 1947 2706 1947 2009 
Q 1947 1309 1714 600 
Q 1481 -109 1013 -844 
L 513 -844 
Q 928 -128 1133 580 
Q 1338 1288 1338 2009 
Q 1338 2731 1133 3434 
Q 928 4138 513 4856 
z
" transform="scale(0.015625)"/>
      </defs>
      <use xlink:href="#DejaVuSans-54"/>
      <use xlink:href="#DejaVuSans-69" x="57.958984"/>
      <use xlink:href="#DejaVuSans-6d" x="85.742188"/>
      <use xlink:href="#DejaVuSans-65" x="183.154297"/>
      <use xlink:href="#DejaVuSans-20" x="244.677734"/>
      <use xlink:href="#DejaVuSans-28" x="276.464844"/>
      <use xlink:href="#DejaVuSans-73" x="315.478516"/>
      <use xlink:href="#DejaVuSans-29" x="367.578125"/>
     </g>
    </g>
   </g>
   <g id="matplotlib.axis_2">
    <g id="ytick_1">
     <g id="line2d_7">
      <defs>
       <path id="m3bf2c5d9f7" d="M 0 0 
L -3.5 0 
" style="stroke: #000000; stroke-width: 0.8"/>
      </defs>
      <g>
       <use xlink:href="#m3bf2c5d9f7" x="55.012813" y="224.891863" style="stroke: #000000; stroke-width: 0.8"/>
      </g>
     </g>
     <g id="text_8">
      <!-- 8 -->
      <g transform="translate(37.832813 230.970613) scale(0.16 -0.16)">
       <use xlink:href="#DejaVuSans-38"/>
      </g>
     </g>
    </g>
    <g id="ytick_2">
     <g id="line2d_8">
      <g>
       <use xlink:href="#m3bf2c5d9f7" x="55.012813" y="168.115951" style="stroke: #000000; stroke-width: 0.8"/>
      </g>
     </g>
     <g id="text_9">
      <!-- 10 -->
      <g transform="translate(27.652813 174.194701) scale(0.16 -0.16)">
       <use xlink:href="#DejaVuSans-31"/>
       <use xlink:href="#DejaVuSans-30" x="63.623047"/>
      </g>
     </g>
    </g>
    <g id="ytick_3">
     <g id="line2d_9">
      <g>
       <use xlink:href="#m3bf2c5d9f7" x="55.012813" y="111.340039" style="stroke: #000000; stroke-width: 0.8"/>
      </g>
     </g>
     <g id="text_10">
      <!-- 12 -->
      <g transform="translate(27.652813 117.418789) scale(0.16 -0.16)">
       <use xlink:href="#DejaVuSans-31"/>
       <use xlink:href="#DejaVuSans-32" x="63.623047"/>
      </g>
     </g>
    </g>
    <g id="ytick_4">
     <g id="line2d_10">
      <g>
       <use xlink:href="#m3bf2c5d9f7" x="55.012813" y="54.564127" style="stroke: #000000; stroke-width: 0.8"/>
      </g>
     </g>
     <g id="text_11">
      <!-- 14 -->
      <g transform="translate(27.652813 60.642877) scale(0.16 -0.16)">
       <use xlink:href="#DejaVuSans-31"/>
       <use xlink:href="#DejaVuSans-34" x="63.623047"/>
      </g>
     </g>
    </g>
    <g id="text_12">
     <!-- Utilization (%) -->
     <g transform="translate(20.117344 196.996719) rotate(-90) scale(0.17 -0.17)">
      <defs>
       <path id="DejaVuSans-55" d="M 556 4666 
L 1191 4666 
L 1191 1831 
Q 1191 1081 1462 751 
Q 1734 422 2344 422 
Q 2950 422 3222 751 
Q 3494 1081 3494 1831 
L 3494 4666 
L 4128 4666 
L 4128 1753 
Q 4128 841 3676 375 
Q 3225 -91 2344 -91 
Q 1459 -91 1007 375 
Q 556 841 556 1753 
L 556 4666 
z
" transform="scale(0.015625)"/>
       <path id="DejaVuSans-74" d="M 1172 4494 
L 1172 3500 
L 2356 3500 
L 2356 3053 
L 1172 3053 
L 1172 1153 
Q 1172 725 1289 603 
Q 1406 481 1766 481 
L 2356 481 
L 2356 0 
L 1766 0 
Q 1100 0 847 248 
Q 594 497 594 1153 
L 594 3053 
L 172 3053 
L 172 3500 
L 594 3500 
L 594 4494 
L 1172 4494 
z
" transform="scale(0.015625)"/>
       <path id="DejaVuSans-6c" d="M 603 4863 
L 1178 4863 
L 1178 0 
L 603 0 
L 603 4863 
z
" transform="scale(0.015625)"/>
       <path id="DejaVuSans-7a" d="M 353 3500 
L 3084 3500 
L 3084 2975 
L 922 459 
L 3084 459 
L 3084 0 
L 275 0 
L 275 525 
L 2438 3041 
L 353 3041 
L 353 3500 
z
" transform="scale(0.015625)"/>
       <path id="DejaVuSans-61" d="M 2194 1759 
Q 1497 1759 1228 1600 
Q 959 1441 959 1056 
Q 959 750 1161 570 
Q 1363 391 1709 391 
Q 2188 391 2477 730 
Q 2766 1069 2766 1631 
L 2766 1759 
L 2194 1759 
z
M 3341 1997 
L 3341 0 
L 2766 0 
L 2766 531 
Q 2569 213 2275 61 
Q 1981 -91 1556 -91 
Q 1019 -91 701 211 
Q 384 513 384 1019 
Q 384 1609 779 1909 
Q 1175 2209 1959 2209 
L 2766 2209 
L 2766 2266 
Q 2766 2663 2505 2880 
Q 2244 3097 1772 3097 
Q 1472 3097 1187 3025 
Q 903 2953 641 2809 
L 641 3341 
Q 956 3463 1253 3523 
Q 1550 3584 1831 3584 
Q 2591 3584 2966 3190 
Q 3341 2797 3341 1997 
z
" transform="scale(0.015625)"/>
       <path id="DejaVuSans-6f" d="M 1959 3097 
Q 1497 3097 1228 2736 
Q 959 2375 959 1747 
Q 959 1119 1226 758 
Q 1494 397 1959 397 
Q 2419 397 2687 759 
Q 2956 1122 2956 1747 
Q 2956 2369 2687 2733 
Q 2419 3097 1959 3097 
z
M 1959 3584 
Q 2709 3584 3137 3096 
Q 3566 2609 3566 1747 
Q 3566 888 3137 398 
Q 2709 -91 1959 -91 
Q 1206 -91 779 398 
Q 353 888 353 1747 
Q 353 2609 779 3096 
Q 1206 3584 1959 3584 
z
" transform="scale(0.015625)"/>
       <path id="DejaVuSans-6e" d="M 3513 2113 
L 3513 0 
L 2938 0 
L 2938 2094 
Q 2938 2591 2744 2837 
Q 2550 3084 2163 3084 
Q 1697 3084 1428 2787 
Q 1159 2491 1159 1978 
L 1159 0 
L 581 0 
L 581 3500 
L 1159 3500 
L 1159 2956 
Q 1366 3272 1645 3428 
Q 1925 3584 2291 3584 
Q 2894 3584 3203 3211 
Q 3513 2838 3513 2113 
z
" transform="scale(0.015625)"/>
       <path id="DejaVuSans-25" d="M 4653 2053 
Q 4381 2053 4226 1822 
Q 4072 1591 4072 1178 
Q 4072 772 4226 539 
Q 4381 306 4653 306 
Q 4919 306 5073 539 
Q 5228 772 5228 1178 
Q 5228 1588 5073 1820 
Q 4919 2053 4653 2053 
z
M 4653 2450 
Q 5147 2450 5437 2106 
Q 5728 1763 5728 1178 
Q 5728 594 5436 251 
Q 5144 -91 4653 -91 
Q 4153 -91 3862 251 
Q 3572 594 3572 1178 
Q 3572 1766 3864 2108 
Q 4156 2450 4653 2450 
z
M 1428 4353 
Q 1159 4353 1004 4120 
Q 850 3888 850 3481 
Q 850 3069 1003 2837 
Q 1156 2606 1428 2606 
Q 1700 2606 1854 2837 
Q 2009 3069 2009 3481 
Q 2009 3884 1853 4118 
Q 1697 4353 1428 4353 
z
M 4250 4750 
L 4750 4750 
L 1831 -91 
L 1331 -91 
L 4250 4750 
z
M 1428 4750 
Q 1922 4750 2215 4408 
Q 2509 4066 2509 3481 
Q 2509 2891 2217 2550 
Q 1925 2209 1428 2209 
Q 931 2209 642 2551 
Q 353 2894 353 3481 
Q 353 4063 643 4406 
Q 934 4750 1428 4750 
z
" transform="scale(0.015625)"/>
      </defs>
      <use xlink:href="#DejaVuSans-55"/>
      <use xlink:href="#DejaVuSans-74" x="73.193359"/>
      <use xlink:href="#DejaVuSans-69" x="112.402344"/>
      <use xlink:href="#DejaVuSans-6c" x="140.185547"/>
      <use xlink:href="#DejaVuSans-69" x="167.96875"/>
      <use xlink:href="#DejaVuSans-7a" x="195.751953"/>
      <use xlink:href="#DejaVuSans-61" x="248.242188"/>
      <use xlink:href="#DejaVuSans-74" x="309.521484"/>
      <use xlink:href="#DejaVuSans-69" x="348.730469"/>
      <use xlink:href="#DejaVuSans-6f" x="376.513672"/>
      <use xlink:href="#DejaVuSans-6e" x="437.695312"/>
      <use xlink:href="#DejaVuSans-20" x="501.074219"/>
      <use xlink:href="#DejaVuSans-28" x="532.861328"/>
      <use xlink:href="#DejaVuSans-25" x="571.875"/>
      <use xlink:href="#DejaVuSans-29" x="666.894531"/>
     </g>
    </g>
   </g>
   <g id="line2d_11">
    <path d="M 84.127249 90.268404 
L 84.434818 90.239312 
L 84.563163 90.490647 
L 84.574613 90.400235 
L 85.424259 90.588279 
L 85.979054 90.706467 
L 86.017166 90.789068 
L 86.087524 90.703945 
L 88.320608 90.481998 
L 89.734906 90.409211 
L 89.877309 90.208841 
L 89.937307 90.004274 
L 90.259942 90.013056 
L 90.385965 89.853726 
L 90.654572 89.667458 
L 90.671279 89.700952 
L 90.800221 89.708937 
L 90.829476 89.512427 
L 91.127071 89.258273 
L 91.191735 89.054431 
L 91.491446 88.780835 
L 91.511242 88.568088 
L 91.996789 88.297576 
L 92.303465 88.159598 
L 92.411387 87.772184 
L 92.432702 87.74207 
L 92.444152 87.492318 
L 92.950455 87.177681 
L 92.990027 87.091414 
L 93.251181 87.22013 
L 93.463533 86.762676 
L 93.586506 86.762574 
L 93.710641 86.232056 
L 93.832512 86.320589 
L 93.848594 86.24192 
L 93.957063 85.702886 
L 94.2893 85.505232 
L 94.531571 84.963053 
L 95.975085 84.815231 
L 97.604445 84.511633 
L 97.803466 83.841769 
L 97.806846 83.448096 
L 98.074229 83.238199 
L 98.129481 82.971464 
L 98.389755 82.83464 
L 99.042785 81.533165 
L 99.061274 81.194245 
L 99.321536 80.587223 
L 99.360986 80.305958 
L 99.681909 79.759898 
L 99.866328 78.902377 
L 100.124917 78.741536 
L 100.313692 77.544289 
L 100.611518 77.367825 
L 101.265269 76.545932 
L 101.58018 74.219968 
L 101.756245 73.624719 
L 101.826603 73.202198 
L 102.097571 72.944879 
L 102.458881 71.836299 
L 102.93138 71.001335 
L 103.315551 70.775957 
L 103.844624 70.239343 
L 104.215697 70.05038 
L 105.652903 69.66172 
L 105.943769 69.294055 
L 105.999021 68.893254 
L 106.690128 67.844564 
L 106.883498 67.722404 
L 106.912324 67.491665 
L 107.551449 66.955367 
L 107.735868 66.376447 
L 107.994457 66.114114 
L 108.171781 64.977115 
L 109.325585 63.724001 
L 109.696142 61.021794 
L 110.059813 60.944177 
L 110.13941 60.886114 
L 110.328421 60.264959 
L 110.800919 59.890514 
L 111.016262 59.314055 
L 111.185091 59.077975 
L 111.500372 58.9073 
L 111.714164 58.638625 
L 112.085236 58.581206 
L 112.118001 58.442687 
L 112.967648 57.813455 
L 113.86856 56.51488 
L 114.128834 56.289063 
L 114.279897 55.979583 
L 115.100065 55.630472 
L 115.420988 55.151063 
L 115.605407 54.69321 
L 115.863996 54.581813 
L 115.912083 54.359294 
L 117.072152 54.12587 
L 117.278294 53.917668 
L 117.420697 53.259414 
L 117.565682 52.68852 
L 118.008949 52.464214 
L 118.670459 51.475119 
L 118.735123 50.817662 
L 118.995384 50.57859 
L 119.05463 50.306168 
L 119.467553 50.118134 
L 119.987541 49.117887 
L 120.493843 48.966982 
L 120.533415 48.797736 
L 120.79457 48.711133 
L 120.987173 48.122174 
L 121.155526 48.015138 
L 121.18726 47.28088 
L 121.430094 47.229404 
L 121.443193 46.924642 
L 121.77142 46.792628 
L 121.864123 46.887686 
L 122.561356 46.534951 
L 122.651403 46.227105 
L 123.374897 46.022579 
L 123.733536 45.847258 
L 123.781623 45.664911 
L 125.064664 45.579747 
L 125.290237 44.993311 
L 125.350234 44.340276 
L 125.617618 44.257818 
L 125.67287 43.905797 
L 125.933143 43.785741 
L 126.084207 43.090736 
L 126.557347 42.360839 
L 126.604662 41.970627 
L 126.864924 41.685716 
L 126.92417 41.380321 
L 127.225298 41.350085 
L 127.409716 40.743971 
L 127.717285 40.595128 
L 127.85708 40.100708 
L 128.154907 40.043115 
L 128.856712 39.509943 
L 128.876461 39.242105 
L 129.025065 39.191875 
L 129.123568 38.572803 
L 129.702227 38.11348 
L 129.733662 38.212215 
L 129.813259 37.990176 
L 130.147919 37.884456 
L 130.520943 37.472821 
L 131.174221 37.592867 
L 131.388013 37.517088 
L 133.017373 37.30089 
L 133.216394 37.121392 
L 133.219774 36.878542 
L 133.247502 36.885578 
L 133.487157 36.882872 
L 133.542409 36.719059 
L 133.953746 36.491772 
L 134.426886 36.487646 
L 134.734463 36.373196 
L 134.773913 36.482367 
L 135.585932 36.528094 
L 135.586825 36.328235 
L 135.693855 36.487432 
L 135.715169 36.718416 
L 136.232922 36.679919 
L 136.272494 36.464722 
L 136.678196 36.529176 
L 136.746 36.639777 
L 136.868974 36.55927 
L 136.894605 36.390464 
L 136.993108 36.467417 
L 137.114979 36.537019 
L 137.131061 36.197344 
L 137.169173 36.333902 
L 137.239531 36.409784 
L 137.571767 36.578345 
L 137.682798 36.8823 
L 137.871809 37.222466 
L 138.017458 37.461945 
L 138.046713 37.424459 
L 138.344308 37.707777 
L 138.408972 37.476139 
L 138.728479 37.809872 
L 139.04376 37.998396 
L 139.141402 37.683709 
L 139.257552 37.867076 
L 139.661389 38.01932 
L 139.959216 38.293355 
L 140.661021 38.579634 
L 140.845617 38.353675 
L 140.861108 38.478398 
L 141.411949 38.645448 
L 141.823285 38.808648 
L 142.825818 39.240829 
L 143.148795 39.47988 
L 143.456364 39.819484 
L 143.584709 40.185627 
L 144.547736 40.670316 
L 144.61554 40.877578 
L 144.821682 40.862445 
L 144.984519 41.284425 
L 145.0006 41.053196 
L 145.024083 41.216048 
L 145.552338 41.380882 
L 145.651738 41.377656 
L 145.741348 41.574768 
L 145.916253 41.701431 
L 146.538773 42.358653 
L 146.9133 42.965972 
L 147.127091 43.309548 
L 147.498164 43.48973 
L 147.530929 43.715537 
L 148.076803 43.886467 
L 148.380575 44.213204 
L 148.530561 44.129071 
L 148.698914 44.34966 
L 148.730648 44.852311 
L 148.986581 45.028806 
L 149.692825 45.714876 
L 150.194791 45.948556 
L 150.213281 45.704756 
L 150.918285 45.924947 
L 150.945711 45.561458 
L 151.325011 45.683741 
L 152.485079 45.836331 
L 152.691222 45.784937 
L 152.712875 45.921883 
L 152.732187 45.772867 
L 152.833625 45.701448 
L 152.893622 45.455157 
L 153.310846 45.809465 
L 153.521277 45.650523 
L 153.610888 45.737321 
L 153.756537 45.699793 
L 153.785792 45.894608 
L 153.907365 45.718501 
L 154.298729 46.20757 
L 154.408312 46.152755 
L 154.447762 46.239348 
L 154.467558 46.249938 
L 154.768686 46.170605 
L 155.260674 46.443323 
L 155.389018 46.682292 
L 155.400468 46.952039 
L 156.250115 47.448543 
L 156.584696 47.940665 
L 156.788828 48.100536 
L 156.804909 47.810162 
L 156.856121 47.900034 
L 156.913379 48.055483 
L 157.095776 48.20936 
L 157.151028 48.103007 
L 157.27705 48.502144 
L 158.064331 48.633495 
L 158.08282 48.302714 
L 158.717609 48.21802 
L 158.81525 48.387837 
L 159.19455 48.393259 
L 160.582414 48.403624 
L 160.763162 48.711051 
L 161.497134 48.878693 
L 162.317302 49.344633 
L 162.337097 49.221912 
L 162.722595 49.414184 
L 162.822644 49.365322 
L 162.86617 49.538499 
L 163.130213 49.442296 
L 163.258557 49.79642 
L 163.270008 49.735968 
L 163.815882 50.233003 
L 164.119654 50.222352 
L 164.221585 50.098119 
L 164.289388 50.267119 
L 164.412362 50.131552 
L 164.437993 50.205544 
L 164.674449 50.505844 
L 164.712561 50.401227 
L 164.782919 50.316237 
L 164.965315 50.394998 
L 165.053887 50.240141 
L 165.560846 51.098672 
L 165.590101 51.114275 
L 165.843823 51.070223 
L 165.95236 51.41094 
L 166.212621 51.390169 
L 166.434436 51.534662 
L 166.587148 51.784496 
L 167.06409 51.785804 
L 167.502604 51.912324 
L 168.011807 52.323551 
L 168.430301 52.501456 
L 168.66043 52.328085 
L 169.646444 52.729223 
L 169.839814 52.542935 
L 170.999753 52.437328 
L 171.106782 52.48476 
L 171.128097 52.637963 
L 171.139547 52.571119 
L 172.158928 53.227789 
L 172.527907 53.289446 
L 172.564091 53.089209 
L 172.582101 53.276784 
L 172.652458 53.361488 
L 172.923426 53.239696 
L 173.095726 53.465104 
L 173.430386 53.470557 
L 173.459641 53.522248 
L 173.821899 53.760053 
L 174.082161 53.995234 
L 174.141407 53.972912 
L 174.67048 54.30837 
L 176.258545 54.693251 
L 176.274036 54.665047 
L 176.529969 54.611467 
L 177.236213 54.727991 
L 177.709353 55.068595 
L 177.73818 54.983931 
L 178.238745 54.993745 
L 178.921621 55.655552 
L 178.976322 55.75782 
L 179.554961 55.751009 
L 180.028467 55.774087 
L 180.275575 55.987405 
L 180.377013 56.154935 
L 180.433631 56.047581 
L 180.437011 56.021572 
L 180.45164 56.441888 
L 181.064665 56.387103 
L 181.154276 56.816088 
L 181.842117 57.025893 
L 181.99115 57.123138 
L 182.010946 57.504935 
L 182.932406 58.001816 
L 182.943856 57.981312 
L 183.241683 58.200951 
L 183.793503 58.372882 
L 184.086211 58.773907 
L 184.111842 58.688458 
L 184.128084 58.613566 
L 184.143576 58.629966 
L 184.332216 58.537542 
L 184.820439 59.135068 
L 185.031275 59.0309 
L 185.105753 59.273025 
L 185.607719 59.491316 
L 185.626209 59.833452 
L 185.88647 59.91593 
L 186.108285 59.86182 
L 186.331213 60.158372 
L 186.358638 60.246139 
L 188.125803 60.610761 
L 188.246553 60.728704 
L 188.934205 60.706218 
L 189.023815 60.65703 
L 189.169465 60.767314 
L 189.19872 60.71498 
L 189.880486 60.952183 
L 190.673601 61.204202 
L 190.813396 62.012871 
L 191.35927 61.902771 
L 191.663042 62.146682 
L 192.975292 64.791562 
L 193.495748 64.982854 
L 194.130537 65.334425 
L 194.607478 65.22073 
L 195.254468 65.487965 
L 195.995342 65.605908 
L 196.014654 65.834901 
L 196.152607 65.668443 
L 196.17609 65.800927 
L 196.203818 65.919697 
L 197.189832 66.349264 
L 197.730229 66.382666 
L 197.750025 66.464154 
L 198.235572 66.625209 
L 198.279098 67.108734 
L 198.543141 67.074566 
L 198.682935 67.318784 
L 199.634512 67.548706 
L 199.850921 68.027901 
L 200.195846 68.571827 
L 200.466814 68.641673 
L 200.559518 68.958311 
L 201.346798 69.443102 
L 201.625549 69.481528 
L 202.000076 69.841391 
L 202.606255 70.025862 
L 202.915532 70.155793 
L 203.801933 70.358511 
L 203.884193 70.573576 
L 204.073357 70.670064 
L 205.059371 71.156897 
L 205.599769 71.213888 
L 205.619565 71.336926 
L 206.105111 71.512237 
L 206.148638 71.720704 
L 206.41268 71.780156 
L 206.51971 72.194834 
L 207.058777 72.179037 
L 207.098349 72.011824 
L 207.571856 72.301208 
L 207.920401 72.626576 
L 207.977019 72.584076 
L 208.065386 72.985112 
L 208.336354 72.939518 
L 208.508653 73.133424 
L 208.697664 73.091118 
L 209.12629 73.40602 
L 209.216338 73.731205 
L 209.495088 73.893312 
L 209.855462 74.020874 
L 210.29847 74.021334 
L 210.475794 74.314097 
L 210.487245 74.293256 
L 210.785071 74.393134 
L 211.438821 74.497435 
L 212.182552 75.069146 
L 212.542823 75.125962 
L 212.649141 75.426956 
L 213.874601 75.700512 
L 213.974651 75.951092 
L 214.334548 76.124555 
L 214.389249 76.315826 
L 215.789941 76.612143 
L 215.810374 76.494813 
L 215.846558 76.446748 
L 215.864568 76.507863 
L 216.205893 76.579477 
L 216.378193 76.912269 
L 216.712853 76.995738 
L 216.742108 77.200989 
L 217.039703 77.485614 
L 217.085877 77.59403 
L 217.423874 77.660241 
L 217.952947 77.791408 
L 218.345334 77.899098 
L 219.524769 78.116082 
L 219.582307 78.494122 
L 219.812436 78.393375 
L 220.052091 78.666502 
L 220.107343 78.572709 
L 220.233366 78.779748 
L 220.444203 78.855895 
L 220.51868 79.076146 
L 221.299398 78.940201 
L 221.673925 79.14148 
L 221.84419 79.340461 
L 222.151759 79.369829 
L 222.291554 79.57268 
L 223.310935 79.504958 
L 223.719478 79.524349 
L 223.734107 79.494603 
L 225.124584 80.132842 
L 225.293413 80.189455 
L 226.214873 80.646981 
L 227.1779 80.903126 
L 227.426043 81.279624 
L 227.976883 81.55611 
L 228.38822 81.915187 
L 228.908676 81.769173 
L 230.073627 82.213046 
L 230.128328 82.305858 
L 231.386617 82.256557 
L 231.52902 82.098534 
L 231.589017 82.184913 
L 231.944972 82.115006 
L 232.006241 81.693832 
L 232.60276 81.854612 
L 232.778781 81.971953 
L 232.79613 81.89893 
L 232.994124 81.941594 
L 233.143157 81.836559 
L 233.162953 81.864661 
L 233.692026 82.055452 
L 234.084413 82.161172 
L 234.095863 82.040319 
L 234.902892 82.059343 
L 235.04744 82.444316 
L 235.095495 82.040155 
L 235.238217 82.11474 
L 235.263848 82.005089 
L 235.538416 82.053512 
L 235.608774 82.376696 
L 236.669679 82.661137 
L 236.759726 82.618218 
L 237.260291 82.654989 
L 237.48322 82.80371 
L 237.889945 82.788106 
L 237.997868 82.898646 
L 238.328459 83.041648 
L 239.214861 83.184946 
L 239.256156 83.272213 
L 239.277809 83.212609 
L 239.297121 82.841707 
L 239.398559 82.90751 
L 239.435074 82.9283 
L 239.458557 82.863906 
L 239.986811 82.883645 
L 240.086212 82.703055 
L 240.350726 82.813319 
L 240.973246 82.894061 
L 241.032492 82.677516 
L 241.33362 82.748721 
L 241.445415 82.655388 
L 241.518039 82.758994 
L 241.561565 82.430469 
L 241.825608 82.44644 
L 241.965402 81.99646 
L 242.815049 81.598447 
L 242.916979 81.607984 
L 242.965035 81.420358 
L 243.478314 81.885278 
L 243.749282 81.714511 
L 243.81055 81.570845 
L 243.841985 81.768213 
L 244.052821 81.792108 
L 244.110592 81.918261 
L 244.127299 81.700194 
L 245.352759 81.869491 
L 246.197999 81.65075 
L 246.919553 81.713459 
L 247.099891 81.854357 
L 247.147349 81.439546 
L 247.328096 81.418959 
L 247.59548 81.555998 
L 248.220266 81.575665 
L 248.341839 81.260099 
L 248.842786 81.174803 
L 248.882236 80.779005 
L 248.902032 80.792546 
L 249.314954 80.972166 
L 249.431105 80.322224 
L 249.802177 80.444068 
L 249.823492 80.129319 
L 250.380817 80.082826 
L 250.684589 79.801969 
L 251.259486 78.307731 
L 251.277495 77.927884 
L 251.347853 77.981004 
L 251.618821 77.994953 
L 251.791121 77.645884 
L 251.996838 76.560065 
L 252.45263 76.516022 
L 252.498805 76.216693 
L 252.99937 76.358469 
L 253.629024 75.666753 
L 253.769712 75.682499 
L 254.067538 75.145425 
L 255.016888 75.231447 
L 255.197636 74.477532 
L 255.225364 74.174322 
L 255.465019 74.316569 
L 255.614859 73.722801 
L 255.646294 73.812059 
L 255.825291 73.579207 
L 256.211378 73.471373 
L 256.404748 72.964832 
L 256.452064 72.987553 
L 257.671717 71.765798 
L 258.846836 71.297949 
L 259.129025 71.055017 
L 259.217393 70.514492 
L 259.66066 69.947162 
L 260.278297 69.430552 
L 260.368344 68.845444 
L 260.537512 68.76511 
L 260.647095 68.294411 
L 260.86891 68.146742 
L 261.007469 68.287763 
L 261.450477 67.9897 
L 261.639251 67.436543 
L 262.44628 67.07669 
L 262.638883 66.818911 
L 262.807236 66.322112 
L 262.823479 66.565155 
L 262.83897 66.628252 
L 263.027611 65.822759 
L 263.043692 65.846695 
L 263.094904 65.679431 
L 264.080917 64.675712 
L 264.321603 64.842323 
L 265.026608 64.363721 
L 265.541256 64.267232 
L 265.871848 64.215072 
L 266.941948 63.013352 
L 267.086932 62.379801 
L 267.5302 62.208105 
L 267.71921 61.852857 
L 267.86486 61.903189 
L 268.191709 61.64396 
L 268.209058 61.538741 
L 268.407051 61.076314 
L 269.508791 60.16314 
L 270.31582 59.878117 
L 270.508423 59.514251 
L 271.519623 58.638677 
L 271.670687 58.39258 
L 272.191143 58.313185 
L 272.451404 57.870047 
L 272.51065 57.412256 
L 272.673219 57.109332 
L 272.825931 57.364272 
L 272.896147 57.186878 
L 273.741387 56.980483 
L 274.462941 56.879593 
L 274.871484 56.122748 
L 274.899213 55.874057 
L 275.138868 55.73757 
L 275.288708 55.453527 
L 275.734399 55.312987 
L 275.885227 54.96744 
L 276.078597 54.774402 
L 276.276591 54.973536 
L 276.425624 54.7376 
L 276.930967 54.612713 
L 276.974493 54.501387 
L 277.290864 54.4238 
L 277.37833 54.209492 
L 277.884633 54.102424 
L 277.924205 53.903637 
L 278.329907 53.645051 
L 278.546315 53.1752 
L 278.820884 52.952395 
L 278.891241 52.73197 
L 279.334509 52.626506 
L 279.540226 51.941325 
L 279.952146 51.824301 
L 279.996018 52.147168 
L 280.060682 51.974165 
L 280.542759 51.811077 
L 280.695471 51.579787 
L 281.124325 51.698066 
L 281.172412 51.568227 
L 281.280335 51.615425 
L 282.332481 51.289668 
L 282.560276 50.87308 
L 282.717541 50.966699 
L 282.768752 50.703926 
L 283.008407 50.619406 
L 283.063659 50.847653 
L 283.158247 50.597349 
L 283.189682 50.99813 
L 283.633194 50.95757 
L 283.754766 51.286206 
L 283.948137 51.267642 
L 284.700457 50.777173 
L 284.727882 50.827271 
L 284.800506 50.77945 
L 284.844032 50.704815 
L 285.236419 50.444759 
L 285.24787 50.03733 
L 285.754172 50.145991 
L 285.793744 49.838727 
L 286.473393 49.550814 
L 286.514358 49.872384 
L 286.690423 49.526275 
L 286.760781 49.336913 
L 287.303448 49.12915 
L 287.409766 48.73225 
L 287.821685 48.675198 
L 287.865558 48.956801 
L 288.550857 48.604678 
L 288.56501 48.412681 
L 289.041952 48.345173 
L 289.989669 48.177327 
L 290.032286 48.410527 
L 290.382359 48.176449 
L 290.429816 48.495108 
L 290.587081 48.401009 
L 290.638292 48.267259 
L 290.933199 48.71632 
L 291.059222 48.777068 
L 291.864992 48.755165 
L 292.164703 48.881154 
L 292.184499 49.158876 
L 292.569996 49.283855 
L 292.597421 49.67088 
L 293.084644 49.776539 
L 293.415236 50.045091 
L 293.623712 49.910411 
L 293.663284 49.738766 
L 294.068986 49.858588 
L 294.485336 50.738819 
L 294.545333 50.343849 
L 294.559963 50.224323 
L 294.63032 50.363026 
L 294.901288 50.118848 
L 295.073588 50.656913 
L 295.128242 50.567848 
L 295.172988 50.482929 
L 295.262598 50.940108 
L 295.437503 50.782371 
L 295.735097 50.637919 
L 296.060023 50.402503 
L 296.420397 50.399338 
L 296.43455 50.761703 
L 296.604815 50.641728 
L 296.648342 51.067323 
L 296.863404 51.321344 
L 296.911491 51.16326 
L 297.052179 51.60506 
L 297.901826 51.578173 
L 298.051811 51.372115 
L 298.194533 51.461282 
L 298.299355 51.957592 
L 298.318667 51.880801 
L 298.45662 52.293478 
L 298.507831 52.267347 
L 298.802738 52.68319 
L 299.139598 52.460753 
L 299.214075 52.616886 
L 299.343018 52.540229 
L 299.734531 52.678033 
L 300.216607 52.478 
L 300.466961 52.764381 
L 300.847154 52.798661 
L 300.954184 53.200085 
L 301.284775 53.54745 
L 302.354875 53.517091 
L 302.411493 53.986033 
L 302.863531 54.306981 
L 303.042527 54.974006 
L 303.132138 54.843319 
L 303.604637 55.007612 
L 303.621985 55.239842 
L 304.289936 55.584214 
L 304.474355 55.818364 
L 304.517881 56.168332 
L 304.834252 55.834937 
L 304.921718 56.460595 
L 305.467593 56.39611 
L 306.089704 56.737 
L 306.168895 56.918101 
L 306.188207 56.898924 
L 307.241812 56.99771 
L 308.238859 57.558229 
L 308.309075 57.532149 
L 308.3365 57.688415 
L 308.823723 57.605723 
L 309.154315 57.690641 
L 310.040716 57.72196 
L 310.056207 57.592019 
L 310.082011 57.655922 
L 310.224415 57.59062 
L 310.31214 57.922207 
L 310.551795 58.018737 
L 310.701635 57.779318 
L 310.73307 57.943978 
L 311.491525 58.204892 
L 311.689518 58.15891 
L 312.343894 58.346056 
L 312.387421 58.59344 
L 312.779808 58.747541 
L 313.29756 58.6659 
L 313.337132 58.510461 
L 313.598287 58.846521 
L 313.810639 58.768424 
L 314.057746 59.006985 
L 314.219182 59.122957 
L 314.304169 59.883243 
L 314.878677 60.295665 
L 314.936447 60.255269 
L 315.111352 60.457201 
L 315.365073 60.445539 
L 315.408946 60.670162 
L 315.455121 60.592554 
L 316.178615 60.455781 
L 316.20604 60.216771 
L 316.693263 60.345099 
L 316.726028 60.526945 
L 317.575674 60.409268 
L 317.894013 60.552147 
L 317.910256 60.513211 
L 317.951551 60.699254 
L 317.973204 60.747126 
L 318.130469 60.650739 
L 319.361064 61.112115 
L 319.40838 61.005048 
L 319.559058 61.07519 
L 319.708091 60.942339 
L 319.727887 61.01145 
L 320.213434 61.219979 
L 321.1671 61.209237 
L 321.206672 60.989894 
L 322.085341 61.021702 
L 322.11645 60.831544 
L 322.173708 60.937447 
L 322.616976 61.036795 
L 322.716376 60.868622 
L 322.980891 61.167359 
L 323.234613 61.152502 
L 323.278486 61.527896 
L 323.32466 61.518706 
L 323.603411 61.476247 
L 323.825226 61.567068 
L 323.977938 61.482874 
L 324.19173 61.67676 
L 324.454879 61.642827 
L 324.595567 61.771859 
L 325.402596 61.644532 
L 325.445214 61.504236 
L 325.595199 61.486162 
L 325.763552 61.348634 
L 325.779795 61.370445 
L 326.023491 61.733301 
L 326.290874 61.677035 
L 326.346126 61.549718 
L 326.886406 61.664863 
L 327.037233 62.004814 
L 327.230604 61.936213 
L 327.277919 62.042372 
L 327.597427 62.086618 
L 328.390542 62.011401 
L 328.518887 62.192358 
L 329.076211 62.269557 
L 329.672691 62.224586 
L 329.75586 62.302387 
L 330.486515 62.356478 
L 330.85043 62.326476 
L 331.104152 62.483315 
L 331.148025 62.361543 
L 331.363367 62.463678 
L 331.47295 62.308065 
L 331.833324 62.308872 
L 331.847478 62.171701 
L 332.017743 62.356212 
L 332.061269 62.229702 
L 332.324419 62.19485 
L 332.465107 62.052635 
L 333.314753 62.019529 
L 333.464739 62.077837 
L 333.484487 61.895592 
L 335.147459 62.922123 
L 335.466966 62.850448 
L 336.367111 63.446126 
L 336.945751 63.326192 
L 337.82442 63.408588 
L 338.245024 63.344378 
L 338.276458 63.561475 
L 338.487295 63.350893 
L 339.034913 63.454908 
L 339.702864 63.421884 
L 340.334646 63.79927 
L 341.477 63.668573 
L 341.601134 63.754697 
L 341.76257 63.805958 
L 341.790298 63.558115 
L 341.847557 63.628472 
L 342.118525 63.553428 
L 342.479835 63.391913 
L 342.65474 63.373512 
L 342.998509 63.563088 
L 343.016998 63.36183 
L 343.499074 63.287592 
L 343.722003 63.376034 
L 343.749428 63.185906 
L 345.269048 62.895614 
L 345.469135 62.928199 
L 345.516592 63.093901 
L 345.964723 62.95868 
L 346.356835 63.181893 
L 346.431312 63.15903 
L 346.560254 63.24788 
L 346.904452 63.241855 
L 347.800348 63.518546 
L 348.192735 63.488013 
L 348.710488 63.43476 
L 348.75006 63.231276 
L 349.155762 63.380088 
L 349.223566 63.497592 
L 349.646739 63.396825 
L 349.659838 63.250014 
L 349.717097 63.415726 
L 350.868048 63.828628 
L 351.591542 63.541808 
L 351.691592 63.842751 
L 351.950181 63.96293 
L 351.998268 63.842475 
L 352.138955 64.002887 
L 353.338674 63.886936 
L 353.386132 63.986048 
L 353.527315 63.930447 
L 353.543397 63.785668 
L 353.566879 63.801537 
L 353.889515 63.82484 
L 354.429794 64.025036 
L 354.773992 64.13724 
L 354.821307 64.008503 
L 355.121019 63.896749 
L 355.140815 63.982137 
L 355.553737 63.88473 
L 355.669888 64.007166 
L 356.580028 63.991869 
L 356.6196 63.82484 
L 356.880754 63.797187 
L 357.216079 63.911178 
L 357.299248 63.935318 
L 357.441652 64.13096 
L 357.586636 64.120095 
L 358.393819 64.966607 
L 358.691413 65.159707 
L 359.016339 65.073021 
L 359.561131 65.093557 
L 359.867807 65.020687 
L 360.008495 64.859233 
L 360.858141 64.825699 
L 360.960072 64.934257 
L 361.17648 64.843446 
L 361.192723 64.93148 
L 361.255671 64.948635 
L 361.412936 65.17773 
L 361.436419 65.138436 
L 361.464147 65.036995 
L 362.170391 65.200471 
L 362.299333 65.103513 
L 362.450161 65.357381 
L 362.990558 65.309325 
L 363.010354 65.409847 
L 363.172923 65.495522 
L 363.423277 65.401127 
L 363.931814 65.636737 
L 364.489139 65.534744 
L 365.209753 65.389537 
L 365.331624 65.511462 
L 365.727143 65.368552 
L 365.788412 65.199807 
L 365.819847 65.356196 
L 366.263358 65.3501 
L 367.474197 65.825159 
L 367.790568 65.524155 
L 367.878034 65.388628 
L 368.727681 65.414177 
L 368.897415 65.61322 
L 369.062262 65.43751 
L 369.125211 65.494215 
L 369.305958 65.519876 
L 369.320588 65.611575 
L 369.333687 65.476283 
L 369.390945 65.480399 
L 369.628594 65.302218 
L 370.45185 65.399758 
L 370.541897 65.373443 
L 370.560386 65.439828 
L 371.265391 65.464846 
L 371.780039 65.667412 
L 373.508111 65.396164 
L 373.689386 65.463642 
L 373.900223 65.331975 
L 374.103643 65.400861 
L 374.25447 65.657333 
L 374.447841 65.772662 
L 374.755418 65.543393 
L 374.814663 65.753679 
L 375.115791 65.876074 
L 375.227586 65.782638 
L 375.343736 65.959011 
L 376.59722 65.926794 
L 376.99475 66.228493 
L 377.1155 66.074718 
L 377.172118 66.034015 
L 377.175498 66.094661 
L 377.190127 66.179978 
L 377.260485 66.159116 
L 377.758406 65.998315 
L 377.892763 65.920351 
L 378.067667 66.025355 
L 379.649579 65.88024 
L 380.681976 65.638963 
L 381.377651 65.862748 
L 381.558926 65.597228 
L 381.84424 65.461017 
L 382.12401 65.347343 
L 382.300032 65.474119 
L 382.31738 65.429862 
L 382.664407 65.306813 
L 382.684203 65.410429 
L 383.477319 65.371227 
L 383.529647 65.210223 
L 383.605663 65.287789 
L 384.162988 65.377497 
L 384.56869 65.634704 
L 384.759467 65.780229 
L 385.041657 65.280529 
L 385.130024 65.502006 
L 385.46226 65.294029 
L 385.762302 64.997507 
L 386.190929 65.185685 
L 386.280976 65.106974 
L 387.104519 65.075564 
L 387.551883 64.874193 
L 388.40153 64.804581 
L 388.551515 64.605498 
L 388.799059 64.735133 
L 389.24719 64.607387 
L 389.302442 64.358625 
L 389.639302 64.236444 
L 389.842722 64.449967 
L 390.533947 63.803242 
L 390.553742 63.980636 
L 390.93924 63.850756 
L 390.966665 63.964941 
L 391.346858 63.836573 
L 391.475202 63.57188 
L 392.032527 63.176216 
L 392.43823 63.128896 
L 392.753141 62.735457 
L 392.875013 62.8457 
L 392.911197 62.802557 
L 392.929206 62.688617 
L 393.270532 62.759913 
L 393.542231 62.156965 
L 393.631842 62.174407 
L 393.648549 61.955881 
L 393.806746 62.067523 
L 394.429266 62.182106 
L 395.017585 61.897675 
L 395.232648 61.681334 
L 395.280735 61.396189 
L 395.421422 61.452046 
L 396.271069 61.233591 
L 396.60565 60.90134 
L 396.849346 60.239451 
L 397.11673 60.219692 
L 397.171982 59.972614 
L 398.056459 59.794352 
L 398.103775 59.509564 
L 398.254453 59.540586 
L 398.836204 59.135241 
L 399.268726 58.868333 
L 399.323427 58.815192 
L 399.344742 58.507449 
L 399.654019 58.336447 
L 399.902067 58.480827 
L 400.744552 58.201083 
L 400.811844 57.806787 
L 401.312371 57.434353 
L 401.367025 57.155539 
L 401.97388 56.949368 
L 402.298806 57.109291 
L 402.358052 56.962041 
L 403.102187 56.584318 
L 403.150274 56.301919 
L 403.290962 56.339609 
L 404.097991 56.228008 
L 404.310343 55.930231 
L 404.47519 55.908552 
L 404.516485 55.751233 
L 404.718886 55.50917 
L 404.803873 55.294953 
L 405.136109 55.193553 
L 405.346541 55.256629 
L 405.378381 55.398151 
L 405.436151 55.233786 
L 405.611056 55.307064 
L 405.864777 55.228221 
L 406.123992 54.640846 
L 406.608103 54.379707 
L 407.085937 54.441466 
L 407.214281 54.148927 
L 407.523558 54.034814 
L 407.771606 53.806903 
L 408.393717 53.804943 
L 408.425451 53.779435 
L 408.472908 53.520257 
L 409.236564 52.802777 
L 409.667398 52.780791 
L 409.84342 52.598455 
L 410.528719 52.47753 
L 410.713138 52.658713 
L 411.019814 52.266887 
L 411.160501 52.342718 
L 411.967531 52.385647 
L 412.010148 52.201963 
L 412.112078 52.250478 
L 412.302856 52.092955 
L 412.528428 52.167662 
L 412.673412 51.388964 
L 413.21608 51.577714 
L 413.305691 51.73444 
L 413.322398 51.710157 
L 413.734317 51.657067 
L 414.103115 51.130644 
L 414.32493 50.958703 
L 414.955477 50.760917 
L 415.062506 50.976553 
L 415.083821 50.754739 
L 415.393098 50.554818 
L 416.094903 50.728944 
L 416.84583 50.12763 
L 416.87915 49.888161 
L 417.106104 49.901129 
L 417.38611 49.705967 
L 417.712959 49.672882 
L 417.730308 49.463679 
L 418.097131 49.423098 
L 418.398258 49.37972 
L 418.510053 49.765633 
L 418.582677 49.864307 
L 419.030041 49.398918 
L 419.575915 49.603709 
L 419.981618 49.611776 
L 420.049422 49.684411 
L 420.255564 49.695337 
L 420.397967 49.843771 
L 420.454585 49.612501 
L 420.472594 49.713125 
L 420.906623 49.959876 
L 421.471707 50.332167 
L 421.972654 50.082873 
L 422.194469 49.942516 
L 422.932046 50.073673 
L 423.814457 50.054986 
L 423.964443 50.177422 
L 424.392735 49.895064 
L 424.420463 50.038749 
L 425.255649 50.210394 
L 425.284904 50.053791 
L 425.582499 50.052831 
L 425.647163 49.754962 
L 425.797841 49.578691 
L 425.946874 49.77321 
L 425.96667 49.989019 
L 426.379593 50.318912 
L 426.759786 50.449772 
L 426.88813 50.869567 
L 427.405883 51.358432 
L 427.445455 51.127897 
L 427.851157 51.179731 
L 427.918961 51.510348 
L 428.099299 51.41868 
L 428.125104 51.55434 
L 428.166069 51.344647 
L 428.65014 51.332117 
L 428.683459 51.153763 
L 428.744728 51.198316 
L 428.776163 51.497778 
L 429.341247 51.95267 
L 429.563443 51.973654 
L 430.064009 51.9295 
L 430.430513 52.531202 
L 430.83435 52.383033 
L 431.683997 52.456209 
L 432.002335 52.865863 
L 432.018578 53.129646 
L 432.22271 53.404867 
L 432.347261 53.904423 
L 432.790529 54.382995 
L 433.154444 54.396536 
L 433.816414 54.674564 
L 433.83621 54.914452 
L 434.221707 54.96215 
L 434.249132 55.176704 
L 434.628432 55.2697 
L 434.736355 55.812053 
L 435.275422 56.11176 
L 435.314994 55.954075 
L 435.576149 55.948581 
L 435.720697 56.158427 
L 435.968839 56.247624 
L 436.035608 56.749376 
L 436.211673 57.03153 
L 436.224772 57.180843 
L 436.552999 57.355725 
L 436.824699 58.197734 
L 436.931016 58.583892 
L 437.711733 59.197429 
L 438.086261 59.37224 
L 438.256526 59.670191 
L 438.300052 59.988524 
L 438.515115 59.897917 
L 438.70389 59.662644 
L 439.703522 59.94923 
L 439.846244 60.372292 
L 439.871875 60.451605 
L 439.951066 60.364215 
L 440.092249 60.680965 
L 440.216801 61.197054 
L 440.399197 61.403572 
L 441.023983 61.597233 
L 441.685953 62.414448 
L 441.705749 62.651375 
L 441.868318 62.896186 
L 442.498865 63.169466 
L 442.605894 63.401287 
L 442.627209 63.350066 
L 443.184534 63.810768 
L 443.864183 64.305423 
L 443.905148 64.458677 
L 444.063203 64.600311 
L 444.081213 64.864176 
L 444.094312 64.760335 
L 444.422538 64.920839 
L 444.649492 65.613465 
L 444.800556 65.965281 
L 445.302522 66.276262 
L 445.9558 66.380348 
L 446.169592 67.138684 
L 446.384655 67.24133 
L 446.432741 67.395707 
L 446.573429 67.312535 
L 447.423076 67.511414 
L 447.715783 67.898624 
L 447.820605 67.849884 
L 447.97787 68.361551 
L 448.08634 68.582569 
L 448.718618 68.727531 
L 449.516043 69.875171 
L 449.737857 70.313111 
L 450.368404 70.487044 
L 450.475434 70.814628 
L 451.054073 70.938943 
L 451.676184 71.489016 
L 451.707918 71.165679 
L 451.932743 71.310294 
L 451.950752 71.715987 
L 451.963851 71.616925 
L 452.258758 71.680318 
L 452.292078 71.586822 
L 452.670095 72.425849 
L 452.949865 72.917196 
L 453.811186 72.8923 
L 454.039131 73.308551 
L 454.254194 73.443333 
L 454.442969 73.762064 
L 455.292615 73.965314 
L 455.668492 74.538485 
L 455.690145 74.389029 
L 455.810895 74.545071 
L 455.831328 74.766599 
L 455.84741 74.589838 
L 455.95588 74.774901 
L 456.763062 75.012329 
L 457.760109 76.267413 
L 458.237944 76.339333 
L 458.675565 76.540775 
L 459.802282 76.62985 
L 459.805662 76.795246 
L 459.833391 76.715718 
L 460.073046 76.726379 
L 460.161617 76.521833 
L 460.333917 76.483029 
L 460.668577 76.804783 
L 461.041601 77.057681 
L 461.06009 76.819243 
L 462.123733 77.177503 
L 462.279743 77.084731 
L 462.312508 77.203716 
L 462.858383 77.265199 
L 463.454862 77.857558 
L 463.680435 77.303472 
L 463.700868 77.497082 
L 463.716949 77.412704 
L 464.457697 77.407118 
L 464.474404 77.584625 
L 464.886324 77.999538 
L 465.476936 78.406803 
L 466.545104 78.418965 
L 468.538116 78.797618 
L 468.92963 78.741383 
L 469.550265 78.951883 
L 469.66206 78.80258 
L 470.149283 78.998416 
L 470.182047 79.16323 
L 471.381767 79.045931 
L 471.6377 78.787702 
L 472.755863 78.895852 
L 473.124661 79.150272 
L 475.629728 79.005125 
L 476.407656 79.000755 
L 476.751854 79.233383 
L 476.799169 79.034657 
L 477.118677 79.259004 
L 477.419805 79.267806 
L 477.531599 79.510942 
L 478.051587 79.736238 
L 478.597462 79.622798 
L 479.507239 79.725761 
L 485.401139 79.837709 
L 485.888362 80.130534 
L 485.921126 80.325788 
L 488.24122 80.334795 
L 491.103073 80.085788 
L 494.990385 80.280337 
L 496.473018 80.466401 
L 501.140218 80.759603 
L 503.115858 80.957073 
L 504.342558 80.962118 
L 506.999416 80.932249 
L 512.212097 81.081224 
L 512.944527 81.136081 
L 514.664234 81.140216 
L 514.711691 81.020364 
L 514.868956 81.225881 
L 520.081637 81.219274 
L 522.581231 81.086616 
L 522.738495 81.191989 
L 534.38554 81.062497 
L 534.38554 81.062497 
" clip-path="url(#p040918b099)" style="fill: none; stroke: #009384; stroke-opacity: 0.4; stroke-width: 2.5; stroke-linecap: square"/>
   </g>
   <g id="line2d_12">
    <path d="M 85.804933 237.722699 
L 86.108713 237.797344 
L 86.120564 237.743978 
L 86.25775 237.655427 
L 89.112118 237.490275 
L 89.697231 236.920843 
L 89.906482 236.408775 
L 89.983997 236.499968 
L 90.022231 236.428927 
L 90.407716 236.275159 
L 90.464794 235.975503 
L 90.705201 236.009955 
L 90.840682 236.039791 
L 90.966914 235.755897 
L 91.015162 235.643004 
L 91.026577 235.458093 
L 91.07791 235.464362 
L 91.180623 235.271297 
L 91.471615 235.520449 
L 91.483187 235.390404 
L 91.539025 235.260015 
L 92.136815 235.365465 
L 92.211765 234.952056 
L 92.479313 234.740423 
L 92.519464 234.201171 
L 93.237355 233.991738 
L 93.428459 233.41601 
L 93.664025 233.287572 
L 93.674472 233.093398 
L 94.127289 232.657341 
L 94.177741 232.519325 
L 96.981658 232.188471 
L 97.21074 232.04422 
L 97.853536 230.91076 
L 98.296867 230.571389 
L 98.334333 230.251922 
L 98.487624 230.300235 
L 99.050162 229.160916 
L 99.341154 229.000112 
L 99.408565 228.77024 
L 100.006355 228.542447 
L 100.081304 228.116089 
L 100.348853 227.63062 
L 100.389003 227.212931 
L 100.748193 227.030194 
L 100.780611 226.816152 
L 101.056832 226.775 
L 101.167021 226.15322 
L 101.544012 225.209617 
L 101.567719 224.972135 
L 101.847792 224.746447 
L 101.935277 224.44513 
L 102.047281 224.197002 
L 103.338873 224.045388 
L 105.227767 223.879692 
L 106.203873 223.577372 
L 106.357164 223.631945 
L 106.518442 223.433978 
L 106.754241 223.117486 
L 106.816989 222.97187 
L 107.210694 222.783668 
L 107.278104 222.663328 
L 107.807296 222.624767 
L 108.227804 221.521756 
L 108.258543 221.273642 
L 108.4387 221.287852 
L 108.617732 221.120522 
L 108.650151 220.855899 
L 108.92878 220.680872 
L 109.185098 219.679333 
L 109.371079 219.566827 
L 109.58033 218.358032 
L 110.104284 217.042953 
L 110.514531 216.91181 
L 110.529216 216.740831 
L 110.854472 216.470261 
L 111.208412 216.117972 
L 112.971331 216.090732 
L 114.387981 215.808186 
L 114.635195 215.338548 
L 115.676835 215.1993 
L 116.097344 213.962854 
L 116.128082 213.702092 
L 116.487272 213.531602 
L 116.655507 213.180461 
L 116.884589 212.92251 
L 116.890302 212.781874 
L 117.032076 212.31885 
L 117.054638 211.924821 
L 117.240619 211.727302 
L 117.786359 208.725395 
L 117.951104 208.595234 
L 118.008182 207.789903 
L 118.384071 207.531552 
L 118.398755 207.401479 
L 118.55855 207.305086 
L 119.026575 206.547405 
L 119.082414 205.913449 
L 120.243009 205.629241 
L 120.780743 205.189718 
L 120.84087 204.980266 
L 122.949773 204.703353 
L 123.928917 204.266736 
L 124.356811 203.893644 
L 124.525046 203.03329 
L 124.754128 202.617536 
L 124.759842 202.243785 
L 124.901615 201.859022 
L 124.924177 201.457378 
L 125.110158 201.156102 
L 125.319409 199.102251 
L 125.840255 196.655472 
L 125.877722 195.707067 
L 126.192291 194.85449 
L 126.896115 190.933679 
L 126.951953 190.195932 
L 127.481144 189.847301 
L 128.112549 186.069813 
L 128.60022 185.602422 
L 128.71041 184.761215 
L 129.0874 183.71466 
L 129.39118 183.332004 
L 129.590669 182.595338 
L 132.623668 182.145469 
L 132.979698 181.112372 
L 133.133193 180.885812 
L 133.188949 180.12032 
L 133.266464 179.795981 
L 133.690183 179.258631 
L 133.747261 178.121385 
L 134.06183 177.395101 
L 134.46309 174.723393 
L 134.754082 174.313223 
L 134.821493 173.761426 
L 135.350684 173.282529 
L 135.602533 171.487032 
L 135.761781 170.915811 
L 135.801931 170.064956 
L 136.16112 169.438402 
L 136.193539 169.080075 
L 136.46976 168.694195 
L 136.579949 167.716688 
L 137.460208 164.611301 
L 138.7518 164.190354 
L 141.857207 163.876377 
L 142.11892 163.288879 
L 142.178583 163.185613 
L 142.229916 163.268049 
L 142.623622 163.289052 
L 142.691032 162.728018 
L 143.220223 162.593114 
L 143.851628 161.061583 
L 144.198895 160.611422 
L 144.339299 160.414097 
L 144.341707 160.435702 
L 144.389361 160.625342 
L 144.427977 160.446087 
L 144.43369 160.266663 
L 144.559796 160.206179 
L 144.598026 159.667846 
L 144.816032 159.181227 
L 144.937502 158.768463 
L 145.070773 158.668192 
L 145.279296 157.715163 
L 145.514103 157.386178 
L 145.517212 157.120501 
L 145.704861 157.123517 
L 145.942143 156.864224 
L 146.62134 156.230613 
L 147.575502 155.905558 
L 149.800909 155.619784 
L 149.98846 155.392964 
L 150.048123 155.067425 
L 151.089763 154.805133 
L 151.165731 154.271629 
L 151.900199 153.901828 
L 152.068434 153.305415 
L 152.297517 153.08377 
L 152.30323 152.892361 
L 152.445004 152.922281 
L 152.467566 152.764174 
L 152.685571 152.320773 
L 152.862797 151.673259 
L 152.940312 151.63785 
L 153.087284 150.894708 
L 153.661516 149.604742 
L 153.811683 149.541628 
L 154.439503 148.928565 
L 154.495341 148.482702 
L 155.276381 148.008252 
L 155.445041 147.58013 
L 155.47578 147.204284 
L 156.253798 146.857346 
L 156.384774 146.561108 
L 157.083605 145.951866 
L 160.167056 145.970309 
L 160.314543 145.728899 
L 160.337105 145.791533 
L 160.732337 146.101257 
L 160.956823 146.569609 
L 161.253182 146.657356 
L 161.290649 146.473823 
L 161.44394 146.609577 
L 161.531056 146.384712 
L 161.681222 146.839997 
L 161.830681 146.932472 
L 161.852432 146.855298 
L 161.903765 147.071475 
L 162.006478 147.120525 
L 162.364881 147.449064 
L 162.962671 147.752528 
L 162.97004 147.578351 
L 163.03762 147.677241 
L 163.145921 147.768108 
L 163.276614 147.699585 
L 163.345319 148.020346 
L 164.107539 148.253077 
L 164.123337 148.426971 
L 164.254314 148.455806 
L 165.003596 149.165866 
L 165.191061 149.403552 
L 166.295188 149.673483 
L 168.036596 149.908169 
L 168.168414 150.121598 
L 168.184083 150.582638 
L 168.392625 150.722403 
L 168.679391 151.257915 
L 169.103111 151.431453 
L 169.160189 151.758997 
L 169.474758 152.686281 
L 169.662309 152.97095 
L 169.773305 154.078479 
L 170.23442 154.894442 
L 170.83221 154.999191 
L 170.90716 155.272408 
L 171.882687 157.235263 
L 171.992877 158.69492 
L 172.123853 158.825424 
L 172.141414 159.226256 
L 172.369867 159.643372 
L 172.393574 159.793979 
L 172.673647 159.939728 
L 172.873136 161.226534 
L 173.470847 161.738617 
L 173.485532 162.230114 
L 174.164728 162.808133 
L 176.037954 163.086575 
L 176.053622 163.432018 
L 176.415841 164.091608 
L 176.548931 164.814041 
L 176.992261 165.147165 
L 177.029728 165.57449 
L 177.591511 167.336912 
L 177.642844 167.707315 
L 177.973849 167.969486 
L 178.10396 168.612107 
L 178.633151 168.777946 
L 179.015693 169.662485 
L 179.084398 170.381123 
L 179.752227 171.424436 
L 179.846618 173.013548 
L 180.239406 174.133526 
L 180.263113 174.433988 
L 180.521935 174.373352 
L 180.692224 175.901343 
L 180.93014 176.628712 
L 181.340387 176.983263 
L 181.355071 177.180246 
L 181.680327 177.489221 
L 182.034267 177.725129 
L 183.797186 178.078024 
L 185.139674 178.137601 
L 185.213837 178.525151 
L 185.461051 178.839767 
L 185.843388 178.858881 
L 185.906089 179.061111 
L 186.50269 179.050624 
L 186.754539 179.645447 
L 187.481362 180.856146 
L 187.624174 181.017633 
L 187.716158 181.669346 
L 187.842263 181.828939 
L 187.880493 182.209051 
L 188.098499 182.207802 
L 188.35324 183.291689 
L 188.834037 184.900147 
L 189.209926 185.517283 
L 189.374069 185.66874 
L 189.447153 186.152444 
L 189.549867 186.41999 
L 189.852431 186.537182 
L 189.908269 186.910727 
L 190.820002 187.008405 
L 191.068865 187.128958 
L 191.666725 187.431702 
L 191.797702 187.713882 
L 192.496533 187.952964 
L 192.546985 188.265581 
L 193.33059 188.918784 
L 193.775628 189.338601 
L 194.448198 189.902713 
L 195.182666 190.921407 
L 195.215085 191.186408 
L 195.350901 191.321478 
L 195.579984 191.302674 
L 195.585697 191.483043 
L 195.711803 191.756629 
L 195.750033 192.34217 
L 195.936014 192.335054 
L 196.145265 193.580782 
L 196.22278 193.633093 
L 196.369751 194.885565 
L 196.66611 195.095245 
L 196.856868 195.408873 
L 197.243608 195.682132 
L 197.316693 196.262633 
L 197.419406 196.590684 
L 197.647697 196.749424 
L 197.773346 197.555214 
L 197.777808 197.690448 
L 198.450548 197.912165 
L 198.938404 198.718352 
L 199.426076 198.902341 
L 199.536265 199.670057 
L 199.667242 200.00171 
L 200.416524 200.449974 
L 200.603988 200.413629 
L 201.02892 200.690128 
L 203.449523 200.66979 
L 203.59701 200.476493 
L 203.619572 200.628882 
L 203.959229 200.296567 
L 204.239291 201.117009 
L 204.573116 200.90798 
L 204.813523 201.028347 
L 204.887686 200.955427 
L 204.949005 201.312623 
L 205.134899 200.906326 
L 205.186232 201.071326 
L 205.288945 201.215112 
L 205.517237 201.211217 
L 205.59151 201.4972 
L 205.647348 201.461112 
L 206.320087 201.643941 
L 206.428388 201.792279 
L 206.807944 201.55471 
L 207.405804 201.786285 
L 207.536781 201.852891 
L 207.806502 201.6923 
L 208.086575 201.793206 
L 208.286064 202.084857 
L 208.473528 202.139895 
L 208.898459 202.137913 
L 209.577656 201.973901 
L 211.884344 202.226125 
L 212.10883 202.38179 
L 212.595947 202.35336 
L 212.757225 202.425215 
L 213.055772 202.502651 
L 213.386776 202.674311 
L 213.516887 202.984677 
L 214.114677 203.342556 
L 214.122047 203.40181 
L 214.297927 203.32673 
L 214.428621 203.460212 
L 214.466587 203.719972 
L 214.497326 203.647758 
L 214.888934 203.80622 
L 215.215217 203.848124 
L 215.253832 203.682465 
L 215.259546 203.862463 
L 215.652334 203.977371 
L 215.676041 204.110603 
L 215.967966 204.374121 
L 216.155603 204.13749 
L 216.343067 204.550658 
L 216.753314 204.523305 
L 216.767999 204.39415 
L 217.447195 204.408943 
L 218.124397 204.181225 
L 219.320421 204.465908 
L 219.831398 204.325169 
L 220.465486 204.326732 
L 220.552602 204.441806 
L 220.626765 204.296872 
L 220.873978 204.577805 
L 220.925311 204.479606 
L 221.319016 204.398937 
L 221.386427 204.702375 
L 221.984217 204.681332 
L 221.991587 204.590553 
L 222.366865 204.125802 
L 222.726055 204.304381 
L 222.758473 204.182945 
L 224.962794 203.582672 
L 225.316735 203.688925 
L 227.079653 203.757847 
L 227.21063 203.494771 
L 227.456643 203.408574 
L 228.335026 203.463182 
L 228.743518 203.243079 
L 229.255966 203.318558 
L 229.785157 203.3569 
L 229.853756 203.237237 
L 230.595594 203.103481 
L 230.628013 202.872786 
L 230.906642 202.724622 
L 230.954296 202.841623 
L 230.998625 202.733869 
L 231.673941 202.017765 
L 231.782679 201.797718 
L 232.059427 201.823456 
L 232.082146 201.464553 
L 232.656536 201.213605 
L 232.72962 201.37815 
L 232.832334 201.261632 
L 234.102469 200.847354 
L 234.171174 200.698409 
L 234.949193 200.816278 
L 235.326183 200.363673 
L 235.829452 200.273931 
L 236.365843 200.184329 
L 236.441847 200.042189 
L 237.058095 200.264838 
L 238.862451 200.050103 
L 238.868164 199.872919 
L 239.505247 199.746761 
L 239.543481 199.498325 
L 239.652218 199.668412 
L 239.986044 199.414128 
L 240.226451 199.605236 
L 240.361933 199.621633 
L 240.701873 199.478225 
L 241.004437 199.445138 
L 241.060276 199.38775 
L 241.589467 199.42703 
L 242.040714 198.336142 
L 242.220871 198.397535 
L 242.432322 198.577975 
L 242.758605 198.291453 
L 242.949709 197.908336 
L 243.195722 197.810196 
L 243.499502 197.881953 
L 243.511354 197.748844 
L 243.698991 197.804931 
L 243.886455 197.478716 
L 244.311387 197.517048 
L 244.990583 197.689935 
L 246.73199 197.744155 
L 246.737704 197.791642 
L 247.08802 197.502575 
L 247.120045 197.243203 
L 247.297271 197.173473 
L 247.521758 197.101159 
L 247.818117 197.063021 
L 247.855584 196.886966 
L 248.008874 196.987796 
L 248.170153 196.881125 
L 248.571413 196.828612 
L 248.862405 196.727154 
L 248.873977 196.496538 
L 248.929815 196.531072 
L 249.527605 196.590475 
L 249.534975 196.436493 
L 249.841548 196.431497 
L 249.910253 196.113519 
L 250.688272 196.054247 
L 251.088969 195.803711 
L 251.176466 195.648477 
L 251.380893 195.559625 
L 251.568531 195.761773 
L 251.733276 195.678434 
L 251.755995 195.422302 
L 252.180926 195.45057 
L 252.330385 195.498407 
L 254.733349 195.660731 
L 255.391297 195.883695 
L 255.725123 195.817739 
L 255.96553 195.928501 
L 256.286906 195.909792 
L 256.440952 195.784171 
L 257.397144 195.74721 
L 257.404514 195.697643 
L 257.779793 195.446847 
L 258.138982 195.399158 
L 258.171401 195.225851 
L 258.45003 195.194449 
L 258.497684 195.359723 
L 258.5363 195.193553 
L 258.542013 195.083728 
L 258.683787 195.263055 
L 258.706349 194.921865 
L 259.046006 195.001046 
L 259.43807 194.877415 
L 259.602815 194.930662 
L 259.622426 194.865095 
L 259.625534 194.809988 
L 260.050466 194.925732 
L 260.199924 195.000419 
L 260.273009 195.191745 
L 260.729662 195.168993 
L 261.406864 194.887673 
L 262.382391 194.882247 
L 262.492581 195.006484 
L 263.909232 194.659225 
L 264.156445 194.524239 
L 265.449934 194.515599 
L 265.609182 194.672761 
L 265.618594 194.621067 
L 265.649332 194.506388 
L 266.04094 194.816834 
L 266.176757 194.706007 
L 266.405839 194.909456 
L 266.411552 194.824345 
L 266.793894 194.8715 
L 266.915545 195.055803 
L 267.108121 195.114586 
L 267.119972 195.224498 
L 267.195606 195.209165 
L 267.905321 195.287811 
L 267.920005 195.36117 
L 268.142548 195.315934 
L 268.245261 195.464964 
L 268.599202 195.554635 
L 269.208824 195.559325 
L 269.276403 195.418945 
L 269.515397 195.348448 
L 270.493097 195.714538 
L 270.739111 195.588025 
L 271.191928 195.602848 
L 271.966322 195.768091 
L 273.067625 195.905007 
L 273.478722 196.083901 
L 274.046296 196.064944 
L 274.275379 196.163123 
L 274.281092 196.092606 
L 274.422866 196.146303 
L 274.445428 196.258354 
L 274.663433 196.220844 
L 274.918174 196.644232 
L 274.97766 196.400134 
L 275.065146 196.575709 
L 275.77486 196.637372 
L 276.012088 196.985021 
L 276.114801 196.814193 
L 276.417365 196.720774 
L 276.468741 196.860892 
L 277.254243 196.994704 
L 277.422903 197.086077 
L 277.453642 196.982246 
L 277.633799 197.040124 
L 278.23166 197.115242 
L 278.362636 197.175995 
L 278.60865 197.038757 
L 279.061467 197.102744 
L 279.276664 197.015109 
L 279.724315 196.95684 
L 282.292405 196.998466 
L 282.314967 197.078447 
L 282.710199 197.059747 
L 282.934685 197.338892 
L 283.6444 197.544433 
L 283.770631 197.40704 
L 283.808543 197.461404 
L 283.818879 197.577654 
L 283.830294 197.441745 
L 283.881627 197.557089 
L 283.98434 197.539899 
L 284.212632 197.639417 
L 284.275332 197.822746 
L 284.342743 197.763527 
L 285.015482 197.921994 
L 285.123783 197.829039 
L 285.283031 198.232588 
L 285.292443 198.03665 
L 285.323181 197.87046 
L 285.503339 198.041067 
L 285.682371 198.036796 
L 285.714789 197.853586 
L 285.993418 197.964063 
L 286.101199 198.280574 
L 286.47819 198.120842 
L 286.781969 197.95832 
L 286.793821 198.029179 
L 286.931007 198.183922 
L 286.981458 198.133725 
L 287.168923 198.029829 
L 288.27305 198.128425 
L 290.020171 198.178014 
L 290.804225 198.862734 
L 291.138051 198.724433 
L 291.45262 199.088074 
L 291.85388 199.008572 
L 292.082171 199.081357 
L 292.144872 199.250256 
L 292.212282 199.15147 
L 293.124016 199.397537 
L 293.15257 199.596221 
L 293.192721 199.514594 
L 293.910611 199.709662 
L 294.371436 199.930127 
L 294.651509 199.650756 
L 294.66336 199.723839 
L 294.800546 199.94929 
L 294.850998 199.901284 
L 295.015743 199.914993 
L 295.038462 199.770134 
L 295.448709 199.806845 
L 295.463394 199.939253 
L 295.612852 199.966225 
L 296.14259 199.944412 
L 299.50971 200.14606 
L 299.569373 200.424528 
L 300.611013 200.63341 
L 300.679612 200.695988 
L 300.686981 200.645207 
L 301.589685 200.86111 
L 301.780151 200.996411 
L 301.82448 200.93247 
L 301.950586 200.968541 
L 301.988816 201.159238 
L 302.240975 201.349206 
L 302.328473 201.194214 
L 302.521048 201.313728 
L 302.670086 201.547794 
L 302.904893 201.614435 
L 302.908002 201.556359 
L 303.555476 201.564535 
L 303.658189 201.675978 
L 304.012129 201.747954 
L 304.966291 201.442124 
L 305.177187 201.679 
L 307.427498 202.330281 
L 307.438913 202.404463 
L 307.895523 202.626601 
L 307.951361 202.715771 
L 308.549151 202.850145 
L 308.891649 202.981467 
L 308.9318 202.833618 
L 309.602036 203.215386 
L 309.64969 203.362524 
L 309.69402 203.301997 
L 309.820125 203.285368 
L 309.858355 203.474192 
L 310.076361 203.509568 
L 310.197831 203.760972 
L 310.253587 203.728835 
L 310.390588 203.772592 
L 310.478074 204.05394 
L 310.811899 203.977912 
L 311.187788 204.185127 
L 311.351931 204.172296 
L 311.527729 204.358491 
L 311.881669 204.483112 
L 312.55887 204.338019 
L 312.797864 204.520927 
L 312.835831 204.419736 
L 313.046727 204.473463 
L 313.534398 204.439587 
L 313.775564 204.692549 
L 314.474395 204.592147 
L 315.820901 204.799043 
L 317.192947 204.809762 
L 317.557846 204.92276 
L 317.563559 204.833499 
L 317.705333 204.983799 
L 317.727895 205.082039 
L 317.980054 205.090028 
L 318.123127 205.264739 
L 318.200642 205.188423 
L 318.260127 205.263639 
L 318.347613 205.450958 
L 318.643972 205.720749 
L 318.647081 205.566178 
L 318.681439 205.58231 
L 319.057327 206.059443 
L 319.22147 206.192134 
L 319.294555 206.368337 
L 319.699832 206.576861 
L 319.751208 206.604487 
L 320.70537 206.793418 
L 320.736109 206.643336 
L 321.095298 206.781222 
L 321.403938 206.693704 
L 321.514127 207.114089 
L 321.891117 206.857114 
L 322.394386 206.936803 
L 325.559204 207.175663 
L 325.574872 207.253399 
L 325.597434 207.166774 
L 325.783415 207.139314 
L 325.81544 207.32922 
L 326.217153 207.269834 
L 326.513512 207.223861 
L 326.550978 207.074091 
L 326.704269 207.249179 
L 326.926867 207.234521 
L 327.266807 207.633256 
L 328.223 207.837451 
L 328.23037 207.794467 
L 328.297949 208.045868 
L 328.565498 207.883682 
L 328.57491 207.901218 
L 328.605648 207.929321 
L 328.785806 207.785845 
L 328.997256 207.871355 
L 329.871861 207.648508 
L 330.213474 207.892292 
L 330.800317 207.841253 
L 330.876321 208.025662 
L 331.555518 207.980918 
L 333.067842 207.9958 
L 333.296925 207.631542 
L 333.444412 207.683747 
L 333.466974 207.552348 
L 334.383051 206.808763 
L 334.573809 206.953873 
L 335.033634 207.014515 
L 335.136347 206.826693 
L 335.364638 206.783791 
L 335.494749 207.098154 
L 336.275789 206.683997 
L 336.834377 206.883168 
L 336.866796 206.77005 
L 337.145425 206.656373 
L 337.237408 206.368855 
L 337.363513 206.375467 
L 337.384183 206.108408 
L 337.653903 205.81242 
L 337.741401 205.914533 
L 337.933976 205.949273 
L 338.021462 205.677465 
L 338.595694 205.273123 
L 338.895319 205.137957 
L 339.425057 204.912648 
L 340.937382 204.701268 
L 341.187976 204.354148 
L 341.554519 204.360192 
L 341.564966 204.21085 
L 341.80926 203.951975 
L 342.290057 204.048278 
L 342.443348 203.749767 
L 342.792177 203.690753 
L 342.85184 203.534347 
L 343.234178 203.595534 
L 343.364289 203.321053 
L 343.962079 203.333039 
L 344.145329 203.385846 
L 344.344727 203.063516 
L 344.703917 203.155024 
L 344.736335 202.774815 
L 345.014964 202.460233 
L 345.062618 202.19446 
L 345.106947 202.251439 
L 345.233053 202.283049 
L 345.248721 202.214086 
L 345.271283 201.889694 
L 345.457264 201.790617 
L 345.61094 200.924024 
L 345.666515 201.181273 
L 345.815367 201.016092 
L 346.003004 200.365277 
L 346.18736 200.491964 
L 346.190469 200.442267 
L 346.465234 200.47683 
L 346.837943 199.958383 
L 346.940656 199.679527 
L 347.24322 199.801495 
L 347.294597 199.437989 
L 347.971798 199.441502 
L 348.248759 199.339411 
L 348.459654 198.859778 
L 348.947326 198.6197 
L 349.057515 198.737619 
L 349.188492 198.306549 
L 349.434505 198.052908 
L 350.159597 197.774014 
L 350.312888 197.488999 
L 350.661717 197.305052 
L 350.72138 196.91841 
L 351.103717 196.726095 
L 351.233828 196.386288 
L 351.831618 196.433305 
L 352.014868 196.573101 
L 352.174116 196.378373 
L 352.573456 196.425817 
L 352.605875 196.031259 
L 353.480299 194.208466 
L 353.760541 193.141888 
L 354.0569 192.949585 
L 354.060008 192.99477 
L 354.334773 192.928883 
L 354.707482 192.455327 
L 354.810196 192.024155 
L 355.11276 192.096941 
L 355.773758 191.773237 
L 355.841337 191.297062 
L 356.329194 190.955524 
L 356.927055 190.760748 
L 357.058031 190.307768 
L 357.327752 189.979439 
L 357.586573 189.1458 
L 357.756862 188.933439 
L 357.807314 188.641543 
L 357.972059 188.443321 
L 358.419709 188.004184 
L 358.531256 187.719375 
L 359.035957 187.489023 
L 359.103368 186.868408 
L 360.611231 186.518152 
L 360.840313 186.457813 
L 360.846026 186.154823 
L 360.972132 186.098405 
L 361.010362 185.346589 
L 361.228368 184.833884 
L 361.349838 184.398504 
L 361.63008 183.869284 
L 362.503938 183.145122 
L 362.577022 182.541923 
L 362.679735 182.142057 
L 362.982299 181.719442 
L 363.643297 181.355407 
L 363.819178 180.659899 
L 363.987838 179.874187 
L 364.018576 179.487683 
L 364.410184 179.007127 
L 364.736467 178.681527 
L 364.927571 178.011897 
L 365.284789 177.350279 
L 365.477364 176.544878 
L 365.489216 176.187207 
L 365.676853 176.025599 
L 366.139082 175.497255 
L 366.274564 175.214751 
L 366.289249 174.884924 
L 368.621175 174.069837 
L 368.709852 173.871897 
L 368.715566 173.508128 
L 369.065882 172.793024 
L 369.219378 171.904684 
L 369.275133 171.641612 
L 369.986736 171.146081 
L 370.383814 170.168813 
L 370.549275 169.425716 
L 370.840267 168.985543 
L 370.907677 168.466371 
L 371.505467 168.062752 
L 371.688717 167.464428 
L 371.847965 167.052841 
L 371.888115 166.456816 
L 372.247305 166.298103 
L 372.279723 165.956857 
L 372.558352 165.93765 
L 372.606006 165.743949 
L 372.79711 165.45183 
L 372.814671 165.165562 
L 373.066831 165.049635 
L 373.733857 162.463061 
L 374.308247 161.507256 
L 374.837985 161.152556 
L 376.003043 160.997272 
L 376.490714 161.354764 
L 376.600903 160.89042 
L 376.967447 160.732832 
L 376.977894 160.452007 
L 377.702985 160.17341 
L 377.856276 160.375308 
L 378.017554 160.330634 
L 378.264768 159.91318 
L 378.647106 159.801138 
L 378.777217 158.720295 
L 379.306408 158.767343 
L 379.375006 158.499263 
L 379.68895 157.988605 
L 379.726917 157.274246 
L 380.149263 156.73656 
L 380.427892 156.336317 
L 380.475546 156.570022 
L 380.519875 156.398739 
L 380.64598 156.111208 
L 380.684211 155.641321 
L 381.023687 155.268186 
L 381.079442 154.873556 
L 381.156957 154.982133 
L 381.303929 154.681327 
L 381.365481 154.597663 
L 381.415932 154.261213 
L 381.600288 154.072678 
L 381.603396 153.842555 
L 382.013643 153.51874 
L 382.028328 153.335978 
L 382.177786 153.167683 
L 382.353584 152.597772 
L 382.707524 152.653311 
L 383.384726 152.412255 
L 383.692425 152.009402 
L 383.872582 152.240833 
L 384.360253 152.384992 
L 384.601419 151.792597 
L 385.887094 151.848801 
L 386.134307 151.471923 
L 386.516645 151.23214 
L 386.646756 150.779365 
L 387.244546 150.509369 
L 387.587044 150.216676 
L 388.383701 149.789955 
L 388.389414 149.47922 
L 388.531188 148.888221 
L 388.55375 148.980031 
L 388.739731 148.780384 
L 388.782203 148.420477 
L 389.026497 148.91126 
L 389.173468 148.60043 
L 389.469827 148.886841 
L 389.472936 148.54738 
L 389.507294 148.571067 
L 389.747701 148.565751 
L 389.883183 148.790337 
L 390.057662 148.311333 
L 390.12041 148.427979 
L 390.525687 148.410974 
L 391.110717 148.797827 
L 391.254265 147.953425 
L 391.493259 147.733872 
L 391.561964 147.158785 
L 391.742122 147.370894 
L 391.953572 147.383211 
L 392.232201 147.798648 
L 392.279855 148.110986 
L 392.339982 148.024648 
L 392.828177 148.05181 
L 392.999501 147.851926 
L 393.032604 147.481053 
L 393.16979 147.85845 
L 393.220241 147.802306 
L 393.384986 147.671419 
L 393.832637 147.51968 
L 394.511833 147.88545 
L 396.024158 147.479891 
L 396.253241 147.468757 
L 396.258954 147.300359 
L 396.400728 147.176086 
L 396.42329 147.319405 
L 396.651742 146.717621 
L 396.896036 147.511509 
L 397.376834 147.457361 
L 397.691403 147.926084 
L 397.938617 147.468943 
L 398.092663 148.196018 
L 398.383655 148.553833 
L 398.395227 148.526261 
L 398.451065 148.363695 
L 398.980256 148.804443 
L 399.123805 148.731691 
L 399.362799 148.446394 
L 399.391353 148.523929 
L 399.400765 148.437608 
L 399.431504 148.295356 
L 399.611661 148.699391 
L 399.790693 148.813265 
L 399.823112 148.692385 
L 400.101741 149.065952 
L 400.149395 149.64225 
L 400.54404 149.894486 
L 400.697716 150.082939 
L 400.86904 150.270814 
L 400.890292 149.983332 
L 400.902144 150.40235 
L 401.089781 151.838628 
L 401.277245 151.80118 
L 401.55201 151.59828 
L 401.851635 152.289151 
L 402.381373 152.705196 
L 402.990995 152.570725 
L 403.893698 152.822726 
L 404.254599 152.459078 
L 404.292829 152.531536 
L 404.521282 152.424829 
L 404.632305 152.579429 
L 404.765576 153.50942 
L 405.246373 153.556895 
L 405.399664 154.048843 
L 405.748493 153.976195 
L 405.962202 154.722765 
L 406.190494 154.856392 
L 406.320605 155.305579 
L 407.101645 155.471175 
L 407.260893 156.044825 
L 407.270305 155.820309 
L 407.660233 156.443263 
L 407.692651 156.564543 
L 407.97128 157.050243 
L 408.063263 157.520902 
L 408.205037 157.802051 
L 408.210038 158.113634 
L 408.41358 158.15774 
L 408.567256 158.92293 
L 408.73858 159.084308 
L 408.95932 161.126365 
L 409.124065 161.379503 
L 409.143676 161.210625 
L 409.146785 161.171888 
L 409.42155 161.275642 
L 409.557032 161.476075 
L 409.571716 161.951633 
L 409.721174 162.325141 
L 410.250912 162.792449 
L 410.860534 162.633728 
L 410.928114 163.038552 
L 411.235813 163.06495 
L 411.903642 163.346328 
L 412.013831 163.631933 
L 412.501845 164.033812 
L 412.635115 165.024207 
L 413.115913 165.147672 
L 413.677696 166.626063 
L 413.831742 167.393475 
L 414.060033 167.684312 
L 414.190144 168.234151 
L 414.787934 168.574449 
L 414.971184 168.504029 
L 415.35074 169.55863 
L 415.698007 170.277365 
L 415.888473 171.079341 
L 415.932803 171.533252 
L 416.058908 171.677527 
L 416.097138 172.472452 
L 416.283119 172.806751 
L 416.436795 173.773293 
L 416.629371 174.128491 
L 416.778408 175.592158 
L 416.993605 176.204105 
L 417.291089 176.049649 
L 417.426571 176.458817 
L 417.441256 176.952368 
L 417.590714 177.430249 
L 418.069076 177.245983 
L 418.120452 177.615624 
L 418.797653 177.369454 
L 419.105352 177.304052 
L 419.773181 177.888276 
L 419.88337 178.17952 
L 420.371384 178.697367 
L 420.504655 179.129885 
L 420.542889 179.016922 
L 421.138743 179.306002 
L 421.300021 179.788611 
L 421.487572 179.974263 
L 421.53582 180.22217 
L 421.929573 180.818033 
L 422.059684 181.746304 
L 422.588875 181.913843 
L 422.657474 182.116032 
L 422.971417 182.599712 
L 422.999972 183.007035 
L 423.43173 183.696365 
L 423.710359 184.682386 
L 423.802342 185.242413 
L 423.928448 185.419031 
L 423.966678 186.416693 
L 424.19513 186.956384 
L 424.218837 187.416086 
L 424.36191 187.879389 
L 424.49891 187.900434 
L 424.586396 188.760426 
L 424.698399 189.438319 
L 424.882755 189.343209 
L 424.920222 190.014668 
L 425.160629 190.207485 
L 425.296111 190.691417 
L 425.310795 191.159481 
L 425.533338 191.848955 
L 425.938615 191.976826 
L 425.989991 192.441772 
L 426.599613 192.365655 
L 426.775493 192.915454 
L 426.974892 193.18882 
L 427.334081 193.19152 
L 428.797914 194.732608 
L 429.357112 195.870229 
L 429.40536 196.24851 
L 429.799112 196.737832 
L 429.929223 197.37975 
L 430.458414 197.913637 
L 430.527013 198.370505 
L 430.840957 198.739112 
L 430.869511 199.280505 
L 431.437086 199.660194 
L 431.627552 200.559139 
L 431.671882 201.109075 
L 431.813655 201.413287 
L 431.836217 201.893552 
L 432.022198 202.0675 
L 432.088377 203.25735 
L 432.231449 203.469057 
L 432.567939 204.860454 
L 432.755403 205.302402 
L 432.789761 205.7573 
L 433.030168 206.137191 
L 433.402877 207.364667 
L 433.808155 207.168972 
L 434.536732 207.148048 
L 434.813693 207.583895 
L 435.622449 208.668653 
L 436.281968 209.027644 
L 437.226651 209.52762 
L 437.274899 209.930636 
L 437.668652 210.391921 
L 437.798763 211.094772 
L 438.396553 211.47854 
L 438.403922 211.648696 
L 438.710496 211.674203 
L 438.739051 212.119894 
L 439.170809 212.353796 
L 439.306625 212.297352 
L 439.541421 212.780197 
L 439.667526 213.136919 
L 439.683195 213.082512 
L 439.923763 213.08512 
L 439.934209 213.407063 
L 440.100989 213.61859 
L 440.237989 214.054873 
L 440.659301 214.037918 
L 440.899707 214.115342 
L 441.035189 214.281237 
L 441.272417 215.069341 
L 441.677694 215.455746 
L 442.683232 215.929209 
L 442.713971 216.227328 
L 443.07316 216.740785 
L 443.491989 216.743773 
L 443.980184 217.152827 
L 444.184611 217.057336 
L 444.536993 217.00336 
L 444.556604 216.821125 
L 444.559712 216.862245 
L 444.90864 216.925019 
L 444.984644 217.153767 
L 446.273462 217.821537 
L 447.176165 217.677497 
L 447.405247 217.78772 
L 447.410961 218.107047 
L 447.552734 219.082702 
L 447.793302 219.063813 
L 447.970528 219.197528 
L 448.52884 219.258133 
L 449.03096 219.182431 
L 449.090623 219.845723 
L 449.547234 220.250608 
L 449.603072 220.567168 
L 450.384112 220.871666 
L 450.552772 221.303455 
L 450.58351 221.165984 
L 450.9427 221.172261 
L 451.738519 221.046461 
L 452.406532 221.753024 
L 452.426143 221.627294 
L 452.429252 221.963928 
L 452.704017 221.866483 
L 455.274787 221.792839 
L 455.296298 222.296119 
L 455.422274 222.575351 
L 456.39838 222.480339 
L 456.9005 222.781094 
L 456.960163 223.229457 
L 457.472611 223.148345 
L 458.145351 223.555913 
L 458.253651 223.486347 
L 458.812239 223.730532 
L 459.341375 223.81204 
L 459.608058 223.684754 
L 460.295683 223.628923 
L 460.298791 223.708068 
L 460.573556 223.914979 
L 462.357081 223.99845 
L 463.165838 224.265203 
L 464.770039 224.335744 
L 464.829702 224.577404 
L 465.286313 224.772625 
L 465.939941 224.899617 
L 466.123191 224.818532 
L 467.477598 224.689349 
L 468.165222 224.837459 
L 468.168331 225.212622 
L 470.226621 225.68846 
L 477.75162 225.401443 
L 484.503551 225.86738 
L 495.70861 226.201563 
L 495.70861 226.201563 
" clip-path="url(#p040918b099)" style="fill: none; stroke: #b85741; stroke-opacity: 0.4; stroke-width: 2.5; stroke-linecap: square"/>
   </g>
   <g id="line2d_13">
    <path d="M 77.840085 88.629674 
L 77.840085 37.531353 
" clip-path="url(#p040918b099)" style="fill: none; stroke-dasharray: 14.8,6.4; stroke-dashoffset: 0; stroke: #009384; stroke-width: 4"/>
   </g>
   <g id="line2d_14">
    <path d="M 77.840085 236.247045 
L 77.840085 139.727995 
" clip-path="url(#p040918b099)" style="fill: none; stroke-dasharray: 14.8,6.4; stroke-dashoffset: 0; stroke: #b85741; stroke-width: 4"/>
   </g>
   <g id="patch_3">
    <path d="M 55.012813 247.877344 
L 55.012813 26.117344 
" style="fill: none; stroke: #000000; stroke-width: 0.8; stroke-linejoin: miter; stroke-linecap: square"/>
   </g>
   <g id="patch_4">
    <path d="M 557.212813 247.877344 
L 557.212813 26.117344 
" style="fill: none; stroke: #000000; stroke-width: 0.8; stroke-linejoin: miter; stroke-linecap: square"/>
   </g>
   <g id="patch_5">
    <path d="M 55.012813 247.877344 
L 557.212813 247.877344 
" style="fill: none; stroke: #000000; stroke-width: 0.8; stroke-linejoin: miter; stroke-linecap: square"/>
   </g>
   <g id="patch_6">
    <path d="M 55.012813 26.117344 
L 557.212813 26.117344 
" style="fill: none; stroke: #000000; stroke-width: 0.8; stroke-linejoin: miter; stroke-linecap: square"/>
   </g>
   <g id="text_13">
    <!-- Live Migrate Many (RAM) -->
    <g transform="translate(199.985 20.117344) scale(0.17 -0.17)">
     <defs>
      <path id="DejaVuSans-4c" d="M 628 4666 
L 1259 4666 
L 1259 531 
L 3531 531 
L 3531 0 
L 628 0 
L 628 4666 
z
" transform="scale(0.015625)"/>
      <path id="DejaVuSans-76" d="M 191 3500 
L 800 3500 
L 1894 563 
L 2988 3500 
L 3597 3500 
L 2284 0 
L 1503 0 
L 191 3500 
z
" transform="scale(0.015625)"/>
      <path id="DejaVuSans-4d" d="M 628 4666 
L 1569 4666 
L 2759 1491 
L 3956 4666 
L 4897 4666 
L 4897 0 
L 4281 0 
L 4281 4097 
L 3078 897 
L 2444 897 
L 1241 4097 
L 1241 0 
L 628 0 
L 628 4666 
z
" transform="scale(0.015625)"/>
      <path id="DejaVuSans-67" d="M 2906 1791 
Q 2906 2416 2648 2759 
Q 2391 3103 1925 3103 
Q 1463 3103 1205 2759 
Q 947 2416 947 1791 
Q 947 1169 1205 825 
Q 1463 481 1925 481 
Q 2391 481 2648 825 
Q 2906 1169 2906 1791 
z
M 3481 434 
Q 3481 -459 3084 -895 
Q 2688 -1331 1869 -1331 
Q 1566 -1331 1297 -1286 
Q 1028 -1241 775 -1147 
L 775 -588 
Q 1028 -725 1275 -790 
Q 1522 -856 1778 -856 
Q 2344 -856 2625 -561 
Q 2906 -266 2906 331 
L 2906 616 
Q 2728 306 2450 153 
Q 2172 0 1784 0 
Q 1141 0 747 490 
Q 353 981 353 1791 
Q 353 2603 747 3093 
Q 1141 3584 1784 3584 
Q 2172 3584 2450 3431 
Q 2728 3278 2906 2969 
L 2906 3500 
L 3481 3500 
L 3481 434 
z
" transform="scale(0.015625)"/>
      <path id="DejaVuSans-72" d="M 2631 2963 
Q 2534 3019 2420 3045 
Q 2306 3072 2169 3072 
Q 1681 3072 1420 2755 
Q 1159 2438 1159 1844 
L 1159 0 
L 581 0 
L 581 3500 
L 1159 3500 
L 1159 2956 
Q 1341 3275 1631 3429 
Q 1922 3584 2338 3584 
Q 2397 3584 2469 3576 
Q 2541 3569 2628 3553 
L 2631 2963 
z
" transform="scale(0.015625)"/>
      <path id="DejaVuSans-79" d="M 2059 -325 
Q 1816 -950 1584 -1140 
Q 1353 -1331 966 -1331 
L 506 -1331 
L 506 -850 
L 844 -850 
Q 1081 -850 1212 -737 
Q 1344 -625 1503 -206 
L 1606 56 
L 191 3500 
L 800 3500 
L 1894 763 
L 2988 3500 
L 3597 3500 
L 2059 -325 
z
" transform="scale(0.015625)"/>
      <path id="DejaVuSans-52" d="M 2841 2188 
Q 3044 2119 3236 1894 
Q 3428 1669 3622 1275 
L 4263 0 
L 3584 0 
L 2988 1197 
Q 2756 1666 2539 1819 
Q 2322 1972 1947 1972 
L 1259 1972 
L 1259 0 
L 628 0 
L 628 4666 
L 2053 4666 
Q 2853 4666 3247 4331 
Q 3641 3997 3641 3322 
Q 3641 2881 3436 2590 
Q 3231 2300 2841 2188 
z
M 1259 4147 
L 1259 2491 
L 2053 2491 
Q 2509 2491 2742 2702 
Q 2975 2913 2975 3322 
Q 2975 3731 2742 3939 
Q 2509 4147 2053 4147 
L 1259 4147 
z
" transform="scale(0.015625)"/>
      <path id="DejaVuSans-41" d="M 2188 4044 
L 1331 1722 
L 3047 1722 
L 2188 4044 
z
M 1831 4666 
L 2547 4666 
L 4325 0 
L 3669 0 
L 3244 1197 
L 1141 1197 
L 716 0 
L 50 0 
L 1831 4666 
z
" transform="scale(0.015625)"/>
     </defs>
     <use xlink:href="#DejaVuSans-4c"/>
     <use xlink:href="#DejaVuSans-69" x="55.712891"/>
     <use xlink:href="#DejaVuSans-76" x="83.496094"/>
     <use xlink:href="#DejaVuSans-65" x="142.675781"/>
     <use xlink:href="#DejaVuSans-20" x="204.199219"/>
     <use xlink:href="#DejaVuSans-4d" x="235.986328"/>
     <use xlink:href="#DejaVuSans-69" x="322.265625"/>
     <use xlink:href="#DejaVuSans-67" x="350.048828"/>
     <use xlink:href="#DejaVuSans-72" x="413.525391"/>
     <use xlink:href="#DejaVuSans-61" x="454.638672"/>
     <use xlink:href="#DejaVuSans-74" x="515.917969"/>
     <use xlink:href="#DejaVuSans-65" x="555.126953"/>
     <use xlink:href="#DejaVuSans-20" x="616.650391"/>
     <use xlink:href="#DejaVuSans-4d" x="648.4375"/>
     <use xlink:href="#DejaVuSans-61" x="734.716797"/>
     <use xlink:href="#DejaVuSans-6e" x="795.996094"/>
     <use xlink:href="#DejaVuSans-79" x="859.375"/>
     <use xlink:href="#DejaVuSans-20" x="918.554688"/>
     <use xlink:href="#DejaVuSans-28" x="950.341797"/>
     <use xlink:href="#DejaVuSans-52" x="989.355469"/>
     <use xlink:href="#DejaVuSans-41" x="1054.837891"/>
     <use xlink:href="#DejaVuSans-4d" x="1123.246094"/>
     <use xlink:href="#DejaVuSans-29" x="1209.525391"/>
    </g>
   </g>
   <g id="legend_1">
    <g id="patch_7">
     <path d="M 228.420313 162.882344 
L 383.805313 162.882344 
Q 387.005313 162.882344 387.005313 159.682344 
L 387.005313 114.312344 
Q 387.005313 111.112344 383.805313 111.112344 
L 228.420313 111.112344 
Q 225.220313 111.112344 225.220313 114.312344 
L 225.220313 159.682344 
Q 225.220313 162.882344 228.420313 162.882344 
z
" style="fill: #ffffff; opacity: 0.8; stroke: #cccccc; stroke-linejoin: miter"/>
    </g>
    <g id="line2d_15">
     <path d="M 231.620313 124.069844 
L 247.620313 124.069844 
L 263.620313 124.069844 
" style="fill: none; stroke: #009384; stroke-opacity: 0.4; stroke-width: 2.5; stroke-linecap: square"/>
    </g>
    <g id="text_14">
     <!-- KubeVirt  -->
     <g transform="translate(276.420313 129.669844) scale(0.16 -0.16)">
      <defs>
       <path id="DejaVuSans-4b" d="M 628 4666 
L 1259 4666 
L 1259 2694 
L 3353 4666 
L 4166 4666 
L 1850 2491 
L 4331 0 
L 3500 0 
L 1259 2247 
L 1259 0 
L 628 0 
L 628 4666 
z
" transform="scale(0.015625)"/>
       <path id="DejaVuSans-75" d="M 544 1381 
L 544 3500 
L 1119 3500 
L 1119 1403 
Q 1119 906 1312 657 
Q 1506 409 1894 409 
Q 2359 409 2629 706 
Q 2900 1003 2900 1516 
L 2900 3500 
L 3475 3500 
L 3475 0 
L 2900 0 
L 2900 538 
Q 2691 219 2414 64 
Q 2138 -91 1772 -91 
Q 1169 -91 856 284 
Q 544 659 544 1381 
z
M 1991 3584 
L 1991 3584 
z
" transform="scale(0.015625)"/>
       <path id="DejaVuSans-62" d="M 3116 1747 
Q 3116 2381 2855 2742 
Q 2594 3103 2138 3103 
Q 1681 3103 1420 2742 
Q 1159 2381 1159 1747 
Q 1159 1113 1420 752 
Q 1681 391 2138 391 
Q 2594 391 2855 752 
Q 3116 1113 3116 1747 
z
M 1159 2969 
Q 1341 3281 1617 3432 
Q 1894 3584 2278 3584 
Q 2916 3584 3314 3078 
Q 3713 2572 3713 1747 
Q 3713 922 3314 415 
Q 2916 -91 2278 -91 
Q 1894 -91 1617 61 
Q 1341 213 1159 525 
L 1159 0 
L 581 0 
L 581 4863 
L 1159 4863 
L 1159 2969 
z
" transform="scale(0.015625)"/>
       <path id="DejaVuSans-56" d="M 1831 0 
L 50 4666 
L 709 4666 
L 2188 738 
L 3669 4666 
L 4325 4666 
L 2547 0 
L 1831 0 
z
" transform="scale(0.015625)"/>
      </defs>
      <use xlink:href="#DejaVuSans-4b"/>
      <use xlink:href="#DejaVuSans-75" x="60.576172"/>
      <use xlink:href="#DejaVuSans-62" x="123.955078"/>
      <use xlink:href="#DejaVuSans-65" x="187.431641"/>
      <use xlink:href="#DejaVuSans-56" x="248.955078"/>
      <use xlink:href="#DejaVuSans-69" x="315.113281"/>
      <use xlink:href="#DejaVuSans-72" x="342.896484"/>
      <use xlink:href="#DejaVuSans-74" x="384.009766"/>
      <use xlink:href="#DejaVuSans-20" x="423.21875"/>
     </g>
    </g>
    <g id="line2d_16">
     <path d="M 231.620313 147.554844 
L 247.620313 147.554844 
L 263.620313 147.554844 
" style="fill: none; stroke: #b85741; stroke-opacity: 0.4; stroke-width: 2.5; stroke-linecap: square"/>
    </g>
    <g id="text_15">
     <!-- OpenNebula  -->
     <g transform="translate(276.420313 153.154844) scale(0.16 -0.16)">
      <defs>
       <path id="DejaVuSans-4f" d="M 2522 4238 
Q 1834 4238 1429 3725 
Q 1025 3213 1025 2328 
Q 1025 1447 1429 934 
Q 1834 422 2522 422 
Q 3209 422 3611 934 
Q 4013 1447 4013 2328 
Q 4013 3213 3611 3725 
Q 3209 4238 2522 4238 
z
M 2522 4750 
Q 3503 4750 4090 4092 
Q 4678 3434 4678 2328 
Q 4678 1225 4090 567 
Q 3503 -91 2522 -91 
Q 1538 -91 948 565 
Q 359 1222 359 2328 
Q 359 3434 948 4092 
Q 1538 4750 2522 4750 
z
" transform="scale(0.015625)"/>
       <path id="DejaVuSans-70" d="M 1159 525 
L 1159 -1331 
L 581 -1331 
L 581 3500 
L 1159 3500 
L 1159 2969 
Q 1341 3281 1617 3432 
Q 1894 3584 2278 3584 
Q 2916 3584 3314 3078 
Q 3713 2572 3713 1747 
Q 3713 922 3314 415 
Q 2916 -91 2278 -91 
Q 1894 -91 1617 61 
Q 1341 213 1159 525 
z
M 3116 1747 
Q 3116 2381 2855 2742 
Q 2594 3103 2138 3103 
Q 1681 3103 1420 2742 
Q 1159 2381 1159 1747 
Q 1159 1113 1420 752 
Q 1681 391 2138 391 
Q 2594 391 2855 752 
Q 3116 1113 3116 1747 
z
" transform="scale(0.015625)"/>
       <path id="DejaVuSans-4e" d="M 628 4666 
L 1478 4666 
L 3547 763 
L 3547 4666 
L 4159 4666 
L 4159 0 
L 3309 0 
L 1241 3903 
L 1241 0 
L 628 0 
L 628 4666 
z
" transform="scale(0.015625)"/>
      </defs>
      <use xlink:href="#DejaVuSans-4f"/>
      <use xlink:href="#DejaVuSans-70" x="78.710938"/>
      <use xlink:href="#DejaVuSans-65" x="142.1875"/>
      <use xlink:href="#DejaVuSans-6e" x="203.710938"/>
      <use xlink:href="#DejaVuSans-4e" x="267.089844"/>
      <use xlink:href="#DejaVuSans-65" x="341.894531"/>
      <use xlink:href="#DejaVuSans-62" x="403.417969"/>
      <use xlink:href="#DejaVuSans-75" x="466.894531"/>
      <use xlink:href="#DejaVuSans-6c" x="530.273438"/>
      <use xlink:href="#DejaVuSans-61" x="558.056641"/>
      <use xlink:href="#DejaVuSans-20" x="619.335938"/>
     </g>
    </g>
   </g>
  </g>
 </g>
 <defs>
  <clipPath id="p040918b099">
   <rect x="55.012813" y="26.117344" width="502.2" height="221.76"/>
  </clipPath>
 </defs>
</svg>
