<?xml version="1.0" encoding="utf-8" standalone="no"?>
<!DOCTYPE svg PUBLIC "-//W3C//DTD SVG 1.1//EN"
  "http://www.w3.org/Graphics/SVG/1.1/DTD/svg11.dtd">
<svg xmlns:xlink="http://www.w3.org/1999/xlink" width="564.412812pt" height="298.015156pt" viewBox="0 0 564.412812 298.015156" xmlns="http://www.w3.org/2000/svg" version="1.1">
 <metadata>
  <rdf:RDF xmlns:dc="http://purl.org/dc/elements/1.1/" xmlns:cc="http://creativecommons.org/ns#" xmlns:rdf="http://www.w3.org/1999/02/22-rdf-syntax-ns#">
   <cc:Work>
    <dc:type rdf:resource="http://purl.org/dc/dcmitype/StillImage"/>
    <dc:date>2024-06-25T10:49:53.778347</dc:date>
    <dc:format>image/svg+xml</dc:format>
    <dc:creator>
     <cc:Agent>
      <dc:title>Matplotlib v3.8.4, https://matplotlib.org/</dc:title>
     </cc:Agent>
    </dc:creator>
   </cc:Work>
  </rdf:RDF>
 </metadata>
 <defs>
  <style type="text/css">*{stroke-linejoin: round; stroke-linecap: butt}</style>
 </defs>
 <g id="figure_1">
  <g id="patch_1">
   <path d="M 0 298.015156 
L 564.412812 298.015156 
L 564.412812 0 
L 0 0 
z
" style="fill: #f3f7f8"/>
  </g>
  <g id="axes_1">
   <g id="patch_2">
    <path d="M 55.012813 247.877344 
L 557.212813 247.877344 
L 557.212813 26.117344 
L 55.012813 26.117344 
z
" style="fill: #ffffff"/>
   </g>
   <g id="PolyCollection_1">
    <defs>
     <path id="m8b55c81424" d="M 77.840085 -109.43536 
L 77.840085 -62.695663 
L 85.086838 -63.700082 
L 92.333592 -63.155405 
L 99.580345 -62.563369 
L 106.827098 -62.103413 
L 114.073851 -61.45872 
L 121.320605 -61.082313 
L 128.567358 -60.749444 
L 135.814111 -60.501561 
L 143.060864 -60.223797 
L 150.307618 -60.217812 
L 157.554371 -60.470087 
L 164.801124 -60.959832 
L 172.047877 -61.769159 
L 179.294631 -62.508898 
L 186.541384 -63.42593 
L 193.788137 -64.284647 
L 201.03489 -65.092876 
L 208.281644 -65.788503 
L 215.528397 -66.433212 
L 222.77515 -67.093482 
L 230.021903 -67.524338 
L 237.268657 -67.992659 
L 244.51541 -68.215288 
L 251.762163 -68.616825 
L 259.008916 -68.639727 
L 266.25567 -68.743683 
L 273.502423 -68.698777 
L 280.749176 -68.636941 
L 287.995929 -68.568499 
L 295.242683 -68.443525 
L 302.489436 -68.272176 
L 309.736189 -68.183808 
L 316.982942 -67.976647 
L 324.229696 -67.95583 
L 331.476449 -67.643955 
L 338.723202 -67.64728 
L 345.969955 -67.570768 
L 353.216709 -67.620283 
L 360.463462 -67.65056 
L 367.710215 -67.64128 
L 374.956968 -67.830689 
L 382.203722 -67.827188 
L 389.450475 -68.033457 
L 396.697228 -68.038382 
L 403.943981 -68.278527 
L 411.190735 -68.343012 
L 418.437488 -68.451718 
L 425.684241 -68.464409 
L 432.930994 -68.513015 
L 440.177748 -68.255704 
L 447.424501 -68.609719 
L 454.671254 -68.391407 
L 461.918007 -68.473187 
L 469.164761 -68.40807 
L 476.411514 -68.312885 
L 483.658267 -68.280184 
L 490.90502 -67.964092 
L 498.151774 -67.550759 
L 505.398527 -67.868218 
L 512.64528 -68.685432 
L 519.892033 -68.348962 
L 527.138787 -66.801076 
L 534.38554 -63.976152 
L 534.38554 -107.311192 
L 534.38554 -107.311192 
L 527.138787 -108.523682 
L 519.892033 -109.214341 
L 512.64528 -108.772896 
L 505.398527 -111.642048 
L 498.151774 -111.811691 
L 490.90502 -112.52493 
L 483.658267 -112.0819 
L 476.411514 -111.97935 
L 469.164761 -111.647774 
L 461.918007 -111.675394 
L 454.671254 -111.564268 
L 447.424501 -111.318429 
L 440.177748 -111.460906 
L 432.930994 -111.154873 
L 425.684241 -111.063304 
L 418.437488 -111.014612 
L 411.190735 -111.001523 
L 403.943981 -110.948165 
L 396.697228 -111.081115 
L 389.450475 -111.029988 
L 382.203722 -111.123074 
L 374.956968 -111.055219 
L 367.710215 -111.164888 
L 360.463462 -111.100491 
L 353.216709 -111.072156 
L 345.969955 -111.078006 
L 338.723202 -111.007153 
L 331.476449 -111.025121 
L 324.229696 -110.802751 
L 316.982942 -110.874294 
L 309.736189 -110.756549 
L 302.489436 -110.81137 
L 295.242683 -110.755061 
L 287.995929 -110.770538 
L 280.749176 -110.80284 
L 273.502423 -110.838345 
L 266.25567 -110.824354 
L 259.008916 -110.892354 
L 251.762163 -110.817397 
L 244.51541 -110.983496 
L 237.268657 -110.855037 
L 230.021903 -110.907499 
L 222.77515 -110.695349 
L 215.528397 -110.684303 
L 208.281644 -110.489206 
L 201.03489 -110.366083 
L 193.788137 -110.192577 
L 186.541384 -110.06279 
L 179.294631 -109.935675 
L 172.047877 -109.736795 
L 164.801124 -109.679806 
L 157.554371 -109.472885 
L 150.307618 -109.710525 
L 143.060864 -109.908394 
L 135.814111 -109.856469 
L 128.567358 -110.009433 
L 121.320605 -110.067506 
L 114.073851 -110.253027 
L 106.827098 -110.234755 
L 99.580345 -110.470254 
L 92.333592 -110.536219 
L 85.086838 -110.671298 
L 77.840085 -109.43536 
z
" style="stroke: #009384; stroke-opacity: 0.15"/>
    </defs>
    <g clip-path="url(#pee21e0433d)">
     <use xlink:href="#m8b55c81424" x="0" y="298.015156" style="fill: #009384; fill-opacity: 0.15; stroke: #009384; stroke-opacity: 0.15"/>
    </g>
   </g>
   <g id="PolyCollection_2">
    <defs>
     <path id="m940da9201a" d="M 85.086838 -235.470995 
L 85.086838 -210.354203 
L 92.333592 -210.669525 
L 99.580345 -210.614386 
L 106.827098 -210.30837 
L 114.073851 -210.286641 
L 121.320605 -210.206656 
L 128.567358 -210.297063 
L 135.814111 -210.130871 
L 143.060864 -211.613425 
L 150.307618 -213.070349 
L 157.554371 -215.111971 
L 164.801124 -217.239476 
L 172.047877 -219.450398 
L 179.294631 -221.995253 
L 186.541384 -226.881016 
L 193.788137 -231.193703 
L 201.03489 -234.185675 
L 208.281644 -236.499993 
L 215.528397 -238.468078 
L 222.77515 -238.46543 
L 230.021903 -238.24908 
L 237.268657 -237.391591 
L 244.51541 -236.742674 
L 251.762163 -235.302736 
L 259.008916 -233.971066 
L 266.25567 -230.025271 
L 273.502423 -226.569441 
L 280.749176 -223.135513 
L 287.995929 -220.237532 
L 295.242683 -217.65164 
L 302.489436 -215.309743 
L 309.736189 -213.242999 
L 316.982942 -211.159277 
L 324.229696 -208.919261 
L 331.476449 -206.915921 
L 338.723202 -205.082024 
L 345.969955 -203.366436 
L 353.216709 -201.479391 
L 360.463462 -199.912941 
L 367.710215 -196.965897 
L 374.956968 -193.879168 
L 382.203722 -186.040275 
L 389.450475 -173.041205 
L 389.450475 -191.745285 
L 389.450475 -191.745285 
L 382.203722 -206.483482 
L 374.956968 -216.39872 
L 367.710215 -221.436406 
L 360.463462 -225.003645 
L 353.216709 -227.09984 
L 345.969955 -228.905203 
L 338.723202 -230.529597 
L 331.476449 -232.367976 
L 324.229696 -234.146624 
L 316.982942 -236.474516 
L 309.736189 -238.227957 
L 302.489436 -240.330894 
L 295.242683 -242.440524 
L 287.995929 -244.787049 
L 280.749176 -247.455709 
L 273.502423 -250.592797 
L 266.25567 -253.730123 
L 259.008916 -257.401228 
L 251.762163 -258.759042 
L 244.51541 -259.973848 
L 237.268657 -260.843167 
L 230.021903 -261.274161 
L 222.77515 -261.817812 
L 215.528397 -261.683132 
L 208.281644 -260.123772 
L 201.03489 -257.885369 
L 193.788137 -255.335182 
L 186.541384 -251.212831 
L 179.294631 -246.546376 
L 172.047877 -244.084838 
L 164.801124 -242.119566 
L 157.554371 -239.855216 
L 150.307618 -238.331966 
L 143.060864 -236.732593 
L 135.814111 -235.501679 
L 128.567358 -235.40701 
L 121.320605 -235.482033 
L 114.073851 -235.196078 
L 106.827098 -235.389056 
L 99.580345 -235.679609 
L 92.333592 -236.068599 
L 85.086838 -235.470995 
z
" style="stroke: #b85741; stroke-opacity: 0.15"/>
    </defs>
    <g clip-path="url(#pee21e0433d)">
     <use xlink:href="#m940da9201a" x="0" y="298.015156" style="fill: #b85741; fill-opacity: 0.15; stroke: #b85741; stroke-opacity: 0.15"/>
    </g>
   </g>
   <g id="matplotlib.axis_1">
    <g id="xtick_1">
     <g id="line2d_1">
      <defs>
       <path id="m77ae5d5995" d="M 0 0 
L 0 3.5 
" style="stroke: #000000; stroke-width: 0.8"/>
      </defs>
      <g>
       <use xlink:href="#m77ae5d5995" x="85.086838" y="247.877344" style="stroke: #000000; stroke-width: 0.8"/>
      </g>
     </g>
     <g id="text_1">
      <!-- 0 -->
      <g transform="translate(79.996838 267.034844) scale(0.16 -0.16)">
       <defs>
        <path id="DejaVuSans-30" d="M 2034 4250 
Q 1547 4250 1301 3770 
Q 1056 3291 1056 2328 
Q 1056 1369 1301 889 
Q 1547 409 2034 409 
Q 2525 409 2770 889 
Q 3016 1369 3016 2328 
Q 3016 3291 2770 3770 
Q 2525 4250 2034 4250 
z
M 2034 4750 
Q 2819 4750 3233 4129 
Q 3647 3509 3647 2328 
Q 3647 1150 3233 529 
Q 2819 -91 2034 -91 
Q 1250 -91 836 529 
Q 422 1150 422 2328 
Q 422 3509 836 4129 
Q 1250 4750 2034 4750 
z
" transform="scale(0.015625)"/>
       </defs>
       <use xlink:href="#DejaVuSans-30"/>
      </g>
     </g>
    </g>
    <g id="xtick_2">
     <g id="line2d_2">
      <g>
       <use xlink:href="#m77ae5d5995" x="157.554371" y="247.877344" style="stroke: #000000; stroke-width: 0.8"/>
      </g>
     </g>
     <g id="text_2">
      <!-- 10 -->
      <g transform="translate(147.374371 267.034844) scale(0.16 -0.16)">
       <defs>
        <path id="DejaVuSans-31" d="M 794 531 
L 1825 531 
L 1825 4091 
L 703 3866 
L 703 4441 
L 1819 4666 
L 2450 4666 
L 2450 531 
L 3481 531 
L 3481 0 
L 794 0 
L 794 531 
z
" transform="scale(0.015625)"/>
       </defs>
       <use xlink:href="#DejaVuSans-31"/>
       <use xlink:href="#DejaVuSans-30" x="63.623047"/>
      </g>
     </g>
    </g>
    <g id="xtick_3">
     <g id="line2d_3">
      <g>
       <use xlink:href="#m77ae5d5995" x="230.021903" y="247.877344" style="stroke: #000000; stroke-width: 0.8"/>
      </g>
     </g>
     <g id="text_3">
      <!-- 20 -->
      <g transform="translate(219.841903 267.034844) scale(0.16 -0.16)">
       <defs>
        <path id="DejaVuSans-32" d="M 1228 531 
L 3431 531 
L 3431 0 
L 469 0 
L 469 531 
Q 828 903 1448 1529 
Q 2069 2156 2228 2338 
Q 2531 2678 2651 2914 
Q 2772 3150 2772 3378 
Q 2772 3750 2511 3984 
Q 2250 4219 1831 4219 
Q 1534 4219 1204 4116 
Q 875 4013 500 3803 
L 500 4441 
Q 881 4594 1212 4672 
Q 1544 4750 1819 4750 
Q 2544 4750 2975 4387 
Q 3406 4025 3406 3419 
Q 3406 3131 3298 2873 
Q 3191 2616 2906 2266 
Q 2828 2175 2409 1742 
Q 1991 1309 1228 531 
z
" transform="scale(0.015625)"/>
       </defs>
       <use xlink:href="#DejaVuSans-32"/>
       <use xlink:href="#DejaVuSans-30" x="63.623047"/>
      </g>
     </g>
    </g>
    <g id="xtick_4">
     <g id="line2d_4">
      <g>
       <use xlink:href="#m77ae5d5995" x="302.489436" y="247.877344" style="stroke: #000000; stroke-width: 0.8"/>
      </g>
     </g>
     <g id="text_4">
      <!-- 30 -->
      <g transform="translate(292.309436 267.034844) scale(0.16 -0.16)">
       <defs>
        <path id="DejaVuSans-33" d="M 2597 2516 
Q 3050 2419 3304 2112 
Q 3559 1806 3559 1356 
Q 3559 666 3084 287 
Q 2609 -91 1734 -91 
Q 1441 -91 1130 -33 
Q 819 25 488 141 
L 488 750 
Q 750 597 1062 519 
Q 1375 441 1716 441 
Q 2309 441 2620 675 
Q 2931 909 2931 1356 
Q 2931 1769 2642 2001 
Q 2353 2234 1838 2234 
L 1294 2234 
L 1294 2753 
L 1863 2753 
Q 2328 2753 2575 2939 
Q 2822 3125 2822 3475 
Q 2822 3834 2567 4026 
Q 2313 4219 1838 4219 
Q 1578 4219 1281 4162 
Q 984 4106 628 3988 
L 628 4550 
Q 988 4650 1302 4700 
Q 1616 4750 1894 4750 
Q 2613 4750 3031 4423 
Q 3450 4097 3450 3541 
Q 3450 3153 3228 2886 
Q 3006 2619 2597 2516 
z
" transform="scale(0.015625)"/>
       </defs>
       <use xlink:href="#DejaVuSans-33"/>
       <use xlink:href="#DejaVuSans-30" x="63.623047"/>
      </g>
     </g>
    </g>
    <g id="xtick_5">
     <g id="line2d_5">
      <g>
       <use xlink:href="#m77ae5d5995" x="374.956968" y="247.877344" style="stroke: #000000; stroke-width: 0.8"/>
      </g>
     </g>
     <g id="text_5">
      <!-- 40 -->
      <g transform="translate(364.776968 267.034844) scale(0.16 -0.16)">
       <defs>
        <path id="DejaVuSans-34" d="M 2419 4116 
L 825 1625 
L 2419 1625 
L 2419 4116 
z
M 2253 4666 
L 3047 4666 
L 3047 1625 
L 3713 1625 
L 3713 1100 
L 3047 1100 
L 3047 0 
L 2419 0 
L 2419 1100 
L 313 1100 
L 313 1709 
L 2253 4666 
z
" transform="scale(0.015625)"/>
       </defs>
       <use xlink:href="#DejaVuSans-34"/>
       <use xlink:href="#DejaVuSans-30" x="63.623047"/>
      </g>
     </g>
    </g>
    <g id="xtick_6">
     <g id="line2d_6">
      <g>
       <use xlink:href="#m77ae5d5995" x="447.424501" y="247.877344" style="stroke: #000000; stroke-width: 0.8"/>
      </g>
     </g>
     <g id="text_6">
      <!-- 50 -->
      <g transform="translate(437.244501 267.034844) scale(0.16 -0.16)">
       <defs>
        <path id="DejaVuSans-35" d="M 691 4666 
L 3169 4666 
L 3169 4134 
L 1269 4134 
L 1269 2991 
Q 1406 3038 1543 3061 
Q 1681 3084 1819 3084 
Q 2600 3084 3056 2656 
Q 3513 2228 3513 1497 
Q 3513 744 3044 326 
Q 2575 -91 1722 -91 
Q 1428 -91 1123 -41 
Q 819 9 494 109 
L 494 744 
Q 775 591 1075 516 
Q 1375 441 1709 441 
Q 2250 441 2565 725 
Q 2881 1009 2881 1497 
Q 2881 1984 2565 2268 
Q 2250 2553 1709 2553 
Q 1456 2553 1204 2497 
Q 953 2441 691 2322 
L 691 4666 
z
" transform="scale(0.015625)"/>
       </defs>
       <use xlink:href="#DejaVuSans-35"/>
       <use xlink:href="#DejaVuSans-30" x="63.623047"/>
      </g>
     </g>
    </g>
    <g id="xtick_7">
     <g id="line2d_7">
      <g>
       <use xlink:href="#m77ae5d5995" x="519.892033" y="247.877344" style="stroke: #000000; stroke-width: 0.8"/>
      </g>
     </g>
     <g id="text_7">
      <!-- 60 -->
      <g transform="translate(509.712033 267.034844) scale(0.16 -0.16)">
       <defs>
        <path id="DejaVuSans-36" d="M 2113 2584 
Q 1688 2584 1439 2293 
Q 1191 2003 1191 1497 
Q 1191 994 1439 701 
Q 1688 409 2113 409 
Q 2538 409 2786 701 
Q 3034 994 3034 1497 
Q 3034 2003 2786 2293 
Q 2538 2584 2113 2584 
z
M 3366 4563 
L 3366 3988 
Q 3128 4100 2886 4159 
Q 2644 4219 2406 4219 
Q 1781 4219 1451 3797 
Q 1122 3375 1075 2522 
Q 1259 2794 1537 2939 
Q 1816 3084 2150 3084 
Q 2853 3084 3261 2657 
Q 3669 2231 3669 1497 
Q 3669 778 3244 343 
Q 2819 -91 2113 -91 
Q 1303 -91 875 529 
Q 447 1150 447 2328 
Q 447 3434 972 4092 
Q 1497 4750 2381 4750 
Q 2619 4750 2861 4703 
Q 3103 4656 3366 4563 
z
" transform="scale(0.015625)"/>
       </defs>
       <use xlink:href="#DejaVuSans-36"/>
       <use xlink:href="#DejaVuSans-30" x="63.623047"/>
      </g>
     </g>
    </g>
    <g id="text_8">
     <!-- Time (s) -->
     <g transform="translate(271.553672 287.279687) scale(0.17 -0.17)">
      <defs>
       <path id="DejaVuSans-54" d="M -19 4666 
L 3928 4666 
L 3928 4134 
L 2272 4134 
L 2272 0 
L 1638 0 
L 1638 4134 
L -19 4134 
L -19 4666 
z
" transform="scale(0.015625)"/>
       <path id="DejaVuSans-69" d="M 603 3500 
L 1178 3500 
L 1178 0 
L 603 0 
L 603 3500 
z
M 603 4863 
L 1178 4863 
L 1178 4134 
L 603 4134 
L 603 4863 
z
" transform="scale(0.015625)"/>
       <path id="DejaVuSans-6d" d="M 3328 2828 
Q 3544 3216 3844 3400 
Q 4144 3584 4550 3584 
Q 5097 3584 5394 3201 
Q 5691 2819 5691 2113 
L 5691 0 
L 5113 0 
L 5113 2094 
Q 5113 2597 4934 2840 
Q 4756 3084 4391 3084 
Q 3944 3084 3684 2787 
Q 3425 2491 3425 1978 
L 3425 0 
L 2847 0 
L 2847 2094 
Q 2847 2600 2669 2842 
Q 2491 3084 2119 3084 
Q 1678 3084 1418 2786 
Q 1159 2488 1159 1978 
L 1159 0 
L 581 0 
L 581 3500 
L 1159 3500 
L 1159 2956 
Q 1356 3278 1631 3431 
Q 1906 3584 2284 3584 
Q 2666 3584 2933 3390 
Q 3200 3197 3328 2828 
z
" transform="scale(0.015625)"/>
       <path id="DejaVuSans-65" d="M 3597 1894 
L 3597 1613 
L 953 1613 
Q 991 1019 1311 708 
Q 1631 397 2203 397 
Q 2534 397 2845 478 
Q 3156 559 3463 722 
L 3463 178 
Q 3153 47 2828 -22 
Q 2503 -91 2169 -91 
Q 1331 -91 842 396 
Q 353 884 353 1716 
Q 353 2575 817 3079 
Q 1281 3584 2069 3584 
Q 2775 3584 3186 3129 
Q 3597 2675 3597 1894 
z
M 3022 2063 
Q 3016 2534 2758 2815 
Q 2500 3097 2075 3097 
Q 1594 3097 1305 2825 
Q 1016 2553 972 2059 
L 3022 2063 
z
" transform="scale(0.015625)"/>
       <path id="DejaVuSans-20" transform="scale(0.015625)"/>
       <path id="DejaVuSans-28" d="M 1984 4856 
Q 1566 4138 1362 3434 
Q 1159 2731 1159 2009 
Q 1159 1288 1364 580 
Q 1569 -128 1984 -844 
L 1484 -844 
Q 1016 -109 783 600 
Q 550 1309 550 2009 
Q 550 2706 781 3412 
Q 1013 4119 1484 4856 
L 1984 4856 
z
" transform="scale(0.015625)"/>
       <path id="DejaVuSans-73" d="M 2834 3397 
L 2834 2853 
Q 2591 2978 2328 3040 
Q 2066 3103 1784 3103 
Q 1356 3103 1142 2972 
Q 928 2841 928 2578 
Q 928 2378 1081 2264 
Q 1234 2150 1697 2047 
L 1894 2003 
Q 2506 1872 2764 1633 
Q 3022 1394 3022 966 
Q 3022 478 2636 193 
Q 2250 -91 1575 -91 
Q 1294 -91 989 -36 
Q 684 19 347 128 
L 347 722 
Q 666 556 975 473 
Q 1284 391 1588 391 
Q 1994 391 2212 530 
Q 2431 669 2431 922 
Q 2431 1156 2273 1281 
Q 2116 1406 1581 1522 
L 1381 1569 
Q 847 1681 609 1914 
Q 372 2147 372 2553 
Q 372 3047 722 3315 
Q 1072 3584 1716 3584 
Q 2034 3584 2315 3537 
Q 2597 3491 2834 3397 
z
" transform="scale(0.015625)"/>
       <path id="DejaVuSans-29" d="M 513 4856 
L 1013 4856 
Q 1481 4119 1714 3412 
Q 1947 2706 1947 2009 
Q 1947 1309 1714 600 
Q 1481 -109 1013 -844 
L 513 -844 
Q 928 -128 1133 580 
Q 1338 1288 1338 2009 
Q 1338 2731 1133 3434 
Q 928 4138 513 4856 
z
" transform="scale(0.015625)"/>
      </defs>
      <use xlink:href="#DejaVuSans-54"/>
      <use xlink:href="#DejaVuSans-69" x="57.958984"/>
      <use xlink:href="#DejaVuSans-6d" x="85.742188"/>
      <use xlink:href="#DejaVuSans-65" x="183.154297"/>
      <use xlink:href="#DejaVuSans-20" x="244.677734"/>
      <use xlink:href="#DejaVuSans-28" x="276.464844"/>
      <use xlink:href="#DejaVuSans-73" x="315.478516"/>
      <use xlink:href="#DejaVuSans-29" x="367.578125"/>
     </g>
    </g>
   </g>
   <g id="matplotlib.axis_2">
    <g id="ytick_1">
     <g id="line2d_8">
      <defs>
       <path id="mbe126c873b" d="M 0 0 
L -3.5 0 
" style="stroke: #000000; stroke-width: 0.8"/>
      </defs>
      <g>
       <use xlink:href="#mbe126c873b" x="55.012813" y="200.938907" style="stroke: #000000; stroke-width: 0.8"/>
      </g>
     </g>
     <g id="text_9">
      <!-- 15 -->
      <g transform="translate(27.652813 207.017657) scale(0.16 -0.16)">
       <use xlink:href="#DejaVuSans-31"/>
       <use xlink:href="#DejaVuSans-35" x="63.623047"/>
      </g>
     </g>
    </g>
    <g id="ytick_2">
     <g id="line2d_9">
      <g>
       <use xlink:href="#mbe126c873b" x="55.012813" y="133.896362" style="stroke: #000000; stroke-width: 0.8"/>
      </g>
     </g>
     <g id="text_10">
      <!-- 20 -->
      <g transform="translate(27.652813 139.975112) scale(0.16 -0.16)">
       <use xlink:href="#DejaVuSans-32"/>
       <use xlink:href="#DejaVuSans-30" x="63.623047"/>
      </g>
     </g>
    </g>
    <g id="ytick_3">
     <g id="line2d_10">
      <g>
       <use xlink:href="#mbe126c873b" x="55.012813" y="66.853817" style="stroke: #000000; stroke-width: 0.8"/>
      </g>
     </g>
     <g id="text_11">
      <!-- 25 -->
      <g transform="translate(27.652813 72.932567) scale(0.16 -0.16)">
       <use xlink:href="#DejaVuSans-32"/>
       <use xlink:href="#DejaVuSans-35" x="63.623047"/>
      </g>
     </g>
    </g>
    <g id="text_12">
     <!-- Utilization (%) -->
     <g transform="translate(20.117344 196.996719) rotate(-90) scale(0.17 -0.17)">
      <defs>
       <path id="DejaVuSans-55" d="M 556 4666 
L 1191 4666 
L 1191 1831 
Q 1191 1081 1462 751 
Q 1734 422 2344 422 
Q 2950 422 3222 751 
Q 3494 1081 3494 1831 
L 3494 4666 
L 4128 4666 
L 4128 1753 
Q 4128 841 3676 375 
Q 3225 -91 2344 -91 
Q 1459 -91 1007 375 
Q 556 841 556 1753 
L 556 4666 
z
" transform="scale(0.015625)"/>
       <path id="DejaVuSans-74" d="M 1172 4494 
L 1172 3500 
L 2356 3500 
L 2356 3053 
L 1172 3053 
L 1172 1153 
Q 1172 725 1289 603 
Q 1406 481 1766 481 
L 2356 481 
L 2356 0 
L 1766 0 
Q 1100 0 847 248 
Q 594 497 594 1153 
L 594 3053 
L 172 3053 
L 172 3500 
L 594 3500 
L 594 4494 
L 1172 4494 
z
" transform="scale(0.015625)"/>
       <path id="DejaVuSans-6c" d="M 603 4863 
L 1178 4863 
L 1178 0 
L 603 0 
L 603 4863 
z
" transform="scale(0.015625)"/>
       <path id="DejaVuSans-7a" d="M 353 3500 
L 3084 3500 
L 3084 2975 
L 922 459 
L 3084 459 
L 3084 0 
L 275 0 
L 275 525 
L 2438 3041 
L 353 3041 
L 353 3500 
z
" transform="scale(0.015625)"/>
       <path id="DejaVuSans-61" d="M 2194 1759 
Q 1497 1759 1228 1600 
Q 959 1441 959 1056 
Q 959 750 1161 570 
Q 1363 391 1709 391 
Q 2188 391 2477 730 
Q 2766 1069 2766 1631 
L 2766 1759 
L 2194 1759 
z
M 3341 1997 
L 3341 0 
L 2766 0 
L 2766 531 
Q 2569 213 2275 61 
Q 1981 -91 1556 -91 
Q 1019 -91 701 211 
Q 384 513 384 1019 
Q 384 1609 779 1909 
Q 1175 2209 1959 2209 
L 2766 2209 
L 2766 2266 
Q 2766 2663 2505 2880 
Q 2244 3097 1772 3097 
Q 1472 3097 1187 3025 
Q 903 2953 641 2809 
L 641 3341 
Q 956 3463 1253 3523 
Q 1550 3584 1831 3584 
Q 2591 3584 2966 3190 
Q 3341 2797 3341 1997 
z
" transform="scale(0.015625)"/>
       <path id="DejaVuSans-6f" d="M 1959 3097 
Q 1497 3097 1228 2736 
Q 959 2375 959 1747 
Q 959 1119 1226 758 
Q 1494 397 1959 397 
Q 2419 397 2687 759 
Q 2956 1122 2956 1747 
Q 2956 2369 2687 2733 
Q 2419 3097 1959 3097 
z
M 1959 3584 
Q 2709 3584 3137 3096 
Q 3566 2609 3566 1747 
Q 3566 888 3137 398 
Q 2709 -91 1959 -91 
Q 1206 -91 779 398 
Q 353 888 353 1747 
Q 353 2609 779 3096 
Q 1206 3584 1959 3584 
z
" transform="scale(0.015625)"/>
       <path id="DejaVuSans-6e" d="M 3513 2113 
L 3513 0 
L 2938 0 
L 2938 2094 
Q 2938 2591 2744 2837 
Q 2550 3084 2163 3084 
Q 1697 3084 1428 2787 
Q 1159 2491 1159 1978 
L 1159 0 
L 581 0 
L 581 3500 
L 1159 3500 
L 1159 2956 
Q 1366 3272 1645 3428 
Q 1925 3584 2291 3584 
Q 2894 3584 3203 3211 
Q 3513 2838 3513 2113 
z
" transform="scale(0.015625)"/>
       <path id="DejaVuSans-25" d="M 4653 2053 
Q 4381 2053 4226 1822 
Q 4072 1591 4072 1178 
Q 4072 772 4226 539 
Q 4381 306 4653 306 
Q 4919 306 5073 539 
Q 5228 772 5228 1178 
Q 5228 1588 5073 1820 
Q 4919 2053 4653 2053 
z
M 4653 2450 
Q 5147 2450 5437 2106 
Q 5728 1763 5728 1178 
Q 5728 594 5436 251 
Q 5144 -91 4653 -91 
Q 4153 -91 3862 251 
Q 3572 594 3572 1178 
Q 3572 1766 3864 2108 
Q 4156 2450 4653 2450 
z
M 1428 4353 
Q 1159 4353 1004 4120 
Q 850 3888 850 3481 
Q 850 3069 1003 2837 
Q 1156 2606 1428 2606 
Q 1700 2606 1854 2837 
Q 2009 3069 2009 3481 
Q 2009 3884 1853 4118 
Q 1697 4353 1428 4353 
z
M 4250 4750 
L 4750 4750 
L 1831 -91 
L 1331 -91 
L 4250 4750 
z
M 1428 4750 
Q 1922 4750 2215 4408 
Q 2509 4066 2509 3481 
Q 2509 2891 2217 2550 
Q 1925 2209 1428 2209 
Q 931 2209 642 2551 
Q 353 2894 353 3481 
Q 353 4063 643 4406 
Q 934 4750 1428 4750 
z
" transform="scale(0.015625)"/>
      </defs>
      <use xlink:href="#DejaVuSans-55"/>
      <use xlink:href="#DejaVuSans-74" x="73.193359"/>
      <use xlink:href="#DejaVuSans-69" x="112.402344"/>
      <use xlink:href="#DejaVuSans-6c" x="140.185547"/>
      <use xlink:href="#DejaVuSans-69" x="167.96875"/>
      <use xlink:href="#DejaVuSans-7a" x="195.751953"/>
      <use xlink:href="#DejaVuSans-61" x="248.242188"/>
      <use xlink:href="#DejaVuSans-74" x="309.521484"/>
      <use xlink:href="#DejaVuSans-69" x="348.730469"/>
      <use xlink:href="#DejaVuSans-6f" x="376.513672"/>
      <use xlink:href="#DejaVuSans-6e" x="437.695312"/>
      <use xlink:href="#DejaVuSans-20" x="501.074219"/>
      <use xlink:href="#DejaVuSans-28" x="532.861328"/>
      <use xlink:href="#DejaVuSans-25" x="571.875"/>
      <use xlink:href="#DejaVuSans-29" x="666.894531"/>
     </g>
    </g>
   </g>
   <g id="line2d_11">
    <path d="M 77.840085 211.949645 
L 85.086838 210.829466 
L 92.333592 211.169344 
L 99.580345 211.498345 
L 106.827098 211.846072 
L 114.073851 212.159283 
L 121.320605 212.440247 
L 128.567358 212.635718 
L 135.814111 212.836141 
L 143.060864 212.949061 
L 150.307618 213.050988 
L 157.554371 213.04367 
L 164.801124 212.695338 
L 172.047877 212.262179 
L 179.294631 211.79287 
L 186.541384 211.270796 
L 193.788137 210.776544 
L 201.03489 210.285677 
L 208.281644 209.876302 
L 215.528397 209.456399 
L 222.77515 209.12074 
L 230.021903 208.799238 
L 237.268657 208.591308 
L 244.51541 208.415764 
L 251.762163 208.298045 
L 259.008916 208.249116 
L 266.25567 208.231138 
L 273.502423 208.246595 
L 280.749176 208.295266 
L 287.995929 208.345638 
L 295.242683 208.415863 
L 302.489436 208.473383 
L 309.736189 208.544978 
L 316.982942 208.589686 
L 324.229696 208.635866 
L 331.476449 208.680618 
L 338.723202 208.68794 
L 345.969955 208.69077 
L 353.216709 208.668937 
L 360.463462 208.639631 
L 367.710215 208.612073 
L 374.956968 208.572202 
L 382.203722 208.540025 
L 389.450475 208.483434 
L 396.697228 208.455408 
L 403.943981 208.40181 
L 411.190735 208.342889 
L 418.437488 208.281991 
L 425.684241 208.2513 
L 432.930994 208.181213 
L 440.177748 208.156851 
L 447.424501 208.051083 
L 454.671254 208.037319 
L 461.918007 207.940866 
L 469.164761 207.987234 
L 476.411514 207.869039 
L 483.658267 207.834114 
L 490.90502 207.770646 
L 498.151774 208.333932 
L 505.398527 208.260023 
L 512.64528 209.285992 
L 519.892033 209.233505 
L 527.138787 210.352777 
L 534.38554 212.371485 
" clip-path="url(#pee21e0433d)" style="fill: none; stroke: #009384; stroke-width: 2.5; stroke-linecap: square"/>
   </g>
   <g id="line2d_12">
    <path d="M 85.086838 75.102557 
L 92.333592 74.646094 
L 99.580345 74.868159 
L 106.827098 75.166443 
L 114.073851 75.273797 
L 121.320605 75.170812 
L 128.567358 75.16312 
L 135.814111 75.198881 
L 143.060864 73.842147 
L 150.307618 72.313999 
L 157.554371 70.531562 
L 164.801124 68.335635 
L 172.047877 66.247538 
L 179.294631 63.744342 
L 186.541384 58.968233 
L 193.788137 54.750714 
L 201.03489 51.979634 
L 208.281644 49.703274 
L 215.528397 47.939551 
L 222.77515 47.873535 
L 230.021903 48.253536 
L 237.268657 48.897777 
L 244.51541 49.656896 
L 251.762163 50.984267 
L 259.008916 52.329009 
L 266.25567 56.137459 
L 273.502423 59.434037 
L 280.749176 62.719545 
L 287.995929 65.502865 
L 295.242683 67.969074 
L 302.489436 70.194838 
L 309.736189 72.279678 
L 316.982942 74.19826 
L 324.229696 76.482214 
L 331.476449 78.373208 
L 338.723202 80.209346 
L 345.969955 81.879337 
L 353.216709 83.72554 
L 360.463462 85.556863 
L 367.710215 88.814004 
L 374.956968 92.876212 
L 382.203722 101.753278 
L 389.450475 115.621911 
" clip-path="url(#pee21e0433d)" style="fill: none; stroke: #b85741; stroke-width: 2.5; stroke-linecap: square"/>
   </g>
   <g id="patch_3">
    <path d="M 55.012813 247.877344 
L 55.012813 26.117344 
" style="fill: none; stroke: #000000; stroke-width: 0.8; stroke-linejoin: miter; stroke-linecap: square"/>
   </g>
   <g id="patch_4">
    <path d="M 557.212813 247.877344 
L 557.212813 26.117344 
" style="fill: none; stroke: #000000; stroke-width: 0.8; stroke-linejoin: miter; stroke-linecap: square"/>
   </g>
   <g id="patch_5">
    <path d="M 55.012813 247.877344 
L 557.212813 247.877344 
" style="fill: none; stroke: #000000; stroke-width: 0.8; stroke-linejoin: miter; stroke-linecap: square"/>
   </g>
   <g id="patch_6">
    <path d="M 55.012813 26.117344 
L 557.212813 26.117344 
" style="fill: none; stroke: #000000; stroke-width: 0.8; stroke-linejoin: miter; stroke-linecap: square"/>
   </g>
   <g id="text_13">
    <!-- Scale Cluster (RAM) -->
    <g transform="translate(222.324063 20.117344) scale(0.17 -0.17)">
     <defs>
      <path id="DejaVuSans-53" d="M 3425 4513 
L 3425 3897 
Q 3066 4069 2747 4153 
Q 2428 4238 2131 4238 
Q 1616 4238 1336 4038 
Q 1056 3838 1056 3469 
Q 1056 3159 1242 3001 
Q 1428 2844 1947 2747 
L 2328 2669 
Q 3034 2534 3370 2195 
Q 3706 1856 3706 1288 
Q 3706 609 3251 259 
Q 2797 -91 1919 -91 
Q 1588 -91 1214 -16 
Q 841 59 441 206 
L 441 856 
Q 825 641 1194 531 
Q 1563 422 1919 422 
Q 2459 422 2753 634 
Q 3047 847 3047 1241 
Q 3047 1584 2836 1778 
Q 2625 1972 2144 2069 
L 1759 2144 
Q 1053 2284 737 2584 
Q 422 2884 422 3419 
Q 422 4038 858 4394 
Q 1294 4750 2059 4750 
Q 2388 4750 2728 4690 
Q 3069 4631 3425 4513 
z
" transform="scale(0.015625)"/>
      <path id="DejaVuSans-63" d="M 3122 3366 
L 3122 2828 
Q 2878 2963 2633 3030 
Q 2388 3097 2138 3097 
Q 1578 3097 1268 2742 
Q 959 2388 959 1747 
Q 959 1106 1268 751 
Q 1578 397 2138 397 
Q 2388 397 2633 464 
Q 2878 531 3122 666 
L 3122 134 
Q 2881 22 2623 -34 
Q 2366 -91 2075 -91 
Q 1284 -91 818 406 
Q 353 903 353 1747 
Q 353 2603 823 3093 
Q 1294 3584 2113 3584 
Q 2378 3584 2631 3529 
Q 2884 3475 3122 3366 
z
" transform="scale(0.015625)"/>
      <path id="DejaVuSans-43" d="M 4122 4306 
L 4122 3641 
Q 3803 3938 3442 4084 
Q 3081 4231 2675 4231 
Q 1875 4231 1450 3742 
Q 1025 3253 1025 2328 
Q 1025 1406 1450 917 
Q 1875 428 2675 428 
Q 3081 428 3442 575 
Q 3803 722 4122 1019 
L 4122 359 
Q 3791 134 3420 21 
Q 3050 -91 2638 -91 
Q 1578 -91 968 557 
Q 359 1206 359 2328 
Q 359 3453 968 4101 
Q 1578 4750 2638 4750 
Q 3056 4750 3426 4639 
Q 3797 4528 4122 4306 
z
" transform="scale(0.015625)"/>
      <path id="DejaVuSans-75" d="M 544 1381 
L 544 3500 
L 1119 3500 
L 1119 1403 
Q 1119 906 1312 657 
Q 1506 409 1894 409 
Q 2359 409 2629 706 
Q 2900 1003 2900 1516 
L 2900 3500 
L 3475 3500 
L 3475 0 
L 2900 0 
L 2900 538 
Q 2691 219 2414 64 
Q 2138 -91 1772 -91 
Q 1169 -91 856 284 
Q 544 659 544 1381 
z
M 1991 3584 
L 1991 3584 
z
" transform="scale(0.015625)"/>
      <path id="DejaVuSans-72" d="M 2631 2963 
Q 2534 3019 2420 3045 
Q 2306 3072 2169 3072 
Q 1681 3072 1420 2755 
Q 1159 2438 1159 1844 
L 1159 0 
L 581 0 
L 581 3500 
L 1159 3500 
L 1159 2956 
Q 1341 3275 1631 3429 
Q 1922 3584 2338 3584 
Q 2397 3584 2469 3576 
Q 2541 3569 2628 3553 
L 2631 2963 
z
" transform="scale(0.015625)"/>
      <path id="DejaVuSans-52" d="M 2841 2188 
Q 3044 2119 3236 1894 
Q 3428 1669 3622 1275 
L 4263 0 
L 3584 0 
L 2988 1197 
Q 2756 1666 2539 1819 
Q 2322 1972 1947 1972 
L 1259 1972 
L 1259 0 
L 628 0 
L 628 4666 
L 2053 4666 
Q 2853 4666 3247 4331 
Q 3641 3997 3641 3322 
Q 3641 2881 3436 2590 
Q 3231 2300 2841 2188 
z
M 1259 4147 
L 1259 2491 
L 2053 2491 
Q 2509 2491 2742 2702 
Q 2975 2913 2975 3322 
Q 2975 3731 2742 3939 
Q 2509 4147 2053 4147 
L 1259 4147 
z
" transform="scale(0.015625)"/>
      <path id="DejaVuSans-41" d="M 2188 4044 
L 1331 1722 
L 3047 1722 
L 2188 4044 
z
M 1831 4666 
L 2547 4666 
L 4325 0 
L 3669 0 
L 3244 1197 
L 1141 1197 
L 716 0 
L 50 0 
L 1831 4666 
z
" transform="scale(0.015625)"/>
      <path id="DejaVuSans-4d" d="M 628 4666 
L 1569 4666 
L 2759 1491 
L 3956 4666 
L 4897 4666 
L 4897 0 
L 4281 0 
L 4281 4097 
L 3078 897 
L 2444 897 
L 1241 4097 
L 1241 0 
L 628 0 
L 628 4666 
z
" transform="scale(0.015625)"/>
     </defs>
     <use xlink:href="#DejaVuSans-53"/>
     <use xlink:href="#DejaVuSans-63" x="63.476562"/>
     <use xlink:href="#DejaVuSans-61" x="118.457031"/>
     <use xlink:href="#DejaVuSans-6c" x="179.736328"/>
     <use xlink:href="#DejaVuSans-65" x="207.519531"/>
     <use xlink:href="#DejaVuSans-20" x="269.042969"/>
     <use xlink:href="#DejaVuSans-43" x="300.830078"/>
     <use xlink:href="#DejaVuSans-6c" x="370.654297"/>
     <use xlink:href="#DejaVuSans-75" x="398.4375"/>
     <use xlink:href="#DejaVuSans-73" x="461.816406"/>
     <use xlink:href="#DejaVuSans-74" x="513.916016"/>
     <use xlink:href="#DejaVuSans-65" x="553.125"/>
     <use xlink:href="#DejaVuSans-72" x="614.648438"/>
     <use xlink:href="#DejaVuSans-20" x="655.761719"/>
     <use xlink:href="#DejaVuSans-28" x="687.548828"/>
     <use xlink:href="#DejaVuSans-52" x="726.5625"/>
     <use xlink:href="#DejaVuSans-41" x="792.044922"/>
     <use xlink:href="#DejaVuSans-4d" x="860.453125"/>
     <use xlink:href="#DejaVuSans-29" x="946.732422"/>
    </g>
   </g>
   <g id="legend_1">
    <g id="patch_7">
     <path d="M 390.627813 85.887344 
L 546.012812 85.887344 
Q 549.212813 85.887344 549.212813 82.687344 
L 549.212813 37.317344 
Q 549.212813 34.117344 546.012812 34.117344 
L 390.627813 34.117344 
Q 387.427813 34.117344 387.427813 37.317344 
L 387.427813 82.687344 
Q 387.427813 85.887344 390.627813 85.887344 
z
" style="fill: #ffffff; opacity: 0.8; stroke: #cccccc; stroke-linejoin: miter"/>
    </g>
    <g id="line2d_13">
     <path d="M 393.827813 47.074844 
L 409.827813 47.074844 
L 425.827813 47.074844 
" style="fill: none; stroke: #009384; stroke-width: 2.5; stroke-linecap: square"/>
    </g>
    <g id="text_14">
     <!-- KubeVirt  -->
     <g transform="translate(438.627813 52.674844) scale(0.16 -0.16)">
      <defs>
       <path id="DejaVuSans-4b" d="M 628 4666 
L 1259 4666 
L 1259 2694 
L 3353 4666 
L 4166 4666 
L 1850 2491 
L 4331 0 
L 3500 0 
L 1259 2247 
L 1259 0 
L 628 0 
L 628 4666 
z
" transform="scale(0.015625)"/>
       <path id="DejaVuSans-62" d="M 3116 1747 
Q 3116 2381 2855 2742 
Q 2594 3103 2138 3103 
Q 1681 3103 1420 2742 
Q 1159 2381 1159 1747 
Q 1159 1113 1420 752 
Q 1681 391 2138 391 
Q 2594 391 2855 752 
Q 3116 1113 3116 1747 
z
M 1159 2969 
Q 1341 3281 1617 3432 
Q 1894 3584 2278 3584 
Q 2916 3584 3314 3078 
Q 3713 2572 3713 1747 
Q 3713 922 3314 415 
Q 2916 -91 2278 -91 
Q 1894 -91 1617 61 
Q 1341 213 1159 525 
L 1159 0 
L 581 0 
L 581 4863 
L 1159 4863 
L 1159 2969 
z
" transform="scale(0.015625)"/>
       <path id="DejaVuSans-56" d="M 1831 0 
L 50 4666 
L 709 4666 
L 2188 738 
L 3669 4666 
L 4325 4666 
L 2547 0 
L 1831 0 
z
" transform="scale(0.015625)"/>
      </defs>
      <use xlink:href="#DejaVuSans-4b"/>
      <use xlink:href="#DejaVuSans-75" x="60.576172"/>
      <use xlink:href="#DejaVuSans-62" x="123.955078"/>
      <use xlink:href="#DejaVuSans-65" x="187.431641"/>
      <use xlink:href="#DejaVuSans-56" x="248.955078"/>
      <use xlink:href="#DejaVuSans-69" x="315.113281"/>
      <use xlink:href="#DejaVuSans-72" x="342.896484"/>
      <use xlink:href="#DejaVuSans-74" x="384.009766"/>
      <use xlink:href="#DejaVuSans-20" x="423.21875"/>
     </g>
    </g>
    <g id="line2d_14">
     <path d="M 393.827813 70.559844 
L 409.827813 70.559844 
L 425.827813 70.559844 
" style="fill: none; stroke: #b85741; stroke-width: 2.5; stroke-linecap: square"/>
    </g>
    <g id="text_15">
     <!-- OpenNebula  -->
     <g transform="translate(438.627813 76.159844) scale(0.16 -0.16)">
      <defs>
       <path id="DejaVuSans-4f" d="M 2522 4238 
Q 1834 4238 1429 3725 
Q 1025 3213 1025 2328 
Q 1025 1447 1429 934 
Q 1834 422 2522 422 
Q 3209 422 3611 934 
Q 4013 1447 4013 2328 
Q 4013 3213 3611 3725 
Q 3209 4238 2522 4238 
z
M 2522 4750 
Q 3503 4750 4090 4092 
Q 4678 3434 4678 2328 
Q 4678 1225 4090 567 
Q 3503 -91 2522 -91 
Q 1538 -91 948 565 
Q 359 1222 359 2328 
Q 359 3434 948 4092 
Q 1538 4750 2522 4750 
z
" transform="scale(0.015625)"/>
       <path id="DejaVuSans-70" d="M 1159 525 
L 1159 -1331 
L 581 -1331 
L 581 3500 
L 1159 3500 
L 1159 2969 
Q 1341 3281 1617 3432 
Q 1894 3584 2278 3584 
Q 2916 3584 3314 3078 
Q 3713 2572 3713 1747 
Q 3713 922 3314 415 
Q 2916 -91 2278 -91 
Q 1894 -91 1617 61 
Q 1341 213 1159 525 
z
M 3116 1747 
Q 3116 2381 2855 2742 
Q 2594 3103 2138 3103 
Q 1681 3103 1420 2742 
Q 1159 2381 1159 1747 
Q 1159 1113 1420 752 
Q 1681 391 2138 391 
Q 2594 391 2855 752 
Q 3116 1113 3116 1747 
z
" transform="scale(0.015625)"/>
       <path id="DejaVuSans-4e" d="M 628 4666 
L 1478 4666 
L 3547 763 
L 3547 4666 
L 4159 4666 
L 4159 0 
L 3309 0 
L 1241 3903 
L 1241 0 
L 628 0 
L 628 4666 
z
" transform="scale(0.015625)"/>
      </defs>
      <use xlink:href="#DejaVuSans-4f"/>
      <use xlink:href="#DejaVuSans-70" x="78.710938"/>
      <use xlink:href="#DejaVuSans-65" x="142.1875"/>
      <use xlink:href="#DejaVuSans-6e" x="203.710938"/>
      <use xlink:href="#DejaVuSans-4e" x="267.089844"/>
      <use xlink:href="#DejaVuSans-65" x="341.894531"/>
      <use xlink:href="#DejaVuSans-62" x="403.417969"/>
      <use xlink:href="#DejaVuSans-75" x="466.894531"/>
      <use xlink:href="#DejaVuSans-6c" x="530.273438"/>
      <use xlink:href="#DejaVuSans-61" x="558.056641"/>
      <use xlink:href="#DejaVuSans-20" x="619.335938"/>
     </g>
    </g>
   </g>
  </g>
 </g>
 <defs>
  <clipPath id="pee21e0433d">
   <rect x="55.012813" y="26.117344" width="502.2" height="221.76"/>
  </clipPath>
 </defs>
</svg>
